%TF.GenerationSoftware,KiCad,Pcbnew,8.0.4*%
%TF.CreationDate,2025-06-18T18:58:23-07:00*%
%TF.ProjectId,Dyno_LED_PCB,44796e6f-5f4c-4454-945f-5043422e6b69,rev?*%
%TF.SameCoordinates,Original*%
%TF.FileFunction,Copper,L1,Top*%
%TF.FilePolarity,Positive*%
%FSLAX46Y46*%
G04 Gerber Fmt 4.6, Leading zero omitted, Abs format (unit mm)*
G04 Created by KiCad (PCBNEW 8.0.4) date 2025-06-18 18:58:23*
%MOMM*%
%LPD*%
G01*
G04 APERTURE LIST*
G04 Aperture macros list*
%AMRoundRect*
0 Rectangle with rounded corners*
0 $1 Rounding radius*
0 $2 $3 $4 $5 $6 $7 $8 $9 X,Y pos of 4 corners*
0 Add a 4 corners polygon primitive as box body*
4,1,4,$2,$3,$4,$5,$6,$7,$8,$9,$2,$3,0*
0 Add four circle primitives for the rounded corners*
1,1,$1+$1,$2,$3*
1,1,$1+$1,$4,$5*
1,1,$1+$1,$6,$7*
1,1,$1+$1,$8,$9*
0 Add four rect primitives between the rounded corners*
20,1,$1+$1,$2,$3,$4,$5,0*
20,1,$1+$1,$4,$5,$6,$7,0*
20,1,$1+$1,$6,$7,$8,$9,0*
20,1,$1+$1,$8,$9,$2,$3,0*%
%AMFreePoly0*
4,1,19,0.500000,-0.750000,0.000000,-0.750000,0.000000,-0.744911,-0.071157,-0.744911,-0.207708,-0.704816,-0.327430,-0.627875,-0.420627,-0.520320,-0.479746,-0.390866,-0.500000,-0.250000,-0.500000,0.250000,-0.479746,0.390866,-0.420627,0.520320,-0.327430,0.627875,-0.207708,0.704816,-0.071157,0.744911,0.000000,0.744911,0.000000,0.750000,0.500000,0.750000,0.500000,-0.750000,0.500000,-0.750000,
$1*%
%AMFreePoly1*
4,1,19,0.000000,0.744911,0.071157,0.744911,0.207708,0.704816,0.327430,0.627875,0.420627,0.520320,0.479746,0.390866,0.500000,0.250000,0.500000,-0.250000,0.479746,-0.390866,0.420627,-0.520320,0.327430,-0.627875,0.207708,-0.704816,0.071157,-0.744911,0.000000,-0.744911,0.000000,-0.750000,-0.500000,-0.750000,-0.500000,0.750000,0.000000,0.750000,0.000000,0.744911,0.000000,0.744911,
$1*%
G04 Aperture macros list end*
%TA.AperFunction,ComponentPad*%
%ADD10R,1.700000X1.700000*%
%TD*%
%TA.AperFunction,ComponentPad*%
%ADD11O,1.700000X1.700000*%
%TD*%
%TA.AperFunction,SMDPad,CuDef*%
%ADD12RoundRect,0.250000X0.625000X-0.375000X0.625000X0.375000X-0.625000X0.375000X-0.625000X-0.375000X0*%
%TD*%
%TA.AperFunction,SMDPad,CuDef*%
%ADD13RoundRect,0.225000X0.375000X-0.225000X0.375000X0.225000X-0.375000X0.225000X-0.375000X-0.225000X0*%
%TD*%
%TA.AperFunction,SMDPad,CuDef*%
%ADD14RoundRect,0.250000X-0.671751X-1.449569X1.449569X0.671751X0.671751X1.449569X-1.449569X-0.671751X0*%
%TD*%
%TA.AperFunction,SMDPad,CuDef*%
%ADD15FreePoly0,90.000000*%
%TD*%
%TA.AperFunction,SMDPad,CuDef*%
%ADD16FreePoly1,90.000000*%
%TD*%
%TA.AperFunction,SMDPad,CuDef*%
%ADD17RoundRect,0.250000X-1.449569X0.671751X0.671751X-1.449569X1.449569X-0.671751X-0.671751X1.449569X0*%
%TD*%
%TA.AperFunction,SMDPad,CuDef*%
%ADD18RoundRect,0.225000X-0.375000X0.225000X-0.375000X-0.225000X0.375000X-0.225000X0.375000X0.225000X0*%
%TD*%
%TA.AperFunction,ComponentPad*%
%ADD19RoundRect,0.250000X0.600000X0.750000X-0.600000X0.750000X-0.600000X-0.750000X0.600000X-0.750000X0*%
%TD*%
%TA.AperFunction,ComponentPad*%
%ADD20O,1.700000X2.000000*%
%TD*%
%TA.AperFunction,Conductor*%
%ADD21C,0.508000*%
%TD*%
G04 APERTURE END LIST*
D10*
%TO.P,J2,1,Pin_1*%
%TO.N,Net-(D1-K)*%
X68725000Y-61000000D03*
D11*
%TO.P,J2,2,Pin_2*%
%TO.N,Net-(D2-A)*%
X71265000Y-61000000D03*
%TD*%
D12*
%TO.P,D4,1,K*%
%TO.N,Net-(D2-A)*%
X73000000Y-54400000D03*
%TO.P,D4,2,A*%
%TO.N,Net-(D4-A)*%
X73000000Y-51600000D03*
%TD*%
D13*
%TO.P,D1,1,K*%
%TO.N,Net-(D1-K)*%
X69000000Y-46800000D03*
%TO.P,D1,2,A*%
%TO.N,Net-(D1-A)*%
X69000000Y-43500000D03*
%TD*%
D12*
%TO.P,D3,1,K*%
%TO.N,Net-(D2-A)*%
X68000000Y-54400000D03*
%TO.P,D3,2,A*%
%TO.N,Net-(D3-A)*%
X68000000Y-51600000D03*
%TD*%
D14*
%TO.P,C1,1*%
%TO.N,Net-(D1-K)*%
X59090810Y-48409189D03*
%TO.P,C1,2*%
%TO.N,Net-(J1-Pin_1)*%
X62909190Y-44590811D03*
%TD*%
D15*
%TO.P,JP2,1,A*%
%TO.N,Net-(D3-A)*%
X59000000Y-53500000D03*
D16*
%TO.P,JP2,2,B*%
%TO.N,Net-(D1-K)*%
X59000000Y-52200000D03*
%TD*%
D17*
%TO.P,C2,1*%
%TO.N,Net-(J1-Pin_1)*%
X77181622Y-44681619D03*
%TO.P,C2,2*%
%TO.N,Net-(D2-A)*%
X81000000Y-48499999D03*
%TD*%
D15*
%TO.P,JP1,1,A*%
%TO.N,Net-(D4-A)*%
X81500002Y-55150001D03*
D16*
%TO.P,JP1,2,B*%
%TO.N,Net-(D1-K)*%
X81499998Y-53849999D03*
%TD*%
D18*
%TO.P,D2,1,K*%
%TO.N,Net-(D1-A)*%
X72000000Y-43500000D03*
%TO.P,D2,2,A*%
%TO.N,Net-(D2-A)*%
X72000000Y-46800000D03*
%TD*%
D19*
%TO.P,J1,1,Pin_1*%
%TO.N,Net-(J1-Pin_1)*%
X71500000Y-38500000D03*
D20*
%TO.P,J1,2,Pin_2*%
%TO.N,Net-(D1-A)*%
X69000000Y-38500000D03*
%TD*%
D21*
%TO.N,Net-(D1-A)*%
X69000000Y-43500000D02*
X72000000Y-43500000D01*
%TO.N,Net-(D1-K)*%
X58000000Y-56000000D02*
X60000000Y-55500000D01*
X57000000Y-54500000D02*
X58000000Y-56000000D01*
X59000000Y-52200000D02*
X56500000Y-52500000D01*
X69000000Y-46800000D02*
X59090809Y-48409189D01*
X81499998Y-53849999D02*
X76000000Y-54500000D01*
X72500000Y-63500000D02*
X69500000Y-63500000D01*
X56500000Y-52500000D02*
X57000000Y-54500000D01*
X74000000Y-62500000D02*
X72500000Y-63500000D01*
X69500000Y-63500000D02*
X68725000Y-61000000D01*
X65500000Y-59500000D02*
X68725000Y-61000000D01*
X60000000Y-55500000D02*
X63000000Y-54500000D01*
X63000000Y-54500000D02*
X66000000Y-57000000D01*
X76000000Y-54500000D02*
X74000000Y-56500000D01*
X59000000Y-52200000D02*
X59090809Y-48409189D01*
X66000000Y-57000000D02*
X65500000Y-59500000D01*
X74000000Y-56500000D02*
X74000000Y-62500000D01*
%TO.N,Net-(J1-Pin_1)*%
X67000000Y-38000000D02*
X67500000Y-36500000D01*
X70000000Y-36500000D02*
X71500000Y-38500000D01*
X67500000Y-36500000D02*
X70000000Y-36500000D01*
X66500000Y-41000000D02*
X67000000Y-38000000D01*
X71500000Y-38500000D02*
X77181622Y-44681618D01*
X62909191Y-44590811D02*
X66500000Y-41000000D01*
%TO.N,Net-(D2-A)*%
X71265000Y-61000000D02*
X70000000Y-57500000D01*
X68000000Y-54400000D02*
X71000000Y-54400000D01*
X70000000Y-57500000D02*
X68000000Y-56500000D01*
X72000000Y-46800000D02*
X81000000Y-48500000D01*
X71000000Y-48500000D02*
X72000000Y-46800000D01*
X68000000Y-56500000D02*
X68000000Y-54400000D01*
X71000000Y-54400000D02*
X71000000Y-48500000D01*
X71000000Y-54400000D02*
X73000000Y-54400000D01*
%TO.N,Net-(D1-A)*%
X69000000Y-38500000D02*
X69000000Y-43500000D01*
%TO.N,Net-(D3-A)*%
X68000000Y-51600000D02*
X59000000Y-53500000D01*
%TO.N,Net-(D4-A)*%
X83500000Y-52500000D02*
X81000000Y-52000000D01*
X82423512Y-56456711D02*
X83352696Y-54444469D01*
X81500000Y-56500000D02*
X82423512Y-56456711D01*
X81000000Y-52000000D02*
X77500000Y-52500000D01*
X77500000Y-52500000D02*
X73000000Y-51600000D01*
X81500002Y-55150001D02*
X81500000Y-56500000D01*
X83352696Y-54444469D02*
X83500000Y-52500000D01*
%TD*%
M02*
