ISO-10303-21;
HEADER;
FILE_DESCRIPTION (( 'STEP AP214' ),
    '1' );
FILE_NAME ('P001-B102_MagnetHolderRing_Rev2C_7.STEP',
    '2026-04-24T00:47:42',
    ( '' ),
    ( '' ),
    'SwSTEP 2.0',
    'SolidWorks 2026',
    '' );
FILE_SCHEMA (( 'AUTOMOTIVE_DESIGN' ));
ENDSEC;

DATA;
#1 = CARTESIAN_POINT ( 'NONE',  ( 5.149999999999996803, 2.574999999999999289, -5.000000000000000000 ) ) ;
#2 = ADVANCED_FACE ( 'NONE', ( #758 ), #183, .T. ) ;
#3 = EDGE_CURVE ( 'NONE', #881, #353, #34, .T. ) ;
#4 = EDGE_LOOP ( 'NONE', ( #789, #755, #220, #908 ) ) ;
#5 = CARTESIAN_POINT ( 'NONE',  ( 2.575000000000020162, -4.460030829489845416, 0.000000000000000000 ) ) ;
#6 = LINE ( 'NONE', #293, #656 ) ;
#7 = VERTEX_POINT ( 'NONE', #601 ) ;
#8 = DIRECTION ( 'NONE',  ( -0.4999999999999979461, -0.8660254037844397068, 0.000000000000000000 ) ) ;
#9 = EDGE_CURVE ( 'NONE', #252, #19, #529, .T. ) ;
#10 = DIRECTION ( 'NONE',  ( -0.000000000000000000, -0.000000000000000000, -1.000000000000000000 ) ) ;
#11 = VERTEX_POINT ( 'NONE', #251 ) ;
#12 = EDGE_CURVE ( 'NONE', #858, #165, #75, .T. ) ;
#13 = EDGE_CURVE ( 'NONE', #353, #368, #391, .T. ) ;
#14 = CARTESIAN_POINT ( 'NONE',  ( -0.3449845852550566527, -5.747530829489855719, 5.000000000000000000 ) ) ;
#15 = SHAPE_DEFINITION_REPRESENTATION ( #164, #917 ) ;
#16 = AXIS2_PLACEMENT_3D ( 'NONE', #5, #484, #49 ) ;
#17 = CARTESIAN_POINT ( 'NONE',  ( -6.672196044795969172, 6.406582547646522130, 5.000000000000000000 ) ) ;
#18 = AXIS2_PLACEMENT_3D ( 'NONE', #729, #584, #73 ) ;
#19 = VERTEX_POINT ( 'NONE', #261 ) ;
#20 = LINE ( 'NONE', #227, #66 ) ;
#21 = PRESENTATION_LAYER_ASSIGNMENT (  '', '', ( #467 ) ) ;
#22 = DIRECTION ( 'NONE',  ( -0.5000000000000101030, 0.8660254037844328234, 0.000000000000000000 ) ) ;
#23 = ORIENTED_EDGE ( 'NONE', *, *, #509, .F. ) ;
#24 = CARTESIAN_POINT ( 'NONE',  ( 0.000000000000000000, 0.000000000000000000, 5.000000000000000000 ) ) ;
#25 = DIRECTION ( 'NONE',  ( -0.8660254037844432595, 0.4999999999999919509, 0.000000000000000000 ) ) ;
#26 = ORIENTED_EDGE ( 'NONE', *, *, #642, .F. ) ;
#27 = FACE_BOUND ( 'NONE', #470, .T. ) ;
#28 = DIRECTION ( 'NONE',  ( 0.5000000000000039968, -0.8660254037844363761, 0.000000000000000000 ) ) ;
#29 = CARTESIAN_POINT ( 'NONE',  ( -5.149999999999996803, -2.574999999999999289, -5.000000000000000000 ) ) ;
#30 = EDGE_CURVE ( 'NONE', #31, #325, #616, .T. ) ;
#31 = VERTEX_POINT ( 'NONE', #29 ) ;
#32 = DIRECTION ( 'NONE',  ( 0.8660254037844397068, -0.4999999999999979461, 0.000000000000000000 ) ) ;
#33 = CARTESIAN_POINT ( 'NONE',  ( 5.149999999999996803, 2.574999999999999289, -5.000000000000000000 ) ) ;
#34 = LINE ( 'NONE', #669, #206 ) ;
#35 = EDGE_LOOP ( 'NONE', ( #850, #375, #51, #796 ) ) ;
#36 = DIRECTION ( 'NONE',  ( -0.000000000000000000, -0.000000000000000000, -1.000000000000000000 ) ) ;
#37 = CARTESIAN_POINT ( 'NONE',  ( 4.805015414744943314, -3.172530829489835558, -5.000000000000000000 ) ) ;
#38 = FACE_OUTER_BOUND ( 'NONE', #640, .T. ) ;
#39 = EDGE_LOOP ( 'NONE', ( #317, #204, #921, #649 ) ) ;
#40 = DIRECTION ( 'NONE',  ( -0.000000000000000000, -0.000000000000000000, 1.000000000000000000 ) ) ;
#41 = CARTESIAN_POINT ( 'NONE',  ( -5.149999999999996803, 2.575000000000001066, 5.000000000000000000 ) ) ;
#42 = ORIENTED_EDGE ( 'NONE', *, *, #303, .T. ) ;
#43 = ORIENTED_EDGE ( 'NONE', *, *, #479, .F. ) ;
#44 = CARTESIAN_POINT ( 'NONE',  ( 5.149999999999996803, -2.575000000000001066, 5.000000000000000000 ) ) ;
#45 = DIRECTION ( 'NONE',  ( 0.4999999999999919509, 0.8660254037844432595, -0.000000000000000000 ) ) ;
#46 = VERTEX_POINT ( 'NONE', #833 ) ;
#47 = ORIENTED_EDGE ( 'NONE', *, *, #720, .T. ) ;
#48 = DIRECTION ( 'NONE',  ( -1.000000000000000000, 0.000000000000000000, 0.000000000000000000 ) ) ;
#49 = DIRECTION ( 'NONE',  ( 0.000000000000000000, 0.000000000000000000, 1.000000000000000000 ) ) ;
#50 = CARTESIAN_POINT ( 'NONE',  ( 2.212165215306076238, -8.981582547646587145, -5.000000000000000000 ) ) ;
#51 = ORIENTED_EDGE ( 'NONE', *, *, #911, .T. ) ;
#52 = LINE ( 'NONE', #483, #508 ) ;
#53 = PLANE ( 'NONE',  #791 ) ;
#54 = LINE ( 'NONE', #135, #234 ) ;
#55 = ORIENTED_EDGE ( 'NONE', *, *, #766, .T. ) ;
#56 = CARTESIAN_POINT ( 'NONE',  ( 0.000000000000000000, 0.000000000000000000, -5.000000000000000000 ) ) ;
#57 = AXIS2_PLACEMENT_3D ( 'NONE', #104, #826, #28 ) ;
#58 = VECTOR ( 'NONE', #10, 1000.000000000000000 ) ;
#59 = CARTESIAN_POINT ( 'NONE',  ( 0.000000000000000000, 0.000000000000000000, 5.000000000000000000 ) ) ;
#60 = ORIENTED_EDGE ( 'NONE', *, *, #860, .T. ) ;
#61 = FACE_OUTER_BOUND ( 'NONE', #493, .T. ) ;
#62 = ORIENTED_EDGE ( 'NONE', *, *, #342, .F. ) ;
#63 = ADVANCED_FACE ( 'NONE', ( #38 ), #524, .T. ) ;
#64 = CARTESIAN_POINT ( 'NONE',  ( -5.149999999999996803, 2.575000000000001066, 5.000000000000000000 ) ) ;
#65 = ORIENTED_EDGE ( 'NONE', *, *, #526, .F. ) ;
#66 = VECTOR ( 'NONE', #733, 1000.000000000000000 ) ;
#67 = DIRECTION ( 'NONE',  ( 1.000000000000000000, 0.000000000000000000, 0.000000000000000000 ) ) ;
#68 = CIRCLE ( 'NONE', #200, 9.250000000000000000 ) ;
#69 = LINE ( 'NONE', #644, #705 ) ;
#70 = ORIENTED_EDGE ( 'NONE', *, *, #426, .F. ) ;
#71 = EDGE_CURVE ( 'NONE', #368, #547, #245, .T. ) ;
#72 = CARTESIAN_POINT ( 'NONE',  ( 0.000000000000000000, 0.000000000000000000, -5.000000000000000000 ) ) ;
#73 = DIRECTION ( 'NONE',  ( -0.000000000000000000, 0.000000000000000000, 1.000000000000000000 ) ) ;
#74 = EDGE_CURVE ( 'NONE', #830, #77, #773, .T. ) ;
#75 = CIRCLE ( 'NONE', #156, 9.250000000000000000 ) ;
#76 = ORIENTED_EDGE ( 'NONE', *, *, #526, .T. ) ;
#77 = VERTEX_POINT ( 'NONE', #50 ) ;
#78 = DIRECTION ( 'NONE',  ( 1.000000000000000000, 0.000000000000000000, -0.000000000000000000 ) ) ;
#79 = CARTESIAN_POINT ( 'NONE',  ( -8.884361260101931279, 2.575000000000001066, 5.000000000000000000 ) ) ;
#80 = ORIENTED_EDGE ( 'NONE', *, *, #425, .F. ) ;
#81 = EDGE_LOOP ( 'NONE', ( #42, #697, #607, #321, #519, #136, #363, #225, #683, #226, #407, #834, #750, #60, #505, #531, #55, #76, #189, #117, #198, #131, #473, #586 ) ) ;
#82 = CARTESIAN_POINT ( 'NONE',  ( -4.805015414744921998, -3.172530829489866644, 5.000000000000000000 ) ) ;
#83 = VECTOR ( 'NONE', #385, 1000.000000000000000 ) ;
#84 = CARTESIAN_POINT ( 'NONE',  ( -2.212165215306017174, -8.981582547646603132, 5.000000000000000000 ) ) ;
#85 = ORIENTED_EDGE ( 'NONE', *, *, #859, .F. ) ;
#86 = LINE ( 'NONE', #588, #670 ) ;
#87 = CARTESIAN_POINT ( 'NONE',  ( -6.672196044795882131, -6.406582547646614501, 5.000000000000000000 ) ) ;
#88 = EDGE_LOOP ( 'NONE', ( #490, #933, #101, #486 ) ) ;
#89 = CARTESIAN_POINT ( 'NONE',  ( -5.149999999999996803, -2.574999999999999289, 5.000000000000000000 ) ) ;
#90 = EDGE_CURVE ( 'NONE', #31, #645, #785, .T. ) ;
#91 = CARTESIAN_POINT ( 'NONE',  ( 2.212165215306077126, -8.981582547646587145, 5.000000000000000000 ) ) ;
#92 = EDGE_CURVE ( 'NONE', #634, #547, #126, .T. ) ;
#93 = EDGE_LOOP ( 'NONE', ( #568, #759, #565, #336 ) ) ;
#94 = VERTEX_POINT ( 'NONE', #624 ) ;
#95 = LINE ( 'NONE', #879, #477 ) ;
#96 = AXIS2_PLACEMENT_3D ( 'NONE', #472, #332, #338 ) ;
#97 = CARTESIAN_POINT ( 'NONE',  ( -8.884361260101931279, 2.575000000000001066, -5.000000000000000000 ) ) ;
#98 = ORIENTED_EDGE ( 'NONE', *, *, #836, .T. ) ;
#99 = VECTOR ( 'NONE', #589, 1000.000000000000000 ) ;
#100 = VECTOR ( 'NONE', #819, 1000.000000000000000 ) ;
#101 = ORIENTED_EDGE ( 'NONE', *, *, #741, .T. ) ;
#102 = LINE ( 'NONE', #544, #314 ) ;
#103 = EDGE_CURVE ( 'NONE', #325, #122, #919, .T. ) ;
#104 = CARTESIAN_POINT ( 'NONE',  ( 4.805015414744943314, -3.172530829489835558, 5.000000000000000000 ) ) ;
#105 = EDGE_CURVE ( 'NONE', #353, #830, #927, .T. ) ;
#106 = ADVANCED_FACE ( 'NONE', ( #849 ), #637, .T. ) ;
#107 = EDGE_LOOP ( 'NONE', ( #211, #116, #902, #440 ) ) ;
#108 = ADVANCED_FACE ( 'NONE', ( #284 ), #491, .T. ) ;
#109 = ORIENTED_EDGE ( 'NONE', *, *, #90, .F. ) ;
#110 = DIRECTION ( 'NONE',  ( 0.000000000000000000, -1.000000000000000000, -0.000000000000000000 ) ) ;
#111 = LINE ( 'NONE', #390, #537 ) ;
#112 = DIRECTION ( 'NONE',  ( 1.000000000000000000, 0.000000000000000000, 0.000000000000000000 ) ) ;
#113 = ORIENTED_EDGE ( 'NONE', *, *, #907, .F. ) ;
#114 = CARTESIAN_POINT ( 'NONE',  ( 5.149999999999996803, -2.575000000000001066, 5.000000000000000000 ) ) ;
#115 = CARTESIAN_POINT ( 'NONE',  ( -2.574999999999988187, -4.460030829489862292, 0.000000000000000000 ) ) ;
#116 = ORIENTED_EDGE ( 'NONE', *, *, #509, .T. ) ;
#117 = ORIENTED_EDGE ( 'NONE', *, *, #334, .F. ) ;
#118 = DIRECTION ( 'NONE',  ( 0.000000000000000000, 0.000000000000000000, 1.000000000000000000 ) ) ;
#119 = VECTOR ( 'NONE', #394, 1000.000000000000000 ) ;
#120 = CARTESIAN_POINT ( 'NONE',  ( 6.672196044795836833, 6.406582547646659798, 5.000000000000000000 ) ) ;
#121 = DIRECTION ( 'NONE',  ( -0.4999999999999979461, -0.8660254037844397068, 0.000000000000000000 ) ) ;
#122 = VERTEX_POINT ( 'NONE', #769 ) ;
#123 = CARTESIAN_POINT ( 'NONE',  ( 0.000000000000000000, 0.000000000000000000, -5.000000000000000000 ) ) ;
#124 = CARTESIAN_POINT ( 'NONE',  ( -4.049999999999999822, 0.000000000000000000, -5.000000000000000000 ) ) ;
#125 = EDGE_CURVE ( 'NONE', #418, #46, #405, .T. ) ;
#126 = LINE ( 'NONE', #854, #905 ) ;
#127 = EDGE_LOOP ( 'NONE', ( #621, #575, #175, #625, #781, #730, #258, #737, #266, #786, #444, #285, #653, #387, #878, #682, #691, #852, #590, #435, #562, #896, #47, #23 ) ) ;
#128 = CARTESIAN_POINT ( 'NONE',  ( -0.3449845852551351455, 5.747530829489852167, 5.000000000000000000 ) ) ;
#129 = APPLICATION_CONTEXT ( 'automotive_design' ) ;
#130 = DIRECTION ( 'NONE',  ( -0.000000000000000000, -0.000000000000000000, -1.000000000000000000 ) ) ;
#131 = ORIENTED_EDGE ( 'NONE', *, *, #455, .T. ) ;
#132 = AXIS2_PLACEMENT_3D ( 'NONE', #787, #264, #912 ) ;
#133 = AXIS2_PLACEMENT_3D ( 'NONE', #550, #197, #788 ) ;
#134 = AXIS2_PLACEMENT_3D ( 'NONE', #890, #244, #485 ) ;
#135 = CARTESIAN_POINT ( 'NONE',  ( -0.3449845852551351455, 5.747530829489852167, -5.000000000000000000 ) ) ;
#136 = ORIENTED_EDGE ( 'NONE', *, *, #859, .T. ) ;
#137 =( GEOMETRIC_REPRESENTATION_CONTEXT ( 3 ) GLOBAL_UNCERTAINTY_ASSIGNED_CONTEXT ( ( #857 ) ) GLOBAL_UNIT_ASSIGNED_CONTEXT ( ( #657, #807, #728 ) ) REPRESENTATION_CONTEXT ( 'NONE', 'WORKASPACE' ) );
#138 = EDGE_CURVE ( 'NONE', #256, #770, #345, .T. ) ;
#139 = DIRECTION ( 'NONE',  ( -0.8660254037844398178, 0.4999999999999980016, 0.000000000000000000 ) ) ;
#140 = ORIENTED_EDGE ( 'NONE', *, *, #573, .T. ) ;
#141 = PLANE ( 'NONE',  #853 ) ;
#142 = DIRECTION ( 'NONE',  ( 0.8660254037844328234, 0.5000000000000101030, 0.000000000000000000 ) ) ;
#143 = EDGE_CURVE ( 'NONE', #94, #161, #829, .T. ) ;
#144 = UNCERTAINTY_MEASURE_WITH_UNIT (LENGTH_MEASURE( 1.000000000000000082E-05 ), #236, 'distance_accuracy_value', 'NONE');
#145 = ORIENTED_EDGE ( 'NONE', *, *, #143, .F. ) ;
#146 = VECTOR ( 'NONE', #158, 1000.000000000000000 ) ;
#147 = PLANE ( 'NONE',  #16 ) ;
#148 = ADVANCED_FACE ( 'NONE', ( #711 ), #339, .T. ) ;
#149 = VECTOR ( 'NONE', #487, 1000.000000000000000 ) ;
#150 = AXIS2_PLACEMENT_3D ( 'NONE', #59, #350, #210 ) ;
#151 = CARTESIAN_POINT ( 'NONE',  ( 4.805015414744898905, 3.172530829489899507, 5.000000000000000000 ) ) ;
#152 = ORIENTED_EDGE ( 'NONE', *, *, #627, .T. ) ;
#153 = ORIENTED_EDGE ( 'NONE', *, *, #847, .T. ) ;
#154 = CARTESIAN_POINT ( 'NONE',  ( -4.805015414744921998, -3.172530829489866644, -5.000000000000000000 ) ) ;
#155 = CARTESIAN_POINT ( 'NONE',  ( 0.000000000000000000, 0.000000000000000000, 5.000000000000000000 ) ) ;
#156 = AXIS2_PLACEMENT_3D ( 'NONE', #754, #452, #112 ) ;
#157 = ORIENTED_EDGE ( 'NONE', *, *, #71, .T. ) ;
#158 = DIRECTION ( 'NONE',  ( 0.000000000000000000, 0.000000000000000000, -1.000000000000000000 ) ) ;
#159 = PRODUCT_CONTEXT ( 'NONE', #180, 'mechanical' ) ;
#160 = CARTESIAN_POINT ( 'NONE',  ( 0.3449845852550952330, -5.747530829489855719, 5.000000000000000000 ) ) ;
#161 = VERTEX_POINT ( 'NONE', #420 ) ;
#162 = CARTESIAN_POINT ( 'NONE',  ( 4.805015414744898905, 3.172530829489899507, -5.000000000000000000 ) ) ;
#163 = LINE ( 'NONE', #64, #297 ) ;
#164 = PRODUCT_DEFINITION_SHAPE ( 'NONE', 'NONE',  #876 ) ;
#165 = VERTEX_POINT ( 'NONE', #203 ) ;
#166 = DIRECTION ( 'NONE',  ( 0.000000000000000000, 0.000000000000000000, 1.000000000000000000 ) ) ;
#167 = EDGE_CURVE ( 'NONE', #7, #805, #54, .T. ) ;
#168 = EDGE_CURVE ( 'NONE', #217, #542, #779, .T. ) ;
#169 = APPLICATION_PROTOCOL_DEFINITION ( 'draft international standard', 'automotive_design', 1998, #129 ) ;
#170 = CARTESIAN_POINT ( 'NONE',  ( 0.000000000000000000, 0.000000000000000000, -5.000000000000000000 ) ) ;
#171 = CARTESIAN_POINT ( 'NONE',  ( 0.000000000000000000, 0.000000000000000000, 5.000000000000000000 ) ) ;
#172 = DIRECTION ( 'NONE',  ( 0.000000000000000000, 0.000000000000000000, 1.000000000000000000 ) ) ;
#173 = CARTESIAN_POINT ( 'NONE',  ( -4.805015414744964630, 3.172530829489800919, -5.000000000000000000 ) ) ;
#174 = ADVANCED_FACE ( 'NONE', ( #61 ), #704, .T. ) ;
#175 = ORIENTED_EDGE ( 'NONE', *, *, #439, .T. ) ;
#176 = ORIENTED_EDGE ( 'NONE', *, *, #911, .F. ) ;
#177 = CARTESIAN_POINT ( 'NONE',  ( -6.672196044795969172, 6.406582547646522130, 5.000000000000000000 ) ) ;
#178 = EDGE_CURVE ( 'NONE', #347, #256, #929, .T. ) ;
#179 = EDGE_CURVE ( 'NONE', #423, #634, #851, .T. ) ;
#180 = APPLICATION_CONTEXT ( 'automotive_design' ) ;
#181 = LINE ( 'NONE', #243, #614 ) ;
#182 = CIRCLE ( 'NONE', #328, 4.049999999999999822 ) ;
#183 = CYLINDRICAL_SURFACE ( 'NONE', #801, 9.250000000000000000 ) ;
#184 = AXIS2_PLACEMENT_3D ( 'NONE', #155, #231, #648 ) ;
#185 = ORIENTED_EDGE ( 'NONE', *, *, #333, .T. ) ;
#186 = CARTESIAN_POINT ( 'NONE',  ( 5.149999999999996803, -2.575000000000001066, 5.000000000000000000 ) ) ;
#187 = DIRECTION ( 'NONE',  ( 0.000000000000000000, 0.000000000000000000, -1.000000000000000000 ) ) ;
#188 = AXIS2_PLACEMENT_3D ( 'NONE', #844, #139, #121 ) ;
#189 = ORIENTED_EDGE ( 'NONE', *, *, #233, .T. ) ;
#190 = EDGE_LOOP ( 'NONE', ( #283, #43, #397, #109 ) ) ;
#191 = DIRECTION ( 'NONE',  ( 0.000000000000000000, 0.000000000000000000, 1.000000000000000000 ) ) ;
#192 = LINE ( 'NONE', #173, #581 ) ;
#193 = ORIENTED_EDGE ( 'NONE', *, *, #746, .F. ) ;
#194 = ORIENTED_EDGE ( 'NONE', *, *, #411, .T. ) ;
#195 = LINE ( 'NONE', #466, #556 ) ;
#196 = CARTESIAN_POINT ( 'NONE',  ( 5.149999999999996803, -2.575000000000001066, 5.000000000000000000 ) ) ;
#197 = DIRECTION ( 'NONE',  ( 0.000000000000000000, 0.000000000000000000, 1.000000000000000000 ) ) ;
#198 = ORIENTED_EDGE ( 'NONE', *, *, #503, .T. ) ;
#199 = DIRECTION ( 'NONE',  ( 0.8660254037844398178, -0.4999999999999980016, 0.000000000000000000 ) ) ;
#200 = AXIS2_PLACEMENT_3D ( 'NONE', #123, #118, #622 ) ;
#201 = EDGE_CURVE ( 'NONE', #515, #701, #348, .T. ) ;
#202 = DIRECTION ( 'NONE',  ( 1.000000000000000000, 0.000000000000000000, 0.000000000000000000 ) ) ;
#203 = CARTESIAN_POINT ( 'NONE',  ( -8.884361260101931279, 2.575000000000001066, 5.000000000000000000 ) ) ;
#204 = ORIENTED_EDGE ( 'NONE', *, *, #233, .F. ) ;
#205 = DIRECTION ( 'NONE',  ( 0.000000000000000000, 0.000000000000000000, 1.000000000000000000 ) ) ;
#206 = VECTOR ( 'NONE', #762, 1000.000000000000000 ) ;
#207 = CARTESIAN_POINT ( 'NONE',  ( 0.000000000000000000, 0.000000000000000000, -5.000000000000000000 ) ) ;
#208 = DIRECTION ( 'NONE',  ( 1.000000000000000000, 0.000000000000000000, 0.000000000000000000 ) ) ;
#209 = ORIENTED_EDGE ( 'NONE', *, *, #746, .T. ) ;
#210 = DIRECTION ( 'NONE',  ( -1.000000000000000000, 0.000000000000000000, 0.000000000000000000 ) ) ;
#211 = ORIENTED_EDGE ( 'NONE', *, *, #268, .F. ) ;
#212 = AXIS2_PLACEMENT_3D ( 'NONE', #254, #260, #736 ) ;
#213 = VECTOR ( 'NONE', #352, 1000.000000000000114 ) ;
#214 = DIRECTION ( 'NONE',  ( -0.000000000000000000, 1.000000000000000000, -0.000000000000000000 ) ) ;
#215 = ORIENTED_EDGE ( 'NONE', *, *, #869, .F. ) ;
#216 = DIRECTION ( 'NONE',  ( 0.4999999999999919509, 0.8660254037844432595, 0.000000000000000000 ) ) ;
#217 = VERTEX_POINT ( 'NONE', #659 ) ;
#218 = FACE_OUTER_BOUND ( 'NONE', #4, .T. ) ;
#219 = CARTESIAN_POINT ( 'NONE',  ( -2.212165215306140187, 8.981582547646574710, 5.000000000000000000 ) ) ;
#220 = ORIENTED_EDGE ( 'NONE', *, *, #707, .F. ) ;
#221 = AXIS2_PLACEMENT_3D ( 'NONE', #667, #449, #445 ) ;
#222 = DIRECTION ( 'NONE',  ( 0.8660254037844432595, -0.4999999999999919509, 0.000000000000000000 ) ) ;
#223 = VECTOR ( 'NONE', #298, 1000.000000000000114 ) ;
#224 = CARTESIAN_POINT ( 'NONE',  ( 0.3449845852550159075, 5.747530829489858384, 5.000000000000000000 ) ) ;
#225 = ORIENTED_EDGE ( 'NONE', *, *, #315, .F. ) ;
#226 = ORIENTED_EDGE ( 'NONE', *, *, #248, .T. ) ;
#227 = CARTESIAN_POINT ( 'NONE',  ( 4.049999999999999822, 4.959819536546779614E-16, 5.000000000000000000 ) ) ;
#228 = LINE ( 'NONE', #1, #99 ) ;
#229 = ORIENTED_EDGE ( 'NONE', *, *, #425, .T. ) ;
#230 = CARTESIAN_POINT ( 'NONE',  ( 6.672196044795924763, -6.406582547646568315, 5.000000000000000000 ) ) ;
#231 = DIRECTION ( 'NONE',  ( 0.000000000000000000, 0.000000000000000000, 1.000000000000000000 ) ) ;
#232 = EDGE_LOOP ( 'NONE', ( #763, #716, #393, #140 ) ) ;
#233 = EDGE_CURVE ( 'NONE', #457, #378, #631, .T. ) ;
#234 = VECTOR ( 'NONE', #630, 1000.000000000000114 ) ;
#235 = CARTESIAN_POINT ( 'NONE',  ( -2.212165215306017174, -8.981582547646603132, 5.000000000000000000 ) ) ;
#236 =( LENGTH_UNIT ( ) NAMED_UNIT ( * ) SI_UNIT ( .MILLI., .METRE. ) );
#237 = LINE ( 'NONE', #91, #372 ) ;
#238 = AXIS2_PLACEMENT_3D ( 'NONE', #408, #110, #915 ) ;
#239 = VECTOR ( 'NONE', #564, 1000.000000000000000 ) ;
#240 = CARTESIAN_POINT ( 'NONE',  ( -5.149999999999996803, -2.574999999999999289, -5.000000000000000000 ) ) ;
#241 = LINE ( 'NONE', #598, #866 ) ;
#242 = ADVANCED_FACE ( 'NONE', ( #358 ), #499, .T. ) ;
#243 = CARTESIAN_POINT ( 'NONE',  ( -4.805015414744964630, 3.172530829489800919, 5.000000000000000000 ) ) ;
#244 = DIRECTION ( 'NONE',  ( 0.000000000000000000, 0.000000000000000000, 1.000000000000000000 ) ) ;
#245 = CIRCLE ( 'NONE', #134, 9.250000000000000000 ) ;
#246 = EDGE_LOOP ( 'NONE', ( #26, #324, #823, #453 ) ) ;
#247 = CARTESIAN_POINT ( 'NONE',  ( -6.672196044795969172, 6.406582547646522130, -5.000000000000000000 ) ) ;
#248 = EDGE_CURVE ( 'NONE', #660, #252, #725, .T. ) ;
#249 = EDGE_CURVE ( 'NONE', #46, #256, #507, .T. ) ;
#250 = CARTESIAN_POINT ( 'NONE',  ( 0.3449845852550159075, 5.747530829489858384, 5.000000000000000000 ) ) ;
#251 = CARTESIAN_POINT ( 'NONE',  ( 8.884361260101931279, -2.575000000000001066, 5.000000000000000000 ) ) ;
#252 = VERTEX_POINT ( 'NONE', #84 ) ;
#253 = DIRECTION ( 'NONE',  ( 0.000000000000000000, 0.000000000000000000, 1.000000000000000000 ) ) ;
#254 = CARTESIAN_POINT ( 'NONE',  ( 5.149999999999996803, 2.574999999999999289, 5.000000000000000000 ) ) ;
#255 = AXIS2_PLACEMENT_3D ( 'NONE', #918, #861, #699 ) ;
#256 = VERTEX_POINT ( 'NONE', #219 ) ;
#257 = VECTOR ( 'NONE', #510, 1000.000000000000114 ) ;
#258 = ORIENTED_EDGE ( 'NONE', *, *, #609, .T. ) ;
#259 = FACE_OUTER_BOUND ( 'NONE', #232, .T. ) ;
#260 = DIRECTION ( 'NONE',  ( 0.000000000000000000, -1.000000000000000000, 0.000000000000000000 ) ) ;
#261 = CARTESIAN_POINT ( 'NONE',  ( 2.212165215306077570, -8.981582547646588921, 5.000000000000000000 ) ) ;
#262 = ORIENTED_EDGE ( 'NONE', *, *, #673, .T. ) ;
#263 = CARTESIAN_POINT ( 'NONE',  ( 0.000000000000000000, 0.000000000000000000, 5.000000000000000000 ) ) ;
#264 = DIRECTION ( 'NONE',  ( 0.000000000000000000, 0.000000000000000000, 1.000000000000000000 ) ) ;
#265 = DIRECTION ( 'NONE',  ( 0.000000000000000000, -1.000000000000000000, 0.000000000000000000 ) ) ;
#266 = ORIENTED_EDGE ( 'NONE', *, *, #277, .F. ) ;
#267 = CARTESIAN_POINT ( 'NONE',  ( 0.3449845852550952330, -5.747530829489855719, 5.000000000000000000 ) ) ;
#268 = EDGE_CURVE ( 'NONE', #827, #858, #719, .T. ) ;
#269 = ADVANCED_FACE ( 'NONE', ( #715 ), #518, .T. ) ;
#270 = LINE ( 'NONE', #120, #922 ) ;
#271 = VECTOR ( 'NONE', #655, 1000.000000000000000 ) ;
#272 = DIRECTION ( 'NONE',  ( 0.000000000000000000, 0.000000000000000000, 1.000000000000000000 ) ) ;
#273 = EDGE_LOOP ( 'NONE', ( #721, #299, #810, #799 ) ) ;
#274 = LINE ( 'NONE', #776, #149 ) ;
#275 = AXIS2_PLACEMENT_3D ( 'NONE', #692, #475, #48 ) ;
#276 = CARTESIAN_POINT ( 'NONE',  ( -2.212165215306017174, -8.981582547646603132, -5.000000000000000000 ) ) ;
#277 = EDGE_CURVE ( 'NONE', #423, #686, #228, .T. ) ;
#278 = DIRECTION ( 'NONE',  ( -0.8660254037844363761, -0.5000000000000039968, 0.000000000000000000 ) ) ;
#279 = VERTEX_POINT ( 'NONE', #160 ) ;
#280 = EDGE_CURVE ( 'NONE', #165, #474, #438, .T. ) ;
#281 = EDGE_CURVE ( 'NONE', #368, #671, #69, .T. ) ;
#282 = CARTESIAN_POINT ( 'NONE',  ( -0.3449845852551351455, 5.747530829489852167, 5.000000000000000000 ) ) ;
#283 = ORIENTED_EDGE ( 'NONE', *, *, #694, .F. ) ;
#284 = FACE_OUTER_BOUND ( 'NONE', #304, .T. ) ;
#285 = ORIENTED_EDGE ( 'NONE', *, *, #71, .F. ) ;
#286 = DIRECTION ( 'NONE',  ( -0.5000000000000101030, 0.8660254037844328234, 0.000000000000000000 ) ) ;
#287 = ORIENTED_EDGE ( 'NONE', *, *, #359, .F. ) ;
#288 = CARTESIAN_POINT ( 'NONE',  ( 4.805015414744898905, 3.172530829489899507, -5.000000000000000000 ) ) ;
#289 = DIRECTION ( 'NONE',  ( 0.000000000000000000, 0.000000000000000000, 1.000000000000000000 ) ) ;
#290 = ORIENTED_EDGE ( 'NONE', *, *, #167, .F. ) ;
#291 = ADVANCED_FACE ( 'NONE', ( #652 ), #442, .T. ) ;
#292 = LINE ( 'NONE', #196, #417 ) ;
#293 = CARTESIAN_POINT ( 'NONE',  ( -0.3449845852551351455, 5.747530829489852167, 5.000000000000000000 ) ) ;
#294 = ORIENTED_EDGE ( 'NONE', *, *, #168, .T. ) ;
#295 = CYLINDRICAL_SURFACE ( 'NONE', #384, 9.250000000000000000 ) ;
#296 = AXIS2_PLACEMENT_3D ( 'NONE', #72, #646, #926 ) ;
#297 = VECTOR ( 'NONE', #354, 1000.000000000000000 ) ;
#298 = DIRECTION ( 'NONE',  ( -0.4999999999999979461, -0.8660254037844397068, 0.000000000000000000 ) ) ;
#299 = ORIENTED_EDGE ( 'NONE', *, *, #860, .F. ) ;
#300 =( GEOMETRIC_REPRESENTATION_CONTEXT ( 3 ) GLOBAL_UNCERTAINTY_ASSIGNED_CONTEXT ( ( #144 ) ) GLOBAL_UNIT_ASSIGNED_CONTEXT ( ( #236, #513, #875 ) ) REPRESENTATION_CONTEXT ( 'NONE', 'WORKASPACE' ) );
#301 = CARTESIAN_POINT ( 'NONE',  ( 5.149999999999996803, 0.000000000000000000, 0.000000000000000000 ) ) ;
#302 = DIRECTION ( 'NONE',  ( 0.000000000000000000, 0.000000000000000000, 1.000000000000000000 ) ) ;
#303 = EDGE_CURVE ( 'NONE', #347, #448, #6, .T. ) ;
#304 = EDGE_LOOP ( 'NONE', ( #209, #839, #360, #294 ) ) ;
#305 = CARTESIAN_POINT ( 'NONE',  ( 4.049999999999999822, 4.959819536546779614E-16, -5.000000000000000000 ) ) ;
#306 = PRODUCT ( 'P001-B102_MagnetHolderRing_Rev2C_7', 'P001-B102_MagnetHolderRing_Rev2C_7', '', ( #159 ) ) ;
#307 = EDGE_CURVE ( 'NONE', #161, #94, #494, .T. ) ;
#308 = CYLINDRICAL_SURFACE ( 'NONE', #904, 9.250000000000000000 ) ;
#309 = EDGE_LOOP ( 'NONE', ( #897, #229 ) ) ;
#310 = DIRECTION ( 'NONE',  ( -0.000000000000000000, -0.000000000000000000, -1.000000000000000000 ) ) ;
#311 = ADVANCED_FACE ( 'NONE', ( #514 ), #373, .T. ) ;
#312 = AXIS2_PLACEMENT_3D ( 'NONE', #301, #517, #806 ) ;
#313 = DIRECTION ( 'NONE',  ( -0.5000000000000101030, 0.8660254037844328234, 0.000000000000000000 ) ) ;
#314 = VECTOR ( 'NONE', #841, 1000.000000000000114 ) ;
#315 = EDGE_CURVE ( 'NONE', #687, #351, #447, .T. ) ;
#316 = DIRECTION ( 'NONE',  ( 0.000000000000000000, -0.000000000000000000, 1.000000000000000000 ) ) ;
#317 = ORIENTED_EDGE ( 'NONE', *, *, #627, .F. ) ;
#318 = DIRECTION ( 'NONE',  ( -0.8660254037844432595, 0.4999999999999919509, 0.000000000000000000 ) ) ;
#319 = PLANE ( 'NONE',  #57 ) ;
#320 = ORIENTED_EDGE ( 'NONE', *, *, #720, .F. ) ;
#321 = ORIENTED_EDGE ( 'NONE', *, *, #333, .F. ) ;
#322 = CARTESIAN_POINT ( 'NONE',  ( 0.000000000000000000, 0.000000000000000000, 5.000000000000000000 ) ) ;
#323 = CARTESIAN_POINT ( 'NONE',  ( 8.884361260101931279, 2.574999999999999289, 5.000000000000000000 ) ) ;
#324 = ORIENTED_EDGE ( 'NONE', *, *, #766, .F. ) ;
#325 = VERTEX_POINT ( 'NONE', #862 ) ;
#326 = FACE_OUTER_BOUND ( 'NONE', #88, .T. ) ;
#327 = DIRECTION ( 'NONE',  ( -0.000000000000000000, -0.000000000000000000, -1.000000000000000000 ) ) ;
#328 = AXIS2_PLACEMENT_3D ( 'NONE', #170, #610, #468 ) ;
#329 = DIRECTION ( 'NONE',  ( 0.5000000000000039968, -0.8660254037844363761, 0.000000000000000000 ) ) ;
#330 = ORIENTED_EDGE ( 'NONE', *, *, #125, .F. ) ;
#331 = PLANE ( 'NONE',  #238 ) ;
#332 = DIRECTION ( 'NONE',  ( -0.000000000000000000, -0.000000000000000000, -1.000000000000000000 ) ) ;
#333 = EDGE_CURVE ( 'NONE', #516, #165, #163, .T. ) ;
#334 = EDGE_CURVE ( 'NONE', #612, #378, #502, .T. ) ;
#335 = CARTESIAN_POINT ( 'NONE',  ( 2.212165215305954113, 8.981582547646619119, 5.000000000000000000 ) ) ;
#336 = ORIENTED_EDGE ( 'NONE', *, *, #774, .T. ) ;
#337 = DIRECTION ( 'NONE',  ( -1.000000000000000000, 0.000000000000000000, 0.000000000000000000 ) ) ;
#338 = DIRECTION ( 'NONE',  ( -1.000000000000000000, 0.000000000000000000, 0.000000000000000000 ) ) ;
#339 = PLANE ( 'NONE',  #476 ) ;
#340 = ORIENTED_EDGE ( 'NONE', *, *, #734, .F. ) ;
#341 = DIRECTION ( 'NONE',  ( 0.4999999999999979461, 0.8660254037844397068, 0.000000000000000000 ) ) ;
#342 = EDGE_CURVE ( 'NONE', #448, #858, #434, .T. ) ;
#343 = LINE ( 'NONE', #772, #460 ) ;
#344 = VECTOR ( 'NONE', #222, 1000.000000000000114 ) ;
#345 = LINE ( 'NONE', #566, #587 ) ;
#346 = ADVANCED_FACE ( 'NONE', ( #820 ), #308, .T. ) ;
#347 = VERTEX_POINT ( 'NONE', #451 ) ;
#348 = CIRCLE ( 'NONE', #133, 4.049999999999999822 ) ;
#349 = MECHANICAL_DESIGN_GEOMETRIC_PRESENTATION_REPRESENTATION (  '', ( #467 ), #137 ) ;
#350 = DIRECTION ( 'NONE',  ( -0.000000000000000000, -0.000000000000000000, -1.000000000000000000 ) ) ;
#351 = VERTEX_POINT ( 'NONE', #87 ) ;
#352 = DIRECTION ( 'NONE',  ( 0.5000000000000039968, -0.8660254037844363761, 0.000000000000000000 ) ) ;
#353 = VERTEX_POINT ( 'NONE', #37 ) ;
#354 = DIRECTION ( 'NONE',  ( -1.000000000000000000, 0.000000000000000000, 0.000000000000000000 ) ) ;
#355 = VERTEX_POINT ( 'NONE', #523 ) ;
#356 = LINE ( 'NONE', #629, #371 ) ;
#357 = AXIS2_PLACEMENT_3D ( 'NONE', #835, #199, #341 ) ;
#358 = FACE_OUTER_BOUND ( 'NONE', #863, .T. ) ;
#359 = EDGE_CURVE ( 'NONE', #19, #77, #237, .T. ) ;
#360 = ORIENTED_EDGE ( 'NONE', *, *, #907, .T. ) ;
#361 = CARTESIAN_POINT ( 'NONE',  ( 8.884361260101931279, -2.575000000000001066, -5.000000000000000000 ) ) ;
#362 = DIRECTION ( 'NONE',  ( -0.8660254037844328234, -0.5000000000000101030, 0.000000000000000000 ) ) ;
#363 = ORIENTED_EDGE ( 'NONE', *, *, #636, .T. ) ;
#364 = ORIENTED_EDGE ( 'NONE', *, *, #370, .T. ) ;
#365 = DIRECTION ( 'NONE',  ( -1.000000000000000000, 0.000000000000000000, 0.000000000000000000 ) ) ;
#366 = DIRECTION ( 'NONE',  ( 0.000000000000000000, 0.000000000000000000, 1.000000000000000000 ) ) ;
#367 = DIRECTION ( 'NONE',  ( 0.8660254037844432595, -0.4999999999999919509, 0.000000000000000000 ) ) ;
#368 = VERTEX_POINT ( 'NONE', #593 ) ;
#369 = LINE ( 'NONE', #89, #271 ) ;
#370 = EDGE_CURVE ( 'NONE', #448, #7, #181, .T. ) ;
#371 = VECTOR ( 'NONE', #848, 1000.000000000000000 ) ;
#372 = VECTOR ( 'NONE', #816, 1000.000000000000000 ) ;
#373 = PLANE ( 'NONE',  #924 ) ;
#374 = VECTOR ( 'NONE', #489, 1000.000000000000000 ) ;
#375 = ORIENTED_EDGE ( 'NONE', *, *, #439, .F. ) ;
#376 = CARTESIAN_POINT ( 'NONE',  ( 0.000000000000000000, 0.000000000000000000, 5.000000000000000000 ) ) ;
#377 = LINE ( 'NONE', #664, #703 ) ;
#378 = VERTEX_POINT ( 'NONE', #675 ) ;
#379 = FACE_OUTER_BOUND ( 'NONE', #817, .T. ) ;
#380 = DIRECTION ( 'NONE',  ( 0.5000000000000039968, -0.8660254037844363761, 0.000000000000000000 ) ) ;
#381 = VERTEX_POINT ( 'NONE', #462 ) ;
#382 = ORIENTED_EDGE ( 'NONE', *, *, #707, .T. ) ;
#383 = PLANE ( 'NONE',  #628 ) ;
#384 = AXIS2_PLACEMENT_3D ( 'NONE', #24, #310, #365 ) ;
#385 = DIRECTION ( 'NONE',  ( 0.000000000000000000, -1.000000000000000000, 0.000000000000000000 ) ) ;
#386 = VECTOR ( 'NONE', #702, 1000.000000000000000 ) ;
#387 = ORIENTED_EDGE ( 'NONE', *, *, #105, .T. ) ;
#388 = ORIENTED_EDGE ( 'NONE', *, *, #741, .F. ) ;
#389 = CYLINDRICAL_SURFACE ( 'NONE', #717, 4.049999999999999822 ) ;
#390 = CARTESIAN_POINT ( 'NONE',  ( -0.3449845852551351455, 5.747530829489852167, -5.000000000000000000 ) ) ;
#391 = LINE ( 'NONE', #396, #647 ) ;
#392 = VECTOR ( 'NONE', #690, 1000.000000000000000 ) ;
#393 = ORIENTED_EDGE ( 'NONE', *, *, #843, .T. ) ;
#394 = DIRECTION ( 'NONE',  ( 0.000000000000000000, -0.000000000000000000, -1.000000000000000000 ) ) ;
#395 = CARTESIAN_POINT ( 'NONE',  ( 0.3449845852550952330, -5.747530829489855719, 5.000000000000000000 ) ) ;
#396 = CARTESIAN_POINT ( 'NONE',  ( 4.805015414744943314, -3.172530829489835558, -5.000000000000000000 ) ) ;
#397 = ORIENTED_EDGE ( 'NONE', *, *, #874, .F. ) ;
#398 = DIRECTION ( 'NONE',  ( 0.000000000000000000, 1.000000000000000000, 0.000000000000000000 ) ) ;
#399 = EDGE_CURVE ( 'NONE', #279, #19, #528, .T. ) ;
#400 = DIRECTION ( 'NONE',  ( -0.4999999999999980016, -0.8660254037844398178, 0.000000000000000000 ) ) ;
#401 = DIRECTION ( 'NONE',  ( 0.000000000000000000, 0.000000000000000000, 1.000000000000000000 ) ) ;
#402 = ORIENTED_EDGE ( 'NONE', *, *, #676, .F. ) ;
#403 = DIRECTION ( 'NONE',  ( -0.000000000000000000, -0.000000000000000000, -1.000000000000000000 ) ) ;
#404 = FACE_OUTER_BOUND ( 'NONE', #821, .T. ) ;
#405 = LINE ( 'NONE', #335, #570 ) ;
#406 = EDGE_CURVE ( 'NONE', #161, #515, #832, .T. ) ;
#407 = ORIENTED_EDGE ( 'NONE', *, *, #9, .T. ) ;
#408 = CARTESIAN_POINT ( 'NONE',  ( -5.149999999999996803, 2.575000000000001066, 5.000000000000000000 ) ) ;
#409 = AXIS2_PLACEMENT_3D ( 'NONE', #611, #814, #316 ) ;
#410 = DIRECTION ( 'NONE',  ( 0.000000000000000000, 0.000000000000000000, 1.000000000000000000 ) ) ;
#411 = EDGE_CURVE ( 'NONE', #7, #827, #192, .T. ) ;
#412 = CARTESIAN_POINT ( 'NONE',  ( 0.3449845852550952330, -5.747530829489855719, 5.000000000000000000 ) ) ;
#413 = PRODUCT_RELATED_PRODUCT_CATEGORY ( 'part', '', ( #306 ) ) ;
#414 = ORIENTED_EDGE ( 'NONE', *, *, #538, .T. ) ;
#415 = CARTESIAN_POINT ( 'NONE',  ( 8.884361260101931279, -2.575000000000001066, 5.000000000000000000 ) ) ;
#416 = CARTESIAN_POINT ( 'NONE',  ( -0.3449845852550566527, -5.747530829489855719, -5.000000000000000000 ) ) ;
#417 = VECTOR ( 'NONE', #202, 1000.000000000000000 ) ;
#418 = VERTEX_POINT ( 'NONE', #813 ) ;
#419 = VECTOR ( 'NONE', #313, 1000.000000000000000 ) ;
#420 = CARTESIAN_POINT ( 'NONE',  ( -4.049999999999999822, 0.000000000000000000, 5.000000000000000000 ) ) ;
#421 = ORIENTED_EDGE ( 'NONE', *, *, #138, .F. ) ;
#422 = CARTESIAN_POINT ( 'NONE',  ( 0.000000000000000000, 0.000000000000000000, 5.000000000000000000 ) ) ;
#423 = VERTEX_POINT ( 'NONE', #33 ) ;
#424 = PLANE ( 'NONE',  #296 ) ;
#425 = EDGE_CURVE ( 'NONE', #701, #515, #182, .T. ) ;
#426 = EDGE_CURVE ( 'NONE', #279, #881, #757, .T. ) ;
#427 = VECTOR ( 'NONE', #913, 1000.000000000000114 ) ;
#428 = CARTESIAN_POINT ( 'NONE',  ( -4.805015414744964630, 3.172530829489800919, 5.000000000000000000 ) ) ;
#429 = VECTOR ( 'NONE', #591, 1000.000000000000000 ) ;
#430 = VERTEX_POINT ( 'NONE', #668 ) ;
#431 = DIRECTION ( 'NONE',  ( 1.000000000000000000, 0.000000000000000000, 0.000000000000000000 ) ) ;
#432 = AXIS2_PLACEMENT_3D ( 'NONE', #263, #253, #536 ) ;
#433 = VECTOR ( 'NONE', #265, 1000.000000000000000 ) ;
#434 = LINE ( 'NONE', #798, #419 ) ;
#435 = ORIENTED_EDGE ( 'NONE', *, *, #774, .F. ) ;
#436 = ADVANCED_FACE ( 'NONE', ( #539 ), #319, .T. ) ;
#437 = PLANE ( 'NONE',  #553 ) ;
#438 = LINE ( 'NONE', #79, #58 ) ;
#439 = EDGE_CURVE ( 'NONE', #805, #770, #111, .T. ) ;
#440 = ORIENTED_EDGE ( 'NONE', *, *, #12, .F. ) ;
#441 = CARTESIAN_POINT ( 'NONE',  ( 4.805015414744898905, 3.172530829489899507, 5.000000000000000000 ) ) ;
#442 = PLANE ( 'NONE',  #18 ) ;
#443 = EDGE_LOOP ( 'NONE', ( #551, #320, #855, #185 ) ) ;
#444 = ORIENTED_EDGE ( 'NONE', *, *, #92, .T. ) ;
#445 = DIRECTION ( 'NONE',  ( 1.000000000000000000, 0.000000000000000000, 0.000000000000000000 ) ) ;
#446 = VECTOR ( 'NONE', #327, 1000.000000000000000 ) ;
#447 = LINE ( 'NONE', #793, #257 ) ;
#448 = VERTEX_POINT ( 'NONE', #685 ) ;
#449 = DIRECTION ( 'NONE',  ( 0.000000000000000000, 0.000000000000000000, 1.000000000000000000 ) ) ;
#450 = SURFACE_STYLE_FILL_AREA ( #745 ) ;
#451 = CARTESIAN_POINT ( 'NONE',  ( -0.3449845852551351455, 5.747530829489852167, 5.000000000000000000 ) ) ;
#452 = DIRECTION ( 'NONE',  ( 0.000000000000000000, 0.000000000000000000, 1.000000000000000000 ) ) ;
#453 = ORIENTED_EDGE ( 'NONE', *, *, #179, .F. ) ;
#454 = FACE_OUTER_BOUND ( 'NONE', #246, .T. ) ;
#455 = EDGE_CURVE ( 'NONE', #381, #46, #889, .T. ) ;
#456 = DIRECTION ( 'NONE',  ( 0.4999999999999919509, 0.8660254037844432595, 0.000000000000000000 ) ) ;
#457 = VERTEX_POINT ( 'NONE', #323 ) ;
#458 = VERTEX_POINT ( 'NONE', #747 ) ;
#459 = FACE_OUTER_BOUND ( 'NONE', #520, .T. ) ;
#460 = VECTOR ( 'NONE', #478, 1000.000000000000000 ) ;
#461 = VECTOR ( 'NONE', #456, 1000.000000000000000 ) ;
#462 = CARTESIAN_POINT ( 'NONE',  ( 0.3449845852550159075, 5.747530829489858384, 5.000000000000000000 ) ) ;
#463 = VECTOR ( 'NONE', #856, 1000.000000000000000 ) ;
#464 = DIRECTION ( 'NONE',  ( 1.000000000000000000, 0.000000000000000000, 0.000000000000000000 ) ) ;
#465 = ORIENTED_EDGE ( 'NONE', *, *, #249, .F. ) ;
#466 = CARTESIAN_POINT ( 'NONE',  ( 8.884361260101931279, 2.574999999999999289, 5.000000000000000000 ) ) ;
#467 = STYLED_ITEM ( 'NONE', ( #883 ), #931 ) ;
#468 = DIRECTION ( 'NONE',  ( 1.000000000000000000, 0.000000000000000000, 0.000000000000000000 ) ) ;
#469 = ORIENTED_EDGE ( 'NONE', *, *, #201, .F. ) ;
#470 = EDGE_LOOP ( 'NONE', ( #677, #145 ) ) ;
#471 = LINE ( 'NONE', #267, #100 ) ;
#472 = CARTESIAN_POINT ( 'NONE',  ( 0.000000000000000000, 0.000000000000000000, 5.000000000000000000 ) ) ;
#473 = ORIENTED_EDGE ( 'NONE', *, *, #249, .T. ) ;
#474 = VERTEX_POINT ( 'NONE', #97 ) ;
#475 = DIRECTION ( 'NONE',  ( -0.000000000000000000, -0.000000000000000000, -1.000000000000000000 ) ) ;
#476 = AXIS2_PLACEMENT_3D ( 'NONE', #412, #555, #620 ) ;
#477 = VECTOR ( 'NONE', #32, 1000.000000000000227 ) ;
#478 = DIRECTION ( 'NONE',  ( 0.4999999999999919509, 0.8660254037844432595, 0.000000000000000000 ) ) ;
#479 = EDGE_CURVE ( 'NONE', #516, #557, #533, .T. ) ;
#480 = CARTESIAN_POINT ( 'NONE',  ( -5.149999999999996803, 2.575000000000001066, -5.000000000000000000 ) ) ;
#481 = COLOUR_RGB ( '',0.7921568627450980005, 0.8196078431372548767, 0.9333333333333333481 ) ;
#482 = EDGE_LOOP ( 'NONE', ( #794, #65, #722, #708 ) ) ;
#483 = CARTESIAN_POINT ( 'NONE',  ( -6.672196044795882131, -6.406582547646614501, 5.000000000000000000 ) ) ;
#484 = DIRECTION ( 'NONE',  ( 0.5000000000000039968, -0.8660254037844363761, 0.000000000000000000 ) ) ;
#485 = DIRECTION ( 'NONE',  ( 1.000000000000000000, 0.000000000000000000, 0.000000000000000000 ) ) ;
#486 = ORIENTED_EDGE ( 'NONE', *, *, #315, .T. ) ;
#487 = DIRECTION ( 'NONE',  ( 0.000000000000000000, 0.000000000000000000, -1.000000000000000000 ) ) ;
#488 = FACE_OUTER_BOUND ( 'NONE', #127, .T. ) ;
#489 = DIRECTION ( 'NONE',  ( 0.000000000000000000, 0.000000000000000000, 1.000000000000000000 ) ) ;
#490 = ORIENTED_EDGE ( 'NONE', *, *, #780, .T. ) ;
#491 = PLANE ( 'NONE',  #188 ) ;
#492 = VECTOR ( 'NONE', #885, 999.9999999999998863 ) ;
#493 = EDGE_LOOP ( 'NONE', ( #421, #465, #330, #414 ) ) ;
#494 = CIRCLE ( 'NONE', #752, 4.049999999999999822 ) ;
#495 = VECTOR ( 'NONE', #278, 999.9999999999998863 ) ;
#496 = CARTESIAN_POINT ( 'NONE',  ( 0.3449845852550952330, -5.747530829489855719, -5.000000000000000000 ) ) ;
#497 = VERTEX_POINT ( 'NONE', #899 ) ;
#498 = ADVANCED_FACE ( 'NONE', ( #615 ), #906, .T. ) ;
#499 = PLANE ( 'NONE',  #583 ) ;
#500 = ORIENTED_EDGE ( 'NONE', *, *, #281, .F. ) ;
#501 = CARTESIAN_POINT ( 'NONE',  ( 0.000000000000000000, 0.000000000000000000, -5.000000000000000000 ) ) ;
#502 = LINE ( 'NONE', #151, #825 ) ;
#503 = EDGE_CURVE ( 'NONE', #612, #381, #377, .T. ) ;
#504 = VECTOR ( 'NONE', #525, 1000.000000000000227 ) ;
#505 = ORIENTED_EDGE ( 'NONE', *, *, #869, .T. ) ;
#506 = CARTESIAN_POINT ( 'NONE',  ( 8.884361260101931279, 2.574999999999999289, -5.000000000000000000 ) ) ;
#507 = CIRCLE ( 'NONE', #870, 9.250000000000000000 ) ;
#508 = VECTOR ( 'NONE', #403, 1000.000000000000000 ) ;
#509 = EDGE_CURVE ( 'NONE', #827, #474, #731, .T. ) ;
#510 = DIRECTION ( 'NONE',  ( -0.4999999999999979461, -0.8660254037844397068, 0.000000000000000000 ) ) ;
#511 = EDGE_LOOP ( 'NONE', ( #638, #602, #153, #632 ) ) ;
#512 = CARTESIAN_POINT ( 'NONE',  ( -4.805015414744921998, -3.172530829489866644, 5.000000000000000000 ) ) ;
#513 =( NAMED_UNIT ( * ) PLANE_ANGLE_UNIT ( ) SI_UNIT ( $, .RADIAN. ) );
#514 = FACE_OUTER_BOUND ( 'NONE', #930, .T. ) ;
#515 = VERTEX_POINT ( 'NONE', #124 ) ;
#516 = VERTEX_POINT ( 'NONE', #790 ) ;
#517 = DIRECTION ( 'NONE',  ( 1.000000000000000000, 0.000000000000000000, -0.000000000000000000 ) ) ;
#518 = PLANE ( 'NONE',  #540 ) ;
#519 = ORIENTED_EDGE ( 'NONE', *, *, #479, .T. ) ;
#520 = EDGE_LOOP ( 'NONE', ( #742, #580, #909, #80 ) ) ;
#521 = DIRECTION ( 'NONE',  ( 0.000000000000000000, 0.000000000000000000, 1.000000000000000000 ) ) ;
#522 = VECTOR ( 'NONE', #552, 1000.000000000000000 ) ;
#523 = CARTESIAN_POINT ( 'NONE',  ( 5.149999999999996803, 2.574999999999999289, 5.000000000000000000 ) ) ;
#524 = PLANE ( 'NONE',  #409 ) ;
#525 = DIRECTION ( 'NONE',  ( -0.8660254037844397068, 0.4999999999999979461, 0.000000000000000000 ) ) ;
#526 = EDGE_CURVE ( 'NONE', #355, #457, #356, .T. ) ;
#527 = ADVANCED_FACE ( 'NONE', ( #218 ), #141, .T. ) ;
#528 = LINE ( 'NONE', #605, #901 ) ;
#529 = CIRCLE ( 'NONE', #894, 9.250000000000000000 ) ;
#530 = ORIENTED_EDGE ( 'NONE', *, *, #268, .T. ) ;
#531 = ORIENTED_EDGE ( 'NONE', *, *, #573, .F. ) ;
#532 = CYLINDRICAL_SURFACE ( 'NONE', #275, 4.049999999999999822 ) ;
#533 = LINE ( 'NONE', #41, #83 ) ;
#534 = ORIENTED_EDGE ( 'NONE', *, *, #30, .T. ) ;
#535 = EDGE_LOOP ( 'NONE', ( #928, #70, #818, #743 ) ) ;
#536 = DIRECTION ( 'NONE',  ( 1.000000000000000000, 0.000000000000000000, 0.000000000000000000 ) ) ;
#537 = VECTOR ( 'NONE', #545, 1000.000000000000000 ) ;
#538 = EDGE_CURVE ( 'NONE', #418, #770, #654, .T. ) ;
#539 = FACE_OUTER_BOUND ( 'NONE', #273, .T. ) ;
#540 = AXIS2_PLACEMENT_3D ( 'NONE', #224, #367, #216 ) ;
#541 = ADVANCED_FACE ( 'NONE', ( #713, #488 ), #424, .F. ) ;
#542 = VERTEX_POINT ( 'NONE', #276 ) ;
#543 = VERTEX_POINT ( 'NONE', #761 ) ;
#544 = CARTESIAN_POINT ( 'NONE',  ( 4.805015414744943314, -3.172530829489835558, 5.000000000000000000 ) ) ;
#545 = DIRECTION ( 'NONE',  ( -0.5000000000000101030, 0.8660254037844328234, 0.000000000000000000 ) ) ;
#546 = DIRECTION ( 'NONE',  ( -0.000000000000000000, -0.000000000000000000, -1.000000000000000000 ) ) ;
#547 = VERTEX_POINT ( 'NONE', #361 ) ;
#548 = PLANE ( 'NONE',  #357 ) ;
#549 = DIRECTION ( 'NONE',  ( 0.000000000000000000, 0.000000000000000000, 1.000000000000000000 ) ) ;
#550 = CARTESIAN_POINT ( 'NONE',  ( 0.000000000000000000, 0.000000000000000000, -5.000000000000000000 ) ) ;
#551 = ORIENTED_EDGE ( 'NONE', *, *, #280, .T. ) ;
#552 = DIRECTION ( 'NONE',  ( -1.000000000000000000, 0.000000000000000000, 0.000000000000000000 ) ) ;
#553 = AXIS2_PLACEMENT_3D ( 'NONE', #441, #318, #723 ) ;
#554 = CARTESIAN_POINT ( 'NONE',  ( 5.149999999999996803, -2.575000000000001066, -5.000000000000000000 ) ) ;
#555 = DIRECTION ( 'NONE',  ( 0.8660254037844363761, 0.5000000000000039968, -0.000000000000000000 ) ) ;
#556 = VECTOR ( 'NONE', #613, 1000.000000000000000 ) ;
#557 = VERTEX_POINT ( 'NONE', #837 ) ;
#558 = LINE ( 'NONE', #128, #795 ) ;
#559 = ADVANCED_FACE ( 'NONE', ( #842 ), #560, .T. ) ;
#560 = PLANE ( 'NONE',  #255 ) ;
#561 = DIRECTION ( 'NONE',  ( 1.000000000000000000, 0.000000000000000000, 0.000000000000000000 ) ) ;
#562 = ORIENTED_EDGE ( 'NONE', *, *, #30, .F. ) ;
#563 = CLOSED_SHELL ( 'NONE', ( #803, #665, #541, #106, #174, #346, #597, #2, #706, #778, #63, #792, #291, #108, #893, #604, #436, #148, #576, #498, #873, #765, #269, #635, #527, #242, #559, #311 ) ) ;
#564 = DIRECTION ( 'NONE',  ( -0.5000000000000101030, 0.8660254037844328234, 0.000000000000000000 ) ) ;
#565 = ORIENTED_EDGE ( 'NONE', *, *, #103, .F. ) ;
#566 = CARTESIAN_POINT ( 'NONE',  ( -2.212165215306140187, 8.981582547646574710, 5.000000000000000000 ) ) ;
#567 = EDGE_CURVE ( 'NONE', #543, #732, #643, .T. ) ;
#568 = ORIENTED_EDGE ( 'NONE', *, *, #780, .F. ) ;
#569 = CARTESIAN_POINT ( 'NONE',  ( 0.000000000000000000, 0.000000000000000000, 5.000000000000000000 ) ) ;
#570 = VECTOR ( 'NONE', #700, 1000.000000000000000 ) ;
#571 = ORIENTED_EDGE ( 'NONE', *, *, #307, .T. ) ;
#572 = DIRECTION ( 'NONE',  ( 0.000000000000000000, 0.000000000000000000, 1.000000000000000000 ) ) ;
#573 = EDGE_CURVE ( 'NONE', #458, #11, #292, .T. ) ;
#574 = CARTESIAN_POINT ( 'NONE',  ( 0.000000000000000000, 0.000000000000000000, 5.000000000000000000 ) ) ;
#575 = ORIENTED_EDGE ( 'NONE', *, *, #167, .T. ) ;
#576 = ADVANCED_FACE ( 'NONE', ( #578 ), #147, .T. ) ;
#577 = VERTEX_POINT ( 'NONE', #288 ) ;
#578 = FACE_OUTER_BOUND ( 'NONE', #535, .T. ) ;
#579 = CARTESIAN_POINT ( 'NONE',  ( -2.575000000000050360, 4.460030829489825877, 0.000000000000000000 ) ) ;
#580 = ORIENTED_EDGE ( 'NONE', *, *, #143, .T. ) ;
#581 = VECTOR ( 'NONE', #895, 1000.000000000000000 ) ;
#582 = DIRECTION ( 'NONE',  ( 0.000000000000000000, 0.000000000000000000, 1.000000000000000000 ) ) ;
#583 = AXIS2_PLACEMENT_3D ( 'NONE', #428, #142, #286 ) ;
#584 = DIRECTION ( 'NONE',  ( -1.000000000000000000, 0.000000000000000000, -0.000000000000000000 ) ) ;
#585 = PRODUCT_DEFINITION_FORMATION_WITH_SPECIFIED_SOURCE ( 'ANY', '', #306, .NOT_KNOWN. ) ;
#586 = ORIENTED_EDGE ( 'NONE', *, *, #178, .F. ) ;
#587 = VECTOR ( 'NONE', #130, 1000.000000000000000 ) ;
#588 = CARTESIAN_POINT ( 'NONE',  ( 0.3449845852550159075, 5.747530829489858384, -5.000000000000000000 ) ) ;
#589 = DIRECTION ( 'NONE',  ( 1.000000000000000000, 0.000000000000000000, 0.000000000000000000 ) ) ;
#590 = ORIENTED_EDGE ( 'NONE', *, *, #567, .T. ) ;
#591 = DIRECTION ( 'NONE',  ( -1.000000000000000000, 0.000000000000000000, 0.000000000000000000 ) ) ;
#592 = SURFACE_STYLE_USAGE ( .BOTH. , #735 ) ;
#593 = CARTESIAN_POINT ( 'NONE',  ( 6.672196044795924763, -6.406582547646568315, -5.000000000000000000 ) ) ;
#594 = EDGE_LOOP ( 'NONE', ( #571, #900, #469, #891 ) ) ;
#595 = CIRCLE ( 'NONE', #221, 9.250000000000000000 ) ;
#596 = EDGE_CURVE ( 'NONE', #686, #497, #782, .T. ) ;
#597 = ADVANCED_FACE ( 'NONE', ( #619 ), #718, .T. ) ;
#598 = CARTESIAN_POINT ( 'NONE',  ( 4.805015414744898905, 3.172530829489899507, 5.000000000000000000 ) ) ;
#599 = VECTOR ( 'NONE', #191, 1000.000000000000000 ) ;
#600 = CARTESIAN_POINT ( 'NONE',  ( 0.000000000000000000, 0.000000000000000000, 5.000000000000000000 ) ) ;
#601 = CARTESIAN_POINT ( 'NONE',  ( -4.805015414744964630, 3.172530829489800919, -5.000000000000000000 ) ) ;
#602 = ORIENTED_EDGE ( 'NONE', *, *, #74, .F. ) ;
#603 = CARTESIAN_POINT ( 'NONE',  ( 5.149999999999996803, 2.574999999999999289, 5.000000000000000000 ) ) ;
#604 = ADVANCED_FACE ( 'NONE', ( #404 ), #53, .T. ) ;
#605 = CARTESIAN_POINT ( 'NONE',  ( 0.3449845852550952330, -5.747530829489855719, 5.000000000000000000 ) ) ;
#606 = CARTESIAN_POINT ( 'NONE',  ( 0.000000000000000000, 0.000000000000000000, 5.000000000000000000 ) ) ;
#607 = ORIENTED_EDGE ( 'NONE', *, *, #12, .T. ) ;
#608 = FACE_OUTER_BOUND ( 'NONE', #594, .T. ) ;
#609 = EDGE_CURVE ( 'NONE', #577, #497, #343, .T. ) ;
#610 = DIRECTION ( 'NONE',  ( 0.000000000000000000, 0.000000000000000000, 1.000000000000000000 ) ) ;
#611 = CARTESIAN_POINT ( 'NONE',  ( -5.149999999999996803, -2.574999999999999289, 5.000000000000000000 ) ) ;
#612 = VERTEX_POINT ( 'NONE', #768 ) ;
#613 = DIRECTION ( 'NONE',  ( 0.000000000000000000, 0.000000000000000000, 1.000000000000000000 ) ) ;
#614 = VECTOR ( 'NONE', #187, 1000.000000000000000 ) ;
#615 = FACE_OUTER_BOUND ( 'NONE', #482, .T. ) ;
#616 = LINE ( 'NONE', #240, #392 ) ;
#617 = ORIENTED_EDGE ( 'NONE', *, *, #455, .F. ) ;
#618 = CARTESIAN_POINT ( 'NONE',  ( -0.3449845852551351455, 5.747530829489852167, -5.000000000000000000 ) ) ;
#619 = FACE_OUTER_BOUND ( 'NONE', #784, .T. ) ;
#620 = DIRECTION ( 'NONE',  ( -0.5000000000000039968, 0.8660254037844363761, 0.000000000000000000 ) ) ;
#621 = ORIENTED_EDGE ( 'NONE', *, *, #411, .F. ) ;
#622 = DIRECTION ( 'NONE',  ( 1.000000000000000000, 0.000000000000000000, 0.000000000000000000 ) ) ;
#623 = CARTESIAN_POINT ( 'NONE',  ( 2.574999999999956657, 4.460030829489879167, 0.000000000000000000 ) ) ;
#624 = CARTESIAN_POINT ( 'NONE',  ( 4.049999999999999822, 4.959819536546779614E-16, 5.000000000000000000 ) ) ;
#625 = ORIENTED_EDGE ( 'NONE', *, *, #538, .F. ) ;
#626 = DIRECTION ( 'NONE',  ( 1.000000000000000000, 0.000000000000000000, 0.000000000000000000 ) ) ;
#627 = EDGE_CURVE ( 'NONE', #378, #497, #270, .T. ) ;
#628 = AXIS2_PLACEMENT_3D ( 'NONE', #376, #521, #78 ) ;
#629 = CARTESIAN_POINT ( 'NONE',  ( 5.149999999999996803, 2.574999999999999289, 5.000000000000000000 ) ) ;
#630 = DIRECTION ( 'NONE',  ( 0.8660254037844328234, 0.5000000000000101030, 0.000000000000000000 ) ) ;
#631 = CIRCLE ( 'NONE', #184, 9.250000000000000000 ) ;
#632 = ORIENTED_EDGE ( 'NONE', *, *, #399, .T. ) ;
#633 = CARTESIAN_POINT ( 'NONE',  ( 0.3449845852550952330, -5.747530829489855719, -5.000000000000000000 ) ) ;
#634 = VERTEX_POINT ( 'NONE', #554 ) ;
#635 = ADVANCED_FACE ( 'NONE', ( #379 ), #437, .T. ) ;
#636 = EDGE_CURVE ( 'NONE', #122, #351, #595, .T. ) ;
#637 = CYLINDRICAL_SURFACE ( 'NONE', #661, 9.250000000000000000 ) ;
#638 = ORIENTED_EDGE ( 'NONE', *, *, #359, .T. ) ;
#639 = DIRECTION ( 'NONE',  ( 0.4999999999999919509, 0.8660254037844432595, 0.000000000000000000 ) ) ;
#640 = EDGE_LOOP ( 'NONE', ( #914, #85, #845, #534 ) ) ;
#641 = AXIS2_PLACEMENT_3D ( 'NONE', #114, #398, #910 ) ;
#642 = EDGE_CURVE ( 'NONE', #355, #423, #888, .T. ) ;
#643 = LINE ( 'NONE', #865, #822 ) ;
#644 = CARTESIAN_POINT ( 'NONE',  ( 6.672196044795924763, -6.406582547646568315, 5.000000000000000000 ) ) ;
#645 = VERTEX_POINT ( 'NONE', #738 ) ;
#646 = DIRECTION ( 'NONE',  ( 0.000000000000000000, 0.000000000000000000, 1.000000000000000000 ) ) ;
#647 = VECTOR ( 'NONE', #329, 1000.000000000000114 ) ;
#648 = DIRECTION ( 'NONE',  ( 1.000000000000000000, 0.000000000000000000, 0.000000000000000000 ) ) ;
#649 = ORIENTED_EDGE ( 'NONE', *, *, #596, .T. ) ;
#650 = LINE ( 'NONE', #744, #429 ) ;
#651 = DIRECTION ( 'NONE',  ( 1.000000000000000000, 0.000000000000000000, 0.000000000000000000 ) ) ;
#652 = FACE_OUTER_BOUND ( 'NONE', #190, .T. ) ;
#653 = ORIENTED_EDGE ( 'NONE', *, *, #13, .F. ) ;
#654 = CIRCLE ( 'NONE', #867, 9.250000000000000000 ) ;
#655 = DIRECTION ( 'NONE',  ( 0.000000000000000000, 0.000000000000000000, -1.000000000000000000 ) ) ;
#656 = VECTOR ( 'NONE', #362, 1000.000000000000114 ) ;
#657 =( LENGTH_UNIT ( ) NAMED_UNIT ( * ) SI_UNIT ( .MILLI., .METRE. ) );
#658 = VECTOR ( 'NONE', #214, 1000.000000000000000 ) ;
#659 = CARTESIAN_POINT ( 'NONE',  ( -0.3449845852550566527, -5.747530829489855719, -5.000000000000000000 ) ) ;
#660 = VERTEX_POINT ( 'NONE', #14 ) ;
#661 = AXIS2_PLACEMENT_3D ( 'NONE', #709, #696, #932 ) ;
#662 = ORIENTED_EDGE ( 'NONE', *, *, #303, .F. ) ;
#663 = DIRECTION ( 'NONE',  ( 0.4999999999999919509, 0.8660254037844432595, 0.000000000000000000 ) ) ;
#664 = CARTESIAN_POINT ( 'NONE',  ( 4.805015414744898905, 3.172530829489899507, 5.000000000000000000 ) ) ;
#665 = ADVANCED_FACE ( 'NONE', ( #27, #727 ), #383, .T. ) ;
#666 = EDGE_LOOP ( 'NONE', ( #287, #775, #193, #864 ) ) ;
#667 = CARTESIAN_POINT ( 'NONE',  ( 0.000000000000000000, 0.000000000000000000, 5.000000000000000000 ) ) ;
#668 = CARTESIAN_POINT ( 'NONE',  ( 0.3449845852550159075, 5.747530829489858384, -5.000000000000000000 ) ) ;
#669 = CARTESIAN_POINT ( 'NONE',  ( 4.805015414744943314, -3.172530829489835558, 5.000000000000000000 ) ) ;
#670 = VECTOR ( 'NONE', #663, 1000.000000000000000 ) ;
#671 = VERTEX_POINT ( 'NONE', #230 ) ;
#672 = LINE ( 'NONE', #162, #344 ) ;
#673 = EDGE_CURVE ( 'NONE', #430, #418, #86, .T. ) ;
#674 = CIRCLE ( 'NONE', #432, 9.250000000000000000 ) ;
#675 = CARTESIAN_POINT ( 'NONE',  ( 6.672196044795836833, 6.406582547646659798, 5.000000000000000000 ) ) ;
#676 = EDGE_CURVE ( 'NONE', #687, #660, #95, .T. ) ;
#677 = ORIENTED_EDGE ( 'NONE', *, *, #307, .F. ) ;
#678 = EDGE_CURVE ( 'NONE', #430, #577, #672, .T. ) ;
#679 = ORIENTED_EDGE ( 'NONE', *, *, #125, .T. ) ;
#680 = FACE_OUTER_BOUND ( 'NONE', #443, .T. ) ;
#681 = DIRECTION ( 'NONE',  ( -1.000000000000000000, 0.000000000000000000, 0.000000000000000000 ) ) ;
#682 = ORIENTED_EDGE ( 'NONE', *, *, #920, .F. ) ;
#683 = ORIENTED_EDGE ( 'NONE', *, *, #676, .T. ) ;
#684 = CARTESIAN_POINT ( 'NONE',  ( -5.149999999999996803, -2.574999999999999289, 5.000000000000000000 ) ) ;
#685 = CARTESIAN_POINT ( 'NONE',  ( -4.805015414744964630, 3.172530829489800919, 5.000000000000000000 ) ) ;
#686 = VERTEX_POINT ( 'NONE', #506 ) ;
#687 = VERTEX_POINT ( 'NONE', #82 ) ;
#688 = CARTESIAN_POINT ( 'NONE',  ( -5.149999999999996803, 2.575000000000001066, 5.000000000000000000 ) ) ;
#689 = DIRECTION ( 'NONE',  ( 0.000000000000000000, 0.000000000000000000, 1.000000000000000000 ) ) ;
#690 = DIRECTION ( 'NONE',  ( -1.000000000000000000, 0.000000000000000000, 0.000000000000000000 ) ) ;
#691 = ORIENTED_EDGE ( 'NONE', *, *, #168, .F. ) ;
#692 = CARTESIAN_POINT ( 'NONE',  ( 0.000000000000000000, 0.000000000000000000, 5.000000000000000000 ) ) ;
#693 = DIRECTION ( 'NONE',  ( -0.000000000000000000, -0.000000000000000000, -1.000000000000000000 ) ) ;
#694 = EDGE_CURVE ( 'NONE', #557, #31, #369, .T. ) ;
#695 = EDGE_CURVE ( 'NONE', #94, #701, #20, .T. ) ;
#696 = DIRECTION ( 'NONE',  ( -0.000000000000000000, -0.000000000000000000, -1.000000000000000000 ) ) ;
#697 = ORIENTED_EDGE ( 'NONE', *, *, #342, .T. ) ;
#698 = LINE ( 'NONE', #684, #522 ) ;
#699 = DIRECTION ( 'NONE',  ( 0.5000000000000101030, -0.8660254037844328234, 0.000000000000000000 ) ) ;
#700 = DIRECTION ( 'NONE',  ( 0.000000000000000000, 0.000000000000000000, 1.000000000000000000 ) ) ;
#701 = VERTEX_POINT ( 'NONE', #305 ) ;
#702 = DIRECTION ( 'NONE',  ( -0.000000000000000000, -0.000000000000000000, -1.000000000000000000 ) ) ;
#703 = VECTOR ( 'NONE', #25, 1000.000000000000114 ) ;
#704 = CYLINDRICAL_SURFACE ( 'NONE', #150, 9.250000000000000000 ) ;
#705 = VECTOR ( 'NONE', #289, 1000.000000000000000 ) ;
#706 = ADVANCED_FACE ( 'NONE', ( #797 ), #295, .T. ) ;
#707 = EDGE_CURVE ( 'NONE', #577, #612, #241, .T. ) ;
#708 = ORIENTED_EDGE ( 'NONE', *, *, #277, .T. ) ;
#709 = CARTESIAN_POINT ( 'NONE',  ( 0.000000000000000000, 0.000000000000000000, 5.000000000000000000 ) ) ;
#710 = ORIENTED_EDGE ( 'NONE', *, *, #370, .F. ) ;
#711 = FACE_OUTER_BOUND ( 'NONE', #511, .T. ) ;
#712 = EDGE_LOOP ( 'NONE', ( #679, #617, #98, #262 ) ) ;
#713 = FACE_BOUND ( 'NONE', #309, .T. ) ;
#714 = VECTOR ( 'NONE', #172, 1000.000000000000000 ) ;
#715 = FACE_OUTER_BOUND ( 'NONE', #712, .T. ) ;
#716 = ORIENTED_EDGE ( 'NONE', *, *, #92, .F. ) ;
#717 = AXIS2_PLACEMENT_3D ( 'NONE', #322, #36, #337 ) ;
#718 = CYLINDRICAL_SURFACE ( 'NONE', #96, 9.250000000000000000 ) ;
#719 = LINE ( 'NONE', #17, #463 ) ;
#720 = EDGE_CURVE ( 'NONE', #645, #474, #650, .T. ) ;
#721 = ORIENTED_EDGE ( 'NONE', *, *, #281, .T. ) ;
#722 = ORIENTED_EDGE ( 'NONE', *, *, #642, .T. ) ;
#723 = DIRECTION ( 'NONE',  ( -0.4999999999999919509, -0.8660254037844432595, 0.000000000000000000 ) ) ;
#724 = FILL_AREA_STYLE_COLOUR ( '', #481 ) ;
#725 = LINE ( 'NONE', #802, #223 ) ;
#726 = ORIENTED_EDGE ( 'NONE', *, *, #334, .T. ) ;
#727 = FACE_OUTER_BOUND ( 'NONE', #81, .T. ) ;
#728 =( NAMED_UNIT ( * ) SI_UNIT ( $, .STERADIAN. ) SOLID_ANGLE_UNIT ( ) );
#729 = CARTESIAN_POINT ( 'NONE',  ( -5.149999999999996803, 0.000000000000000000, 0.000000000000000000 ) ) ;
#730 = ORIENTED_EDGE ( 'NONE', *, *, #678, .T. ) ;
#731 = CIRCLE ( 'NONE', #132, 9.250000000000000000 ) ;
#732 = VERTEX_POINT ( 'NONE', #811 ) ;
#733 = DIRECTION ( 'NONE',  ( -0.000000000000000000, -0.000000000000000000, -1.000000000000000000 ) ) ;
#734 = EDGE_CURVE ( 'NONE', #217, #543, #872, .T. ) ;
#735 = SURFACE_SIDE_STYLE ('',( #450 ) ) ;
#736 = DIRECTION ( 'NONE',  ( 0.000000000000000000, -0.000000000000000000, -1.000000000000000000 ) ) ;
#737 = ORIENTED_EDGE ( 'NONE', *, *, #596, .F. ) ;
#738 = CARTESIAN_POINT ( 'NONE',  ( -5.149999999999996803, 2.575000000000001066, -5.000000000000000000 ) ) ;
#739 = APPLICATION_PROTOCOL_DEFINITION ( 'draft international standard', 'automotive_design', 1998, #180 ) ;
#740 = CARTESIAN_POINT ( 'NONE',  ( -4.049999999999999822, 0.000000000000000000, 5.000000000000000000 ) ) ;
#741 = EDGE_CURVE ( 'NONE', #543, #687, #882, .T. ) ;
#742 = ORIENTED_EDGE ( 'NONE', *, *, #695, .F. ) ;
#743 = ORIENTED_EDGE ( 'NONE', *, *, #105, .F. ) ;
#744 = CARTESIAN_POINT ( 'NONE',  ( -5.149999999999996803, 2.575000000000001066, -5.000000000000000000 ) ) ;
#745 = FILL_AREA_STYLE ('',( #724 ) ) ;
#746 = EDGE_CURVE ( 'NONE', #542, #252, #815, .T. ) ;
#747 = CARTESIAN_POINT ( 'NONE',  ( 5.149999999999996803, -2.575000000000001066, 5.000000000000000000 ) ) ;
#748 = ORIENTED_EDGE ( 'NONE', *, *, #916, .F. ) ;
#749 = VECTOR ( 'NONE', #166, 1000.000000000000000 ) ;
#750 = ORIENTED_EDGE ( 'NONE', *, *, #426, .T. ) ;
#751 = CARTESIAN_POINT ( 'NONE',  ( 4.805015414744943314, -3.172530829489835558, 5.000000000000000000 ) ) ;
#752 = AXIS2_PLACEMENT_3D ( 'NONE', #574, #809, #877 ) ;
#753 = DIRECTION ( 'NONE',  ( -0.000000000000000000, -0.000000000000000000, -1.000000000000000000 ) ) ;
#754 = CARTESIAN_POINT ( 'NONE',  ( 0.000000000000000000, 0.000000000000000000, 5.000000000000000000 ) ) ;
#755 = ORIENTED_EDGE ( 'NONE', *, *, #503, .F. ) ;
#756 = LINE ( 'NONE', #688, #767 ) ;
#757 = LINE ( 'NONE', #395, #492 ) ;
#758 = FACE_OUTER_BOUND ( 'NONE', #666, .T. ) ;
#759 = ORIENTED_EDGE ( 'NONE', *, *, #636, .F. ) ;
#760 = CARTESIAN_POINT ( 'NONE',  ( 0.3449845852550159075, 5.747530829489858384, 5.000000000000000000 ) ) ;
#761 = CARTESIAN_POINT ( 'NONE',  ( -4.805015414744921998, -3.172530829489866644, -5.000000000000000000 ) ) ;
#762 = DIRECTION ( 'NONE',  ( -0.000000000000000000, 0.000000000000000000, -1.000000000000000000 ) ) ;
#763 = ORIENTED_EDGE ( 'NONE', *, *, #916, .T. ) ;
#764 = LINE ( 'NONE', #186, #840 ) ;
#765 = ADVANCED_FACE ( 'NONE', ( #454 ), #800, .T. ) ;
#766 = EDGE_CURVE ( 'NONE', #458, #355, #764, .T. ) ;
#767 = VECTOR ( 'NONE', #40, 1000.000000000000000 ) ;
#768 = CARTESIAN_POINT ( 'NONE',  ( 4.805015414744898905, 3.172530829489899507, 5.000000000000000000 ) ) ;
#769 = CARTESIAN_POINT ( 'NONE',  ( -8.884361260101931279, -2.574999999999999289, 5.000000000000000000 ) ) ;
#770 = VERTEX_POINT ( 'NONE', #824 ) ;
#771 = CARTESIAN_POINT ( 'NONE',  ( 0.3449845852550952330, -5.747530829489855719, -5.000000000000000000 ) ) ;
#772 = CARTESIAN_POINT ( 'NONE',  ( 4.805015414744898905, 3.172530829489899507, -5.000000000000000000 ) ) ;
#773 = LINE ( 'NONE', #496, #213 ) ;
#774 = EDGE_CURVE ( 'NONE', #325, #732, #68, .T. ) ;
#775 = ORIENTED_EDGE ( 'NONE', *, *, #9, .F. ) ;
#776 = CARTESIAN_POINT ( 'NONE',  ( -0.3449845852550566527, -5.747530829489855719, 5.000000000000000000 ) ) ;
#777 = EDGE_CURVE ( 'NONE', #686, #457, #195, .T. ) ;
#778 = ADVANCED_FACE ( 'NONE', ( #459 ), #389, .F. ) ;
#779 = LINE ( 'NONE', #416, #427 ) ;
#780 = EDGE_CURVE ( 'NONE', #351, #732, #52, .T. ) ;
#781 = ORIENTED_EDGE ( 'NONE', *, *, #673, .F. ) ;
#782 = CIRCLE ( 'NONE', #884, 9.250000000000000000 ) ;
#783 = CARTESIAN_POINT ( 'NONE',  ( 5.149999999999996803, -2.575000000000001066, -5.000000000000000000 ) ) ;
#784 = EDGE_LOOP ( 'NONE', ( #748, #215, #500, #157 ) ) ;
#785 = LINE ( 'NONE', #480, #658 ) ;
#786 = ORIENTED_EDGE ( 'NONE', *, *, #179, .T. ) ;
#787 = CARTESIAN_POINT ( 'NONE',  ( 0.000000000000000000, 0.000000000000000000, -5.000000000000000000 ) ) ;
#788 = DIRECTION ( 'NONE',  ( 1.000000000000000000, 0.000000000000000000, 0.000000000000000000 ) ) ;
#789 = ORIENTED_EDGE ( 'NONE', *, *, #836, .F. ) ;
#790 = CARTESIAN_POINT ( 'NONE',  ( -5.149999999999996803, 2.575000000000001066, 5.000000000000000000 ) ) ;
#791 = AXIS2_PLACEMENT_3D ( 'NONE', #115, #400, #689 ) ;
#792 = ADVANCED_FACE ( 'NONE', ( #680 ), #331, .T. ) ;
#793 = CARTESIAN_POINT ( 'NONE',  ( -4.805015414744921998, -3.172530829489866644, 5.000000000000000000 ) ) ;
#794 = ORIENTED_EDGE ( 'NONE', *, *, #777, .T. ) ;
#795 = VECTOR ( 'NONE', #205, 1000.000000000000000 ) ;
#796 = ORIENTED_EDGE ( 'NONE', *, *, #178, .T. ) ;
#797 = FACE_OUTER_BOUND ( 'NONE', #93, .T. ) ;
#798 = CARTESIAN_POINT ( 'NONE',  ( -4.805015414744964630, 3.172530829489800919, 5.000000000000000000 ) ) ;
#799 = ORIENTED_EDGE ( 'NONE', *, *, #13, .T. ) ;
#800 = PLANE ( 'NONE',  #312 ) ;
#801 = AXIS2_PLACEMENT_3D ( 'NONE', #606, #546, #886 ) ;
#802 = CARTESIAN_POINT ( 'NONE',  ( -0.3449845852550566527, -5.747530829489855719, 5.000000000000000000 ) ) ;
#803 = ADVANCED_FACE ( 'NONE', ( #608 ), #532, .F. ) ;
#804 = PRODUCT_DEFINITION_CONTEXT ( 'detailed design', #129, 'design' ) ;
#805 = VERTEX_POINT ( 'NONE', #618 ) ;
#806 = DIRECTION ( 'NONE',  ( 0.000000000000000000, 0.000000000000000000, 1.000000000000000000 ) ) ;
#807 =( NAMED_UNIT ( * ) PLANE_ANGLE_UNIT ( ) SI_UNIT ( $, .RADIAN. ) );
#808 = AXIS2_PLACEMENT_3D ( 'NONE', #422, #272, #208 ) ;
#809 = DIRECTION ( 'NONE',  ( 0.000000000000000000, 0.000000000000000000, 1.000000000000000000 ) ) ;
#810 = ORIENTED_EDGE ( 'NONE', *, *, #3, .T. ) ;
#811 = CARTESIAN_POINT ( 'NONE',  ( -6.672196044795882131, -6.406582547646614501, -5.000000000000000000 ) ) ;
#812 = CARTESIAN_POINT ( 'NONE',  ( 0.000000000000000000, 0.000000000000000000, 0.000000000000000000 ) ) ;
#813 = CARTESIAN_POINT ( 'NONE',  ( 2.212165215305954113, 8.981582547646619119, -5.000000000000000000 ) ) ;
#814 = DIRECTION ( 'NONE',  ( 0.000000000000000000, 1.000000000000000000, 0.000000000000000000 ) ) ;
#815 = LINE ( 'NONE', #235, #714 ) ;
#816 = DIRECTION ( 'NONE',  ( -0.000000000000000000, -0.000000000000000000, -1.000000000000000000 ) ) ;
#817 = EDGE_LOOP ( 'NONE', ( #152, #871, #382, #726 ) ) ;
#818 = ORIENTED_EDGE ( 'NONE', *, *, #847, .F. ) ;
#819 = DIRECTION ( 'NONE',  ( 0.000000000000000000, 0.000000000000000000, 1.000000000000000000 ) ) ;
#820 = FACE_OUTER_BOUND ( 'NONE', #39, .T. ) ;
#821 = EDGE_LOOP ( 'NONE', ( #113, #402, #388, #340 ) ) ;
#822 = VECTOR ( 'NONE', #8, 1000.000000000000114 ) ;
#823 = ORIENTED_EDGE ( 'NONE', *, *, #843, .F. ) ;
#824 = CARTESIAN_POINT ( 'NONE',  ( -2.212165215306140631, 8.981582547646574710, -5.000000000000000000 ) ) ;
#825 = VECTOR ( 'NONE', #639, 1000.000000000000000 ) ;
#826 = DIRECTION ( 'NONE',  ( -0.8660254037844363761, -0.5000000000000039968, 0.000000000000000000 ) ) ;
#827 = VERTEX_POINT ( 'NONE', #247 ) ;
#828 = AXIS2_PLACEMENT_3D ( 'NONE', #812, #366, #651 ) ;
#829 = CIRCLE ( 'NONE', #808, 4.049999999999999822 ) ;
#830 = VERTEX_POINT ( 'NONE', #771 ) ;
#831 = PLANE ( 'NONE',  #641 ) ;
#832 = LINE ( 'NONE', #740, #446 ) ;
#833 = CARTESIAN_POINT ( 'NONE',  ( 2.212165215305954113, 8.981582547646619119, 5.000000000000000000 ) ) ;
#834 = ORIENTED_EDGE ( 'NONE', *, *, #399, .F. ) ;
#835 = CARTESIAN_POINT ( 'NONE',  ( -4.805015414744921998, -3.172530829489866644, 5.000000000000000000 ) ) ;
#836 = EDGE_CURVE ( 'NONE', #381, #430, #898, .T. ) ;
#837 = CARTESIAN_POINT ( 'NONE',  ( -5.149999999999996803, -2.574999999999999289, 5.000000000000000000 ) ) ;
#838 = CARTESIAN_POINT ( 'NONE',  ( -8.884361260101931279, -2.574999999999999289, 5.000000000000000000 ) ) ;
#839 = ORIENTED_EDGE ( 'NONE', *, *, #248, .F. ) ;
#840 = VECTOR ( 'NONE', #892, 1000.000000000000000 ) ;
#841 = DIRECTION ( 'NONE',  ( 0.5000000000000039968, -0.8660254037844363761, 0.000000000000000000 ) ) ;
#842 = FACE_OUTER_BOUND ( 'NONE', #35, .T. ) ;
#843 = EDGE_CURVE ( 'NONE', #634, #458, #903, .T. ) ;
#844 = CARTESIAN_POINT ( 'NONE',  ( -0.3449845852550566527, -5.747530829489855719, 5.000000000000000000 ) ) ;
#845 = ORIENTED_EDGE ( 'NONE', *, *, #694, .T. ) ;
#846 = LINE ( 'NONE', #415, #386 ) ;
#847 = EDGE_CURVE ( 'NONE', #830, #279, #471, .T. ) ;
#848 = DIRECTION ( 'NONE',  ( 1.000000000000000000, 0.000000000000000000, 0.000000000000000000 ) ) ;
#849 = FACE_OUTER_BOUND ( 'NONE', #107, .T. ) ;
#850 = ORIENTED_EDGE ( 'NONE', *, *, #138, .T. ) ;
#851 = LINE ( 'NONE', #783, #433 ) ;
#852 = ORIENTED_EDGE ( 'NONE', *, *, #734, .T. ) ;
#853 = AXIS2_PLACEMENT_3D ( 'NONE', #623, #45, #410 ) ;
#854 = CARTESIAN_POINT ( 'NONE',  ( 5.149999999999996803, -2.575000000000001066, -5.000000000000000000 ) ) ;
#855 = ORIENTED_EDGE ( 'NONE', *, *, #874, .T. ) ;
#856 = DIRECTION ( 'NONE',  ( 0.000000000000000000, 0.000000000000000000, 1.000000000000000000 ) ) ;
#857 = UNCERTAINTY_MEASURE_WITH_UNIT (LENGTH_MEASURE( 1.000000000000000082E-05 ), #657, 'distance_accuracy_value', 'NONE');
#858 = VERTEX_POINT ( 'NONE', #177 ) ;
#859 = EDGE_CURVE ( 'NONE', #557, #122, #698, .T. ) ;
#860 = EDGE_CURVE ( 'NONE', #881, #671, #102, .T. ) ;
#861 = DIRECTION ( 'NONE',  ( -0.8660254037844328234, -0.5000000000000101030, 0.000000000000000000 ) ) ;
#862 = CARTESIAN_POINT ( 'NONE',  ( -8.884361260101931279, -2.574999999999999289, -5.000000000000000000 ) ) ;
#863 = EDGE_LOOP ( 'NONE', ( #530, #62, #364, #194 ) ) ;
#864 = ORIENTED_EDGE ( 'NONE', *, *, #920, .T. ) ;
#865 = CARTESIAN_POINT ( 'NONE',  ( -4.805015414744921998, -3.172530829489866644, -5.000000000000000000 ) ) ;
#866 = VECTOR ( 'NONE', #582, 1000.000000000000000 ) ;
#867 = AXIS2_PLACEMENT_3D ( 'NONE', #501, #549, #67 ) ;
#868 = DIRECTION ( 'NONE',  ( 1.000000000000000000, 0.000000000000000000, 0.000000000000000000 ) ) ;
#869 = EDGE_CURVE ( 'NONE', #671, #11, #674, .T. ) ;
#870 = AXIS2_PLACEMENT_3D ( 'NONE', #569, #880, #868 ) ;
#871 = ORIENTED_EDGE ( 'NONE', *, *, #609, .F. ) ;
#872 = LINE ( 'NONE', #154, #504 ) ;
#873 = ADVANCED_FACE ( 'NONE', ( #259 ), #831, .T. ) ;
#874 = EDGE_CURVE ( 'NONE', #645, #516, #756, .T. ) ;
#875 =( NAMED_UNIT ( * ) SI_UNIT ( $, .STERADIAN. ) SOLID_ANGLE_UNIT ( ) );
#876 = PRODUCT_DEFINITION ( 'UNKNOWN', '', #585, #804 ) ;
#877 = DIRECTION ( 'NONE',  ( 1.000000000000000000, 0.000000000000000000, 0.000000000000000000 ) ) ;
#878 = ORIENTED_EDGE ( 'NONE', *, *, #74, .T. ) ;
#879 = CARTESIAN_POINT ( 'NONE',  ( -4.805015414744921998, -3.172530829489866644, 5.000000000000000000 ) ) ;
#880 = DIRECTION ( 'NONE',  ( 0.000000000000000000, 0.000000000000000000, 1.000000000000000000 ) ) ;
#881 = VERTEX_POINT ( 'NONE', #751 ) ;
#882 = LINE ( 'NONE', #512, #749 ) ;
#883 = PRESENTATION_STYLE_ASSIGNMENT (( #592 ) ) ;
#884 = AXIS2_PLACEMENT_3D ( 'NONE', #207, #572, #431 ) ;
#885 = DIRECTION ( 'NONE',  ( 0.8660254037844363761, 0.5000000000000039968, 0.000000000000000000 ) ) ;
#886 = DIRECTION ( 'NONE',  ( -1.000000000000000000, 0.000000000000000000, 0.000000000000000000 ) ) ;
#887 = AXIS2_PLACEMENT_3D ( 'NONE', #56, #923, #626 ) ;
#888 = LINE ( 'NONE', #603, #146 ) ;
#889 = LINE ( 'NONE', #250, #461 ) ;
#890 = CARTESIAN_POINT ( 'NONE',  ( 0.000000000000000000, 0.000000000000000000, -5.000000000000000000 ) ) ;
#891 = ORIENTED_EDGE ( 'NONE', *, *, #406, .F. ) ;
#892 = DIRECTION ( 'NONE',  ( 0.000000000000000000, 1.000000000000000000, 0.000000000000000000 ) ) ;
#893 = ADVANCED_FACE ( 'NONE', ( #326 ), #548, .T. ) ;
#894 = AXIS2_PLACEMENT_3D ( 'NONE', #171, #401, #464 ) ;
#895 = DIRECTION ( 'NONE',  ( -0.5000000000000101030, 0.8660254037844328234, 0.000000000000000000 ) ) ;
#896 = ORIENTED_EDGE ( 'NONE', *, *, #90, .T. ) ;
#897 = ORIENTED_EDGE ( 'NONE', *, *, #201, .T. ) ;
#898 = LINE ( 'NONE', #760, #119 ) ;
#899 = CARTESIAN_POINT ( 'NONE',  ( 6.672196044795835945, 6.406582547646659798, -5.000000000000000000 ) ) ;
#900 = ORIENTED_EDGE ( 'NONE', *, *, #695, .T. ) ;
#901 = VECTOR ( 'NONE', #380, 1000.000000000000114 ) ;
#902 = ORIENTED_EDGE ( 'NONE', *, *, #280, .F. ) ;
#903 = LINE ( 'NONE', #44, #599 ) ;
#904 = AXIS2_PLACEMENT_3D ( 'NONE', #600, #753, #681 ) ;
#905 = VECTOR ( 'NONE', #561, 1000.000000000000000 ) ;
#906 = PLANE ( 'NONE',  #212 ) ;
#907 = EDGE_CURVE ( 'NONE', #660, #217, #274, .T. ) ;
#908 = ORIENTED_EDGE ( 'NONE', *, *, #678, .F. ) ;
#909 = ORIENTED_EDGE ( 'NONE', *, *, #406, .T. ) ;
#910 = DIRECTION ( 'NONE',  ( 0.000000000000000000, -0.000000000000000000, 1.000000000000000000 ) ) ;
#911 = EDGE_CURVE ( 'NONE', #805, #347, #558, .T. ) ;
#912 = DIRECTION ( 'NONE',  ( 1.000000000000000000, 0.000000000000000000, 0.000000000000000000 ) ) ;
#913 = DIRECTION ( 'NONE',  ( -0.4999999999999979461, -0.8660254037844397068, 0.000000000000000000 ) ) ;
#914 = ORIENTED_EDGE ( 'NONE', *, *, #103, .T. ) ;
#915 = DIRECTION ( 'NONE',  ( 0.000000000000000000, 0.000000000000000000, -1.000000000000000000 ) ) ;
#916 = EDGE_CURVE ( 'NONE', #11, #547, #846, .T. ) ;
#917 = ADVANCED_BREP_SHAPE_REPRESENTATION ( 'P001-B102_MagnetHolderRing_Rev2C_7', ( #931, #828 ), #300 ) ;
#918 = CARTESIAN_POINT ( 'NONE',  ( -0.3449845852551351455, 5.747530829489852167, 5.000000000000000000 ) ) ;
#919 = LINE ( 'NONE', #838, #374 ) ;
#920 = EDGE_CURVE ( 'NONE', #542, #77, #925, .T. ) ;
#921 = ORIENTED_EDGE ( 'NONE', *, *, #777, .F. ) ;
#922 = VECTOR ( 'NONE', #693, 1000.000000000000000 ) ;
#923 = DIRECTION ( 'NONE',  ( 0.000000000000000000, 0.000000000000000000, 1.000000000000000000 ) ) ;
#924 = AXIS2_PLACEMENT_3D ( 'NONE', #579, #22, #302 ) ;
#925 = CIRCLE ( 'NONE', #887, 9.250000000000000000 ) ;
#926 = DIRECTION ( 'NONE',  ( 1.000000000000000000, 0.000000000000000000, -0.000000000000000000 ) ) ;
#927 = LINE ( 'NONE', #633, #495 ) ;
#928 = ORIENTED_EDGE ( 'NONE', *, *, #3, .F. ) ;
#929 = LINE ( 'NONE', #282, #239 ) ;
#930 = EDGE_LOOP ( 'NONE', ( #710, #662, #176, #290 ) ) ;
#931 = MANIFOLD_SOLID_BREP ( 'CirPattern1', #563 ) ;
#932 = DIRECTION ( 'NONE',  ( -1.000000000000000000, 0.000000000000000000, 0.000000000000000000 ) ) ;
#933 = ORIENTED_EDGE ( 'NONE', *, *, #567, .F. ) ;
ENDSEC;
END-ISO-10303-21;
