ISO-10303-21;
HEADER;
FILE_DESCRIPTION (( 'STEP AP214' ),
    '1' );
FILE_NAME ('P001-B109_Winding_Plate_Attachment_4.STEP',
    '2026-05-14T04:15:33',
    ( '' ),
    ( '' ),
    'SwSTEP 2.0',
    'SolidWorks 2026',
    '' );
FILE_SCHEMA (( 'AUTOMOTIVE_DESIGN' ));
ENDSEC;

DATA;
#1 = CARTESIAN_POINT ( 'NONE',  ( 4.000000000000000000, 0.000000000000000000, -25.00000000000000000 ) ) ;
#2 = LINE ( 'NONE', #717, #422 ) ;
#3 = ORIENTED_EDGE ( 'NONE', *, *, #753, .T. ) ;
#4 = FACE_OUTER_BOUND ( 'NONE', #127, .T. ) ;
#5 = CARTESIAN_POINT ( 'NONE',  ( 6.000000000000000000, 0.000000000000000000, -8.673617379884035472E-16 ) ) ;
#6 = EDGE_CURVE ( 'NONE', #607, #429, #281, .T. ) ;
#7 = DIRECTION ( 'NONE',  ( -1.000000000000000000, -0.000000000000000000, -0.000000000000000000 ) ) ;
#8 = VERTEX_POINT ( 'NONE', #246 ) ;
#9 = DIRECTION ( 'NONE',  ( -1.224646799147353207E-16, 1.000000000000000000, 0.000000000000000000 ) ) ;
#10 = VECTOR ( 'NONE', #656, 1000.000000000000000 ) ;
#11 = VECTOR ( 'NONE', #232, 1000.000000000000000 ) ;
#12 = CARTESIAN_POINT ( 'NONE',  ( 11.25000000000000533, 21.49999999999995737, 8.249999999999998224 ) ) ;
#13 = EDGE_LOOP ( 'NONE', ( #116, #915, #826, #625 ) ) ;
#14 = EDGE_CURVE ( 'NONE', #444, #189, #182, .T. ) ;
#15 = LINE ( 'NONE', #456, #161 ) ;
#16 = ORIENTED_EDGE ( 'NONE', *, *, #404, .F. ) ;
#17 = VECTOR ( 'NONE', #528, 1000.000000000000000 ) ;
#18 = UNCERTAINTY_MEASURE_WITH_UNIT (LENGTH_MEASURE( 1.000000000000000082E-05 ), #287, 'distance_accuracy_value', 'NONE');
#19 = DIRECTION ( 'NONE',  ( 1.224646799147353207E-16, 1.000000000000000000, -0.000000000000000000 ) ) ;
#20 = ORIENTED_EDGE ( 'NONE', *, *, #476, .F. ) ;
#21 = DIRECTION ( 'NONE',  ( 0.000000000000000000, 0.000000000000000000, 1.000000000000000000 ) ) ;
#22 = ADVANCED_FACE ( 'NONE', ( #471 ), #237, .T. ) ;
#23 = CARTESIAN_POINT ( 'NONE',  ( -13.99999999999991651, -11.50000000000006750, 0.000000000000000000 ) ) ;
#24 = LINE ( 'NONE', #652, #10 ) ;
#25 = ORIENTED_EDGE ( 'NONE', *, *, #318, .T. ) ;
#26 =( NAMED_UNIT ( * ) SI_UNIT ( $, .STERADIAN. ) SOLID_ANGLE_UNIT ( ) );
#27 = PLANE ( 'NONE',  #906 ) ;
#28 = ADVANCED_FACE ( 'NONE', ( #42, #258 ), #175, .F. ) ;
#29 = VECTOR ( 'NONE', #549, 1000.000000000000000 ) ;
#30 = DIRECTION ( 'NONE',  ( 1.000000000000000000, 0.000000000000000000, 0.000000000000000000 ) ) ;
#31 = AXIS2_PLACEMENT_3D ( 'NONE', #294, #719, #577 ) ;
#32 = ORIENTED_EDGE ( 'NONE', *, *, #76, .F. ) ;
#33 = VERTEX_POINT ( 'NONE', #831 ) ;
#34 = CARTESIAN_POINT ( 'NONE',  ( -2.000000000000000000, 0.000000000000000000, -23.00000000000000000 ) ) ;
#35 = CARTESIAN_POINT ( 'NONE',  ( -15.99999999999991651, 19.49999999999995381, 0.000000000000000000 ) ) ;
#36 = CARTESIAN_POINT ( 'NONE',  ( -15.99999999999991651, 21.49999999999995737, 10.00000000000000000 ) ) ;
#37 = DIRECTION ( 'NONE',  ( 1.000000000000000000, 0.000000000000000000, 0.000000000000000000 ) ) ;
#38 = ORIENTED_EDGE ( 'NONE', *, *, #430, .T. ) ;
#39 = CARTESIAN_POINT ( 'NONE',  ( -11.25000000000000178, -7.500000000000069278, 8.250000000000001776 ) ) ;
#40 = CARTESIAN_POINT ( 'NONE',  ( -15.99999999999991651, -11.50000000000006573, 0.000000000000000000 ) ) ;
#41 = ADVANCED_FACE ( 'NONE', ( #744 ), #100, .F. ) ;
#42 = FACE_BOUND ( 'NONE', #889, .T. ) ;
#43 = EDGE_CURVE ( 'NONE', #898, #434, #748, .T. ) ;
#44 =( NAMED_UNIT ( * ) PLANE_ANGLE_UNIT ( ) SI_UNIT ( $, .RADIAN. ) );
#45 = VERTEX_POINT ( 'NONE', #399 ) ;
#46 = APPLICATION_CONTEXT ( 'automotive_design' ) ;
#47 = VECTOR ( 'NONE', #537, 1000.000000000000000 ) ;
#48 = DIRECTION ( 'NONE',  ( -1.000000000000000000, 0.000000000000000000, -0.000000000000000000 ) ) ;
#49 = VECTOR ( 'NONE', #787, 1000.000000000000000 ) ;
#50 = CYLINDRICAL_SURFACE ( 'NONE', #621, 2.399999999999997691 ) ;
#51 = ORIENTED_EDGE ( 'NONE', *, *, #149, .F. ) ;
#52 = CARTESIAN_POINT ( 'NONE',  ( -15.99999999999991651, 19.49999999999995381, 10.00000000000000000 ) ) ;
#53 = ORIENTED_EDGE ( 'NONE', *, *, #14, .F. ) ;
#54 = ORIENTED_EDGE ( 'NONE', *, *, #730, .F. ) ;
#55 = EDGE_CURVE ( 'NONE', #929, #59, #912, .T. ) ;
#56 = DIRECTION ( 'NONE',  ( -1.000000000000000000, -0.000000000000000000, -0.000000000000000000 ) ) ;
#57 = ORIENTED_EDGE ( 'NONE', *, *, #97, .F. ) ;
#58 = CARTESIAN_POINT ( 'NONE',  ( 0.000000000000000000, 0.000000000000000000, -25.00000000000000000 ) ) ;
#59 = VERTEX_POINT ( 'NONE', #682 ) ;
#60 = AXIS2_PLACEMENT_3D ( 'NONE', #647, #94, #803 ) ;
#61 = VECTOR ( 'NONE', #355, 1000.000000000000000 ) ;
#62 = DIRECTION ( 'NONE',  ( 0.000000000000000000, -0.000000000000000000, 1.000000000000000000 ) ) ;
#63 = ORIENTED_EDGE ( 'NONE', *, *, #318, .F. ) ;
#64 = CARTESIAN_POINT ( 'NONE',  ( 14.00000000000008349, 19.49999999999995381, 0.000000000000000000 ) ) ;
#65 = ADVANCED_FACE ( 'NONE', ( #328 ), #614, .F. ) ;
#66 = ORIENTED_EDGE ( 'NONE', *, *, #636, .F. ) ;
#67 = ADVANCED_FACE ( 'NONE', ( #564 ), #767, .T. ) ;
#68 = LINE ( 'NONE', #842, #179 ) ;
#69 = ORIENTED_EDGE ( 'NONE', *, *, #781, .F. ) ;
#70 = AXIS2_PLACEMENT_3D ( 'NONE', #196, #903, #822 ) ;
#71 = VECTOR ( 'NONE', #446, 1000.000000000000000 ) ;
#72 = DIRECTION ( 'NONE',  ( -1.000000000000000000, 0.000000000000000000, 0.000000000000000000 ) ) ;
#73 = FACE_OUTER_BOUND ( 'NONE', #556, .T. ) ;
#74 = ORIENTED_EDGE ( 'NONE', *, *, #55, .F. ) ;
#75 = CARTESIAN_POINT ( 'NONE',  ( -9.124999999999998224, 21.49999999999995737, 10.00000000000000178 ) ) ;
#76 = EDGE_CURVE ( 'NONE', #381, #686, #123, .T. ) ;
#77 = DIRECTION ( 'NONE',  ( -0.000000000000000000, -0.000000000000000000, 1.000000000000000000 ) ) ;
#78 = DIRECTION ( 'NONE',  ( 0.000000000000000000, 0.000000000000000000, 1.000000000000000000 ) ) ;
#79 = ORIENTED_EDGE ( 'NONE', *, *, #816, .T. ) ;
#80 = FACE_OUTER_BOUND ( 'NONE', #13, .T. ) ;
#81 = CARTESIAN_POINT ( 'NONE',  ( -13.99999999999991651, 19.49999999999995381, 0.000000000000000000 ) ) ;
#82 = EDGE_CURVE ( 'NONE', #342, #33, #68, .T. ) ;
#83 = DIRECTION ( 'NONE',  ( -1.000000000000000000, 0.000000000000000000, 0.000000000000000000 ) ) ;
#84 = ORIENTED_EDGE ( 'NONE', *, *, #350, .F. ) ;
#85 = CARTESIAN_POINT ( 'NONE',  ( -11.25000000000000178, -36.54886114323228696, 8.250000000000001776 ) ) ;
#86 = CIRCLE ( 'NONE', #561, 2.000000000000000000 ) ;
#87 = LINE ( 'NONE', #933, #11 ) ;
#88 = VECTOR ( 'NONE', #729, 1000.000000000000000 ) ;
#89 = VECTOR ( 'NONE', #226, 1000.000000000000000 ) ;
#90 = LINE ( 'NONE', #312, #642 ) ;
#91 = ORIENTED_EDGE ( 'NONE', *, *, #454, .T. ) ;
#92 = CARTESIAN_POINT ( 'NONE',  ( -2.000000000000000000, 0.000000000000000000, -25.00000000000000000 ) ) ;
#93 = DIRECTION ( 'NONE',  ( 0.000000000000000000, 0.000000000000000000, -1.000000000000000000 ) ) ;
#94 = DIRECTION ( 'NONE',  ( -1.000000000000000000, -0.000000000000000000, -0.000000000000000000 ) ) ;
#95 = ORIENTED_EDGE ( 'NONE', *, *, #43, .F. ) ;
#96 = PLANE ( 'NONE',  #260 ) ;
#97 = EDGE_CURVE ( 'NONE', #710, #929, #314, .T. ) ;
#98 = CARTESIAN_POINT ( 'NONE',  ( -15.99999999999991651, -7.500000000000067502, 10.00000000000000000 ) ) ;
#99 = FACE_OUTER_BOUND ( 'NONE', #844, .T. ) ;
#100 = PLANE ( 'NONE',  #687 ) ;
#101 = PLANE ( 'NONE',  #716 ) ;
#102 = AXIS2_PLACEMENT_3D ( 'NONE', #250, #338, #541 ) ;
#103 = CARTESIAN_POINT ( 'NONE',  ( 6.000000000000000000, 0.000000000000000000, -2.000000000000001776 ) ) ;
#104 = AXIS2_PLACEMENT_3D ( 'NONE', #830, #327, #814 ) ;
#105 = ORIENTED_EDGE ( 'NONE', *, *, #800, .T. ) ;
#106 = ORIENTED_EDGE ( 'NONE', *, *, #245, .T. ) ;
#107 = DIRECTION ( 'NONE',  ( 0.000000000000000000, 0.000000000000000000, 1.000000000000000000 ) ) ;
#108 = EDGE_CURVE ( 'NONE', #833, #881, #706, .T. ) ;
#109 = CARTESIAN_POINT ( 'NONE',  ( 14.00000000000008349, -11.50000000000006573, 0.000000000000000000 ) ) ;
#110 = DIRECTION ( 'NONE',  ( 1.000000000000000000, -0.000000000000000000, 3.854941057726238467E-17 ) ) ;
#111 = CARTESIAN_POINT ( 'NONE',  ( -15.99999999999991651, 18.89999999999995950, 5.000000000000002665 ) ) ;
#112 = ORIENTED_EDGE ( 'NONE', *, *, #916, .T. ) ;
#113 = FACE_OUTER_BOUND ( 'NONE', #701, .T. ) ;
#114 = DIRECTION ( 'NONE',  ( 1.000000000000000000, 0.000000000000000000, 0.000000000000000000 ) ) ;
#115 = VERTEX_POINT ( 'NONE', #575 ) ;
#116 = ORIENTED_EDGE ( 'NONE', *, *, #781, .T. ) ;
#117 = CARTESIAN_POINT ( 'NONE',  ( 11.25000000000000533, -7.500000000000069278, 8.249999999999998224 ) ) ;
#118 = AXIS2_PLACEMENT_3D ( 'NONE', #722, #78, #738 ) ;
#119 = ORIENTED_EDGE ( 'NONE', *, *, #306, .F. ) ;
#120 = VECTOR ( 'NONE', #148, 1000.000000000000000 ) ;
#121 = ADVANCED_FACE ( 'NONE', ( #853 ), #934, .T. ) ;
#122 = ORIENTED_EDGE ( 'NONE', *, *, #336, .F. ) ;
#123 = LINE ( 'NONE', #778, #356 ) ;
#124 = ORIENTED_EDGE ( 'NONE', *, *, #651, .T. ) ;
#125 = EDGE_CURVE ( 'NONE', #560, #204, #484, .T. ) ;
#126 = CARTESIAN_POINT ( 'NONE',  ( 0.000000000000000000, 0.000000000000000000, -2.000000000000001776 ) ) ;
#127 = EDGE_LOOP ( 'NONE', ( #339, #201, #761, #935, #486, #657, #605, #641 ) ) ;
#128 = DIRECTION ( 'NONE',  ( -0.000000000000000000, 1.000000000000000000, -0.000000000000000000 ) ) ;
#129 = DIRECTION ( 'NONE',  ( -1.000000000000000000, 0.000000000000000000, 9.505334114941409750E-17 ) ) ;
#130 = ORIENTED_EDGE ( 'NONE', *, *, #696, .F. ) ;
#131 = AXIS2_PLACEMENT_3D ( 'NONE', #667, #163, #83 ) ;
#132 = EDGE_CURVE ( 'NONE', #637, #875, #765, .T. ) ;
#133 = ADVANCED_FACE ( 'NONE', ( #503 ), #782, .T. ) ;
#134 = DIRECTION ( 'NONE',  ( 1.000000000000000000, 0.000000000000000000, -2.135044278125304498E-15 ) ) ;
#135 = EDGE_LOOP ( 'NONE', ( #567, #277, #526, #839 ) ) ;
#136 = DIRECTION ( 'NONE',  ( 0.000000000000000000, 0.000000000000000000, -1.000000000000000000 ) ) ;
#137 = CARTESIAN_POINT ( 'NONE',  ( -11.25000000000000178, -36.54886114323228696, 5.000000000000002665 ) ) ;
#138 = ORIENTED_EDGE ( 'NONE', *, *, #745, .F. ) ;
#139 = DIRECTION ( 'NONE',  ( -1.000000000000000000, -0.000000000000000000, -0.000000000000000000 ) ) ;
#140 = ORIENTED_EDGE ( 'NONE', *, *, #610, .T. ) ;
#141 = ADVANCED_FACE ( 'NONE', ( #428 ), #918, .T. ) ;
#142 = CARTESIAN_POINT ( 'NONE',  ( -11.25000000000000178, 21.49999999999995737, 8.250000000000001776 ) ) ;
#143 = AXIS2_PLACEMENT_3D ( 'NONE', #861, #432, #785 ) ;
#144 = VECTOR ( 'NONE', #720, 1000.000000000000000 ) ;
#145 = DIRECTION ( 'NONE',  ( -0.000000000000000000, -0.000000000000000000, 1.000000000000000000 ) ) ;
#146 = CARTESIAN_POINT ( 'NONE',  ( -13.99999999999991651, 21.49999999999995737, 10.00000000000000000 ) ) ;
#147 = ORIENTED_EDGE ( 'NONE', *, *, #350, .T. ) ;
#148 = DIRECTION ( 'NONE',  ( 0.000000000000000000, 0.000000000000000000, -1.000000000000000000 ) ) ;
#149 = EDGE_CURVE ( 'NONE', #678, #45, #702, .T. ) ;
#150 = DIRECTION ( 'NONE',  ( 0.000000000000000000, 0.000000000000000000, -1.000000000000000000 ) ) ;
#151 = FACE_OUTER_BOUND ( 'NONE', #183, .T. ) ;
#152 = ORIENTED_EDGE ( 'NONE', *, *, #374, .F. ) ;
#153 = LINE ( 'NONE', #142, #89 ) ;
#154 = PRODUCT_DEFINITION_CONTEXT ( 'detailed design', #46, 'design' ) ;
#155 = LINE ( 'NONE', #431, #88 ) ;
#156 = DIRECTION ( 'NONE',  ( -0.000000000000000000, -0.000000000000000000, 1.000000000000000000 ) ) ;
#157 = ORIENTED_EDGE ( 'NONE', *, *, #543, .T. ) ;
#158 = CARTESIAN_POINT ( 'NONE',  ( 14.00000000000008171, 21.49999999999995737, 0.000000000000000000 ) ) ;
#159 = AXIS2_PLACEMENT_3D ( 'NONE', #835, #465, #267 ) ;
#160 = VECTOR ( 'NONE', #278, 1000.000000000000000 ) ;
#161 = VECTOR ( 'NONE', #305, 1000.000000000000000 ) ;
#162 = ADVANCED_FACE ( 'NONE', ( #487 ), #315, .F. ) ;
#163 = DIRECTION ( 'NONE',  ( -0.000000000000000000, -0.000000000000000000, 1.000000000000000000 ) ) ;
#164 = EDGE_CURVE ( 'NONE', #560, #248, #769, .T. ) ;
#165 = ORIENTED_EDGE ( 'NONE', *, *, #681, .T. ) ;
#166 = CARTESIAN_POINT ( 'NONE',  ( 16.00000000000008527, -11.50000000000006573, 10.00000000000000000 ) ) ;
#167 = ORIENTED_EDGE ( 'NONE', *, *, #454, .F. ) ;
#168 = LINE ( 'NONE', #316, #257 ) ;
#169 = CARTESIAN_POINT ( 'NONE',  ( -15.99999999999991651, -13.50000000000006750, 10.00000000000000000 ) ) ;
#170 = ORIENTED_EDGE ( 'NONE', *, *, #753, .F. ) ;
#171 = CARTESIAN_POINT ( 'NONE',  ( 14.00000000000008349, 21.49999999999995737, 0.000000000000000000 ) ) ;
#172 = ORIENTED_EDGE ( 'NONE', *, *, #923, .T. ) ;
#173 = CARTESIAN_POINT ( 'NONE',  ( -11.25000000000000178, 16.49999999999995737, 7.400000000000001243 ) ) ;
#174 = CARTESIAN_POINT ( 'NONE',  ( 11.25000000000000533, -7.500000000000069278, 8.249999999999998224 ) ) ;
#175 = PLANE ( 'NONE',  #159 ) ;
#176 = EDGE_CURVE ( 'NONE', #875, #637, #840, .T. ) ;
#177 = ORIENTED_EDGE ( 'NONE', *, *, #704, .F. ) ;
#178 = CARTESIAN_POINT ( 'NONE',  ( 11.25000000000000178, 16.49999999999995737, 7.400000000000001243 ) ) ;
#179 = VECTOR ( 'NONE', #203, 1000.000000000000000 ) ;
#180 = VECTOR ( 'NONE', #490, 1000.000000000000000 ) ;
#181 = CARTESIAN_POINT ( 'NONE',  ( 9.125000000000001776, -36.54886114323228696, 8.250000000000000000 ) ) ;
#182 = LINE ( 'NONE', #36, #569 ) ;
#183 = EDGE_LOOP ( 'NONE', ( #829, #426, #478, #165 ) ) ;
#184 = CARTESIAN_POINT ( 'NONE',  ( 4.000000000000000000, 0.000000000000000000, -23.00000000000000000 ) ) ;
#185 = EDGE_CURVE ( 'NONE', #898, #59, #922, .T. ) ;
#186 = CARTESIAN_POINT ( 'NONE',  ( -9.124999999999998224, 21.49999999999995737, 10.00000000000000178 ) ) ;
#187 = DIRECTION ( 'NONE',  ( -0.000000000000000000, 0.000000000000000000, 1.000000000000000000 ) ) ;
#188 = SHAPE_DEFINITION_REPRESENTATION ( #879, #820 ) ;
#189 = VERTEX_POINT ( 'NONE', #566 ) ;
#190 = CARTESIAN_POINT ( 'NONE',  ( -9.124999999999998224, -7.500000000000069278, 8.250000000000001776 ) ) ;
#191 = DIRECTION ( 'NONE',  ( -1.000000000000000000, -0.000000000000000000, -0.000000000000000000 ) ) ;
#192 = CARTESIAN_POINT ( 'NONE',  ( -13.99999999999991651, 19.49999999999995381, 0.000000000000000000 ) ) ;
#193 = ORIENTED_EDGE ( 'NONE', *, *, #777, .T. ) ;
#194 = CARTESIAN_POINT ( 'NONE',  ( 14.00000000000008171, -13.50000000000006750, 10.00000000000000000 ) ) ;
#195 = AXIS2_PLACEMENT_3D ( 'NONE', #754, #240, #256 ) ;
#196 = CARTESIAN_POINT ( 'NONE',  ( 0.000000000000000000, 0.000000000000000000, -23.00000000000000000 ) ) ;
#197 = VECTOR ( 'NONE', #145, 1000.000000000000000 ) ;
#198 = ADVANCED_FACE ( 'NONE', ( #206 ), #425, .T. ) ;
#199 = ORIENTED_EDGE ( 'NONE', *, *, #6, .F. ) ;
#200 = DIRECTION ( 'NONE',  ( -1.000000000000000000, 0.000000000000000000, 0.000000000000000000 ) ) ;
#201 = ORIENTED_EDGE ( 'NONE', *, *, #704, .T. ) ;
#202 = CARTESIAN_POINT ( 'NONE',  ( 16.00000000000008527, -11.50000000000006573, 0.000000000000000000 ) ) ;
#203 = DIRECTION ( 'NONE',  ( -2.135044278125304498E-15, -0.000000000000000000, -1.000000000000000000 ) ) ;
#204 = VERTEX_POINT ( 'NONE', #214 ) ;
#205 = EDGE_CURVE ( 'NONE', #552, #710, #2, .T. ) ;
#206 = FACE_OUTER_BOUND ( 'NONE', #375, .T. ) ;
#207 = AXIS2_PLACEMENT_3D ( 'NONE', #415, #698, #62 ) ;
#208 = EDGE_LOOP ( 'NONE', ( #823, #565, #539, #91 ) ) ;
#209 = CIRCLE ( 'NONE', #332, 2.000000000000000000 ) ;
#210 = CARTESIAN_POINT ( 'NONE',  ( -9.124999999999998224, -7.500000000000069278, 10.00000000000000178 ) ) ;
#211 = EDGE_LOOP ( 'NONE', ( #718, #727, #297, #574, #235, #69, #140 ) ) ;
#212 =( NAMED_UNIT ( * ) SI_UNIT ( $, .STERADIAN. ) SOLID_ANGLE_UNIT ( ) );
#213 = EDGE_CURVE ( 'NONE', #919, #342, #505, .T. ) ;
#214 = CARTESIAN_POINT ( 'NONE',  ( -9.124999999999998224, -7.500000000000067502, 10.00000000000000000 ) ) ;
#215 = VERTEX_POINT ( 'NONE', #384 ) ;
#216 = CARTESIAN_POINT ( 'NONE',  ( 14.00000000000008349, 19.49999999999995381, 0.000000000000000000 ) ) ;
#217 = LINE ( 'NONE', #508, #632 ) ;
#218 = CARTESIAN_POINT ( 'NONE',  ( 11.24999999999999645, 18.89999999999995950, 5.000000000000003553 ) ) ;
#219 = VERTEX_POINT ( 'NONE', #224 ) ;
#220 = DIRECTION ( 'NONE',  ( 1.000000000000000000, 0.000000000000000000, -0.000000000000000000 ) ) ;
#221 = AXIS2_PLACEMENT_3D ( 'NONE', #344, #414, #697 ) ;
#222 = AXIS2_PLACEMENT_3D ( 'NONE', #34, #531, #93 ) ;
#223 = PRESENTATION_STYLE_ASSIGNMENT (( #878 ) ) ;
#224 = CARTESIAN_POINT ( 'NONE',  ( 16.00000000000008527, 19.49999999999995381, 0.000000000000000000 ) ) ;
#225 = ORIENTED_EDGE ( 'NONE', *, *, #557, .F. ) ;
#226 = DIRECTION ( 'NONE',  ( -0.000000000000000000, -0.000000000000000000, 1.000000000000000000 ) ) ;
#227 = CARTESIAN_POINT ( 'NONE',  ( 16.00000000000008527, 19.49999999999995381, 10.00000000000000000 ) ) ;
#228 = CARTESIAN_POINT ( 'NONE',  ( -6.000000000000000000, 7.347880794884119736E-16, -2.000000000000001776 ) ) ;
#229 = ORIENTED_EDGE ( 'NONE', *, *, #916, .F. ) ;
#230 = PLANE ( 'NONE',  #852 ) ;
#231 = ADVANCED_FACE ( 'NONE', ( #880 ), #868, .F. ) ;
#232 = DIRECTION ( 'NONE',  ( -0.000000000000000000, -0.000000000000000000, 1.000000000000000000 ) ) ;
#233 = EDGE_CURVE ( 'NONE', #219, #671, #24, .T. ) ;
#234 = CARTESIAN_POINT ( 'NONE',  ( -13.99999999999991651, -11.50000000000006750, 10.00000000000000000 ) ) ;
#235 = ORIENTED_EDGE ( 'NONE', *, *, #734, .T. ) ;
#236 = CARTESIAN_POINT ( 'NONE',  ( 9.125000000000001776, -7.500000000000069278, 8.250000000000000000 ) ) ;
#237 = TOROIDAL_SURFACE ( 'NONE', #70, 2.000000000000000000, 2.000000000000000000 ) ;
#238 = DIRECTION ( 'NONE',  ( -1.000000000000000000, 0.000000000000000000, 0.000000000000000000 ) ) ;
#239 = CIRCLE ( 'NONE', #104, 2.000000000000000000 ) ;
#240 = DIRECTION ( 'NONE',  ( -1.000000000000000000, -0.000000000000000000, -0.000000000000000000 ) ) ;
#241 = VERTEX_POINT ( 'NONE', #368 ) ;
#242 = DIRECTION ( 'NONE',  ( -0.000000000000000000, -0.000000000000000000, -1.000000000000000000 ) ) ;
#243 = DIRECTION ( 'NONE',  ( 0.000000000000000000, 0.000000000000000000, 1.000000000000000000 ) ) ;
#244 = CARTESIAN_POINT ( 'NONE',  ( -11.25000000000000178, -36.54886114323228696, 5.000000000000002665 ) ) ;
#245 = EDGE_CURVE ( 'NONE', #429, #764, #482, .T. ) ;
#246 = CARTESIAN_POINT ( 'NONE',  ( -15.99999999999991651, 16.49999999999995737, 7.400000000000003020 ) ) ;
#247 = CARTESIAN_POINT ( 'NONE',  ( 9.125000000000001776, 21.49999999999995737, 8.250000000000000000 ) ) ;
#248 = VERTEX_POINT ( 'NONE', #302 ) ;
#249 = DIRECTION ( 'NONE',  ( -2.168404344971010840E-15, 0.000000000000000000, -1.000000000000000000 ) ) ;
#250 = CARTESIAN_POINT ( 'NONE',  ( 0.000000000000000000, 0.000000000000000000, -2.000000000000001776 ) ) ;
#251 = ORIENTED_EDGE ( 'NONE', *, *, #132, .F. ) ;
#252 = ORIENTED_EDGE ( 'NONE', *, *, #519, .F. ) ;
#253 = ADVANCED_FACE ( 'NONE', ( #73 ), #363, .T. ) ;
#254 = DIRECTION ( 'NONE',  ( -1.000000000000000000, -0.000000000000000000, -0.000000000000000000 ) ) ;
#255 = CIRCLE ( 'NONE', #195, 2.399999999999999467 ) ;
#256 = DIRECTION ( 'NONE',  ( 0.000000000000000000, 0.000000000000000000, 1.000000000000000000 ) ) ;
#257 = VECTOR ( 'NONE', #819, 1000.000000000000000 ) ;
#258 = FACE_OUTER_BOUND ( 'NONE', #365, .T. ) ;
#259 = VERTEX_POINT ( 'NONE', #218 ) ;
#260 = AXIS2_PLACEMENT_3D ( 'NONE', #582, #290, #220 ) ;
#261 = PLANE ( 'NONE',  #775 ) ;
#262 = CARTESIAN_POINT ( 'NONE',  ( -15.99999999999991651, 14.09999999999996234, 5.000000000000002665 ) ) ;
#263 =( LENGTH_UNIT ( ) NAMED_UNIT ( * ) SI_UNIT ( .MILLI., .METRE. ) );
#264 = ORIENTED_EDGE ( 'NONE', *, *, #108, .T. ) ;
#265 = FACE_OUTER_BOUND ( 'NONE', #448, .T. ) ;
#266 = ADVANCED_FACE ( 'NONE', ( #580 ), #516, .F. ) ;
#267 = DIRECTION ( 'NONE',  ( 0.000000000000000000, 0.000000000000000000, 1.000000000000000000 ) ) ;
#268 = EDGE_LOOP ( 'NONE', ( #284, #600, #838, #846 ) ) ;
#269 = CARTESIAN_POINT ( 'NONE',  ( 16.00000000000008527, 16.49999999999995737, 2.600000000000007638 ) ) ;
#270 = VECTOR ( 'NONE', #129, 1000.000000000000000 ) ;
#271 = DIRECTION ( 'NONE',  ( 0.000000000000000000, 0.000000000000000000, -1.000000000000000000 ) ) ;
#272 = TOROIDAL_SURFACE ( 'NONE', #790, 2.000000000000000000, 2.000000000000000000 ) ;
#273 = ORIENTED_EDGE ( 'NONE', *, *, #82, .F. ) ;
#274 = CARTESIAN_POINT ( 'NONE',  ( 11.24999999999999822, -36.54886114323228696, 5.000000000000003553 ) ) ;
#275 = CARTESIAN_POINT ( 'NONE',  ( -11.25000000000000178, -36.54886114323228696, 5.000000000000002665 ) ) ;
#276 = EDGE_CURVE ( 'NONE', #757, #351, #509, .T. ) ;
#277 = ORIENTED_EDGE ( 'NONE', *, *, #176, .F. ) ;
#278 = DIRECTION ( 'NONE',  ( -0.000000000000000000, 1.000000000000000000, -0.000000000000000000 ) ) ;
#279 = ORIENTED_EDGE ( 'NONE', *, *, #304, .F. ) ;
#280 = FACE_BOUND ( 'NONE', #783, .T. ) ;
#281 = CIRCLE ( 'NONE', #492, 6.000000000000000000 ) ;
#282 = DIRECTION ( 'NONE',  ( 1.000000000000000000, 0.000000000000000000, 0.000000000000000000 ) ) ;
#283 = CIRCLE ( 'NONE', #808, 2.000000000000000000 ) ;
#284 = ORIENTED_EDGE ( 'NONE', *, *, #499, .T. ) ;
#285 = CIRCLE ( 'NONE', #300, 2.000000000000000000 ) ;
#286 = EDGE_CURVE ( 'NONE', #477, #881, #690, .T. ) ;
#287 =( LENGTH_UNIT ( ) NAMED_UNIT ( * ) SI_UNIT ( .MILLI., .METRE. ) );
#288 = DIRECTION ( 'NONE',  ( -0.000000000000000000, -0.000000000000000000, 1.000000000000000000 ) ) ;
#289 = ORIENTED_EDGE ( 'NONE', *, *, #125, .F. ) ;
#290 = DIRECTION ( 'NONE',  ( 0.000000000000000000, 0.000000000000000000, 1.000000000000000000 ) ) ;
#291 = CARTESIAN_POINT ( 'NONE',  ( 16.00000000000008527, 16.49999999999995737, 7.399999999999999467 ) ) ;
#292 = CARTESIAN_POINT ( 'NONE',  ( -15.99999999999991651, 21.49999999999995737, 0.000000000000000000 ) ) ;
#293 = ORIENTED_EDGE ( 'NONE', *, *, #6, .T. ) ;
#294 = CARTESIAN_POINT ( 'NONE',  ( 11.25000000000000533, -36.54886114323228696, 8.249999999999998224 ) ) ;
#295 = LINE ( 'NONE', #583, #691 ) ;
#296 = CARTESIAN_POINT ( 'NONE',  ( -15.99999999999991651, 16.49999999999995737, 2.600000000000004086 ) ) ;
#297 = ORIENTED_EDGE ( 'NONE', *, *, #149, .T. ) ;
#298 = DIRECTION ( 'NONE',  ( 0.000000000000000000, 0.000000000000000000, 1.000000000000000000 ) ) ;
#299 = AXIS2_PLACEMENT_3D ( 'NONE', #643, #271, #495 ) ;
#300 = AXIS2_PLACEMENT_3D ( 'NONE', #871, #9, #436 ) ;
#301 = DIRECTION ( 'NONE',  ( -1.000000000000000000, 0.000000000000000000, 0.000000000000000000 ) ) ;
#302 = CARTESIAN_POINT ( 'NONE',  ( 9.125000000000001776, 21.49999999999995737, 10.00000000000000000 ) ) ;
#303 = EDGE_LOOP ( 'NONE', ( #105, #401, #891, #751 ) ) ;
#304 = EDGE_CURVE ( 'NONE', #351, #466, #521, .T. ) ;
#305 = DIRECTION ( 'NONE',  ( -0.000000000000000000, 1.000000000000000000, -0.000000000000000000 ) ) ;
#306 = EDGE_CURVE ( 'NONE', #429, #607, #527, .T. ) ;
#307 = CARTESIAN_POINT ( 'NONE',  ( -15.99999999999991651, 21.49999999999995737, 0.000000000000000000 ) ) ;
#308 = DIRECTION ( 'NONE',  ( 0.000000000000000000, 0.000000000000000000, -1.000000000000000000 ) ) ;
#309 = VERTEX_POINT ( 'NONE', #874 ) ;
#310 = FACE_OUTER_BOUND ( 'NONE', #303, .T. ) ;
#311 = DIRECTION ( 'NONE',  ( -0.000000000000000000, -0.000000000000000000, -1.000000000000000000 ) ) ;
#312 = CARTESIAN_POINT ( 'NONE',  ( 11.24999999999999822, -7.500000000000069278, 5.000000000000003553 ) ) ;
#313 = ORIENTED_EDGE ( 'NONE', *, *, #394, .F. ) ;
#314 = CIRCLE ( 'NONE', #827, 2.399999999999997691 ) ;
#315 = TOROIDAL_SURFACE ( 'NONE', #391, 6.000000000000000000, 2.000000000000000000 ) ;
#316 = CARTESIAN_POINT ( 'NONE',  ( 9.125000000000001776, 21.49999999999995737, 8.250000000000000000 ) ) ;
#317 = CIRCLE ( 'NONE', #496, 2.000000000000000000 ) ;
#318 = EDGE_CURVE ( 'NONE', #552, #491, #510, .T. ) ;
#319 = LINE ( 'NONE', #470, #850 ) ;
#320 = VERTEX_POINT ( 'NONE', #296 ) ;
#321 = CARTESIAN_POINT ( 'NONE',  ( -9.124999999999998224, -7.500000000000069278, 10.00000000000000178 ) ) ;
#322 = PLANE ( 'NONE',  #409 ) ;
#323 = ADVANCED_FACE ( 'NONE', ( #151 ), #443, .F. ) ;
#324 = EDGE_LOOP ( 'NONE', ( #586, #172, #894, #862 ) ) ;
#325 = DIRECTION ( 'NONE',  ( -0.000000000000000000, -0.000000000000000000, -1.000000000000000000 ) ) ;
#326 = ORIENTED_EDGE ( 'NONE', *, *, #406, .T. ) ;
#327 = DIRECTION ( 'NONE',  ( 0.000000000000000000, 0.000000000000000000, -1.000000000000000000 ) ) ;
#328 = FACE_OUTER_BOUND ( 'NONE', #268, .T. ) ;
#329 = ORIENTED_EDGE ( 'NONE', *, *, #417, .F. ) ;
#330 = UNCERTAINTY_MEASURE_WITH_UNIT (LENGTH_MEASURE( 1.000000000000000082E-05 ), #263, 'distance_accuracy_value', 'NONE');
#331 = CIRCLE ( 'NONE', #131, 2.000000000000000000 ) ;
#332 = AXIS2_PLACEMENT_3D ( 'NONE', #216, #659, #507 ) ;
#333 = CARTESIAN_POINT ( 'NONE',  ( 11.24999999999999822, -7.500000000000069278, 5.000000000000003553 ) ) ;
#334 = DIRECTION ( 'NONE',  ( -0.000000000000000000, -1.000000000000000000, -0.000000000000000000 ) ) ;
#335 = DIRECTION ( 'NONE',  ( 1.000000000000000000, 0.000000000000000000, 0.000000000000000000 ) ) ;
#336 = EDGE_CURVE ( 'NONE', #189, #616, #331, .T. ) ;
#337 = VERTEX_POINT ( 'NONE', #373 ) ;
#338 = DIRECTION ( 'NONE',  ( -0.000000000000000000, -0.000000000000000000, -1.000000000000000000 ) ) ;
#339 = ORIENTED_EDGE ( 'NONE', *, *, #543, .F. ) ;
#340 = ORIENTED_EDGE ( 'NONE', *, *, #870, .F. ) ;
#341 = DIRECTION ( 'NONE',  ( 0.000000000000000000, 0.000000000000000000, 1.000000000000000000 ) ) ;
#342 = VERTEX_POINT ( 'NONE', #12 ) ;
#343 = EDGE_CURVE ( 'NONE', #434, #397, #90, .T. ) ;
#344 = CARTESIAN_POINT ( 'NONE',  ( 0.000000000000000000, 0.000000000000000000, -2.000000000000001776 ) ) ;
#345 = VECTOR ( 'NONE', #772, 1000.000000000000000 ) ;
#346 = CARTESIAN_POINT ( 'NONE',  ( 0.000000000000000000, 0.000000000000000000, -23.00000000000000000 ) ) ;
#347 = VECTOR ( 'NONE', #679, 1000.000000000000000 ) ;
#348 = ORIENTED_EDGE ( 'NONE', *, *, #205, .T. ) ;
#349 = DIRECTION ( 'NONE',  ( 0.000000000000000000, 0.000000000000000000, 1.000000000000000000 ) ) ;
#350 = EDGE_CURVE ( 'NONE', #8, #320, #255, .T. ) ;
#351 = VERTEX_POINT ( 'NONE', #821 ) ;
#352 = LINE ( 'NONE', #927, #733 ) ;
#353 = DIRECTION ( 'NONE',  ( 0.000000000000000000, -0.000000000000000000, 1.000000000000000000 ) ) ;
#354 = ORIENTED_EDGE ( 'NONE', *, *, #394, .T. ) ;
#355 = DIRECTION ( 'NONE',  ( -1.000000000000000000, -0.000000000000000000, -0.000000000000000000 ) ) ;
#356 = VECTOR ( 'NONE', #573, 1000.000000000000000 ) ;
#357 = CARTESIAN_POINT ( 'NONE',  ( 16.00000000000008527, 21.49999999999995737, 10.00000000000000000 ) ) ;
#358 = AXIS2_PLACEMENT_3D ( 'NONE', #773, #288, #635 ) ;
#359 = ORIENTED_EDGE ( 'NONE', *, *, #336, .T. ) ;
#360 = VECTOR ( 'NONE', #882, 1000.000000000000000 ) ;
#361 = ADVANCED_FACE ( 'NONE', ( #99 ), #261, .F. ) ;
#362 = CARTESIAN_POINT ( 'NONE',  ( 0.000000000000000000, 0.000000000000000000, -23.00000000000000000 ) ) ;
#363 = CYLINDRICAL_SURFACE ( 'NONE', #571, 2.000000000000000000 ) ;
#364 = AXIS2_PLACEMENT_3D ( 'NONE', #890, #242, #335 ) ;
#365 = EDGE_LOOP ( 'NONE', ( #264, #793, #517, #913 ) ) ;
#366 = CARTESIAN_POINT ( 'NONE',  ( -11.25000000000000178, 16.49999999999995737, 5.000000000000003553 ) ) ;
#367 = DIRECTION ( 'NONE',  ( 0.000000000000000000, 0.000000000000000000, -1.000000000000000000 ) ) ;
#368 = CARTESIAN_POINT ( 'NONE',  ( 2.000000000000000000, 3.673940397442059375E-16, -25.00000000000000000 ) ) ;
#369 = ORIENTED_EDGE ( 'NONE', *, *, #132, .T. ) ;
#370 = LINE ( 'NONE', #386, #120 ) ;
#371 =( NAMED_UNIT ( * ) PLANE_ANGLE_UNIT ( ) SI_UNIT ( $, .RADIAN. ) );
#372 = EDGE_CURVE ( 'NONE', #381, #511, #893, .T. ) ;
#373 = CARTESIAN_POINT ( 'NONE',  ( 14.00000000000008171, 21.49999999999995737, 10.00000000000000000 ) ) ;
#374 = EDGE_CURVE ( 'NONE', #511, #849, #395, .T. ) ;
#375 = EDGE_LOOP ( 'NONE', ( #225, #473, #54, #407 ) ) ;
#376 = AXIS2_PLACEMENT_3D ( 'NONE', #525, #156, #791 ) ;
#377 = DIRECTION ( 'NONE',  ( -1.000000000000000000, -0.000000000000000000, -0.000000000000000000 ) ) ;
#378 = VECTOR ( 'NONE', #901, 1000.000000000000000 ) ;
#379 = CIRCLE ( 'NONE', #828, 2.000000000000000000 ) ;
#380 = DIRECTION ( 'NONE',  ( -1.000000000000000000, -0.000000000000000000, -0.000000000000000000 ) ) ;
#381 = VERTEX_POINT ( 'NONE', #190 ) ;
#382 = PLANE ( 'NONE',  #435 ) ;
#383 = LINE ( 'NONE', #321, #810 ) ;
#384 = CARTESIAN_POINT ( 'NONE',  ( -11.25000000000000178, 21.49999999999995737, 8.250000000000001776 ) ) ;
#385 = VERTEX_POINT ( 'NONE', #743 ) ;
#386 = CARTESIAN_POINT ( 'NONE',  ( -13.99999999999991651, -13.50000000000006750, 10.00000000000000000 ) ) ;
#387 = EDGE_CURVE ( 'NONE', #397, #309, #676, .T. ) ;
#388 = DIRECTION ( 'NONE',  ( 1.000000000000000000, 0.000000000000000000, -2.135044278125304498E-15 ) ) ;
#389 = CARTESIAN_POINT ( 'NONE',  ( -15.99999999999991651, -13.50000000000006750, 10.00000000000000000 ) ) ;
#390 = ORIENTED_EDGE ( 'NONE', *, *, #343, .F. ) ;
#391 = AXIS2_PLACEMENT_3D ( 'NONE', #126, #349, #419 ) ;
#392 = CARTESIAN_POINT ( 'NONE',  ( 11.24999999999999645, 16.49999999999995737, 5.000000000000003553 ) ) ;
#393 = VECTOR ( 'NONE', #578, 1000.000000000000000 ) ;
#394 = EDGE_CURVE ( 'NONE', #616, #477, #825, .T. ) ;
#395 = LINE ( 'NONE', #186, #601 ) ;
#396 = ORIENTED_EDGE ( 'NONE', *, *, #638, .T. ) ;
#397 = VERTEX_POINT ( 'NONE', #117 ) ;
#398 = DIRECTION ( 'NONE',  ( 0.000000000000000000, 1.000000000000000000, 0.000000000000000000 ) ) ;
#399 = CARTESIAN_POINT ( 'NONE',  ( -11.25000000000000178, 18.89999999999995950, 5.000000000000002665 ) ) ;
#400 = CARTESIAN_POINT ( 'NONE',  ( -15.99999999999991651, 16.49999999999995737, 5.000000000000003553 ) ) ;
#401 = ORIENTED_EDGE ( 'NONE', *, *, #213, .T. ) ;
#402 = CARTESIAN_POINT ( 'NONE',  ( -11.25000000000000178, -36.54886114323228696, 5.000000000000002665 ) ) ;
#403 = FACE_OUTER_BOUND ( 'NONE', #774, .T. ) ;
#404 = EDGE_CURVE ( 'NONE', #671, #693, #86, .T. ) ;
#405 = ORIENTED_EDGE ( 'NONE', *, *, #623, .T. ) ;
#406 = EDGE_CURVE ( 'NONE', #248, #337, #319, .T. ) ;
#407 = ORIENTED_EDGE ( 'NONE', *, *, #907, .F. ) ;
#408 = VECTOR ( 'NONE', #110, 1000.000000000000000 ) ;
#409 = AXIS2_PLACEMENT_3D ( 'NONE', #181, #897, #680 ) ;
#410 = AXIS2_PLACEMENT_3D ( 'NONE', #392, #388, #249 ) ;
#411 = LINE ( 'NONE', #911, #920 ) ;
#412 = EDGE_LOOP ( 'NONE', ( #293, #668 ) ) ;
#413 = EDGE_LOOP ( 'NONE', ( #369, #770, #112, #497 ) ) ;
#414 = DIRECTION ( 'NONE',  ( 0.000000000000000000, 0.000000000000000000, 1.000000000000000000 ) ) ;
#415 = CARTESIAN_POINT ( 'NONE',  ( 0.000000000000000000, 21.49999999999995737, 0.000000000000000000 ) ) ;
#416 = EDGE_LOOP ( 'NONE', ( #405, #193 ) ) ;
#417 = EDGE_CURVE ( 'NONE', #693, #477, #411, .T. ) ;
#418 = LINE ( 'NONE', #202, #345 ) ;
#419 = DIRECTION ( 'NONE',  ( 1.000000000000000000, 0.000000000000000000, 0.000000000000000000 ) ) ;
#420 = ORIENTED_EDGE ( 'NONE', *, *, #705, .T. ) ;
#421 = EDGE_CURVE ( 'NONE', #45, #115, #604, .T. ) ;
#422 = VECTOR ( 'NONE', #139, 1000.000000000000000 ) ;
#423 = PRESENTATION_LAYER_ASSIGNMENT (  '', '', ( #673 ) ) ;
#424 = VERTEX_POINT ( 'NONE', #40 ) ;
#425 = CYLINDRICAL_SURFACE ( 'NONE', #449, 2.000000000000000000 ) ;
#426 = ORIENTED_EDGE ( 'NONE', *, *, #374, .T. ) ;
#427 = LINE ( 'NONE', #274, #921 ) ;
#428 = FACE_OUTER_BOUND ( 'NONE', #544, .T. ) ;
#429 = VERTEX_POINT ( 'NONE', #747 ) ;
#430 = EDGE_CURVE ( 'NONE', #607, #694, #283, .T. ) ;
#431 = CARTESIAN_POINT ( 'NONE',  ( -15.99999999999991651, -13.50000000000006750, 0.000000000000000000 ) ) ;
#432 = DIRECTION ( 'NONE',  ( 1.000000000000000000, 0.000000000000000000, -2.135044278125304498E-15 ) ) ;
#433 = VECTOR ( 'NONE', #437, 1000.000000000000000 ) ;
#434 = VERTEX_POINT ( 'NONE', #333 ) ;
#435 = AXIS2_PLACEMENT_3D ( 'NONE', #863, #21, #664 ) ;
#436 = DIRECTION ( 'NONE',  ( -1.000000000000000000, -1.224646799147353207E-16, 0.000000000000000000 ) ) ;
#437 = DIRECTION ( 'NONE',  ( -0.000000000000000000, 0.000000000000000000, 1.000000000000000000 ) ) ;
#438 = VERTEX_POINT ( 'NONE', #35 ) ;
#439 = DIRECTION ( 'NONE',  ( -1.000000000000000000, 0.000000000000000000, -0.000000000000000000 ) ) ;
#440 = ORIENTED_EDGE ( 'NONE', *, *, #705, .F. ) ;
#441 = ADVANCED_FACE ( 'NONE', ( #403 ), #322, .F. ) ;
#442 = SURFACE_SIDE_STYLE ('',( #594 ) ) ;
#443 = PLANE ( 'NONE',  #493 ) ;
#444 = VERTEX_POINT ( 'NONE', #52 ) ;
#445 = CARTESIAN_POINT ( 'NONE',  ( 0.000000000000000000, 0.000000000000000000, -25.00000000000000000 ) ) ;
#446 = DIRECTION ( 'NONE',  ( -0.000000000000000000, -0.000000000000000000, 1.000000000000000000 ) ) ;
#447 = DIRECTION ( 'NONE',  ( 0.000000000000000000, 0.000000000000000000, 1.000000000000000000 ) ) ;
#448 = EDGE_LOOP ( 'NONE', ( #662, #455, #53, #534 ) ) ;
#449 = AXIS2_PLACEMENT_3D ( 'NONE', #64, #353, #595 ) ;
#450 = CARTESIAN_POINT ( 'NONE',  ( -4.000000000000000000, 4.898587196589412829E-16, -2.000000000000001776 ) ) ;
#451 = CIRCLE ( 'NONE', #512, 2.399999999999995914 ) ;
#452 = CARTESIAN_POINT ( 'NONE',  ( 9.125000000000001776, -7.500000000000069278, 10.00000000000000000 ) ) ;
#453 = DIRECTION ( 'NONE',  ( -1.000000000000000000, 1.224646799147352961E-16, 0.000000000000000000 ) ) ;
#454 = EDGE_CURVE ( 'NONE', #694, #764, #931, .T. ) ;
#455 = ORIENTED_EDGE ( 'NONE', *, *, #546, .T. ) ;
#456 = CARTESIAN_POINT ( 'NONE',  ( 9.125000000000001776, -36.54886114323228696, 8.250000000000000000 ) ) ;
#457 = CIRCLE ( 'NONE', #695, 2.000000000000000000 ) ;
#458 = ORIENTED_EDGE ( 'NONE', *, *, #108, .F. ) ;
#459 = LINE ( 'NONE', #547, #750 ) ;
#460 = DIRECTION ( 'NONE',  ( 0.000000000000000000, 1.000000000000000000, 0.000000000000000000 ) ) ;
#461 = ORIENTED_EDGE ( 'NONE', *, *, #205, .F. ) ;
#462 = APPLICATION_PROTOCOL_DEFINITION ( 'draft international standard', 'automotive_design', 1998, #46 ) ;
#463 = ADVANCED_FACE ( 'NONE', ( #619 ), #631, .F. ) ;
#464 = CARTESIAN_POINT ( 'NONE',  ( 14.00000000000008171, -13.50000000000006750, 0.000000000000000000 ) ) ;
#465 = DIRECTION ( 'NONE',  ( -1.000000000000000000, 0.000000000000000000, 0.000000000000000000 ) ) ;
#466 = VERTEX_POINT ( 'NONE', #500 ) ;
#467 = AXIS2_PLACEMENT_3D ( 'NONE', #58, #928, #282 ) ;
#468 = PLANE ( 'NONE',  #932 ) ;
#469 = AXIS2_PLACEMENT_3D ( 'NONE', #81, #150, #301 ) ;
#470 = CARTESIAN_POINT ( 'NONE',  ( -15.99999999999991651, 21.49999999999995737, 10.00000000000000000 ) ) ;
#471 = FACE_OUTER_BOUND ( 'NONE', #735, .T. ) ;
#472 = DIRECTION ( 'NONE',  ( -1.000000000000000000, -0.000000000000000000, -0.000000000000000000 ) ) ;
#473 = ORIENTED_EDGE ( 'NONE', *, *, #533, .F. ) ;
#474 = DIRECTION ( 'NONE',  ( 0.000000000000000000, 0.000000000000000000, -1.000000000000000000 ) ) ;
#475 = EDGE_CURVE ( 'NONE', #397, #342, #639, .T. ) ;
#476 = EDGE_CURVE ( 'NONE', #881, #671, #418, .T. ) ;
#477 = VERTEX_POINT ( 'NONE', #194 ) ;
#478 = ORIENTED_EDGE ( 'NONE', *, *, #675, .F. ) ;
#479 = ORIENTED_EDGE ( 'NONE', *, *, #930, .F. ) ;
#480 = DIRECTION ( 'NONE',  ( 1.000000000000000000, 0.000000000000000000, 0.000000000000000000 ) ) ;
#481 = EDGE_LOOP ( 'NONE', ( #869, #124, #689, #707, #504, #592, #723 ) ) ;
#482 = CIRCLE ( 'NONE', #902, 2.000000000000000000 ) ;
#483 = AXIS2_PLACEMENT_3D ( 'NONE', #366, #377, #298 ) ;
#484 = LINE ( 'NONE', #210, #270 ) ;
#485 = EDGE_CURVE ( 'NONE', #259, #33, #352, .T. ) ;
#486 = ORIENTED_EDGE ( 'NONE', *, *, #276, .F. ) ;
#487 = FACE_OUTER_BOUND ( 'NONE', #813, .T. ) ;
#488 = ORIENTED_EDGE ( 'NONE', *, *, #870, .T. ) ;
#489 = ADVANCED_FACE ( 'NONE', ( #280, #265 ), #558, .F. ) ;
#490 = DIRECTION ( 'NONE',  ( -0.000000000000000000, -1.000000000000000000, -0.000000000000000000 ) ) ;
#491 = VERTEX_POINT ( 'NONE', #269 ) ;
#492 = AXIS2_PLACEMENT_3D ( 'NONE', #555, #611, #914 ) ;
#493 = AXIS2_PLACEMENT_3D ( 'NONE', #797, #726, #732 ) ;
#494 =( GEOMETRIC_REPRESENTATION_CONTEXT ( 3 ) GLOBAL_UNCERTAINTY_ASSIGNED_CONTEXT ( ( #18 ) ) GLOBAL_UNIT_ASSIGNED_CONTEXT ( ( #287, #371, #212 ) ) REPRESENTATION_CONTEXT ( 'NONE', 'WORKASPACE' ) );
#495 = DIRECTION ( 'NONE',  ( -1.000000000000000000, 0.000000000000000000, 0.000000000000000000 ) ) ;
#496 = AXIS2_PLACEMENT_3D ( 'NONE', #23, #311, #598 ) ;
#497 = ORIENTED_EDGE ( 'NONE', *, *, #579, .F. ) ;
#498 = CIRCLE ( 'NONE', #364, 4.000000000000000000 ) ;
#499 = EDGE_CURVE ( 'NONE', #434, #929, #427, .T. ) ;
#500 = CARTESIAN_POINT ( 'NONE',  ( -13.99999999999991651, 21.49999999999995737, 10.00000000000000000 ) ) ;
#501 = MANIFOLD_SOLID_BREP ( 'Fillet1', #864 ) ;
#502 = ADVANCED_FACE ( 'NONE', ( #524 ), #660, .T. ) ;
#503 = FACE_OUTER_BOUND ( 'NONE', #522, .T. ) ;
#504 = ORIENTED_EDGE ( 'NONE', *, *, #343, .T. ) ;
#505 = LINE ( 'NONE', #661, #789 ) ;
#506 = EDGE_LOOP ( 'NONE', ( #479, #138, #440, #279 ) ) ;
#507 = DIRECTION ( 'NONE',  ( 1.000000000000000000, 0.000000000000000000, 0.000000000000000000 ) ) ;
#508 = CARTESIAN_POINT ( 'NONE',  ( -11.25000000000000178, 21.49999999999995737, 5.000000000000002665 ) ) ;
#509 = LINE ( 'NONE', #292, #731 ) ;
#510 = CIRCLE ( 'NONE', #545, 2.399999999999995914 ) ;
#511 = VERTEX_POINT ( 'NONE', #725 ) ;
#512 = AXIS2_PLACEMENT_3D ( 'NONE', #536, #900, #243 ) ;
#513 = EDGE_CURVE ( 'NONE', #438, #424, #788, .T. ) ;
#514 = LINE ( 'NONE', #794, #49 ) ;
#515 = CARTESIAN_POINT ( 'NONE',  ( -13.99999999999991651, -13.50000000000006750, 10.00000000000000000 ) ) ;
#516 = CYLINDRICAL_SURFACE ( 'NONE', #60, 2.399999999999997691 ) ;
#517 = ORIENTED_EDGE ( 'NONE', *, *, #233, .F. ) ;
#518 = DIRECTION ( 'NONE',  ( -1.000000000000000000, 0.000000000000000000, 0.000000000000000000 ) ) ;
#519 = EDGE_CURVE ( 'NONE', #491, #320, #590, .T. ) ;
#520 = FILL_AREA_STYLE ('',( #655 ) ) ;
#521 = LINE ( 'NONE', #146, #433 ) ;
#522 = EDGE_LOOP ( 'NONE', ( #924, #329, #16, #20 ) ) ;
#523 = CARTESIAN_POINT ( 'NONE',  ( 0.000000000000000000, 0.000000000000000000, -25.00000000000000000 ) ) ;
#524 = FACE_OUTER_BOUND ( 'NONE', #506, .T. ) ;
#525 = CARTESIAN_POINT ( 'NONE',  ( 14.00000000000008349, -11.50000000000006573, 10.00000000000000000 ) ) ;
#526 = ORIENTED_EDGE ( 'NONE', *, *, #636, .T. ) ;
#527 = CIRCLE ( 'NONE', #118, 6.000000000000000000 ) ;
#528 = DIRECTION ( 'NONE',  ( 0.000000000000000000, -0.000000000000000000, 1.000000000000000000 ) ) ;
#529 = VECTOR ( 'NONE', #736, 1000.000000000000000 ) ;
#530 = EDGE_LOOP ( 'NONE', ( #786, #926, #760, #130, #677, #74, #57, #461 ) ) ;
#531 = DIRECTION ( 'NONE',  ( -0.000000000000000000, -1.000000000000000000, -0.000000000000000000 ) ) ;
#532 = DIRECTION ( 'NONE',  ( -0.000000000000000000, -0.000000000000000000, -1.000000000000000000 ) ) ;
#533 = EDGE_CURVE ( 'NONE', #219, #833, #714, .T. ) ;
#534 = ORIENTED_EDGE ( 'NONE', *, *, #745, .T. ) ;
#535 = ORIENTED_EDGE ( 'NONE', *, *, #417, .T. ) ;
#536 = CARTESIAN_POINT ( 'NONE',  ( 16.00000000000008527, 16.49999999999995737, 5.000000000000003553 ) ) ;
#537 = DIRECTION ( 'NONE',  ( -0.000000000000000000, 1.000000000000000000, -0.000000000000000000 ) ) ;
#538 = LINE ( 'NONE', #171, #910 ) ;
#539 = ORIENTED_EDGE ( 'NONE', *, *, #579, .T. ) ;
#540 = DIRECTION ( 'NONE',  ( 3.854941057726238467E-17, 0.000000000000000000, -1.000000000000000000 ) ) ;
#541 = DIRECTION ( 'NONE',  ( 1.000000000000000000, 0.000000000000000000, 0.000000000000000000 ) ) ;
#542 = ORIENTED_EDGE ( 'NONE', *, *, #638, .F. ) ;
#543 = EDGE_CURVE ( 'NONE', #385, #693, #155, .T. ) ;
#544 = EDGE_LOOP ( 'NONE', ( #630, #648, #3, #152, #798, #837, #644, #273, #818, #542, #326, #653 ) ) ;
#545 = AXIS2_PLACEMENT_3D ( 'NONE', #809, #7, #447 ) ;
#546 = EDGE_CURVE ( 'NONE', #424, #189, #87, .T. ) ;
#547 = CARTESIAN_POINT ( 'NONE',  ( -9.124999999999998224, -36.54886114323228696, 10.00000000000000178 ) ) ;
#548 = MECHANICAL_DESIGN_GEOMETRIC_PRESENTATION_REPRESENTATION (  '', ( #673 ), #494 ) ;
#549 = DIRECTION ( 'NONE',  ( -0.000000000000000000, 1.000000000000000000, -0.000000000000000000 ) ) ;
#550 = ORIENTED_EDGE ( 'NONE', *, *, #125, .T. ) ;
#551 = DIRECTION ( 'NONE',  ( 1.000000000000000000, 0.000000000000000000, 0.000000000000000000 ) ) ;
#552 = VERTEX_POINT ( 'NONE', #291 ) ;
#553 = AXIS2_PLACEMENT_3D ( 'NONE', #615, #756, #551 ) ;
#554 = DIRECTION ( 'NONE',  ( 0.000000000000000000, -0.000000000000000000, 1.000000000000000000 ) ) ;
#555 = CARTESIAN_POINT ( 'NONE',  ( 0.000000000000000000, 0.000000000000000000, 0.000000000000000000 ) ) ;
#556 = EDGE_LOOP ( 'NONE', ( #122, #684, #177, #804 ) ) ;
#557 = EDGE_CURVE ( 'NONE', #833, #337, #379, .T. ) ;
#558 = PLANE ( 'NONE',  #658 ) ;
#559 = ORIENTED_EDGE ( 'NONE', *, *, #651, .F. ) ;
#560 = VERTEX_POINT ( 'NONE', #452 ) ;
#561 = AXIS2_PLACEMENT_3D ( 'NONE', #109, #532, #114 ) ;
#562 = CARTESIAN_POINT ( 'NONE',  ( 0.000000000000000000, 0.000000000000000000, -23.00000000000000000 ) ) ;
#563 = ORIENTED_EDGE ( 'NONE', *, *, #923, .F. ) ;
#564 = FACE_OUTER_BOUND ( 'NONE', #413, .T. ) ;
#565 = ORIENTED_EDGE ( 'NONE', *, *, #176, .T. ) ;
#566 = CARTESIAN_POINT ( 'NONE',  ( -15.99999999999991651, -11.50000000000006573, 10.00000000000000000 ) ) ;
#567 = ORIENTED_EDGE ( 'NONE', *, *, #771, .F. ) ;
#568 = EDGE_CURVE ( 'NONE', #875, #764, #873, .T. ) ;
#569 = VECTOR ( 'NONE', #334, 1000.000000000000000 ) ;
#570 = ADVANCED_FACE ( 'NONE', ( #737 ), #272, .T. ) ;
#571 = AXIS2_PLACEMENT_3D ( 'NONE', #234, #308, #591 ) ;
#572 = VECTOR ( 'NONE', #799, 1000.000000000000000 ) ;
#573 = DIRECTION ( 'NONE',  ( -1.000000000000000000, 0.000000000000000000, 0.000000000000000000 ) ) ;
#574 = ORIENTED_EDGE ( 'NONE', *, *, #421, .T. ) ;
#575 = CARTESIAN_POINT ( 'NONE',  ( -11.25000000000000178, 21.49999999999995737, 5.000000000000002665 ) ) ;
#576 = ORIENTED_EDGE ( 'NONE', *, *, #771, .T. ) ;
#577 = DIRECTION ( 'NONE',  ( 1.000000000000000000, 0.000000000000000000, -8.163404592832019174E-16 ) ) ;
#578 = DIRECTION ( 'NONE',  ( -0.000000000000000000, -0.000000000000000000, 1.000000000000000000 ) ) ;
#579 = EDGE_CURVE ( 'NONE', #637, #694, #784, .T. ) ;
#580 = FACE_OUTER_BOUND ( 'NONE', #530, .T. ) ;
#581 = ORIENTED_EDGE ( 'NONE', *, *, #387, .F. ) ;
#582 = CARTESIAN_POINT ( 'NONE',  ( -9.124999999999998224, -36.54886114323228696, 8.250000000000001776 ) ) ;
#583 = CARTESIAN_POINT ( 'NONE',  ( -11.25000000000000178, -7.500000000000069278, 8.250000000000001776 ) ) ;
#584 = DIRECTION ( 'NONE',  ( 1.000000000000000000, -0.000000000000000000, -8.163404592832019174E-16 ) ) ;
#585 = AXIS2_PLACEMENT_3D ( 'NONE', #562, #857, #200 ) ;
#586 = ORIENTED_EDGE ( 'NONE', *, *, #421, .F. ) ;
#587 = CIRCLE ( 'NONE', #618, 2.399999999999999467 ) ;
#588 = EDGE_CURVE ( 'NONE', #33, #115, #217, .T. ) ;
#589 = FACE_OUTER_BOUND ( 'NONE', #416, .T. ) ;
#590 = LINE ( 'NONE', #860, #61 ) ;
#591 = DIRECTION ( 'NONE',  ( -1.000000000000000000, 0.000000000000000000, 0.000000000000000000 ) ) ;
#592 = ORIENTED_EDGE ( 'NONE', *, *, #475, .T. ) ;
#593 = LINE ( 'NONE', #859, #360 ) ;
#594 = SURFACE_STYLE_FILL_AREA ( #520 ) ;
#595 = DIRECTION ( 'NONE',  ( 1.000000000000000000, 0.000000000000000000, 0.000000000000000000 ) ) ;
#596 = ORIENTED_EDGE ( 'NONE', *, *, #610, .F. ) ;
#597 = DIRECTION ( 'NONE',  ( 0.000000000000000000, 0.000000000000000000, -1.000000000000000000 ) ) ;
#598 = DIRECTION ( 'NONE',  ( 1.000000000000000000, 0.000000000000000000, 0.000000000000000000 ) ) ;
#599 = DIRECTION ( 'NONE',  ( 2.135044278125304498E-15, -0.000000000000000000, 1.000000000000000000 ) ) ;
#600 = ORIENTED_EDGE ( 'NONE', *, *, #55, .T. ) ;
#601 = VECTOR ( 'NONE', #759, 1000.000000000000000 ) ;
#602 = COLOUR_RGB ( '',0.7921568627450980005, 0.8196078431372548767, 0.9333333333333333481 ) ;
#603 = CARTESIAN_POINT ( 'NONE',  ( 16.00000000000008527, -11.50000000000006573, 0.000000000000000000 ) ) ;
#604 = LINE ( 'NONE', #244, #47 ) ;
#605 = ORIENTED_EDGE ( 'NONE', *, *, #233, .T. ) ;
#606 = APPLICATION_PROTOCOL_DEFINITION ( 'draft international standard', 'automotive_design', 1998, #876 ) ;
#607 = VERTEX_POINT ( 'NONE', #5 ) ;
#608 = DIRECTION ( 'NONE',  ( -1.000000000000000000, 0.000000000000000000, -0.000000000000000000 ) ) ;
#609 = DIRECTION ( 'NONE',  ( -0.000000000000000000, -0.000000000000000000, 1.000000000000000000 ) ) ;
#610 = EDGE_CURVE ( 'NONE', #686, #898, #295, .T. ) ;
#611 = DIRECTION ( 'NONE',  ( 0.000000000000000000, 0.000000000000000000, 1.000000000000000000 ) ) ;
#612 = ORIENTED_EDGE ( 'NONE', *, *, #286, .T. ) ;
#613 = DIRECTION ( 'NONE',  ( 0.000000000000000000, -0.000000000000000000, 1.000000000000000000 ) ) ;
#614 = PLANE ( 'NONE',  #807 ) ;
#615 = CARTESIAN_POINT ( 'NONE',  ( 0.000000000000000000, 0.000000000000000000, 0.000000000000000000 ) ) ;
#616 = VERTEX_POINT ( 'NONE', #515 ) ;
#617 = ADVANCED_FACE ( 'NONE', ( #795 ), #101, .F. ) ;
#618 = AXIS2_PLACEMENT_3D ( 'NONE', #670, #254, #107 ) ;
#619 = FACE_OUTER_BOUND ( 'NONE', #858, .T. ) ;
#620 = CARTESIAN_POINT ( 'NONE',  ( -11.25000000000000178, -7.500000000000069278, 5.000000000000002665 ) ) ;
#621 = AXIS2_PLACEMENT_3D ( 'NONE', #400, #472, #683 ) ;
#622 = ORIENTED_EDGE ( 'NONE', *, *, #675, .T. ) ;
#623 = EDGE_CURVE ( 'NONE', #811, #241, #239, .T. ) ;
#624 = CARTESIAN_POINT ( 'NONE',  ( 11.25000000000000533, -36.54886114323228696, 8.249999999999998224 ) ) ;
#625 = ORIENTED_EDGE ( 'NONE', *, *, #76, .T. ) ;
#626 = ORIENTED_EDGE ( 'NONE', *, *, #557, .T. ) ;
#627 = DIRECTION ( 'NONE',  ( -0.000000000000000000, 1.000000000000000000, -0.000000000000000000 ) ) ;
#628 = EDGE_CURVE ( 'NONE', #491, #552, #451, .T. ) ;
#629 = CARTESIAN_POINT ( 'NONE',  ( -11.25000000000000178, 16.49999999999995737, 5.000000000000003553 ) ) ;
#630 = ORIENTED_EDGE ( 'NONE', *, *, #276, .T. ) ;
#631 = TOROIDAL_SURFACE ( 'NONE', #221, 6.000000000000000000, 2.000000000000000000 ) ;
#632 = VECTOR ( 'NONE', #650, 1000.000000000000000 ) ;
#633 = DIRECTION ( 'NONE',  ( -0.000000000000000000, -0.000000000000000000, 1.000000000000000000 ) ) ;
#634 = ORIENTED_EDGE ( 'NONE', *, *, #406, .F. ) ;
#635 = DIRECTION ( 'NONE',  ( 1.000000000000000000, 0.000000000000000000, 0.000000000000000000 ) ) ;
#636 = EDGE_CURVE ( 'NONE', #875, #811, #776, .T. ) ;
#637 = VERTEX_POINT ( 'NONE', #184 ) ;
#638 = EDGE_CURVE ( 'NONE', #248, #919, #168, .T. ) ;
#639 = LINE ( 'NONE', #624, #749 ) ;
#640 = DIRECTION ( 'NONE',  ( -1.000000000000000000, 0.000000000000000000, -3.854941057726238467E-17 ) ) ;
#641 = ORIENTED_EDGE ( 'NONE', *, *, #404, .T. ) ;
#642 = VECTOR ( 'NONE', #599, 1000.000000000000000 ) ;
#643 = CARTESIAN_POINT ( 'NONE',  ( 14.00000000000008349, -11.50000000000006573, 0.000000000000000000 ) ) ;
#644 = ORIENTED_EDGE ( 'NONE', *, *, #588, .F. ) ;
#645 = EDGE_CURVE ( 'NONE', #320, #8, #587, .T. ) ;
#646 = DIRECTION ( 'NONE',  ( -1.000000000000000000, 0.000000000000000000, 0.000000000000000000 ) ) ;
#647 = CARTESIAN_POINT ( 'NONE',  ( -15.99999999999991651, 16.49999999999995737, 5.000000000000003553 ) ) ;
#648 = ORIENTED_EDGE ( 'NONE', *, *, #304, .T. ) ;
#649 = LINE ( 'NONE', #728, #529 ) ;
#650 = DIRECTION ( 'NONE',  ( -1.000000000000000000, -0.000000000000000000, -3.854941057726238467E-17 ) ) ;
#651 = EDGE_CURVE ( 'NONE', #259, #710, #766, .T. ) ;
#652 = CARTESIAN_POINT ( 'NONE',  ( 16.00000000000008527, 21.49999999999995737, 0.000000000000000000 ) ) ;
#653 = ORIENTED_EDGE ( 'NONE', *, *, #907, .T. ) ;
#654 = PLANE ( 'NONE',  #31 ) ;
#655 = FILL_AREA_STYLE_COLOUR ( '', #602 ) ;
#656 = DIRECTION ( 'NONE',  ( -0.000000000000000000, -1.000000000000000000, -0.000000000000000000 ) ) ;
#657 = ORIENTED_EDGE ( 'NONE', *, *, #730, .T. ) ;
#658 = AXIS2_PLACEMENT_3D ( 'NONE', #917, #780, #136 ) ;
#659 = DIRECTION ( 'NONE',  ( -0.000000000000000000, -0.000000000000000000, -1.000000000000000000 ) ) ;
#660 = CYLINDRICAL_SURFACE ( 'NONE', #469, 2.000000000000000000 ) ;
#661 = CARTESIAN_POINT ( 'NONE',  ( 11.25000000000000533, 21.49999999999995737, 8.249999999999998224 ) ) ;
#662 = ORIENTED_EDGE ( 'NONE', *, *, #513, .T. ) ;
#663 = ADVANCED_FACE ( 'NONE', ( #113 ), #27, .F. ) ;
#664 = DIRECTION ( 'NONE',  ( 1.000000000000000000, 0.000000000000000000, -0.000000000000000000 ) ) ;
#665 = PRODUCT_RELATED_PRODUCT_CATEGORY ( 'part', '', ( #792 ) ) ;
#666 = CARTESIAN_POINT ( 'NONE',  ( -15.99999999999991651, 16.49999999999995737, 7.400000000000001243 ) ) ;
#667 = CARTESIAN_POINT ( 'NONE',  ( -13.99999999999991651, -11.50000000000006750, 10.00000000000000000 ) ) ;
#668 = ORIENTED_EDGE ( 'NONE', *, *, #306, .T. ) ;
#669 = FACE_OUTER_BOUND ( 'NONE', #779, .T. ) ;
#670 = CARTESIAN_POINT ( 'NONE',  ( -15.99999999999991651, 16.49999999999995737, 5.000000000000003553 ) ) ;
#671 = VERTEX_POINT ( 'NONE', #603 ) ;
#672 = DIRECTION ( 'NONE',  ( 0.000000000000000000, 0.000000000000000000, -1.000000000000000000 ) ) ;
#673 = STYLED_ITEM ( 'NONE', ( #223 ), #501 ) ;
#674 = CARTESIAN_POINT ( 'NONE',  ( -15.99999999999991651, 21.49999999999995737, 10.00000000000000000 ) ) ;
#675 = EDGE_CURVE ( 'NONE', #204, #849, #459, .T. ) ;
#676 = LINE ( 'NONE', #174, #378 ) ;
#677 = ORIENTED_EDGE ( 'NONE', *, *, #834, .F. ) ;
#678 = VERTEX_POINT ( 'NONE', #173 ) ;
#679 = DIRECTION ( 'NONE',  ( -1.000000000000000000, -0.000000000000000000, -0.000000000000000000 ) ) ;
#680 = DIRECTION ( 'NONE',  ( -0.000000000000000000, 0.000000000000000000, -1.000000000000000000 ) ) ;
#681 = EDGE_CURVE ( 'NONE', #204, #381, #383, .T. ) ;
#682 = CARTESIAN_POINT ( 'NONE',  ( -11.25000000000000178, 14.09999999999996234, 5.000000000000002665 ) ) ;
#683 = DIRECTION ( 'NONE',  ( 0.000000000000000000, 0.000000000000000000, 1.000000000000000000 ) ) ;
#684 = ORIENTED_EDGE ( 'NONE', *, *, #546, .F. ) ;
#685 = DIRECTION ( 'NONE',  ( 0.000000000000000000, 0.000000000000000000, -1.000000000000000000 ) ) ;
#686 = VERTEX_POINT ( 'NONE', #39 ) ;
#687 = AXIS2_PLACEMENT_3D ( 'NONE', #755, #48, #187 ) ;
#688 = CARTESIAN_POINT ( 'NONE',  ( -11.25000000000000178, -7.500000000000069278, 5.000000000000002665 ) ) ;
#689 = ORIENTED_EDGE ( 'NONE', *, *, #97, .T. ) ;
#690 = CIRCLE ( 'NONE', #376, 2.000000000000000000 ) ;
#691 = VECTOR ( 'NONE', #865, 1000.000000000000000 ) ;
#692 = DIRECTION ( 'NONE',  ( 0.000000000000000000, -1.000000000000000000, 0.000000000000000000 ) ) ;
#693 = VERTEX_POINT ( 'NONE', #464 ) ;
#694 = VERTEX_POINT ( 'NONE', #752 ) ;
#695 = AXIS2_PLACEMENT_3D ( 'NONE', #192, #325, #480 ) ;
#696 = EDGE_CURVE ( 'NONE', #678, #8, #746, .T. ) ;
#697 = DIRECTION ( 'NONE',  ( 1.000000000000000000, 0.000000000000000000, 0.000000000000000000 ) ) ;
#698 = DIRECTION ( 'NONE',  ( 0.000000000000000000, 1.000000000000000000, 0.000000000000000000 ) ) ;
#699 = ORIENTED_EDGE ( 'NONE', *, *, #696, .T. ) ;
#700 = CARTESIAN_POINT ( 'NONE',  ( 9.125000000000001776, -36.54886114323228696, 10.00000000000000000 ) ) ;
#701 = EDGE_LOOP ( 'NONE', ( #768, #359, #354, #612, #458, #626, #634, #712, #550, #622, #170, #420 ) ) ;
#702 = CIRCLE ( 'NONE', #715, 2.399999999999997691 ) ;
#703 = AXIS2_PLACEMENT_3D ( 'NONE', #445, #740, #518 ) ;
#704 = EDGE_CURVE ( 'NONE', #385, #424, #317, .T. ) ;
#705 = EDGE_CURVE ( 'NONE', #466, #444, #841, .T. ) ;
#706 = LINE ( 'NONE', #357, #180 ) ;
#707 = ORIENTED_EDGE ( 'NONE', *, *, #499, .F. ) ;
#708 = DIRECTION ( 'NONE',  ( -0.000000000000000000, 1.000000000000000000, -0.000000000000000000 ) ) ;
#709 = DIRECTION ( 'NONE',  ( -0.000000000000000000, 1.000000000000000000, -0.000000000000000000 ) ) ;
#710 = VERTEX_POINT ( 'NONE', #178 ) ;
#711 = DIRECTION ( 'NONE',  ( -2.168404344971010840E-15, 0.000000000000000000, -1.000000000000000000 ) ) ;
#712 = ORIENTED_EDGE ( 'NONE', *, *, #164, .F. ) ;
#713 = ADVANCED_FACE ( 'NONE', ( #884 ), #468, .T. ) ;
#714 = LINE ( 'NONE', #227, #71 ) ;
#715 = AXIS2_PLACEMENT_3D ( 'NONE', #629, #56, #341 ) ;
#716 = AXIS2_PLACEMENT_3D ( 'NONE', #402, #540, #758 ) ;
#717 = CARTESIAN_POINT ( 'NONE',  ( -15.99999999999991651, 16.49999999999995737, 7.400000000000001243 ) ) ;
#718 = ORIENTED_EDGE ( 'NONE', *, *, #185, .T. ) ;
#719 = DIRECTION ( 'NONE',  ( 8.163404592832019174E-16, 0.000000000000000000, 1.000000000000000000 ) ) ;
#720 = DIRECTION ( 'NONE',  ( -0.000000000000000000, -1.000000000000000000, -0.000000000000000000 ) ) ;
#721 = PRODUCT_DEFINITION_FORMATION_WITH_SPECIFIED_SOURCE ( 'ANY', '', #792, .NOT_KNOWN. ) ;
#722 = CARTESIAN_POINT ( 'NONE',  ( 0.000000000000000000, 0.000000000000000000, 0.000000000000000000 ) ) ;
#723 = ORIENTED_EDGE ( 'NONE', *, *, #82, .T. ) ;
#724 = LINE ( 'NONE', #85, #572 ) ;
#725 = CARTESIAN_POINT ( 'NONE',  ( -9.124999999999998224, 21.49999999999995737, 8.250000000000001776 ) ) ;
#726 = DIRECTION ( 'NONE',  ( -1.000000000000000000, 0.000000000000000000, -0.000000000000000000 ) ) ;
#727 = ORIENTED_EDGE ( 'NONE', *, *, #834, .T. ) ;
#728 = CARTESIAN_POINT ( 'NONE',  ( -15.99999999999991651, 21.49999999999995737, 10.00000000000000000 ) ) ;
#729 = DIRECTION ( 'NONE',  ( 1.000000000000000000, 0.000000000000000000, 0.000000000000000000 ) ) ;
#730 = EDGE_CURVE ( 'NONE', #757, #219, #209, .T. ) ;
#731 = VECTOR ( 'NONE', #380, 1000.000000000000000 ) ;
#732 = DIRECTION ( 'NONE',  ( -0.000000000000000000, 0.000000000000000000, 1.000000000000000000 ) ) ;
#733 = VECTOR ( 'NONE', #627, 1000.000000000000000 ) ;
#734 = EDGE_CURVE ( 'NONE', #115, #215, #153, .T. ) ;
#735 = EDGE_LOOP ( 'NONE', ( #251, #576, #739, #66 ) ) ;
#736 = DIRECTION ( 'NONE',  ( 1.000000000000000000, 0.000000000000000000, 0.000000000000000000 ) ) ;
#737 = FACE_OUTER_BOUND ( 'NONE', #135, .T. ) ;
#738 = DIRECTION ( 'NONE',  ( 1.000000000000000000, 0.000000000000000000, 0.000000000000000000 ) ) ;
#739 = ORIENTED_EDGE ( 'NONE', *, *, #623, .F. ) ;
#740 = DIRECTION ( 'NONE',  ( 0.000000000000000000, 0.000000000000000000, -1.000000000000000000 ) ) ;
#741 = ORIENTED_EDGE ( 'NONE', *, *, #430, .F. ) ;
#742 = DIRECTION ( 'NONE',  ( -0.000000000000000000, -0.000000000000000000, 1.000000000000000000 ) ) ;
#743 = CARTESIAN_POINT ( 'NONE',  ( -13.99999999999991651, -13.50000000000006750, 0.000000000000000000 ) ) ;
#744 = FACE_OUTER_BOUND ( 'NONE', #211, .T. ) ;
#745 = EDGE_CURVE ( 'NONE', #444, #438, #514, .T. ) ;
#746 = LINE ( 'NONE', #666, #347 ) ;
#747 = CARTESIAN_POINT ( 'NONE',  ( -6.000000000000000000, 7.347880794884119736E-16, -8.673617379884035472E-16 ) ) ;
#748 = LINE ( 'NONE', #620, #408 ) ;
#749 = VECTOR ( 'NONE', #708, 1000.000000000000000 ) ;
#750 = VECTOR ( 'NONE', #892, 1000.000000000000000 ) ;
#751 = ORIENTED_EDGE ( 'NONE', *, *, #387, .T. ) ;
#752 = CARTESIAN_POINT ( 'NONE',  ( 4.000000000000000000, 0.000000000000000000, -2.000000000000001776 ) ) ;
#753 = EDGE_CURVE ( 'NONE', #466, #849, #649, .T. ) ;
#754 = CARTESIAN_POINT ( 'NONE',  ( -15.99999999999991651, 16.49999999999995737, 5.000000000000003553 ) ) ;
#755 = CARTESIAN_POINT ( 'NONE',  ( -11.25000000000000178, -36.54886114323228696, 8.250000000000001776 ) ) ;
#756 = DIRECTION ( 'NONE',  ( 0.000000000000000000, 0.000000000000000000, 1.000000000000000000 ) ) ;
#757 = VERTEX_POINT ( 'NONE', #158 ) ;
#758 = DIRECTION ( 'NONE',  ( -1.000000000000000000, 0.000000000000000000, -3.854941057726238467E-17 ) ) ;
#759 = DIRECTION ( 'NONE',  ( -0.000000000000000000, -0.000000000000000000, 1.000000000000000000 ) ) ;
#760 = ORIENTED_EDGE ( 'NONE', *, *, #645, .T. ) ;
#761 = ORIENTED_EDGE ( 'NONE', *, *, #513, .F. ) ;
#762 = ORIENTED_EDGE ( 'NONE', *, *, #681, .F. ) ;
#763 = VECTOR ( 'NONE', #191, 1000.000000000000000 ) ;
#764 = VERTEX_POINT ( 'NONE', #450 ) ;
#765 = CIRCLE ( 'NONE', #585, 4.000000000000000000 ) ;
#766 = CIRCLE ( 'NONE', #410, 2.399999999999997691 ) ;
#767 = CYLINDRICAL_SURFACE ( 'NONE', #467, 4.000000000000000000 ) ;
#768 = ORIENTED_EDGE ( 'NONE', *, *, #14, .T. ) ;
#769 = LINE ( 'NONE', #700, #866 ) ;
#770 = ORIENTED_EDGE ( 'NONE', *, *, #568, .T. ) ;
#771 = EDGE_CURVE ( 'NONE', #637, #241, #285, .T. ) ;
#772 = DIRECTION ( 'NONE',  ( 0.000000000000000000, 0.000000000000000000, -1.000000000000000000 ) ) ;
#773 = CARTESIAN_POINT ( 'NONE',  ( 0.000000000000000000, 0.000000000000000000, -25.00000000000000000 ) ) ;
#774 = EDGE_LOOP ( 'NONE', ( #908, #396, #895, #488 ) ) ;
#775 = AXIS2_PLACEMENT_3D ( 'NONE', #169, #460, #554 ) ;
#776 = CIRCLE ( 'NONE', #222, 2.000000000000001776 ) ;
#777 = EDGE_CURVE ( 'NONE', #241, #811, #851, .T. ) ;
#778 = CARTESIAN_POINT ( 'NONE',  ( -9.124999999999998224, -7.500000000000069278, 8.250000000000001776 ) ) ;
#779 = EDGE_LOOP ( 'NONE', ( #252, #63, #348, #559, #563, #51, #699, #147 ) ) ;
#780 = DIRECTION ( 'NONE',  ( 1.000000000000000000, 0.000000000000000000, 0.000000000000000000 ) ) ;
#781 = EDGE_CURVE ( 'NONE', #686, #215, #724, .T. ) ;
#782 = CYLINDRICAL_SURFACE ( 'NONE', #299, 2.000000000000000000 ) ;
#783 = EDGE_LOOP ( 'NONE', ( #84, #883 ) ) ;
#784 = LINE ( 'NONE', #1, #393 ) ;
#785 = DIRECTION ( 'NONE',  ( -2.135044278125304498E-15, 0.000000000000000000, -1.000000000000000000 ) ) ;
#786 = ORIENTED_EDGE ( 'NONE', *, *, #628, .F. ) ;
#787 = DIRECTION ( 'NONE',  ( 0.000000000000000000, -0.000000000000000000, -1.000000000000000000 ) ) ;
#788 = LINE ( 'NONE', #307, #144 ) ;
#789 = VECTOR ( 'NONE', #584, 1000.000000000000000 ) ;
#790 = AXIS2_PLACEMENT_3D ( 'NONE', #362, #367, #646 ) ;
#791 = DIRECTION ( 'NONE',  ( -1.000000000000000000, 0.000000000000000000, 0.000000000000000000 ) ) ;
#792 = PRODUCT ( 'P001-B109_Winding_Plate_Attachment_4', 'P001-B109_Winding_Plate_Attachment_4', '', ( #836 ) ) ;
#793 = ORIENTED_EDGE ( 'NONE', *, *, #476, .T. ) ;
#794 = CARTESIAN_POINT ( 'NONE',  ( -15.99999999999991651, 19.49999999999995381, 0.000000000000000000 ) ) ;
#795 = FACE_OUTER_BOUND ( 'NONE', #324, .T. ) ;
#796 =( GEOMETRIC_REPRESENTATION_CONTEXT ( 3 ) GLOBAL_UNCERTAINTY_ASSIGNED_CONTEXT ( ( #330 ) ) GLOBAL_UNIT_ASSIGNED_CONTEXT ( ( #263, #44, #26 ) ) REPRESENTATION_CONTEXT ( 'NONE', 'WORKASPACE' ) );
#797 = CARTESIAN_POINT ( 'NONE',  ( -9.124999999999998224, -36.54886114323228696, 10.00000000000000178 ) ) ;
#798 = ORIENTED_EDGE ( 'NONE', *, *, #802, .F. ) ;
#799 = DIRECTION ( 'NONE',  ( -0.000000000000000000, 1.000000000000000000, -0.000000000000000000 ) ) ;
#800 = EDGE_CURVE ( 'NONE', #309, #919, #15, .T. ) ;
#801 = CARTESIAN_POINT ( 'NONE',  ( 14.00000000000008349, 19.49999999999995381, 10.00000000000000000 ) ) ;
#802 = EDGE_CURVE ( 'NONE', #215, #511, #593, .T. ) ;
#803 = DIRECTION ( 'NONE',  ( 0.000000000000000000, 0.000000000000000000, 1.000000000000000000 ) ) ;
#804 = ORIENTED_EDGE ( 'NONE', *, *, #816, .F. ) ;
#805 = LINE ( 'NONE', #236, #17 ) ;
#806 = CARTESIAN_POINT ( 'NONE',  ( -4.000000000000000000, 4.898587196589412829E-16, -25.00000000000000000 ) ) ;
#807 = AXIS2_PLACEMENT_3D ( 'NONE', #137, #845, #640 ) ;
#808 = AXIS2_PLACEMENT_3D ( 'NONE', #103, #692, #685 ) ;
#809 = CARTESIAN_POINT ( 'NONE',  ( 16.00000000000008527, 16.49999999999995737, 5.000000000000003553 ) ) ;
#810 = VECTOR ( 'NONE', #824, 1000.000000000000000 ) ;
#811 = VERTEX_POINT ( 'NONE', #92 ) ;
#812 = CARTESIAN_POINT ( 'NONE',  ( -4.000000000000000000, 4.898587196589412829E-16, -23.00000000000000000 ) ) ;
#813 = EDGE_LOOP ( 'NONE', ( #854, #199, #38, #229 ) ) ;
#814 = DIRECTION ( 'NONE',  ( -1.000000000000000000, 0.000000000000000000, 0.000000000000000000 ) ) ;
#815 = DIRECTION ( 'NONE',  ( 1.000000000000000000, 0.000000000000000000, 0.000000000000000000 ) ) ;
#816 = EDGE_CURVE ( 'NONE', #616, #385, #370, .T. ) ;
#817 = EDGE_LOOP ( 'NONE', ( #289, #340, #581, #390, #95, #596, #32, #762 ) ) ;
#818 = ORIENTED_EDGE ( 'NONE', *, *, #213, .F. ) ;
#819 = DIRECTION ( 'NONE',  ( -0.000000000000000000, -0.000000000000000000, -1.000000000000000000 ) ) ;
#820 = ADVANCED_BREP_SHAPE_REPRESENTATION ( 'P001-B109_Winding_Plate_Attachment_4', ( #501, #553 ), #796 ) ;
#821 = CARTESIAN_POINT ( 'NONE',  ( -13.99999999999991651, 21.49999999999995737, 0.000000000000000000 ) ) ;
#822 = DIRECTION ( 'NONE',  ( -1.000000000000000000, 0.000000000000000000, 0.000000000000000000 ) ) ;
#823 = ORIENTED_EDGE ( 'NONE', *, *, #568, .F. ) ;
#824 = DIRECTION ( 'NONE',  ( 0.000000000000000000, 0.000000000000000000, -1.000000000000000000 ) ) ;
#825 = LINE ( 'NONE', #389, #904 ) ;
#826 = ORIENTED_EDGE ( 'NONE', *, *, #372, .F. ) ;
#827 = AXIS2_PLACEMENT_3D ( 'NONE', #848, #134, #711 ) ;
#828 = AXIS2_PLACEMENT_3D ( 'NONE', #801, #77, #72 ) ;
#829 = ORIENTED_EDGE ( 'NONE', *, *, #372, .T. ) ;
#830 = CARTESIAN_POINT ( 'NONE',  ( 0.000000000000000000, 0.000000000000000000, -25.00000000000000000 ) ) ;
#831 = CARTESIAN_POINT ( 'NONE',  ( 11.24999999999999822, 21.49999999999995737, 5.000000000000003553 ) ) ;
#832 = CARTESIAN_POINT ( 'NONE',  ( 11.24999999999999645, 14.09999999999996234, 5.000000000000003553 ) ) ;
#833 = VERTEX_POINT ( 'NONE', #936 ) ;
#834 = EDGE_CURVE ( 'NONE', #59, #678, #888, .T. ) ;
#835 = CARTESIAN_POINT ( 'NONE',  ( 16.00000000000008527, 21.49999999999995737, 0.000000000000000000 ) ) ;
#836 = PRODUCT_CONTEXT ( 'NONE', #876, 'mechanical' ) ;
#837 = ORIENTED_EDGE ( 'NONE', *, *, #734, .F. ) ;
#838 = ORIENTED_EDGE ( 'NONE', *, *, #185, .F. ) ;
#839 = ORIENTED_EDGE ( 'NONE', *, *, #777, .F. ) ;
#840 = CIRCLE ( 'NONE', #886, 4.000000000000000000 ) ;
#841 = CIRCLE ( 'NONE', #867, 2.000000000000000000 ) ;
#842 = CARTESIAN_POINT ( 'NONE',  ( 11.24999999999999822, 21.49999999999995737, 5.000000000000003553 ) ) ;
#843 = ADVANCED_FACE ( 'NONE', ( #877, #4 ), #382, .F. ) ;
#844 = EDGE_LOOP ( 'NONE', ( #313, #79, #157, #535 ) ) ;
#845 = DIRECTION ( 'NONE',  ( 3.854941057726238467E-17, 0.000000000000000000, -1.000000000000000000 ) ) ;
#846 = ORIENTED_EDGE ( 'NONE', *, *, #43, .T. ) ;
#847 = ADVANCED_FACE ( 'NONE', ( #310 ), #654, .F. ) ;
#848 = CARTESIAN_POINT ( 'NONE',  ( 11.24999999999999645, 16.49999999999995737, 5.000000000000003553 ) ) ;
#849 = VERTEX_POINT ( 'NONE', #75 ) ;
#850 = VECTOR ( 'NONE', #815, 1000.000000000000000 ) ;
#851 = CIRCLE ( 'NONE', #703, 2.000000000000000000 ) ;
#852 = AXIS2_PLACEMENT_3D ( 'NONE', #523, #597, #439 ) ;
#853 = FACE_OUTER_BOUND ( 'NONE', #208, .T. ) ;
#854 = ORIENTED_EDGE ( 'NONE', *, *, #245, .F. ) ;
#855 = VECTOR ( 'NONE', #37, 1000.000000000000000 ) ;
#856 = ADVANCED_FACE ( 'NONE', ( #589 ), #230, .T. ) ;
#857 = DIRECTION ( 'NONE',  ( -0.000000000000000000, -0.000000000000000000, 1.000000000000000000 ) ) ;
#858 = EDGE_LOOP ( 'NONE', ( #119, #106, #167, #741 ) ) ;
#859 = CARTESIAN_POINT ( 'NONE',  ( -9.124999999999998224, 21.49999999999995737, 8.250000000000001776 ) ) ;
#860 = CARTESIAN_POINT ( 'NONE',  ( -15.99999999999991651, 16.49999999999995737, 2.600000000000005862 ) ) ;
#861 = CARTESIAN_POINT ( 'NONE',  ( 11.24999999999999822, -36.54886114323228696, 5.000000000000003553 ) ) ;
#862 = ORIENTED_EDGE ( 'NONE', *, *, #588, .T. ) ;
#863 = CARTESIAN_POINT ( 'NONE',  ( -15.99999999999991651, 21.49999999999995737, 0.000000000000000000 ) ) ;
#864 = CLOSED_SHELL ( 'NONE', ( #22, #463, #67, #266, #65, #489, #663, #28, #843, #141, #323, #885, #41, #617, #231, #847, #441, #909, #361, #121, #856, #713, #162, #570, #253, #133, #502, #198 ) ) ;
#865 = DIRECTION ( 'NONE',  ( 0.000000000000000000, 0.000000000000000000, -1.000000000000000000 ) ) ;
#866 = VECTOR ( 'NONE', #709, 1000.000000000000000 ) ;
#867 = AXIS2_PLACEMENT_3D ( 'NONE', #896, #742, #238 ) ;
#868 = PLANE ( 'NONE',  #143 ) ;
#869 = ORIENTED_EDGE ( 'NONE', *, *, #485, .F. ) ;
#870 = EDGE_CURVE ( 'NONE', #309, #560, #805, .T. ) ;
#871 = CARTESIAN_POINT ( 'NONE',  ( 2.000000000000000000, 2.449293598294706414E-16, -23.00000000000000000 ) ) ;
#872 = PRODUCT_DEFINITION ( 'UNKNOWN', '', #721, #154 ) ;
#873 = LINE ( 'NONE', #806, #197 ) ;
#874 = CARTESIAN_POINT ( 'NONE',  ( 9.125000000000001776, -7.500000000000069278, 8.250000000000000000 ) ) ;
#875 = VERTEX_POINT ( 'NONE', #812 ) ;
#876 = APPLICATION_CONTEXT ( 'automotive_design' ) ;
#877 = FACE_BOUND ( 'NONE', #412, .T. ) ;
#878 = SURFACE_STYLE_USAGE ( .BOTH. , #442 ) ;
#879 = PRODUCT_DEFINITION_SHAPE ( 'NONE', 'NONE',  #872 ) ;
#880 = FACE_OUTER_BOUND ( 'NONE', #481, .T. ) ;
#881 = VERTEX_POINT ( 'NONE', #166 ) ;
#882 = DIRECTION ( 'NONE',  ( 1.000000000000000000, -0.000000000000000000, -0.000000000000000000 ) ) ;
#883 = ORIENTED_EDGE ( 'NONE', *, *, #645, .F. ) ;
#884 = FACE_OUTER_BOUND ( 'NONE', #817, .T. ) ;
#885 = ADVANCED_FACE ( 'NONE', ( #80 ), #96, .F. ) ;
#886 = AXIS2_PLACEMENT_3D ( 'NONE', #346, #633, #925 ) ;
#887 = CARTESIAN_POINT ( 'NONE',  ( -9.124999999999998224, -36.54886114323228696, 8.250000000000001776 ) ) ;
#888 = CIRCLE ( 'NONE', #483, 2.399999999999997691 ) ;
#889 = EDGE_LOOP ( 'NONE', ( #25, #899 ) ) ;
#890 = CARTESIAN_POINT ( 'NONE',  ( 0.000000000000000000, 0.000000000000000000, -2.000000000000001776 ) ) ;
#891 = ORIENTED_EDGE ( 'NONE', *, *, #475, .F. ) ;
#892 = DIRECTION ( 'NONE',  ( -0.000000000000000000, 1.000000000000000000, -0.000000000000000000 ) ) ;
#893 = LINE ( 'NONE', #887, #29 ) ;
#894 = ORIENTED_EDGE ( 'NONE', *, *, #485, .T. ) ;
#895 = ORIENTED_EDGE ( 'NONE', *, *, #800, .F. ) ;
#896 = CARTESIAN_POINT ( 'NONE',  ( -13.99999999999991651, 19.49999999999995381, 10.00000000000000000 ) ) ;
#897 = DIRECTION ( 'NONE',  ( 1.000000000000000000, 0.000000000000000000, -0.000000000000000000 ) ) ;
#898 = VERTEX_POINT ( 'NONE', #688 ) ;
#899 = ORIENTED_EDGE ( 'NONE', *, *, #628, .T. ) ;
#900 = DIRECTION ( 'NONE',  ( -1.000000000000000000, -0.000000000000000000, -0.000000000000000000 ) ) ;
#901 = DIRECTION ( 'NONE',  ( -1.000000000000000000, 0.000000000000000000, 8.163404592832019174E-16 ) ) ;
#902 = AXIS2_PLACEMENT_3D ( 'NONE', #228, #19, #453 ) ;
#903 = DIRECTION ( 'NONE',  ( 0.000000000000000000, 0.000000000000000000, -1.000000000000000000 ) ) ;
#904 = VECTOR ( 'NONE', #30, 1000.000000000000000 ) ;
#905 = LINE ( 'NONE', #111, #855 ) ;
#906 = AXIS2_PLACEMENT_3D ( 'NONE', #674, #474, #608 ) ;
#907 = EDGE_CURVE ( 'NONE', #337, #757, #538, .T. ) ;
#908 = ORIENTED_EDGE ( 'NONE', *, *, #164, .T. ) ;
#909 = ADVANCED_FACE ( 'NONE', ( #669 ), #50, .F. ) ;
#910 = VECTOR ( 'NONE', #672, 1000.000000000000000 ) ;
#911 = CARTESIAN_POINT ( 'NONE',  ( 14.00000000000008171, -13.50000000000006750, 10.00000000000000000 ) ) ;
#912 = LINE ( 'NONE', #262, #763 ) ;
#913 = ORIENTED_EDGE ( 'NONE', *, *, #533, .T. ) ;
#914 = DIRECTION ( 'NONE',  ( 1.000000000000000000, 0.000000000000000000, 0.000000000000000000 ) ) ;
#915 = ORIENTED_EDGE ( 'NONE', *, *, #802, .T. ) ;
#916 = EDGE_CURVE ( 'NONE', #764, #694, #498, .T. ) ;
#917 = CARTESIAN_POINT ( 'NONE',  ( -15.99999999999991651, 21.49999999999995737, 0.000000000000000000 ) ) ;
#918 = PLANE ( 'NONE',  #207 ) ;
#919 = VERTEX_POINT ( 'NONE', #247 ) ;
#920 = VECTOR ( 'NONE', #609, 1000.000000000000000 ) ;
#921 = VECTOR ( 'NONE', #128, 1000.000000000000000 ) ;
#922 = LINE ( 'NONE', #275, #160 ) ;
#923 = EDGE_CURVE ( 'NONE', #45, #259, #905, .T. ) ;
#924 = ORIENTED_EDGE ( 'NONE', *, *, #286, .F. ) ;
#925 = DIRECTION ( 'NONE',  ( -1.000000000000000000, 0.000000000000000000, 0.000000000000000000 ) ) ;
#926 = ORIENTED_EDGE ( 'NONE', *, *, #519, .T. ) ;
#927 = CARTESIAN_POINT ( 'NONE',  ( 11.24999999999999822, -36.54886114323228696, 5.000000000000003553 ) ) ;
#928 = DIRECTION ( 'NONE',  ( -0.000000000000000000, -0.000000000000000000, 1.000000000000000000 ) ) ;
#929 = VERTEX_POINT ( 'NONE', #832 ) ;
#930 = EDGE_CURVE ( 'NONE', #438, #351, #457, .T. ) ;
#931 = CIRCLE ( 'NONE', #102, 4.000000000000000000 ) ;
#932 = AXIS2_PLACEMENT_3D ( 'NONE', #98, #398, #613 ) ;
#933 = CARTESIAN_POINT ( 'NONE',  ( -15.99999999999991651, -11.50000000000006573, 0.000000000000000000 ) ) ;
#934 = CYLINDRICAL_SURFACE ( 'NONE', #358, 4.000000000000000000 ) ;
#935 = ORIENTED_EDGE ( 'NONE', *, *, #930, .T. ) ;
#936 = CARTESIAN_POINT ( 'NONE',  ( 16.00000000000008527, 19.49999999999995381, 10.00000000000000000 ) ) ;
ENDSEC;
END-ISO-10303-21;
