ISO-10303-21;
HEADER;
FILE_DESCRIPTION (( 'STEP AP214' ),
    '1' );
FILE_NAME ('P001-B121_CrankHandle-1.STEP',
    '2026-04-25T01:18:59',
    ( '' ),
    ( '' ),
    'SwSTEP 2.0',
    'SolidWorks 2024',
    '' );
FILE_SCHEMA (( 'AUTOMOTIVE_DESIGN' ));
ENDSEC;

DATA;
#1 = CIRCLE ( 'NONE', #619, 2.000000000000000000 ) ;
#2 = EDGE_CURVE ( 'NONE', #218, #959, #81, .T. ) ;
#3 = VECTOR ( 'NONE', #330, 1000.000000000000000 ) ;
#4 =( LENGTH_UNIT ( ) NAMED_UNIT ( * ) SI_UNIT ( .MILLI., .METRE. ) );
#5 = LINE ( 'NONE', #608, #385 ) ;
#6 = ADVANCED_FACE ( 'NONE', ( #537 ), #993, .T. ) ;
#7 = FACE_OUTER_BOUND ( 'NONE', #17, .T. ) ;
#8 = FACE_OUTER_BOUND ( 'NONE', #649, .T. ) ;
#9 = DIRECTION ( 'NONE',  ( 1.000000000000000000, 0.000000000000000000, 0.000000000000000000 ) ) ;
#10 = ORIENTED_EDGE ( 'NONE', *, *, #976, .F. ) ;
#11 = CARTESIAN_POINT ( 'NONE',  ( 5.000000000000000888, 3.000000000000000000, 12.00000000000000000 ) ) ;
#12 = CARTESIAN_POINT ( 'NONE',  ( -45.00000000000000000, -1.662997694811398253, 12.00000000000000355 ) ) ;
#13 = EDGE_LOOP ( 'NONE', ( #566, #320, #792, #939 ) ) ;
#14 = ORIENTED_EDGE ( 'NONE', *, *, #450, .F. ) ;
#15 = LINE ( 'NONE', #534, #417 ) ;
#16 = ORIENTED_EDGE ( 'NONE', *, *, #974, .T. ) ;
#17 = EDGE_LOOP ( 'NONE', ( #887, #232, #410, #63, #820, #380 ) ) ;
#18 = FACE_OUTER_BOUND ( 'NONE', #64, .T. ) ;
#19 = ORIENTED_EDGE ( 'NONE', *, *, #704, .T. ) ;
#20 = VERTEX_POINT ( 'NONE', #610 ) ;
#21 = ORIENTED_EDGE ( 'NONE', *, *, #343, .F. ) ;
#22 = EDGE_LOOP ( 'NONE', ( #783, #693, #214, #940, #901, #274 ) ) ;
#23 = ADVANCED_FACE ( 'NONE', ( #8 ), #838, .T. ) ;
#24 = DIRECTION ( 'NONE',  ( 0.000000000000000000, 0.000000000000000000, -1.000000000000000000 ) ) ;
#25 = CARTESIAN_POINT ( 'NONE',  ( -2.999999999999999112, 3.000000000000000000, 0.000000000000000000 ) ) ;
#26 = VERTEX_POINT ( 'NONE', #852 ) ;
#27 = CIRCLE ( 'NONE', #240, 3.000000000000002665 ) ;
#28 = CARTESIAN_POINT ( 'NONE',  ( -37.50311420624570502, 2.428612866367529932E-15, 64.00000000000000000 ) ) ;
#29 = AXIS2_PLACEMENT_3D ( 'NONE', #48, #54, #438 ) ;
#30 = EDGE_CURVE ( 'NONE', #161, #701, #269, .T. ) ;
#31 = CARTESIAN_POINT ( 'NONE',  ( -45.00000000000000000, -3.122502256758252376E-15, 12.00000000000000355 ) ) ;
#32 = CARTESIAN_POINT ( 'NONE',  ( -43.00000000000000000, 3.000000000000000000, 12.00000000000000000 ) ) ;
#33 = ORIENTED_EDGE ( 'NONE', *, *, #163, .F. ) ;
#34 = CARTESIAN_POINT ( 'NONE',  ( -40.50311420624570502, 2.428612866367529932E-15, 64.00000000000000000 ) ) ;
#35 = DIRECTION ( 'NONE',  ( 1.880790961315658042E-31, -8.673617379884034486E-16, -1.000000000000000000 ) ) ;
#36 = CARTESIAN_POINT ( 'NONE',  ( -43.00000000000000000, 3.000000000000000000, 12.00000000000000000 ) ) ;
#37 = ORIENTED_EDGE ( 'NONE', *, *, #580, .T. ) ;
#38 = CARTESIAN_POINT ( 'NONE',  ( -45.00000000000000000, 2.999999999999999556, 12.00000000000000178 ) ) ;
#39 = EDGE_CURVE ( 'NONE', #138, #926, #217, .T. ) ;
#40 = AXIS2_PLACEMENT_3D ( 'NONE', #623, #84, #9 ) ;
#41 = CIRCLE ( 'NONE', #808, 2.000000000000001776 ) ;
#42 = DIRECTION ( 'NONE',  ( 1.734723475976806848E-16, -1.000000000000000000, 1.734723475976806848E-16 ) ) ;
#43 = PLANE ( 'NONE',  #972 ) ;
#44 = CARTESIAN_POINT ( 'NONE',  ( -4.999999999999999112, 3.000000000000000000, 10.00000000000000000 ) ) ;
#45 = CARTESIAN_POINT ( 'NONE',  ( -43.25470878718071077, 1.232303098864926172, 13.99999999765978664 ) ) ;
#46 = VERTEX_POINT ( 'NONE', #306 ) ;
#47 = EDGE_LOOP ( 'NONE', ( #544, #613, #462, #843 ) ) ;
#48 = CARTESIAN_POINT ( 'NONE',  ( -43.00000000000000000, 1.662997694811400917, 12.00000000000000178 ) ) ;
#49 = ORIENTED_EDGE ( 'NONE', *, *, #30, .F. ) ;
#50 = CARTESIAN_POINT ( 'NONE',  ( -43.00000000000000000, 3.000000000000000444, 14.00000000000000000 ) ) ;
#51 = FACE_BOUND ( 'NONE', #47, .T. ) ;
#52 = EDGE_LOOP ( 'NONE', ( #349, #629, #220, #266, #278, #103 ) ) ;
#53 = EDGE_CURVE ( 'NONE', #789, #926, #5, .T. ) ;
#54 = DIRECTION ( 'NONE',  ( 2.168404344971006649E-16, -1.000000000000000000, 2.168404344971008621E-16 ) ) ;
#55 = CARTESIAN_POINT ( 'NONE',  ( -4.999999999999998224, -4.171572875253810153, 10.00000000000000533 ) ) ;
#56 = CYLINDRICAL_SURFACE ( 'NONE', #911, 2.000000000000000000 ) ;
#57 = ORIENTED_EDGE ( 'NONE', *, *, #373, .F. ) ;
#58 = AXIS2_PLACEMENT_3D ( 'NONE', #408, #712, #165 ) ;
#59 = CARTESIAN_POINT ( 'NONE',  ( 5.000000000000000888, 5.000000000000000000, 12.00000000000000000 ) ) ;
#60 = DIRECTION ( 'NONE',  ( 1.000000000000000000, 0.000000000000000000, 0.000000000000000000 ) ) ;
#61 = DIRECTION ( 'NONE',  ( 0.000000000000000000, -1.000000000000000000, 0.000000000000000000 ) ) ;
#62 = EDGE_LOOP ( 'NONE', ( #811 ) ) ;
#63 = ORIENTED_EDGE ( 'NONE', *, *, #713, .F. ) ;
#64 = EDGE_LOOP ( 'NONE', ( #196, #764, #919, #496 ) ) ;
#65 = CARTESIAN_POINT ( 'NONE',  ( -4.999999999999999112, 3.000000000000000000, 12.00000000000000000 ) ) ;
#66 = DIRECTION ( 'NONE',  ( 0.000000000000000000, -0.000000000000000000, -1.000000000000000000 ) ) ;
#67 = CARTESIAN_POINT ( 'NONE',  ( -43.00000000000000000, -5.000000000000000000, 12.00000000000000178 ) ) ;
#68 = CARTESIAN_POINT ( 'NONE',  ( -45.00000000000000711, 1.108524619570020686, 12.01780518064108172 ) ) ;
#69 = ORIENTED_EDGE ( 'NONE', *, *, #733, .F. ) ;
#70 = LINE ( 'NONE', #735, #512 ) ;
#71 = EDGE_LOOP ( 'NONE', ( #670, #806, #533, #722 ) ) ;
#72 = ADVANCED_FACE ( 'NONE', ( #146 ), #604, .T. ) ;
#73 = EDGE_LOOP ( 'NONE', ( #946, #900, #422, #369 ) ) ;
#74 = MECHANICAL_DESIGN_GEOMETRIC_PRESENTATION_REPRESENTATION (  '', ( #942 ), #228 ) ;
#75 = VECTOR ( 'NONE', #828, 1000.000000000000000 ) ;
#76 = VECTOR ( 'NONE', #754, 1000.000000000000000 ) ;
#77 = ORIENTED_EDGE ( 'NONE', *, *, #237, .T. ) ;
#78 = ORIENTED_EDGE ( 'NONE', *, *, #779, .T. ) ;
#79 = CIRCLE ( 'NONE', #639, 2.000000000000000000 ) ;
#80 = CARTESIAN_POINT ( 'NONE',  ( 5.000000000000000888, 5.000000000000000000, 12.00000000000000000 ) ) ;
#81 = LINE ( 'NONE', #524, #472 ) ;
#82 = EDGE_CURVE ( 'NONE', #479, #929, #204, .T. ) ;
#83 = ADVANCED_FACE ( 'NONE', ( #213 ), #142, .T. ) ;
#84 = DIRECTION ( 'NONE',  ( 0.000000000000000000, -0.000000000000000000, -1.000000000000000000 ) ) ;
#85 = ORIENTED_EDGE ( 'NONE', *, *, #809, .F. ) ;
#86 = DIRECTION ( 'NONE',  ( -0.000000000000000000, -0.000000000000000000, -1.000000000000000000 ) ) ;
#87 = VERTEX_POINT ( 'NONE', #28 ) ;
#88 = DIRECTION ( 'NONE',  ( -1.000000000000000000, 0.000000000000000000, 0.000000000000000000 ) ) ;
#89 = AXIS2_PLACEMENT_3D ( 'NONE', #885, #583, #437 ) ;
#90 = CIRCLE ( 'NONE', #172, 2.000000000000000000 ) ;
#91 = ADVANCED_FACE ( 'NONE', ( #741 ), #819, .F. ) ;
#92 = SPHERICAL_SURFACE ( 'NONE', #221, 2.000000000000000000 ) ;
#93 = VECTOR ( 'NONE', #321, 1000.000000000000000 ) ;
#94 = ORIENTED_EDGE ( 'NONE', *, *, #801, .T. ) ;
#95 = FACE_OUTER_BOUND ( 'NONE', #244, .T. ) ;
#96 = DIRECTION ( 'NONE',  ( 1.000000000000000000, 0.000000000000000000, 0.000000000000000000 ) ) ;
#97 = ORIENTED_EDGE ( 'NONE', *, *, #400, .T. ) ;
#98 = CARTESIAN_POINT ( 'NONE',  ( 5.000000000000001776, -3.000000000000000000, 12.00000000000000178 ) ) ;
#99 = ADVANCED_FACE ( 'NONE', ( #51, #199 ), #277, .F. ) ;
#100 = ORIENTED_EDGE ( 'NONE', *, *, #314, .F. ) ;
#101 = DIRECTION ( 'NONE',  ( 0.000000000000000000, -1.000000000000000000, 1.734723475976806848E-16 ) ) ;
#102 = AXIS2_PLACEMENT_3D ( 'NONE', #769, #302, #88 ) ;
#103 = ORIENTED_EDGE ( 'NONE', *, *, #987, .T. ) ;
#104 = VECTOR ( 'NONE', #207, 1000.000000000000000 ) ;
#105 = FACE_OUTER_BOUND ( 'NONE', #73, .T. ) ;
#106 = AXIS2_PLACEMENT_3D ( 'NONE', #139, #902, #812 ) ;
#107 = PLANE ( 'NONE',  #58 ) ;
#108 = FACE_OUTER_BOUND ( 'NONE', #963, .T. ) ;
#109 = PLANE ( 'NONE',  #551 ) ;
#110 = FACE_OUTER_BOUND ( 'NONE', #849, .T. ) ;
#111 = EDGE_CURVE ( 'NONE', #929, #479, #721, .T. ) ;
#112 = ORIENTED_EDGE ( 'NONE', *, *, #431, .T. ) ;
#113 = LINE ( 'NONE', #403, #401 ) ;
#114 = FACE_OUTER_BOUND ( 'NONE', #924, .T. ) ;
#115 = DIRECTION ( 'NONE',  ( 0.000000000000000000, 0.000000000000000000, 1.000000000000000000 ) ) ;
#116 = COLOUR_RGB ( '',0.7921568627450980005, 0.8196078431372548767, 0.9333333333333333481 ) ;
#117 = DIRECTION ( 'NONE',  ( 0.000000000000000000, 0.000000000000000000, -1.000000000000000000 ) ) ;
#118 = CARTESIAN_POINT ( 'NONE',  ( -45.00000000000000000, -1.108637773211738287, 12.01779891087938879 ) ) ;
#119 = CARTESIAN_POINT ( 'NONE',  ( 15.77032961426901103, 5.000000000000003553, 10.00000000000000000 ) ) ;
#120 = CARTESIAN_POINT ( 'NONE',  ( -4.171572875253807489, 4.999999999999999112, 10.82842712474618807 ) ) ;
#121 = CARTESIAN_POINT ( 'NONE',  ( -43.00000000000056843, -1.662997694810540494, 13.99999999999999822 ) ) ;
#122 = ORIENTED_EDGE ( 'NONE', *, *, #393, .T. ) ;
#123 = FACE_OUTER_BOUND ( 'NONE', #751, .T. ) ;
#124 = CARTESIAN_POINT ( 'NONE',  ( -2.599999999999999645, -2.599999999999999201, 8.000000000000000000 ) ) ;
#125 = CARTESIAN_POINT ( 'NONE',  ( -4.999999999999999112, 2.999999999999999556, 10.00000000000000000 ) ) ;
#126 = DIRECTION ( 'NONE',  ( 1.000000000000000000, 0.000000000000000000, 0.000000000000000000 ) ) ;
#127 = ADVANCED_FACE ( 'NONE', ( #731 ), #337, .T. ) ;
#128 = FACE_OUTER_BOUND ( 'NONE', #333, .T. ) ;
#129 = DIRECTION ( 'NONE',  ( 0.000000000000000000, 2.168404344971008868E-16, 1.000000000000000000 ) ) ;
#130 = CARTESIAN_POINT ( 'NONE',  ( 3.000000000000000888, 5.000000000000000000, 12.00000000000000000 ) ) ;
#131 = CARTESIAN_POINT ( 'NONE',  ( -2.599999999999999201, 2.600000000000000533, 8.000000000000000000 ) ) ;
#132 = AXIS2_PLACEMENT_3D ( 'NONE', #258, #570, #115 ) ;
#133 = EDGE_CURVE ( 'NONE', #87, #87, #170, .T. ) ;
#134 = DIRECTION ( 'NONE',  ( 1.000000000000000000, -0.000000000000000000, 1.880790961315659739E-32 ) ) ;
#135 = CARTESIAN_POINT ( 'NONE',  ( -2.999999999999999112, 5.000000000000000000, 12.00000000000000000 ) ) ;
#136 = DIRECTION ( 'NONE',  ( 0.000000000000000000, 0.000000000000000000, -1.000000000000000000 ) ) ;
#137 = LINE ( 'NONE', #983, #790 ) ;
#138 = VERTEX_POINT ( 'NONE', #674 ) ;
#139 = CARTESIAN_POINT ( 'NONE',  ( -40.50311420624570502, 2.428612866367529932E-15, 64.00000000000000000 ) ) ;
#140 = LINE ( 'NONE', #912, #943 ) ;
#141 = CARTESIAN_POINT ( 'NONE',  ( -43.00000000000000000, -1.662997694811397587, 14.00000000000000178 ) ) ;
#142 = CYLINDRICAL_SURFACE ( 'NONE', #785, 2.000000000000000000 ) ;
#143 = ORIENTED_EDGE ( 'NONE', *, *, #446, .T. ) ;
#144 = ADVANCED_FACE ( 'NONE', ( #662 ), #404, .T. ) ;
#145 = LINE ( 'NONE', #529, #861 ) ;
#146 = FACE_OUTER_BOUND ( 'NONE', #766, .T. ) ;
#147 = ORIENTED_EDGE ( 'NONE', *, *, #890, .F. ) ;
#148 = CARTESIAN_POINT ( 'NONE',  ( 2.600000000000000533, 2.600000000000000533, 0.000000000000000000 ) ) ;
#149 = CARTESIAN_POINT ( 'NONE',  ( -45.00000000000000000, 1.662997694811400473, 12.00000000000000355 ) ) ;
#150 = FACE_OUTER_BOUND ( 'NONE', #219, .T. ) ;
#151 = DIRECTION ( 'NONE',  ( 8.673617379884035472E-17, -1.000000000000000000, 0.000000000000000000 ) ) ;
#152 = VERTEX_POINT ( 'NONE', #425 ) ;
#153 = ORIENTED_EDGE ( 'NONE', *, *, #2, .T. ) ;
#154 = LINE ( 'NONE', #389, #75 ) ;
#155 = AXIS2_PLACEMENT_3D ( 'NONE', #622, #300, #762 ) ;
#156 = EDGE_CURVE ( 'NONE', #218, #265, #205, .T. ) ;
#157 = VECTOR ( 'NONE', #347, 1000.000000000000000 ) ;
#158 = VECTOR ( 'NONE', #807, 1000.000000000000000 ) ;
#159 = CARTESIAN_POINT ( 'NONE',  ( 3.000000000000000888, 3.000000000000000000, 12.00000000000000000 ) ) ;
#160 = PRODUCT_RELATED_PRODUCT_CATEGORY ( 'part', '', ( #842 ) ) ;
#161 = VERTEX_POINT ( 'NONE', #67 ) ;
#162 = CARTESIAN_POINT ( 'NONE',  ( -43.00000000000000000, 3.000000000000000000, 12.00000000000000000 ) ) ;
#163 = EDGE_CURVE ( 'NONE', #589, #287, #561, .T. ) ;
#164 = CARTESIAN_POINT ( 'NONE',  ( 0.000000000000000000, 0.000000000000000000, 0.000000000000000000 ) ) ;
#165 = DIRECTION ( 'NONE',  ( 0.000000000000000000, -0.000000000000000000, 1.000000000000000000 ) ) ;
#166 = CYLINDRICAL_SURFACE ( 'NONE', #180, 2.000000000000000000 ) ;
#167 = PRODUCT_CONTEXT ( 'NONE', #874, 'mechanical' ) ;
#168 = AXIS2_PLACEMENT_3D ( 'NONE', #824, #667, #591 ) ;
#169 = DIRECTION ( 'NONE',  ( 1.734723475976806848E-16, -1.000000000000000000, 1.734723475976806848E-16 ) ) ;
#170 = CIRCLE ( 'NONE', #738, 3.000000000000002665 ) ;
#171 = ORIENTED_EDGE ( 'NONE', *, *, #801, .F. ) ;
#172 = AXIS2_PLACEMENT_3D ( 'NONE', #928, #982, #375 ) ;
#173 = DIRECTION ( 'NONE',  ( 1.000000000000000000, 0.000000000000000000, 0.000000000000000000 ) ) ;
#174 = ADVANCED_FACE ( 'NONE', ( #396 ), #860, .F. ) ;
#175 = EDGE_CURVE ( 'NONE', #742, #700, #541, .T. ) ;
#176 = ORIENTED_EDGE ( 'NONE', *, *, #467, .T. ) ;
#177 = CIRCLE ( 'NONE', #743, 2.000000000000000000 ) ;
#178 = ORIENTED_EDGE ( 'NONE', *, *, #473, .F. ) ;
#179 = CARTESIAN_POINT ( 'NONE',  ( -43.00000000000000000, 2.999999999999999556, 10.00000000000000000 ) ) ;
#180 = AXIS2_PLACEMENT_3D ( 'NONE', #655, #186, #406 ) ;
#181 = CARTESIAN_POINT ( 'NONE',  ( -45.00000000000000000, 0.2772651294125127452, 12.06431223107896855 ) ) ;
#182 = FACE_OUTER_BOUND ( 'NONE', #538, .T. ) ;
#183 = CARTESIAN_POINT ( 'NONE',  ( -45.00000000000000000, -0.5542547691480721461, 12.05061583631167288 ) ) ;
#184 = CARTESIAN_POINT ( 'NONE',  ( 3.000000000000000888, 5.000000000000000000, 0.000000000000000000 ) ) ;
#185 = ADVANCED_FACE ( 'NONE', ( #95 ), #778, .T. ) ;
#186 = DIRECTION ( 'NONE',  ( -1.734723475976806848E-16, 1.000000000000000000, -1.734723475976806848E-16 ) ) ;
#187 = AXIS2_PLACEMENT_3D ( 'NONE', #130, #966, #264 ) ;
#188 = VECTOR ( 'NONE', #572, 1000.000000000000000 ) ;
#189 = CARTESIAN_POINT ( 'NONE',  ( -45.00000000000000000, -1.662997694810162574, 11.99999999999999822 ) ) ;
#190 = VERTEX_POINT ( 'NONE', #468 ) ;
#191 = DIRECTION ( 'NONE',  ( 1.000000000000000000, -0.000000000000000000, 1.880790961315659739E-32 ) ) ;
#192 = FACE_OUTER_BOUND ( 'NONE', #298, .T. ) ;
#193 = EDGE_CURVE ( 'NONE', #908, #789, #233, .T. ) ;
#194 = CARTESIAN_POINT ( 'NONE',  ( -45.00000000000000000, -0.2770674267573319804, 12.06431793515795192 ) ) ;
#195 = APPLICATION_CONTEXT ( 'automotive_design' ) ;
#196 = ORIENTED_EDGE ( 'NONE', *, *, #760, .F. ) ;
#197 = CARTESIAN_POINT ( 'NONE',  ( 2.600000000000000533, 2.600000000000000533, 8.000000000000000000 ) ) ;
#198 = CARTESIAN_POINT ( 'NONE',  ( 3.000000000000000888, 3.000000000000000000, 12.00000000000000000 ) ) ;
#199 = FACE_OUTER_BOUND ( 'NONE', #599, .T. ) ;
#200 = ORIENTED_EDGE ( 'NONE', *, *, #944, .T. ) ;
#201 = VERTEX_POINT ( 'NONE', #603 ) ;
#202 = DIRECTION ( 'NONE',  ( 0.000000000000000000, -2.168404344971008868E-16, -1.000000000000000000 ) ) ;
#203 = CARTESIAN_POINT ( 'NONE',  ( -2.999999999999995559, -5.000000000000000000, 12.00000000000000178 ) ) ;
#204 = B_SPLINE_CURVE_WITH_KNOTS ( 'NONE', 3,
 ( #12, #857, #442, #225, #750, #833, #531, #68, #916, #845 ),
 .UNSPECIFIED., .F., .F.,
 ( 4, 2, 2, 2, 4 ),
 ( 0.000000000000000000, 0.0008321204484523235566, 0.001664240896904647113, 0.002496361345356970778, 0.003328481793809293359 ),
 .UNSPECIFIED. ) ;
#205 = CIRCLE ( 'NONE', #873, 2.000000000000000000 ) ;
#206 = AXIS2_PLACEMENT_3D ( 'NONE', #367, #694, #915 ) ;
#207 = DIRECTION ( 'NONE',  ( 1.000000000000000000, -0.000000000000000000, 1.880790961315659739E-32 ) ) ;
#208 = CARTESIAN_POINT ( 'NONE',  ( 15.77032961426901103, -3.000000000000000000, 12.00000000000000178 ) ) ;
#209 = ORIENTED_EDGE ( 'NONE', *, *, #163, .T. ) ;
#210 = CARTESIAN_POINT ( 'NONE',  ( -43.00000000000000000, -2.775557561562890957E-15, 12.00000000000000178 ) ) ;
#211 = CARTESIAN_POINT ( 'NONE',  ( -45.00000000000000000, -5.000000000000000000, 12.00000000000000178 ) ) ;
#212 = LINE ( 'NONE', #382, #805 ) ;
#213 = FACE_OUTER_BOUND ( 'NONE', #22, .T. ) ;
#214 = ORIENTED_EDGE ( 'NONE', *, *, #779, .F. ) ;
#215 = FACE_OUTER_BOUND ( 'NONE', #637, .T. ) ;
#216 = FILL_AREA_STYLE ('',( #607 ) ) ;
#217 = LINE ( 'NONE', #696, #821 ) ;
#218 = VERTEX_POINT ( 'NONE', #905 ) ;
#219 = EDGE_LOOP ( 'NONE', ( #797, #279, #595, #732 ) ) ;
#220 = ORIENTED_EDGE ( 'NONE', *, *, #230, .F. ) ;
#221 = AXIS2_PLACEMENT_3D ( 'NONE', #934, #317, #780 ) ;
#222 = ADVANCED_FACE ( 'NONE', ( #150 ), #550, .F. ) ;
#223 =( BOUNDED_CURVE ( )  B_SPLINE_CURVE ( 3, ( #889, #55, #521, #203 ),
 .UNSPECIFIED., .F., .F. ) 
 B_SPLINE_CURVE_WITH_KNOTS ( ( 4, 4 ),
 ( 0.000000000000000000, 1.570796326794897668 ),
 .UNSPECIFIED. ) 
 CURVE ( )  GEOMETRIC_REPRESENTATION_ITEM ( )  RATIONAL_B_SPLINE_CURVE ( ( 1.000000000000000000, 0.8047378541243646044, 0.8047378541243646044, 1.000000000000000000 ) ) 
 REPRESENTATION_ITEM ( '' )  );
#224 = DIRECTION ( 'NONE',  ( -1.000000000000000000, 0.000000000000000000, -1.880790961315659739E-32 ) ) ;
#225 = CARTESIAN_POINT ( 'NONE',  ( -45.00000000000000711, -0.5546310240614515941, 12.05059399195648773 ) ) ;
#226 = AXIS2_PLACEMENT_3D ( 'NONE', #837, #61, #66 ) ;
#227 = AXIS2_PLACEMENT_3D ( 'NONE', #557, #869, #474 ) ;
#228 =( GEOMETRIC_REPRESENTATION_CONTEXT ( 3 ) GLOBAL_UNCERTAINTY_ASSIGNED_CONTEXT ( ( #586 ) ) GLOBAL_UNIT_ASSIGNED_CONTEXT ( ( #4, #358, #469 ) ) REPRESENTATION_CONTEXT ( 'NONE', 'WORKASPACE' ) );
#229 = CARTESIAN_POINT ( 'NONE',  ( -4.999999999999999112, 5.000000000000000000, 0.000000000000000000 ) ) ;
#230 = EDGE_CURVE ( 'NONE', #26, #914, #630, .T. ) ;
#231 = DIRECTION ( 'NONE',  ( 1.000000000000000000, 0.000000000000000000, 0.000000000000000000 ) ) ;
#232 = ORIENTED_EDGE ( 'NONE', *, *, #763, .T. ) ;
#233 = LINE ( 'NONE', #229, #290 ) ;
#234 = SHAPE_DEFINITION_REPRESENTATION ( #847, #703 ) ;
#235 = DIRECTION ( 'NONE',  ( 0.000000000000000000, 1.000000000000000000, 0.000000000000000000 ) ) ;
#236 = DIRECTION ( 'NONE',  ( -0.000000000000000000, -0.000000000000000000, 1.000000000000000000 ) ) ;
#237 = EDGE_CURVE ( 'NONE', #914, #218, #15, .T. ) ;
#238 = CARTESIAN_POINT ( 'NONE',  ( -2.599999999999999201, 2.600000000000000533, 0.000000000000000000 ) ) ;
#239 = CIRCLE ( 'NONE', #562, 2.000000000000000000 ) ;
#240 = AXIS2_PLACEMENT_3D ( 'NONE', #682, #918, #60 ) ;
#241 = VERTEX_POINT ( 'NONE', #384 ) ;
#242 =( GEOMETRIC_REPRESENTATION_CONTEXT ( 3 ) GLOBAL_UNCERTAINTY_ASSIGNED_CONTEXT ( ( #690 ) ) GLOBAL_UNIT_ASSIGNED_CONTEXT ( ( #781, #707, #768 ) ) REPRESENTATION_CONTEXT ( 'NONE', 'WORKASPACE' ) );
#243 = ORIENTED_EDGE ( 'NONE', *, *, #822, .T. ) ;
#244 = EDGE_LOOP ( 'NONE', ( #454, #19, #679 ) ) ;
#245 = EDGE_LOOP ( 'NONE', ( #617, #488, #112, #549 ) ) ;
#246 = CARTESIAN_POINT ( 'NONE',  ( 2.600000000000000533, 2.600000000000000533, 8.000000000000000000 ) ) ;
#247 = CARTESIAN_POINT ( 'NONE',  ( -4.999999999999998224, -3.000000000000000000, 0.000000000000000000 ) ) ;
#248 = ADVANCED_FACE ( 'NONE', ( #850 ), #392, .T. ) ;
#249 = DIRECTION ( 'NONE',  ( -1.880790961315659739E-32, 1.734723475976806848E-16, 1.000000000000000000 ) ) ;
#250 = EDGE_CURVE ( 'NONE', #20, #984, #702, .T. ) ;
#251 = CARTESIAN_POINT ( 'NONE',  ( -2.599999999999999201, 2.600000000000000533, 0.000000000000000000 ) ) ;
#252 = AXIS2_PLACEMENT_3D ( 'NONE', #686, #235, #295 ) ;
#253 = ORIENTED_EDGE ( 'NONE', *, *, #175, .F. ) ;
#254 = AXIS2_PLACEMENT_3D ( 'NONE', #440, #755, #379 ) ;
#255 = AXIS2_PLACEMENT_3D ( 'NONE', #119, #574, #888 ) ;
#256 = DIRECTION ( 'NONE',  ( -1.000000000000000000, -8.673617379884035472E-17, 0.000000000000000000 ) ) ;
#257 = CARTESIAN_POINT ( 'NONE',  ( -45.00000000000000000, 1.662997694811400251, 11.99999999999999822 ) ) ;
#258 = CARTESIAN_POINT ( 'NONE',  ( 2.600000000000000533, 2.600000000000000533, 8.000000000000000000 ) ) ;
#259 = LINE ( 'NONE', #975, #803 ) ;
#260 = ADVANCED_FACE ( 'NONE', ( #465 ), #92, .T. ) ;
#261 = CARTESIAN_POINT ( 'NONE',  ( -43.12724503992752290, 1.471947362674223436, 13.99999999999999822 ) ) ;
#262 = ORIENTED_EDGE ( 'NONE', *, *, #535, .T. ) ;
#263 = DIRECTION ( 'NONE',  ( 0.000000000000000000, 0.000000000000000000, -1.000000000000000000 ) ) ;
#264 = DIRECTION ( 'NONE',  ( 0.000000000000000000, 0.000000000000000000, 1.000000000000000000 ) ) ;
#265 = VERTEX_POINT ( 'NONE', #11 ) ;
#266 = ORIENTED_EDGE ( 'NONE', *, *, #687, .F. ) ;
#267 = DIRECTION ( 'NONE',  ( 0.000000000000000000, 0.000000000000000000, -1.000000000000000000 ) ) ;
#268 = EDGE_CURVE ( 'NONE', #265, #304, #865, .T. ) ;
#269 = CIRCLE ( 'NONE', #155, 2.000000000000000000 ) ;
#270 = CARTESIAN_POINT ( 'NONE',  ( -40.50311420624570502, 2.385244779468109755E-15, 64.00000000000000000 ) ) ;
#271 = AXIS2_PLACEMENT_3D ( 'NONE', #877, #558, #553 ) ;
#272 = AXIS2_PLACEMENT_3D ( 'NONE', #434, #676, #986 ) ;
#273 = CARTESIAN_POINT ( 'NONE',  ( 0.000000000000000000, 0.000000000000000000, 0.000000000000000000 ) ) ;
#274 = ORIENTED_EDGE ( 'NONE', *, *, #818, .F. ) ;
#275 = LINE ( 'NONE', #350, #826 ) ;
#276 = LINE ( 'NONE', #124, #402 ) ;
#277 = PLANE ( 'NONE',  #351 ) ;
#278 = ORIENTED_EDGE ( 'NONE', *, *, #747, .T. ) ;
#279 = ORIENTED_EDGE ( 'NONE', *, *, #53, .T. ) ;
#280 = EDGE_LOOP ( 'NONE', ( #626, #57, #14, #910 ) ) ;
#281 = LINE ( 'NONE', #664, #158 ) ;
#282 = DIRECTION ( 'NONE',  ( -1.000000000000000000, 0.000000000000000000, 0.000000000000000000 ) ) ;
#283 = EDGE_CURVE ( 'NONE', #930, #201, #154, .T. ) ;
#284 = EDGE_CURVE ( 'NONE', #190, #475, #137, .T. ) ;
#285 = CARTESIAN_POINT ( 'NONE',  ( -2.599999999999999201, 2.600000000000000533, 8.000000000000000000 ) ) ;
#286 = VERTEX_POINT ( 'NONE', #285 ) ;
#287 = VERTEX_POINT ( 'NONE', #179 ) ;
#288 = CARTESIAN_POINT ( 'NONE',  ( 3.000000000000000888, 3.000000000000000000, 12.00000000000000000 ) ) ;
#289 = DIRECTION ( 'NONE',  ( -0.000000000000000000, -0.000000000000000000, -1.000000000000000000 ) ) ;
#290 = VECTOR ( 'NONE', #989, 1000.000000000000000 ) ;
#291 = DIRECTION ( 'NONE',  ( -0.000000000000000000, -0.000000000000000000, 1.000000000000000000 ) ) ;
#292 = DIRECTION ( 'NONE',  ( 0.000000000000000000, 1.000000000000000000, 0.000000000000000000 ) ) ;
#293 = VECTOR ( 'NONE', #482, 1000.000000000000000 ) ;
#294 = CIRCLE ( 'NONE', #862, 2.000000000000000000 ) ;
#295 = DIRECTION ( 'NONE',  ( 1.000000000000000000, 0.000000000000000000, 0.000000000000000000 ) ) ;
#296 = EDGE_CURVE ( 'NONE', #304, #620, #511, .T. ) ;
#297 = LINE ( 'NONE', #428, #307 ) ;
#298 = EDGE_LOOP ( 'NONE', ( #624, #606, #376 ) ) ;
#299 = DIRECTION ( 'NONE',  ( 0.000000000000000000, 0.000000000000000000, -1.000000000000000000 ) ) ;
#300 = DIRECTION ( 'NONE',  ( 1.000000000000000000, 0.000000000000000000, -0.000000000000000000 ) ) ;
#301 = LINE ( 'NONE', #673, #788 ) ;
#302 = DIRECTION ( 'NONE',  ( 0.000000000000000000, 0.000000000000000000, -1.000000000000000000 ) ) ;
#303 = EDGE_CURVE ( 'NONE', #475, #138, #365, .T. ) ;
#304 = VERTEX_POINT ( 'NONE', #476 ) ;
#305 = LINE ( 'NONE', #988, #418 ) ;
#306 = CARTESIAN_POINT ( 'NONE',  ( 2.600000000000000533, 2.600000000000000533, 8.000000000000000000 ) ) ;
#307 = VECTOR ( 'NONE', #499, 1000.000000000000000 ) ;
#308 = ORIENTED_EDGE ( 'NONE', *, *, #398, .T. ) ;
#309 = EDGE_CURVE ( 'NONE', #46, #20, #340, .T. ) ;
#310 = DIRECTION ( 'NONE',  ( -1.000000000000000000, 0.000000000000000000, -0.000000000000000000 ) ) ;
#311 = APPLICATION_PROTOCOL_DEFINITION ( 'draft international standard', 'automotive_design', 1998, #195 ) ;
#312 = ORIENTED_EDGE ( 'NONE', *, *, #944, .F. ) ;
#313 = DIRECTION ( 'NONE',  ( 0.000000000000000000, 0.000000000000000000, -1.000000000000000000 ) ) ;
#314 = EDGE_CURVE ( 'NONE', #744, #930, #978, .T. ) ;
#315 = CARTESIAN_POINT ( 'NONE',  ( 2.600000000000000533, 2.600000000000000533, 0.000000000000000000 ) ) ;
#316 = CYLINDRICAL_SURFACE ( 'NONE', #708, 2.000000000000000000 ) ;
#317 = DIRECTION ( 'NONE',  ( 1.000000000000000000, -0.000000000000000000, 0.000000000000000000 ) ) ;
#318 = ADVANCED_FACE ( 'NONE', ( #105 ), #109, .F. ) ;
#319 = CIRCLE ( 'NONE', #40, 2.000000000000000000 ) ;
#320 = ORIENTED_EDGE ( 'NONE', *, *, #569, .T. ) ;
#321 = DIRECTION ( 'NONE',  ( -1.668003342285391551E-16, -1.000000000000000000, 0.000000000000000000 ) ) ;
#322 = ORIENTED_EDGE ( 'NONE', *, *, #688, .T. ) ;
#323 = ADVANCED_FACE ( 'NONE', ( #575 ), #726, .T. ) ;
#324 = CARTESIAN_POINT ( 'NONE',  ( -45.00000000000000000, -3.122502256758252376E-15, 12.00000000000000355 ) ) ;
#325 = ADVANCED_FACE ( 'NONE', ( #949 ), #166, .T. ) ;
#326 = ORIENTED_EDGE ( 'NONE', *, *, #500, .T. ) ;
#327 = AXIS2_PLACEMENT_3D ( 'NONE', #965, #249, #560 ) ;
#328 = ORIENTED_EDGE ( 'NONE', *, *, #907, .T. ) ;
#329 = DIRECTION ( 'NONE',  ( 2.168404344971008621E-16, -1.000000000000000000, 2.168404344971008621E-16 ) ) ;
#330 = DIRECTION ( 'NONE',  ( 0.000000000000000000, 0.000000000000000000, -1.000000000000000000 ) ) ;
#331 = CARTESIAN_POINT ( 'NONE',  ( -4.999999999999999112, 3.000000000000000000, 0.000000000000000000 ) ) ;
#332 = ORIENTED_EDGE ( 'NONE', *, *, #393, .F. ) ;
#333 = EDGE_LOOP ( 'NONE', ( #777, #368, #559, #689 ) ) ;
#334 = VECTOR ( 'NONE', #169, 1000.000000000000000 ) ;
#335 = AXIS2_PLACEMENT_3D ( 'NONE', #197, #909, #659 ) ;
#336 = LINE ( 'NONE', #650, #798 ) ;
#337 = CYLINDRICAL_SURFACE ( 'NONE', #89, 2.000000000000000000 ) ;
#338 = ORIENTED_EDGE ( 'NONE', *, *, #309, .F. ) ;
#339 = DIRECTION ( 'NONE',  ( -1.000000000000000000, 0.000000000000000000, 8.673617379884027583E-16 ) ) ;
#340 = LINE ( 'NONE', #246, #93 ) ;
#341 = CARTESIAN_POINT ( 'NONE',  ( -44.99999999999999289, 0.6489902113510566117, 13.64390082890648515 ) ) ;
#342 = ORIENTED_EDGE ( 'NONE', *, *, #82, .T. ) ;
#343 = EDGE_CURVE ( 'NONE', #138, #908, #644, .T. ) ;
#344 = CYLINDRICAL_SURFACE ( 'NONE', #563, 2.000000000000000000 ) ;
#345 = VERTEX_POINT ( 'NONE', #802 ) ;
#346 = DIRECTION ( 'NONE',  ( 0.000000000000000000, 0.000000000000000000, 1.000000000000000000 ) ) ;
#347 = DIRECTION ( 'NONE',  ( -1.000000000000000000, 0.000000000000000000, 0.000000000000000000 ) ) ;
#348 = DIRECTION ( 'NONE',  ( 1.000000000000000000, 0.000000000000000000, 0.000000000000000000 ) ) ;
#349 = ORIENTED_EDGE ( 'NONE', *, *, #431, .F. ) ;
#350 = CARTESIAN_POINT ( 'NONE',  ( 5.000000000000001776, -3.000000000000000000, 10.00000000000000000 ) ) ;
#351 = AXIS2_PLACEMENT_3D ( 'NONE', #273, #430, #126 ) ;
#352 = DIRECTION ( 'NONE',  ( 1.000000000000000000, -0.000000000000000000, 1.880790961315659739E-32 ) ) ;
#353 = CARTESIAN_POINT ( 'NONE',  ( -43.50312738786931988, -0.3328955668338177132, 14.00000000000314948 ) ) ;
#354 = FACE_OUTER_BOUND ( 'NONE', #374, .T. ) ;
#355 = ADVANCED_FACE ( 'NONE', ( #182 ), #714, .T. ) ;
#356 = CARTESIAN_POINT ( 'NONE',  ( -2.599999999999999201, 2.600000000000000533, 8.000000000000000000 ) ) ;
#357 = ADVANCED_FACE ( 'NONE', ( #114, #948 ), #470, .T. ) ;
#358 =( NAMED_UNIT ( * ) PLANE_ANGLE_UNIT ( ) SI_UNIT ( $, .RADIAN. ) );
#359 = DIRECTION ( 'NONE',  ( 0.000000000000000000, 0.000000000000000000, 1.000000000000000000 ) ) ;
#360 = ORIENTED_EDGE ( 'NONE', *, *, #864, .T. ) ;
#361 = ORIENTED_EDGE ( 'NONE', *, *, #193, .F. ) ;
#362 = DIRECTION ( 'NONE',  ( -0.000000000000000000, -0.000000000000000000, -1.000000000000000000 ) ) ;
#363 = VERTEX_POINT ( 'NONE', #38 ) ;
#364 = EDGE_CURVE ( 'NONE', #700, #620, #336, .T. ) ;
#365 =( BOUNDED_CURVE ( )  B_SPLINE_CURVE ( 3, ( #710, #120, #480, #879 ),
 .UNSPECIFIED., .F., .T. ) 
 B_SPLINE_CURVE_WITH_KNOTS ( ( 4, 4 ),
 ( 1.570796326794896780, 3.141592653589793116 ),
 .UNSPECIFIED. ) 
 CURVE ( )  GEOMETRIC_REPRESENTATION_ITEM ( )  RATIONAL_B_SPLINE_CURVE ( ( 1.000000000000000000, 0.8047378541243650485, 0.8047378541243650485, 1.000000000000000000 ) ) 
 REPRESENTATION_ITEM ( '' )  );
#366 = DIRECTION ( 'NONE',  ( 1.000000000000000000, 0.000000000000000000, 1.880790961315659739E-32 ) ) ;
#367 = CARTESIAN_POINT ( 'NONE',  ( -4.999999999999999112, 5.000000000000000000, 10.00000000000000000 ) ) ;
#368 = ORIENTED_EDGE ( 'NONE', *, *, #413, .T. ) ;
#369 = ORIENTED_EDGE ( 'NONE', *, *, #976, .T. ) ;
#370 = ORIENTED_EDGE ( 'NONE', *, *, #303, .F. ) ;
#371 = VECTOR ( 'NONE', #856, 1000.000000000000000 ) ;
#372 = LINE ( 'NONE', #356, #528 ) ;
#373 = EDGE_CURVE ( 'NONE', #459, #742, #259, .T. ) ;
#374 = EDGE_LOOP ( 'NONE', ( #463, #147, #33, #855 ) ) ;
#375 = DIRECTION ( 'NONE',  ( 1.000000000000000000, 0.000000000000000000, 0.000000000000000000 ) ) ;
#376 = ORIENTED_EDGE ( 'NONE', *, *, #763, .F. ) ;
#377 = CARTESIAN_POINT ( 'NONE',  ( -43.00000000000000000, -2.775557561562890957E-15, 12.00000000000000178 ) ) ;
#378 = CIRCLE ( 'NONE', #727, 2.000000000000000000 ) ;
#379 = DIRECTION ( 'NONE',  ( 0.000000000000000000, -1.894101195332176246E-13, 1.000000000000000000 ) ) ;
#380 = ORIENTED_EDGE ( 'NONE', *, *, #688, .F. ) ;
#381 = ORIENTED_EDGE ( 'NONE', *, *, #932, .F. ) ;
#382 = CARTESIAN_POINT ( 'NONE',  ( 2.600000000000000533, 2.600000000000000533, 8.000000000000000000 ) ) ;
#383 = DIRECTION ( 'NONE',  ( 0.000000000000000000, 1.000000000000000000, 0.000000000000000000 ) ) ;
#384 = CARTESIAN_POINT ( 'NONE',  ( 5.000000000000000888, 3.000000000000000000, 0.000000000000000000 ) ) ;
#385 = VECTOR ( 'NONE', #456, 1000.000000000000000 ) ;
#386 = DIRECTION ( 'NONE',  ( -1.000000000000000000, 0.000000000000000000, -1.880790961315659739E-32 ) ) ;
#387 = AXIS2_PLACEMENT_3D ( 'NONE', #517, #729, #590 ) ;
#388 = CIRCLE ( 'NONE', #29, 2.000000000000000000 ) ;
#389 = CARTESIAN_POINT ( 'NONE',  ( -43.00000000000000000, 4.999999999999992895, 14.00000000000000000 ) ) ;
#390 = EDGE_CURVE ( 'NONE', #742, #789, #937, .T. ) ;
#391 = ORIENTED_EDGE ( 'NONE', *, *, #627, .F. ) ;
#392 = CYLINDRICAL_SURFACE ( 'NONE', #415, 2.000000000000000000 ) ;
#393 = EDGE_CURVE ( 'NONE', #914, #304, #871, .T. ) ;
#394 = PLANE ( 'NONE',  #567 ) ;
#395 = ORIENTED_EDGE ( 'NONE', *, *, #133, .F. ) ;
#396 = FACE_OUTER_BOUND ( 'NONE', #893, .T. ) ;
#397 = AXIS2_PLACEMENT_3D ( 'NONE', #692, #383, #231 ) ;
#398 = EDGE_CURVE ( 'NONE', #345, #286, #372, .T. ) ;
#399 = LINE ( 'NONE', #315, #723 ) ;
#400 = EDGE_CURVE ( 'NONE', #345, #152, #276, .T. ) ;
#401 = VECTOR ( 'NONE', #628, 1000.000000000000000 ) ;
#402 = VECTOR ( 'NONE', #746, 1000.000000000000000 ) ;
#403 = CARTESIAN_POINT ( 'NONE',  ( -43.00000000000000000, 4.999999999999992895, 14.00000000000000000 ) ) ;
#404 =( BOUNDED_SURFACE ( )  B_SPLINE_SURFACE ( 3, 2, ( 
 ( #257, #962, #967 ),
 ( #568, #657, #261 ),
 ( #880, #814, #45 ),
 ( #573, #341, #736 ),
 ( #181, #481, #799 ),
 ( #194, #883, #353 ),
 ( #183, #486, #804 ),
 ( #118, #668, #810 ),
 ( #421, #977, #577 ),
 ( #189, #494, #121 ) ),
 .UNSPECIFIED., .F., .F., .F. ) 
 B_SPLINE_SURFACE_WITH_KNOTS ( ( 4, 2, 2, 2, 4 ),
 ( 3, 3 ),
 ( 0.003717055364486367662, 0.004543783883131405701, 0.005370512401776442873, 0.006197240920421480045, 0.007023969439066517217 ),
 ( 0.000000000000000000, 1.000000000000000000 ),
 .UNSPECIFIED. ) 
 GEOMETRIC_REPRESENTATION_ITEM ( )  RATIONAL_B_SPLINE_SURFACE ( (
 ( 1.000000000000000000, 0.7071067811865463515, 1.000000000000000000),
 ( 1.000000000000000000, 0.7296629039694235708, 1.000000000000000000),
 ( 1.000000000000000000, 0.7509432845102282927, 1.000000000000000000),
 ( 1.000000000000000000, 0.7818379725328156171, 1.000000000000000000),
 ( 1.000000000000000000, 0.7910595773925047647, 1.000000000000000000),
 ( 1.000000000000000000, 0.7910637439369899715, 1.000000000000000000),
 ( 1.000000000000000000, 0.7818451572406762695, 1.000000000000000000),
 ( 1.000000000000000000, 0.7509478201903047045, 1.000000000000000000),
 ( 1.000000000000000000, 0.7296629178956552941, 1.000000000000000000),
 ( 1.000000000000000000, 0.7071067811866468267, 1.000000000000000000) ) ) 
 REPRESENTATION_ITEM ( '' )  SURFACE ( )  );
#405 = VECTOR ( 'NONE', #671, 1000.000000000000000 ) ;
#406 = DIRECTION ( 'NONE',  ( 0.000000000000000000, 1.734723475976806601E-16, 1.000000000000000000 ) ) ;
#407 = APPLICATION_PROTOCOL_DEFINITION ( 'draft international standard', 'automotive_design', 1998, #874 ) ;
#408 = CARTESIAN_POINT ( 'NONE',  ( -4.999999999999998224, -5.000000000000000000, 10.00000000000000000 ) ) ;
#409 = DIRECTION ( 'NONE',  ( -1.880790961315659739E-32, 1.734723475976806848E-16, 1.000000000000000000 ) ) ;
#410 = ORIENTED_EDGE ( 'NONE', *, *, #922, .F. ) ;
#411 = VERTEX_POINT ( 'NONE', #50 ) ;
#412 = FACE_OUTER_BOUND ( 'NONE', #681, .T. ) ;
#413 = EDGE_CURVE ( 'NONE', #926, #701, #297, .T. ) ;
#414 = ORIENTED_EDGE ( 'NONE', *, *, #296, .F. ) ;
#415 = AXIS2_PLACEMENT_3D ( 'NONE', #208, #455, #313 ) ;
#416 = CARTESIAN_POINT ( 'NONE',  ( 3.000000000000000888, 3.000000000000000000, 12.00000000000000000 ) ) ;
#417 = VECTOR ( 'NONE', #699, 1000.000000000000000 ) ;
#418 = VECTOR ( 'NONE', #291, 1000.000000000000000 ) ;
#419 = DIRECTION ( 'NONE',  ( 0.000000000000000000, 0.000000000000000000, 1.000000000000000000 ) ) ;
#420 = DIRECTION ( 'NONE',  ( -1.000000000000000000, 0.000000000000000000, 0.000000000000000000 ) ) ;
#421 = CARTESIAN_POINT ( 'NONE',  ( -45.00000000000000000, -1.385831436895561319, 12.00000001772998992 ) ) ;
#422 = ORIENTED_EDGE ( 'NONE', *, *, #760, .T. ) ;
#423 = DIRECTION ( 'NONE',  ( 0.000000000000000000, 1.734723475976806601E-16, 1.000000000000000000 ) ) ;
#424 = LINE ( 'NONE', #672, #581 ) ;
#425 = CARTESIAN_POINT ( 'NONE',  ( -2.599999999999999645, -2.599999999999999201, 0.000000000000000000 ) ) ;
#426 = VERTEX_POINT ( 'NONE', #980 ) ;
#427 = DIRECTION ( 'NONE',  ( 2.168404344971006649E-16, -1.000000000000000000, 2.168404344971008621E-16 ) ) ;
#428 = CARTESIAN_POINT ( 'NONE',  ( -45.00000000000000000, -3.000000000000000444, 10.00000000000000178 ) ) ;
#429 = ADVANCED_FACE ( 'NONE', ( #215 ), #585, .T. ) ;
#430 = DIRECTION ( 'NONE',  ( -0.000000000000000000, 0.000000000000000000, 1.000000000000000000 ) ) ;
#431 = EDGE_CURVE ( 'NONE', #620, #459, #740, .T. ) ;
#432 = CARTESIAN_POINT ( 'NONE',  ( -43.00000000000000000, -3.000000000000000000, 12.00000000000000178 ) ) ;
#433 = AXIS2_PLACEMENT_3D ( 'NONE', #992, #813, #129 ) ;
#434 = CARTESIAN_POINT ( 'NONE',  ( -45.00000000000000000, -5.204170427930421283E-15, 0.000000000000000000 ) ) ;
#435 = CIRCLE ( 'NONE', #271, 2.000000000000000000 ) ;
#436 = SURFACE_STYLE_FILL_AREA ( #216 ) ;
#437 = DIRECTION ( 'NONE',  ( -1.000000000000000000, 0.000000000000000000, 0.000000000000000000 ) ) ;
#438 = DIRECTION ( 'NONE',  ( 0.000000000000000000, -2.168404344971008868E-16, -1.000000000000000000 ) ) ;
#439 = DIRECTION ( 'NONE',  ( 1.000000000000000000, 0.000000000000000000, 0.000000000000000000 ) ) ;
#440 = CARTESIAN_POINT ( 'NONE',  ( -43.00000000000000000, -1.662997694810162352, 11.99999999999965716 ) ) ;
#441 = DIRECTION ( 'NONE',  ( 0.000000000000000000, 1.000000000000000000, -2.168404344971008868E-16 ) ) ;
#442 = CARTESIAN_POINT ( 'NONE',  ( -45.00000000000000000, -1.108524619570018910, 12.01780518064107994 ) ) ;
#443 = ORIENTED_EDGE ( 'NONE', *, *, #446, .F. ) ;
#444 = FACE_OUTER_BOUND ( 'NONE', #71, .T. ) ;
#445 = CARTESIAN_POINT ( 'NONE',  ( 2.600000000000000533, 2.600000000000000533, 0.000000000000000000 ) ) ;
#446 = EDGE_CURVE ( 'NONE', #46, #532, #70, .T. ) ;
#447 = CARTESIAN_POINT ( 'NONE',  ( 3.000000000000001776, -3.000000000000000000, 12.00000000000000178 ) ) ;
#448 = ORIENTED_EDGE ( 'NONE', *, *, #156, .F. ) ;
#449 = AXIS2_PLACEMENT_3D ( 'NONE', #25, #636, #863 ) ;
#450 = EDGE_CURVE ( 'NONE', #926, #459, #223, .T. ) ;
#451 = SURFACE_SIDE_STYLE ('',( #436 ) ) ;
#452 = ORIENTED_EDGE ( 'NONE', *, *, #30, .T. ) ;
#453 = CYLINDRICAL_SURFACE ( 'NONE', #647, 2.000000000000000000 ) ;
#454 = ORIENTED_EDGE ( 'NONE', *, *, #795, .T. ) ;
#455 = DIRECTION ( 'NONE',  ( 1.000000000000000000, 0.000000000000000000, 1.880790961315659739E-32 ) ) ;
#456 = DIRECTION ( 'NONE',  ( 0.000000000000000000, -0.000000000000000000, 1.000000000000000000 ) ) ;
#457 = DIRECTION ( 'NONE',  ( 0.000000000000000000, 0.000000000000000000, -1.000000000000000000 ) ) ;
#458 = ORIENTED_EDGE ( 'NONE', *, *, #400, .F. ) ;
#459 = VERTEX_POINT ( 'NONE', #903 ) ;
#460 = DIRECTION ( 'NONE',  ( 0.000000000000000000, 0.000000000000000000, 1.000000000000000000 ) ) ;
#461 = AXIS2_PLACEMENT_3D ( 'NONE', #510, #346, #660 ) ;
#462 = ORIENTED_EDGE ( 'NONE', *, *, #500, .F. ) ;
#463 = ORIENTED_EDGE ( 'NONE', *, *, #303, .T. ) ;
#464 = ORIENTED_EDGE ( 'NONE', *, *, #950, .F. ) ;
#465 = FACE_OUTER_BOUND ( 'NONE', #840, .T. ) ;
#466 = ORIENTED_EDGE ( 'NONE', *, *, #933, .T. ) ;
#467 = EDGE_CURVE ( 'NONE', #26, #959, #27, .T. ) ;
#468 = CARTESIAN_POINT ( 'NONE',  ( -2.999999999999999112, 5.000000000000000000, 0.000000000000000000 ) ) ;
#469 =( NAMED_UNIT ( * ) SI_UNIT ( $, .STERADIAN. ) SOLID_ANGLE_UNIT ( ) );
#470 = CYLINDRICAL_SURFACE ( 'NONE', #597, 3.000000000000002665 ) ;
#471 = ORIENTED_EDGE ( 'NONE', *, *, #230, .T. ) ;
#472 = VECTOR ( 'NONE', #386, 1000.000000000000000 ) ;
#473 = EDGE_CURVE ( 'NONE', #930, #26, #633, .T. ) ;
#474 = DIRECTION ( 'NONE',  ( 1.000000000000000000, 0.000000000000000000, 0.000000000000000000 ) ) ;
#475 = VERTEX_POINT ( 'NONE', #135 ) ;
#476 = CARTESIAN_POINT ( 'NONE',  ( 5.000000000000001776, -3.000000000000000000, 12.00000000000000178 ) ) ;
#477 = ADVANCED_FACE ( 'NONE', ( ), #970, .F. ) ;
#478 = DIRECTION ( 'NONE',  ( 0.000000000000000000, 0.000000000000000000, -1.000000000000000000 ) ) ;
#479 = VERTEX_POINT ( 'NONE', #834 ) ;
#480 = CARTESIAN_POINT ( 'NONE',  ( -4.999999999999999112, 4.171572875253809265, 10.00000000000000355 ) ) ;
#481 = CARTESIAN_POINT ( 'NONE',  ( -45.00000000000001421, 0.3219047567291237755, 13.61094399182262826 ) ) ;
#482 = DIRECTION ( 'NONE',  ( 1.734723475976806848E-16, -1.000000000000000000, 1.734723475976806848E-16 ) ) ;
#483 = ADVANCED_FACE ( 'NONE', ( #192 ), #895, .T. ) ;
#484 = PRODUCT_DEFINITION_CONTEXT ( 'detailed design', #195, 'design' ) ;
#485 = CARTESIAN_POINT ( 'NONE',  ( 2.600000000000000089, -2.599999999999999201, 8.000000000000000000 ) ) ;
#486 = CARTESIAN_POINT ( 'NONE',  ( -44.99999999999999289, -0.6488220600868027654, 13.64387291367684973 ) ) ;
#487 = EDGE_LOOP ( 'NONE', ( #923, #661, #718, #452 ) ) ;
#488 = ORIENTED_EDGE ( 'NONE', *, *, #364, .T. ) ;
#489 = PLANE ( 'NONE',  #255 ) ;
#490 = PRESENTATION_LAYER_ASSIGNMENT (  '', '', ( #942 ) ) ;
#491 = DIRECTION ( 'NONE',  ( 0.000000000000000000, -2.168404344971008868E-16, -1.000000000000000000 ) ) ;
#492 = AXIS2_PLACEMENT_3D ( 'NONE', #416, #478, #782 ) ;
#493 = DIRECTION ( 'NONE',  ( 8.673617379884035472E-17, -1.000000000000000000, 0.000000000000000000 ) ) ;
#494 = CARTESIAN_POINT ( 'NONE',  ( -45.00000000000000000, -1.662997694810540938, 13.99999999999943512 ) ) ;
#495 = ORIENTED_EDGE ( 'NONE', *, *, #390, .T. ) ;
#496 = ORIENTED_EDGE ( 'NONE', *, *, #535, .F. ) ;
#497 = DIRECTION ( 'NONE',  ( 1.000000000000000000, 0.000000000000000000, 1.880790961315659739E-32 ) ) ;
#498 = CARTESIAN_POINT ( 'NONE',  ( -43.00000000000000000, -3.000000000000000000, 12.00000000000000355 ) ) ;
#499 = DIRECTION ( 'NONE',  ( -1.000000000000000000, 0.000000000000000000, -1.880790961315659739E-32 ) ) ;
#500 = EDGE_CURVE ( 'NONE', #984, #152, #424, .T. ) ;
#501 = DIRECTION ( 'NONE',  ( -8.340016711426957754E-17, -1.000000000000000000, 0.000000000000000000 ) ) ;
#502 = ORIENTED_EDGE ( 'NONE', *, *, #473, .T. ) ;
#503 = ORIENTED_EDGE ( 'NONE', *, *, #237, .F. ) ;
#504 = DIRECTION ( 'NONE',  ( 8.673617379884026597E-16, 0.000000000000000000, 1.000000000000000000 ) ) ;
#505 = DIRECTION ( 'NONE',  ( -1.000000000000000000, 0.000000000000000000, -1.880790961315659739E-32 ) ) ;
#506 = LINE ( 'NONE', #125, #527 ) ;
#507 = ORIENTED_EDGE ( 'NONE', *, *, #250, .F. ) ;
#508 = PLANE ( 'NONE',  #335 ) ;
#509 = AXIS2_PLACEMENT_3D ( 'NONE', #162, #310, #460 ) ;
#510 = CARTESIAN_POINT ( 'NONE',  ( -40.50311420624570502, 2.428612866367529932E-15, 14.00000000000000178 ) ) ;
#511 = CIRCLE ( 'NONE', #961, 2.000000000000000000 ) ;
#512 = VECTOR ( 'NONE', #289, 1000.000000000000000 ) ;
#513 = DIRECTION ( 'NONE',  ( -8.673617379884035472E-17, 1.000000000000000000, -0.000000000000000000 ) ) ;
#514 = CARTESIAN_POINT ( 'NONE',  ( 5.000000000000000000, -2.999999999999999556, 14.00000000000000178 ) ) ;
#515 = ORIENTED_EDGE ( 'NONE', *, *, #907, .F. ) ;
#516 = EDGE_CURVE ( 'NONE', #701, #287, #140, .T. ) ;
#517 = CARTESIAN_POINT ( 'NONE',  ( 3.000000000000000888, 3.000000000000000000, 10.00000000000000000 ) ) ;
#518 = DIRECTION ( 'NONE',  ( -0.000000000000000000, 0.000000000000000000, -1.000000000000000000 ) ) ;
#519 = ORIENTED_EDGE ( 'NONE', *, *, #698, .F. ) ;
#520 = ORIENTED_EDGE ( 'NONE', *, *, #932, .T. ) ;
#521 = CARTESIAN_POINT ( 'NONE',  ( -4.171572875253807489, -5.000000000000000000, 10.82842712474619162 ) ) ;
#522 = ORIENTED_EDGE ( 'NONE', *, *, #268, .F. ) ;
#523 = CARTESIAN_POINT ( 'NONE',  ( 3.000000000000001332, -2.999999999999999556, 14.00000000000000178 ) ) ;
#524 = CARTESIAN_POINT ( 'NONE',  ( -45.00000000000000000, 3.000000000000000444, 14.00000000000000000 ) ) ;
#525 = EDGE_CURVE ( 'NONE', #564, #532, #730, .T. ) ;
#526 = AXIS2_PLACEMENT_3D ( 'NONE', #678, #292, #625 ) ;
#527 = VECTOR ( 'NONE', #352, 1000.000000000000000 ) ;
#528 = VECTOR ( 'NONE', #605, 1000.000000000000000 ) ;
#529 = CARTESIAN_POINT ( 'NONE',  ( 5.000000000000000888, 5.000000000000000000, 0.000000000000000000 ) ) ;
#530 = AXIS2_PLACEMENT_3D ( 'NONE', #36, #646, #958 ) ;
#531 = CARTESIAN_POINT ( 'NONE',  ( -45.00000000000000711, 0.5546310240614530374, 12.05059399195648773 ) ) ;
#532 = VERTEX_POINT ( 'NONE', #148 ) ;
#533 = ORIENTED_EDGE ( 'NONE', *, *, #795, .F. ) ;
#534 = CARTESIAN_POINT ( 'NONE',  ( 3.000000000000000888, 3.000000000000000000, 14.00000000000000000 ) ) ;
#535 = EDGE_CURVE ( 'NONE', #758, #700, #319, .T. ) ;
#536 = CARTESIAN_POINT ( 'NONE',  ( 3.000000000000000888, 5.000000000000000000, 10.00000000000000000 ) ) ;
#537 = FACE_OUTER_BOUND ( 'NONE', #728, .T. ) ;
#538 = EDGE_LOOP ( 'NONE', ( #322, #243, #658 ) ) ;
#539 = DIRECTION ( 'NONE',  ( 1.000000000000000000, 0.000000000000000000, 1.880790961315659739E-32 ) ) ;
#540 = ORIENTED_EDGE ( 'NONE', *, *, #467, .F. ) ;
#541 = LINE ( 'NONE', #931, #720 ) ;
#542 = ADVANCED_FACE ( 'NONE', ( #18 ), #316, .T. ) ;
#543 = CLOSED_SHELL ( 'NONE', ( #355, #844, #318, #956, #222, #556, #99, #91, #174, #666, #853, #72, #656, #791, #429, #357, #635, #645, #896, #935, #640, #592, #83, #127, #260, #248, #323, #542, #6, #325, #144, #643, #185, #23, #897, #483 ) ) ;
#544 = ORIENTED_EDGE ( 'NONE', *, *, #525, .F. ) ;
#545 = DIRECTION ( 'NONE',  ( 1.000000000000000000, 0.000000000000000000, 0.000000000000000000 ) ) ;
#546 = VECTOR ( 'NONE', #851, 1000.000000000000000 ) ;
#547 = CARTESIAN_POINT ( 'NONE',  ( 3.000000000000001776, -5.000000000000000000, 12.00000000000000178 ) ) ;
#548 = EDGE_CURVE ( 'NONE', #959, #744, #616, .T. ) ;
#549 = ORIENTED_EDGE ( 'NONE', *, *, #373, .T. ) ;
#550 = PLANE ( 'NONE',  #206 ) ;
#551 = AXIS2_PLACEMENT_3D ( 'NONE', #555, #256, #493 ) ;
#552 = ORIENTED_EDGE ( 'NONE', *, *, #82, .F. ) ;
#553 = DIRECTION ( 'NONE',  ( 0.000000000000000000, 2.168404344971008868E-16, 1.000000000000000000 ) ) ;
#554 = PRODUCT_DEFINITION ( 'UNKNOWN', '', #725, #484 ) ;
#555 = CARTESIAN_POINT ( 'NONE',  ( 5.000000000000000888, 5.000000000000000000, 10.00000000000000000 ) ) ;
#556 = ADVANCED_FACE ( 'NONE', ( #876 ), #107, .F. ) ;
#557 = CARTESIAN_POINT ( 'NONE',  ( -40.50311420624570502, 2.428612866367529932E-15, 14.00000000000000178 ) ) ;
#558 = DIRECTION ( 'NONE',  ( 2.168404344971008621E-16, -1.000000000000000000, 2.168404344971008621E-16 ) ) ;
#559 = ORIENTED_EDGE ( 'NONE', *, *, #516, .T. ) ;
#560 = DIRECTION ( 'NONE',  ( 0.000000000000000000, -1.000000000000000000, 1.734723475976806848E-16 ) ) ;
#561 = CIRCLE ( 'NONE', #509, 2.000000000000000000 ) ;
#562 = AXIS2_PLACEMENT_3D ( 'NONE', #715, #35, #576 ) ;
#563 = AXIS2_PLACEMENT_3D ( 'NONE', #210, #816, #423 ) ;
#564 = VERTEX_POINT ( 'NONE', #251 ) ;
#565 = FACE_OUTER_BOUND ( 'NONE', #697, .T. ) ;
#566 = ORIENTED_EDGE ( 'NONE', *, *, #974, .F. ) ;
#567 = AXIS2_PLACEMENT_3D ( 'NONE', #648, #796, #101 ) ;
#568 = CARTESIAN_POINT ( 'NONE',  ( -45.00000000000000000, 1.385831389496302801, 12.00000001774994551 ) ) ;
#569 = EDGE_CURVE ( 'NONE', #426, #265, #841, .T. ) ;
#570 = DIRECTION ( 'NONE',  ( 0.000000000000000000, 1.000000000000000000, -0.000000000000000000 ) ) ;
#571 = DIRECTION ( 'NONE',  ( -1.000000000000000000, 0.000000000000000000, 0.000000000000000000 ) ) ;
#572 = DIRECTION ( 'NONE',  ( 8.340016711426957754E-17, 1.000000000000000000, -0.000000000000000000 ) ) ;
#573 = CARTESIAN_POINT ( 'NONE',  ( -45.00000000000000000, 0.5544103470867467465, 12.05060696243359608 ) ) ;
#574 = DIRECTION ( 'NONE',  ( 1.880790961315659739E-32, -1.734723475976806848E-16, -1.000000000000000000 ) ) ;
#575 = FACE_OUTER_BOUND ( 'NONE', #52, .T. ) ;
#576 = DIRECTION ( 'NONE',  ( 0.000000000000000000, 1.000000000000000000, -8.673617379884035472E-16 ) ) ;
#577 = CARTESIAN_POINT ( 'NONE',  ( -43.12724347763379029, -1.471949708412724434, 13.99999999999999822 ) ) ;
#578 = ORIENTED_EDGE ( 'NONE', *, *, #398, .F. ) ;
#579 = CARTESIAN_POINT ( 'NONE',  ( -43.00000000000000000, -3.000000000000000000, 12.00000000000000178 ) ) ;
#580 = EDGE_CURVE ( 'NONE', #532, #984, #399, .T. ) ;
#581 = VECTOR ( 'NONE', #282, 1000.000000000000000 ) ;
#582 = DIRECTION ( 'NONE',  ( -0.000000000000000000, 0.000000000000000000, 1.000000000000000000 ) ) ;
#583 = DIRECTION ( 'NONE',  ( -0.000000000000000000, 0.000000000000000000, -1.000000000000000000 ) ) ;
#584 = CYLINDRICAL_SURFACE ( 'NONE', #875, 2.000000000000000000 ) ;
#585 = PLANE ( 'NONE',  #272 ) ;
#586 = UNCERTAINTY_MEASURE_WITH_UNIT (LENGTH_MEASURE( 1.000000000000000082E-05 ), #4, 'distance_accuracy_value', 'NONE');
#587 = FACE_OUTER_BOUND ( 'NONE', #829, .T. ) ;
#588 = ORIENTED_EDGE ( 'NONE', *, *, #704, .F. ) ;
#589 = VERTEX_POINT ( 'NONE', #709 ) ;
#590 = DIRECTION ( 'NONE',  ( -1.000000000000000000, 0.000000000000000000, 0.000000000000000000 ) ) ;
#591 = DIRECTION ( 'NONE',  ( 1.000000000000000000, 0.000000000000000000, 0.000000000000000000 ) ) ;
#592 = ADVANCED_FACE ( 'NONE', ( #110 ), #716, .T. ) ;
#593 = FACE_OUTER_BOUND ( 'NONE', #663, .T. ) ;
#594 = DIRECTION ( 'NONE',  ( 1.000000000000000000, -0.000000000000000000, 1.880790961315659739E-32 ) ) ;
#595 = ORIENTED_EDGE ( 'NONE', *, *, #39, .F. ) ;
#596 = CYLINDRICAL_SURFACE ( 'NONE', #387, 2.000000000000000000 ) ;
#597 = AXIS2_PLACEMENT_3D ( 'NONE', #34, #954, #719 ) ;
#598 = DIRECTION ( 'NONE',  ( 0.000000000000000000, 1.000000000000000000, 0.000000000000000000 ) ) ;
#599 = EDGE_LOOP ( 'NONE', ( #10, #262, #253, #495, #361, #94, #381, #466 ) ) ;
#600 = CIRCLE ( 'NONE', #254, 2.000000000000000000 ) ;
#601 = VECTOR ( 'NONE', #134, 1000.000000000000000 ) ;
#602 = CARTESIAN_POINT ( 'NONE',  ( 15.77032961426901103, 3.000000000000000000, 12.00000000000000000 ) ) ;
#603 = CARTESIAN_POINT ( 'NONE',  ( -43.00000000000000000, -2.999999999999999556, 14.00000000000000178 ) ) ;
#604 = PLANE ( 'NONE',  #102 ) ;
#605 = DIRECTION ( 'NONE',  ( 8.340016711426957754E-17, 1.000000000000000000, -0.000000000000000000 ) ) ;
#606 = ORIENTED_EDGE ( 'NONE', *, *, #569, .F. ) ;
#607 = FILL_AREA_STYLE_COLOUR ( '', #116 ) ;
#608 = CARTESIAN_POINT ( 'NONE',  ( -4.999999999999998224, -3.000000000000000000, 10.00000000000000000 ) ) ;
#609 = DIRECTION ( 'NONE',  ( 0.000000000000000000, 0.000000000000000000, -1.000000000000000000 ) ) ;
#610 = CARTESIAN_POINT ( 'NONE',  ( 2.600000000000000089, -2.599999999999999201, 8.000000000000000000 ) ) ;
#611 = CARTESIAN_POINT ( 'NONE',  ( -43.00000000000000000, 3.000000000000000000, 12.00000000000000000 ) ) ;
#612 = VERTEX_POINT ( 'NONE', #936 ) ;
#613 = ORIENTED_EDGE ( 'NONE', *, *, #859, .F. ) ;
#614 = VECTOR ( 'NONE', #299, 1000.000000000000000 ) ;
#615 = CARTESIAN_POINT ( 'NONE',  ( -40.50311420624570502, 3.000000000000000444, 14.00000000000000178 ) ) ;
#616 = CIRCLE ( 'NONE', #227, 3.000000000000002665 ) ;
#617 = ORIENTED_EDGE ( 'NONE', *, *, #175, .T. ) ;
#618 = SHELL_BASED_SURFACE_MODEL ( 'NONE', ( #543, #858 ) );
#619 = AXIS2_PLACEMENT_3D ( 'NONE', #498, #753, #491 ) ;
#620 = VERTEX_POINT ( 'NONE', #547 ) ;
#621 = DIRECTION ( 'NONE',  ( 0.000000000000000000, -0.000000000000000000, -1.000000000000000000 ) ) ;
#622 = CARTESIAN_POINT ( 'NONE',  ( -43.00000000000000000, -3.000000000000000000, 12.00000000000000178 ) ) ;
#623 = CARTESIAN_POINT ( 'NONE',  ( 3.000000000000001776, -3.000000000000000000, 0.000000000000000000 ) ) ;
#624 = ORIENTED_EDGE ( 'NONE', *, *, #156, .T. ) ;
#625 = DIRECTION ( 'NONE',  ( 1.000000000000000000, 0.000000000000000000, 0.000000000000000000 ) ) ;
#626 = ORIENTED_EDGE ( 'NONE', *, *, #390, .F. ) ;
#627 = EDGE_CURVE ( 'NONE', #411, #363, #294, .T. ) ;
#628 = DIRECTION ( 'NONE',  ( 1.734723475976806848E-16, -1.000000000000000000, 1.734723475976806848E-16 ) ) ;
#629 = ORIENTED_EDGE ( 'NONE', *, *, #950, .T. ) ;
#630 = LINE ( 'NONE', #514, #772 ) ;
#631 = AXIS2_PLACEMENT_3D ( 'NONE', #773, #941, #621 ) ;
#632 = CIRCLE ( 'NONE', #449, 2.000000000000000000 ) ;
#633 = CIRCLE ( 'NONE', #461, 3.000000000000002665 ) ;
#634 = VERTEX_POINT ( 'NONE', #184 ) ;
#635 = ADVANCED_FACE ( 'NONE', ( #979 ), #894, .T. ) ;
#636 = DIRECTION ( 'NONE',  ( 0.000000000000000000, -0.000000000000000000, -1.000000000000000000 ) ) ;
#637 = EDGE_LOOP ( 'NONE', ( #653, #342 ) ) ;
#638 = ORIENTED_EDGE ( 'NONE', *, *, #525, .T. ) ;
#639 = AXIS2_PLACEMENT_3D ( 'NONE', #724, #329, #705 ) ;
#640 = ADVANCED_FACE ( 'NONE', ( #354 ), #584, .T. ) ;
#641 = DIRECTION ( 'NONE',  ( 1.000000000000000000, -0.000000000000000000, 1.880790961315659739E-32 ) ) ;
#642 = CARTESIAN_POINT ( 'NONE',  ( 15.77032961426901103, 5.000000000000003553, 14.00000000000000000 ) ) ;
#643 = ADVANCED_FACE ( 'NONE', ( #444 ), #344, .T. ) ;
#644 = LINE ( 'NONE', #44, #3 ) ;
#645 = ADVANCED_FACE ( 'NONE', ( #973 ), #596, .T. ) ;
#646 = DIRECTION ( 'NONE',  ( 1.000000000000000000, 0.000000000000000000, 0.000000000000000000 ) ) ;
#647 = AXIS2_PLACEMENT_3D ( 'NONE', #602, #366, #609 ) ;
#648 = CARTESIAN_POINT ( 'NONE',  ( 15.77032961426901103, 5.000000000000003553, 14.00000000000000000 ) ) ;
#649 = EDGE_LOOP ( 'NONE', ( #464, #414, #332 ) ) ;
#650 = CARTESIAN_POINT ( 'NONE',  ( 3.000000000000001776, -5.000000000000000000, 10.00000000000000000 ) ) ;
#651 = CIRCLE ( 'NONE', #891, 2.000000000000000000 ) ;
#652 = DIRECTION ( 'NONE',  ( -1.000000000000000000, 8.340016711426957754E-17, 0.000000000000000000 ) ) ;
#653 = ORIENTED_EDGE ( 'NONE', *, *, #111, .T. ) ;
#654 = CARTESIAN_POINT ( 'NONE',  ( -43.00000000000000000, 1.662997694811400695, 14.00000000000000178 ) ) ;
#655 = CARTESIAN_POINT ( 'NONE',  ( -43.00000000000000000, -2.775557561562890957E-15, 12.00000000000000178 ) ) ;
#656 = ADVANCED_FACE ( 'NONE', ( #128 ), #489, .T. ) ;
#657 = CARTESIAN_POINT ( 'NONE',  ( -45.00000000000000711, 1.476859260810826635, 13.87602645482762931 ) ) ;
#658 = ORIENTED_EDGE ( 'NONE', *, *, #548, .F. ) ;
#659 = DIRECTION ( 'NONE',  ( 1.668003342285391551E-16, 1.000000000000000000, 0.000000000000000000 ) ) ;
#660 = DIRECTION ( 'NONE',  ( 1.000000000000000000, 0.000000000000000000, 0.000000000000000000 ) ) ;
#661 = ORIENTED_EDGE ( 'NONE', *, *, #450, .T. ) ;
#662 = FACE_OUTER_BOUND ( 'NONE', #836, .T. ) ;
#663 = EDGE_LOOP ( 'NONE', ( #520, #848, #776, #16 ) ) ;
#664 = CARTESIAN_POINT ( 'NONE',  ( -45.00000000000000000, 3.000000000000000444, 14.00000000000000000 ) ) ;
#665 = CIRCLE ( 'NONE', #886, 2.000000000000000000 ) ;
#666 = ADVANCED_FACE ( 'NONE', ( #123 ), #508, .F. ) ;
#667 = DIRECTION ( 'NONE',  ( 0.000000000000000000, -0.000000000000000000, -1.000000000000000000 ) ) ;
#668 = CARTESIAN_POINT ( 'NONE',  ( -45.00000000000000000, -1.223775840648011037, 13.77397145735162809 ) ) ;
#669 = ORIENTED_EDGE ( 'NONE', *, *, #733, .T. ) ;
#670 = ORIENTED_EDGE ( 'NONE', *, *, #927, .T. ) ;
#671 = DIRECTION ( 'NONE',  ( 1.000000000000000000, -0.000000000000000000, 1.880790961315659739E-32 ) ) ;
#672 = CARTESIAN_POINT ( 'NONE',  ( 2.600000000000000089, -2.599999999999999201, 0.000000000000000000 ) ) ;
#673 = CARTESIAN_POINT ( 'NONE',  ( -4.999999999999999112, 5.000000000000000000, 0.000000000000000000 ) ) ;
#674 = CARTESIAN_POINT ( 'NONE',  ( -4.999999999999999112, 3.000000000000000000, 10.00000000000000000 ) ) ;
#675 = CARTESIAN_POINT ( 'NONE',  ( 5.000000000000001776, -3.000000000000000000, 0.000000000000000000 ) ) ;
#676 = DIRECTION ( 'NONE',  ( -1.000000000000000000, -1.734723475976806848E-16, 0.000000000000000000 ) ) ;
#677 = CARTESIAN_POINT ( 'NONE',  ( -4.999999999999998224, -3.000000000000000000, 10.00000000000000000 ) ) ;
#678 = CARTESIAN_POINT ( 'NONE',  ( -43.00000000000000000, -3.000000000000000000, 12.00000000000000178 ) ) ;
#679 = ORIENTED_EDGE ( 'NONE', *, *, #747, .F. ) ;
#680 = VECTOR ( 'NONE', #86, 1000.000000000000000 ) ;
#681 = EDGE_LOOP ( 'NONE', ( #638, #443, #312, #945 ) ) ;
#682 = CARTESIAN_POINT ( 'NONE',  ( -40.50311420624570502, 2.428612866367529932E-15, 14.00000000000000178 ) ) ;
#683 = CARTESIAN_POINT ( 'NONE',  ( -5.000000000000000888, -5.000000000000000000, 12.00000000000000178 ) ) ;
#684 = DIRECTION ( 'NONE',  ( 1.734723475976806848E-16, -1.000000000000000000, 1.734723475976806848E-16 ) ) ;
#685 = PRESENTATION_STYLE_ASSIGNMENT (( #761 ) ) ;
#686 = CARTESIAN_POINT ( 'NONE',  ( 3.000000000000001776, -3.000000000000000000, 12.00000000000000178 ) ) ;
#687 = EDGE_CURVE ( 'NONE', #201, #26, #969, .T. ) ;
#688 = EDGE_CURVE ( 'NONE', #959, #411, #281, .T. ) ;
#689 = ORIENTED_EDGE ( 'NONE', *, *, #890, .T. ) ;
#690 = UNCERTAINTY_MEASURE_WITH_UNIT (LENGTH_MEASURE( 1.000000000000000082E-05 ), #781, 'distance_accuracy_value', 'NONE');
#691 = PLANE ( 'NONE',  #226 ) ;
#692 = CARTESIAN_POINT ( 'NONE',  ( -43.00000000000000000, 3.000000000000000000, 12.00000000000000000 ) ) ;
#693 = ORIENTED_EDGE ( 'NONE', *, *, #516, .F. ) ;
#694 = DIRECTION ( 'NONE',  ( 1.000000000000000000, 8.673617379884035472E-17, -0.000000000000000000 ) ) ;
#695 = AXIS2_PLACEMENT_3D ( 'NONE', #270, #582, #439 ) ;
#696 = CARTESIAN_POINT ( 'NONE',  ( -4.999999999999999112, 5.000000000000000000, 10.00000000000000000 ) ) ;
#697 = EDGE_LOOP ( 'NONE', ( #471, #77, #153, #540 ) ) ;
#698 = EDGE_CURVE ( 'NONE', #286, #564, #823, .T. ) ;
#699 = DIRECTION ( 'NONE',  ( -8.673617379884035472E-17, 1.000000000000000000, -1.734723475976806848E-16 ) ) ;
#700 = VERTEX_POINT ( 'NONE', #830 ) ;
#701 = VERTEX_POINT ( 'NONE', #739 ) ;
#702 = LINE ( 'NONE', #767, #680 ) ;
#703 = MANIFOLD_SURFACE_SHAPE_REPRESENTATION ( 'P001-B121_CrankHandle-1', ( #618, #825 ), #242 ) ;
#704 = EDGE_CURVE ( 'NONE', #612, #161, #41, .T. ) ;
#705 = DIRECTION ( 'NONE',  ( 0.000000000000000000, -2.168404344971008868E-16, -1.000000000000000000 ) ) ;
#706 = CARTESIAN_POINT ( 'NONE',  ( -40.50311420624570502, 2.428612866367529932E-15, 14.00000000000000178 ) ) ;
#707 =( NAMED_UNIT ( * ) PLANE_ANGLE_UNIT ( ) SI_UNIT ( $, .RADIAN. ) );
#708 = AXIS2_PLACEMENT_3D ( 'NONE', #757, #24, #867 ) ;
#709 = CARTESIAN_POINT ( 'NONE',  ( -43.00000000000000000, 5.000000000000000000, 12.00000000000000000 ) ) ;
#710 = CARTESIAN_POINT ( 'NONE',  ( -2.999999999999999112, 5.000000000000000000, 12.00000000000000000 ) ) ;
#711 = AXIS2_PLACEMENT_3D ( 'NONE', #872, #641, #881 ) ;
#712 = DIRECTION ( 'NONE',  ( 0.000000000000000000, 1.000000000000000000, 0.000000000000000000 ) ) ;
#713 = EDGE_CURVE ( 'NONE', #589, #475, #884, .T. ) ;
#714 = PLANE ( 'NONE',  #327 ) ;
#715 = CARTESIAN_POINT ( 'NONE',  ( -43.00000000000000000, 3.000000000000000000, 12.00000000000000178 ) ) ;
#716 = SPHERICAL_SURFACE ( 'NONE', #530, 2.000000000000000000 ) ;
#717 = ORIENTED_EDGE ( 'NONE', *, *, #309, .T. ) ;
#718 = ORIENTED_EDGE ( 'NONE', *, *, #987, .F. ) ;
#719 = DIRECTION ( 'NONE',  ( -1.000000000000000000, 0.000000000000000000, 0.000000000000000000 ) ) ;
#720 = VECTOR ( 'NONE', #545, 1000.000000000000000 ) ;
#721 = LINE ( 'NONE', #899, #925 ) ;
#722 = ORIENTED_EDGE ( 'NONE', *, *, #283, .F. ) ;
#723 = VECTOR ( 'NONE', #951, 1000.000000000000000 ) ;
#724 = CARTESIAN_POINT ( 'NONE',  ( -43.00000000000000000, -3.000000000000000000, 12.00000000000000178 ) ) ;
#725 = PRODUCT_DEFINITION_FORMATION_WITH_SPECIFIED_SOURCE ( 'ANY', '', #842, .NOT_KNOWN. ) ;
#726 = CYLINDRICAL_SURFACE ( 'NONE', #711, 2.000000000000000000 ) ;
#727 = AXIS2_PLACEMENT_3D ( 'NONE', #579, #191, #263 ) ;
#728 = EDGE_LOOP ( 'NONE', ( #770, #515, #391 ) ) ;
#729 = DIRECTION ( 'NONE',  ( 0.000000000000000000, 0.000000000000000000, -1.000000000000000000 ) ) ;
#730 = LINE ( 'NONE', #445, #76 ) ;
#731 = FACE_OUTER_BOUND ( 'NONE', #280, .T. ) ;
#732 = ORIENTED_EDGE ( 'NONE', *, *, #343, .T. ) ;
#733 = EDGE_CURVE ( 'NONE', #744, #929, #388, .T. ) ;
#734 = CARTESIAN_POINT ( 'NONE',  ( -2.599999999999999201, 2.600000000000000533, 8.000000000000000000 ) ) ;
#735 = CARTESIAN_POINT ( 'NONE',  ( 2.600000000000000533, 2.600000000000000533, 8.000000000000000000 ) ) ;
#736 = CARTESIAN_POINT ( 'NONE',  ( -43.44412797670420190, 0.6635371258494600077, 14.00000000234020980 ) ) ;
#737 = ORIENTED_EDGE ( 'NONE', *, *, #627, .T. ) ;
#738 = AXIS2_PLACEMENT_3D ( 'NONE', #892, #359, #348 ) ;
#739 = CARTESIAN_POINT ( 'NONE',  ( -43.00000000000000000, -3.000000000000000444, 10.00000000000000178 ) ) ;
#740 = LINE ( 'NONE', #211, #774 ) ;
#741 = FACE_OUTER_BOUND ( 'NONE', #953, .T. ) ;
#742 = VERTEX_POINT ( 'NONE', #745 ) ;
#743 = AXIS2_PLACEMENT_3D ( 'NONE', #611, #539, #457 ) ;
#744 = VERTEX_POINT ( 'NONE', #654 ) ;
#745 = CARTESIAN_POINT ( 'NONE',  ( -2.999999999999998224, -5.000000000000000000, 0.000000000000000000 ) ) ;
#746 = DIRECTION ( 'NONE',  ( -0.000000000000000000, -0.000000000000000000, -1.000000000000000000 ) ) ;
#747 = EDGE_CURVE ( 'NONE', #201, #161, #378, .T. ) ;
#748 = LINE ( 'NONE', #80, #104 ) ;
#749 = DIRECTION ( 'NONE',  ( 0.000000000000000000, 2.168404344971008868E-16, 1.000000000000000000 ) ) ;
#750 = CARTESIAN_POINT ( 'NONE',  ( -45.00000000000000000, -0.2775808380624446015, 12.06431508362704896 ) ) ;
#751 = EDGE_LOOP ( 'NONE', ( #37, #507, #338, #143 ) ) ;
#752 = CARTESIAN_POINT ( 'NONE',  ( 5.000000000000000000, -2.999999999999999556, 14.00000000000000178 ) ) ;
#753 = DIRECTION ( 'NONE',  ( 2.168404344971006649E-16, -1.000000000000000000, 2.168404344971006649E-16 ) ) ;
#754 = DIRECTION ( 'NONE',  ( 1.000000000000000000, -0.000000000000000000, -0.000000000000000000 ) ) ;
#755 = DIRECTION ( 'NONE',  ( 1.734723475976806848E-16, -1.000000000000000000, -1.894101195331851362E-13 ) ) ;
#756 = ORIENTED_EDGE ( 'NONE', *, *, #822, .F. ) ;
#757 = CARTESIAN_POINT ( 'NONE',  ( 3.000000000000001776, -3.000000000000000000, 10.00000000000000000 ) ) ;
#758 = VERTEX_POINT ( 'NONE', #675 ) ;
#759 = AXIS2_PLACEMENT_3D ( 'NONE', #198, #598, #817 ) ;
#760 = EDGE_CURVE ( 'NONE', #304, #758, #275, .T. ) ;
#761 = SURFACE_STYLE_USAGE ( .BOTH. , #451 ) ;
#762 = DIRECTION ( 'NONE',  ( 0.000000000000000000, 0.000000000000000000, 1.000000000000000000 ) ) ;
#763 = EDGE_CURVE ( 'NONE', #218, #426, #651, .T. ) ;
#764 = ORIENTED_EDGE ( 'NONE', *, *, #296, .T. ) ;
#765 = DIRECTION ( 'NONE',  ( 1.000000000000000000, -0.000000000000000000, -0.000000000000000000 ) ) ;
#766 = EDGE_LOOP ( 'NONE', ( #308, #200, #717, #360 ) ) ;
#767 = CARTESIAN_POINT ( 'NONE',  ( 2.600000000000000089, -2.599999999999999201, 8.000000000000000000 ) ) ;
#768 =( NAMED_UNIT ( * ) SI_UNIT ( $, .STERADIAN. ) SOLID_ANGLE_UNIT ( ) );
#769 = CARTESIAN_POINT ( 'NONE',  ( 0.000000000000000000, 0.000000000000000000, 8.000000000000000000 ) ) ;
#770 = ORIENTED_EDGE ( 'NONE', *, *, #787, .F. ) ;
#771 = ORIENTED_EDGE ( 'NONE', *, *, #250, .T. ) ;
#772 = VECTOR ( 'NONE', #594, 1000.000000000000000 ) ;
#773 = CARTESIAN_POINT ( 'NONE',  ( 2.600000000000000089, -2.599999999999999201, 8.000000000000000000 ) ) ;
#774 = VECTOR ( 'NONE', #505, 1000.000000000000000 ) ;
#775 = ORIENTED_EDGE ( 'NONE', *, *, #927, .F. ) ;
#776 = ORIENTED_EDGE ( 'NONE', *, *, #922, .T. ) ;
#777 = ORIENTED_EDGE ( 'NONE', *, *, #39, .T. ) ;
#778 = SPHERICAL_SURFACE ( 'NONE', #526, 2.000000000000000000 ) ;
#779 = EDGE_CURVE ( 'NONE', #612, #701, #1, .T. ) ;
#780 = DIRECTION ( 'NONE',  ( 0.000000000000000000, 1.000000000000000000, 0.000000000000000000 ) ) ;
#781 =( LENGTH_UNIT ( ) NAMED_UNIT ( * ) SI_UNIT ( .MILLI., .METRE. ) );
#782 = DIRECTION ( 'NONE',  ( -1.000000000000000000, 0.000000000000000000, 0.000000000000000000 ) ) ;
#783 = ORIENTED_EDGE ( 'NONE', *, *, #809, .T. ) ;
#784 = CARTESIAN_POINT ( 'NONE',  ( 3.000000000000001776, -3.000000000000000000, 12.00000000000000178 ) ) ;
#785 = AXIS2_PLACEMENT_3D ( 'NONE', #377, #684, #920 ) ;
#786 = DIRECTION ( 'NONE',  ( 0.000000000000000000, 0.000000000000000000, 1.000000000000000000 ) ) ;
#787 = EDGE_CURVE ( 'NONE', #589, #411, #177, .T. ) ;
#788 = VECTOR ( 'NONE', #827, 1000.000000000000000 ) ;
#789 = VERTEX_POINT ( 'NONE', #247 ) ;
#790 = VECTOR ( 'NONE', #236, 1000.000000000000000 ) ;
#791 = ADVANCED_FACE ( 'NONE', ( #565 ), #394, .T. ) ;
#792 = ORIENTED_EDGE ( 'NONE', *, *, #981, .F. ) ;
#793 = DIRECTION ( 'NONE',  ( 0.000000000000000000, 0.000000000000000000, -1.000000000000000000 ) ) ;
#794 = ORIENTED_EDGE ( 'NONE', *, *, #283, .T. ) ;
#795 = EDGE_CURVE ( 'NONE', #201, #612, #79, .T. ) ;
#796 = DIRECTION ( 'NONE',  ( -1.880790961315659739E-32, 1.734723475976806848E-16, 1.000000000000000000 ) ) ;
#797 = ORIENTED_EDGE ( 'NONE', *, *, #193, .T. ) ;
#798 = VECTOR ( 'NONE', #960, 1000.000000000000000 ) ;
#799 = CARTESIAN_POINT ( 'NONE',  ( -43.50310101992002387, 0.3331331059181319443, 13.99999999999684874 ) ) ;
#800 = PLANE ( 'NONE',  #132 ) ;
#801 = EDGE_CURVE ( 'NONE', #908, #190, #632, .T. ) ;
#802 = CARTESIAN_POINT ( 'NONE',  ( -2.599999999999999645, -2.599999999999999201, 8.000000000000000000 ) ) ;
#803 = VECTOR ( 'NONE', #518, 1000.000000000000000 ) ;
#804 = CARTESIAN_POINT ( 'NONE',  ( -43.44417275144089530, -0.6633667088498679254, 14.00000000234041053 ) ) ;
#805 = VECTOR ( 'NONE', #765, 1000.000000000000000 ) ;
#806 = ORIENTED_EDGE ( 'NONE', *, *, #835, .T. ) ;
#807 = DIRECTION ( 'NONE',  ( -1.000000000000000000, 0.000000000000000000, -1.880790961315659739E-32 ) ) ;
#808 = AXIS2_PLACEMENT_3D ( 'NONE', #432, #504, #339 ) ;
#809 = EDGE_CURVE ( 'NONE', #363, #287, #435, .T. ) ;
#810 = CARTESIAN_POINT ( 'NONE',  ( -43.25473587188256630, -1.232257731064629436, 13.99999999765958592 ) ) ;
#811 = ORIENTED_EDGE ( 'NONE', *, *, #133, .T. ) ;
#812 = DIRECTION ( 'NONE',  ( 1.000000000000000000, 0.000000000000000000, -0.000000000000000000 ) ) ;
#813 = DIRECTION ( 'NONE',  ( 0.000000000000000000, 1.000000000000000000, -2.168404344971008868E-16 ) ) ;
#814 = CARTESIAN_POINT ( 'NONE',  ( -44.99999999999999289, 1.223822328846611907, 13.77399253089673081 ) ) ;
#815 = ORIENTED_EDGE ( 'NONE', *, *, #284, .F. ) ;
#816 = DIRECTION ( 'NONE',  ( -1.734723475976806848E-16, 1.000000000000000000, -1.734723475976806848E-16 ) ) ;
#817 = DIRECTION ( 'NONE',  ( 1.000000000000000000, 0.000000000000000000, 0.000000000000000000 ) ) ;
#818 = EDGE_CURVE ( 'NONE', #363, #929, #868, .T. ) ;
#819 = PLANE ( 'NONE',  #955 ) ;
#820 = ORIENTED_EDGE ( 'NONE', *, *, #787, .T. ) ;
#821 = VECTOR ( 'NONE', #151, 1000.000000000000000 ) ;
#822 = EDGE_CURVE ( 'NONE', #411, #744, #113, .T. ) ;
#823 = LINE ( 'NONE', #734, #991 ) ;
#824 = CARTESIAN_POINT ( 'NONE',  ( -2.999999999999998224, -3.000000000000000000, 0.000000000000000000 ) ) ;
#825 = AXIS2_PLACEMENT_3D ( 'NONE', #164, #786, #96 ) ;
#826 = VECTOR ( 'NONE', #985, 1000.000000000000000 ) ;
#827 = DIRECTION ( 'NONE',  ( -1.000000000000000000, -0.000000000000000000, -0.000000000000000000 ) ) ;
#828 = DIRECTION ( 'NONE',  ( 1.734723475976806848E-16, -1.000000000000000000, 1.734723475976806848E-16 ) ) ;
#829 = EDGE_LOOP ( 'NONE', ( #122, #522, #448, #503 ) ) ;
#830 = CARTESIAN_POINT ( 'NONE',  ( 3.000000000000001776, -5.000000000000000000, 0.000000000000000000 ) ) ;
#831 = DIRECTION ( 'NONE',  ( -1.734723475976806848E-16, 1.000000000000000000, -1.734723475976806848E-16 ) ) ;
#832 = LINE ( 'NONE', #536, #614 ) ;
#833 = CARTESIAN_POINT ( 'NONE',  ( -45.00000000000001421, 0.2775808380624470439, 12.06431508362705252 ) ) ;
#834 = CARTESIAN_POINT ( 'NONE',  ( -45.00000000000000000, -1.662997694811398253, 12.00000000000000355 ) ) ;
#835 = EDGE_CURVE ( 'NONE', #479, #612, #870, .T. ) ;
#836 = EDGE_LOOP ( 'NONE', ( #669, #552, #775, #100 ) ) ;
#837 = CARTESIAN_POINT ( 'NONE',  ( -4.999999999999999112, 5.000000000000000000, 10.00000000000000000 ) ) ;
#838 = SPHERICAL_SURFACE ( 'NONE', #252, 2.000000000000000000 ) ;
#839 = ORIENTED_EDGE ( 'NONE', *, *, #548, .T. ) ;
#840 = EDGE_LOOP ( 'NONE', ( #588, #78, #49 ) ) ;
#841 = CIRCLE ( 'NONE', #492, 2.000000000000000000 ) ;
#842 = PRODUCT ( 'P001-B121_CrankHandle-1', 'P001-B121_CrankHandle-1', '', ( #167 ) ) ;
#843 = ORIENTED_EDGE ( 'NONE', *, *, #580, .F. ) ;
#844 = ADVANCED_FACE ( 'NONE', ( #108 ), #43, .T. ) ;
#845 = CARTESIAN_POINT ( 'NONE',  ( -45.00000000000000000, 1.662997694811400473, 12.00000000000000355 ) ) ;
#846 = DIRECTION ( 'NONE',  ( 0.000000000000000000, 0.000000000000000000, -1.000000000000000000 ) ) ;
#847 = PRODUCT_DEFINITION_SHAPE ( 'NONE', 'NONE',  #554 ) ;
#848 = ORIENTED_EDGE ( 'NONE', *, *, #284, .T. ) ;
#849 = EDGE_LOOP ( 'NONE', ( #328, #209, #85 ) ) ;
#850 = FACE_OUTER_BOUND ( 'NONE', #487, .T. ) ;
#851 = DIRECTION ( 'NONE',  ( 1.000000000000000000, -0.000000000000000000, 1.880790961315659739E-32 ) ) ;
#852 = CARTESIAN_POINT ( 'NONE',  ( -40.50311420624570502, -2.999999999999999556, 14.00000000000000178 ) ) ;
#853 = ADVANCED_FACE ( 'NONE', ( #412 ), #800, .F. ) ;
#854 = ORIENTED_EDGE ( 'NONE', *, *, #859, .T. ) ;
#855 = ORIENTED_EDGE ( 'NONE', *, *, #713, .T. ) ;
#856 = DIRECTION ( 'NONE',  ( 8.673617379884035472E-17, -1.000000000000000000, 1.734723475976806848E-16 ) ) ;
#857 = CARTESIAN_POINT ( 'NONE',  ( -45.00000000000002132, -1.385416856748952430, 12.00000000000000000 ) ) ;
#858 = OPEN_SHELL ( 'NONE', ( #477 ) ) ;
#859 = EDGE_CURVE ( 'NONE', #152, #564, #938, .T. ) ;
#860 = PLANE ( 'NONE',  #631 ) ;
#861 = VECTOR ( 'NONE', #513, 1000.000000000000000 ) ;
#862 = AXIS2_PLACEMENT_3D ( 'NONE', #32, #427, #202 ) ;
#863 = DIRECTION ( 'NONE',  ( 1.000000000000000000, 0.000000000000000000, 0.000000000000000000 ) ) ;
#864 = EDGE_CURVE ( 'NONE', #20, #345, #882, .T. ) ;
#865 = LINE ( 'NONE', #98, #371 ) ;
#866 = AXIS2_PLACEMENT_3D ( 'NONE', #706, #419, #173 ) ;
#867 = DIRECTION ( 'NONE',  ( -1.000000000000000000, 0.000000000000000000, 0.000000000000000000 ) ) ;
#868 = LINE ( 'NONE', #324, #293 ) ;
#869 = DIRECTION ( 'NONE',  ( 0.000000000000000000, 0.000000000000000000, 1.000000000000000000 ) ) ;
#870 = LINE ( 'NONE', #31, #334 ) ;
#871 = CIRCLE ( 'NONE', #433, 2.000000000000000000 ) ;
#872 = CARTESIAN_POINT ( 'NONE',  ( -4.999999999999998224, -3.000000000000000000, 12.00000000000000178 ) ) ;
#873 = AXIS2_PLACEMENT_3D ( 'NONE', #159, #441, #749 ) ;
#874 = APPLICATION_CONTEXT ( 'automotive_design' ) ;
#875 = AXIS2_PLACEMENT_3D ( 'NONE', #65, #497, #267 ) ;
#876 = FACE_OUTER_BOUND ( 'NONE', #245, .T. ) ;
#877 = CARTESIAN_POINT ( 'NONE',  ( -43.00000000000000000, 3.000000000000000000, 12.00000000000000000 ) ) ;
#878 = ORIENTED_EDGE ( 'NONE', *, *, #818, .T. ) ;
#879 = CARTESIAN_POINT ( 'NONE',  ( -4.999999999999999112, 3.000000000000000000, 10.00000000000000000 ) ) ;
#880 = CARTESIAN_POINT ( 'NONE',  ( -45.00000000000000000, 1.108692481042482969, 12.01779533667257382 ) ) ;
#881 = DIRECTION ( 'NONE',  ( 0.000000000000000000, 0.000000000000000000, -1.000000000000000000 ) ) ;
#882 = LINE ( 'NONE', #485, #157 ) ;
#883 = CARTESIAN_POINT ( 'NONE',  ( -45.00000000000000711, -0.3216735297073914368, 13.61092884611454323 ) ) ;
#884 = LINE ( 'NONE', #59, #405 ) ;
#885 = CARTESIAN_POINT ( 'NONE',  ( -2.999999999999998224, -3.000000000000000000, 10.00000000000000000 ) ) ;
#886 = AXIS2_PLACEMENT_3D ( 'NONE', #447, #224, #136 ) ;
#887 = ORIENTED_EDGE ( 'NONE', *, *, #2, .F. ) ;
#888 = DIRECTION ( 'NONE',  ( 0.000000000000000000, 1.000000000000000000, -1.734723475976806848E-16 ) ) ;
#889 = CARTESIAN_POINT ( 'NONE',  ( -4.999999999999998224, -3.000000000000000000, 10.00000000000000000 ) ) ;
#890 = EDGE_CURVE ( 'NONE', #287, #138, #506, .T. ) ;
#891 = AXIS2_PLACEMENT_3D ( 'NONE', #288, #964, #846 ) ;
#892 = CARTESIAN_POINT ( 'NONE',  ( -40.50311420624570502, 2.428612866367529932E-15, 64.00000000000000000 ) ) ;
#893 = EDGE_LOOP ( 'NONE', ( #326, #458, #906, #771 ) ) ;
#894 = PLANE ( 'NONE',  #106 ) ;
#895 = SPHERICAL_SURFACE ( 'NONE', #759, 2.000000000000000000 ) ;
#896 = ADVANCED_FACE ( 'NONE', ( #957 ), #56, .T. ) ;
#897 = ADVANCED_FACE ( 'NONE', ( #587 ), #898, .T. ) ;
#898 = CYLINDRICAL_SURFACE ( 'NONE', #187, 2.000000000000000000 ) ;
#899 = CARTESIAN_POINT ( 'NONE',  ( -45.00000000000000000, -3.122502256758252376E-15, 12.00000000000000355 ) ) ;
#900 = ORIENTED_EDGE ( 'NONE', *, *, #268, .T. ) ;
#901 = ORIENTED_EDGE ( 'NONE', *, *, #111, .F. ) ;
#902 = DIRECTION ( 'NONE',  ( 0.000000000000000000, 0.000000000000000000, 1.000000000000000000 ) ) ;
#903 = CARTESIAN_POINT ( 'NONE',  ( -2.999999999999995559, -5.000000000000000000, 12.00000000000000178 ) ) ;
#904 = CARTESIAN_POINT ( 'NONE',  ( 2.600000000000000089, -2.599999999999999201, 0.000000000000000000 ) ) ;
#905 = CARTESIAN_POINT ( 'NONE',  ( 3.000000000000002665, 3.000000000000000444, 14.00000000000000000 ) ) ;
#906 = ORIENTED_EDGE ( 'NONE', *, *, #864, .F. ) ;
#907 = EDGE_CURVE ( 'NONE', #363, #589, #239, .T. ) ;
#908 = VERTEX_POINT ( 'NONE', #331 ) ;
#909 = DIRECTION ( 'NONE',  ( 1.000000000000000000, -1.668003342285391551E-16, 0.000000000000000000 ) ) ;
#910 = ORIENTED_EDGE ( 'NONE', *, *, #53, .F. ) ;
#911 = AXIS2_PLACEMENT_3D ( 'NONE', #971, #117, #420 ) ;
#912 = CARTESIAN_POINT ( 'NONE',  ( -43.00000000000000000, 4.999999999999992895, 10.00000000000000000 ) ) ;
#913 = LINE ( 'NONE', #683, #546 ) ;
#914 = VERTEX_POINT ( 'NONE', #523 ) ;
#915 = DIRECTION ( 'NONE',  ( -8.673617379884035472E-17, 1.000000000000000000, 0.000000000000000000 ) ) ;
#916 = CARTESIAN_POINT ( 'NONE',  ( -45.00000000000000000, 1.385416856748954650, 11.99999999999999822 ) ) ;
#917 = EDGE_LOOP ( 'NONE', ( #171, #21, #370, #815 ) ) ;
#918 = DIRECTION ( 'NONE',  ( 0.000000000000000000, 0.000000000000000000, 1.000000000000000000 ) ) ;
#919 = ORIENTED_EDGE ( 'NONE', *, *, #364, .F. ) ;
#920 = DIRECTION ( 'NONE',  ( 0.000000000000000000, -1.734723475976806601E-16, -1.000000000000000000 ) ) ;
#921 = ORIENTED_EDGE ( 'NONE', *, *, #314, .T. ) ;
#922 = EDGE_CURVE ( 'NONE', #475, #426, #748, .T. ) ;
#923 = ORIENTED_EDGE ( 'NONE', *, *, #413, .F. ) ;
#924 = EDGE_LOOP ( 'NONE', ( #395 ) ) ;
#925 = VECTOR ( 'NONE', #42, 1000.000000000000000 ) ;
#926 = VERTEX_POINT ( 'NONE', #677 ) ;
#927 = EDGE_CURVE ( 'NONE', #930, #479, #600, .T. ) ;
#928 = CARTESIAN_POINT ( 'NONE',  ( 3.000000000000000888, 3.000000000000000000, 0.000000000000000000 ) ) ;
#929 = VERTEX_POINT ( 'NONE', #149 ) ;
#930 = VERTEX_POINT ( 'NONE', #141 ) ;
#931 = CARTESIAN_POINT ( 'NONE',  ( -4.999999999999998224, -5.000000000000000000, 0.000000000000000000 ) ) ;
#932 = EDGE_CURVE ( 'NONE', #634, #190, #301, .T. ) ;
#933 = EDGE_CURVE ( 'NONE', #634, #241, #90, .T. ) ;
#934 = CARTESIAN_POINT ( 'NONE',  ( -43.00000000000000000, -3.000000000000000000, 12.00000000000000178 ) ) ;
#935 = ADVANCED_FACE ( 'NONE', ( #7 ), #453, .T. ) ;
#936 = CARTESIAN_POINT ( 'NONE',  ( -45.00000000000000000, -3.000000000000000444, 12.00000000000000355 ) ) ;
#937 = CIRCLE ( 'NONE', #168, 2.000000000000000000 ) ;
#938 = LINE ( 'NONE', #238, #188 ) ;
#939 = ORIENTED_EDGE ( 'NONE', *, *, #933, .F. ) ;
#940 = ORIENTED_EDGE ( 'NONE', *, *, #835, .F. ) ;
#941 = DIRECTION ( 'NONE',  ( 0.000000000000000000, -1.000000000000000000, 0.000000000000000000 ) ) ;
#942 = STYLED_ITEM ( 'NONE', ( #685 ), #618 ) ;
#943 = VECTOR ( 'NONE', #831, 1000.000000000000000 ) ;
#944 = EDGE_CURVE ( 'NONE', #286, #46, #212, .T. ) ;
#945 = ORIENTED_EDGE ( 'NONE', *, *, #698, .T. ) ;
#946 = ORIENTED_EDGE ( 'NONE', *, *, #981, .T. ) ;
#947 = ORIENTED_EDGE ( 'NONE', *, *, #687, .T. ) ;
#948 = FACE_OUTER_BOUND ( 'NONE', #990, .T. ) ;
#949 = FACE_OUTER_BOUND ( 'NONE', #968, .T. ) ;
#950 = EDGE_CURVE ( 'NONE', #620, #914, #665, .T. ) ;
#951 = DIRECTION ( 'NONE',  ( -1.668003342285391551E-16, -1.000000000000000000, 0.000000000000000000 ) ) ;
#952 = DIRECTION ( 'NONE',  ( 0.000000000000000000, -1.000000000000000000, 1.734723475976806848E-16 ) ) ;
#953 = EDGE_LOOP ( 'NONE', ( #854, #519, #578, #97 ) ) ;
#954 = DIRECTION ( 'NONE',  ( -0.000000000000000000, -0.000000000000000000, -1.000000000000000000 ) ) ;
#955 = AXIS2_PLACEMENT_3D ( 'NONE', #131, #652, #501 ) ;
#956 = ADVANCED_FACE ( 'NONE', ( #593 ), #691, .F. ) ;
#957 = FACE_OUTER_BOUND ( 'NONE', #917, .T. ) ;
#958 = DIRECTION ( 'NONE',  ( 0.000000000000000000, 0.000000000000000000, 1.000000000000000000 ) ) ;
#959 = VERTEX_POINT ( 'NONE', #615 ) ;
#960 = DIRECTION ( 'NONE',  ( -0.000000000000000000, -0.000000000000000000, 1.000000000000000000 ) ) ;
#961 = AXIS2_PLACEMENT_3D ( 'NONE', #784, #793, #571 ) ;
#962 = CARTESIAN_POINT ( 'NONE',  ( -44.99999999999999289, 1.662997694811401361, 14.00000000000000533 ) ) ;
#963 = EDGE_LOOP ( 'NONE', ( #178, #794, #947 ) ) ;
#964 = DIRECTION ( 'NONE',  ( -1.000000000000000000, -0.000000000000000000, -1.880790961315659739E-32 ) ) ;
#965 = CARTESIAN_POINT ( 'NONE',  ( 15.77032961426901103, 5.000000000000003553, 14.00000000000000000 ) ) ;
#966 = DIRECTION ( 'NONE',  ( -8.673617379884035472E-17, 1.000000000000000000, -1.734723475976806848E-16 ) ) ;
#967 = CARTESIAN_POINT ( 'NONE',  ( -43.00000000000000000, 1.662997694811401805, 13.99999999999999822 ) ) ;
#968 = EDGE_LOOP ( 'NONE', ( #737, #878, #69, #756 ) ) ;
#969 = LINE ( 'NONE', #752, #601 ) ;
#970 = SPHERICAL_SURFACE ( 'NONE', #695, 4.000000000000006217 ) ;
#971 = CARTESIAN_POINT ( 'NONE',  ( -2.999999999999999112, 3.000000000000000000, 10.00000000000000000 ) ) ;
#972 = AXIS2_PLACEMENT_3D ( 'NONE', #642, #409, #952 ) ;
#973 = FACE_OUTER_BOUND ( 'NONE', #13, .T. ) ;
#974 = EDGE_CURVE ( 'NONE', #426, #634, #832, .T. ) ;
#975 = CARTESIAN_POINT ( 'NONE',  ( -2.999999999999998224, -5.000000000000000000, 10.00000000000000000 ) ) ;
#976 = EDGE_CURVE ( 'NONE', #758, #241, #145, .T. ) ;
#977 = CARTESIAN_POINT ( 'NONE',  ( -44.99999999999999289, -1.476860973820851797, 13.87602759566762423 ) ) ;
#978 = CIRCLE ( 'NONE', #866, 3.000000000000002665 ) ;
#979 = FACE_OUTER_BOUND ( 'NONE', #62, .T. ) ;
#980 = CARTESIAN_POINT ( 'NONE',  ( 3.000000000000000888, 5.000000000000000000, 12.00000000000000000 ) ) ;
#981 = EDGE_CURVE ( 'NONE', #241, #265, #305, .T. ) ;
#982 = DIRECTION ( 'NONE',  ( 0.000000000000000000, -0.000000000000000000, -1.000000000000000000 ) ) ;
#983 = CARTESIAN_POINT ( 'NONE',  ( -2.999999999999999112, 5.000000000000000000, 10.00000000000000000 ) ) ;
#984 = VERTEX_POINT ( 'NONE', #904 ) ;
#985 = DIRECTION ( 'NONE',  ( 0.000000000000000000, 0.000000000000000000, -1.000000000000000000 ) ) ;
#986 = DIRECTION ( 'NONE',  ( 1.734723475976806848E-16, -1.000000000000000000, 0.000000000000000000 ) ) ;
#987 = EDGE_CURVE ( 'NONE', #161, #459, #913, .T. ) ;
#988 = CARTESIAN_POINT ( 'NONE',  ( 5.000000000000000888, 3.000000000000000000, 10.00000000000000000 ) ) ;
#989 = DIRECTION ( 'NONE',  ( 8.673617379884035472E-17, -1.000000000000000000, 0.000000000000000000 ) ) ;
#990 = EDGE_LOOP ( 'NONE', ( #839, #921, #502, #176 ) ) ;
#991 = VECTOR ( 'NONE', #362, 1000.000000000000000 ) ;
#992 = CARTESIAN_POINT ( 'NONE',  ( 3.000000000000001776, -3.000000000000000000, 12.00000000000000178 ) ) ;
#993 = SPHERICAL_SURFACE ( 'NONE', #397, 2.000000000000000000 ) ;
ENDSEC;
END-ISO-10303-21;
