ISO-10303-21;
HEADER;
FILE_DESCRIPTION (( 'STEP AP214' ),
    '1' );
FILE_NAME ('P001-B125_LED Lid REV2_2.STEP',
    '2026-05-16T15:32:03',
    ( '' ),
    ( '' ),
    'SwSTEP 2.0',
    'SolidWorks 2026',
    '' );
FILE_SCHEMA (( 'AUTOMOTIVE_DESIGN' ));
ENDSEC;

DATA;
#1 = DIRECTION ( 'NONE',  ( 0.000000000000000000, -1.216532230151069192E-16, 1.000000000000000000 ) ) ;
#2 = ORIENTED_EDGE ( 'NONE', *, *, #520, .T. ) ;
#3 = APPLICATION_PROTOCOL_DEFINITION ( 'draft international standard', 'automotive_design', 1998, #241 ) ;
#4 = DIRECTION ( 'NONE',  ( 1.000000000000000000, 0.000000000000000000, 0.000000000000000000 ) ) ;
#5 = ORIENTED_EDGE ( 'NONE', *, *, #288, .T. ) ;
#6 =( LENGTH_UNIT ( ) NAMED_UNIT ( * ) SI_UNIT ( .MILLI., .METRE. ) );
#7 = ADVANCED_FACE ( 'NONE', ( #413 ), #330, .F. ) ;
#8 = FACE_BOUND ( 'NONE', #60, .T. ) ;
#9 = VECTOR ( 'NONE', #323, 1000.000000000000000 ) ;
#10 = ORIENTED_EDGE ( 'NONE', *, *, #326, .T. ) ;
#11 = ORIENTED_EDGE ( 'NONE', *, *, #172, .T. ) ;
#12 = VERTEX_POINT ( 'NONE', #52 ) ;
#13 = CARTESIAN_POINT ( 'NONE',  ( 1.317750111050671524, 8.313877226073939752, 5.400011999999997592 ) ) ;
#14 = AXIS2_PLACEMENT_3D ( 'NONE', #73, #519, #164 ) ;
#15 = CARTESIAN_POINT ( 'NONE',  ( -21.55689707786714493, 10.69468259645732289, 2.600000000000004974 ) ) ;
#16 = ORIENTED_EDGE ( 'NONE', *, *, #197, .T. ) ;
#17 = EDGE_CURVE ( 'NONE', #498, #361, #403, .T. ) ;
#18 = VERTEX_POINT ( 'NONE', #293 ) ;
#19 = CARTESIAN_POINT ( 'NONE',  ( -20.18605010699806357, -8.791493182611381130, 2.600000000000003642 ) ) ;
#20 = B_SPLINE_CURVE_WITH_KNOTS ( 'NONE', 3,
 ( #508, #107, #430, #216, #61, #391, #433, #230, #191, #395, #34, #503, #193, #513, #219, #151, #386, #142 ),
 .UNSPECIFIED., .F., .F.,
 ( 4, 2, 2, 2, 2, 2, 2, 2, 4 ),
 ( 0.5000000000000000000, 0.5625000000000000000, 0.6250000000000000000, 0.6875000000000000000, 0.7500000000000000000, 0.8125000000000000000, 0.8750000000000000000, 0.9375000000000000000, 1.000000000000000000 ),
 .UNSPECIFIED. ) ;
#21 = CIRCLE ( 'NONE', #229, 0.7500000000000006661 ) ;
#22 = ORIENTED_EDGE ( 'NONE', *, *, #80, .T. ) ;
#23 = CARTESIAN_POINT ( 'NONE',  ( -2.376229031547369530, 6.783780966086494502, 5.400011999999998480 ) ) ;
#24 = CARTESIAN_POINT ( 'NONE',  ( -1.940464445872029486, 4.593044455251006575, 5.400011999999997592 ) ) ;
#25 = CARTESIAN_POINT ( 'NONE',  ( 20.41007633280634082, 10.69468259645732289, 2.600000000000004974 ) ) ;
#26 = ADVANCED_FACE ( 'NONE', ( #248 ), #332, .T. ) ;
#27 = CARTESIAN_POINT ( 'NONE',  ( -20.18605010699806357, -8.791493182611381130, 2.600000000000002753 ) ) ;
#28 = PRODUCT ( 'P001-B125_LED Lid REV2_2', 'P001-B125_LED Lid REV2_2', '', ( #324 ) ) ;
#29 = CARTESIAN_POINT ( 'NONE',  ( 2.476796725414867950, -5.466223788783511672, 5.400011999999998480 ) ) ;
#30 = DIRECTION ( 'NONE',  ( 0.000000000000000000, -1.000000000000000000, 0.000000000000000000 ) ) ;
#31 = CARTESIAN_POINT ( 'NONE',  ( -2.125763310762224911, 7.388458706115541119, 5.400011999999997592 ) ) ;
#32 = CARTESIAN_POINT ( 'NONE',  ( -2.125763310762224023, 4.870363804261048202, 5.400011999999998480 ) ) ;
#33 = AXIS2_PLACEMENT_3D ( 'NONE', #83, #245, #319 ) ;
#34 = CARTESIAN_POINT ( 'NONE',  ( 0.6962347446422788577, -8.555525191352504777, 5.400011999999997592 ) ) ;
#35 = CARTESIAN_POINT ( 'NONE',  ( 0.05870266012342195694, 6.129411255188294660, 5.400011999999997592 ) ) ;
#36 = PRODUCT_DEFINITION ( 'UNKNOWN', '', #509, #349 ) ;
#37 = FILL_AREA_STYLE ('',( #278 ) ) ;
#38 = DIRECTION ( 'NONE',  ( -1.000000000000000000, 0.000000000000000000, -0.000000000000000000 ) ) ;
#39 = CARTESIAN_POINT ( 'NONE',  ( -20.18605010699806357, -8.791493182611381130, 2.600000000000002753 ) ) ;
#40 = DIRECTION ( 'NONE',  ( 0.000000000000000000, -1.000000000000000000, -1.734723475976806108E-16 ) ) ;
#41 = CARTESIAN_POINT ( 'NONE',  ( -22.09389689439121085, -0.06445232732959008115, 2.600000000000003642 ) ) ;
#42 = FACE_OUTER_BOUND ( 'NONE', #215, .T. ) ;
#43 = ORIENTED_EDGE ( 'NONE', *, *, #80, .F. ) ;
#44 = CARTESIAN_POINT ( 'NONE',  ( -21.78462235185353180, -10.23489388909494835, 3.519577414724754494 ) ) ;
#45 = CARTESIAN_POINT ( 'NONE',  ( 20.41007633280634082, -9.294682596457327861, 5.399999999999995914 ) ) ;
#46 = CARTESIAN_POINT ( 'NONE',  ( -21.55689707786714493, -10.69468259645732289, 2.600000000000002309 ) ) ;
#47 = B_SPLINE_CURVE_WITH_KNOTS ( 'NONE', 3,
 ( #273, #186, #29, #271, #382, #511, #424, #188, #308, #103, #389, #347, #420, #101, #428, #470, #109, #226 ),
 .UNSPECIFIED., .F., .F.,
 ( 4, 2, 2, 2, 2, 2, 2, 2, 4 ),
 ( 0.000000000000000000, 0.06250000000000001388, 0.1250000000000000278, 0.1875000000000000555, 0.2500000000000000000, 0.3124999999999999445, 0.3749999999999999445, 0.4375000000000000000, 0.5000000000000000000 ),
 .UNSPECIFIED. ) ;
#48 = VECTOR ( 'NONE', #265, 1000.000000000000000 ) ;
#49 = CIRCLE ( 'NONE', #485, 2.500000000000001332 ) ;
#50 = ORIENTED_EDGE ( 'NONE', *, *, #261, .T. ) ;
#51 = FACE_OUTER_BOUND ( 'NONE', #423, .T. ) ;
#52 = CARTESIAN_POINT ( 'NONE',  ( 2.541865033744079572, -6.120593499681714178, 2.600000000000002753 ) ) ;
#53 = ORIENTED_EDGE ( 'NONE', *, *, #467, .T. ) ;
#54 = CIRCLE ( 'NONE', #417, 0.7500000000000006661 ) ;
#55 = EDGE_LOOP ( 'NONE', ( #338, #211, #260, #405 ) ) ;
#56 = CARTESIAN_POINT ( 'NONE',  ( 2.558702660123423289, 6.129411255188294660, 5.400011999999997592 ) ) ;
#57 = VERTEX_POINT ( 'NONE', #491 ) ;
#58 = DIRECTION ( 'NONE',  ( 0.000000000000000000, 0.000000000000000000, -1.000000000000000000 ) ) ;
#59 = CARTESIAN_POINT ( 'NONE',  ( 2.243168631009067937, 4.870363804261046425, 5.400011999999997592 ) ) ;
#60 = EDGE_LOOP ( 'NONE', ( #483, #378 ) ) ;
#61 = CARTESIAN_POINT ( 'NONE',  ( -1.957302072251371206, -7.656960299618999599, 5.400011999999997592 ) ) ;
#62 = DIRECTION ( 'NONE',  ( -0.000000000000000000, 1.216532230151069192E-16, -1.000000000000000000 ) ) ;
#63 = CIRCLE ( 'NONE', #363, 0.7500000000000006661 ) ;
#64 = CIRCLE ( 'NONE', #374, 24.09643420568034955 ) ;
#65 = CARTESIAN_POINT ( 'NONE',  ( 0.05870266012342195694, 6.129411255188294660, 5.400011999999997592 ) ) ;
#66 = DIRECTION ( 'NONE',  ( 0.000000000000000000, 0.000000000000000000, -1.000000000000000000 ) ) ;
#67 = CARTESIAN_POINT ( 'NONE',  ( -1.477664139813868571, 8.128578361183745216, 5.400011999999997592 ) ) ;
#68 = DIRECTION ( 'NONE',  ( 8.890457814381132415E-16, -1.000000000000000000, -1.734723475976806108E-16 ) ) ;
#69 = CARTESIAN_POINT ( 'NONE',  ( -2.441297339876579819, 6.129411255188293772, 5.400005999999996753 ) ) ;
#70 = AXIS2_PLACEMENT_3D ( 'NONE', #472, #439, #79 ) ;
#71 = DIRECTION ( 'NONE',  ( -0.000000000000000000, 1.216532230151069192E-16, -1.000000000000000000 ) ) ;
#72 = EDGE_CURVE ( 'NONE', #361, #168, #129, .T. ) ;
#73 = CARTESIAN_POINT ( 'NONE',  ( -20.25380977742650757, 8.677126526396104822, 2.600000000000004530 ) ) ;
#74 = CARTESIAN_POINT ( 'NONE',  ( 2.541865033744079572, -6.120593499681714178, 5.400011999999997592 ) ) ;
#75 = LINE ( 'NONE', #314, #341 ) ;
#76 = DIRECTION ( 'NONE',  ( -0.000000000000000000, 1.216532230151069192E-16, -1.000000000000000000 ) ) ;
#77 = DIRECTION ( 'NONE',  ( 0.000000000000000000, 0.000000000000000000, -1.000000000000000000 ) ) ;
#78 = VERTEX_POINT ( 'NONE', #447 ) ;
#79 = DIRECTION ( 'NONE',  ( 1.000000000000000000, 0.000000000000000000, 6.938893903907222067E-15 ) ) ;
#80 = EDGE_CURVE ( 'NONE', #475, #381, #49, .T. ) ;
#81 = DIRECTION ( 'NONE',  ( 0.000000000000000000, -1.000000000000000000, -1.259840380135488593E-16 ) ) ;
#82 = FACE_BOUND ( 'NONE', #299, .T. ) ;
#83 = CARTESIAN_POINT ( 'NONE',  ( 20.41007633280634082, 9.294682596457326085, 5.399999999999998579 ) ) ;
#84 = VERTEX_POINT ( 'NONE', #45 ) ;
#85 = ORIENTED_EDGE ( 'NONE', *, *, #131, .F. ) ;
#86 = ORIENTED_EDGE ( 'NONE', *, *, #17, .T. ) ;
#87 = FACE_BOUND ( 'NONE', #100, .T. ) ;
#88 = VECTOR ( 'NONE', #147, 1000.000000000000000 ) ;
#89 = PRODUCT_RELATED_PRODUCT_CATEGORY ( 'part', '', ( #28 ) ) ;
#90 = EDGE_LOOP ( 'NONE', ( #495, #202 ) ) ;
#91 = DIRECTION ( 'NONE',  ( 8.890457814381132415E-16, -1.000000000000000000, -1.734723475976806108E-16 ) ) ;
#92 = ORIENTED_EDGE ( 'NONE', *, *, #72, .T. ) ;
#93 = ADVANCED_FACE ( 'NONE', ( #87, #442, #82, #8, #412, #251 ), #410, .F. ) ;
#94 = ORIENTED_EDGE ( 'NONE', *, *, #254, .F. ) ;
#95 = CIRCLE ( 'NONE', #14, 0.7500000000000006661 ) ;
#96 = CARTESIAN_POINT ( 'NONE',  ( -2.458134966255921317, -6.120593499681714178, 5.400011999999997592 ) ) ;
#97 = ORIENTED_EDGE ( 'NONE', *, *, #295, .F. ) ;
#98 = LINE ( 'NONE', #310, #88 ) ;
#99 = CARTESIAN_POINT ( 'NONE',  ( 0.04186503374407901656, -6.120593499681714178, 2.600000000000002753 ) ) ;
#100 = EDGE_LOOP ( 'NONE', ( #43, #284 ) ) ;
#101 = CARTESIAN_POINT ( 'NONE',  ( -1.957302072251372982, -4.584226699744429645, 5.400011999999997592 ) ) ;
#102 = CARTESIAN_POINT ( 'NONE',  ( -20.18605010699806357, -8.041493182611381130, 2.600000000000002753 ) ) ;
#103 = CARTESIAN_POINT ( 'NONE',  ( -0.2853842010048583955, -3.620593499681715066, 5.400011999999999368 ) ) ;
#104 = CIRCLE ( 'NONE', #256, 0.7499999999999997780 ) ;
#105 = CARTESIAN_POINT ( 'NONE',  ( -20.18605010699806357, -9.541493182611382906, 2.600000000000002753 ) ) ;
#106 = AXIS2_PLACEMENT_3D ( 'NONE', #516, #192, #512 ) ;
#107 = CARTESIAN_POINT ( 'NONE',  ( -2.458134966255920872, -6.447842734430652811, 5.400011999999998480 ) ) ;
#108 = CARTESIAN_POINT ( 'NONE',  ( 20.41007633280634082, -10.69468259645732289, 2.600000000000002309 ) ) ;
#109 = CARTESIAN_POINT ( 'NONE',  ( -2.458134966255920872, -5.793344264932778209, 5.400011999999998480 ) ) ;
#110 = EDGE_CURVE ( 'NONE', #498, #84, #257, .T. ) ;
#111 = DIRECTION ( 'NONE',  ( 6.328174613322007259E-15, 2.846481103571144779E-15, -1.000000000000000000 ) ) ;
#112 = DIRECTION ( 'NONE',  ( -0.000000000000000000, -0.4472135954999574836, -0.8944271909999160775 ) ) ;
#113 = MECHANICAL_DESIGN_GEOMETRIC_PRESENTATION_REPRESENTATION (  '', ( #204 ), #242 ) ;
#114 = CARTESIAN_POINT ( 'NONE',  ( 0.04186503374407901656, -6.120593499681714178, 5.400011999999997592 ) ) ;
#115 = EDGE_LOOP ( 'NONE', ( #119, #158, #137, #10, #247 ) ) ;
#116 = CARTESIAN_POINT ( 'NONE',  ( 0.04186503374407901656, -6.120593499681714178, 2.600000000000002753 ) ) ;
#117 = DIRECTION ( 'NONE',  ( -0.000000000000000000, -0.000000000000000000, -1.000000000000000000 ) ) ;
#118 = ADVANCED_FACE ( 'NONE', ( #51 ), #235, .T. ) ;
#119 = ORIENTED_EDGE ( 'NONE', *, *, #197, .F. ) ;
#120 = CARTESIAN_POINT ( 'NONE',  ( 20.41007633280634082, 0.000000000000000000, 0.000000000000000000 ) ) ;
#121 = LINE ( 'NONE', #286, #222 ) ;
#122 = ORIENTED_EDGE ( 'NONE', *, *, #499, .F. ) ;
#123 = CARTESIAN_POINT ( 'NONE',  ( -21.78462235185353180, 10.23489388909494124, 3.519577414724763376 ) ) ;
#124 = CARTESIAN_POINT ( 'NONE',  ( -22.19546549735816043, -9.294682596457326085, 5.399999999999998579 ) ) ;
#125 =( GEOMETRIC_REPRESENTATION_CONTEXT ( 3 ) GLOBAL_UNCERTAINTY_ASSIGNED_CONTEXT ( ( #367 ) ) GLOBAL_UNIT_ASSIGNED_CONTEXT ( ( #6, #402, #292 ) ) REPRESENTATION_CONTEXT ( 'NONE', 'WORKASPACE' ) );
#126 = EDGE_LOOP ( 'NONE', ( #263, #515, #212, #436 ) ) ;
#127 = ORIENTED_EDGE ( 'NONE', *, *, #451, .T. ) ;
#128 = EDGE_LOOP ( 'NONE', ( #199, #176, #92, #16 ) ) ;
#129 =( BOUNDED_CURVE ( )  B_SPLINE_CURVE ( 3, ( #210, #372, #123, #15 ),
 .UNSPECIFIED., .F., .T. ) 
 B_SPLINE_CURVE_WITH_KNOTS ( ( 4, 4 ),
 ( 5.108386331324390461, 5.172255426177414961 ),
 .UNSPECIFIED. ) 
 CURVE ( )  GEOMETRIC_REPRESENTATION_ITEM ( )  RATIONAL_B_SPLINE_CURVE ( ( 1.000000000000000000, 0.9996600904487747963, 0.9996600904487747963, 1.000000000000000000 ) ) 
 REPRESENTATION_ITEM ( '' )  );
#130 = DIRECTION ( 'NONE',  ( 0.000000000000000000, 0.000000000000000000, -1.000000000000000000 ) ) ;
#131 = EDGE_CURVE ( 'NONE', #305, #327, #63, .T. ) ;
#132 = CARTESIAN_POINT ( 'NONE',  ( 20.41007633280634082, 9.294682596457326085, 5.399999999999998579 ) ) ;
#133 = AXIS2_PLACEMENT_3D ( 'NONE', #471, #1, #81 ) ;
#134 = VERTEX_POINT ( 'NONE', #435 ) ;
#135 = EDGE_CURVE ( 'NONE', #298, #181, #175, .T. ) ;
#136 = EDGE_LOOP ( 'NONE', ( #203, #480, #502, #86, #94 ) ) ;
#137 = ORIENTED_EDGE ( 'NONE', *, *, #377, .F. ) ;
#138 = DIRECTION ( 'NONE',  ( -1.000000000000000000, -0.000000000000000000, -0.000000000000000000 ) ) ;
#139 = ORIENTED_EDGE ( 'NONE', *, *, #270, .T. ) ;
#140 = CARTESIAN_POINT ( 'NONE',  ( 0.7130723710216223532, 3.694479563517504950, 5.400011999999998480 ) ) ;
#141 = ORIENTED_EDGE ( 'NONE', *, *, #110, .T. ) ;
#142 = CARTESIAN_POINT ( 'NONE',  ( 2.541865033744078683, -6.120593499681713290, 5.400005999999996753 ) ) ;
#143 = LINE ( 'NONE', #56, #48 ) ;
#144 = PLANE ( 'NONE',  #497 ) ;
#145 = CARTESIAN_POINT ( 'NONE',  ( 2.057869766118874288, 7.665778055125581858, 5.400011999999997592 ) ) ;
#146 = AXIS2_PLACEMENT_3D ( 'NONE', #120, #38, #237 ) ;
#147 = DIRECTION ( 'NONE',  ( -0.000000000000000000, 1.000000000000000000, 1.216532230151069192E-16 ) ) ;
#148 = CARTESIAN_POINT ( 'NONE',  ( 1.317750111050670414, 3.944945284302648236, 5.400011999999998480 ) ) ;
#149 = CARTESIAN_POINT ( 'NONE',  ( -1.200344790803826722, 8.313877226073939752, 5.400011999999998480 ) ) ;
#150 = DIRECTION ( 'NONE',  ( 0.9119860745757595311, 0.4102211595955251311, 6.938893903907216545E-15 ) ) ;
#151 = CARTESIAN_POINT ( 'NONE',  ( 2.476796725414869282, -6.774963210579912243, 5.400011999999998480 ) ) ;
#152 = CYLINDRICAL_SURFACE ( 'NONE', #253, 2.500000000000001332 ) ;
#153 =( LENGTH_UNIT ( ) NAMED_UNIT ( * ) SI_UNIT ( .MILLI., .METRE. ) );
#154 = VECTOR ( 'NONE', #302, 1000.000000000000000 ) ;
#155 = CARTESIAN_POINT ( 'NONE',  ( 0.05870266012342195694, 6.129411255188294660, 2.600000000000004530 ) ) ;
#156 = ADVANCED_FACE ( 'NONE', ( #396 ), #152, .F. ) ;
#157 = PLANE ( 'NONE',  #426 ) ;
#158 = ORIENTED_EDGE ( 'NONE', *, *, #414, .F. ) ;
#159 = FACE_OUTER_BOUND ( 'NONE', #160, .T. ) ;
#160 = EDGE_LOOP ( 'NONE', ( #336, #207, #462, #50 ) ) ;
#161 = FACE_BOUND ( 'NONE', #444, .T. ) ;
#162 = DIRECTION ( 'NONE',  ( 0.000000000000000000, -1.000000000000000000, -1.216532230151069192E-16 ) ) ;
#163 = CIRCLE ( 'NONE', #455, 2.500000000000001332 ) ;
#164 = DIRECTION ( 'NONE',  ( 0.000000000000000000, -1.000000000000000000, 0.000000000000000000 ) ) ;
#165 = AXIS2_PLACEMENT_3D ( 'NONE', #359, #169, #366 ) ;
#166 = ORIENTED_EDGE ( 'NONE', *, *, #183, .T. ) ;
#167 = ADVANCED_FACE ( 'NONE', ( #398 ), #325, .F. ) ;
#168 = VERTEX_POINT ( 'NONE', #481 ) ;
#169 = DIRECTION ( 'NONE',  ( -0.000000000000000000, 1.216532230151069192E-16, -1.000000000000000000 ) ) ;
#170 = DIRECTION ( 'NONE',  ( -1.000000000000000000, 0.000000000000000000, 0.000000000000000000 ) ) ;
#171 = VERTEX_POINT ( 'NONE', #437 ) ;
#172 = EDGE_CURVE ( 'NONE', #134, #12, #194, .T. ) ;
#173 = CIRCLE ( 'NONE', #133, 24.09643420568034955 ) ;
#174 = CARTESIAN_POINT ( 'NONE',  ( 0.04186503374407901656, -6.120593499681714178, 5.400011999999997592 ) ) ;
#175 = CIRCLE ( 'NONE', #335, 24.09643420568034955 ) ;
#176 = ORIENTED_EDGE ( 'NONE', *, *, #254, .T. ) ;
#177 = VERTEX_POINT ( 'NONE', #354 ) ;
#178 =( BOUNDED_CURVE ( )  B_SPLINE_CURVE ( 3, ( #46, #44, #282, #124 ),
 .UNSPECIFIED., .F., .F. ) 
 B_SPLINE_CURVE_WITH_KNOTS ( ( 4, 4 ),
 ( 1.110929881002171271, 1.174798975855195993 ),
 .UNSPECIFIED. ) 
 CURVE ( )  GEOMETRIC_REPRESENTATION_ITEM ( )  RATIONAL_B_SPLINE_CURVE ( ( 1.000000000000000000, 0.9996600904487747963, 0.9996600904487747963, 1.000000000000000000 ) ) 
 REPRESENTATION_ITEM ( '' )  );
#179 = CARTESIAN_POINT ( 'NONE',  ( 2.558702660123423733, 6.456660489937231517, 5.400011999999998480 ) ) ;
#180 = AXIS2_PLACEMENT_3D ( 'NONE', #99, #62, #68 ) ;
#181 = VERTEX_POINT ( 'NONE', #474 ) ;
#182 = FACE_OUTER_BOUND ( 'NONE', #494, .T. ) ;
#183 = EDGE_CURVE ( 'NONE', #482, #171, #385, .T. ) ;
#184 = VECTOR ( 'NONE', #138, 1000.000000000000000 ) ;
#185 = DIRECTION ( 'NONE',  ( 1.000000000000000000, 0.000000000000000000, 0.000000000000000000 ) ) ;
#186 = CARTESIAN_POINT ( 'NONE',  ( 2.541865033744080016, -5.793344264932777321, 5.400012000000000256 ) ) ;
#187 = CARTESIAN_POINT ( 'NONE',  ( -22.19546549735816043, 9.294682596457326085, 5.399999999999998579 ) ) ;
#188 = CARTESIAN_POINT ( 'NONE',  ( 0.6962347446422797459, -3.685661808010925800, 5.400011999999997592 ) ) ;
#189 = LINE ( 'NONE', #225, #301 ) ;
#190 = ADVANCED_FACE ( 'NONE', ( #279 ), #196, .T. ) ;
#191 = CARTESIAN_POINT ( 'NONE',  ( -0.2853842010048572853, -8.620593499681714178, 5.400011999999997592 ) ) ;
#192 = DIRECTION ( 'NONE',  ( 0.000000000000000000, -1.216532230151069192E-16, 1.000000000000000000 ) ) ;
#193 = CARTESIAN_POINT ( 'NONE',  ( 1.578231833681366769, -8.119760605677164733, 5.400011999999997592 ) ) ;
#194 = LINE ( 'NONE', #74, #492 ) ;
#195 = SURFACE_STYLE_FILL_AREA ( #37 ) ;
#196 = CYLINDRICAL_SURFACE ( 'NONE', #334, 24.09643420568034955 ) ;
#197 = EDGE_CURVE ( 'NONE', #168, #482, #173, .T. ) ;
#198 = DIRECTION ( 'NONE',  ( -0.000000000000000000, 1.216532230151069192E-16, -1.000000000000000000 ) ) ;
#199 = ORIENTED_EDGE ( 'NONE', *, *, #246, .F. ) ;
#200 = DIRECTION ( 'NONE',  ( -0.000000000000000000, 1.216532230151069192E-16, -1.000000000000000000 ) ) ;
#201 = ORIENTED_EDGE ( 'NONE', *, *, #224, .T. ) ;
#202 = ORIENTED_EDGE ( 'NONE', *, *, #460, .T. ) ;
#203 = ORIENTED_EDGE ( 'NONE', *, *, #135, .F. ) ;
#204 = STYLED_ITEM ( 'NONE', ( #518 ), #453 ) ;
#205 = DIRECTION ( 'NONE',  ( 1.000000000000000000, 0.000000000000000000, 0.000000000000000000 ) ) ;
#206 = CLOSED_SHELL ( 'NONE', ( #393, #7, #26, #479, #371, #214, #93, #507, #190, #422, #118, #355, #167, #156 ) ) ;
#207 = ORIENTED_EDGE ( 'NONE', *, *, #326, .F. ) ;
#208 = UNCERTAINTY_MEASURE_WITH_UNIT (LENGTH_MEASURE( 1.000000000000000082E-05 ), #153, 'distance_accuracy_value', 'NONE');
#209 = DIRECTION ( 'NONE',  ( 0.000000000000000000, 0.000000000000000000, -1.000000000000000000 ) ) ;
#210 = CARTESIAN_POINT ( 'NONE',  ( -22.19546549735816043, 9.294682596457326085, 5.399999999999998579 ) ) ;
#211 = ORIENTED_EDGE ( 'NONE', *, *, #387, .T. ) ;
#212 = ORIENTED_EDGE ( 'NONE', *, *, #288, .F. ) ;
#213 = CARTESIAN_POINT ( 'NONE',  ( 2.558702660123423733, 6.129411255188294660, 5.400005999999996753 ) ) ;
#214 = ADVANCED_FACE ( 'NONE', ( #159 ), #157, .F. ) ;
#215 = EDGE_LOOP ( 'NONE', ( #5, #141, #415, #493 ) ) ;
#216 = CARTESIAN_POINT ( 'NONE',  ( -2.142600937141565964, -7.379640950608960637, 5.400011999999998480 ) ) ;
#217 = CARTESIAN_POINT ( 'NONE',  ( -0.5956670507747771071, 3.694479563517504062, 5.400011999999996704 ) ) ;
#218 = ORIENTED_EDGE ( 'NONE', *, *, #315, .F. ) ;
#219 = CARTESIAN_POINT ( 'NONE',  ( 2.226331004629724220, -7.379640950608960637, 5.400011999999997592 ) ) ;
#220 = VECTOR ( 'NONE', #294, 1000.000000000000000 ) ;
#221 = CARTESIAN_POINT ( 'NONE',  ( 2.493634351794213000, 5.475041544290094819, 5.400011999999998480 ) ) ;
#222 = VECTOR ( 'NONE', #464, 1000.000000000000000 ) ;
#223 = DIRECTION ( 'NONE',  ( -1.000000000000000000, 0.000000000000000000, 0.000000000000000000 ) ) ;
#224 = EDGE_CURVE ( 'NONE', #322, #57, #104, .T. ) ;
#225 = CARTESIAN_POINT ( 'NONE',  ( 20.41007633280634082, 9.294682596457326085, 5.399999999999998579 ) ) ;
#226 = CARTESIAN_POINT ( 'NONE',  ( -2.458134966255920428, -6.120593499681714178, 5.400005999999996753 ) ) ;
#227 = B_SPLINE_CURVE_WITH_KNOTS ( 'NONE', 3,
 ( #339, #432, #461, #32, #24, #309, #304, #217, #388, #466, #140, #148, #268, #510, #59, #221, #342, #311 ),
 .UNSPECIFIED., .F., .F.,
 ( 4, 2, 2, 2, 2, 2, 2, 2, 4 ),
 ( 0.5000000000000000000, 0.5625000000000000000, 0.6250000000000000000, 0.6875000000000000000, 0.7500000000000000000, 0.8125000000000000000, 0.8750000000000000000, 0.9375000000000000000, 1.000000000000000000 ),
 .UNSPECIFIED. ) ;
#228 = CARTESIAN_POINT ( 'NONE',  ( 0.03620148601930078813, 0.000000000000000000, 5.399999999999998579 ) ) ;
#229 = AXIS2_PLACEMENT_3D ( 'NONE', #27, #390, #30 ) ;
#230 = CARTESIAN_POINT ( 'NONE',  ( -0.6125046771541200474, -8.555525191352504777, 5.400011999999998480 ) ) ;
#231 = DIRECTION ( 'NONE',  ( -1.000000000000000000, 0.000000000000000000, 0.000000000000000000 ) ) ;
#232 = SPHERICAL_SURFACE ( 'NONE', #70, 0.7499999999999997780 ) ;
#233 = B_SPLINE_CURVE_WITH_KNOTS ( 'NONE', 3,
 ( #213, #179, #348, #307, #145, #488, #13, #264, #463, #465, #353, #149, #67, #275, #31, #23, #312, #69 ),
 .UNSPECIFIED., .F., .F.,
 ( 4, 2, 2, 2, 2, 2, 2, 2, 4 ),
 ( 0.000000000000000000, 0.06250000000000000000, 0.1250000000000000000, 0.1875000000000000000, 0.2500000000000000000, 0.3125000000000000000, 0.3750000000000000000, 0.4375000000000000000, 0.5000000000000000000 ),
 .UNSPECIFIED. ) ;
#234 = DIRECTION ( 'NONE',  ( 0.000000000000000000, -1.000000000000000000, 0.000000000000000000 ) ) ;
#235 = SPHERICAL_SURFACE ( 'NONE', #320, 0.7499999999999997780 ) ;
#236 = DIRECTION ( 'NONE',  ( 0.000000000000000000, -1.000000000000000000, -1.734723475976806108E-16 ) ) ;
#237 = DIRECTION ( 'NONE',  ( -0.000000000000000000, 0.000000000000000000, 1.000000000000000000 ) ) ;
#238 = DIRECTION ( 'NONE',  ( 0.000000000000000000, 0.4472135954999574281, 0.8944271909999160775 ) ) ;
#239 = ORIENTED_EDGE ( 'NONE', *, *, #337, .F. ) ;
#240 = CARTESIAN_POINT ( 'NONE',  ( -20.25380977742650757, 9.427126526396104822, 2.600000000000004530 ) ) ;
#241 = APPLICATION_CONTEXT ( 'automotive_design' ) ;
#242 =( GEOMETRIC_REPRESENTATION_CONTEXT ( 3 ) GLOBAL_UNCERTAINTY_ASSIGNED_CONTEXT ( ( #208 ) ) GLOBAL_UNIT_ASSIGNED_CONTEXT ( ( #153, #318, #362 ) ) REPRESENTATION_CONTEXT ( 'NONE', 'WORKASPACE' ) );
#243 = CARTESIAN_POINT ( 'NONE',  ( 20.41007633280634082, 9.294682596457326085, 5.399999999999998579 ) ) ;
#244 = CARTESIAN_POINT ( 'NONE',  ( 0.05870266012342195694, 6.129411255188294660, 2.600000000000004530 ) ) ;
#245 = DIRECTION ( 'NONE',  ( 0.000000000000000000, 1.399770883492566291E-16, -1.000000000000000000 ) ) ;
#246 = EDGE_CURVE ( 'NONE', #181, #482, #121, .T. ) ;
#247 = ORIENTED_EDGE ( 'NONE', *, *, #183, .F. ) ;
#248 = FACE_OUTER_BOUND ( 'NONE', #438, .T. ) ;
#249 = PLANE ( 'NONE',  #33 ) ;
#250 = VERTEX_POINT ( 'NONE', #272 ) ;
#251 = FACE_OUTER_BOUND ( 'NONE', #115, .T. ) ;
#252 = CIRCLE ( 'NONE', #180, 2.500000000000001332 ) ;
#253 = AXIS2_PLACEMENT_3D ( 'NONE', #35, #357, #231 ) ;
#254 = EDGE_CURVE ( 'NONE', #181, #361, #64, .T. ) ;
#255 = ORIENTED_EDGE ( 'NONE', *, *, #246, .T. ) ;
#256 = AXIS2_PLACEMENT_3D ( 'NONE', #41, #198, #365 ) ;
#257 = LINE ( 'NONE', #132, #220 ) ;
#258 = ORIENTED_EDGE ( 'NONE', *, *, #270, .F. ) ;
#259 = CIRCLE ( 'NONE', #394, 2.500000000000001332 ) ;
#260 = ORIENTED_EDGE ( 'NONE', *, *, #280, .T. ) ;
#261 = EDGE_CURVE ( 'NONE', #84, #298, #384, .T. ) ;
#262 = FACE_OUTER_BOUND ( 'NONE', #287, .T. ) ;
#263 = ORIENTED_EDGE ( 'NONE', *, *, #72, .F. ) ;
#264 = CARTESIAN_POINT ( 'NONE',  ( 0.7130723710216229083, 8.564342946859087036, 5.400011999999998480 ) ) ;
#265 = DIRECTION ( 'NONE',  ( 0.000000000000000000, 0.000000000000000000, -1.000000000000000000 ) ) ;
#266 = ORIENTED_EDGE ( 'NONE', *, *, #460, .F. ) ;
#267 = CARTESIAN_POINT ( 'NONE',  ( 20.41007633280634082, 9.294682596457326085, 5.399999999999998579 ) ) ;
#268 = CARTESIAN_POINT ( 'NONE',  ( 1.595069460060710487, 4.130244149192844105, 5.400011999999997592 ) ) ;
#269 = PRODUCT_DEFINITION_SHAPE ( 'NONE', 'NONE',  #36 ) ;
#270 = EDGE_CURVE ( 'NONE', #18, #454, #227, .T. ) ;
#271 = CARTESIAN_POINT ( 'NONE',  ( 2.226331004629723775, -4.861546048754464167, 5.400011999999996704 ) ) ;
#272 = CARTESIAN_POINT ( 'NONE',  ( 20.41007633280634082, 10.69468259645732289, 2.600000000000004974 ) ) ;
#273 = CARTESIAN_POINT ( 'NONE',  ( 2.541865033744078683, -6.120593499681713290, 5.400005999999996753 ) ) ;
#274 = CARTESIAN_POINT ( 'NONE',  ( -2.441297339876579375, 6.129411255188294660, 5.400011999999997592 ) ) ;
#275 = CARTESIAN_POINT ( 'NONE',  ( -1.940464445872031485, 7.665778055125579193, 5.400011999999998480 ) ) ;
#276 = CARTESIAN_POINT ( 'NONE',  ( 0.03620148601930078813, 0.000000000000000000, 5.399999999999998579 ) ) ;
#277 = AXIS2_PLACEMENT_3D ( 'NONE', #19, #506, #421 ) ;
#278 = FILL_AREA_STYLE_COLOUR ( '', #434 ) ;
#279 = FACE_OUTER_BOUND ( 'NONE', #128, .T. ) ;
#280 = EDGE_CURVE ( 'NONE', #373, #317, #469, .T. ) ;
#281 = ORIENTED_EDGE ( 'NONE', *, *, #135, .T. ) ;
#282 = CARTESIAN_POINT ( 'NONE',  ( -21.99755086812027471, -9.768068544034742118, 4.453228104845168289 ) ) ;
#283 = DIRECTION ( 'NONE',  ( -1.000000000000000000, 0.000000000000000000, 0.000000000000000000 ) ) ;
#284 = ORIENTED_EDGE ( 'NONE', *, *, #467, .F. ) ;
#285 = CARTESIAN_POINT ( 'NONE',  ( 2.558702660123423733, 6.129411255188294660, 5.400005999999996753 ) ) ;
#286 = CARTESIAN_POINT ( 'NONE',  ( -24.06023271966105170, 0.000000000000000000, 2.600000000000002309 ) ) ;
#287 = EDGE_LOOP ( 'NONE', ( #517, #445 ) ) ;
#288 = EDGE_CURVE ( 'NONE', #250, #498, #189, .T. ) ;
#289 = ORIENTED_EDGE ( 'NONE', *, *, #387, .F. ) ;
#290 = SHAPE_DEFINITION_REPRESENTATION ( #269, #448 ) ;
#291 = DIRECTION ( 'NONE',  ( -0.000000000000000000, 1.216532230151069192E-16, -1.000000000000000000 ) ) ;
#292 =( NAMED_UNIT ( * ) SI_UNIT ( $, .STERADIAN. ) SOLID_ANGLE_UNIT ( ) );
#293 = CARTESIAN_POINT ( 'NONE',  ( -2.441297339876579819, 6.129411255188293772, 5.400005999999996753 ) ) ;
#294 = DIRECTION ( 'NONE',  ( 0.000000000000000000, -1.000000000000000000, -1.399770883492566291E-16 ) ) ;
#295 = EDGE_CURVE ( 'NONE', #327, #305, #21, .T. ) ;
#296 = AXIS2_PLACEMENT_3D ( 'NONE', #489, #329, #162 ) ;
#297 = EDGE_LOOP ( 'NONE', ( #122, #266 ) ) ;
#298 = VERTEX_POINT ( 'NONE', #346 ) ;
#299 = EDGE_LOOP ( 'NONE', ( #85, #97 ) ) ;
#300 = ORIENTED_EDGE ( 'NONE', *, *, #315, .T. ) ;
#301 = VECTOR ( 'NONE', #351, 1000.000000000000227 ) ;
#302 = DIRECTION ( 'NONE',  ( 0.000000000000000000, 0.000000000000000000, -1.000000000000000000 ) ) ;
#303 = ORIENTED_EDGE ( 'NONE', *, *, #408, .F. ) ;
#304 = CARTESIAN_POINT ( 'NONE',  ( -1.200344790803826056, 3.944945284302648236, 5.400011999999998480 ) ) ;
#305 = VERTEX_POINT ( 'NONE', #105 ) ;
#306 = LINE ( 'NONE', #25, #9 ) ;
#307 = CARTESIAN_POINT ( 'NONE',  ( 2.243168631009066605, 7.388458706115544672, 5.400011999999998480 ) ) ;
#308 = CARTESIAN_POINT ( 'NONE',  ( 0.3691142684930152074, -3.620593499681713734, 5.400011999999997592 ) ) ;
#309 = CARTESIAN_POINT ( 'NONE',  ( -1.477664139813865685, 4.130244149192843217, 5.400011999999995815 ) ) ;
#310 = CARTESIAN_POINT ( 'NONE',  ( 20.41007633280634082, 10.69468259645732289, 2.600000000000004974 ) ) ;
#311 = CARTESIAN_POINT ( 'NONE',  ( 2.558702660123423733, 6.129411255188294660, 5.400005999999996753 ) ) ;
#312 = CARTESIAN_POINT ( 'NONE',  ( -2.441297339876579375, 6.456660489937232406, 5.400011999999997592 ) ) ;
#313 = CARTESIAN_POINT ( 'NONE',  ( 20.41007633280634082, -10.69468259645732289, 2.600000000000002309 ) ) ;
#314 = CARTESIAN_POINT ( 'NONE',  ( 20.41007633280634082, -10.69468259645732289, 2.600000000000002309 ) ) ;
#315 = EDGE_CURVE ( 'NONE', #18, #475, #496, .T. ) ;
#316 = DIRECTION ( 'NONE',  ( -1.000000000000000000, 0.000000000000000000, 0.000000000000000000 ) ) ;
#317 = VERTEX_POINT ( 'NONE', #457 ) ;
#318 =( NAMED_UNIT ( * ) PLANE_ANGLE_UNIT ( ) SI_UNIT ( $, .RADIAN. ) );
#319 = DIRECTION ( 'NONE',  ( 0.000000000000000000, 1.000000000000000000, 1.399770883492566291E-16 ) ) ;
#320 = AXIS2_PLACEMENT_3D ( 'NONE', #478, #111, #150 ) ;
#321 = DIRECTION ( 'NONE',  ( 0.000000000000000000, 0.8944271909999161885, -0.4472135954999574836 ) ) ;
#322 = VERTEX_POINT ( 'NONE', #504 ) ;
#323 = DIRECTION ( 'NONE',  ( -1.000000000000000000, -0.000000000000000000, -0.000000000000000000 ) ) ;
#324 = PRODUCT_CONTEXT ( 'NONE', #241, 'mechanical' ) ;
#325 = CYLINDRICAL_SURFACE ( 'NONE', #427, 2.500000000000000444 ) ;
#326 = EDGE_CURVE ( 'NONE', #177, #171, #425, .T. ) ;
#327 = VERTEX_POINT ( 'NONE', #102 ) ;
#328 = PLANE ( 'NONE',  #146 ) ;
#329 = DIRECTION ( 'NONE',  ( 0.000000000000000000, -1.216532230151069192E-16, 1.000000000000000000 ) ) ;
#330 = CYLINDRICAL_SURFACE ( 'NONE', #411, 2.500000000000000444 ) ;
#331 = DIRECTION ( 'NONE',  ( 0.000000000000000000, 0.000000000000000000, 1.000000000000000000 ) ) ;
#332 = CYLINDRICAL_SURFACE ( 'NONE', #416, 24.09643420568034955 ) ;
#333 = CARTESIAN_POINT ( 'NONE',  ( 20.41007633280634082, 9.294682596457326085, 5.399999999999998579 ) ) ;
#334 = AXIS2_PLACEMENT_3D ( 'NONE', #400, #360, #283 ) ;
#335 = AXIS2_PLACEMENT_3D ( 'NONE', #276, #117, #4 ) ;
#336 = ORIENTED_EDGE ( 'NONE', *, *, #520, .F. ) ;
#337 = EDGE_CURVE ( 'NONE', #317, #12, #252, .T. ) ;
#338 = ORIENTED_EDGE ( 'NONE', *, *, #172, .F. ) ;
#339 = CARTESIAN_POINT ( 'NONE',  ( -2.441297339876579819, 6.129411255188293772, 5.400005999999996753 ) ) ;
#340 = EDGE_LOOP ( 'NONE', ( #239, #379 ) ) ;
#341 = VECTOR ( 'NONE', #112, 1000.000000000000114 ) ;
#342 = CARTESIAN_POINT ( 'NONE',  ( 2.558702660123423289, 5.802162020439359580, 5.400011999999997592 ) ) ;
#343 = EDGE_LOOP ( 'NONE', ( #258, #458 ) ) ;
#344 = CYLINDRICAL_SURFACE ( 'NONE', #473, 2.500000000000001332 ) ;
#345 = EDGE_CURVE ( 'NONE', #454, #381, #143, .T. ) ;
#346 = CARTESIAN_POINT ( 'NONE',  ( -22.19546549735816043, -9.294682596457326085, 5.399999999999998579 ) ) ;
#347 = CARTESIAN_POINT ( 'NONE',  ( -1.217182417183169552, -3.936127528796069530, 5.400011999999998480 ) ) ;
#348 = CARTESIAN_POINT ( 'NONE',  ( 2.493634351794212112, 6.783780966086497166, 5.400011999999997592 ) ) ;
#349 = PRODUCT_DEFINITION_CONTEXT ( 'detailed design', #514, 'design' ) ;
#350 = CARTESIAN_POINT ( 'NONE',  ( 2.558702660123423289, 6.129411255188294660, 2.600000000000004530 ) ) ;
#351 = DIRECTION ( 'NONE',  ( -0.000000000000000000, -0.4472135954999579277, 0.8944271909999158554 ) ) ;
#352 = AXIS2_PLACEMENT_3D ( 'NONE', #399, #331, #205 ) ;
#353 = CARTESIAN_POINT ( 'NONE',  ( -0.5956670507747782173, 8.564342946859083483, 5.400011999999997592 ) ) ;
#354 = CARTESIAN_POINT ( 'NONE',  ( 20.41007633280634082, -10.69468259645732289, 2.600000000000002309 ) ) ;
#355 = ADVANCED_FACE ( 'NONE', ( #262 ), #380, .T. ) ;
#356 = CARTESIAN_POINT ( 'NONE',  ( -2.458134966255920428, -6.120593499681714178, 5.400005999999996753 ) ) ;
#357 = DIRECTION ( 'NONE',  ( 0.000000000000000000, 0.000000000000000000, -1.000000000000000000 ) ) ;
#358 = SURFACE_STYLE_USAGE ( .BOTH. , #476 ) ;
#359 = CARTESIAN_POINT ( 'NONE',  ( -22.09389689439121085, -0.06445232732959008115, 2.600000000000003642 ) ) ;
#360 = DIRECTION ( 'NONE',  ( 0.000000000000000000, 0.000000000000000000, -1.000000000000000000 ) ) ;
#361 = VERTEX_POINT ( 'NONE', #187 ) ;
#362 =( NAMED_UNIT ( * ) SI_UNIT ( $, .STERADIAN. ) SOLID_ANGLE_UNIT ( ) );
#363 = AXIS2_PLACEMENT_3D ( 'NONE', #39, #71, #441 ) ;
#364 = EDGE_CURVE ( 'NONE', #454, #18, #233, .T. ) ;
#365 = DIRECTION ( 'NONE',  ( 0.000000000000000000, -1.000000000000000000, 0.000000000000000000 ) ) ;
#366 = DIRECTION ( 'NONE',  ( 0.000000000000000000, -1.000000000000000000, 0.000000000000000000 ) ) ;
#367 = UNCERTAINTY_MEASURE_WITH_UNIT (LENGTH_MEASURE( 1.000000000000000082E-05 ), #6, 'distance_accuracy_value', 'NONE');
#368 = DIRECTION ( 'NONE',  ( -1.000000000000000000, 0.000000000000000000, 0.000000000000000000 ) ) ;
#369 = PRESENTATION_LAYER_ASSIGNMENT (  '', '', ( #204 ) ) ;
#370 = EDGE_LOOP ( 'NONE', ( #456, #11, #127, #486 ) ) ;
#371 = ADVANCED_FACE ( 'NONE', ( #505 ), #144, .F. ) ;
#372 = CARTESIAN_POINT ( 'NONE',  ( -21.99755086812027471, 9.768068544034738565, 4.453228104845170066 ) ) ;
#373 = VERTEX_POINT ( 'NONE', #356 ) ;
#374 = AXIS2_PLACEMENT_3D ( 'NONE', #228, #392, #185 ) ;
#375 = DIRECTION ( 'NONE',  ( -1.000000000000000000, -0.000000000000000000, -0.000000000000000000 ) ) ;
#376 = CIRCLE ( 'NONE', #165, 0.7499999999999997780 ) ;
#377 = EDGE_CURVE ( 'NONE', #177, #250, #98, .T. ) ;
#378 = ORIENTED_EDGE ( 'NONE', *, *, #224, .F. ) ;
#379 = ORIENTED_EDGE ( 'NONE', *, *, #451, .F. ) ;
#380 = SPHERICAL_SURFACE ( 'NONE', #277, 0.7499999999999997780 ) ;
#381 = VERTEX_POINT ( 'NONE', #350 ) ;
#382 = CARTESIAN_POINT ( 'NONE',  ( 2.041032139739530127, -4.584226699744427869, 5.400011999999998480 ) ) ;
#383 = VECTOR ( 'NONE', #66, 1000.000000000000000 ) ;
#384 = LINE ( 'NONE', #429, #184 ) ;
#385 = CIRCLE ( 'NONE', #106, 24.09643420568034955 ) ;
#386 = CARTESIAN_POINT ( 'NONE',  ( 2.541865033744079572, -6.447842734430651923, 5.400011999999997592 ) ) ;
#387 = EDGE_CURVE ( 'NONE', #134, #373, #47, .T. ) ;
#388 = CARTESIAN_POINT ( 'NONE',  ( -0.2685465746255144559, 3.629411255188293328, 5.400011999999997592 ) ) ;
#389 = CARTESIAN_POINT ( 'NONE',  ( -0.6125046771541214907, -3.685661808010924911, 5.400011999999999368 ) ) ;
#390 = DIRECTION ( 'NONE',  ( -0.000000000000000000, 1.216532230151069192E-16, -1.000000000000000000 ) ) ;
#391 = CARTESIAN_POINT ( 'NONE',  ( -1.494501766193208070, -8.119760605677164733, 5.400011999999998480 ) ) ;
#392 = DIRECTION ( 'NONE',  ( -0.000000000000000000, -0.000000000000000000, -1.000000000000000000 ) ) ;
#393 = ADVANCED_FACE ( 'NONE', ( #182 ), #344, .F. ) ;
#394 = AXIS2_PLACEMENT_3D ( 'NONE', #155, #200, #40 ) ;
#395 = CARTESIAN_POINT ( 'NONE',  ( 0.3691142684930162621, -8.620593499681714178, 5.400011999999998480 ) ) ;
#396 = FACE_OUTER_BOUND ( 'NONE', #418, .T. ) ;
#397 = DIRECTION ( 'NONE',  ( -0.000000000000000000, 1.216532230151069192E-16, -1.000000000000000000 ) ) ;
#398 = FACE_OUTER_BOUND ( 'NONE', #55, .T. ) ;
#399 = CARTESIAN_POINT ( 'NONE',  ( 0.000000000000000000, 0.000000000000000000, 0.000000000000000000 ) ) ;
#400 = CARTESIAN_POINT ( 'NONE',  ( 0.03620148601930078813, 0.000000000000000000, 2.600000000000002309 ) ) ;
#401 = FACE_OUTER_BOUND ( 'NONE', #90, .T. ) ;
#402 =( NAMED_UNIT ( * ) PLANE_ANGLE_UNIT ( ) SI_UNIT ( $, .RADIAN. ) );
#403 = LINE ( 'NONE', #333, #500 ) ;
#404 = CARTESIAN_POINT ( 'NONE',  ( -2.441297339876579375, 6.129411255188294660, 2.600000000000004530 ) ) ;
#405 = ORIENTED_EDGE ( 'NONE', *, *, #337, .T. ) ;
#406 = CARTESIAN_POINT ( 'NONE',  ( 0.03620148601930078813, 0.000000000000000000, 2.600000000000002309 ) ) ;
#407 = CARTESIAN_POINT ( 'NONE',  ( -24.06023271966105170, 0.000000000000000000, 2.600000000000003642 ) ) ;
#408 = EDGE_CURVE ( 'NONE', #373, #134, #20, .T. ) ;
#409 = VECTOR ( 'NONE', #501, 1000.000000000000000 ) ;
#410 = PLANE ( 'NONE',  #296 ) ;
#411 = AXIS2_PLACEMENT_3D ( 'NONE', #174, #130, #170 ) ;
#412 = FACE_BOUND ( 'NONE', #297, .T. ) ;
#413 = FACE_OUTER_BOUND ( 'NONE', #370, .T. ) ;
#414 = EDGE_CURVE ( 'NONE', #250, #168, #306, .T. ) ;
#415 = ORIENTED_EDGE ( 'NONE', *, *, #431, .T. ) ;
#416 = AXIS2_PLACEMENT_3D ( 'NONE', #406, #209, #368 ) ;
#417 = AXIS2_PLACEMENT_3D ( 'NONE', #484, #76, #234 ) ;
#418 = EDGE_LOOP ( 'NONE', ( #449, #446, #300, #22 ) ) ;
#419 = VERTEX_POINT ( 'NONE', #240 ) ;
#420 = CARTESIAN_POINT ( 'NONE',  ( -1.494501766193210734, -4.121426393686264511, 5.400011999999996704 ) ) ;
#421 = DIRECTION ( 'NONE',  ( 0.6634372004401909440, 0.7482319700948911745, 6.938893903907233111E-15 ) ) ;
#422 = ADVANCED_FACE ( 'NONE', ( #401 ), #232, .T. ) ;
#423 = EDGE_LOOP ( 'NONE', ( #450, #201 ) ) ;
#424 = CARTESIAN_POINT ( 'NONE',  ( 1.300912484671328695, -3.936127528796070418, 5.400011999999998480 ) ) ;
#425 = LINE ( 'NONE', #108, #409 ) ;
#426 = AXIS2_PLACEMENT_3D ( 'NONE', #313, #321, #238 ) ;
#427 = AXIS2_PLACEMENT_3D ( 'NONE', #114, #440, #316 ) ;
#428 = CARTESIAN_POINT ( 'NONE',  ( -2.142600937141567297, -4.861546048754467719, 5.400011999999997592 ) ) ;
#429 = CARTESIAN_POINT ( 'NONE',  ( 20.41007633280634082, -9.294682596457327861, 5.399999999999995914 ) ) ;
#430 = CARTESIAN_POINT ( 'NONE',  ( -2.393066657926711027, -6.774963210579915796, 5.400011999999997592 ) ) ;
#431 = EDGE_CURVE ( 'NONE', #84, #177, #75, .T. ) ;
#432 = CARTESIAN_POINT ( 'NONE',  ( -2.441297339876579819, 5.802162020439356027, 5.400011999999997592 ) ) ;
#433 = CARTESIAN_POINT ( 'NONE',  ( -1.217182417183168441, -8.305059470567359270, 5.400011999999997592 ) ) ;
#434 = COLOUR_RGB ( '',0.7921568627450980005, 0.8196078431372548767, 0.9333333333333333481 ) ;
#435 = CARTESIAN_POINT ( 'NONE',  ( 2.541865033744078683, -6.120593499681713290, 5.400005999999996753 ) ) ;
#436 = ORIENTED_EDGE ( 'NONE', *, *, #414, .T. ) ;
#437 = CARTESIAN_POINT ( 'NONE',  ( -21.55689707786714493, -10.69468259645732289, 2.600000000000002309 ) ) ;
#438 = EDGE_LOOP ( 'NONE', ( #281, #255, #166, #2 ) ) ;
#439 = DIRECTION ( 'NONE',  ( 6.938893903907222067E-15, 0.000000000000000000, -1.000000000000000000 ) ) ;
#440 = DIRECTION ( 'NONE',  ( 0.000000000000000000, 0.000000000000000000, -1.000000000000000000 ) ) ;
#441 = DIRECTION ( 'NONE',  ( 0.000000000000000000, -1.000000000000000000, 0.000000000000000000 ) ) ;
#442 = FACE_BOUND ( 'NONE', #340, .T. ) ;
#443 = FACE_BOUND ( 'NONE', #343, .T. ) ;
#444 = EDGE_LOOP ( 'NONE', ( #303, #289 ) ) ;
#445 = ORIENTED_EDGE ( 'NONE', *, *, #295, .T. ) ;
#446 = ORIENTED_EDGE ( 'NONE', *, *, #364, .T. ) ;
#447 = CARTESIAN_POINT ( 'NONE',  ( -20.25380977742650757, 7.927126526396103046, 2.600000000000004530 ) ) ;
#448 = ADVANCED_BREP_SHAPE_REPRESENTATION ( 'P001-B125_LED Lid REV2_2', ( #453, #352 ), #125 ) ;
#449 = ORIENTED_EDGE ( 'NONE', *, *, #345, .F. ) ;
#450 = ORIENTED_EDGE ( 'NONE', *, *, #490, .T. ) ;
#451 = EDGE_CURVE ( 'NONE', #12, #317, #163, .T. ) ;
#452 = ORIENTED_EDGE ( 'NONE', *, *, #345, .T. ) ;
#453 = MANIFOLD_SOLID_BREP ( 'Cut-Extrude2', #206 ) ;
#454 = VERTEX_POINT ( 'NONE', #285 ) ;
#455 = AXIS2_PLACEMENT_3D ( 'NONE', #116, #397, #236 ) ;
#456 = ORIENTED_EDGE ( 'NONE', *, *, #408, .T. ) ;
#457 = CARTESIAN_POINT ( 'NONE',  ( -2.458134966255921317, -6.120593499681714178, 2.600000000000002753 ) ) ;
#458 = ORIENTED_EDGE ( 'NONE', *, *, #364, .F. ) ;
#459 = DIRECTION ( 'NONE',  ( 0.000000000000000000, 0.4472135954999579277, -0.8944271909999158554 ) ) ;
#460 = EDGE_CURVE ( 'NONE', #419, #78, #95, .T. ) ;
#461 = CARTESIAN_POINT ( 'NONE',  ( -2.376229031547368642, 5.475041544290094819, 5.400011999999997592 ) ) ;
#462 = ORIENTED_EDGE ( 'NONE', *, *, #431, .F. ) ;
#463 = CARTESIAN_POINT ( 'NONE',  ( 0.3859518948723580367, 8.629411255188296437, 5.400011999999997592 ) ) ;
#464 = DIRECTION ( 'NONE',  ( 0.000000000000000000, 0.000000000000000000, -1.000000000000000000 ) ) ;
#465 = CARTESIAN_POINT ( 'NONE',  ( -0.2685465746255157882, 8.629411255188298213, 5.400011999999998480 ) ) ;
#466 = CARTESIAN_POINT ( 'NONE',  ( 0.3859518948723589804, 3.629411255188294216, 5.400011999999998480 ) ) ;
#467 = EDGE_CURVE ( 'NONE', #381, #475, #259, .T. ) ;
#468 = DIRECTION ( 'NONE',  ( 0.000000000000000000, -0.8944271909999159664, -0.4472135954999579832 ) ) ;
#469 = LINE ( 'NONE', #96, #383 ) ;
#470 = CARTESIAN_POINT ( 'NONE',  ( -2.393066657926711027, -5.466223788783517001, 5.400011999999998480 ) ) ;
#471 = CARTESIAN_POINT ( 'NONE',  ( 0.03620148601930078813, 0.000000000000000000, 2.600000000000003642 ) ) ;
#472 = CARTESIAN_POINT ( 'NONE',  ( -20.25380977742650757, 8.677126526396104822, 2.600000000000003642 ) ) ;
#473 = AXIS2_PLACEMENT_3D ( 'NONE', #65, #58, #223 ) ;
#474 = CARTESIAN_POINT ( 'NONE',  ( -24.06023271966105170, 0.000000000000000000, 5.399999999999998579 ) ) ;
#475 = VERTEX_POINT ( 'NONE', #404 ) ;
#476 = SURFACE_SIDE_STYLE ('',( #195 ) ) ;
#477 = FACE_OUTER_BOUND ( 'NONE', #136, .T. ) ;
#478 = CARTESIAN_POINT ( 'NONE',  ( -22.09389689439121085, -0.06445232732959008115, 2.600000000000003642 ) ) ;
#479 = ADVANCED_FACE ( 'NONE', ( #477, #161, #443 ), #249, .F. ) ;
#480 = ORIENTED_EDGE ( 'NONE', *, *, #261, .F. ) ;
#481 = CARTESIAN_POINT ( 'NONE',  ( -21.55689707786714493, 10.69468259645732289, 2.600000000000004974 ) ) ;
#482 = VERTEX_POINT ( 'NONE', #407 ) ;
#483 = ORIENTED_EDGE ( 'NONE', *, *, #490, .F. ) ;
#484 = CARTESIAN_POINT ( 'NONE',  ( -20.25380977742650757, 8.677126526396104822, 2.600000000000004530 ) ) ;
#485 = AXIS2_PLACEMENT_3D ( 'NONE', #244, #291, #91 ) ;
#486 = ORIENTED_EDGE ( 'NONE', *, *, #280, .F. ) ;
#487 = APPLICATION_PROTOCOL_DEFINITION ( 'draft international standard', 'automotive_design', 1998, #514 ) ;
#488 = CARTESIAN_POINT ( 'NONE',  ( 1.595069460060711597, 8.128578361183748768, 5.400011999999998480 ) ) ;
#489 = CARTESIAN_POINT ( 'NONE',  ( 20.41007633280634082, 10.69468259645732289, 2.600000000000004974 ) ) ;
#490 = EDGE_CURVE ( 'NONE', #57, #322, #376, .T. ) ;
#491 = CARTESIAN_POINT ( 'NONE',  ( -22.09389689439121085, -0.8144523273295898314, 2.600000000000003642 ) ) ;
#492 = VECTOR ( 'NONE', #77, 1000.000000000000000 ) ;
#493 = ORIENTED_EDGE ( 'NONE', *, *, #377, .T. ) ;
#494 = EDGE_LOOP ( 'NONE', ( #139, #452, #53, #218 ) ) ;
#495 = ORIENTED_EDGE ( 'NONE', *, *, #499, .T. ) ;
#496 = LINE ( 'NONE', #274, #154 ) ;
#497 = AXIS2_PLACEMENT_3D ( 'NONE', #267, #468, #459 ) ;
#498 = VERTEX_POINT ( 'NONE', #243 ) ;
#499 = EDGE_CURVE ( 'NONE', #78, #419, #54, .T. ) ;
#500 = VECTOR ( 'NONE', #375, 1000.000000000000000 ) ;
#501 = DIRECTION ( 'NONE',  ( -1.000000000000000000, -0.000000000000000000, -0.000000000000000000 ) ) ;
#502 = ORIENTED_EDGE ( 'NONE', *, *, #110, .F. ) ;
#503 = CARTESIAN_POINT ( 'NONE',  ( 1.300912484671326697, -8.305059470567359270, 5.400011999999998480 ) ) ;
#504 = CARTESIAN_POINT ( 'NONE',  ( -22.09389689439121085, 0.6855476726704097246, 2.600000000000003642 ) ) ;
#505 = FACE_OUTER_BOUND ( 'NONE', #126, .T. ) ;
#506 = DIRECTION ( 'NONE',  ( 4.603520345759731670E-15, 5.191902255999929520E-15, -1.000000000000000000 ) ) ;
#507 = ADVANCED_FACE ( 'NONE', ( #42 ), #328, .F. ) ;
#508 = CARTESIAN_POINT ( 'NONE',  ( -2.458134966255920428, -6.120593499681714178, 5.400005999999996753 ) ) ;
#509 = PRODUCT_DEFINITION_FORMATION_WITH_SPECIFIED_SOURCE ( 'ANY', '', #28, .NOT_KNOWN. ) ;
#510 = CARTESIAN_POINT ( 'NONE',  ( 2.057869766118873400, 4.593044455251007463, 5.400011999999998480 ) ) ;
#511 = CARTESIAN_POINT ( 'NONE',  ( 1.578231833681367657, -4.121426393686267176, 5.400011999999998480 ) ) ;
#512 = DIRECTION ( 'NONE',  ( 0.000000000000000000, -1.000000000000000000, -1.259840380135488593E-16 ) ) ;
#513 = CARTESIAN_POINT ( 'NONE',  ( 2.041032139739530127, -7.656960299619000487, 5.400011999999998480 ) ) ;
#514 = APPLICATION_CONTEXT ( 'automotive_design' ) ;
#515 = ORIENTED_EDGE ( 'NONE', *, *, #17, .F. ) ;
#516 = CARTESIAN_POINT ( 'NONE',  ( 0.03620148601930078813, 0.000000000000000000, 2.600000000000003642 ) ) ;
#517 = ORIENTED_EDGE ( 'NONE', *, *, #131, .T. ) ;
#518 = PRESENTATION_STYLE_ASSIGNMENT (( #358 ) ) ;
#519 = DIRECTION ( 'NONE',  ( -0.000000000000000000, 1.216532230151069192E-16, -1.000000000000000000 ) ) ;
#520 = EDGE_CURVE ( 'NONE', #171, #298, #178, .T. ) ;
ENDSEC;
END-ISO-10303-21;
