ISO-10303-21;
HEADER;
FILE_DESCRIPTION (( 'STEP AP214' ),
    '1' );
FILE_NAME ('P001-B109_Winding_Plate_Attachment_5.STEP',
    '2026-05-14T21:36:02',
    ( '' ),
    ( '' ),
    'SwSTEP 2.0',
    'SolidWorks 2026',
    '' );
FILE_SCHEMA (( 'AUTOMOTIVE_DESIGN' ));
ENDSEC;

DATA;
#1 = EDGE_LOOP ( 'NONE', ( #679, #714, #549, #57 ) ) ;
#2 = ADVANCED_FACE ( 'NONE', ( #249 ), #602, .F. ) ;
#3 = LINE ( 'NONE', #442, #733 ) ;
#4 = ORIENTED_EDGE ( 'NONE', *, *, #911, .F. ) ;
#5 = DIRECTION ( 'NONE',  ( -1.000000000000000000, 0.000000000000000000, 0.000000000000000000 ) ) ;
#6 = ORIENTED_EDGE ( 'NONE', *, *, #791, .T. ) ;
#7 = DIRECTION ( 'NONE',  ( -1.000000000000000000, 0.000000000000000000, 0.000000000000000000 ) ) ;
#8 = ORIENTED_EDGE ( 'NONE', *, *, #615, .F. ) ;
#9 = VECTOR ( 'NONE', #748, 1000.000000000000000 ) ;
#10 = VECTOR ( 'NONE', #254, 1000.000000000000000 ) ;
#11 = EDGE_CURVE ( 'NONE', #153, #736, #294, .T. ) ;
#12 = VECTOR ( 'NONE', #892, 1000.000000000000000 ) ;
#13 = FACE_OUTER_BOUND ( 'NONE', #835, .T. ) ;
#14 = DIRECTION ( 'NONE',  ( 0.000000000000000000, 0.000000000000000000, 1.000000000000000000 ) ) ;
#15 = CARTESIAN_POINT ( 'NONE',  ( -15.99999999999991651, 15.49999999999995737, 10.00000000000000000 ) ) ;
#16 = ORIENTED_EDGE ( 'NONE', *, *, #326, .T. ) ;
#17 = EDGE_CURVE ( 'NONE', #390, #163, #244, .T. ) ;
#18 = PLANE ( 'NONE',  #822 ) ;
#19 = CARTESIAN_POINT ( 'NONE',  ( -9.124999999999998224, -36.54886114323228696, 8.250000000000001776 ) ) ;
#20 = CARTESIAN_POINT ( 'NONE',  ( -11.25000000000000178, -36.54886114323228696, 5.000000000000002665 ) ) ;
#21 = CARTESIAN_POINT ( 'NONE',  ( 14.00000000000008349, 15.49999999999995737, 0.000000000000000000 ) ) ;
#22 = ORIENTED_EDGE ( 'NONE', *, *, #859, .T. ) ;
#23 = VECTOR ( 'NONE', #881, 1000.000000000000000 ) ;
#24 = DIRECTION ( 'NONE',  ( -1.000000000000000000, 0.000000000000000000, 0.000000000000000000 ) ) ;
#25 = VECTOR ( 'NONE', #605, 1000.000000000000000 ) ;
#26 = EDGE_CURVE ( 'NONE', #464, #72, #318, .T. ) ;
#27 = STYLED_ITEM ( 'NONE', ( #385 ), #667 ) ;
#28 = PLANE ( 'NONE',  #152 ) ;
#29 = CARTESIAN_POINT ( 'NONE',  ( 11.25000000000000533, -6.500000000000068390, 8.249999999999998224 ) ) ;
#30 = ADVANCED_FACE ( 'NONE', ( #824 ), #238, .F. ) ;
#31 = DIRECTION ( 'NONE',  ( -1.000000000000000000, -1.224646799147353207E-16, 0.000000000000000000 ) ) ;
#32 = PRODUCT_RELATED_PRODUCT_CATEGORY ( 'part', '', ( #811 ) ) ;
#33 = FACE_OUTER_BOUND ( 'NONE', #112, .T. ) ;
#34 = DIRECTION ( 'NONE',  ( 1.000000000000000000, -0.000000000000000000, -8.163404592832019174E-16 ) ) ;
#35 = ORIENTED_EDGE ( 'NONE', *, *, #569, .F. ) ;
#36 = DIRECTION ( 'NONE',  ( 1.000000000000000000, -0.000000000000000000, -0.000000000000000000 ) ) ;
#37 = EDGE_CURVE ( 'NONE', #676, #117, #149, .T. ) ;
#38 = DIRECTION ( 'NONE',  ( -1.000000000000000000, 0.000000000000000000, 0.000000000000000000 ) ) ;
#39 = ADVANCED_FACE ( 'NONE', ( #90 ), #672, .F. ) ;
#40 = DIRECTION ( 'NONE',  ( -0.000000000000000000, -0.000000000000000000, 1.000000000000000000 ) ) ;
#41 = ORIENTED_EDGE ( 'NONE', *, *, #407, .F. ) ;
#42 = EDGE_CURVE ( 'NONE', #220, #652, #530, .T. ) ;
#43 = ADVANCED_FACE ( 'NONE', ( #33 ), #851, .T. ) ;
#44 = CIRCLE ( 'NONE', #531, 2.000000000000000000 ) ;
#45 = CARTESIAN_POINT ( 'NONE',  ( 0.000000000000000000, 17.49999999999995737, 0.000000000000000000 ) ) ;
#46 = AXIS2_PLACEMENT_3D ( 'NONE', #116, #903, #261 ) ;
#47 = DIRECTION ( 'NONE',  ( 0.000000000000000000, 0.000000000000000000, -1.000000000000000000 ) ) ;
#48 = CARTESIAN_POINT ( 'NONE',  ( -4.000000000000000000, 4.898587196589412829E-16, -23.00000000000000000 ) ) ;
#49 = AXIS2_PLACEMENT_3D ( 'NONE', #646, #797, #75 ) ;
#50 = ORIENTED_EDGE ( 'NONE', *, *, #793, .F. ) ;
#51 = EDGE_CURVE ( 'NONE', #286, #633, #905, .T. ) ;
#52 = FACE_OUTER_BOUND ( 'NONE', #849, .T. ) ;
#53 = DIRECTION ( 'NONE',  ( 1.000000000000000000, 0.000000000000000000, 0.000000000000000000 ) ) ;
#54 = DIRECTION ( 'NONE',  ( -1.000000000000000000, -0.000000000000000000, -0.000000000000000000 ) ) ;
#55 = VERTEX_POINT ( 'NONE', #477 ) ;
#56 = PLANE ( 'NONE',  #669 ) ;
#57 = ORIENTED_EDGE ( 'NONE', *, *, #381, .F. ) ;
#58 = VERTEX_POINT ( 'NONE', #122 ) ;
#59 = EDGE_CURVE ( 'NONE', #461, #699, #743, .T. ) ;
#60 = DIRECTION ( 'NONE',  ( 0.000000000000000000, 0.000000000000000000, -1.000000000000000000 ) ) ;
#61 = ADVANCED_FACE ( 'NONE', ( #347 ), #421, .F. ) ;
#62 = VECTOR ( 'NONE', #119, 1000.000000000000000 ) ;
#63 = VERTEX_POINT ( 'NONE', #631 ) ;
#64 = VERTEX_POINT ( 'NONE', #271 ) ;
#65 = EDGE_CURVE ( 'NONE', #129, #468, #370, .T. ) ;
#66 = CARTESIAN_POINT ( 'NONE',  ( -15.99999999999991651, 11.49999999999995559, 2.600000000000000533 ) ) ;
#67 =( LENGTH_UNIT ( ) NAMED_UNIT ( * ) SI_UNIT ( .MILLI., .METRE. ) );
#68 = VERTEX_POINT ( 'NONE', #197 ) ;
#69 = ORIENTED_EDGE ( 'NONE', *, *, #551, .F. ) ;
#70 = DIRECTION ( 'NONE',  ( -2.135044278125304498E-15, -0.000000000000000000, -1.000000000000000000 ) ) ;
#71 = LINE ( 'NONE', #786, #806 ) ;
#72 = VERTEX_POINT ( 'NONE', #488 ) ;
#73 = DIRECTION ( 'NONE',  ( 1.000000000000000000, 0.000000000000000000, 0.000000000000000000 ) ) ;
#74 = CIRCLE ( 'NONE', #863, 2.399999999999996803 ) ;
#75 = DIRECTION ( 'NONE',  ( 1.000000000000000000, 0.000000000000000000, 0.000000000000000000 ) ) ;
#76 = ORIENTED_EDGE ( 'NONE', *, *, #661, .T. ) ;
#77 = AXIS2_PLACEMENT_3D ( 'NONE', #754, #272, #413 ) ;
#78 = ORIENTED_EDGE ( 'NONE', *, *, #37, .F. ) ;
#79 = DIRECTION ( 'NONE',  ( -0.000000000000000000, 0.000000000000000000, -1.000000000000000000 ) ) ;
#80 = ORIENTED_EDGE ( 'NONE', *, *, #195, .T. ) ;
#81 = CARTESIAN_POINT ( 'NONE',  ( 11.24999999999999645, 13.89999999999995417, 5.000000000000003553 ) ) ;
#82 = EDGE_CURVE ( 'NONE', #599, #923, #606, .T. ) ;
#83 = ORIENTED_EDGE ( 'NONE', *, *, #558, .T. ) ;
#84 = ADVANCED_FACE ( 'NONE', ( #255 ), #756, .F. ) ;
#85 = CARTESIAN_POINT ( 'NONE',  ( -13.99999999999991651, -13.50000000000006750, 10.00000000000000000 ) ) ;
#86 = EDGE_CURVE ( 'NONE', #676, #101, #843, .T. ) ;
#87 = ORIENTED_EDGE ( 'NONE', *, *, #921, .T. ) ;
#88 = CARTESIAN_POINT ( 'NONE',  ( 14.00000000000008349, 15.49999999999995737, 10.00000000000000000 ) ) ;
#89 = CARTESIAN_POINT ( 'NONE',  ( 9.125000000000001776, -36.54886114323228696, 8.250000000000000000 ) ) ;
#90 = FACE_OUTER_BOUND ( 'NONE', #570, .T. ) ;
#91 = VECTOR ( 'NONE', #291, 1000.000000000000000 ) ;
#92 = TOROIDAL_SURFACE ( 'NONE', #837, 2.000000000000000000, 2.000000000000000000 ) ;
#93 = VECTOR ( 'NONE', #417, 1000.000000000000000 ) ;
#94 = CARTESIAN_POINT ( 'NONE',  ( 14.00000000000008349, -11.50000000000006928, 0.000000000000000000 ) ) ;
#95 = VERTEX_POINT ( 'NONE', #832 ) ;
#96 = LINE ( 'NONE', #228, #566 ) ;
#97 = CARTESIAN_POINT ( 'NONE',  ( -15.99999999999991651, 11.49999999999995559, 5.000000000000000000 ) ) ;
#98 = LINE ( 'NONE', #113, #25 ) ;
#99 = EDGE_LOOP ( 'NONE', ( #225, #603, #418, #870, #885, #556, #845, #344, #155, #873, #369, #718 ) ) ;
#100 = CARTESIAN_POINT ( 'NONE',  ( -11.25000000000000178, 13.89999999999995417, 5.000000000000002665 ) ) ;
#101 = VERTEX_POINT ( 'NONE', #260 ) ;
#102 = CARTESIAN_POINT ( 'NONE',  ( -15.99999999999991651, 11.49999999999995559, 5.000000000000000000 ) ) ;
#103 = FACE_OUTER_BOUND ( 'NONE', #99, .T. ) ;
#104 = DIRECTION ( 'NONE',  ( -0.000000000000000000, 0.000000000000000000, 1.000000000000000000 ) ) ;
#105 = CARTESIAN_POINT ( 'NONE',  ( -15.99999999999991651, 11.49999999999995559, 7.399999999999996803 ) ) ;
#106 = ORIENTED_EDGE ( 'NONE', *, *, #295, .T. ) ;
#107 = CARTESIAN_POINT ( 'NONE',  ( -15.99999999999991651, 17.49999999999995737, 0.000000000000000000 ) ) ;
#108 = CARTESIAN_POINT ( 'NONE',  ( 16.00000000000008527, 15.49999999999995737, 10.00000000000000000 ) ) ;
#109 = CARTESIAN_POINT ( 'NONE',  ( 14.00000000000008171, 17.49999999999995737, 0.000000000000000000 ) ) ;
#110 = CARTESIAN_POINT ( 'NONE',  ( 9.125000000000001776, -36.54886114323228696, 10.00000000000000000 ) ) ;
#111 = ADVANCED_FACE ( 'NONE', ( #554 ), #28, .F. ) ;
#112 = EDGE_LOOP ( 'NONE', ( #561, #915, #771, #715 ) ) ;
#113 = CARTESIAN_POINT ( 'NONE',  ( -9.124999999999998224, 17.49999999999995737, 10.00000000000000178 ) ) ;
#114 = EDGE_CURVE ( 'NONE', #794, #928, #744, .T. ) ;
#115 = CARTESIAN_POINT ( 'NONE',  ( 14.00000000000008349, 15.49999999999995737, 0.000000000000000000 ) ) ;
#116 = CARTESIAN_POINT ( 'NONE',  ( -15.99999999999991651, 11.49999999999995559, 5.000000000000000000 ) ) ;
#117 = VERTEX_POINT ( 'NONE', #691 ) ;
#118 = ADVANCED_FACE ( 'NONE', ( #331 ), #611, .T. ) ;
#119 = DIRECTION ( 'NONE',  ( -0.000000000000000000, 1.000000000000000000, -0.000000000000000000 ) ) ;
#120 = AXIS2_PLACEMENT_3D ( 'NONE', #683, #810, #376 ) ;
#121 =( GEOMETRIC_REPRESENTATION_CONTEXT ( 3 ) GLOBAL_UNCERTAINTY_ASSIGNED_CONTEXT ( ( #752 ) ) GLOBAL_UNIT_ASSIGNED_CONTEXT ( ( #802, #233, #589 ) ) REPRESENTATION_CONTEXT ( 'NONE', 'WORKASPACE' ) );
#122 = CARTESIAN_POINT ( 'NONE',  ( -11.25000000000000178, -6.500000000000068390, 8.250000000000001776 ) ) ;
#123 = DIRECTION ( 'NONE',  ( -1.000000000000000000, -0.000000000000000000, -0.000000000000000000 ) ) ;
#124 = ORIENTED_EDGE ( 'NONE', *, *, #497, .F. ) ;
#125 = ORIENTED_EDGE ( 'NONE', *, *, #661, .F. ) ;
#126 = DIRECTION ( 'NONE',  ( 0.000000000000000000, 0.000000000000000000, -1.000000000000000000 ) ) ;
#127 = ORIENTED_EDGE ( 'NONE', *, *, #185, .T. ) ;
#128 = ADVANCED_FACE ( 'NONE', ( #847 ), #492, .F. ) ;
#129 = VERTEX_POINT ( 'NONE', #109 ) ;
#130 = EDGE_CURVE ( 'NONE', #699, #286, #792, .T. ) ;
#131 = FACE_OUTER_BOUND ( 'NONE', #212, .T. ) ;
#132 = CARTESIAN_POINT ( 'NONE',  ( 11.24999999999999822, -6.500000000000068390, 5.000000000000003553 ) ) ;
#133 = ORIENTED_EDGE ( 'NONE', *, *, #191, .F. ) ;
#134 = EDGE_CURVE ( 'NONE', #289, #63, #3, .T. ) ;
#135 = CLOSED_SHELL ( 'NONE', ( #856, #422, #43, #39, #392, #583, #888, #207, #473, #61, #2, #874, #224, #781, #128, #316, #819, #111, #157, #118, #30, #587, #84, #507, #151, #309, #579, #290 ) ) ;
#136 = AXIS2_PLACEMENT_3D ( 'NONE', #366, #784, #857 ) ;
#137 = LINE ( 'NONE', #502, #506 ) ;
#138 = VECTOR ( 'NONE', #790, 1000.000000000000000 ) ;
#139 = AXIS2_PLACEMENT_3D ( 'NONE', #102, #481, #324 ) ;
#140 = ORIENTED_EDGE ( 'NONE', *, *, #673, .T. ) ;
#141 = AXIS2_PLACEMENT_3D ( 'NONE', #848, #698, #403 ) ;
#142 = VERTEX_POINT ( 'NONE', #780 ) ;
#143 = FACE_OUTER_BOUND ( 'NONE', #427, .T. ) ;
#144 = VERTEX_POINT ( 'NONE', #66 ) ;
#145 = LINE ( 'NONE', #432, #620 ) ;
#146 = LINE ( 'NONE', #636, #685 ) ;
#147 = ORIENTED_EDGE ( 'NONE', *, *, #358, .T. ) ;
#148 = ORIENTED_EDGE ( 'NONE', *, *, #730, .T. ) ;
#149 = CIRCLE ( 'NONE', #653, 2.399999999999996803 ) ;
#150 = CARTESIAN_POINT ( 'NONE',  ( -15.99999999999991651, 11.49999999999995559, 5.000000000000000000 ) ) ;
#151 = ADVANCED_FACE ( 'NONE', ( #131 ), #357, .T. ) ;
#152 = AXIS2_PLACEMENT_3D ( 'NONE', #177, #759, #702 ) ;
#153 = VERTEX_POINT ( 'NONE', #428 ) ;
#154 = LINE ( 'NONE', #317, #478 ) ;
#155 = ORIENTED_EDGE ( 'NONE', *, *, #785, .F. ) ;
#156 = CARTESIAN_POINT ( 'NONE',  ( -11.25000000000000178, 17.49999999999995737, 8.250000000000001776 ) ) ;
#157 = ADVANCED_FACE ( 'NONE', ( #438 ), #209, .T. ) ;
#158 = CARTESIAN_POINT ( 'NONE',  ( -15.99999999999991651, 15.49999999999995737, 0.000000000000000000 ) ) ;
#159 = ORIENTED_EDGE ( 'NONE', *, *, #367, .F. ) ;
#160 = EDGE_LOOP ( 'NONE', ( #501, #496, #227, #935 ) ) ;
#161 = CARTESIAN_POINT ( 'NONE',  ( -15.99999999999991651, 11.49999999999995559, 7.399999999999996803 ) ) ;
#162 = FACE_OUTER_BOUND ( 'NONE', #855, .T. ) ;
#163 = VERTEX_POINT ( 'NONE', #731 ) ;
#164 = LINE ( 'NONE', #462, #234 ) ;
#165 = AXIS2_PLACEMENT_3D ( 'NONE', #872, #571, #214 ) ;
#166 = LINE ( 'NONE', #521, #306 ) ;
#167 = EDGE_CURVE ( 'NONE', #794, #588, #297, .T. ) ;
#168 = ORIENTED_EDGE ( 'NONE', *, *, #364, .F. ) ;
#169 = DIRECTION ( 'NONE',  ( 1.000000000000000000, 0.000000000000000000, 0.000000000000000000 ) ) ;
#170 = ORIENTED_EDGE ( 'NONE', *, *, #358, .F. ) ;
#171 = CARTESIAN_POINT ( 'NONE',  ( 11.24999999999999645, 9.099999999999958789, 5.000000000000002665 ) ) ;
#172 = DIRECTION ( 'NONE',  ( -1.000000000000000000, -0.000000000000000000, -0.000000000000000000 ) ) ;
#173 = DIRECTION ( 'NONE',  ( -1.000000000000000000, 0.000000000000000000, 0.000000000000000000 ) ) ;
#174 = ORIENTED_EDGE ( 'NONE', *, *, #367, .T. ) ;
#175 = CARTESIAN_POINT ( 'NONE',  ( -15.99999999999991651, -6.500000000000067502, 10.00000000000000000 ) ) ;
#176 = DIRECTION ( 'NONE',  ( 0.000000000000000000, -0.000000000000000000, 1.000000000000000000 ) ) ;
#177 = CARTESIAN_POINT ( 'NONE',  ( -15.99999999999991651, -13.50000000000006750, 10.00000000000000000 ) ) ;
#178 = DIRECTION ( 'NONE',  ( -0.000000000000000000, -0.000000000000000000, 1.000000000000000000 ) ) ;
#179 = ORIENTED_EDGE ( 'NONE', *, *, #130, .F. ) ;
#180 = AXIS2_PLACEMENT_3D ( 'NONE', #248, #459, #799 ) ;
#181 = DIRECTION ( 'NONE',  ( 0.000000000000000000, 0.000000000000000000, -1.000000000000000000 ) ) ;
#182 = EDGE_CURVE ( 'NONE', #461, #68, #137, .T. ) ;
#183 = DIRECTION ( 'NONE',  ( 0.000000000000000000, 0.000000000000000000, 1.000000000000000000 ) ) ;
#184 = VECTOR ( 'NONE', #123, 1000.000000000000000 ) ;
#185 = EDGE_CURVE ( 'NONE', #480, #101, #146, .T. ) ;
#186 = DIRECTION ( 'NONE',  ( -1.000000000000000000, 0.000000000000000000, -0.000000000000000000 ) ) ;
#187 = DIRECTION ( 'NONE',  ( -0.000000000000000000, -0.000000000000000000, 1.000000000000000000 ) ) ;
#188 = VERTEX_POINT ( 'NONE', #362 ) ;
#189 = CARTESIAN_POINT ( 'NONE',  ( -4.000000000000000000, 4.898587196589412829E-16, -2.000000000000001776 ) ) ;
#190 = CARTESIAN_POINT ( 'NONE',  ( -9.124999999999998224, -36.54886114323228696, 10.00000000000000178 ) ) ;
#191 = EDGE_CURVE ( 'NONE', #736, #55, #645, .T. ) ;
#192 = CARTESIAN_POINT ( 'NONE',  ( -9.124999999999998224, -36.54886114323228696, 10.00000000000000178 ) ) ;
#193 = DIRECTION ( 'NONE',  ( -1.000000000000000000, 0.000000000000000000, 0.000000000000000000 ) ) ;
#194 = ORIENTED_EDGE ( 'NONE', *, *, #887, .F. ) ;
#195 = EDGE_CURVE ( 'NONE', #693, #153, #74, .T. ) ;
#196 = PLANE ( 'NONE',  #788 ) ;
#197 = CARTESIAN_POINT ( 'NONE',  ( -9.124999999999998224, 17.49999999999995737, 10.00000000000000178 ) ) ;
#198 = CARTESIAN_POINT ( 'NONE',  ( -13.99999999999991651, -13.50000000000006750, 0.000000000000000000 ) ) ;
#199 = ORIENTED_EDGE ( 'NONE', *, *, #697, .F. ) ;
#200 = AXIS2_PLACEMENT_3D ( 'NONE', #409, #687, #47 ) ;
#201 = COLOUR_RGB ( '',0.7921568627450980005, 0.8196078431372548767, 0.9333333333333333481 ) ;
#202 = DIRECTION ( 'NONE',  ( 1.000000000000000000, 0.000000000000000000, 0.000000000000000000 ) ) ;
#203 = APPLICATION_PROTOCOL_DEFINITION ( 'draft international standard', 'automotive_design', 1998, #707 ) ;
#204 = ORIENTED_EDGE ( 'NONE', *, *, #880, .F. ) ;
#205 = EDGE_CURVE ( 'NONE', #58, #599, #869, .T. ) ;
#206 = CARTESIAN_POINT ( 'NONE',  ( -6.000000000000000000, 7.347880794884119736E-16, -8.673617379884035472E-16 ) ) ;
#207 = ADVANCED_FACE ( 'NONE', ( #658, #143 ), #284, .F. ) ;
#208 = ORIENTED_EDGE ( 'NONE', *, *, #216, .F. ) ;
#209 = CYLINDRICAL_SURFACE ( 'NONE', #245, 4.000000000000000000 ) ;
#210 = EDGE_CURVE ( 'NONE', #300, #365, #564, .T. ) ;
#211 = ORIENTED_EDGE ( 'NONE', *, *, #537, .T. ) ;
#212 = EDGE_LOOP ( 'NONE', ( #628, #876, #4, #440 ) ) ;
#213 = EDGE_CURVE ( 'NONE', #129, #633, #727, .T. ) ;
#214 = DIRECTION ( 'NONE',  ( 0.000000000000000000, 0.000000000000000000, 1.000000000000000000 ) ) ;
#215 = VECTOR ( 'NONE', #458, 1000.000000000000000 ) ;
#216 = EDGE_CURVE ( 'NONE', #652, #729, #279, .T. ) ;
#217 =( NAMED_UNIT ( * ) PLANE_ANGLE_UNIT ( ) SI_UNIT ( $, .RADIAN. ) );
#218 = AXIS2_PLACEMENT_3D ( 'NONE', #88, #380, #528 ) ;
#219 = EDGE_LOOP ( 'NONE', ( #777, #648, #76, #80, #854, #504, #732 ) ) ;
#220 = VERTEX_POINT ( 'NONE', #206 ) ;
#221 = EDGE_CURVE ( 'NONE', #375, #928, #44, .T. ) ;
#222 = CARTESIAN_POINT ( 'NONE',  ( -11.25000000000000178, -36.54886114323228696, 5.000000000000002665 ) ) ;
#223 = CARTESIAN_POINT ( 'NONE',  ( 0.000000000000000000, 0.000000000000000000, 0.000000000000000000 ) ) ;
#224 = ADVANCED_FACE ( 'NONE', ( #713 ), #56, .F. ) ;
#225 = ORIENTED_EDGE ( 'NONE', *, *, #213, .T. ) ;
#226 = CARTESIAN_POINT ( 'NONE',  ( 6.000000000000000000, 0.000000000000000000, -2.000000000000001776 ) ) ;
#227 = ORIENTED_EDGE ( 'NONE', *, *, #720, .F. ) ;
#228 = CARTESIAN_POINT ( 'NONE',  ( 16.00000000000008527, -11.50000000000006928, 0.000000000000000000 ) ) ;
#229 = VECTOR ( 'NONE', #321, 1000.000000000000000 ) ;
#230 = AXIS2_PLACEMENT_3D ( 'NONE', #45, #420, #176 ) ;
#231 = ORIENTED_EDGE ( 'NONE', *, *, #445, .T. ) ;
#232 = EDGE_CURVE ( 'NONE', #239, #509, #305, .T. ) ;
#233 =( NAMED_UNIT ( * ) PLANE_ANGLE_UNIT ( ) SI_UNIT ( $, .RADIAN. ) );
#234 = VECTOR ( 'NONE', #187, 1000.000000000000000 ) ;
#235 = EDGE_CURVE ( 'NONE', #188, #144, #920, .T. ) ;
#236 = ORIENTED_EDGE ( 'NONE', *, *, #167, .F. ) ;
#237 = DIRECTION ( 'NONE',  ( 0.000000000000000000, -0.000000000000000000, 1.000000000000000000 ) ) ;
#238 = PLANE ( 'NONE',  #931 ) ;
#239 = VERTEX_POINT ( 'NONE', #740 ) ;
#240 = LINE ( 'NONE', #670, #296 ) ;
#241 = CARTESIAN_POINT ( 'NONE',  ( 14.00000000000008349, -11.50000000000006928, 0.000000000000000000 ) ) ;
#242 = CARTESIAN_POINT ( 'NONE',  ( 16.00000000000008527, 11.49999999999995559, 5.000000000000000000 ) ) ;
#243 = AXIS2_PLACEMENT_3D ( 'NONE', #97, #902, #696 ) ;
#244 = LINE ( 'NONE', #593, #23 ) ;
#245 = AXIS2_PLACEMENT_3D ( 'NONE', #650, #510, #574 ) ;
#246 = AXIS2_PLACEMENT_3D ( 'NONE', #487, #408, #625 ) ;
#247 = VECTOR ( 'NONE', #36, 1000.000000000000000 ) ;
#248 = CARTESIAN_POINT ( 'NONE',  ( -13.99999999999991651, -11.50000000000006750, 10.00000000000000000 ) ) ;
#249 = FACE_OUTER_BOUND ( 'NONE', #339, .T. ) ;
#250 = SURFACE_STYLE_USAGE ( .BOTH. , #668 ) ;
#251 = EDGE_LOOP ( 'NONE', ( #520, #726, #125, #302 ) ) ;
#252 = LINE ( 'NONE', #475, #298 ) ;
#253 = EDGE_CURVE ( 'NONE', #573, #729, #240, .T. ) ;
#254 = DIRECTION ( 'NONE',  ( -0.000000000000000000, 1.000000000000000000, -0.000000000000000000 ) ) ;
#255 = FACE_OUTER_BOUND ( 'NONE', #1, .T. ) ;
#256 = LINE ( 'NONE', #105, #264 ) ;
#257 = ORIENTED_EDGE ( 'NONE', *, *, #86, .T. ) ;
#258 = LINE ( 'NONE', #107, #592 ) ;
#259 = CARTESIAN_POINT ( 'NONE',  ( -15.99999999999991651, 17.49999999999995737, 0.000000000000000000 ) ) ;
#260 = CARTESIAN_POINT ( 'NONE',  ( 11.24999999999999822, 17.49999999999995737, 5.000000000000003553 ) ) ;
#261 = DIRECTION ( 'NONE',  ( 0.000000000000000000, 0.000000000000000000, 1.000000000000000000 ) ) ;
#262 = ORIENTED_EDGE ( 'NONE', *, *, #253, .T. ) ;
#263 = CIRCLE ( 'NONE', #355, 2.399999999999994138 ) ;
#264 = VECTOR ( 'NONE', #54, 1000.000000000000000 ) ;
#265 = PLANE ( 'NONE',  #230 ) ;
#266 = DIRECTION ( 'NONE',  ( 1.000000000000000000, -0.000000000000000000, 3.854941057726238467E-17 ) ) ;
#267 = DIRECTION ( 'NONE',  ( -1.000000000000000000, 0.000000000000000000, 8.163404592832019174E-16 ) ) ;
#268 = VERTEX_POINT ( 'NONE', #735 ) ;
#269 = PLANE ( 'NONE',  #865 ) ;
#270 = LINE ( 'NONE', #330, #734 ) ;
#271 = CARTESIAN_POINT ( 'NONE',  ( 11.25000000000000533, -6.500000000000068390, 8.249999999999998224 ) ) ;
#272 = DIRECTION ( 'NONE',  ( 0.000000000000000000, 0.000000000000000000, -1.000000000000000000 ) ) ;
#273 = VERTEX_POINT ( 'NONE', #746 ) ;
#274 = DIRECTION ( 'NONE',  ( 1.000000000000000000, 0.000000000000000000, 0.000000000000000000 ) ) ;
#275 = DIRECTION ( 'NONE',  ( 1.000000000000000000, 0.000000000000000000, 0.000000000000000000 ) ) ;
#276 = ORIENTED_EDGE ( 'NONE', *, *, #834, .T. ) ;
#277 = AXIS2_PLACEMENT_3D ( 'NONE', #19, #14, #308 ) ;
#278 = ORIENTED_EDGE ( 'NONE', *, *, #635, .T. ) ;
#279 = CIRCLE ( 'NONE', #803, 2.000000000000000000 ) ;
#280 = AXIS2_PLACEMENT_3D ( 'NONE', #884, #586, #454 ) ;
#281 = EDGE_CURVE ( 'NONE', #64, #480, #154, .T. ) ;
#282 = AXIS2_PLACEMENT_3D ( 'NONE', #241, #750, #169 ) ;
#283 = CIRCLE ( 'NONE', #49, 2.000000000000000000 ) ;
#284 = PLANE ( 'NONE',  #136 ) ;
#285 = DIRECTION ( 'NONE',  ( 2.135044278125304498E-15, -0.000000000000000000, 1.000000000000000000 ) ) ;
#286 = VERTEX_POINT ( 'NONE', #158 ) ;
#287 = CARTESIAN_POINT ( 'NONE',  ( -11.25000000000000178, 11.49999999999995559, 5.000000000000000000 ) ) ;
#288 = DIRECTION ( 'NONE',  ( 0.000000000000000000, 0.000000000000000000, 1.000000000000000000 ) ) ;
#289 = VERTEX_POINT ( 'NONE', #532 ) ;
#290 = ADVANCED_FACE ( 'NONE', ( #13 ), #450, .T. ) ;
#291 = DIRECTION ( 'NONE',  ( -0.000000000000000000, 1.000000000000000000, -0.000000000000000000 ) ) ;
#292 = VERTEX_POINT ( 'NONE', #85 ) ;
#293 = EDGE_CURVE ( 'NONE', #72, #581, #817, .T. ) ;
#294 = CIRCLE ( 'NONE', #338, 2.399999999999996803 ) ;
#295 = EDGE_CURVE ( 'NONE', #365, #300, #263, .T. ) ;
#296 = VECTOR ( 'NONE', #601, 1000.000000000000000 ) ;
#297 = LINE ( 'NONE', #716, #773 ) ;
#298 = VECTOR ( 'NONE', #469, 1000.000000000000000 ) ;
#299 = ORIENTED_EDGE ( 'NONE', *, *, #354, .T. ) ;
#300 = VERTEX_POINT ( 'NONE', #894 ) ;
#301 = DIRECTION ( 'NONE',  ( 0.000000000000000000, -0.000000000000000000, -1.000000000000000000 ) ) ;
#302 = ORIENTED_EDGE ( 'NONE', *, *, #82, .T. ) ;
#303 = DIRECTION ( 'NONE',  ( 1.000000000000000000, 0.000000000000000000, 0.000000000000000000 ) ) ;
#304 = EDGE_LOOP ( 'NONE', ( #373, #179, #451, #924 ) ) ;
#305 = LINE ( 'NONE', #382, #402 ) ;
#306 = VECTOR ( 'NONE', #303, 1000.000000000000000 ) ;
#307 = AXIS2_PLACEMENT_3D ( 'NONE', #476, #898, #38 ) ;
#308 = DIRECTION ( 'NONE',  ( 1.000000000000000000, 0.000000000000000000, -0.000000000000000000 ) ) ;
#309 = ADVANCED_FACE ( 'NONE', ( #598 ), #678, .T. ) ;
#310 = VECTOR ( 'NONE', #540, 1000.000000000000000 ) ;
#311 = AXIS2_PLACEMENT_3D ( 'NONE', #704, #40, #173 ) ;
#312 = ORIENTED_EDGE ( 'NONE', *, *, #859, .F. ) ;
#313 = DIRECTION ( 'NONE',  ( -1.000000000000000000, -0.000000000000000000, -0.000000000000000000 ) ) ;
#314 = CARTESIAN_POINT ( 'NONE',  ( -11.25000000000000178, 11.49999999999995559, 5.000000000000000000 ) ) ;
#315 = LINE ( 'NONE', #156, #805 ) ;
#316 = ADVANCED_FACE ( 'NONE', ( #162 ), #18, .F. ) ;
#317 = CARTESIAN_POINT ( 'NONE',  ( 11.25000000000000533, -36.54886114323228696, 8.249999999999998224 ) ) ;
#318 = LINE ( 'NONE', #533, #821 ) ;
#319 = DIRECTION ( 'NONE',  ( -0.000000000000000000, 1.000000000000000000, -0.000000000000000000 ) ) ;
#320 = ORIENTED_EDGE ( 'NONE', *, *, #232, .F. ) ;
#321 = DIRECTION ( 'NONE',  ( -0.000000000000000000, 1.000000000000000000, -0.000000000000000000 ) ) ;
#322 = ORIENTED_EDGE ( 'NONE', *, *, #65, .F. ) ;
#323 = FILL_AREA_STYLE ('',( #457 ) ) ;
#324 = DIRECTION ( 'NONE',  ( 0.000000000000000000, 0.000000000000000000, 1.000000000000000000 ) ) ;
#325 = CARTESIAN_POINT ( 'NONE',  ( 9.125000000000001776, -6.500000000000068390, 10.00000000000000000 ) ) ;
#326 = EDGE_CURVE ( 'NONE', #910, #292, #590, .T. ) ;
#327 = DIRECTION ( 'NONE',  ( -1.000000000000000000, 0.000000000000000000, 0.000000000000000000 ) ) ;
#328 = FACE_OUTER_BOUND ( 'NONE', #800, .T. ) ;
#329 = CARTESIAN_POINT ( 'NONE',  ( -15.99999999999991651, 17.49999999999995737, 10.00000000000000000 ) ) ;
#330 = CARTESIAN_POINT ( 'NONE',  ( -15.99999999999991651, 9.099999999999958789, 5.000000000000002665 ) ) ;
#331 = FACE_OUTER_BOUND ( 'NONE', #333, .T. ) ;
#332 = PLANE ( 'NONE',  #671 ) ;
#333 = EDGE_LOOP ( 'NONE', ( #747, #444 ) ) ;
#334 = APPLICATION_CONTEXT ( 'automotive_design' ) ;
#335 = LINE ( 'NONE', #701, #404 ) ;
#336 = CARTESIAN_POINT ( 'NONE',  ( 0.000000000000000000, 0.000000000000000000, -25.00000000000000000 ) ) ;
#337 = CARTESIAN_POINT ( 'NONE',  ( -15.99999999999991651, 11.49999999999995559, 2.600000000000003197 ) ) ;
#338 = AXIS2_PLACEMENT_3D ( 'NONE', #314, #172, #890 ) ;
#339 = EDGE_LOOP ( 'NONE', ( #231, #278, #597, #211 ) ) ;
#340 = AXIS2_PLACEMENT_3D ( 'NONE', #774, #483, #765 ) ;
#341 = CARTESIAN_POINT ( 'NONE',  ( 0.000000000000000000, 0.000000000000000000, -23.00000000000000000 ) ) ;
#342 = DIRECTION ( 'NONE',  ( 0.000000000000000000, 0.000000000000000000, 1.000000000000000000 ) ) ;
#343 = DIRECTION ( 'NONE',  ( 1.224646799147353207E-16, 1.000000000000000000, -0.000000000000000000 ) ) ;
#344 = ORIENTED_EDGE ( 'NONE', *, *, #185, .F. ) ;
#345 = EDGE_CURVE ( 'NONE', #292, #142, #166, .T. ) ;
#346 = CARTESIAN_POINT ( 'NONE',  ( 11.25000000000000533, 17.49999999999995737, 8.249999999999998224 ) ) ;
#347 = FACE_OUTER_BOUND ( 'NONE', #919, .T. ) ;
#348 = DIRECTION ( 'NONE',  ( -1.000000000000000000, 1.224646799147352961E-16, 0.000000000000000000 ) ) ;
#349 = ORIENTED_EDGE ( 'NONE', *, *, #51, .T. ) ;
#350 = EDGE_CURVE ( 'NONE', #633, #461, #465, .T. ) ;
#351 = CARTESIAN_POINT ( 'NONE',  ( -11.25000000000000178, -36.54886114323228696, 5.000000000000002665 ) ) ;
#352 = ORIENTED_EDGE ( 'NONE', *, *, #825, .F. ) ;
#353 = AXIS2_PLACEMENT_3D ( 'NONE', #401, #542, #709 ) ;
#354 = EDGE_CURVE ( 'NONE', #652, #220, #547, .T. ) ;
#355 = AXIS2_PLACEMENT_3D ( 'NONE', #242, #313, #394 ) ;
#356 = CIRCLE ( 'NONE', #218, 2.000000000000000000 ) ;
#357 = CYLINDRICAL_SURFACE ( 'NONE', #891, 2.000000000000000000 ) ;
#358 = EDGE_CURVE ( 'NONE', #729, #588, #460, .T. ) ;
#359 = ORIENTED_EDGE ( 'NONE', *, *, #551, .T. ) ;
#360 = EDGE_CURVE ( 'NONE', #163, #95, #96, .T. ) ;
#361 = ORIENTED_EDGE ( 'NONE', *, *, #235, .F. ) ;
#362 = CARTESIAN_POINT ( 'NONE',  ( -15.99999999999991651, 11.49999999999995559, 7.399999999999999467 ) ) ;
#363 = EDGE_LOOP ( 'NONE', ( #387, #148, #798, #621 ) ) ;
#364 = EDGE_CURVE ( 'NONE', #142, #163, #719, .T. ) ;
#365 = VERTEX_POINT ( 'NONE', #591 ) ;
#366 = CARTESIAN_POINT ( 'NONE',  ( -15.99999999999991651, 17.49999999999995737, 0.000000000000000000 ) ) ;
#367 = EDGE_CURVE ( 'NONE', #239, #268, #812, .T. ) ;
#368 = SHAPE_DEFINITION_REPRESENTATION ( #651, #642 ) ;
#369 = ORIENTED_EDGE ( 'NONE', *, *, #134, .T. ) ;
#370 = CIRCLE ( 'NONE', #446, 2.000000000000000000 ) ;
#371 = DIRECTION ( 'NONE',  ( 0.000000000000000000, 0.000000000000000000, -1.000000000000000000 ) ) ;
#372 = VECTOR ( 'NONE', #479, 1000.000000000000000 ) ;
#373 = ORIENTED_EDGE ( 'NONE', *, *, #51, .F. ) ;
#374 = DIRECTION ( 'NONE',  ( 1.000000000000000000, 0.000000000000000000, -0.000000000000000000 ) ) ;
#375 = VERTEX_POINT ( 'NONE', #912 ) ;
#376 = DIRECTION ( 'NONE',  ( -2.168404344971011629E-15, 0.000000000000000000, -1.000000000000000000 ) ) ;
#377 = ORIENTED_EDGE ( 'NONE', *, *, #825, .T. ) ;
#378 = CARTESIAN_POINT ( 'NONE',  ( 14.00000000000008349, -11.50000000000006928, 10.00000000000000000 ) ) ;
#379 = EDGE_LOOP ( 'NONE', ( #762, #204, #705, #565 ) ) ;
#380 = DIRECTION ( 'NONE',  ( -0.000000000000000000, -0.000000000000000000, 1.000000000000000000 ) ) ;
#381 = EDGE_CURVE ( 'NONE', #588, #729, #654, .T. ) ;
#382 = CARTESIAN_POINT ( 'NONE',  ( 9.125000000000001776, -6.500000000000068390, 8.250000000000000000 ) ) ;
#383 = CIRCLE ( 'NONE', #638, 2.000000000000000000 ) ;
#384 = DIRECTION ( 'NONE',  ( 3.854941057726238467E-17, 0.000000000000000000, -1.000000000000000000 ) ) ;
#385 = PRESENTATION_STYLE_ASSIGNMENT (( #250 ) ) ;
#386 = CIRCLE ( 'NONE', #907, 4.000000000000000000 ) ;
#387 = ORIENTED_EDGE ( 'NONE', *, *, #649, .T. ) ;
#388 = EDGE_CURVE ( 'NONE', #436, #693, #270, .T. ) ;
#389 = CARTESIAN_POINT ( 'NONE',  ( -9.124999999999998224, -36.54886114323228696, 8.250000000000001776 ) ) ;
#390 = VERTEX_POINT ( 'NONE', #108 ) ;
#391 = EDGE_CURVE ( 'NONE', #292, #753, #772, .T. ) ;
#392 = ADVANCED_FACE ( 'NONE', ( #708, #557 ), #196, .F. ) ;
#393 = CYLINDRICAL_SURFACE ( 'NONE', #406, 2.000000000000000000 ) ;
#394 = DIRECTION ( 'NONE',  ( 0.000000000000000000, 0.000000000000000000, 1.000000000000000000 ) ) ;
#395 = ORIENTED_EDGE ( 'NONE', *, *, #712, .F. ) ;
#396 = DIRECTION ( 'NONE',  ( -0.000000000000000000, -1.000000000000000000, -0.000000000000000000 ) ) ;
#397 = EDGE_LOOP ( 'NONE', ( #236, #568, #262, #147 ) ) ;
#398 = CARTESIAN_POINT ( 'NONE',  ( -13.99999999999991651, 17.49999999999995737, 0.000000000000000000 ) ) ;
#399 = CARTESIAN_POINT ( 'NONE',  ( 16.00000000000008527, 15.49999999999995737, 0.000000000000000000 ) ) ;
#400 = VECTOR ( 'NONE', #266, 1000.000000000000000 ) ;
#401 = CARTESIAN_POINT ( 'NONE',  ( 0.000000000000000000, 0.000000000000000000, -2.000000000000001776 ) ) ;
#402 = VECTOR ( 'NONE', #807, 1000.000000000000000 ) ;
#403 = DIRECTION ( 'NONE',  ( -0.000000000000000000, 0.000000000000000000, 1.000000000000000000 ) ) ;
#404 = VECTOR ( 'NONE', #686, 1000.000000000000000 ) ;
#405 = ORIENTED_EDGE ( 'NONE', *, *, #232, .T. ) ;
#406 = AXIS2_PLACEMENT_3D ( 'NONE', #680, #700, #24 ) ;
#407 = EDGE_CURVE ( 'NONE', #468, #390, #335, .T. ) ;
#408 = DIRECTION ( 'NONE',  ( -0.000000000000000000, -0.000000000000000000, -1.000000000000000000 ) ) ;
#409 = CARTESIAN_POINT ( 'NONE',  ( -2.000000000000000000, 0.000000000000000000, -23.00000000000000000 ) ) ;
#410 = PLANE ( 'NONE',  #141 ) ;
#411 = DIRECTION ( 'NONE',  ( 0.000000000000000000, 0.000000000000000000, -1.000000000000000000 ) ) ;
#412 = EDGE_CURVE ( 'NONE', #509, #464, #690, .T. ) ;
#413 = DIRECTION ( 'NONE',  ( -1.000000000000000000, 0.000000000000000000, 0.000000000000000000 ) ) ;
#414 = ORIENTED_EDGE ( 'NONE', *, *, #42, .T. ) ;
#415 = CARTESIAN_POINT ( 'NONE',  ( -9.124999999999998224, -6.500000000000067502, 10.00000000000000000 ) ) ;
#416 = CARTESIAN_POINT ( 'NONE',  ( -13.99999999999991651, 15.49999999999995737, 0.000000000000000000 ) ) ;
#417 = DIRECTION ( 'NONE',  ( -1.000000000000000000, -0.000000000000000000, -3.854941057726238467E-17 ) ) ;
#418 = ORIENTED_EDGE ( 'NONE', *, *, #182, .T. ) ;
#419 = PRESENTATION_LAYER_ASSIGNMENT (  '', '', ( #27 ) ) ;
#420 = DIRECTION ( 'NONE',  ( 0.000000000000000000, 1.000000000000000000, 0.000000000000000000 ) ) ;
#421 = PLANE ( 'NONE',  #801 ) ;
#422 = ADVANCED_FACE ( 'NONE', ( #52 ), #893, .F. ) ;
#423 = DIRECTION ( 'NONE',  ( 0.000000000000000000, 0.000000000000000000, 1.000000000000000000 ) ) ;
#424 = ORIENTED_EDGE ( 'NONE', *, *, #26, .T. ) ;
#425 = CARTESIAN_POINT ( 'NONE',  ( 0.000000000000000000, 0.000000000000000000, -25.00000000000000000 ) ) ;
#426 = EDGE_LOOP ( 'NONE', ( #299, #414 ) ) ;
#427 = EDGE_LOOP ( 'NONE', ( #613, #809, #656, #349, #455, #858, #539, #140 ) ) ;
#428 = CARTESIAN_POINT ( 'NONE',  ( -11.25000000000000178, 11.49999999999995559, 7.399999999999996803 ) ) ;
#429 = ORIENTED_EDGE ( 'NONE', *, *, #808, .F. ) ;
#430 = AXIS2_PLACEMENT_3D ( 'NONE', #769, #342, #53 ) ;
#431 = AXIS2_PLACEMENT_3D ( 'NONE', #559, #839, #186 ) ;
#432 = CARTESIAN_POINT ( 'NONE',  ( -15.99999999999991651, 17.49999999999995737, 10.00000000000000000 ) ) ;
#433 = VECTOR ( 'NONE', #553, 1000.000000000000000 ) ;
#434 = MECHANICAL_DESIGN_GEOMETRIC_PRESENTATION_REPRESENTATION (  '', ( #27 ), #121 ) ;
#435 = DIRECTION ( 'NONE',  ( -1.000000000000000000, -0.000000000000000000, -0.000000000000000000 ) ) ;
#436 = VERTEX_POINT ( 'NONE', #171 ) ;
#437 = ORIENTED_EDGE ( 'NONE', *, *, #86, .F. ) ;
#438 = FACE_OUTER_BOUND ( 'NONE', #397, .T. ) ;
#439 = EDGE_CURVE ( 'NONE', #573, #375, #383, .T. ) ;
#440 = ORIENTED_EDGE ( 'NONE', *, *, #391, .F. ) ;
#441 = ORIENTED_EDGE ( 'NONE', *, *, #182, .F. ) ;
#442 = CARTESIAN_POINT ( 'NONE',  ( -15.99999999999991651, 17.49999999999995737, 10.00000000000000000 ) ) ;
#443 = PRODUCT_CONTEXT ( 'NONE', #334, 'mechanical' ) ;
#444 = ORIENTED_EDGE ( 'NONE', *, *, #221, .T. ) ;
#445 = EDGE_CURVE ( 'NONE', #58, #852, #610, .T. ) ;
#446 = AXIS2_PLACEMENT_3D ( 'NONE', #115, #495, #908 ) ;
#447 = AXIS2_PLACEMENT_3D ( 'NONE', #831, #183, #482 ) ;
#448 = DIRECTION ( 'NONE',  ( -1.000000000000000000, -0.000000000000000000, -0.000000000000000000 ) ) ;
#449 = ORIENTED_EDGE ( 'NONE', *, *, #345, .F. ) ;
#450 = CYLINDRICAL_SURFACE ( 'NONE', #717, 2.000000000000000000 ) ;
#451 = ORIENTED_EDGE ( 'NONE', *, *, #59, .F. ) ;
#452 = LINE ( 'NONE', #467, #550 ) ;
#453 = PRODUCT_DEFINITION_CONTEXT ( 'detailed design', #707, 'design' ) ;
#454 = DIRECTION ( 'NONE',  ( 1.000000000000000000, 0.000000000000000000, 0.000000000000000000 ) ) ;
#455 = ORIENTED_EDGE ( 'NONE', *, *, #213, .F. ) ;
#456 = EDGE_CURVE ( 'NONE', #581, #68, #98, .T. ) ;
#457 = FILL_AREA_STYLE_COLOUR ( '', #201 ) ;
#458 = DIRECTION ( 'NONE',  ( -1.000000000000000000, -0.000000000000000000, -0.000000000000000000 ) ) ;
#459 = DIRECTION ( 'NONE',  ( -0.000000000000000000, -0.000000000000000000, 1.000000000000000000 ) ) ;
#460 = CIRCLE ( 'NONE', #804, 4.000000000000000000 ) ;
#461 = VERTEX_POINT ( 'NONE', #545 ) ;
#462 = CARTESIAN_POINT ( 'NONE',  ( -15.99999999999991651, -11.50000000000006928, 0.000000000000000000 ) ) ;
#463 = PRODUCT_DEFINITION_FORMATION_WITH_SPECIFIED_SOURCE ( 'ANY', '', #811, .NOT_KNOWN. ) ;
#464 = VERTEX_POINT ( 'NONE', #415 ) ;
#465 = LINE ( 'NONE', #594, #9 ) ;
#466 = ORIENTED_EDGE ( 'NONE', *, *, #537, .F. ) ;
#467 = CARTESIAN_POINT ( 'NONE',  ( 16.00000000000008527, 17.49999999999995737, 0.000000000000000000 ) ) ;
#468 = VERTEX_POINT ( 'NONE', #399 ) ;
#469 = DIRECTION ( 'NONE',  ( -0.000000000000000000, -0.000000000000000000, -1.000000000000000000 ) ) ;
#470 = DIRECTION ( 'NONE',  ( -1.000000000000000000, 0.000000000000000000, 0.000000000000000000 ) ) ;
#471 = DIRECTION ( 'NONE',  ( 0.000000000000000000, 0.000000000000000000, -1.000000000000000000 ) ) ;
#472 = FACE_OUTER_BOUND ( 'NONE', #783, .T. ) ;
#473 = ADVANCED_FACE ( 'NONE', ( #103 ), #265, .T. ) ;
#474 = VERTEX_POINT ( 'NONE', #836 ) ;
#475 = CARTESIAN_POINT ( 'NONE',  ( 9.125000000000001776, 17.49999999999995737, 8.250000000000000000 ) ) ;
#476 = CARTESIAN_POINT ( 'NONE',  ( 0.000000000000000000, 0.000000000000000000, -25.00000000000000000 ) ) ;
#477 = CARTESIAN_POINT ( 'NONE',  ( -11.25000000000000178, 17.49999999999995737, 5.000000000000002665 ) ) ;
#478 = VECTOR ( 'NONE', #662, 1000.000000000000000 ) ;
#479 = DIRECTION ( 'NONE',  ( -0.000000000000000000, 1.000000000000000000, -0.000000000000000000 ) ) ;
#480 = VERTEX_POINT ( 'NONE', #346 ) ;
#481 = DIRECTION ( 'NONE',  ( -1.000000000000000000, -0.000000000000000000, -0.000000000000000000 ) ) ;
#482 = DIRECTION ( 'NONE',  ( 1.000000000000000000, 0.000000000000000000, 0.000000000000000000 ) ) ;
#483 = DIRECTION ( 'NONE',  ( 8.163404592832019174E-16, 0.000000000000000000, 1.000000000000000000 ) ) ;
#484 = CARTESIAN_POINT ( 'NONE',  ( -11.25000000000000178, 17.49999999999995737, 5.000000000000002665 ) ) ;
#485 = ORIENTED_EDGE ( 'NONE', *, *, #456, .T. ) ;
#486 = CARTESIAN_POINT ( 'NONE',  ( -9.124999999999998224, 17.49999999999995737, 8.250000000000001776 ) ) ;
#487 = CARTESIAN_POINT ( 'NONE',  ( 0.000000000000000000, 0.000000000000000000, -2.000000000000001776 ) ) ;
#488 = CARTESIAN_POINT ( 'NONE',  ( -9.124999999999998224, -6.500000000000068390, 8.250000000000001776 ) ) ;
#489 = LINE ( 'NONE', #607, #517 ) ;
#490 = ORIENTED_EDGE ( 'NONE', *, *, #624, .T. ) ;
#491 = DIRECTION ( 'NONE',  ( -1.000000000000000000, 0.000000000000000000, 9.505334114941409750E-17 ) ) ;
#492 = PLANE ( 'NONE',  #340 ) ;
#493 = LINE ( 'NONE', #337, #184 ) ;
#494 = ORIENTED_EDGE ( 'NONE', *, *, #281, .T. ) ;
#495 = DIRECTION ( 'NONE',  ( -0.000000000000000000, -0.000000000000000000, -1.000000000000000000 ) ) ;
#496 = ORIENTED_EDGE ( 'NONE', *, *, #360, .T. ) ;
#497 = EDGE_CURVE ( 'NONE', #928, #375, #877, .T. ) ;
#498 = ORIENTED_EDGE ( 'NONE', *, *, #728, .F. ) ;
#499 = CARTESIAN_POINT ( 'NONE',  ( -15.99999999999991651, 15.49999999999995737, 0.000000000000000000 ) ) ;
#500 = EDGE_LOOP ( 'NONE', ( #174, #675, #505, #544 ) ) ;
#501 = ORIENTED_EDGE ( 'NONE', *, *, #17, .T. ) ;
#502 = CARTESIAN_POINT ( 'NONE',  ( -15.99999999999991651, 17.49999999999995737, 10.00000000000000000 ) ) ;
#503 = APPLICATION_PROTOCOL_DEFINITION ( 'draft international standard', 'automotive_design', 1998, #334 ) ;
#504 = ORIENTED_EDGE ( 'NONE', *, *, #191, .T. ) ;
#505 = ORIENTED_EDGE ( 'NONE', *, *, #281, .F. ) ;
#506 = VECTOR ( 'NONE', #73, 1000.000000000000000 ) ;
#507 = ADVANCED_FACE ( 'NONE', ( #630 ), #92, .T. ) ;
#508 = CIRCLE ( 'NONE', #622, 2.000000000000000000 ) ;
#509 = VERTEX_POINT ( 'NONE', #325 ) ;
#510 = DIRECTION ( 'NONE',  ( -0.000000000000000000, -0.000000000000000000, 1.000000000000000000 ) ) ;
#511 = EDGE_LOOP ( 'NONE', ( #841, #320, #194, #782, #660, #523, #466, #815 ) ) ;
#512 = DIRECTION ( 'NONE',  ( 0.000000000000000000, -1.000000000000000000, 0.000000000000000000 ) ) ;
#513 = ORIENTED_EDGE ( 'NONE', *, *, #793, .T. ) ;
#514 = VECTOR ( 'NONE', #411, 1000.000000000000000 ) ;
#515 = CARTESIAN_POINT ( 'NONE',  ( 0.000000000000000000, 0.000000000000000000, -2.000000000000001776 ) ) ;
#516 = CIRCLE ( 'NONE', #139, 2.399999999999999467 ) ;
#517 = VECTOR ( 'NONE', #178, 1000.000000000000000 ) ;
#518 = ORIENTED_EDGE ( 'NONE', *, *, #569, .T. ) ;
#519 = CARTESIAN_POINT ( 'NONE',  ( -11.25000000000000178, 9.099999999999955236, 5.000000000000002665 ) ) ;
#520 = ORIENTED_EDGE ( 'NONE', *, *, #697, .T. ) ;
#521 = CARTESIAN_POINT ( 'NONE',  ( -15.99999999999991651, -13.50000000000006750, 10.00000000000000000 ) ) ;
#522 = CARTESIAN_POINT ( 'NONE',  ( -11.25000000000000178, -36.54886114323228696, 5.000000000000002665 ) ) ;
#523 = ORIENTED_EDGE ( 'NONE', *, *, #205, .F. ) ;
#524 = ORIENTED_EDGE ( 'NONE', *, *, #364, .T. ) ;
#525 = UNCERTAINTY_MEASURE_WITH_UNIT (LENGTH_MEASURE( 1.000000000000000082E-05 ), #67, 'distance_accuracy_value', 'NONE');
#526 = DIRECTION ( 'NONE',  ( -0.000000000000000000, -0.000000000000000000, -1.000000000000000000 ) ) ;
#527 = EDGE_LOOP ( 'NONE', ( #83, #16, #576, #524, #682, #767, #634, #577, #647, #359, #441, #640 ) ) ;
#528 = DIRECTION ( 'NONE',  ( -1.000000000000000000, 0.000000000000000000, 0.000000000000000000 ) ) ;
#529 = FACE_OUTER_BOUND ( 'NONE', #304, .T. ) ;
#530 = CIRCLE ( 'NONE', #430, 6.000000000000000000 ) ;
#531 = AXIS2_PLACEMENT_3D ( 'NONE', #425, #723, #922 ) ;
#532 = CARTESIAN_POINT ( 'NONE',  ( 9.125000000000001776, 17.49999999999995737, 10.00000000000000000 ) ) ;
#533 = CARTESIAN_POINT ( 'NONE',  ( -9.124999999999998224, -6.500000000000068390, 10.00000000000000178 ) ) ;
#534 = ORIENTED_EDGE ( 'NONE', *, *, #360, .F. ) ;
#535 = FACE_OUTER_BOUND ( 'NONE', #511, .T. ) ;
#536 = CARTESIAN_POINT ( 'NONE',  ( -11.25000000000000178, -36.54886114323228696, 8.250000000000001776 ) ) ;
#537 = EDGE_CURVE ( 'NONE', #72, #58, #846, .T. ) ;
#538 = DIRECTION ( 'NONE',  ( -1.000000000000000000, 0.000000000000000000, -3.854941057726238467E-17 ) ) ;
#539 = ORIENTED_EDGE ( 'NONE', *, *, #720, .T. ) ;
#540 = DIRECTION ( 'NONE',  ( 1.000000000000000000, 0.000000000000000000, 0.000000000000000000 ) ) ;
#541 = CARTESIAN_POINT ( 'NONE',  ( -13.99999999999991651, -13.50000000000006750, 10.00000000000000000 ) ) ;
#542 = DIRECTION ( 'NONE',  ( 0.000000000000000000, 0.000000000000000000, 1.000000000000000000 ) ) ;
#543 = FACE_OUTER_BOUND ( 'NONE', #828, .T. ) ;
#544 = ORIENTED_EDGE ( 'NONE', *, *, #887, .T. ) ;
#545 = CARTESIAN_POINT ( 'NONE',  ( -13.99999999999991651, 17.49999999999995737, 10.00000000000000000 ) ) ;
#546 = DIRECTION ( 'NONE',  ( -0.000000000000000000, -0.000000000000000000, 1.000000000000000000 ) ) ;
#547 = CIRCLE ( 'NONE', #280, 6.000000000000000000 ) ;
#548 = DIRECTION ( 'NONE',  ( 1.000000000000000000, 0.000000000000000000, 0.000000000000000000 ) ) ;
#549 = ORIENTED_EDGE ( 'NONE', *, *, #216, .T. ) ;
#550 = VECTOR ( 'NONE', #664, 1000.000000000000000 ) ;
#551 = EDGE_CURVE ( 'NONE', #464, #68, #842, .T. ) ;
#552 = DIRECTION ( 'NONE',  ( 0.000000000000000000, 1.000000000000000000, 0.000000000000000000 ) ) ;
#553 = DIRECTION ( 'NONE',  ( -1.000000000000000000, 0.000000000000000000, 0.000000000000000000 ) ) ;
#554 = FACE_OUTER_BOUND ( 'NONE', #871, .T. ) ;
#555 = PLANE ( 'NONE',  #761 ) ;
#556 = ORIENTED_EDGE ( 'NONE', *, *, #724, .F. ) ;
#557 = FACE_BOUND ( 'NONE', #927, .T. ) ;
#558 = EDGE_CURVE ( 'NONE', #699, #910, #145, .T. ) ;
#559 = CARTESIAN_POINT ( 'NONE',  ( 0.000000000000000000, 0.000000000000000000, -25.00000000000000000 ) ) ;
#560 = FACE_BOUND ( 'NONE', #637, .T. ) ;
#561 = ORIENTED_EDGE ( 'NONE', *, *, #808, .T. ) ;
#562 = CARTESIAN_POINT ( 'NONE',  ( -11.25000000000000178, -6.500000000000068390, 5.000000000000002665 ) ) ;
#563 = AXIS2_PLACEMENT_3D ( 'NONE', #336, #546, #274 ) ;
#564 = CIRCLE ( 'NONE', #165, 2.399999999999994138 ) ;
#565 = ORIENTED_EDGE ( 'NONE', *, *, #221, .F. ) ;
#566 = VECTOR ( 'NONE', #737, 1000.000000000000000 ) ;
#567 = DIRECTION ( 'NONE',  ( 3.854941057726238467E-17, 0.000000000000000000, -1.000000000000000000 ) ) ;
#568 = ORIENTED_EDGE ( 'NONE', *, *, #880, .T. ) ;
#569 = EDGE_CURVE ( 'NONE', #365, #117, #722, .T. ) ;
#570 = EDGE_LOOP ( 'NONE', ( #741, #711, #689, #50, #643, #904, #395, #35 ) ) ;
#571 = DIRECTION ( 'NONE',  ( -1.000000000000000000, -0.000000000000000000, -0.000000000000000000 ) ) ;
#572 = ORIENTED_EDGE ( 'NONE', *, *, #295, .F. ) ;
#573 = VERTEX_POINT ( 'NONE', #677 ) ;
#574 = DIRECTION ( 'NONE',  ( 1.000000000000000000, 0.000000000000000000, 0.000000000000000000 ) ) ;
#575 = CARTESIAN_POINT ( 'NONE',  ( -2.000000000000000000, 0.000000000000000000, -25.00000000000000000 ) ) ;
#576 = ORIENTED_EDGE ( 'NONE', *, *, #345, .T. ) ;
#577 = ORIENTED_EDGE ( 'NONE', *, *, #791, .F. ) ;
#578 = AXIS2_PLACEMENT_3D ( 'NONE', #150, #448, #879 ) ;
#579 = ADVANCED_FACE ( 'NONE', ( #529 ), #393, .T. ) ;
#580 = DIRECTION ( 'NONE',  ( -1.000000000000000000, 0.000000000000000000, 0.000000000000000000 ) ) ;
#581 = VERTEX_POINT ( 'NONE', #486 ) ;
#582 = DIRECTION ( 'NONE',  ( -0.000000000000000000, -0.000000000000000000, 1.000000000000000000 ) ) ;
#583 = ADVANCED_FACE ( 'NONE', ( #604 ), #269, .F. ) ;
#584 = ORIENTED_EDGE ( 'NONE', *, *, #293, .T. ) ;
#585 = EDGE_CURVE ( 'NONE', #63, #129, #694, .T. ) ;
#586 = DIRECTION ( 'NONE',  ( 0.000000000000000000, 0.000000000000000000, 1.000000000000000000 ) ) ;
#587 = ADVANCED_FACE ( 'NONE', ( #535 ), #614, .T. ) ;
#588 = VERTEX_POINT ( 'NONE', #189 ) ;
#589 =( NAMED_UNIT ( * ) SI_UNIT ( $, .STERADIAN. ) SOLID_ANGLE_UNIT ( ) );
#590 = CIRCLE ( 'NONE', #180, 2.000000000000000000 ) ;
#591 = CARTESIAN_POINT ( 'NONE',  ( 16.00000000000008527, 11.49999999999995559, 7.399999999999994138 ) ) ;
#592 = VECTOR ( 'NONE', #396, 1000.000000000000000 ) ;
#593 = CARTESIAN_POINT ( 'NONE',  ( 16.00000000000008527, 17.49999999999995737, 10.00000000000000000 ) ) ;
#594 = CARTESIAN_POINT ( 'NONE',  ( -13.99999999999991651, 17.49999999999995737, 10.00000000000000000 ) ) ;
#595 = DIRECTION ( 'NONE',  ( 1.000000000000000000, 0.000000000000000000, -2.135044278125304498E-15 ) ) ;
#596 = CARTESIAN_POINT ( 'NONE',  ( 6.000000000000000000, 0.000000000000000000, -8.673617379884035472E-16 ) ) ;
#597 = ORIENTED_EDGE ( 'NONE', *, *, #293, .F. ) ;
#598 = FACE_OUTER_BOUND ( 'NONE', #779, .T. ) ;
#599 = VERTEX_POINT ( 'NONE', #827 ) ;
#600 = VECTOR ( 'NONE', #778, 1000.000000000000000 ) ;
#601 = DIRECTION ( 'NONE',  ( -0.000000000000000000, -0.000000000000000000, 1.000000000000000000 ) ) ;
#602 = PLANE ( 'NONE',  #277 ) ;
#603 = ORIENTED_EDGE ( 'NONE', *, *, #350, .T. ) ;
#604 = FACE_OUTER_BOUND ( 'NONE', #527, .T. ) ;
#605 = DIRECTION ( 'NONE',  ( -0.000000000000000000, -0.000000000000000000, 1.000000000000000000 ) ) ;
#606 = LINE ( 'NONE', #562, #400 ) ;
#607 = CARTESIAN_POINT ( 'NONE',  ( 14.00000000000008171, -13.50000000000006750, 10.00000000000000000 ) ) ;
#608 = LINE ( 'NONE', #751, #310 ) ;
#609 = EDGE_CURVE ( 'NONE', #289, #268, #252, .T. ) ;
#610 = LINE ( 'NONE', #536, #10 ) ;
#611 = PLANE ( 'NONE',  #431 ) ;
#612 = LINE ( 'NONE', #692, #776 ) ;
#613 = ORIENTED_EDGE ( 'NONE', *, *, #624, .F. ) ;
#614 = PLANE ( 'NONE',  #655 ) ;
#615 = EDGE_CURVE ( 'NONE', #144, #188, #516, .T. ) ;
#616 = CARTESIAN_POINT ( 'NONE',  ( -9.124999999999998224, -6.500000000000068390, 8.250000000000001776 ) ) ;
#617 = DIRECTION ( 'NONE',  ( -1.000000000000000000, 0.000000000000000000, -0.000000000000000000 ) ) ;
#618 = AXIS2_PLACEMENT_3D ( 'NONE', #94, #681, #5 ) ;
#619 = LINE ( 'NONE', #29, #706 ) ;
#620 = VECTOR ( 'NONE', #925, 1000.000000000000000 ) ;
#621 = ORIENTED_EDGE ( 'NONE', *, *, #130, .T. ) ;
#622 = AXIS2_PLACEMENT_3D ( 'NONE', #775, #343, #348 ) ;
#623 = AXIS2_PLACEMENT_3D ( 'NONE', #223, #288, #275 ) ;
#624 = EDGE_CURVE ( 'NONE', #753, #474, #608, .T. ) ;
#625 = DIRECTION ( 'NONE',  ( 1.000000000000000000, 0.000000000000000000, 0.000000000000000000 ) ) ;
#626 = CARTESIAN_POINT ( 'NONE',  ( -13.99999999999991651, 15.49999999999995737, 10.00000000000000000 ) ) ;
#627 = LINE ( 'NONE', #484, #93 ) ;
#628 = ORIENTED_EDGE ( 'NONE', *, *, #326, .F. ) ;
#629 = PRODUCT_DEFINITION ( 'UNKNOWN', '', #463, #453 ) ;
#630 = FACE_OUTER_BOUND ( 'NONE', #379, .T. ) ;
#631 = CARTESIAN_POINT ( 'NONE',  ( 14.00000000000008171, 17.49999999999995737, 10.00000000000000000 ) ) ;
#632 = CARTESIAN_POINT ( 'NONE',  ( -15.99999999999991651, 13.89999999999995417, 5.000000000000002665 ) ) ;
#633 = VERTEX_POINT ( 'NONE', #398 ) ;
#634 = ORIENTED_EDGE ( 'NONE', *, *, #134, .F. ) ;
#635 = EDGE_CURVE ( 'NONE', #852, #581, #684, .T. ) ;
#636 = CARTESIAN_POINT ( 'NONE',  ( 11.24999999999999822, 17.49999999999995737, 5.000000000000003553 ) ) ;
#637 = EDGE_LOOP ( 'NONE', ( #106, #930 ) ) ;
#638 = AXIS2_PLACEMENT_3D ( 'NONE', #768, #764, #31 ) ;
#639 = CIRCLE ( 'NONE', #282, 2.000000000000000000 ) ;
#640 = ORIENTED_EDGE ( 'NONE', *, *, #59, .T. ) ;
#641 = DIRECTION ( 'NONE',  ( -1.000000000000000000, -0.000000000000000000, -0.000000000000000000 ) ) ;
#642 = ADVANCED_BREP_SHAPE_REPRESENTATION ( 'P001-B109_Winding_Plate_Attachment_5', ( #667, #623 ), #878 ) ;
#643 = ORIENTED_EDGE ( 'NONE', *, *, #195, .F. ) ;
#644 = ORIENTED_EDGE ( 'NONE', *, *, #712, .T. ) ;
#645 = LINE ( 'NONE', #222, #91 ) ;
#646 = CARTESIAN_POINT ( 'NONE',  ( -13.99999999999991651, -11.50000000000006750, 0.000000000000000000 ) ) ;
#647 = ORIENTED_EDGE ( 'NONE', *, *, #412, .T. ) ;
#648 = ORIENTED_EDGE ( 'NONE', *, *, #205, .T. ) ;
#649 = EDGE_CURVE ( 'NONE', #286, #273, #258, .T. ) ;
#650 = CARTESIAN_POINT ( 'NONE',  ( 0.000000000000000000, 0.000000000000000000, -25.00000000000000000 ) ) ;
#651 = PRODUCT_DEFINITION_SHAPE ( 'NONE', 'NONE',  #629 ) ;
#652 = VERTEX_POINT ( 'NONE', #596 ) ;
#653 = AXIS2_PLACEMENT_3D ( 'NONE', #749, #595, #663 ) ;
#654 = CIRCLE ( 'NONE', #246, 4.000000000000000000 ) ;
#655 = AXIS2_PLACEMENT_3D ( 'NONE', #175, #552, #755 ) ;
#656 = ORIENTED_EDGE ( 'NONE', *, *, #649, .F. ) ;
#657 = VECTOR ( 'NONE', #674, 1000.000000000000000 ) ;
#658 = FACE_BOUND ( 'NONE', #426, .T. ) ;
#659 = CARTESIAN_POINT ( 'NONE',  ( -15.99999999999991651, -11.50000000000006928, 10.00000000000000000 ) ) ;
#660 = ORIENTED_EDGE ( 'NONE', *, *, #82, .F. ) ;
#661 = EDGE_CURVE ( 'NONE', #599, #693, #814, .T. ) ;
#662 = DIRECTION ( 'NONE',  ( -0.000000000000000000, 1.000000000000000000, -0.000000000000000000 ) ) ;
#663 = DIRECTION ( 'NONE',  ( -2.168404344971011629E-15, 0.000000000000000000, -1.000000000000000000 ) ) ;
#664 = DIRECTION ( 'NONE',  ( -0.000000000000000000, -1.000000000000000000, -0.000000000000000000 ) ) ;
#665 = DIRECTION ( 'NONE',  ( -0.000000000000000000, -0.000000000000000000, 1.000000000000000000 ) ) ;
#666 = ORIENTED_EDGE ( 'NONE', *, *, #439, .T. ) ;
#667 = MANIFOLD_SOLID_BREP ( 'Fillet1', #135 ) ;
#668 = SURFACE_SIDE_STYLE ('',( #742 ) ) ;
#669 = AXIS2_PLACEMENT_3D ( 'NONE', #351, #567, #853 ) ;
#670 = CARTESIAN_POINT ( 'NONE',  ( 4.000000000000000000, 0.000000000000000000, -25.00000000000000000 ) ) ;
#671 = AXIS2_PLACEMENT_3D ( 'NONE', #770, #840, #918 ) ;
#672 = CYLINDRICAL_SURFACE ( 'NONE', #243, 2.399999999999996803 ) ;
#673 = EDGE_CURVE ( 'NONE', #95, #474, #639, .T. ) ;
#674 = DIRECTION ( 'NONE',  ( -0.000000000000000000, 1.000000000000000000, -0.000000000000000000 ) ) ;
#675 = ORIENTED_EDGE ( 'NONE', *, *, #785, .T. ) ;
#676 = VERTEX_POINT ( 'NONE', #81 ) ;
#677 = CARTESIAN_POINT ( 'NONE',  ( 4.000000000000000000, 0.000000000000000000, -23.00000000000000000 ) ) ;
#678 = CYLINDRICAL_SURFACE ( 'NONE', #618, 2.000000000000000000 ) ;
#679 = ORIENTED_EDGE ( 'NONE', *, *, #816, .F. ) ;
#680 = CARTESIAN_POINT ( 'NONE',  ( -13.99999999999991651, 15.49999999999995737, 0.000000000000000000 ) ) ;
#681 = DIRECTION ( 'NONE',  ( 0.000000000000000000, 0.000000000000000000, -1.000000000000000000 ) ) ;
#682 = ORIENTED_EDGE ( 'NONE', *, *, #17, .F. ) ;
#683 = CARTESIAN_POINT ( 'NONE',  ( 11.24999999999999645, 11.49999999999995559, 5.000000000000000000 ) ) ;
#684 = LINE ( 'NONE', #763, #247 ) ;
#685 = VECTOR ( 'NONE', #70, 1000.000000000000000 ) ;
#686 = DIRECTION ( 'NONE',  ( -0.000000000000000000, -0.000000000000000000, 1.000000000000000000 ) ) ;
#687 = DIRECTION ( 'NONE',  ( -0.000000000000000000, -1.000000000000000000, -0.000000000000000000 ) ) ;
#688 = CYLINDRICAL_SURFACE ( 'NONE', #46, 2.399999999999996803 ) ;
#689 = ORIENTED_EDGE ( 'NONE', *, *, #615, .T. ) ;
#690 = LINE ( 'NONE', #695, #745 ) ;
#691 = CARTESIAN_POINT ( 'NONE',  ( 11.25000000000000178, 11.49999999999995559, 7.399999999999996803 ) ) ;
#692 = CARTESIAN_POINT ( 'NONE',  ( 11.25000000000000533, 17.49999999999995737, 8.249999999999998224 ) ) ;
#693 = VERTEX_POINT ( 'NONE', #519 ) ;
#694 = LINE ( 'NONE', #897, #12 ) ;
#695 = CARTESIAN_POINT ( 'NONE',  ( -9.124999999999998224, -6.500000000000068390, 10.00000000000000178 ) ) ;
#696 = DIRECTION ( 'NONE',  ( 0.000000000000000000, 0.000000000000000000, 1.000000000000000000 ) ) ;
#697 = EDGE_CURVE ( 'NONE', #923, #436, #882, .T. ) ;
#698 = DIRECTION ( 'NONE',  ( -1.000000000000000000, 0.000000000000000000, -0.000000000000000000 ) ) ;
#699 = VERTEX_POINT ( 'NONE', #15 ) ;
#700 = DIRECTION ( 'NONE',  ( 0.000000000000000000, 0.000000000000000000, -1.000000000000000000 ) ) ;
#701 = CARTESIAN_POINT ( 'NONE',  ( 16.00000000000008527, 15.49999999999995737, 10.00000000000000000 ) ) ;
#702 = DIRECTION ( 'NONE',  ( 0.000000000000000000, -0.000000000000000000, 1.000000000000000000 ) ) ;
#703 = VECTOR ( 'NONE', #60, 1000.000000000000000 ) ;
#704 = CARTESIAN_POINT ( 'NONE',  ( 0.000000000000000000, 0.000000000000000000, -23.00000000000000000 ) ) ;
#705 = ORIENTED_EDGE ( 'NONE', *, *, #114, .T. ) ;
#706 = VECTOR ( 'NONE', #267, 1000.000000000000000 ) ;
#707 = APPLICATION_CONTEXT ( 'automotive_design' ) ;
#708 = FACE_OUTER_BOUND ( 'NONE', #363, .T. ) ;
#709 = DIRECTION ( 'NONE',  ( 1.000000000000000000, 0.000000000000000000, 0.000000000000000000 ) ) ;
#710 = LINE ( 'NONE', #110, #372 ) ;
#711 = ORIENTED_EDGE ( 'NONE', *, *, #883, .T. ) ;
#712 = EDGE_CURVE ( 'NONE', #117, #436, #789, .T. ) ;
#713 = FACE_OUTER_BOUND ( 'NONE', #864, .T. ) ;
#714 = ORIENTED_EDGE ( 'NONE', *, *, #354, .F. ) ;
#715 = ORIENTED_EDGE ( 'NONE', *, *, #253, .F. ) ;
#716 = CARTESIAN_POINT ( 'NONE',  ( -4.000000000000000000, 4.898587196589412829E-16, -25.00000000000000000 ) ) ;
#717 = AXIS2_PLACEMENT_3D ( 'NONE', #21, #237, #889 ) ;
#718 = ORIENTED_EDGE ( 'NONE', *, *, #585, .T. ) ;
#719 = CIRCLE ( 'NONE', #936, 2.000000000000000000 ) ;
#720 = EDGE_CURVE ( 'NONE', #468, #95, #452, .T. ) ;
#721 = TOROIDAL_SURFACE ( 'NONE', #77, 2.000000000000000000, 2.000000000000000000 ) ;
#722 = LINE ( 'NONE', #161, #215 ) ;
#723 = DIRECTION ( 'NONE',  ( 0.000000000000000000, 0.000000000000000000, -1.000000000000000000 ) ) ;
#724 = EDGE_CURVE ( 'NONE', #55, #852, #315, .T. ) ;
#725 = ORIENTED_EDGE ( 'NONE', *, *, #883, .F. ) ;
#726 = ORIENTED_EDGE ( 'NONE', *, *, #388, .T. ) ;
#727 = LINE ( 'NONE', #926, #933 ) ;
#728 = EDGE_CURVE ( 'NONE', #390, #63, #356, .T. ) ;
#729 = VERTEX_POINT ( 'NONE', #820 ) ;
#730 = EDGE_CURVE ( 'NONE', #273, #910, #164, .T. ) ;
#731 = CARTESIAN_POINT ( 'NONE',  ( 16.00000000000008527, -11.50000000000006928, 10.00000000000000000 ) ) ;
#732 = ORIENTED_EDGE ( 'NONE', *, *, #724, .T. ) ;
#733 = VECTOR ( 'NONE', #932, 1000.000000000000000 ) ;
#734 = VECTOR ( 'NONE', #901, 1000.000000000000000 ) ;
#735 = CARTESIAN_POINT ( 'NONE',  ( 9.125000000000001776, 17.49999999999995737, 8.250000000000000000 ) ) ;
#736 = VERTEX_POINT ( 'NONE', #100 ) ;
#737 = DIRECTION ( 'NONE',  ( 0.000000000000000000, 0.000000000000000000, -1.000000000000000000 ) ) ;
#738 = ORIENTED_EDGE ( 'NONE', *, *, #114, .F. ) ;
#739 = DIRECTION ( 'NONE',  ( -0.000000000000000000, -0.000000000000000000, 1.000000000000000000 ) ) ;
#740 = CARTESIAN_POINT ( 'NONE',  ( 9.125000000000001776, -6.500000000000068390, 8.250000000000000000 ) ) ;
#741 = ORIENTED_EDGE ( 'NONE', *, *, #210, .F. ) ;
#742 = SURFACE_STYLE_FILL_AREA ( #323 ) ;
#743 = CIRCLE ( 'NONE', #862, 2.000000000000000000 ) ;
#744 = CIRCLE ( 'NONE', #200, 2.000000000000001776 ) ;
#745 = VECTOR ( 'NONE', #491, 1000.000000000000000 ) ;
#746 = CARTESIAN_POINT ( 'NONE',  ( -15.99999999999991651, -11.50000000000006928, 0.000000000000000000 ) ) ;
#747 = ORIENTED_EDGE ( 'NONE', *, *, #497, .T. ) ;
#748 = DIRECTION ( 'NONE',  ( -0.000000000000000000, 0.000000000000000000, 1.000000000000000000 ) ) ;
#749 = CARTESIAN_POINT ( 'NONE',  ( 11.24999999999999645, 11.49999999999995559, 5.000000000000000000 ) ) ;
#750 = DIRECTION ( 'NONE',  ( -0.000000000000000000, -0.000000000000000000, -1.000000000000000000 ) ) ;
#751 = CARTESIAN_POINT ( 'NONE',  ( -15.99999999999991651, -13.50000000000006750, 0.000000000000000000 ) ) ;
#752 = UNCERTAINTY_MEASURE_WITH_UNIT (LENGTH_MEASURE( 1.000000000000000082E-05 ), #802, 'distance_accuracy_value', 'NONE');
#753 = VERTEX_POINT ( 'NONE', #198 ) ;
#754 = CARTESIAN_POINT ( 'NONE',  ( 0.000000000000000000, 0.000000000000000000, -23.00000000000000000 ) ) ;
#755 = DIRECTION ( 'NONE',  ( 0.000000000000000000, -0.000000000000000000, 1.000000000000000000 ) ) ;
#756 = TOROIDAL_SURFACE ( 'NONE', #353, 6.000000000000000000, 2.000000000000000000 ) ;
#757 = VECTOR ( 'NONE', #301, 1000.000000000000000 ) ;
#758 = DIRECTION ( 'NONE',  ( 0.000000000000000000, 0.000000000000000000, -1.000000000000000000 ) ) ;
#759 = DIRECTION ( 'NONE',  ( 0.000000000000000000, 1.000000000000000000, 0.000000000000000000 ) ) ;
#760 = FACE_OUTER_BOUND ( 'NONE', #219, .T. ) ;
#761 = AXIS2_PLACEMENT_3D ( 'NONE', #844, #193, #423 ) ;
#762 = ORIENTED_EDGE ( 'NONE', *, *, #439, .F. ) ;
#763 = CARTESIAN_POINT ( 'NONE',  ( -9.124999999999998224, 17.49999999999995737, 8.250000000000001776 ) ) ;
#764 = DIRECTION ( 'NONE',  ( -1.224646799147353207E-16, 1.000000000000000000, 0.000000000000000000 ) ) ;
#765 = DIRECTION ( 'NONE',  ( 1.000000000000000000, 0.000000000000000000, -8.163404592832019174E-16 ) ) ;
#766 = DIRECTION ( 'NONE',  ( -1.000000000000000000, 0.000000000000000000, 0.000000000000000000 ) ) ;
#767 = ORIENTED_EDGE ( 'NONE', *, *, #728, .T. ) ;
#768 = CARTESIAN_POINT ( 'NONE',  ( 2.000000000000000000, 2.449293598294706414E-16, -23.00000000000000000 ) ) ;
#769 = CARTESIAN_POINT ( 'NONE',  ( 0.000000000000000000, 0.000000000000000000, 0.000000000000000000 ) ) ;
#770 = CARTESIAN_POINT ( 'NONE',  ( 11.24999999999999822, -36.54886114323228696, 5.000000000000003553 ) ) ;
#771 = ORIENTED_EDGE ( 'NONE', *, *, #381, .T. ) ;
#772 = LINE ( 'NONE', #541, #514 ) ;
#773 = VECTOR ( 'NONE', #582, 1000.000000000000000 ) ;
#774 = CARTESIAN_POINT ( 'NONE',  ( 11.25000000000000533, -36.54886114323228696, 8.249999999999998224 ) ) ;
#775 = CARTESIAN_POINT ( 'NONE',  ( -6.000000000000000000, 7.347880794884119736E-16, -2.000000000000001776 ) ) ;
#776 = VECTOR ( 'NONE', #34, 1000.000000000000000 ) ;
#777 = ORIENTED_EDGE ( 'NONE', *, *, #445, .F. ) ;
#778 = DIRECTION ( 'NONE',  ( -0.000000000000000000, 1.000000000000000000, -0.000000000000000000 ) ) ;
#779 = EDGE_LOOP ( 'NONE', ( #168, #312, #795, #534 ) ) ;
#780 = CARTESIAN_POINT ( 'NONE',  ( 14.00000000000008171, -13.50000000000006750, 10.00000000000000000 ) ) ;
#781 = ADVANCED_FACE ( 'NONE', ( #472 ), #332, .F. ) ;
#782 = ORIENTED_EDGE ( 'NONE', *, *, #921, .F. ) ;
#783 = EDGE_LOOP ( 'NONE', ( #437, #867, #644, #199, #87, #494, #127 ) ) ;
#784 = DIRECTION ( 'NONE',  ( 0.000000000000000000, 0.000000000000000000, 1.000000000000000000 ) ) ;
#785 = EDGE_CURVE ( 'NONE', #268, #480, #612, .T. ) ;
#786 = CARTESIAN_POINT ( 'NONE',  ( 11.24999999999999822, -6.500000000000068390, 5.000000000000003553 ) ) ;
#787 = ORIENTED_EDGE ( 'NONE', *, *, #391, .T. ) ;
#788 = AXIS2_PLACEMENT_3D ( 'NONE', #259, #916, #906 ) ;
#789 = CIRCLE ( 'NONE', #120, 2.399999999999996803 ) ;
#790 = DIRECTION ( 'NONE',  ( -0.000000000000000000, 1.000000000000000000, -0.000000000000000000 ) ) ;
#791 = EDGE_CURVE ( 'NONE', #509, #289, #710, .T. ) ;
#792 = LINE ( 'NONE', #499, #757 ) ;
#793 = EDGE_CURVE ( 'NONE', #153, #188, #256, .T. ) ;
#794 = VERTEX_POINT ( 'NONE', #48 ) ;
#795 = ORIENTED_EDGE ( 'NONE', *, *, #673, .F. ) ;
#796 = CARTESIAN_POINT ( 'NONE',  ( -11.25000000000000178, -6.500000000000068390, 8.250000000000001776 ) ) ;
#797 = DIRECTION ( 'NONE',  ( -0.000000000000000000, -0.000000000000000000, -1.000000000000000000 ) ) ;
#798 = ORIENTED_EDGE ( 'NONE', *, *, #558, .F. ) ;
#799 = DIRECTION ( 'NONE',  ( -1.000000000000000000, -8.673617379884035472E-16, 0.000000000000000000 ) ) ;
#800 = EDGE_LOOP ( 'NONE', ( #725, #572, #518, #78, #352, #886, #513, #860 ) ) ;
#801 = AXIS2_PLACEMENT_3D ( 'NONE', #192, #617, #104 ) ;
#802 =( LENGTH_UNIT ( ) NAMED_UNIT ( * ) SI_UNIT ( .MILLI., .METRE. ) );
#803 = AXIS2_PLACEMENT_3D ( 'NONE', #226, #512, #126 ) ;
#804 = AXIS2_PLACEMENT_3D ( 'NONE', #515, #526, #875 ) ;
#805 = VECTOR ( 'NONE', #739, 1000.000000000000000 ) ;
#806 = VECTOR ( 'NONE', #285, 1000.000000000000000 ) ;
#807 = DIRECTION ( 'NONE',  ( 0.000000000000000000, -0.000000000000000000, 1.000000000000000000 ) ) ;
#808 = EDGE_CURVE ( 'NONE', #573, #794, #386, .T. ) ;
#809 = ORIENTED_EDGE ( 'NONE', *, *, #911, .T. ) ;
#810 = DIRECTION ( 'NONE',  ( 1.000000000000000000, 0.000000000000000000, -2.135044278125304498E-15 ) ) ;
#811 = PRODUCT ( 'P001-B109_Winding_Plate_Attachment_5', 'P001-B109_Winding_Plate_Attachment_5', '', ( #443 ) ) ;
#812 = LINE ( 'NONE', #89, #62 ) ;
#813 = ORIENTED_EDGE ( 'NONE', *, *, #609, .T. ) ;
#814 = LINE ( 'NONE', #20, #838 ) ;
#815 = ORIENTED_EDGE ( 'NONE', *, *, #26, .F. ) ;
#816 = EDGE_CURVE ( 'NONE', #220, #588, #508, .T. ) ;
#817 = LINE ( 'NONE', #389, #229 ) ;
#818 = ORIENTED_EDGE ( 'NONE', *, *, #42, .F. ) ;
#819 = ADVANCED_FACE ( 'NONE', ( #328 ), #688, .F. ) ;
#820 = CARTESIAN_POINT ( 'NONE',  ( 4.000000000000000000, 0.000000000000000000, -2.000000000000001776 ) ) ;
#821 = VECTOR ( 'NONE', #471, 1000.000000000000000 ) ;
#822 = AXIS2_PLACEMENT_3D ( 'NONE', #823, #374, #79 ) ;
#823 = CARTESIAN_POINT ( 'NONE',  ( 9.125000000000001776, -36.54886114323228696, 8.250000000000000000 ) ) ;
#824 = FACE_OUTER_BOUND ( 'NONE', #251, .T. ) ;
#825 = EDGE_CURVE ( 'NONE', #736, #676, #909, .T. ) ;
#826 = CARTESIAN_POINT ( 'NONE',  ( 11.24999999999999822, -36.54886114323228696, 5.000000000000003553 ) ) ;
#827 = CARTESIAN_POINT ( 'NONE',  ( -11.25000000000000178, -6.500000000000068390, 5.000000000000002665 ) ) ;
#828 = EDGE_LOOP ( 'NONE', ( #429, #666, #124, #738 ) ) ;
#829 = CARTESIAN_POINT ( 'NONE',  ( -11.25000000000000178, 17.49999999999995737, 8.250000000000001776 ) ) ;
#830 = DIRECTION ( 'NONE',  ( -1.000000000000000000, 0.000000000000000000, -0.000000000000000000 ) ) ;
#831 = CARTESIAN_POINT ( 'NONE',  ( 0.000000000000000000, 0.000000000000000000, -2.000000000000001776 ) ) ;
#832 = CARTESIAN_POINT ( 'NONE',  ( 16.00000000000008527, -11.50000000000006928, 0.000000000000000000 ) ) ;
#833 = CARTESIAN_POINT ( 'NONE',  ( 0.000000000000000000, 0.000000000000000000, -23.00000000000000000 ) ) ;
#834 = EDGE_CURVE ( 'NONE', #101, #55, #627, .T. ) ;
#835 = EDGE_LOOP ( 'NONE', ( #498, #41, #322, #895 ) ) ;
#836 = CARTESIAN_POINT ( 'NONE',  ( 14.00000000000008171, -13.50000000000006750, 0.000000000000000000 ) ) ;
#837 = AXIS2_PLACEMENT_3D ( 'NONE', #341, #758, #470 ) ;
#838 = VECTOR ( 'NONE', #319, 1000.000000000000000 ) ;
#839 = DIRECTION ( 'NONE',  ( 0.000000000000000000, 0.000000000000000000, -1.000000000000000000 ) ) ;
#840 = DIRECTION ( 'NONE',  ( 1.000000000000000000, 0.000000000000000000, -2.135044278125304498E-15 ) ) ;
#841 = ORIENTED_EDGE ( 'NONE', *, *, #412, .F. ) ;
#842 = LINE ( 'NONE', #190, #138 ) ;
#843 = LINE ( 'NONE', #917, #600 ) ;
#844 = CARTESIAN_POINT ( 'NONE',  ( 16.00000000000008527, 17.49999999999995737, 0.000000000000000000 ) ) ;
#845 = ORIENTED_EDGE ( 'NONE', *, *, #834, .F. ) ;
#846 = LINE ( 'NONE', #616, #433 ) ;
#847 = FACE_OUTER_BOUND ( 'NONE', #500, .T. ) ;
#848 = CARTESIAN_POINT ( 'NONE',  ( -11.25000000000000178, -36.54886114323228696, 8.250000000000001776 ) ) ;
#849 = EDGE_LOOP ( 'NONE', ( #818, #896, #170, #208 ) ) ;
#850 = AXIS2_PLACEMENT_3D ( 'NONE', #416, #913, #202 ) ;
#851 = CYLINDRICAL_SURFACE ( 'NONE', #563, 4.000000000000000000 ) ;
#852 = VERTEX_POINT ( 'NONE', #829 ) ;
#853 = DIRECTION ( 'NONE',  ( -1.000000000000000000, 0.000000000000000000, -3.854941057726238467E-17 ) ) ;
#854 = ORIENTED_EDGE ( 'NONE', *, *, #11, .T. ) ;
#855 = EDGE_LOOP ( 'NONE', ( #6, #813, #159, #405 ) ) ;
#856 = ADVANCED_FACE ( 'NONE', ( #543 ), #721, .T. ) ;
#857 = DIRECTION ( 'NONE',  ( 1.000000000000000000, 0.000000000000000000, -0.000000000000000000 ) ) ;
#858 = ORIENTED_EDGE ( 'NONE', *, *, #65, .T. ) ;
#859 = EDGE_CURVE ( 'NONE', #474, #142, #489, .T. ) ;
#860 = ORIENTED_EDGE ( 'NONE', *, *, #235, .T. ) ;
#861 = DIRECTION ( 'NONE',  ( 0.000000000000000000, 0.000000000000000000, 1.000000000000000000 ) ) ;
#862 = AXIS2_PLACEMENT_3D ( 'NONE', #626, #899, #327 ) ;
#863 = AXIS2_PLACEMENT_3D ( 'NONE', #287, #641, #861 ) ;
#864 = EDGE_LOOP ( 'NONE', ( #133, #377, #257, #276 ) ) ;
#865 = AXIS2_PLACEMENT_3D ( 'NONE', #329, #181, #830 ) ;
#866 = VECTOR ( 'NONE', #548, 1000.000000000000000 ) ;
#867 = ORIENTED_EDGE ( 'NONE', *, *, #37, .T. ) ;
#868 = CIRCLE ( 'NONE', #311, 4.000000000000000000 ) ;
#869 = LINE ( 'NONE', #796, #703 ) ;
#870 = ORIENTED_EDGE ( 'NONE', *, *, #456, .F. ) ;
#871 = EDGE_LOOP ( 'NONE', ( #449, #787, #490, #22 ) ) ;
#872 = CARTESIAN_POINT ( 'NONE',  ( 16.00000000000008527, 11.49999999999995559, 5.000000000000000000 ) ) ;
#873 = ORIENTED_EDGE ( 'NONE', *, *, #609, .F. ) ;
#874 = ADVANCED_FACE ( 'NONE', ( #760 ), #410, .F. ) ;
#875 = DIRECTION ( 'NONE',  ( 1.000000000000000000, 0.000000000000000000, 0.000000000000000000 ) ) ;
#876 = ORIENTED_EDGE ( 'NONE', *, *, #730, .F. ) ;
#877 = CIRCLE ( 'NONE', #307, 2.000000000000000000 ) ;
#878 =( GEOMETRIC_REPRESENTATION_CONTEXT ( 3 ) GLOBAL_UNCERTAINTY_ASSIGNED_CONTEXT ( ( #525 ) ) GLOBAL_UNIT_ASSIGNED_CONTEXT ( ( #67, #217, #934 ) ) REPRESENTATION_CONTEXT ( 'NONE', 'WORKASPACE' ) );
#879 = DIRECTION ( 'NONE',  ( 0.000000000000000000, 0.000000000000000000, 1.000000000000000000 ) ) ;
#880 = EDGE_CURVE ( 'NONE', #794, #573, #868, .T. ) ;
#881 = DIRECTION ( 'NONE',  ( -0.000000000000000000, -1.000000000000000000, -0.000000000000000000 ) ) ;
#882 = LINE ( 'NONE', #826, #657 ) ;
#883 = EDGE_CURVE ( 'NONE', #300, #144, #493, .T. ) ;
#884 = CARTESIAN_POINT ( 'NONE',  ( 0.000000000000000000, 0.000000000000000000, 0.000000000000000000 ) ) ;
#885 = ORIENTED_EDGE ( 'NONE', *, *, #635, .F. ) ;
#886 = ORIENTED_EDGE ( 'NONE', *, *, #11, .F. ) ;
#887 = EDGE_CURVE ( 'NONE', #64, #239, #619, .T. ) ;
#888 = ADVANCED_FACE ( 'NONE', ( #914, #560 ), #555, .F. ) ;
#889 = DIRECTION ( 'NONE',  ( 1.000000000000000000, 0.000000000000000000, 0.000000000000000000 ) ) ;
#890 = DIRECTION ( 'NONE',  ( 0.000000000000000000, 0.000000000000000000, 1.000000000000000000 ) ) ;
#891 = AXIS2_PLACEMENT_3D ( 'NONE', #929, #371, #580 ) ;
#892 = DIRECTION ( 'NONE',  ( 0.000000000000000000, 0.000000000000000000, -1.000000000000000000 ) ) ;
#893 = TOROIDAL_SURFACE ( 'NONE', #447, 6.000000000000000000, 2.000000000000000000 ) ;
#894 = CARTESIAN_POINT ( 'NONE',  ( 16.00000000000008527, 11.49999999999995559, 2.600000000000005862 ) ) ;
#895 = ORIENTED_EDGE ( 'NONE', *, *, #585, .F. ) ;
#896 = ORIENTED_EDGE ( 'NONE', *, *, #816, .T. ) ;
#897 = CARTESIAN_POINT ( 'NONE',  ( 14.00000000000008349, 17.49999999999995737, 0.000000000000000000 ) ) ;
#898 = DIRECTION ( 'NONE',  ( 0.000000000000000000, 0.000000000000000000, -1.000000000000000000 ) ) ;
#899 = DIRECTION ( 'NONE',  ( -0.000000000000000000, -0.000000000000000000, 1.000000000000000000 ) ) ;
#900 = DIRECTION ( 'NONE',  ( -0.000000000000000000, -0.000000000000000000, 1.000000000000000000 ) ) ;
#901 = DIRECTION ( 'NONE',  ( -1.000000000000000000, -0.000000000000000000, -0.000000000000000000 ) ) ;
#902 = DIRECTION ( 'NONE',  ( -1.000000000000000000, -0.000000000000000000, -0.000000000000000000 ) ) ;
#903 = DIRECTION ( 'NONE',  ( -1.000000000000000000, -0.000000000000000000, -0.000000000000000000 ) ) ;
#904 = ORIENTED_EDGE ( 'NONE', *, *, #388, .F. ) ;
#905 = CIRCLE ( 'NONE', #850, 2.000000000000000000 ) ;
#906 = DIRECTION ( 'NONE',  ( 0.000000000000000000, 0.000000000000000000, -1.000000000000000000 ) ) ;
#907 = AXIS2_PLACEMENT_3D ( 'NONE', #833, #900, #766 ) ;
#908 = DIRECTION ( 'NONE',  ( 1.000000000000000000, 0.000000000000000000, 0.000000000000000000 ) ) ;
#909 = LINE ( 'NONE', #632, #866 ) ;
#910 = VERTEX_POINT ( 'NONE', #659 ) ;
#911 = EDGE_CURVE ( 'NONE', #753, #273, #283, .T. ) ;
#912 = CARTESIAN_POINT ( 'NONE',  ( 2.000000000000000000, 3.673940397442059375E-16, -25.00000000000000000 ) ) ;
#913 = DIRECTION ( 'NONE',  ( -0.000000000000000000, -0.000000000000000000, -1.000000000000000000 ) ) ;
#914 = FACE_OUTER_BOUND ( 'NONE', #160, .T. ) ;
#915 = ORIENTED_EDGE ( 'NONE', *, *, #167, .T. ) ;
#916 = DIRECTION ( 'NONE',  ( 1.000000000000000000, 0.000000000000000000, 0.000000000000000000 ) ) ;
#917 = CARTESIAN_POINT ( 'NONE',  ( 11.24999999999999822, -36.54886114323228696, 5.000000000000003553 ) ) ;
#918 = DIRECTION ( 'NONE',  ( -2.135044278125304498E-15, 0.000000000000000000, -1.000000000000000000 ) ) ;
#919 = EDGE_LOOP ( 'NONE', ( #584, #485, #69, #424 ) ) ;
#920 = CIRCLE ( 'NONE', #578, 2.399999999999999467 ) ;
#921 = EDGE_CURVE ( 'NONE', #923, #64, #71, .T. ) ;
#922 = DIRECTION ( 'NONE',  ( -1.000000000000000000, 0.000000000000000000, 0.000000000000000000 ) ) ;
#923 = VERTEX_POINT ( 'NONE', #132 ) ;
#924 = ORIENTED_EDGE ( 'NONE', *, *, #350, .F. ) ;
#925 = DIRECTION ( 'NONE',  ( -0.000000000000000000, -1.000000000000000000, -0.000000000000000000 ) ) ;
#926 = CARTESIAN_POINT ( 'NONE',  ( -15.99999999999991651, 17.49999999999995737, 0.000000000000000000 ) ) ;
#927 = EDGE_LOOP ( 'NONE', ( #361, #8 ) ) ;
#928 = VERTEX_POINT ( 'NONE', #575 ) ;
#929 = CARTESIAN_POINT ( 'NONE',  ( -13.99999999999991651, -11.50000000000006750, 10.00000000000000000 ) ) ;
#930 = ORIENTED_EDGE ( 'NONE', *, *, #210, .T. ) ;
#931 = AXIS2_PLACEMENT_3D ( 'NONE', #522, #384, #538 ) ;
#932 = DIRECTION ( 'NONE',  ( 1.000000000000000000, 0.000000000000000000, 0.000000000000000000 ) ) ;
#933 = VECTOR ( 'NONE', #435, 1000.000000000000000 ) ;
#934 =( NAMED_UNIT ( * ) SI_UNIT ( $, .STERADIAN. ) SOLID_ANGLE_UNIT ( ) );
#935 = ORIENTED_EDGE ( 'NONE', *, *, #407, .T. ) ;
#936 = AXIS2_PLACEMENT_3D ( 'NONE', #378, #665, #7 ) ;
ENDSEC;
END-ISO-10303-21;
