ISO-10303-21;
HEADER;
FILE_DESCRIPTION (( 'STEP AP214' ),
    '1' );
FILE_NAME ('P001-B122-Magnet Ring Bearing Adaptor_3.STEP',
    '2026-05-08T18:06:45',
    ( '' ),
    ( '' ),
    'SwSTEP 2.0',
    'SolidWorks 2026',
    '' );
FILE_SCHEMA (( 'AUTOMOTIVE_DESIGN' ));
ENDSEC;

DATA;
#1 = VECTOR ( 'NONE', #195, 1000.000000000000000 ) ;
#2 = CARTESIAN_POINT ( 'NONE',  ( 0.000000000000000000, 1.899999999999999911, 0.000000000000000000 ) ) ;
#3 = DIRECTION ( 'NONE',  ( 0.000000000000000000, 0.000000000000000000, 1.000000000000000000 ) ) ;
#4 = ORIENTED_EDGE ( 'NONE', *, *, #76, .T. ) ;
#5 = DIRECTION ( 'NONE',  ( 0.000000000000000000, 0.000000000000000000, 1.000000000000000000 ) ) ;
#6 = CARTESIAN_POINT ( 'NONE',  ( 0.000000000000000000, 1.899999999999999911, 0.000000000000000000 ) ) ;
#7 = ORIENTED_EDGE ( 'NONE', *, *, #185, .T. ) ;
#8 = CIRCLE ( 'NONE', #143, 3.950000000000000178 ) ;
#9 = ORIENTED_EDGE ( 'NONE', *, *, #125, .T. ) ;
#10 = CARTESIAN_POINT ( 'NONE',  ( 0.000000000000000000, 1.899999999999999911, 0.000000000000000000 ) ) ;
#11 = CARTESIAN_POINT ( 'NONE',  ( 0.000000000000000000, 1.899999999999999911, -1.750000000000000000 ) ) ;
#12 = AXIS2_PLACEMENT_3D ( 'NONE', #6, #127, #68 ) ;
#13 = ORIENTED_EDGE ( 'NONE', *, *, #130, .F. ) ;
#14 = ORIENTED_EDGE ( 'NONE', *, *, #166, .F. ) ;
#15 = AXIS2_PLACEMENT_3D ( 'NONE', #114, #129, #99 ) ;
#16 = DIRECTION ( 'NONE',  ( 0.000000000000000000, 1.000000000000000000, 0.000000000000000000 ) ) ;
#17 = CARTESIAN_POINT ( 'NONE',  ( 4.837354856632044071E-16, 1.899999999999999911, 3.950000000000000178 ) ) ;
#18 = FACE_BOUND ( 'NONE', #106, .T. ) ;
#19 = ORIENTED_EDGE ( 'NONE', *, *, #168, .F. ) ;
#20 = ORIENTED_EDGE ( 'NONE', *, *, #74, .F. ) ;
#21 = DIRECTION ( 'NONE',  ( -0.000000000000000000, -1.000000000000000000, -0.000000000000000000 ) ) ;
#22 = PRODUCT_RELATED_PRODUCT_CATEGORY ( 'part', '', ( #96 ) ) ;
#23 = DIRECTION ( 'NONE',  ( 0.000000000000000000, 0.000000000000000000, 1.000000000000000000 ) ) ;
#24 = VERTEX_POINT ( 'NONE', #17 ) ;
#25 = STYLED_ITEM ( 'NONE', ( #162 ), #108 ) ;
#26 = CIRCLE ( 'NONE', #43, 1.750000000000000000 ) ;
#27 = VECTOR ( 'NONE', #196, 1000.000000000000000 ) ;
#28 = CLOSED_SHELL ( 'NONE', ( #137, #39, #175, #52, #69, #46 ) ) ;
#29 = CARTESIAN_POINT ( 'NONE',  ( 2.143131898507867804E-16, 1.899999999999999911, 1.750000000000000000 ) ) ;
#30 = CARTESIAN_POINT ( 'NONE',  ( 0.000000000000000000, 1.899999999999999911, -1.750000000000000000 ) ) ;
#31 = VERTEX_POINT ( 'NONE', #128 ) ;
#32 = UNCERTAINTY_MEASURE_WITH_UNIT (LENGTH_MEASURE( 1.000000000000000082E-05 ), #73, 'distance_accuracy_value', 'NONE');
#33 = DIRECTION ( 'NONE',  ( 0.000000000000000000, 0.000000000000000000, 1.000000000000000000 ) ) ;
#34 = CARTESIAN_POINT ( 'NONE',  ( 0.000000000000000000, 1.899999999999999911, 0.000000000000000000 ) ) ;
#35 = DIRECTION ( 'NONE',  ( 0.000000000000000000, -0.000000000000000000, 1.000000000000000000 ) ) ;
#36 = ORIENTED_EDGE ( 'NONE', *, *, #151, .T. ) ;
#37 =( GEOMETRIC_REPRESENTATION_CONTEXT ( 3 ) GLOBAL_UNCERTAINTY_ASSIGNED_CONTEXT ( ( #32 ) ) GLOBAL_UNIT_ASSIGNED_CONTEXT ( ( #73, #198, #59 ) ) REPRESENTATION_CONTEXT ( 'NONE', 'WORKASPACE' ) );
#38 = CARTESIAN_POINT ( 'NONE',  ( 0.000000000000000000, 0.000000000000000000, -3.950000000000000178 ) ) ;
#39 = ADVANCED_FACE ( 'NONE', ( #98 ), #66, .T. ) ;
#40 = SURFACE_SIDE_STYLE ('',( #178 ) ) ;
#41 = DIRECTION ( 'NONE',  ( 0.000000000000000000, 1.000000000000000000, 0.000000000000000000 ) ) ;
#42 = EDGE_LOOP ( 'NONE', ( #45, #4 ) ) ;
#43 = AXIS2_PLACEMENT_3D ( 'NONE', #83, #16, #65 ) ;
#44 = PRODUCT_DEFINITION ( 'UNKNOWN', '', #95, #186 ) ;
#45 = ORIENTED_EDGE ( 'NONE', *, *, #93, .T. ) ;
#46 = ADVANCED_FACE ( 'NONE', ( #112 ), #171, .F. ) ;
#47 = APPLICATION_PROTOCOL_DEFINITION ( 'draft international standard', 'automotive_design', 1998, #87 ) ;
#48 = ORIENTED_EDGE ( 'NONE', *, *, #150, .F. ) ;
#49 = CARTESIAN_POINT ( 'NONE',  ( 0.000000000000000000, 1.899999999999999911, -3.950000000000000178 ) ) ;
#50 = DIRECTION ( 'NONE',  ( -0.000000000000000000, -1.000000000000000000, -0.000000000000000000 ) ) ;
#51 = AXIS2_PLACEMENT_3D ( 'NONE', #163, #21, #89 ) ;
#52 = ADVANCED_FACE ( 'NONE', ( #63, #177 ), #105, .F. ) ;
#53 = DIRECTION ( 'NONE',  ( 0.000000000000000000, 1.000000000000000000, 0.000000000000000000 ) ) ;
#54 =( LENGTH_UNIT ( ) NAMED_UNIT ( * ) SI_UNIT ( .MILLI., .METRE. ) );
#55 = VERTEX_POINT ( 'NONE', #38 ) ;
#56 = DIRECTION ( 'NONE',  ( 0.000000000000000000, 1.000000000000000000, 0.000000000000000000 ) ) ;
#57 = CARTESIAN_POINT ( 'NONE',  ( 0.000000000000000000, 1.899999999999999911, 0.000000000000000000 ) ) ;
#58 = DIRECTION ( 'NONE',  ( 0.000000000000000000, 0.000000000000000000, 1.000000000000000000 ) ) ;
#59 =( NAMED_UNIT ( * ) SI_UNIT ( $, .STERADIAN. ) SOLID_ANGLE_UNIT ( ) );
#60 = ORIENTED_EDGE ( 'NONE', *, *, #125, .F. ) ;
#61 = AXIS2_PLACEMENT_3D ( 'NONE', #179, #56, #119 ) ;
#62 = AXIS2_PLACEMENT_3D ( 'NONE', #2, #50, #190 ) ;
#63 = FACE_OUTER_BOUND ( 'NONE', #182, .T. ) ;
#64 = PRODUCT_DEFINITION_SHAPE ( 'NONE', 'NONE',  #44 ) ;
#65 = DIRECTION ( 'NONE',  ( 0.000000000000000000, 0.000000000000000000, 1.000000000000000000 ) ) ;
#66 = CYLINDRICAL_SURFACE ( 'NONE', #62, 3.950000000000000178 ) ;
#67 = DIRECTION ( 'NONE',  ( 1.000000000000000000, 0.000000000000000000, 0.000000000000000000 ) ) ;
#68 = DIRECTION ( 'NONE',  ( 0.000000000000000000, 0.000000000000000000, -1.000000000000000000 ) ) ;
#69 = ADVANCED_FACE ( 'NONE', ( #117 ), #134, .T. ) ;
#70 =( GEOMETRIC_REPRESENTATION_CONTEXT ( 3 ) GLOBAL_UNCERTAINTY_ASSIGNED_CONTEXT ( ( #94 ) ) GLOBAL_UNIT_ASSIGNED_CONTEXT ( ( #54, #82, #156 ) ) REPRESENTATION_CONTEXT ( 'NONE', 'WORKASPACE' ) );
#71 = CARTESIAN_POINT ( 'NONE',  ( 4.837354856632044071E-16, 0.000000000000000000, 3.950000000000000178 ) ) ;
#72 = CARTESIAN_POINT ( 'NONE',  ( 0.000000000000000000, 1.899999999999999911, 0.000000000000000000 ) ) ;
#73 =( LENGTH_UNIT ( ) NAMED_UNIT ( * ) SI_UNIT ( .MILLI., .METRE. ) );
#74 = EDGE_CURVE ( 'NONE', #180, #101, #145, .T. ) ;
#75 = EDGE_LOOP ( 'NONE', ( #116, #158, #110, #36 ) ) ;
#76 = EDGE_CURVE ( 'NONE', #24, #102, #8, .T. ) ;
#77 = CIRCLE ( 'NONE', #167, 3.950000000000000178 ) ;
#78 = EDGE_CURVE ( 'NONE', #188, #180, #135, .T. ) ;
#79 = VECTOR ( 'NONE', #144, 1000.000000000000000 ) ;
#80 = CYLINDRICAL_SURFACE ( 'NONE', #12, 1.750000000000000000 ) ;
#81 = ORIENTED_EDGE ( 'NONE', *, *, #74, .T. ) ;
#82 =( NAMED_UNIT ( * ) PLANE_ANGLE_UNIT ( ) SI_UNIT ( $, .RADIAN. ) );
#83 = CARTESIAN_POINT ( 'NONE',  ( 0.000000000000000000, 0.000000000000000000, 0.000000000000000000 ) ) ;
#84 = ORIENTED_EDGE ( 'NONE', *, *, #185, .F. ) ;
#85 = APPLICATION_PROTOCOL_DEFINITION ( 'draft international standard', 'automotive_design', 1998, #140 ) ;
#86 = COLOUR_RGB ( '',0.7921568627450980005, 0.8196078431372548767, 0.9333333333333333481 ) ;
#87 = APPLICATION_CONTEXT ( 'automotive_design' ) ;
#88 = CARTESIAN_POINT ( 'NONE',  ( 2.143131898507867804E-16, 1.899999999999999911, 1.750000000000000000 ) ) ;
#89 = DIRECTION ( 'NONE',  ( 0.000000000000000000, 0.000000000000000000, -1.000000000000000000 ) ) ;
#90 = AXIS2_PLACEMENT_3D ( 'NONE', #189, #138, #3 ) ;
#91 = SURFACE_STYLE_USAGE ( .BOTH. , #40 ) ;
#92 = CARTESIAN_POINT ( 'NONE',  ( 0.000000000000000000, 0.000000000000000000, -1.750000000000000000 ) ) ;
#93 = EDGE_CURVE ( 'NONE', #102, #24, #77, .T. ) ;
#94 = UNCERTAINTY_MEASURE_WITH_UNIT (LENGTH_MEASURE( 1.000000000000000082E-05 ), #54, 'distance_accuracy_value', 'NONE');
#95 = PRODUCT_DEFINITION_FORMATION_WITH_SPECIFIED_SOURCE ( 'ANY', '', #96, .NOT_KNOWN. ) ;
#96 = PRODUCT ( 'P001-B122-Magnet Ring Bearing Adaptor_3', 'P001-B122-Magnet Ring Bearing Adaptor_3', '', ( #113 ) ) ;
#97 = CARTESIAN_POINT ( 'NONE',  ( 0.000000000000000000, 0.000000000000000000, 0.000000000000000000 ) ) ;
#98 = FACE_OUTER_BOUND ( 'NONE', #149, .T. ) ;
#99 = DIRECTION ( 'NONE',  ( 0.000000000000000000, 0.000000000000000000, 1.000000000000000000 ) ) ;
#100 = DIRECTION ( 'NONE',  ( -0.000000000000000000, -1.000000000000000000, -0.000000000000000000 ) ) ;
#101 = VERTEX_POINT ( 'NONE', #92 ) ;
#102 = VERTEX_POINT ( 'NONE', #148 ) ;
#103 = DIRECTION ( 'NONE',  ( 0.000000000000000000, -0.000000000000000000, 1.000000000000000000 ) ) ;
#104 = FILL_AREA_STYLE_COLOUR ( '', #86 ) ;
#105 = PLANE ( 'NONE',  #161 ) ;
#106 = EDGE_LOOP ( 'NONE', ( #60, #165 ) ) ;
#107 = CIRCLE ( 'NONE', #194, 3.950000000000000178 ) ;
#108 = MANIFOLD_SOLID_BREP ( 'Boss-Extrude1', #28 ) ;
#109 = SHAPE_DEFINITION_REPRESENTATION ( #64, #173 ) ;
#110 = ORIENTED_EDGE ( 'NONE', *, *, #168, .T. ) ;
#111 = LINE ( 'NONE', #49, #115 ) ;
#112 = FACE_OUTER_BOUND ( 'NONE', #164, .T. ) ;
#113 = PRODUCT_CONTEXT ( 'NONE', #140, 'mechanical' ) ;
#114 = CARTESIAN_POINT ( 'NONE',  ( 0.000000000000000000, 0.000000000000000000, 0.000000000000000000 ) ) ;
#115 = VECTOR ( 'NONE', #191, 1000.000000000000000 ) ;
#116 = ORIENTED_EDGE ( 'NONE', *, *, #122, .F. ) ;
#117 = FACE_OUTER_BOUND ( 'NONE', #75, .T. ) ;
#118 = DIRECTION ( 'NONE',  ( 0.000000000000000000, 0.000000000000000000, 1.000000000000000000 ) ) ;
#119 = DIRECTION ( 'NONE',  ( 0.000000000000000000, 0.000000000000000000, 1.000000000000000000 ) ) ;
#120 = LINE ( 'NONE', #181, #1 ) ;
#121 = VERTEX_POINT ( 'NONE', #71 ) ;
#122 = EDGE_CURVE ( 'NONE', #24, #121, #120, .T. ) ;
#123 = AXIS2_PLACEMENT_3D ( 'NONE', #34, #100, #155 ) ;
#124 = CIRCLE ( 'NONE', #15, 3.950000000000000178 ) ;
#125 = EDGE_CURVE ( 'NONE', #180, #188, #199, .T. ) ;
#126 = ORIENTED_EDGE ( 'NONE', *, *, #122, .T. ) ;
#127 = DIRECTION ( 'NONE',  ( -0.000000000000000000, -1.000000000000000000, -0.000000000000000000 ) ) ;
#128 = CARTESIAN_POINT ( 'NONE',  ( 2.143131898507867804E-16, 0.000000000000000000, 1.750000000000000000 ) ) ;
#129 = DIRECTION ( 'NONE',  ( 0.000000000000000000, 1.000000000000000000, 0.000000000000000000 ) ) ;
#130 = EDGE_CURVE ( 'NONE', #188, #31, #159, .T. ) ;
#131 = CARTESIAN_POINT ( 'NONE',  ( 0.000000000000000000, 0.000000000000000000, 0.000000000000000000 ) ) ;
#132 = MECHANICAL_DESIGN_GEOMETRIC_PRESENTATION_REPRESENTATION (  '', ( #25 ), #37 ) ;
#133 = AXIS2_PLACEMENT_3D ( 'NONE', #154, #172, #35 ) ;
#134 = CYLINDRICAL_SURFACE ( 'NONE', #51, 3.950000000000000178 ) ;
#135 = CIRCLE ( 'NONE', #61, 1.750000000000000000 ) ;
#136 = AXIS2_PLACEMENT_3D ( 'NONE', #57, #176, #118 ) ;
#137 = ADVANCED_FACE ( 'NONE', ( #141 ), #80, .F. ) ;
#138 = DIRECTION ( 'NONE',  ( 0.000000000000000000, 1.000000000000000000, 0.000000000000000000 ) ) ;
#139 = ORIENTED_EDGE ( 'NONE', *, *, #150, .T. ) ;
#140 = APPLICATION_CONTEXT ( 'automotive_design' ) ;
#141 = FACE_OUTER_BOUND ( 'NONE', #169, .T. ) ;
#142 = ORIENTED_EDGE ( 'NONE', *, *, #166, .T. ) ;
#143 = AXIS2_PLACEMENT_3D ( 'NONE', #10, #193, #58 ) ;
#144 = DIRECTION ( 'NONE',  ( -0.000000000000000000, -1.000000000000000000, -0.000000000000000000 ) ) ;
#145 = LINE ( 'NONE', #11, #27 ) ;
#146 = AXIS2_PLACEMENT_3D ( 'NONE', #187, #5, #67 ) ;
#147 = FILL_AREA_STYLE ('',( #104 ) ) ;
#148 = CARTESIAN_POINT ( 'NONE',  ( 0.000000000000000000, 1.899999999999999911, -3.950000000000000178 ) ) ;
#149 = EDGE_LOOP ( 'NONE', ( #197, #126, #139, #19 ) ) ;
#150 = EDGE_CURVE ( 'NONE', #121, #55, #107, .T. ) ;
#151 = EDGE_CURVE ( 'NONE', #55, #121, #124, .T. ) ;
#152 = PLANE ( 'NONE',  #133 ) ;
#153 = ORIENTED_EDGE ( 'NONE', *, *, #151, .F. ) ;
#154 = CARTESIAN_POINT ( 'NONE',  ( 0.000000000000000000, 1.899999999999999911, 0.000000000000000000 ) ) ;
#155 = DIRECTION ( 'NONE',  ( 0.000000000000000000, 0.000000000000000000, -1.000000000000000000 ) ) ;
#156 =( NAMED_UNIT ( * ) SI_UNIT ( $, .STERADIAN. ) SOLID_ANGLE_UNIT ( ) );
#157 = ORIENTED_EDGE ( 'NONE', *, *, #130, .T. ) ;
#158 = ORIENTED_EDGE ( 'NONE', *, *, #93, .F. ) ;
#159 = LINE ( 'NONE', #88, #79 ) ;
#160 = DIRECTION ( 'NONE',  ( 0.000000000000000000, 1.000000000000000000, 0.000000000000000000 ) ) ;
#161 = AXIS2_PLACEMENT_3D ( 'NONE', #131, #160, #103 ) ;
#162 = PRESENTATION_STYLE_ASSIGNMENT (( #91 ) ) ;
#163 = CARTESIAN_POINT ( 'NONE',  ( 0.000000000000000000, 1.899999999999999911, 0.000000000000000000 ) ) ;
#164 = EDGE_LOOP ( 'NONE', ( #13, #192, #81, #14 ) ) ;
#165 = ORIENTED_EDGE ( 'NONE', *, *, #78, .F. ) ;
#166 = EDGE_CURVE ( 'NONE', #31, #101, #184, .T. ) ;
#167 = AXIS2_PLACEMENT_3D ( 'NONE', #72, #41, #23 ) ;
#168 = EDGE_CURVE ( 'NONE', #102, #55, #111, .T. ) ;
#169 = EDGE_LOOP ( 'NONE', ( #9, #157, #84, #20 ) ) ;
#170 = FACE_OUTER_BOUND ( 'NONE', #42, .T. ) ;
#171 = CYLINDRICAL_SURFACE ( 'NONE', #123, 1.750000000000000000 ) ;
#172 = DIRECTION ( 'NONE',  ( 0.000000000000000000, 1.000000000000000000, 0.000000000000000000 ) ) ;
#173 = ADVANCED_BREP_SHAPE_REPRESENTATION ( 'P001-B122-Magnet Ring Bearing Adaptor_3', ( #108, #146 ), #70 ) ;
#174 = EDGE_LOOP ( 'NONE', ( #7, #142 ) ) ;
#175 = ADVANCED_FACE ( 'NONE', ( #170, #18 ), #152, .T. ) ;
#176 = DIRECTION ( 'NONE',  ( 0.000000000000000000, 1.000000000000000000, 0.000000000000000000 ) ) ;
#177 = FACE_BOUND ( 'NONE', #174, .T. ) ;
#178 = SURFACE_STYLE_FILL_AREA ( #147 ) ;
#179 = CARTESIAN_POINT ( 'NONE',  ( 0.000000000000000000, 1.899999999999999911, 0.000000000000000000 ) ) ;
#180 = VERTEX_POINT ( 'NONE', #30 ) ;
#181 = CARTESIAN_POINT ( 'NONE',  ( 4.837354856632044071E-16, 1.899999999999999911, 3.950000000000000178 ) ) ;
#182 = EDGE_LOOP ( 'NONE', ( #153, #48 ) ) ;
#183 = PRESENTATION_LAYER_ASSIGNMENT (  '', '', ( #25 ) ) ;
#184 = CIRCLE ( 'NONE', #90, 1.750000000000000000 ) ;
#185 = EDGE_CURVE ( 'NONE', #101, #31, #26, .T. ) ;
#186 = PRODUCT_DEFINITION_CONTEXT ( 'detailed design', #87, 'design' ) ;
#187 = CARTESIAN_POINT ( 'NONE',  ( 0.000000000000000000, 0.000000000000000000, 0.000000000000000000 ) ) ;
#188 = VERTEX_POINT ( 'NONE', #29 ) ;
#189 = CARTESIAN_POINT ( 'NONE',  ( 0.000000000000000000, 0.000000000000000000, 0.000000000000000000 ) ) ;
#190 = DIRECTION ( 'NONE',  ( 0.000000000000000000, 0.000000000000000000, -1.000000000000000000 ) ) ;
#191 = DIRECTION ( 'NONE',  ( -0.000000000000000000, -1.000000000000000000, -0.000000000000000000 ) ) ;
#192 = ORIENTED_EDGE ( 'NONE', *, *, #78, .T. ) ;
#193 = DIRECTION ( 'NONE',  ( 0.000000000000000000, 1.000000000000000000, 0.000000000000000000 ) ) ;
#194 = AXIS2_PLACEMENT_3D ( 'NONE', #97, #53, #33 ) ;
#195 = DIRECTION ( 'NONE',  ( -0.000000000000000000, -1.000000000000000000, -0.000000000000000000 ) ) ;
#196 = DIRECTION ( 'NONE',  ( -0.000000000000000000, -1.000000000000000000, -0.000000000000000000 ) ) ;
#197 = ORIENTED_EDGE ( 'NONE', *, *, #76, .F. ) ;
#198 =( NAMED_UNIT ( * ) PLANE_ANGLE_UNIT ( ) SI_UNIT ( $, .RADIAN. ) );
#199 = CIRCLE ( 'NONE', #136, 1.750000000000000000 ) ;
ENDSEC;
END-ISO-10303-21;
