ISO-10303-21;
HEADER;
FILE_DESCRIPTION (( 'STEP AP214' ),
    '1' );
FILE_NAME ('P001-B125_LED Lid REV2.STEP',
    '2026-05-15T07:32:40',
    ( '' ),
    ( '' ),
    'SwSTEP 2.0',
    'SolidWorks 2026',
    '' );
FILE_SCHEMA (( 'AUTOMOTIVE_DESIGN' ));
ENDSEC;

DATA;
#1 = CARTESIAN_POINT ( 'NONE',  ( 2.558702660123423289, 6.129411255188294660, 2.600000000000004530 ) ) ;
#2 = CIRCLE ( 'NONE', #463, 0.7499999999999997780 ) ;
#3 = CARTESIAN_POINT ( 'NONE',  ( 2.558702660123423733, 6.129411255188294660, 5.400005999999996753 ) ) ;
#4 = ADVANCED_FACE ( 'NONE', ( #388 ), #19, .F. ) ;
#5 = ORIENTED_EDGE ( 'NONE', *, *, #334, .F. ) ;
#6 = CARTESIAN_POINT ( 'NONE',  ( 0.04025157815519499194, 0.1294062920591663446, 2.600000000000003642 ) ) ;
#7 = SPHERICAL_SURFACE ( 'NONE', #161, 0.7499999999999997780 ) ;
#8 = ORIENTED_EDGE ( 'NONE', *, *, #124, .T. ) ;
#9 = CARTESIAN_POINT ( 'NONE',  ( -20.18605010699806357, -8.791493182611381130, 2.600000000000003642 ) ) ;
#10 = ORIENTED_EDGE ( 'NONE', *, *, #176, .T. ) ;
#11 = DIRECTION ( 'NONE',  ( 1.000000000000000000, 0.000000000000000000, 0.000000000000000000 ) ) ;
#12 = CARTESIAN_POINT ( 'NONE',  ( -22.09389689439121085, -0.06445232732959008115, 2.600000000000003642 ) ) ;
#13 = EDGE_LOOP ( 'NONE', ( #293, #385, #329, #122 ) ) ;
#14 = CARTESIAN_POINT ( 'NONE',  ( -24.06023271966105170, 0.000000000000000000, 5.399999999999998579 ) ) ;
#15 = ORIENTED_EDGE ( 'NONE', *, *, #355, .T. ) ;
#16 = DIRECTION ( 'NONE',  ( 0.000000000000000000, 0.000000000000000000, -1.000000000000000000 ) ) ;
#17 = CARTESIAN_POINT ( 'NONE',  ( 2.475183269825983245, 0.7837760029573686005, 5.400011999999997592 ) ) ;
#18 = VERTEX_POINT ( 'NONE', #58 ) ;
#19 = CYLINDRICAL_SURFACE ( 'NONE', #437, 2.500000000000000000 ) ;
#20 = EDGE_CURVE ( 'NONE', #500, #158, #191, .T. ) ;
#21 = ORIENTED_EDGE ( 'NONE', *, *, #504, .T. ) ;
#22 = ORIENTED_EDGE ( 'NONE', *, *, #411, .F. ) ;
#23 = FACE_BOUND ( 'NONE', #412, .T. ) ;
#24 = EDGE_CURVE ( 'NONE', #86, #374, #307, .T. ) ;
#25 = EDGE_LOOP ( 'NONE', ( #206, #5 ) ) ;
#26 = DIRECTION ( 'NONE',  ( 0.000000000000000000, 0.000000000000000000, -1.000000000000000000 ) ) ;
#27 = CARTESIAN_POINT ( 'NONE',  ( -20.25380977742650757, 8.677126526396104822, 2.600000000000003642 ) ) ;
#28 = DIRECTION ( 'NONE',  ( 0.000000000000000000, -1.000000000000000000, -1.259840380135488593E-16 ) ) ;
#29 = FACE_OUTER_BOUND ( 'NONE', #13, .T. ) ;
#30 = ADVANCED_FACE ( 'NONE', ( #258 ), #145, .T. ) ;
#31 = FACE_OUTER_BOUND ( 'NONE', #221, .T. ) ;
#32 = AXIS2_PLACEMENT_3D ( 'NONE', #365, #149, #190 ) ;
#33 = VECTOR ( 'NONE', #265, 1000.000000000000000 ) ;
#34 = CARTESIAN_POINT ( 'NONE',  ( 0.7130723710216229083, 8.564342946859087036, 5.400011999999998480 ) ) ;
#35 = DIRECTION ( 'NONE',  ( 0.000000000000000000, -1.000000000000000000, 0.000000000000000000 ) ) ;
#36 = CARTESIAN_POINT ( 'NONE',  ( -1.477664139813865685, 4.130244149192843217, 5.400011999999995815 ) ) ;
#37 = CARTESIAN_POINT ( 'NONE',  ( -2.144214392730449337, -1.129641158868081252, 5.400011999999998480 ) ) ;
#38 = CARTESIAN_POINT ( 'NONE',  ( -2.441297339876579375, 6.129411255188294660, 2.600000000000004530 ) ) ;
#39 =( BOUNDED_CURVE ( )  B_SPLINE_CURVE ( 3, ( #313, #188, #196, #514 ),
 .UNSPECIFIED., .F., .F. ) 
 B_SPLINE_CURVE_WITH_KNOTS ( ( 4, 4 ),
 ( 5.108386331324390461, 5.172255426177414961 ),
 .UNSPECIFIED. ) 
 CURVE ( )  GEOMETRIC_REPRESENTATION_ITEM ( )  RATIONAL_B_SPLINE_CURVE ( ( 1.000000000000000000, 0.9996600904487747963, 0.9996600904487747963, 1.000000000000000000 ) ) 
 REPRESENTATION_ITEM ( '' )  );
#40 = FACE_OUTER_BOUND ( 'NONE', #155, .T. ) ;
#41 = DIRECTION ( 'NONE',  ( 0.000000000000000000, -1.216532230151069192E-16, 1.000000000000000000 ) ) ;
#42 = CARTESIAN_POINT ( 'NONE',  ( 20.41007633280634082, 9.294682596457326085, 5.399999999999998579 ) ) ;
#43 = ORIENTED_EDGE ( 'NONE', *, *, #301, .T. ) ;
#44 = CARTESIAN_POINT ( 'NONE',  ( -21.55689707786714493, -10.69468259645732289, 2.600000000000002309 ) ) ;
#45 = CARTESIAN_POINT ( 'NONE',  ( 2.224717549040840403, -1.129641158868081030, 5.400011999999996704 ) ) ;
#46 = ORIENTED_EDGE ( 'NONE', *, *, #59, .T. ) ;
#47 = ORIENTED_EDGE ( 'NONE', *, *, #176, .F. ) ;
#48 = COLOUR_RGB ( '',0.7921568627450980005, 0.8196078431372548767, 0.9333333333333333481 ) ;
#49 = VECTOR ( 'NONE', #513, 1000.000000000000000 ) ;
#50 = DIRECTION ( 'NONE',  ( 0.000000000000000000, -1.000000000000000000, 0.000000000000000000 ) ) ;
#51 = ORIENTED_EDGE ( 'NONE', *, *, #20, .F. ) ;
#52 = DIRECTION ( 'NONE',  ( 0.000000000000000000, -1.000000000000000000, -1.734723475976806108E-16 ) ) ;
#53 = CARTESIAN_POINT ( 'NONE',  ( -2.144214392730451113, 1.388453742986412998, 5.400011999999997592 ) ) ;
#54 = EDGE_CURVE ( 'NONE', #374, #158, #397, .T. ) ;
#55 = ORIENTED_EDGE ( 'NONE', *, *, #461, .T. ) ;
#56 = CLOSED_SHELL ( 'NONE', ( #485, #4, #260, #223, #101, #159, #287, #276, #343, #30, #326, #165, #267, #66 ) ) ;
#57 = EDGE_LOOP ( 'NONE', ( #349, #250 ) ) ;
#58 = CARTESIAN_POINT ( 'NONE',  ( -21.55689707786714493, -10.69468259645732289, 2.600000000000002309 ) ) ;
#59 = EDGE_CURVE ( 'NONE', #450, #209, #110, .T. ) ;
#60 = FACE_OUTER_BOUND ( 'NONE', #457, .T. ) ;
#61 = ORIENTED_EDGE ( 'NONE', *, *, #228, .F. ) ;
#62 = CARTESIAN_POINT ( 'NONE',  ( -24.06023271966105170, 0.000000000000000000, 2.600000000000003642 ) ) ;
#63 = CIRCLE ( 'NONE', #272, 2.500000000000000000 ) ;
#64 = CARTESIAN_POINT ( 'NONE',  ( -1.496115221782092108, -1.869760813936283572, 5.400011999999997592 ) ) ;
#65 = CARTESIAN_POINT ( 'NONE',  ( -20.18605010699806357, -8.791493182611381130, 2.600000000000002753 ) ) ;
#66 = ADVANCED_FACE ( 'NONE', ( #29 ), #199, .F. ) ;
#67 = CARTESIAN_POINT ( 'NONE',  ( -20.25380977742650757, 8.677126526396104822, 2.600000000000004530 ) ) ;
#68 = B_SPLINE_CURVE_WITH_KNOTS ( 'NONE', 3,
 ( #277, #354, #399, #476, #229, #432, #73, #34, #429, #111, #402, #193, #478, #279, #436, #283, #236, #395 ),
 .UNSPECIFIED., .F., .F.,
 ( 4, 2, 2, 2, 2, 2, 2, 2, 4 ),
 ( 0.000000000000000000, 0.06250000000000000000, 0.1250000000000000000, 0.1875000000000000000, 0.2500000000000000000, 0.3125000000000000000, 0.3750000000000000000, 0.4375000000000000000, 0.5000000000000000000 ),
 .UNSPECIFIED. ) ;
#69 = FACE_OUTER_BOUND ( 'NONE', #164, .T. ) ;
#70 = EDGE_CURVE ( 'NONE', #135, #452, #106, .T. ) ;
#71 = DIRECTION ( 'NONE',  ( -0.000000000000000000, 1.216532230151069192E-16, -1.000000000000000000 ) ) ;
#72 = CARTESIAN_POINT ( 'NONE',  ( -2.441297339876579819, 5.802162020439356027, 5.400011999999997592 ) ) ;
#73 = CARTESIAN_POINT ( 'NONE',  ( 1.317750111050671524, 8.313877226073939752, 5.400011999999997592 ) ) ;
#74 = VECTOR ( 'NONE', #288, 1000.000000000000000 ) ;
#75 = DIRECTION ( 'NONE',  ( 0.000000000000000000, -1.000000000000000000, 0.000000000000000000 ) ) ;
#76 = CARTESIAN_POINT ( 'NONE',  ( -2.459748421844804245, 0.1294062920591664001, 5.400005999999996753 ) ) ;
#77 = CARTESIAN_POINT ( 'NONE',  ( 20.41007633280634082, -10.69468259645732289, 2.600000000000002309 ) ) ;
#78 = PRESENTATION_STYLE_ASSIGNMENT (( #213 ) ) ;
#79 = CARTESIAN_POINT ( 'NONE',  ( 0.3859518948723589804, 3.629411255188294216, 5.400011999999998480 ) ) ;
#80 = SURFACE_SIDE_STYLE ('',( #166 ) ) ;
#81 = VECTOR ( 'NONE', #268, 1000.000000000000000 ) ;
#82 = EDGE_LOOP ( 'NONE', ( #212, #222, #456, #512 ) ) ;
#83 = CARTESIAN_POINT ( 'NONE',  ( 2.243168631009067937, 4.870363804261046425, 5.400011999999997592 ) ) ;
#84 = ORIENTED_EDGE ( 'NONE', *, *, #379, .T. ) ;
#85 = DIRECTION ( 'NONE',  ( 0.000000000000000000, 0.8944271909999161885, -0.4472135954999574836 ) ) ;
#86 = VERTEX_POINT ( 'NONE', #147 ) ;
#87 = ORIENTED_EDGE ( 'NONE', *, *, #318, .T. ) ;
#88 = SHAPE_DEFINITION_REPRESENTATION ( #427, #197 ) ;
#89 = DIRECTION ( 'NONE',  ( 0.000000000000000000, 0.000000000000000000, -1.000000000000000000 ) ) ;
#90 = ORIENTED_EDGE ( 'NONE', *, *, #470, .F. ) ;
#91 = EDGE_CURVE ( 'NONE', #491, #92, #415, .T. ) ;
#92 = VERTEX_POINT ( 'NONE', #1 ) ;
#93 = ORIENTED_EDGE ( 'NONE', *, *, #507, .T. ) ;
#94 = AXIS2_PLACEMENT_3D ( 'NONE', #451, #85, #249 ) ;
#95 = VECTOR ( 'NONE', #398, 1000.000000000000000 ) ;
#96 = DIRECTION ( 'NONE',  ( -1.000000000000000000, 0.000000000000000000, 0.000000000000000000 ) ) ;
#97 = DIRECTION ( 'NONE',  ( -0.000000000000000000, 1.216532230151069192E-16, -1.000000000000000000 ) ) ;
#98 = CARTESIAN_POINT ( 'NONE',  ( 2.540251578155194423, 0.1294062920591668719, 5.400005999999996753 ) ) ;
#99 = CARTESIAN_POINT ( 'NONE',  ( 20.41007633280634082, -10.69468259645732289, 2.600000000000002309 ) ) ;
#100 = CARTESIAN_POINT ( 'NONE',  ( -0.6141181327430050851, 2.564337983729955361, 5.400011999999997592 ) ) ;
#101 = ADVANCED_FACE ( 'NONE', ( #357 ), #152, .F. ) ;
#102 = FACE_BOUND ( 'NONE', #57, .T. ) ;
#103 = CARTESIAN_POINT ( 'NONE',  ( -0.6141181327430037529, -2.305525399611623172, 5.400011999999998480 ) ) ;
#104 = DIRECTION ( 'NONE',  ( 0.000000000000000000, -1.000000000000000000, 0.000000000000000000 ) ) ;
#105 = EDGE_CURVE ( 'NONE', #178, #135, #484, .T. ) ;
#106 = LINE ( 'NONE', #233, #510 ) ;
#107 = CARTESIAN_POINT ( 'NONE',  ( -21.99755086812027471, -9.768068544034742118, 4.453228104845168289 ) ) ;
#108 = CARTESIAN_POINT ( 'NONE',  ( 20.41007633280634082, 9.294682596457326085, 5.399999999999998579 ) ) ;
#109 = DIRECTION ( 'NONE',  ( -0.000000000000000000, 1.216532230151069192E-16, -1.000000000000000000 ) ) ;
#110 = CIRCLE ( 'NONE', #243, 0.7500000000000006661 ) ;
#111 = CARTESIAN_POINT ( 'NONE',  ( -0.2685465746255157882, 8.629411255188298213, 5.400011999999998480 ) ) ;
#112 = CARTESIAN_POINT ( 'NONE',  ( 0.03620148601930078813, 0.000000000000000000, 5.399999999999998579 ) ) ;
#113 = DIRECTION ( 'NONE',  ( 6.938893903907222067E-15, 0.000000000000000000, -1.000000000000000000 ) ) ;
#114 = CARTESIAN_POINT ( 'NONE',  ( -0.5956670507747771071, 3.694479563517504062, 5.400011999999996704 ) ) ;
#115 = VERTEX_POINT ( 'NONE', #316 ) ;
#116 = CARTESIAN_POINT ( 'NONE',  ( 2.540251578155194867, 0.1294062920591666221, 2.600000000000003642 ) ) ;
#117 = EDGE_CURVE ( 'NONE', #505, #508, #68, .T. ) ;
#118 =( LENGTH_UNIT ( ) NAMED_UNIT ( * ) SI_UNIT ( .MILLI., .METRE. ) );
#119 = ORIENTED_EDGE ( 'NONE', *, *, #448, .F. ) ;
#120 = EDGE_CURVE ( 'NONE', #387, #138, #39, .T. ) ;
#121 = CARTESIAN_POINT ( 'NONE',  ( 2.039418684150645422, -1.406960507878119992, 5.400011999999996704 ) ) ;
#122 = ORIENTED_EDGE ( 'NONE', *, *, #91, .T. ) ;
#123 = CARTESIAN_POINT ( 'NONE',  ( 20.41007633280634082, 10.69468259645732289, 2.600000000000004974 ) ) ;
#124 = EDGE_CURVE ( 'NONE', #374, #86, #475, .T. ) ;
#125 = ORIENTED_EDGE ( 'NONE', *, *, #105, .F. ) ;
#126 = FACE_OUTER_BOUND ( 'NONE', #338, .T. ) ;
#127 = ORIENTED_EDGE ( 'NONE', *, *, #321, .F. ) ;
#128 = PRODUCT_DEFINITION ( 'UNKNOWN', '', #393, #134 ) ;
#129 = AXIS2_PLACEMENT_3D ( 'NONE', #12, #495, #50 ) ;
#130 = VERTEX_POINT ( 'NONE', #123 ) ;
#131 = EDGE_LOOP ( 'NONE', ( #10, #421 ) ) ;
#132 = ORIENTED_EDGE ( 'NONE', *, *, #120, .F. ) ;
#133 = ORIENTED_EDGE ( 'NONE', *, *, #431, .T. ) ;
#134 = PRODUCT_DEFINITION_CONTEXT ( 'detailed design', #195, 'design' ) ;
#135 = VERTEX_POINT ( 'NONE', #208 ) ;
#136 = AXIS2_PLACEMENT_3D ( 'NONE', #248, #317, #75 ) ;
#137 = FACE_OUTER_BOUND ( 'NONE', #418, .T. ) ;
#138 = VERTEX_POINT ( 'NONE', #367 ) ;
#139 = CARTESIAN_POINT ( 'NONE',  ( 0.05870266012342195694, 6.129411255188294660, 2.600000000000004530 ) ) ;
#140 = CARTESIAN_POINT ( 'NONE',  ( 2.039418684150646754, 1.665773091996452404, 5.400011999999997592 ) ) ;
#141 = PLANE ( 'NONE',  #162 ) ;
#142 = CARTESIAN_POINT ( 'NONE',  ( -1.958915527840254800, -1.406960507878121325, 5.400011999999997592 ) ) ;
#143 = DIRECTION ( 'NONE',  ( -1.000000000000000000, 0.000000000000000000, 0.000000000000000000 ) ) ;
#144 = CIRCLE ( 'NONE', #151, 0.7500000000000006661 ) ;
#145 = SPHERICAL_SURFACE ( 'NONE', #261, 0.7499999999999997780 ) ;
#146 = DIRECTION ( 'NONE',  ( 0.000000000000000000, -1.000000000000000000, 0.000000000000000000 ) ) ;
#147 = CARTESIAN_POINT ( 'NONE',  ( 2.540251578155194423, 0.1294062920591668719, 5.400005999999996753 ) ) ;
#148 = CARTESIAN_POINT ( 'NONE',  ( 1.317750111050670414, 3.944945284302648236, 5.400011999999998480 ) ) ;
#149 = DIRECTION ( 'NONE',  ( -0.000000000000000000, 1.216532230151069192E-16, -1.000000000000000000 ) ) ;
#150 = CARTESIAN_POINT ( 'NONE',  ( -2.459748421844804245, 0.1294062920591664001, 5.400005999999996753 ) ) ;
#151 = AXIS2_PLACEMENT_3D ( 'NONE', #447, #520, #146 ) ;
#152 = PLANE ( 'NONE',  #280 ) ;
#153 = DIRECTION ( 'NONE',  ( -0.000000000000000000, -0.000000000000000000, -1.000000000000000000 ) ) ;
#154 = LINE ( 'NONE', #339, #171 ) ;
#155 = EDGE_LOOP ( 'NONE', ( #377, #225, #125, #381, #503 ) ) ;
#156 = DIRECTION ( 'NONE',  ( -1.000000000000000000, 0.000000000000000000, 0.000000000000000000 ) ) ;
#157 = CARTESIAN_POINT ( 'NONE',  ( 20.41007633280634082, 9.294682596457326085, 5.399999999999998579 ) ) ;
#158 = VERTEX_POINT ( 'NONE', #417 ) ;
#159 = ADVANCED_FACE ( 'NONE', ( #328 ), #294, .F. ) ;
#160 = APPLICATION_PROTOCOL_DEFINITION ( 'draft international standard', 'automotive_design', 1998, #345 ) ;
#161 = AXIS2_PLACEMENT_3D ( 'NONE', #9, #376, #246 ) ;
#162 = AXIS2_PLACEMENT_3D ( 'NONE', #428, #232, #390 ) ;
#163 = EDGE_LOOP ( 'NONE', ( #494, #46 ) ) ;
#164 = EDGE_LOOP ( 'NONE', ( #43, #298, #337, #185 ) ) ;
#165 = ADVANCED_FACE ( 'NONE', ( #497 ), #7, .T. ) ;
#166 = SURFACE_STYLE_FILL_AREA ( #297 ) ;
#167 = VERTEX_POINT ( 'NONE', #14 ) ;
#168 = DIRECTION ( 'NONE',  ( 0.000000000000000000, 0.000000000000000000, 1.000000000000000000 ) ) ;
#169 = LINE ( 'NONE', #99, #81 ) ;
#170 = CARTESIAN_POINT ( 'NONE',  ( 0.3675008129041310023, 2.629406292059165651, 5.400011999999997592 ) ) ;
#171 = VECTOR ( 'NONE', #336, 1000.000000000000000 ) ;
#172 =( NAMED_UNIT ( * ) SI_UNIT ( $, .STERADIAN. ) SOLID_ANGLE_UNIT ( ) );
#173 = ORIENTED_EDGE ( 'NONE', *, *, #54, .T. ) ;
#174 = MANIFOLD_SOLID_BREP ( 'Cut-Extrude2', #56 ) ;
#175 = DIRECTION ( 'NONE',  ( -0.000000000000000000, 1.216532230151069192E-16, -1.000000000000000000 ) ) ;
#176 = EDGE_CURVE ( 'NONE', #262, #115, #446, .T. ) ;
#177 = DIRECTION ( 'NONE',  ( 0.000000000000000000, 0.000000000000000000, -1.000000000000000000 ) ) ;
#178 = VERTEX_POINT ( 'NONE', #380 ) ;
#179 = B_SPLINE_CURVE_WITH_KNOTS ( 'NONE', 3,
 ( #364, #72, #410, #435, #204, #36, #234, #114, #290, #79, #516, #148, #401, #489, #83, #327, #320, #3 ),
 .UNSPECIFIED., .F., .F.,
 ( 4, 2, 2, 2, 2, 2, 2, 2, 4 ),
 ( 0.5000000000000000000, 0.5625000000000000000, 0.6250000000000000000, 0.6875000000000000000, 0.7500000000000000000, 0.8125000000000000000, 0.8750000000000000000, 0.9375000000000000000, 1.000000000000000000 ),
 .UNSPECIFIED. ) ;
#180 = VECTOR ( 'NONE', #479, 1000.000000000000000 ) ;
#181 = AXIS2_PLACEMENT_3D ( 'NONE', #308, #473, #351 ) ;
#182 = CARTESIAN_POINT ( 'NONE',  ( 0.03620148601930078813, 0.000000000000000000, 2.600000000000003642 ) ) ;
#183 = AXIS2_PLACEMENT_3D ( 'NONE', #112, #153, #439 ) ;
#184 = EDGE_CURVE ( 'NONE', #505, #92, #154, .T. ) ;
#185 = ORIENTED_EDGE ( 'NONE', *, *, #470, .T. ) ;
#186 = LINE ( 'NONE', #310, #481 ) ;
#187 = EDGE_CURVE ( 'NONE', #508, #491, #286, .T. ) ;
#188 = CARTESIAN_POINT ( 'NONE',  ( -21.99755086812027471, 9.768068544034738565, 4.453228104845170066 ) ) ;
#189 = CARTESIAN_POINT ( 'NONE',  ( 2.540251578155194867, 0.1294062920591666221, 5.400011999999997592 ) ) ;
#190 = DIRECTION ( 'NONE',  ( 8.890457814381132415E-16, -1.000000000000000000, -1.734723475976806108E-16 ) ) ;
#191 = CIRCLE ( 'NONE', #333, 2.500000000000000000 ) ;
#192 = FACE_BOUND ( 'NONE', #25, .T. ) ;
#193 = CARTESIAN_POINT ( 'NONE',  ( -1.200344790803826722, 8.313877226073939752, 5.400011999999998480 ) ) ;
#194 = CARTESIAN_POINT ( 'NONE',  ( 0.03620148601930078813, 0.000000000000000000, 5.399999999999998579 ) ) ;
#195 = APPLICATION_CONTEXT ( 'automotive_design' ) ;
#196 = CARTESIAN_POINT ( 'NONE',  ( -21.78462235185353180, 10.23489388909494124, 3.519577414724763376 ) ) ;
#197 = ADVANCED_BREP_SHAPE_REPRESENTATION ( 'P001-B125_LED Lid REV2', ( #174, #245 ), #482 ) ;
#198 = DIRECTION ( 'NONE',  ( -0.000000000000000000, 1.000000000000000000, 1.216532230151069192E-16 ) ) ;
#199 = CYLINDRICAL_SURFACE ( 'NONE', #210, 2.500000000000001332 ) ;
#200 = LINE ( 'NONE', #518, #235 ) ;
#201 = VECTOR ( 'NONE', #241, 1000.000000000000000 ) ;
#202 = CARTESIAN_POINT ( 'NONE',  ( 2.540251578155194423, 0.1294062920591668719, 5.400005999999996753 ) ) ;
#203 = ORIENTED_EDGE ( 'NONE', *, *, #379, .F. ) ;
#204 = CARTESIAN_POINT ( 'NONE',  ( -1.940464445872029486, 4.593044455251006575, 5.400011999999997592 ) ) ;
#205 = CARTESIAN_POINT ( 'NONE',  ( -0.2869976565937413238, -2.370593707940833461, 5.400011999999997592 ) ) ;
#206 = ORIENTED_EDGE ( 'NONE', *, *, #91, .F. ) ;
#207 = CARTESIAN_POINT ( 'NONE',  ( -22.19546549735816043, -9.294682596457326085, 5.399999999999998579 ) ) ;
#208 = CARTESIAN_POINT ( 'NONE',  ( 20.41007633280634082, -9.294682596457327861, 5.399999999999995914 ) ) ;
#209 = VERTEX_POINT ( 'NONE', #406 ) ;
#210 = AXIS2_PLACEMENT_3D ( 'NONE', #519, #325, #231 ) ;
#211 = CARTESIAN_POINT ( 'NONE',  ( 1.576618378092483619, -1.869760813936283350, 5.400011999999998480 ) ) ;
#212 = ORIENTED_EDGE ( 'NONE', *, *, #411, .T. ) ;
#213 = SURFACE_STYLE_USAGE ( .BOTH. , #80 ) ;
#214 = EDGE_LOOP ( 'NONE', ( #264, #51 ) ) ;
#215 = CYLINDRICAL_SURFACE ( 'NONE', #324, 24.09643420568034955 ) ;
#216 = CARTESIAN_POINT ( 'NONE',  ( -2.394680113515594844, 0.7837760029573650478, 5.400011999999998480 ) ) ;
#217 =( BOUNDED_CURVE ( )  B_SPLINE_CURVE ( 3, ( #44, #237, #107, #207 ),
 .UNSPECIFIED., .F., .F. ) 
 B_SPLINE_CURVE_WITH_KNOTS ( ( 4, 4 ),
 ( 1.110929881002171271, 1.174798975855195993 ),
 .UNSPECIFIED. ) 
 CURVE ( )  GEOMETRIC_REPRESENTATION_ITEM ( )  RATIONAL_B_SPLINE_CURVE ( ( 1.000000000000000000, 0.9996600904487747963, 0.9996600904487747963, 1.000000000000000000 ) ) 
 REPRESENTATION_ITEM ( '' )  );
#218 = ORIENTED_EDGE ( 'NONE', *, *, #321, .T. ) ;
#219 = AXIS2_PLACEMENT_3D ( 'NONE', #483, #281, #156 ) ;
#220 = CARTESIAN_POINT ( 'NONE',  ( 0.04025157815519499194, 0.1294062920591663446, 5.400011999999997592 ) ) ;
#221 = EDGE_LOOP ( 'NONE', ( #420, #445, #462, #84 ) ) ;
#222 = ORIENTED_EDGE ( 'NONE', *, *, #184, .T. ) ;
#223 = ADVANCED_FACE ( 'NONE', ( #40, #487, #444 ), #408, .F. ) ;
#224 = DIRECTION ( 'NONE',  ( -1.000000000000000000, 0.000000000000000000, 0.000000000000000000 ) ) ;
#225 = ORIENTED_EDGE ( 'NONE', *, *, #284, .F. ) ;
#226 = CIRCLE ( 'NONE', #386, 0.7500000000000006661 ) ;
#227 = DIRECTION ( 'NONE',  ( 0.000000000000000000, -1.216532230151069192E-16, 1.000000000000000000 ) ) ;
#228 = EDGE_CURVE ( 'NONE', #178, #387, #370, .T. ) ;
#229 = CARTESIAN_POINT ( 'NONE',  ( 2.057869766118874288, 7.665778055125581858, 5.400011999999997592 ) ) ;
#230 = CARTESIAN_POINT ( 'NONE',  ( -24.06023271966105170, 0.000000000000000000, 2.600000000000002309 ) ) ;
#231 = DIRECTION ( 'NONE',  ( -1.000000000000000000, 0.000000000000000000, 0.000000000000000000 ) ) ;
#232 = DIRECTION ( 'NONE',  ( 0.000000000000000000, -1.216532230151069192E-16, 1.000000000000000000 ) ) ;
#233 = CARTESIAN_POINT ( 'NONE',  ( 20.41007633280634082, -10.69468259645732289, 2.600000000000002309 ) ) ;
#234 = CARTESIAN_POINT ( 'NONE',  ( -1.200344790803826056, 3.944945284302648236, 5.400011999999998480 ) ) ;
#235 = VECTOR ( 'NONE', #198, 1000.000000000000000 ) ;
#236 = CARTESIAN_POINT ( 'NONE',  ( -2.441297339876579375, 6.456660489937232406, 5.400011999999997592 ) ) ;
#237 = CARTESIAN_POINT ( 'NONE',  ( -21.78462235185353180, -10.23489388909494835, 3.519577414724754494 ) ) ;
#238 = CARTESIAN_POINT ( 'NONE',  ( 20.41007633280634082, 9.294682596457326085, 5.399999999999998579 ) ) ;
#239 = DIRECTION ( 'NONE',  ( 1.000000000000000000, 0.000000000000000000, 0.000000000000000000 ) ) ;
#240 = EDGE_CURVE ( 'NONE', #167, #289, #468, .T. ) ;
#241 = DIRECTION ( 'NONE',  ( 0.000000000000000000, 0.000000000000000000, -1.000000000000000000 ) ) ;
#242 = CARTESIAN_POINT ( 'NONE',  ( -22.09389689439121085, -0.06445232732959008115, 2.600000000000003642 ) ) ;
#243 = AXIS2_PLACEMENT_3D ( 'NONE', #67, #71, #319 ) ;
#244 = AXIS2_PLACEMENT_3D ( 'NONE', #139, #255, #52 ) ;
#245 = AXIS2_PLACEMENT_3D ( 'NONE', #460, #168, #11 ) ;
#246 = DIRECTION ( 'NONE',  ( 0.6634372004401909440, 0.7482319700948911745, 6.938893903907233111E-15 ) ) ;
#247 = ORIENTED_EDGE ( 'NONE', *, *, #507, .F. ) ;
#248 = CARTESIAN_POINT ( 'NONE',  ( -20.25380977742650757, 8.677126526396104822, 2.600000000000004530 ) ) ;
#249 = DIRECTION ( 'NONE',  ( 0.000000000000000000, 0.4472135954999574281, 0.8944271909999160775 ) ) ;
#250 = ORIENTED_EDGE ( 'NONE', *, *, #59, .F. ) ;
#251 = CARTESIAN_POINT ( 'NONE',  ( 0.6946212890533947082, -2.305525399611622728, 5.400011999999996704 ) ) ;
#252 = ORIENTED_EDGE ( 'NONE', *, *, #318, .F. ) ;
#253 = CARTESIAN_POINT ( 'NONE',  ( 1.299299029082442436, -2.055059678826478553, 5.400011999999997592 ) ) ;
#254 = EDGE_LOOP ( 'NONE', ( #132, #61, #423, #93 ) ) ;
#255 = DIRECTION ( 'NONE',  ( -0.000000000000000000, 1.216532230151069192E-16, -1.000000000000000000 ) ) ;
#256 = ORIENTED_EDGE ( 'NONE', *, *, #54, .F. ) ;
#257 = UNCERTAINTY_MEASURE_WITH_UNIT (LENGTH_MEASURE( 1.000000000000000082E-05 ), #118, 'distance_accuracy_value', 'NONE');
#258 = FACE_OUTER_BOUND ( 'NONE', #163, .T. ) ;
#259 =( NAMED_UNIT ( * ) PLANE_ANGLE_UNIT ( ) SI_UNIT ( $, .RADIAN. ) );
#260 = ADVANCED_FACE ( 'NONE', ( #31 ), #433, .T. ) ;
#261 = AXIS2_PLACEMENT_3D ( 'NONE', #27, #113, #434 ) ;
#262 = VERTEX_POINT ( 'NONE', #419 ) ;
#263 =( GEOMETRIC_REPRESENTATION_CONTEXT ( 3 ) GLOBAL_UNCERTAINTY_ASSIGNED_CONTEXT ( ( #257 ) ) GLOBAL_UNIT_ASSIGNED_CONTEXT ( ( #118, #413, #453 ) ) REPRESENTATION_CONTEXT ( 'NONE', 'WORKASPACE' ) );
#264 = ORIENTED_EDGE ( 'NONE', *, *, #461, .F. ) ;
#265 = DIRECTION ( 'NONE',  ( -1.000000000000000000, -0.000000000000000000, -0.000000000000000000 ) ) ;
#266 = CARTESIAN_POINT ( 'NONE',  ( 1.576618378092482953, 2.128573398054614874, 5.400011999999998480 ) ) ;
#267 = ADVANCED_FACE ( 'NONE', ( #60 ), #356, .F. ) ;
#268 = DIRECTION ( 'NONE',  ( -1.000000000000000000, -0.000000000000000000, -0.000000000000000000 ) ) ;
#269 = CARTESIAN_POINT ( 'NONE',  ( -1.958915527840257020, 1.665773091996451072, 5.400011999999998480 ) ) ;
#270 = VECTOR ( 'NONE', #440, 1000.000000000000000 ) ;
#271 = AXIS2_PLACEMENT_3D ( 'NONE', #194, #362, #239 ) ;
#272 = AXIS2_PLACEMENT_3D ( 'NONE', #6, #109, #405 ) ;
#273 = PLANE ( 'NONE',  #181 ) ;
#274 = DIRECTION ( 'NONE',  ( 0.000000000000000000, 0.4472135954999579277, -0.8944271909999158554 ) ) ;
#275 = DIRECTION ( 'NONE',  ( 0.000000000000000000, 0.000000000000000000, -1.000000000000000000 ) ) ;
#276 = ADVANCED_FACE ( 'NONE', ( #69 ), #273, .F. ) ;
#277 = CARTESIAN_POINT ( 'NONE',  ( 2.558702660123423733, 6.129411255188294660, 5.400005999999996753 ) ) ;
#278 = CARTESIAN_POINT ( 'NONE',  ( -22.19546549735816043, 9.294682596457326085, 5.399999999999998579 ) ) ;
#279 = CARTESIAN_POINT ( 'NONE',  ( -1.940464445872031485, 7.665778055125579193, 5.400011999999998480 ) ) ;
#280 = AXIS2_PLACEMENT_3D ( 'NONE', #238, #363, #274 ) ;
#281 = DIRECTION ( 'NONE',  ( 0.000000000000000000, 0.000000000000000000, -1.000000000000000000 ) ) ;
#282 = AXIS2_PLACEMENT_3D ( 'NONE', #509, #515, #455 ) ;
#283 = CARTESIAN_POINT ( 'NONE',  ( -2.376229031547369530, 6.783780966086494502, 5.400011999999998480 ) ) ;
#284 = EDGE_CURVE ( 'NONE', #135, #389, #315, .T. ) ;
#285 = CARTESIAN_POINT ( 'NONE',  ( -22.19546549735816043, -9.294682596457326085, 5.399999999999998579 ) ) ;
#286 = LINE ( 'NONE', #442, #201 ) ;
#287 = ADVANCED_FACE ( 'NONE', ( #192, #471, #360, #23, #102, #126 ), #141, .F. ) ;
#288 = DIRECTION ( 'NONE',  ( -1.000000000000000000, -0.000000000000000000, -0.000000000000000000 ) ) ;
#289 = VERTEX_POINT ( 'NONE', #62 ) ;
#290 = CARTESIAN_POINT ( 'NONE',  ( -0.2685465746255144559, 3.629411255188293328, 5.400011999999997592 ) ) ;
#291 = VECTOR ( 'NONE', #275, 1000.000000000000000 ) ;
#292 = DIRECTION ( 'NONE',  ( 0.000000000000000000, 1.399770883492566291E-16, -1.000000000000000000 ) ) ;
#293 = ORIENTED_EDGE ( 'NONE', *, *, #184, .F. ) ;
#294 = PLANE ( 'NONE',  #94 ) ;
#295 = VERTEX_POINT ( 'NONE', #341 ) ;
#296 = PRODUCT_CONTEXT ( 'NONE', #345, 'mechanical' ) ;
#297 = FILL_AREA_STYLE ('',( #331 ) ) ;
#298 = ORIENTED_EDGE ( 'NONE', *, *, #105, .T. ) ;
#299 = SPHERICAL_SURFACE ( 'NONE', #282, 0.7499999999999997780 ) ;
#300 = ORIENTED_EDGE ( 'NONE', *, *, #70, .F. ) ;
#301 = EDGE_CURVE ( 'NONE', #130, #178, #186, .T. ) ;
#302 = CARTESIAN_POINT ( 'NONE',  ( -2.459748421844805133, 0.4566555268081023966, 5.400011999999997592 ) ) ;
#303 = EDGE_CURVE ( 'NONE', #371, #295, #226, .T. ) ;
#304 = ORIENTED_EDGE ( 'NONE', *, *, #24, .T. ) ;
#305 = EDGE_LOOP ( 'NONE', ( #8, #87, #342, #256 ) ) ;
#306 = AXIS2_PLACEMENT_3D ( 'NONE', #42, #292, #449 ) ;
#307 = B_SPLINE_CURVE_WITH_KNOTS ( 'NONE', 3,
 ( #98, #511, #17, #466, #140, #266, #469, #344, #170, #311, #100, #426, #391, #269, #53, #216, #302, #459 ),
 .UNSPECIFIED., .F., .F.,
 ( 4, 2, 2, 2, 2, 2, 2, 2, 4 ),
 ( 0.000000000000000000, 0.06250000000000000000, 0.1250000000000000000, 0.1875000000000000000, 0.2500000000000000000, 0.3125000000000000000, 0.3750000000000000000, 0.4375000000000000000, 0.5000000000000000000 ),
 .UNSPECIFIED. ) ;
#308 = CARTESIAN_POINT ( 'NONE',  ( 20.41007633280634082, 0.000000000000000000, 0.000000000000000000 ) ) ;
#309 = CARTESIAN_POINT ( 'NONE',  ( 0.04025157815519499194, 0.1294062920591663446, 2.600000000000003642 ) ) ;
#310 = CARTESIAN_POINT ( 'NONE',  ( 20.41007633280634082, 9.294682596457326085, 5.399999999999998579 ) ) ;
#311 = CARTESIAN_POINT ( 'NONE',  ( -0.2869976565937425450, 2.629406292059165651, 5.400011999999998480 ) ) ;
#312 = CARTESIAN_POINT ( 'NONE',  ( 20.41007633280634082, -9.294682596457327861, 5.399999999999995914 ) ) ;
#313 = CARTESIAN_POINT ( 'NONE',  ( -22.19546549735816043, 9.294682596457326085, 5.399999999999998579 ) ) ;
#314 = CIRCLE ( 'NONE', #183, 24.09643420568034955 ) ;
#315 = LINE ( 'NONE', #312, #49 ) ;
#316 = CARTESIAN_POINT ( 'NONE',  ( -22.09389689439121085, 0.6855476726704097246, 2.600000000000003642 ) ) ;
#317 = DIRECTION ( 'NONE',  ( -0.000000000000000000, 1.216532230151069192E-16, -1.000000000000000000 ) ) ;
#318 = EDGE_CURVE ( 'NONE', #86, #500, #396, .T. ) ;
#319 = DIRECTION ( 'NONE',  ( 0.000000000000000000, -1.000000000000000000, 0.000000000000000000 ) ) ;
#320 = CARTESIAN_POINT ( 'NONE',  ( 2.558702660123423289, 5.802162020439359580, 5.400011999999997592 ) ) ;
#321 = EDGE_CURVE ( 'NONE', #138, #289, #400, .T. ) ;
#322 = CARTESIAN_POINT ( 'NONE',  ( -2.459748421844805133, -0.1978429426897710675, 5.400011999999998480 ) ) ;
#323 = FACE_OUTER_BOUND ( 'NONE', #82, .T. ) ;
#324 = AXIS2_PLACEMENT_3D ( 'NONE', #383, #16, #224 ) ;
#325 = DIRECTION ( 'NONE',  ( 0.000000000000000000, 0.000000000000000000, -1.000000000000000000 ) ) ;
#326 = ADVANCED_FACE ( 'NONE', ( #394 ), #299, .T. ) ;
#327 = CARTESIAN_POINT ( 'NONE',  ( 2.493634351794213000, 5.475041544290094819, 5.400011999999998480 ) ) ;
#328 = FACE_OUTER_BOUND ( 'NONE', #488, .T. ) ;
#329 = ORIENTED_EDGE ( 'NONE', *, *, #187, .T. ) ;
#330 = CYLINDRICAL_SURFACE ( 'NONE', #219, 2.500000000000001332 ) ;
#331 = FILL_AREA_STYLE_COLOUR ( '', #48 ) ;
#332 = EDGE_LOOP ( 'NONE', ( #133, #409 ) ) ;
#333 = AXIS2_PLACEMENT_3D ( 'NONE', #309, #175, #352 ) ;
#334 = EDGE_CURVE ( 'NONE', #92, #491, #358, .T. ) ;
#335 = AXIS2_PLACEMENT_3D ( 'NONE', #353, #26, #425 ) ;
#336 = DIRECTION ( 'NONE',  ( 0.000000000000000000, 0.000000000000000000, -1.000000000000000000 ) ) ;
#337 = ORIENTED_EDGE ( 'NONE', *, *, #70, .T. ) ;
#338 = EDGE_LOOP ( 'NONE', ( #127, #247, #90, #15, #454 ) ) ;
#339 = CARTESIAN_POINT ( 'NONE',  ( 2.558702660123423289, 6.129411255188294660, 5.400011999999997592 ) ) ;
#340 = EDGE_LOOP ( 'NONE', ( #22, #347 ) ) ;
#341 = CARTESIAN_POINT ( 'NONE',  ( -20.18605010699806357, -9.541493182611382906, 2.600000000000002753 ) ) ;
#342 = ORIENTED_EDGE ( 'NONE', *, *, #20, .T. ) ;
#343 = ADVANCED_FACE ( 'NONE', ( #137 ), #215, .T. ) ;
#344 = CARTESIAN_POINT ( 'NONE',  ( 0.6946212890533958184, 2.564337983729954917, 5.400011999999998480 ) ) ;
#345 = APPLICATION_CONTEXT ( 'automotive_design' ) ;
#346 = EDGE_LOOP ( 'NONE', ( #424, #368 ) ) ;
#347 = ORIENTED_EDGE ( 'NONE', *, *, #117, .F. ) ;
#348 = STYLED_ITEM ( 'NONE', ( #78 ), #174 ) ;
#349 = ORIENTED_EDGE ( 'NONE', *, *, #372, .F. ) ;
#350 = AXIS2_PLACEMENT_3D ( 'NONE', #182, #227, #28 ) ;
#351 = DIRECTION ( 'NONE',  ( -0.000000000000000000, 0.000000000000000000, 1.000000000000000000 ) ) ;
#352 = DIRECTION ( 'NONE',  ( 0.000000000000000000, -1.000000000000000000, -1.734723475976807094E-16 ) ) ;
#353 = CARTESIAN_POINT ( 'NONE',  ( 0.04025157815519499194, 0.1294062920591663446, 5.400011999999997592 ) ) ;
#354 = CARTESIAN_POINT ( 'NONE',  ( 2.558702660123423733, 6.456660489937231517, 5.400011999999998480 ) ) ;
#355 = EDGE_CURVE ( 'NONE', #452, #18, #169, .T. ) ;
#356 = CYLINDRICAL_SURFACE ( 'NONE', #335, 2.500000000000000000 ) ;
#357 = FACE_OUTER_BOUND ( 'NONE', #254, .T. ) ;
#358 = CIRCLE ( 'NONE', #244, 2.500000000000001332 ) ;
#359 = PRODUCT_RELATED_PRODUCT_CATEGORY ( 'part', '', ( #474 ) ) ;
#360 = FACE_BOUND ( 'NONE', #496, .T. ) ;
#361 = CARTESIAN_POINT ( 'NONE',  ( -2.459748421844805133, 0.1294062920591663446, 5.400011999999997592 ) ) ;
#362 = DIRECTION ( 'NONE',  ( -0.000000000000000000, -0.000000000000000000, -1.000000000000000000 ) ) ;
#363 = DIRECTION ( 'NONE',  ( 0.000000000000000000, -0.8944271909999159664, -0.4472135954999579832 ) ) ;
#364 = CARTESIAN_POINT ( 'NONE',  ( -2.441297339876579819, 6.129411255188293772, 5.400005999999996753 ) ) ;
#365 = CARTESIAN_POINT ( 'NONE',  ( 0.05870266012342195694, 6.129411255188294660, 2.600000000000004530 ) ) ;
#366 = LINE ( 'NONE', #407, #74 ) ;
#367 = CARTESIAN_POINT ( 'NONE',  ( -21.55689707786714493, 10.69468259645732289, 2.600000000000004974 ) ) ;
#368 = ORIENTED_EDGE ( 'NONE', *, *, #24, .F. ) ;
#369 = CARTESIAN_POINT ( 'NONE',  ( -20.25380977742650757, 9.427126526396104822, 2.600000000000004530 ) ) ;
#370 = LINE ( 'NONE', #157, #33 ) ;
#371 = VERTEX_POINT ( 'NONE', #443 ) ;
#372 = EDGE_CURVE ( 'NONE', #209, #450, #392, .T. ) ;
#373 = CARTESIAN_POINT ( 'NONE',  ( 2.475183269825983245, -0.5249634188390325251, 5.400011999999997592 ) ) ;
#374 = VERTEX_POINT ( 'NONE', #150 ) ;
#375 = AXIS2_PLACEMENT_3D ( 'NONE', #465, #89, #143 ) ;
#376 = DIRECTION ( 'NONE',  ( 4.603520345759731670E-15, 5.191902255999929520E-15, -1.000000000000000000 ) ) ;
#377 = ORIENTED_EDGE ( 'NONE', *, *, #467, .F. ) ;
#378 = APPLICATION_PROTOCOL_DEFINITION ( 'draft international standard', 'automotive_design', 1998, #195 ) ;
#379 = EDGE_CURVE ( 'NONE', #18, #389, #217, .T. ) ;
#380 = CARTESIAN_POINT ( 'NONE',  ( 20.41007633280634082, 9.294682596457326085, 5.399999999999998579 ) ) ;
#381 = ORIENTED_EDGE ( 'NONE', *, *, #228, .T. ) ;
#382 = EDGE_CURVE ( 'NONE', #289, #18, #502, .T. ) ;
#383 = CARTESIAN_POINT ( 'NONE',  ( 0.03620148601930078813, 0.000000000000000000, 2.600000000000002309 ) ) ;
#384 = ORIENTED_EDGE ( 'NONE', *, *, #431, .F. ) ;
#385 = ORIENTED_EDGE ( 'NONE', *, *, #117, .T. ) ;
#386 = AXIS2_PLACEMENT_3D ( 'NONE', #65, #97, #104 ) ;
#387 = VERTEX_POINT ( 'NONE', #278 ) ;
#388 = FACE_OUTER_BOUND ( 'NONE', #305, .T. ) ;
#389 = VERTEX_POINT ( 'NONE', #285 ) ;
#390 = DIRECTION ( 'NONE',  ( 0.000000000000000000, -1.000000000000000000, -1.216532230151069192E-16 ) ) ;
#391 = CARTESIAN_POINT ( 'NONE',  ( -1.496115221782094995, 2.128573398054614429, 5.400011999999997592 ) ) ;
#392 = CIRCLE ( 'NONE', #136, 0.7500000000000006661 ) ;
#393 = PRODUCT_DEFINITION_FORMATION_WITH_SPECIFIED_SOURCE ( 'ANY', '', #474, .NOT_KNOWN. ) ;
#394 = FACE_OUTER_BOUND ( 'NONE', #131, .T. ) ;
#395 = CARTESIAN_POINT ( 'NONE',  ( -2.441297339876579819, 6.129411255188293772, 5.400005999999996753 ) ) ;
#396 = LINE ( 'NONE', #189, #95 ) ;
#397 = LINE ( 'NONE', #361, #270 ) ;
#398 = DIRECTION ( 'NONE',  ( 0.000000000000000000, 0.000000000000000000, -1.000000000000000000 ) ) ;
#399 = CARTESIAN_POINT ( 'NONE',  ( 2.493634351794212112, 6.783780966086497166, 5.400011999999997592 ) ) ;
#400 = CIRCLE ( 'NONE', #350, 24.09643420568034955 ) ;
#401 = CARTESIAN_POINT ( 'NONE',  ( 1.595069460060710487, 4.130244149192844105, 5.400011999999997592 ) ) ;
#402 = CARTESIAN_POINT ( 'NONE',  ( -0.5956670507747782173, 8.564342946859083483, 5.400011999999997592 ) ) ;
#403 = DIRECTION ( 'NONE',  ( 0.000000000000000000, -1.000000000000000000, -1.259840380135488593E-16 ) ) ;
#404 = CARTESIAN_POINT ( 'NONE',  ( -2.394680113515594400, -0.5249634188390334133, 5.400011999999997592 ) ) ;
#405 = DIRECTION ( 'NONE',  ( 0.000000000000000000, -1.000000000000000000, -1.734723475976807094E-16 ) ) ;
#406 = CARTESIAN_POINT ( 'NONE',  ( -20.25380977742650757, 7.927126526396103046, 2.600000000000004530 ) ) ;
#407 = CARTESIAN_POINT ( 'NONE',  ( 20.41007633280634082, 10.69468259645732289, 2.600000000000004974 ) ) ;
#408 = PLANE ( 'NONE',  #306 ) ;
#409 = ORIENTED_EDGE ( 'NONE', *, *, #303, .T. ) ;
#410 = CARTESIAN_POINT ( 'NONE',  ( -2.376229031547368642, 5.475041544290094819, 5.400011999999997592 ) ) ;
#411 = EDGE_CURVE ( 'NONE', #508, #505, #179, .T. ) ;
#412 = EDGE_LOOP ( 'NONE', ( #47, #119 ) ) ;
#413 =( NAMED_UNIT ( * ) PLANE_ANGLE_UNIT ( ) SI_UNIT ( $, .RADIAN. ) );
#414 = ORIENTED_EDGE ( 'NONE', *, *, #240, .F. ) ;
#415 = CIRCLE ( 'NONE', #32, 2.500000000000001332 ) ;
#416 = MECHANICAL_DESIGN_GEOMETRIC_PRESENTATION_REPRESENTATION (  '', ( #348 ), #263 ) ;
#417 = CARTESIAN_POINT ( 'NONE',  ( -2.459748421844805133, 0.1294062920591663446, 2.600000000000003642 ) ) ;
#418 = EDGE_LOOP ( 'NONE', ( #414, #21, #464, #218 ) ) ;
#419 = CARTESIAN_POINT ( 'NONE',  ( -22.09389689439121085, -0.8144523273295898314, 2.600000000000003642 ) ) ;
#420 = ORIENTED_EDGE ( 'NONE', *, *, #467, .T. ) ;
#421 = ORIENTED_EDGE ( 'NONE', *, *, #448, .T. ) ;
#422 = ORIENTED_EDGE ( 'NONE', *, *, #355, .F. ) ;
#423 = ORIENTED_EDGE ( 'NONE', *, *, #301, .F. ) ;
#424 = ORIENTED_EDGE ( 'NONE', *, *, #124, .F. ) ;
#425 = DIRECTION ( 'NONE',  ( -1.000000000000000000, 0.000000000000000000, 0.000000000000000000 ) ) ;
#426 = CARTESIAN_POINT ( 'NONE',  ( -1.218795872772053146, 2.313872262944811187, 5.400011999999998480 ) ) ;
#427 = PRODUCT_DEFINITION_SHAPE ( 'NONE', 'NONE',  #128 ) ;
#428 = CARTESIAN_POINT ( 'NONE',  ( 20.41007633280634082, 10.69468259645732289, 2.600000000000004974 ) ) ;
#429 = CARTESIAN_POINT ( 'NONE',  ( 0.3859518948723580367, 8.629411255188296437, 5.400011999999997592 ) ) ;
#430 = DIRECTION ( 'NONE',  ( -0.000000000000000000, -0.4472135954999579277, 0.8944271909999158554 ) ) ;
#431 = EDGE_CURVE ( 'NONE', #295, #371, #144, .T. ) ;
#432 = CARTESIAN_POINT ( 'NONE',  ( 1.595069460060711597, 8.128578361183748768, 5.400011999999998480 ) ) ;
#433 = CYLINDRICAL_SURFACE ( 'NONE', #375, 24.09643420568034955 ) ;
#434 = DIRECTION ( 'NONE',  ( 1.000000000000000000, 0.000000000000000000, 6.938893903907222067E-15 ) ) ;
#435 = CARTESIAN_POINT ( 'NONE',  ( -2.125763310762224023, 4.870363804261048202, 5.400011999999998480 ) ) ;
#436 = CARTESIAN_POINT ( 'NONE',  ( -2.125763310762224911, 7.388458706115541119, 5.400011999999997592 ) ) ;
#437 = AXIS2_PLACEMENT_3D ( 'NONE', #220, #177, #96 ) ;
#438 = AXIS2_PLACEMENT_3D ( 'NONE', #477, #41, #403 ) ;
#439 = DIRECTION ( 'NONE',  ( 1.000000000000000000, 0.000000000000000000, 0.000000000000000000 ) ) ;
#440 = DIRECTION ( 'NONE',  ( 0.000000000000000000, 0.000000000000000000, -1.000000000000000000 ) ) ;
#441 = DIRECTION ( 'NONE',  ( -0.000000000000000000, 1.216532230151069192E-16, -1.000000000000000000 ) ) ;
#442 = CARTESIAN_POINT ( 'NONE',  ( -2.441297339876579375, 6.129411255188294660, 5.400011999999997592 ) ) ;
#443 = CARTESIAN_POINT ( 'NONE',  ( -20.18605010699806357, -8.041493182611381130, 2.600000000000002753 ) ) ;
#444 = FACE_BOUND ( 'NONE', #340, .T. ) ;
#445 = ORIENTED_EDGE ( 'NONE', *, *, #240, .T. ) ;
#446 = CIRCLE ( 'NONE', #129, 0.7499999999999997780 ) ;
#447 = CARTESIAN_POINT ( 'NONE',  ( -20.18605010699806357, -8.791493182611381130, 2.600000000000002753 ) ) ;
#448 = EDGE_CURVE ( 'NONE', #115, #262, #2, .T. ) ;
#449 = DIRECTION ( 'NONE',  ( 0.000000000000000000, 1.000000000000000000, 1.399770883492566291E-16 ) ) ;
#450 = VERTEX_POINT ( 'NONE', #369 ) ;
#451 = CARTESIAN_POINT ( 'NONE',  ( 20.41007633280634082, -10.69468259645732289, 2.600000000000002309 ) ) ;
#452 = VERTEX_POINT ( 'NONE', #77 ) ;
#453 =( NAMED_UNIT ( * ) SI_UNIT ( $, .STERADIAN. ) SOLID_ANGLE_UNIT ( ) );
#454 = ORIENTED_EDGE ( 'NONE', *, *, #382, .F. ) ;
#455 = DIRECTION ( 'NONE',  ( 0.9119860745757595311, 0.4102211595955251311, 6.938893903907216545E-15 ) ) ;
#456 = ORIENTED_EDGE ( 'NONE', *, *, #334, .T. ) ;
#457 = EDGE_LOOP ( 'NONE', ( #252, #304, #173, #55 ) ) ;
#458 = UNCERTAINTY_MEASURE_WITH_UNIT (LENGTH_MEASURE( 1.000000000000000082E-05 ), #492, 'distance_accuracy_value', 'NONE');
#459 = CARTESIAN_POINT ( 'NONE',  ( -2.459748421844804245, 0.1294062920591664001, 5.400005999999996753 ) ) ;
#460 = CARTESIAN_POINT ( 'NONE',  ( 0.000000000000000000, 0.000000000000000000, 0.000000000000000000 ) ) ;
#461 = EDGE_CURVE ( 'NONE', #158, #500, #63, .T. ) ;
#462 = ORIENTED_EDGE ( 'NONE', *, *, #382, .T. ) ;
#463 = AXIS2_PLACEMENT_3D ( 'NONE', #242, #441, #35 ) ;
#464 = ORIENTED_EDGE ( 'NONE', *, *, #120, .T. ) ;
#465 = CARTESIAN_POINT ( 'NONE',  ( 0.03620148601930078813, 0.000000000000000000, 2.600000000000002309 ) ) ;
#466 = CARTESIAN_POINT ( 'NONE',  ( 2.224717549040838627, 1.388453742986416550, 5.400011999999998480 ) ) ;
#467 = EDGE_CURVE ( 'NONE', #389, #167, #501, .T. ) ;
#468 = LINE ( 'NONE', #230, #291 ) ;
#469 = CARTESIAN_POINT ( 'NONE',  ( 1.299299029082443990, 2.313872262944810299, 5.400011999999997592 ) ) ;
#470 = EDGE_CURVE ( 'NONE', #452, #130, #200, .T. ) ;
#471 = FACE_BOUND ( 'NONE', #214, .T. ) ;
#472 = CARTESIAN_POINT ( 'NONE',  ( -1.218795872772051814, -2.055059678826478553, 5.400011999999996704 ) ) ;
#473 = DIRECTION ( 'NONE',  ( -1.000000000000000000, 0.000000000000000000, -0.000000000000000000 ) ) ;
#474 = PRODUCT ( 'P001-B125_LED Lid REV2', 'P001-B125_LED Lid REV2', '', ( #296 ) ) ;
#475 = B_SPLINE_CURVE_WITH_KNOTS ( 'NONE', 3,
 ( #76, #322, #404, #37, #142, #64, #472, #103, #205, #493, #251, #253, #211, #121, #45, #373, #490, #202 ),
 .UNSPECIFIED., .F., .F.,
 ( 4, 2, 2, 2, 2, 2, 2, 2, 4 ),
 ( 0.5000000000000000000, 0.5625000000000000000, 0.6250000000000000000, 0.6875000000000000000, 0.7500000000000000000, 0.8125000000000000000, 0.8749999999999998890, 0.9375000000000000000, 1.000000000000000000 ),
 .UNSPECIFIED. ) ;
#476 = CARTESIAN_POINT ( 'NONE',  ( 2.243168631009066605, 7.388458706115544672, 5.400011999999998480 ) ) ;
#477 = CARTESIAN_POINT ( 'NONE',  ( 0.03620148601930078813, 0.000000000000000000, 2.600000000000003642 ) ) ;
#478 = CARTESIAN_POINT ( 'NONE',  ( -1.477664139813868571, 8.128578361183745216, 5.400011999999997592 ) ) ;
#479 = DIRECTION ( 'NONE',  ( 0.000000000000000000, -1.000000000000000000, -1.399770883492566291E-16 ) ) ;
#480 = PRESENTATION_LAYER_ASSIGNMENT (  '', '', ( #348 ) ) ;
#481 = VECTOR ( 'NONE', #430, 1000.000000000000227 ) ;
#482 =( GEOMETRIC_REPRESENTATION_CONTEXT ( 3 ) GLOBAL_UNCERTAINTY_ASSIGNED_CONTEXT ( ( #458 ) ) GLOBAL_UNIT_ASSIGNED_CONTEXT ( ( #492, #259, #172 ) ) REPRESENTATION_CONTEXT ( 'NONE', 'WORKASPACE' ) );
#483 = CARTESIAN_POINT ( 'NONE',  ( 0.05870266012342195694, 6.129411255188294660, 5.400011999999997592 ) ) ;
#484 = LINE ( 'NONE', #108, #180 ) ;
#485 = ADVANCED_FACE ( 'NONE', ( #323 ), #330, .F. ) ;
#486 = CARTESIAN_POINT ( 'NONE',  ( 2.558702660123423733, 6.129411255188294660, 5.400005999999996753 ) ) ;
#487 = FACE_BOUND ( 'NONE', #346, .T. ) ;
#488 = EDGE_LOOP ( 'NONE', ( #203, #422, #300, #506 ) ) ;
#489 = CARTESIAN_POINT ( 'NONE',  ( 2.057869766118873400, 4.593044455251007463, 5.400011999999998480 ) ) ;
#490 = CARTESIAN_POINT ( 'NONE',  ( 2.540251578155193979, -0.1978429426897703181, 5.400011999999996704 ) ) ;
#491 = VERTEX_POINT ( 'NONE', #38 ) ;
#492 =( LENGTH_UNIT ( ) NAMED_UNIT ( * ) SI_UNIT ( .MILLI., .METRE. ) );
#493 = CARTESIAN_POINT ( 'NONE',  ( 0.3675008129041322236, -2.370593707940833017, 5.400011999999998480 ) ) ;
#494 = ORIENTED_EDGE ( 'NONE', *, *, #372, .T. ) ;
#495 = DIRECTION ( 'NONE',  ( -0.000000000000000000, 1.216532230151069192E-16, -1.000000000000000000 ) ) ;
#496 = EDGE_LOOP ( 'NONE', ( #384, #498 ) ) ;
#497 = FACE_OUTER_BOUND ( 'NONE', #332, .T. ) ;
#498 = ORIENTED_EDGE ( 'NONE', *, *, #303, .F. ) ;
#499 = CARTESIAN_POINT ( 'NONE',  ( -2.441297339876579819, 6.129411255188293772, 5.400005999999996753 ) ) ;
#500 = VERTEX_POINT ( 'NONE', #116 ) ;
#501 = CIRCLE ( 'NONE', #271, 24.09643420568034955 ) ;
#502 = CIRCLE ( 'NONE', #438, 24.09643420568034955 ) ;
#503 = ORIENTED_EDGE ( 'NONE', *, *, #504, .F. ) ;
#504 = EDGE_CURVE ( 'NONE', #167, #387, #314, .T. ) ;
#505 = VERTEX_POINT ( 'NONE', #486 ) ;
#506 = ORIENTED_EDGE ( 'NONE', *, *, #284, .T. ) ;
#507 = EDGE_CURVE ( 'NONE', #130, #138, #366, .T. ) ;
#508 = VERTEX_POINT ( 'NONE', #499 ) ;
#509 = CARTESIAN_POINT ( 'NONE',  ( -22.09389689439121085, -0.06445232732959008115, 2.600000000000003642 ) ) ;
#510 = VECTOR ( 'NONE', #517, 1000.000000000000114 ) ;
#511 = CARTESIAN_POINT ( 'NONE',  ( 2.540251578155194867, 0.4566555268081038954, 5.400011999999998480 ) ) ;
#512 = ORIENTED_EDGE ( 'NONE', *, *, #187, .F. ) ;
#513 = DIRECTION ( 'NONE',  ( -1.000000000000000000, -0.000000000000000000, -0.000000000000000000 ) ) ;
#514 = CARTESIAN_POINT ( 'NONE',  ( -21.55689707786714493, 10.69468259645732289, 2.600000000000004974 ) ) ;
#515 = DIRECTION ( 'NONE',  ( 6.328174613322007259E-15, 2.846481103571144779E-15, -1.000000000000000000 ) ) ;
#516 = CARTESIAN_POINT ( 'NONE',  ( 0.7130723710216223532, 3.694479563517504950, 5.400011999999998480 ) ) ;
#517 = DIRECTION ( 'NONE',  ( -0.000000000000000000, -0.4472135954999574836, -0.8944271909999160775 ) ) ;
#518 = CARTESIAN_POINT ( 'NONE',  ( 20.41007633280634082, 10.69468259645732289, 2.600000000000004974 ) ) ;
#519 = CARTESIAN_POINT ( 'NONE',  ( 0.05870266012342195694, 6.129411255188294660, 5.400011999999997592 ) ) ;
#520 = DIRECTION ( 'NONE',  ( -0.000000000000000000, 1.216532230151069192E-16, -1.000000000000000000 ) ) ;
ENDSEC;
END-ISO-10303-21;
