ISO-10303-21;
HEADER;
FILE_DESCRIPTION (( 'STEP AP214' ),
    '1' );
FILE_NAME ('P001-B124_REV2 Light Cover_1.STEP',
    '2026-05-14T06:19:23',
    ( '' ),
    ( '' ),
    'SwSTEP 2.0',
    'SolidWorks 2026',
    '' );
FILE_SCHEMA (( 'AUTOMOTIVE_DESIGN' ));
ENDSEC;

DATA;
#1 = ADVANCED_FACE ( 'NONE', ( #744 ), #880, .F. ) ;
#2 = DIRECTION ( 'NONE',  ( 1.000000000000000000, 0.000000000000000000, 0.000000000000000000 ) ) ;
#3 = CARTESIAN_POINT ( 'NONE',  ( 129.5390055682871662, -100.5329986108072973, -13.22477939615512810 ) ) ;
#4 = CARTESIAN_POINT ( 'NONE',  ( 129.7535205019750890, -96.98794090363419684, -12.29499999999999993 ) ) ;
#5 = CARTESIAN_POINT ( 'NONE',  ( 130.0359002399868871, -104.5130472858814699, -10.69149985873133524 ) ) ;
#6 = LINE ( 'NONE', #455, #781 ) ;
#7 = CARTESIAN_POINT ( 'NONE',  ( 166.4313801618762056, -111.4899755855030747, -30.29500000000002302 ) ) ;
#8 = DIRECTION ( 'NONE',  ( -1.000000000000000000, 0.000000000000000000, -3.070791542040251536E-16 ) ) ;
#9 = CARTESIAN_POINT ( 'NONE',  ( 129.6417447444236757, -102.1628727318692995, -3.179496104239868171 ) ) ;
#10 = LINE ( 'NONE', #613, #568 ) ;
#11 = EDGE_LOOP ( 'NONE', ( #286, #783, #21, #225, #649, #211 ) ) ;
#12 = ADVANCED_FACE ( 'NONE', ( #597 ), #71, .T. ) ;
#13 = DIRECTION ( 'NONE',  ( -1.000000000000000000, 0.000000000000000000, -3.070791542040251536E-16 ) ) ;
#14 = FACE_OUTER_BOUND ( 'NONE', #595, .T. ) ;
#15 = CARTESIAN_POINT ( 'NONE',  ( 130.2090348142811536, -105.2217069482623373, -8.605964434021675658 ) ) ;
#16 = CYLINDRICAL_SURFACE ( 'NONE', #616, 20.41007633280633726 ) ;
#17 = B_SPLINE_CURVE_WITH_KNOTS ( 'NONE', 3,
 ( #435, #77, #680, #159, #693, #9, #832, #465, #531, #673, #241, #90, #686, #164, #250, #599, #454, #755, #537, #746, #15, #394, #322, #618, #612, #5, #913, #836, #399, #891, #542, #313 ),
 .UNSPECIFIED., .F., .F.,
 ( 4, 2, 2, 2, 2, 2, 2, 2, 2, 2, 2, 2, 2, 2, 2, 4 ),
 ( 0.01328115540272353443, 0.01411085719648857636, 0.01494055899025362004, 0.01659996257778366055, 0.01742966437154866433, 0.01825936616531366810, 0.01908906795907867188, 0.01991876975284367565, 0.02074847154660867943, 0.02157817334037368320, 0.02240787513413868698, 0.02323757692790369422, 0.02406727872166869800, 0.02489698051543370177, 0.02572668230919870555, 0.02655638410296370933 ),
 .UNSPECIFIED. ) ;
#18 = VERTEX_POINT ( 'NONE', #222 ) ;
#19 = CIRCLE ( 'NONE', #419, 22.59643420568036021 ) ;
#20 = CARTESIAN_POINT ( 'NONE',  ( 127.7038687514485957, -97.21722985939450723, -12.45011476353776381 ) ) ;
#21 = ORIENTED_EDGE ( 'NONE', *, *, #909, .T. ) ;
#22 = DIRECTION ( 'NONE',  ( 1.228316616816101403E-15, 1.000000000000000000, 0.000000000000000000 ) ) ;
#23 = EDGE_CURVE ( 'NONE', #787, #806, #572, .T. ) ;
#24 = CARTESIAN_POINT ( 'NONE',  ( 128.1495064163678421, -94.75006428585973595, -8.169925429033506603 ) ) ;
#25 = ORIENTED_EDGE ( 'NONE', *, *, #466, .F. ) ;
#26 = DIRECTION ( 'NONE',  ( -0.000000000000000000, -0.000000000000000000, 1.000000000000000000 ) ) ;
#27 = ORIENTED_EDGE ( 'NONE', *, *, #271, .F. ) ;
#28 = EDGE_CURVE ( 'NONE', #436, #43, #885, .T. ) ;
#29 = CARTESIAN_POINT ( 'NONE',  ( 127.5419057267573635, -100.6902824796854219, -2.779289755252463134 ) ) ;
#30 = AXIS2_PLACEMENT_3D ( 'NONE', #410, #703, #339 ) ;
#31 = ORIENTED_EDGE ( 'NONE', *, *, #598, .T. ) ;
#32 = CARTESIAN_POINT ( 'NONE',  ( 129.8369296653608842, -96.46246922877507757, -4.105985972307334642 ) ) ;
#33 = ORIENTED_EDGE ( 'NONE', *, *, #765, .F. ) ;
#34 = AXIS2_PLACEMENT_3D ( 'NONE', #224, #430, #217 ) ;
#35 = AXIS2_PLACEMENT_3D ( 'NONE', #302, #316, #389 ) ;
#36 = CARTESIAN_POINT ( 'NONE',  ( 128.1495521359533711, -94.74987250376922532, -7.650969613794171842 ) ) ;
#37 = ORIENTED_EDGE ( 'NONE', *, *, #936, .F. ) ;
#38 = DIRECTION ( 'NONE',  ( 2.200000000000000250E-16, -4.884981308350999151E-32, -1.000000000000000000 ) ) ;
#39 = ADVANCED_FACE ( 'NONE', ( #449 ), #740, .T. ) ;
#40 = ORIENTED_EDGE ( 'NONE', *, *, #297, .F. ) ;
#41 = CARTESIAN_POINT ( 'NONE',  ( 168.1876053648817901, -109.4900051844121833, -12.29499999999999993 ) ) ;
#42 = CARTESIAN_POINT ( 'NONE',  ( 128.1543326333908794, -105.2501403485348135, -8.336601646354255379 ) ) ;
#43 = VERTEX_POINT ( 'NONE', #949 ) ;
#44 = CARTESIAN_POINT ( 'NONE',  ( 129.5335639049536951, -100.0000000000000000, -13.24499999999999922 ) ) ;
#45 = EDGE_CURVE ( 'NONE', #338, #944, #130, .T. ) ;
#46 = ORIENTED_EDGE ( 'NONE', *, *, #859, .F. ) ;
#47 = FACE_OUTER_BOUND ( 'NONE', #11, .T. ) ;
#48 = ORIENTED_EDGE ( 'NONE', *, *, #337, .F. ) ;
#49 = CYLINDRICAL_SURFACE ( 'NONE', #794, 20.41007633280633726 ) ;
#50 = ORIENTED_EDGE ( 'NONE', *, *, #337, .T. ) ;
#51 = AXIS2_PLACEMENT_3D ( 'NONE', #357, #231, #221 ) ;
#52 = CARTESIAN_POINT ( 'NONE',  ( 127.6526958578445345, -102.3290535578644409, -12.71260984385846093 ) ) ;
#53 = ORIENTED_EDGE ( 'NONE', *, *, #748, .T. ) ;
#54 = DIRECTION ( 'NONE',  ( 1.000000000000000000, 0.000000000000000000, 0.000000000000000000 ) ) ;
#55 = DIRECTION ( 'NONE',  ( 0.000000000000000000, 0.000000000000000000, 1.000000000000000000 ) ) ;
#56 = DIRECTION ( 'NONE',  ( -1.000000000000000000, 0.000000000000000000, -2.200000000000000003E-16 ) ) ;
#57 = VERTEX_POINT ( 'NONE', #580 ) ;
#58 = CARTESIAN_POINT ( 'NONE',  ( 170.4500780616563134, -100.1499999284999944, -2.509999999999998455 ) ) ;
#59 = ORIENTED_EDGE ( 'NONE', *, *, #494, .F. ) ;
#60 = CARTESIAN_POINT ( 'NONE',  ( 127.6872640683522349, -102.6366172603926259, -12.54773743719734469 ) ) ;
#61 = EDGE_CURVE ( 'NONE', #409, #495, #642, .T. ) ;
#62 = ORIENTED_EDGE ( 'NONE', *, *, #326, .F. ) ;
#63 = DIRECTION ( 'NONE',  ( 0.000000000000000000, -1.000000000000000000, 0.000000000000000000 ) ) ;
#64 = DIRECTION ( 'NONE',  ( -0.6735232506555944854, -0.0003136895573928286411, 0.7391659708246740568 ) ) ;
#65 = CARTESIAN_POINT ( 'NONE',  ( 127.8014850818396440, -103.4681336774496998, -11.95140190390288915 ) ) ;
#66 = VECTOR ( 'NONE', #83, 1000.000000000000114 ) ;
#67 = ORIENTED_EDGE ( 'NONE', *, *, #315, .T. ) ;
#68 = CARTESIAN_POINT ( 'NONE',  ( 133.5440915116117822, -138.5019056145100365, -30.29500000000003013 ) ) ;
#69 = VECTOR ( 'NONE', #244, 1000.000000000000114 ) ;
#70 = EDGE_CURVE ( 'NONE', #275, #702, #502, .T. ) ;
#71 = PLANE ( 'NONE',  #446 ) ;
#72 = DIRECTION ( 'NONE',  ( 1.000000000000000000, 0.000000000000000000, 0.000000000000000000 ) ) ;
#73 = DIRECTION ( 'NONE',  ( 1.000000000000000000, 0.000000000000000000, 0.000000000000000000 ) ) ;
#74 = DIRECTION ( 'NONE',  ( -1.000000000000000000, 0.000000000000000000, -3.096327652284396322E-16 ) ) ;
#75 = ADVANCED_FACE ( 'NONE', ( #92 ), #161, .T. ) ;
#76 = CARTESIAN_POINT ( 'NONE',  ( 130.6784335807655282, -111.4893730099504126, -30.29500000000002302 ) ) ;
#77 = CARTESIAN_POINT ( 'NONE',  ( 129.5336981686575655, -100.2765461869254437, -2.745000000000000995 ) ) ;
#78 = LINE ( 'NONE', #688, #724 ) ;
#79 = LINE ( 'NONE', #460, #112 ) ;
#80 = AXIS2_PLACEMENT_3D ( 'NONE', #68, #295, #655 ) ;
#81 = SURFACE_STYLE_FILL_AREA ( #312 ) ;
#82 = LINE ( 'NONE', #386, #954 ) ;
#83 = DIRECTION ( 'NONE',  ( -0.9999998752738908925, 0.0004994519023304268886, 0.000000000000000000 ) ) ;
#84 = CIRCLE ( 'NONE', #216, 20.41007633280633726 ) ;
#85 = CARTESIAN_POINT ( 'NONE',  ( 129.8207660814426276, -96.53151161368403166, -11.97528093147857575 ) ) ;
#86 = CARTESIAN_POINT ( 'NONE',  ( 150.0060134222598265, -138.4942385696188865, -15.29499999999999638 ) ) ;
#87 = CARTESIAN_POINT ( 'NONE',  ( 133.5440915116117822, -138.5019056145100365, -30.29500000000003013 ) ) ;
#88 = FACE_OUTER_BOUND ( 'NONE', #426, .T. ) ;
#89 = DIRECTION ( 'NONE',  ( 2.200000000000000250E-16, -4.884981308350999151E-32, -1.000000000000000000 ) ) ;
#90 = CARTESIAN_POINT ( 'NONE',  ( 130.0163703615409645, -104.4264330681980510, -5.158702639449606941 ) ) ;
#91 = DIRECTION ( 'NONE',  ( -0.7391660097667565044, 1.245780864009086501E-05, 0.6735232808524841408 ) ) ;
#92 = FACE_OUTER_BOUND ( 'NONE', #700, .T. ) ;
#93 = PRODUCT ( 'P001-B124_REV2 Light Cover_1', 'P001-B124_REV2 Light Cover_1', '', ( #189 ) ) ;
#94 = B_SPLINE_CURVE_WITH_KNOTS ( 'NONE', 3,
 ( #600, #242, #3, #160, #314, #532, #893, #236, #239, #391 ),
 .UNSPECIFIED., .F., .F.,
 ( 4, 2, 2, 2, 4 ),
 ( 0.01648171248346049292, 0.01728189158077658369, 0.01808207067809267099, 0.01888224977540876176, 0.01968242887272485253 ),
 .UNSPECIFIED. ) ;
#95 = CARTESIAN_POINT ( 'NONE',  ( 172.4510780616563181, -100.0000000000000000, -13.24499999999999922 ) ) ;
#96 = CARTESIAN_POINT ( 'NONE',  ( 170.4500780616563134, -100.1499999284999944, 3.000000000000000000 ) ) ;
#97 = EDGE_LOOP ( 'NONE', ( #128, #198, #344 ) ) ;
#98 = AXIS2_PLACEMENT_3D ( 'NONE', #323, #525, #620 ) ;
#99 =( GEOMETRIC_REPRESENTATION_CONTEXT ( 3 ) GLOBAL_UNCERTAINTY_ASSIGNED_CONTEXT ( ( #915 ) ) GLOBAL_UNIT_ASSIGNED_CONTEXT ( ( #163, #321, #149 ) ) REPRESENTATION_CONTEXT ( 'NONE', 'WORKASPACE' ) );
#100 = CARTESIAN_POINT ( 'NONE',  ( 127.5335636901043728, -100.0000000000000000, -2.745000000000000995 ) ) ;
#101 = PRODUCT_DEFINITION_SHAPE ( 'NONE', 'NONE',  #726 ) ;
#102 = ORIENTED_EDGE ( 'NONE', *, *, #223, .F. ) ;
#103 = CARTESIAN_POINT ( 'NONE',  ( 172.4510780616563181, -100.0000000000000000, -2.745000000000000995 ) ) ;
#104 = ORIENTED_EDGE ( 'NONE', *, *, #223, .T. ) ;
#105 = EDGE_CURVE ( 'NONE', #492, #785, #240, .T. ) ;
#106 = CARTESIAN_POINT ( 'NONE',  ( 129.6911421258920143, -97.43558501306327457, -12.58393452993055561 ) ) ;
#107 = CARTESIAN_POINT ( 'NONE',  ( 127.5722506531634934, -98.62507734893291911, -13.07363811597761583 ) ) ;
#108 = ORIENTED_EDGE ( 'NONE', *, *, #848, .T. ) ;
#109 = PLANE ( 'NONE',  #30 ) ;
#110 = ORIENTED_EDGE ( 'NONE', *, *, #830, .T. ) ;
#111 = CARTESIAN_POINT ( 'NONE',  ( 129.5335639049536951, -100.0000000000000000, -13.24499999999999922 ) ) ;
#112 = VECTOR ( 'NONE', #624, 1000.000000000000114 ) ;
#113 = ADVANCED_FACE ( 'NONE', ( #88 ), #319, .T. ) ;
#114 = CARTESIAN_POINT ( 'NONE',  ( 128.0895513237737191, -104.9719977711165910, -6.300491210883753190 ) ) ;
#115 = ORIENTED_EDGE ( 'NONE', *, *, #854, .F. ) ;
#116 = FACE_OUTER_BOUND ( 'NONE', #704, .T. ) ;
#117 = CARTESIAN_POINT ( 'NONE',  ( 129.5334343377342066, -99.73312727516051268, -13.24499999999999922 ) ) ;
#118 = VECTOR ( 'NONE', #945, 1000.000000000000000 ) ;
#119 = VECTOR ( 'NONE', #896, 1000.000000000000000 ) ;
#120 = CARTESIAN_POINT ( 'NONE',  ( 127.7613579151414598, -103.2033234121401222, -3.821428905532536557 ) ) ;
#121 = EDGE_CURVE ( 'NONE', #191, #411, #614, .T. ) ;
#122 = ORIENTED_EDGE ( 'NONE', *, *, #653, .T. ) ;
#123 = DIRECTION ( 'NONE',  ( -0.000000000000000000, -0.000000000000000000, -1.000000000000000000 ) ) ;
#124 = DIRECTION ( 'NONE',  ( 0.9999999998579734983, -1.685387108405130843E-05, 4.399999469099172126E-16 ) ) ;
#125 = CARTESIAN_POINT ( 'NONE',  ( 129.8016109996670480, -96.67033257218665199, -3.926643472070045160 ) ) ;
#126 = ORIENTED_EDGE ( 'NONE', *, *, #377, .T. ) ;
#127 = DIRECTION ( 'NONE',  ( 2.200000000000000250E-16, -4.884981308350999151E-32, -1.000000000000000000 ) ) ;
#128 = ORIENTED_EDGE ( 'NONE', *, *, #936, .T. ) ;
#129 = DIRECTION ( 'NONE',  ( -0.000000000000000000, -0.000000000000000000, -1.000000000000000000 ) ) ;
#130 = LINE ( 'NONE', #137, #335 ) ;
#131 = EDGE_CURVE ( 'NONE', #348, #332, #79, .T. ) ;
#132 = CARTESIAN_POINT ( 'NONE',  ( 127.5336396562942127, -100.1716632285620250, -13.24500000000000632 ) ) ;
#133 = DIRECTION ( 'NONE',  ( -0.000000000000000000, 0.000000000000000000, -1.000000000000000000 ) ) ;
#134 =( GEOMETRIC_REPRESENTATION_CONTEXT ( 3 ) GLOBAL_UNCERTAINTY_ASSIGNED_CONTEXT ( ( #233 ) ) GLOBAL_UNIT_ASSIGNED_CONTEXT ( ( #477, #406, #634 ) ) REPRESENTATION_CONTEXT ( 'NONE', 'WORKASPACE' ) );
#135 = ORIENTED_EDGE ( 'NONE', *, *, #545, .T. ) ;
#136 = LINE ( 'NONE', #437, #521 ) ;
#137 = CARTESIAN_POINT ( 'NONE',  ( 146.5000000000000000, -108.9896396642361793, 28.88980821475410465 ) ) ;
#138 = CARTESIAN_POINT ( 'NONE',  ( 127.9975689624068877, -104.5464680891973899, -10.62590054041410426 ) ) ;
#139 = ORIENTED_EDGE ( 'NONE', *, *, #494, .T. ) ;
#140 = CARTESIAN_POINT ( 'NONE',  ( 127.5335636901043728, -100.0000000000000000, -2.745000000000000995 ) ) ;
#141 = ORIENTED_EDGE ( 'NONE', *, *, #23, .T. ) ;
#142 = LINE ( 'NONE', #444, #507 ) ;
#143 = EDGE_CURVE ( 'NONE', #436, #718, #918, .T. ) ;
#144 = ORIENTED_EDGE ( 'NONE', *, *, #909, .F. ) ;
#145 = CARTESIAN_POINT ( 'NONE',  ( 127.5335636901043728, -100.0000000000000000, -2.745000000000000995 ) ) ;
#146 = AXIS2_PLACEMENT_3D ( 'NONE', #443, #64, #516 ) ;
#147 = VERTEX_POINT ( 'NONE', #760 ) ;
#148 = VECTOR ( 'NONE', #38, 1000.000000000000000 ) ;
#149 =( NAMED_UNIT ( * ) SI_UNIT ( $, .STERADIAN. ) SOLID_ANGLE_UNIT ( ) );
#150 = CARTESIAN_POINT ( 'NONE',  ( 146.5000000000000000, -90.76723561539810703, -2.509999999999998455 ) ) ;
#151 = EDGE_CURVE ( 'NONE', #841, #811, #398, .T. ) ;
#152 = COLOUR_RGB ( '',0.7921568627450980005, 0.8196078431372548767, 0.9333333333333333481 ) ;
#153 = CARTESIAN_POINT ( 'NONE',  ( 127.5335618462745089, -99.99500007967795057, -13.24499841271229350 ) ) ;
#154 = SURFACE_STYLE_USAGE ( .BOTH. , #385 ) ;
#155 = CARTESIAN_POINT ( 'NONE',  ( 150.0400017288499726, -100.1499999284999944, -2.509999999999998455 ) ) ;
#156 = LINE ( 'NONE', #905, #908 ) ;
#157 = DIRECTION ( 'NONE',  ( -0.7391660126466579328, 0.000000000000000000, 0.6735232778071154058 ) ) ;
#158 = FILL_AREA_STYLE_COLOUR ( '', #152 ) ;
#159 = CARTESIAN_POINT ( 'NONE',  ( 129.5620222232521428, -101.1072101896285744, -2.855446575317271751 ) ) ;
#160 = CARTESIAN_POINT ( 'NONE',  ( 129.5598695845736472, -101.0640736044131671, -13.14305083657517415 ) ) ;
#161 = PLANE ( 'NONE',  #825 ) ;
#162 = EDGE_CURVE ( 'NONE', #958, #562, #196, .T. ) ;
#163 =( LENGTH_UNIT ( ) NAMED_UNIT ( * ) SI_UNIT ( .MILLI., .METRE. ) );
#164 = CARTESIAN_POINT ( 'NONE',  ( 130.1068864951262753, -104.8174745092940015, -5.889916044605409517 ) ) ;
#165 = LINE ( 'NONE', #529, #215 ) ;
#166 = VECTOR ( 'NONE', #124, 1000.000000000000114 ) ;
#167 = CIRCLE ( 'NONE', #675, 20.41007633280633726 ) ;
#168 = DIRECTION ( 'NONE',  ( -5.487948460325288726E-23, -1.098794048079020357E-19, 1.000000000000000000 ) ) ;
#169 = ADVANCED_FACE ( 'NONE', ( #842 ), #934, .F. ) ;
#170 = DIRECTION ( 'NONE',  ( -0.000000000000000000, -0.000000000000000000, 1.000000000000000000 ) ) ;
#171 = DIRECTION ( 'NONE',  ( -0.7391658786313787255, 0.0003691778502663833352, 0.6735233237051385657 ) ) ;
#172 = CARTESIAN_POINT ( 'NONE',  ( 127.5413579495147047, -99.30566049752506785, -13.21044533714819202 ) ) ;
#173 = CARTESIAN_POINT ( 'NONE',  ( 130.0905145861195820, -95.23082584466627054, -10.20705744909723123 ) ) ;
#174 = SHAPE_DEFINITION_REPRESENTATION ( #101, #481 ) ;
#175 = CARTESIAN_POINT ( 'NONE',  ( 150.1299956832199598, -99.99000039289001052, -30.29500000000002302 ) ) ;
#176 = LINE ( 'NONE', #897, #66 ) ;
#177 = CARTESIAN_POINT ( 'NONE',  ( 130.2103174264910876, -94.75363413601995433, -8.334783466742825553 ) ) ;
#178 = CARTESIAN_POINT ( 'NONE',  ( 129.6130761190929945, -98.16413790053262289, -12.92073006164080162 ) ) ;
#179 = VECTOR ( 'NONE', #540, 1000.000000000000114 ) ;
#180 = AXIS2_PLACEMENT_3D ( 'NONE', #491, #123, #423 ) ;
#181 = CARTESIAN_POINT ( 'NONE',  ( 127.5335614775396351, -99.99000039289001052, -2.745009523069814605 ) ) ;
#182 = ORIENTED_EDGE ( 'NONE', *, *, #326, .T. ) ;
#183 = ADVANCED_FACE ( 'NONE', ( #646 ), #49, .F. ) ;
#184 = CARTESIAN_POINT ( 'NONE',  ( 129.7341332461869854, -97.11385475472225437, -3.600870320376056366 ) ) ;
#185 = CARTESIAN_POINT ( 'NONE',  ( 127.5335614775396067, -99.99000039289001052, 56.34065318653826893 ) ) ;
#186 = CARTESIAN_POINT ( 'NONE',  ( 127.9952528592714316, -95.44140462667951397, -5.368267797027396426 ) ) ;
#187 = ORIENTED_EDGE ( 'NONE', *, *, #384, .T. ) ;
#188 = CARTESIAN_POINT ( 'NONE',  ( 172.4510780616563181, -100.0000000000000000, -7.995000000000000107 ) ) ;
#189 = PRODUCT_CONTEXT ( 'NONE', #230, 'mechanical' ) ;
#190 = CARTESIAN_POINT ( 'NONE',  ( 127.8798908009516282, -96.04743285062951941, -4.535370892598899140 ) ) ;
#191 = VERTEX_POINT ( 'NONE', #773 ) ;
#192 = CARTESIAN_POINT ( 'NONE',  ( 129.7017136645176549, -97.35182586381361602, -3.453360613052951056 ) ) ;
#193 = VERTEX_POINT ( 'NONE', #44 ) ;
#194 = CARTESIAN_POINT ( 'NONE',  ( 166.4309248969480848, -138.5024598849603024, -30.29500000000002302 ) ) ;
#195 = EDGE_CURVE ( 'NONE', #562, #306, #770, .T. ) ;
#196 = B_SPLINE_CURVE_WITH_KNOTS ( 'NONE', 3,
 ( #4, #85, #383, #311, #834, #173, #899, #468, #690, #252, #177, #417, #485, #788, #547, #847, #777, #717, #404, #333, #266, #32, #125, #184, #192, #699, #559, #641, #931, #637, #555, #346 ),
 .UNSPECIFIED., .F., .F.,
 ( 4, 2, 2, 2, 2, 2, 2, 2, 2, 2, 2, 2, 2, 2, 2, 4 ),
 ( 0.000000000000000000, 0.001660144425340410795, 0.002490216638010633865, 0.003320288850680857152, 0.004150361063351080439, 0.004980433276021303292, 0.005810505488691526145, 0.006640577701361749866, 0.007470649914031971851, 0.008300722126702195572, 0.009130794339372418425, 0.009960866552042641278, 0.01079093876471286413, 0.01162101097738308872, 0.01245108319005330984, 0.01328115540272353443 ),
 .UNSPECIFIED. ) ;
#197 = CARTESIAN_POINT ( 'NONE',  ( 128.0286639594370115, -95.28379927972717667, -10.32716844286492197 ) ) ;
#198 = ORIENTED_EDGE ( 'NONE', *, *, #565, .T. ) ;
#199 = DIRECTION ( 'NONE',  ( 1.000000000000000000, 0.000000000000000000, 0.000000000000000000 ) ) ;
#200 = ORIENTED_EDGE ( 'NONE', *, *, #670, .F. ) ;
#201 = VECTOR ( 'NONE', #652, 1000.000000000000000 ) ;
#202 = CIRCLE ( 'NONE', #861, 20.59643420568033179 ) ;
#203 = CARTESIAN_POINT ( 'NONE',  ( 128.0913372758187165, -104.9814615322914051, -9.688069837560918884 ) ) ;
#204 = ORIENTED_EDGE ( 'NONE', *, *, #792, .T. ) ;
#205 = FACE_OUTER_BOUND ( 'NONE', #558, .T. ) ;
#206 = CARTESIAN_POINT ( 'NONE',  ( 146.5000000000000000, -90.76723561539809282, -12.29500000000001414 ) ) ;
#207 = ORIENTED_EDGE ( 'NONE', *, *, #392, .T. ) ;
#208 = DIRECTION ( 'NONE',  ( 0.7391660097667562823, -1.245780864009086331E-05, 0.6735232808524843628 ) ) ;
#209 = ORIENTED_EDGE ( 'NONE', *, *, #902, .T. ) ;
#210 = LINE ( 'NONE', #795, #118 ) ;
#211 = ORIENTED_EDGE ( 'NONE', *, *, #708, .F. ) ;
#212 = DIRECTION ( 'NONE',  ( -0.000000000000000000, -0.000000000000000000, -1.000000000000000000 ) ) ;
#213 = EDGE_CURVE ( 'NONE', #800, #958, #659, .T. ) ;
#214 = ORIENTED_EDGE ( 'NONE', *, *, #739, .F. ) ;
#215 = VECTOR ( 'NONE', #762, 1000.000000000000114 ) ;
#216 = AXIS2_PLACEMENT_3D ( 'NONE', #594, #517, #720 ) ;
#217 = DIRECTION ( 'NONE',  ( -1.000000000000000000, 0.000000000000000000, -2.200000000000000003E-16 ) ) ;
#218 = PLANE ( 'NONE',  #219 ) ;
#219 = AXIS2_PLACEMENT_3D ( 'NONE', #865, #721, #133 ) ;
#220 = ORIENTED_EDGE ( 'NONE', *, *, #678, .F. ) ;
#221 = DIRECTION ( 'NONE',  ( 1.000000000000000000, 0.000000000000000000, 0.000000000000000000 ) ) ;
#222 = CARTESIAN_POINT ( 'NONE',  ( 169.3691338975927749, -111.4900250980258107, 3.000000000000002665 ) ) ;
#223 = EDGE_CURVE ( 'NONE', #811, #577, #274, .T. ) ;
#224 = CARTESIAN_POINT ( 'NONE',  ( 150.0400017288500010, -100.1499999284999944, -12.29499999999999638 ) ) ;
#225 = ORIENTED_EDGE ( 'NONE', *, *, #377, .F. ) ;
#226 = DIRECTION ( 'NONE',  ( -0.9997339592193676960, 0.02306535895163543473, 0.000000000000000000 ) ) ;
#227 = DIRECTION ( 'NONE',  ( 0.9999999998579734983, -1.685387108403392053E-05, 0.000000000000000000 ) ) ;
#228 = ADVANCED_FACE ( 'NONE', ( #858 ), #352, .T. ) ;
#229 = CARTESIAN_POINT ( 'NONE',  ( 150.1299956832199598, -99.99000039289001052, -12.29499999999999993 ) ) ;
#230 = APPLICATION_CONTEXT ( 'automotive_design' ) ;
#231 = DIRECTION ( 'NONE',  ( 0.000000000000000000, 0.000000000000000000, 1.000000000000000000 ) ) ;
#232 = ORIENTED_EDGE ( 'NONE', *, *, #553, .F. ) ;
#233 = UNCERTAINTY_MEASURE_WITH_UNIT (LENGTH_MEASURE( 1.000000000000000082E-05 ), #477, 'distance_accuracy_value', 'NONE');
#234 = CARTESIAN_POINT ( 'NONE',  ( 149.9875083383003584, -138.4942308429641287, -15.31186170950803671 ) ) ;
#235 = LINE ( 'NONE', #524, #589 ) ;
#236 = CARTESIAN_POINT ( 'NONE',  ( 129.6933416968474546, -102.5618308166990715, -12.58528911874921263 ) ) ;
#237 = CARTESIAN_POINT ( 'NONE',  ( 131.8550224922801419, -109.4893928397442124, -12.29499999999999993 ) ) ;
#238 = DIRECTION ( 'NONE',  ( 0.000000000000000000, 1.000000000000000000, 0.000000000000000000 ) ) ;
#239 = CARTESIAN_POINT ( 'NONE',  ( 129.7241948458450054, -102.7944255849126733, -12.44744767391779661 ) ) ;
#240 = LINE ( 'NONE', #530, #412 ) ;
#241 = CARTESIAN_POINT ( 'NONE',  ( 129.9484448235152172, -104.1064142885735180, -4.712431780556301852 ) ) ;
#242 = CARTESIAN_POINT ( 'NONE',  ( 129.5336934446039265, -100.2668159398406544, -13.24499999999999744 ) ) ;
#243 = ADVANCED_FACE ( 'NONE', ( #116 ), #109, .F. ) ;
#244 = DIRECTION ( 'NONE',  ( 0.9999998752738908925, -0.0004994519023308319466, 1.787056698288557535E-16 ) ) ;
#245 = LINE ( 'NONE', #817, #741 ) ;
#246 = DIRECTION ( 'NONE',  ( 1.000000000000000000, 0.000000000000000000, 0.000000000000000000 ) ) ;
#247 = CIRCLE ( 'NONE', #276, 22.41007633280634082 ) ;
#248 = CARTESIAN_POINT ( 'NONE',  ( 129.5385435897892421, -99.46428790823580357, -13.22455805809211427 ) ) ;
#249 = CARTESIAN_POINT ( 'NONE',  ( 168.1711336536158399, -90.77805930567706127, -2.510000000000000231 ) ) ;
#250 = CARTESIAN_POINT ( 'NONE',  ( 130.1327645132083148, -104.9226673714867815, -6.149460527516493968 ) ) ;
#251 = DIRECTION ( 'NONE',  ( 0.9997339592193676960, -0.02306535895163543820, -0.000000000000000000 ) ) ;
#252 = CARTESIAN_POINT ( 'NONE',  ( 130.2036541902102726, -94.77882443029004378, -8.610163580895877189 ) ) ;
#253 = DIRECTION ( 'NONE',  ( 0.000000000000000000, 1.000000000000000000, 1.098794048079020357E-19 ) ) ;
#254 = EDGE_CURVE ( 'NONE', #147, #273, #632, .T. ) ;
#255 = CARTESIAN_POINT ( 'NONE',  ( 128.0868168359528170, -95.01857049876323913, -6.302312584777223670 ) ) ;
#256 = ORIENTED_EDGE ( 'NONE', *, *, #898, .T. ) ;
#257 = CARTESIAN_POINT ( 'NONE',  ( 150.1299956832199598, -99.99000039289001052, -12.29499999999999993 ) ) ;
#258 = AXIS2_PLACEMENT_3D ( 'NONE', #684, #325, #13 ) ;
#259 = CARTESIAN_POINT ( 'NONE',  ( 127.9229485673506161, -104.1714057077606981, -4.788610900399477011 ) ) ;
#260 = ORIENTED_EDGE ( 'NONE', *, *, #428, .F. ) ;
#261 = DIRECTION ( 'NONE',  ( 0.000000000000000000, 0.000000000000000000, 1.000000000000000000 ) ) ;
#262 = AXIS2_PLACEMENT_3D ( 'NONE', #791, #212, #505 ) ;
#263 = AXIS2_PLACEMENT_3D ( 'NONE', #855, #556, #849 ) ;
#264 = CARTESIAN_POINT ( 'NONE',  ( 128.1414289447517376, -94.78361298152491088, -7.309828187413349276 ) ) ;
#265 = ORIENTED_EDGE ( 'NONE', *, *, #143, .T. ) ;
#266 = CARTESIAN_POINT ( 'NONE',  ( 129.9082063464848034, -96.07448758615673512, -4.498014676365385434 ) ) ;
#267 = CARTESIAN_POINT ( 'NONE',  ( 127.6853722556811306, -97.35923521281837623, -3.444441926760822170 ) ) ;
#268 = ORIENTED_EDGE ( 'NONE', *, *, #662, .T. ) ;
#269 = DIRECTION ( 'NONE',  ( -1.000000000000000000, 0.000000000000000000, 0.000000000000000000 ) ) ;
#270 = EDGE_LOOP ( 'NONE', ( #48, #573, #104, #695 ) ) ;
#271 = EDGE_CURVE ( 'NONE', #636, #18, #643, .T. ) ;
#272 = CARTESIAN_POINT ( 'NONE',  ( 127.9390637913731581, -95.72727688416593139, -4.939539210468328889 ) ) ;
#273 = VERTEX_POINT ( 'NONE', #714 ) ;
#274 = LINE ( 'NONE', #928, #892 ) ;
#275 = VERTEX_POINT ( 'NONE', #863 ) ;
#276 = AXIS2_PLACEMENT_3D ( 'NONE', #500, #574, #442 ) ;
#277 = PRESENTATION_LAYER_ASSIGNMENT (  '', '', ( #369 ) ) ;
#278 = CARTESIAN_POINT ( 'NONE',  ( 131.8550224922801419, -109.4893928397442124, 3.000000000000000000 ) ) ;
#279 = ORIENTED_EDGE ( 'NONE', *, *, #143, .F. ) ;
#280 = CARTESIAN_POINT ( 'NONE',  ( 131.7175685786137080, -90.75985250098274548, -12.29499999999999993 ) ) ;
#281 = VERTEX_POINT ( 'NONE', #496 ) ;
#282 = CARTESIAN_POINT ( 'NONE',  ( 168.1711336536158399, -90.77805930567706127, -12.29499999999999993 ) ) ;
#283 = ADVANCED_FACE ( 'NONE', ( #205 ), #668, .F. ) ;
#284 = ORIENTED_EDGE ( 'NONE', *, *, #320, .T. ) ;
#285 = DIRECTION ( 'NONE',  ( -0.000000000000000000, -0.000000000000000000, 1.000000000000000000 ) ) ;
#286 = ORIENTED_EDGE ( 'NONE', *, *, #545, .F. ) ;
#287 = CARTESIAN_POINT ( 'NONE',  ( 127.5356716030697157, -100.3436354323492736, -13.23660162789995276 ) ) ;
#288 = VECTOR ( 'NONE', #227, 1000.000000000000114 ) ;
#289 = ORIENTED_EDGE ( 'NONE', *, *, #765, .T. ) ;
#290 = CYLINDRICAL_SURFACE ( 'NONE', #418, 20.59643420568033179 ) ;
#291 = CARTESIAN_POINT ( 'NONE',  ( 150.0400017288499726, -100.1499999284999944, 3.000000000000000000 ) ) ;
#292 = CARTESIAN_POINT ( 'NONE',  ( 127.5497137548938440, -100.8608060690767161, -13.17681336283405003 ) ) ;
#293 = CARTESIAN_POINT ( 'NONE',  ( 166.4444163351911357, -111.4899758052130636, -30.29500000000002302 ) ) ;
#294 = ORIENTED_EDGE ( 'NONE', *, *, #854, .T. ) ;
#295 = DIRECTION ( 'NONE',  ( -4.399999486993189015E-16, -1.024637033194130077E-19, 1.000000000000000000 ) ) ;
#296 = ORIENTED_EDGE ( 'NONE', *, *, #121, .T. ) ;
#297 = EDGE_CURVE ( 'NONE', #490, #338, #365, .T. ) ;
#298 = CARTESIAN_POINT ( 'NONE',  ( 129.7564770086840156, -103.0120590963658032, -12.29500000000000526 ) ) ;
#299 = ORIENTED_EDGE ( 'NONE', *, *, #45, .F. ) ;
#300 = FACE_OUTER_BOUND ( 'NONE', #938, .T. ) ;
#301 = ORIENTED_EDGE ( 'NONE', *, *, #753, .T. ) ;
#302 = CARTESIAN_POINT ( 'NONE',  ( 0.000000000000000000, 0.000000000000000000, 3.000000000000000000 ) ) ;
#303 = LINE ( 'NONE', #95, #119 ) ;
#304 = CARTESIAN_POINT ( 'NONE',  ( 129.5335639049536951, -100.0000000000000000, -2.745000000000000995 ) ) ;
#305 = AXIS2_PLACEMENT_3D ( 'NONE', #291, #55, #358 ) ;
#306 = VERTEX_POINT ( 'NONE', #140 ) ;
#307 = CYLINDRICAL_SURFACE ( 'NONE', #619, 22.59643420568036021 ) ;
#308 = LINE ( 'NONE', #821, #844 ) ;
#309 = DIRECTION ( 'NONE',  ( -0.000000000000000000, -0.000000000000000000, 1.000000000000000000 ) ) ;
#310 = VECTOR ( 'NONE', #170, 1000.000000000000000 ) ;
#311 = CARTESIAN_POINT ( 'NONE',  ( 129.9980548380465279, -95.63717804515898990, -10.92847299860540566 ) ) ;
#312 = FILL_AREA_STYLE ('',( #158 ) ) ;
#313 = CARTESIAN_POINT ( 'NONE',  ( 129.7564770086840156, -103.0120590963658032, -12.29500000000000526 ) ) ;
#314 = CARTESIAN_POINT ( 'NONE',  ( 129.5754882448296428, -101.3280277828166618, -13.08124604737223251 ) ) ;
#315 = EDGE_CURVE ( 'NONE', #147, #191, #692, .T. ) ;
#316 = DIRECTION ( 'NONE',  ( 0.000000000000000000, 0.000000000000000000, 1.000000000000000000 ) ) ;
#317 = DIRECTION ( 'NONE',  ( 2.200000000000000003E-16, -4.884981308350999698E-32, -1.000000000000000000 ) ) ;
#318 = FACE_OUTER_BOUND ( 'NONE', #546, .T. ) ;
#319 = CYLINDRICAL_SURFACE ( 'NONE', #258, 22.59643420568036021 ) ;
#320 = EDGE_CURVE ( 'NONE', #796, #718, #951, .T. ) ;
#321 =( NAMED_UNIT ( * ) PLANE_ANGLE_UNIT ( ) SI_UNIT ( $, .RADIAN. ) );
#322 = CARTESIAN_POINT ( 'NONE',  ( 130.1667871667939949, -105.0587157141414565, -9.426269283589874703 ) ) ;
#323 = CARTESIAN_POINT ( 'NONE',  ( 150.0400017288500010, -100.1499999284999944, -15.29499999999999638 ) ) ;
#324 = VECTOR ( 'NONE', #585, 1000.000000000000000 ) ;
#325 = DIRECTION ( 'NONE',  ( 2.200000000000000250E-16, -4.884981308350999151E-32, -1.000000000000000000 ) ) ;
#326 = EDGE_CURVE ( 'NONE', #273, #306, #429, .T. ) ;
#327 = CARTESIAN_POINT ( 'NONE',  ( 127.8793769867390466, -96.04426977372209251, -11.46365340728095639 ) ) ;
#328 = EDGE_LOOP ( 'NONE', ( #122, #364, #207, #59, #373, #713, #778 ) ) ;
#329 = DIRECTION ( 'NONE',  ( -0.9999998915411808520, -0.0004657441640879468755, -1.752901705940200551E-15 ) ) ;
#330 = CARTESIAN_POINT ( 'NONE',  ( 129.7535205019750890, -96.98794090363419684, -12.29499999999999993 ) ) ;
#331 = CARTESIAN_POINT ( 'NONE',  ( 127.6525657816491872, -97.66895827084398718, -12.70226415053515723 ) ) ;
#332 = VERTEX_POINT ( 'NONE', #372 ) ;
#333 = CARTESIAN_POINT ( 'NONE',  ( 129.9443201821813432, -95.89383749215045327, -4.712028001712393888 ) ) ;
#334 = ORIENTED_EDGE ( 'NONE', *, *, #414, .T. ) ;
#335 = VECTOR ( 'NONE', #725, 1000.000000000000000 ) ;
#336 = CARTESIAN_POINT ( 'NONE',  ( 127.5415732140695582, -99.29972652975204994, -2.780501141944404786 ) ) ;
#337 = EDGE_CURVE ( 'NONE', #841, #281, #247, .T. ) ;
#338 = VERTEX_POINT ( 'NONE', #878 ) ;
#339 = DIRECTION ( 'NONE',  ( 0.9999999998579734983, -1.685387108403392053E-05, 0.000000000000000000 ) ) ;
#340 = AXIS2_PLACEMENT_3D ( 'NONE', #375, #884, #226 ) ;
#341 = PRODUCT_DEFINITION_FORMATION_WITH_SPECIFIED_SOURCE ( 'ANY', '', #93, .NOT_KNOWN. ) ;
#342 = CARTESIAN_POINT ( 'NONE',  ( 129.7535205019750890, -96.98794090363419684, -12.29499999999999993 ) ) ;
#343 = CARTESIAN_POINT ( 'NONE',  ( 127.8598650022040317, -96.16182067213142659, -4.408936349770157470 ) ) ;
#344 = ORIENTED_EDGE ( 'NONE', *, *, #792, .F. ) ;
#345 = EDGE_CURVE ( 'NONE', #667, #436, #828, .T. ) ;
#346 = CARTESIAN_POINT ( 'NONE',  ( 129.5335639049536951, -100.0000000000000000, -2.745000000000000995 ) ) ;
#347 = CARTESIAN_POINT ( 'NONE',  ( 127.9200887880727038, -95.82393134141362623, -11.19487531501034283 ) ) ;
#348 = VERTEX_POINT ( 'NONE', #959 ) ;
#349 = ORIENTED_EDGE ( 'NONE', *, *, #414, .F. ) ;
#350 = VECTOR ( 'NONE', #456, 1000.000000000000000 ) ;
#351 = FACE_OUTER_BOUND ( 'NONE', #728, .T. ) ;
#352 = PLANE ( 'NONE',  #920 ) ;
#353 = AXIS2_PLACEMENT_3D ( 'NONE', #451, #129, #54 ) ;
#354 = ADVANCED_FACE ( 'NONE', ( #300 ), #290, .F. ) ;
#355 = CARTESIAN_POINT ( 'NONE',  ( 127.5335636901043728, -100.0000000000000000, -13.24499999999999922 ) ) ;
#356 = EDGE_LOOP ( 'NONE', ( #933, #631, #883, #403, #214, #591, #393 ) ) ;
#357 = CARTESIAN_POINT ( 'NONE',  ( 150.1299956832199598, -99.99000039289001052, -12.29499999999999993 ) ) ;
#358 = DIRECTION ( 'NONE',  ( 1.000000000000000000, 0.000000000000000000, 0.000000000000000000 ) ) ;
#359 = CARTESIAN_POINT ( 'NONE',  ( 150.0400017288500010, -100.1499999284999944, -15.29499999999999638 ) ) ;
#360 = EDGE_LOOP ( 'NONE', ( #869, #441, #935, #144, #698 ) ) ;
#361 = CARTESIAN_POINT ( 'NONE',  ( 131.8550224922801419, -109.4893928397442124, -12.29499999999999993 ) ) ;
#362 = CARTESIAN_POINT ( 'NONE',  ( 127.5335629525568777, -99.99833334042943989, -13.24499999999999567 ) ) ;
#363 = FACE_OUTER_BOUND ( 'NONE', #887, .T. ) ;
#364 = ORIENTED_EDGE ( 'NONE', *, *, #678, .T. ) ;
#365 = LINE ( 'NONE', #150, #583 ) ;
#366 = EDGE_CURVE ( 'NONE', #689, #944, #953, .T. ) ;
#367 = VECTOR ( 'NONE', #269, 1000.000000000000000 ) ;
#368 = CARTESIAN_POINT ( 'NONE',  ( 130.5221094965188513, -88.75925517714331647, 56.34065318653827603 ) ) ;
#369 = STYLED_ITEM ( 'NONE', ( #607 ), #767 ) ;
#370 = CARTESIAN_POINT ( 'NONE',  ( 127.7615121510158644, -103.2043008844189274, -12.16772388158754659 ) ) ;
#371 = VERTEX_POINT ( 'NONE', #804 ) ;
#372 = CARTESIAN_POINT ( 'NONE',  ( 149.9938386316784431, -88.76898037051456924, -15.29499999999999638 ) ) ;
#373 = ORIENTED_EDGE ( 'NONE', *, *, #151, .F. ) ;
#374 = CARTESIAN_POINT ( 'NONE',  ( 131.7175685786137080, -90.75985250098274548, 3.000000000000000000 ) ) ;
#375 = CARTESIAN_POINT ( 'NONE',  ( 168.1876053648817901, -109.4900051844121833, 28.88980821475410465 ) ) ;
#376 = EDGE_LOOP ( 'NONE', ( #509, #669, #857, #289 ) ) ;
#377 = EDGE_CURVE ( 'NONE', #800, #796, #510, .T. ) ;
#378 = CARTESIAN_POINT ( 'NONE',  ( 168.1876053648817901, -109.4900051844121833, -12.29499999999999993 ) ) ;
#379 = B_SPLINE_CURVE_WITH_KNOTS ( 'NONE', 3,
 ( #330, #413, #106, #779, #178, #774, #691, #248, #117, #111 ),
 .UNSPECIFIED., .F., .F.,
 ( 4, 2, 2, 2, 4 ),
 ( 0.01328031490297279515, 0.01408066429809471873, 0.01488101369321664404, 0.01568136308833856934, 0.01648171248346049292 ),
 .UNSPECIFIED. ) ;
#380 = DIRECTION ( 'NONE',  ( 0.000000000000000000, 0.000000000000000000, 1.000000000000000000 ) ) ;
#381 = FACE_OUTER_BOUND ( 'NONE', #730, .T. ) ;
#382 = AXIS2_PLACEMENT_3D ( 'NONE', #188, #480, #476 ) ;
#383 = CARTESIAN_POINT ( 'NONE',  ( 129.8942172268946535, -96.13741909749423087, -11.59373390852346475 ) ) ;
#384 = EDGE_CURVE ( 'NONE', #275, #785, #943, .T. ) ;
#385 = SURFACE_SIDE_STYLE ('',( #81 ) ) ;
#386 = CARTESIAN_POINT ( 'NONE',  ( 168.1711336536158399, -90.77805930567706127, 3.000000000000000000 ) ) ;
#387 = VECTOR ( 'NONE', #513, 1000.000000000000000 ) ;
#388 = PLANE ( 'NONE',  #450 ) ;
#389 = DIRECTION ( 'NONE',  ( 1.000000000000000000, 0.000000000000000000, 0.000000000000000000 ) ) ;
#390 = CARTESIAN_POINT ( 'NONE',  ( 150.1299956832199882, -99.99000039289001052, -15.29499999999999638 ) ) ;
#391 = CARTESIAN_POINT ( 'NONE',  ( 129.7564770086840156, -103.0120590963658032, -12.29500000000000526 ) ) ;
#392 = EDGE_CURVE ( 'NONE', #57, #660, #738, .T. ) ;
#393 = ORIENTED_EDGE ( 'NONE', *, *, #466, .T. ) ;
#394 = CARTESIAN_POINT ( 'NONE',  ( 130.1847138448688668, -105.1282070656564684, -9.153012644543197851 ) ) ;
#395 = CARTESIAN_POINT ( 'NONE',  ( 169.3691338975927465, -111.4900250980258107, 56.34065318653828314 ) ) ;
#396 = ORIENTED_EDGE ( 'NONE', *, *, #948, .T. ) ;
#397 = EDGE_CURVE ( 'NONE', #338, #506, #578, .T. ) ;
#398 = LINE ( 'NONE', #7, #179 ) ;
#399 = CARTESIAN_POINT ( 'NONE',  ( 129.8974938082686492, -103.8499573203063449, -11.57493781901137986 ) ) ;
#400 = CARTESIAN_POINT ( 'NONE',  ( 128.1460053368771810, -105.2156859127383228, -8.685889839446273797 ) ) ;
#401 = ORIENTED_EDGE ( 'NONE', *, *, #948, .F. ) ;
#402 = CARTESIAN_POINT ( 'NONE',  ( 127.5335614775396635, -99.64243565811777614, -2.745671526326446621 ) ) ;
#403 = ORIENTED_EDGE ( 'NONE', *, *, #753, .F. ) ;
#404 = CARTESIAN_POINT ( 'NONE',  ( 130.0121699398191311, -95.57263315653919733, -5.160057581566429796 ) ) ;
#405 = ORIENTED_EDGE ( 'NONE', *, *, #105, .F. ) ;
#406 =( NAMED_UNIT ( * ) PLANE_ANGLE_UNIT ( ) SI_UNIT ( $, .RADIAN. ) );
#407 = ADVANCED_FACE ( 'NONE', ( #592 ), #813, .F. ) ;
#408 = CARTESIAN_POINT ( 'NONE',  ( 127.5723650016299899, -98.62376260833713104, -2.916875157542381469 ) ) ;
#409 = VERTEX_POINT ( 'NONE', #515 ) ;
#410 = CARTESIAN_POINT ( 'NONE',  ( 131.8550224922801419, -109.4893928397442124, -12.29499999999999993 ) ) ;
#411 = VERTEX_POINT ( 'NONE', #810 ) ;
#412 = VECTOR ( 'NONE', #329, 1000.000000000000114 ) ;
#413 = CARTESIAN_POINT ( 'NONE',  ( 129.7215389184021035, -97.20501586376212799, -12.44705642052246475 ) ) ;
#414 = EDGE_CURVE ( 'NONE', #877, #147, #551, .T. ) ;
#415 = CARTESIAN_POINT ( 'NONE',  ( 127.7990812227266275, -96.52747503509766602, -11.94733202692543372 ) ) ;
#416 = ORIENTED_EDGE ( 'NONE', *, *, #131, .T. ) ;
#417 = CARTESIAN_POINT ( 'NONE',  ( 130.2120382199417747, -94.74709242891377414, -7.778737121466068771 ) ) ;
#418 = AXIS2_PLACEMENT_3D ( 'NONE', #596, #519, #73 ) ;
#419 = AXIS2_PLACEMENT_3D ( 'NONE', #390, #317, #761 ) ;
#420 = LINE ( 'NONE', #185, #554 ) ;
#421 = CARTESIAN_POINT ( 'NONE',  ( 128.1223616045485301, -105.1148503540977259, -6.798878359863947729 ) ) ;
#422 = ORIENTED_EDGE ( 'NONE', *, *, #213, .T. ) ;
#423 = DIRECTION ( 'NONE',  ( 1.000000000000000000, 0.000000000000000000, 0.000000000000000000 ) ) ;
#424 = ORIENTED_EDGE ( 'NONE', *, *, #384, .F. ) ;
#425 = PLANE ( 'NONE',  #706 ) ;
#426 = EDGE_LOOP ( 'NONE', ( #952, #67, #296, #115, #424, #853, #401, #520 ) ) ;
#427 = DIRECTION ( 'NONE',  ( 0.0004994519023308320550, 0.9999998752738908925, 1.098794185127343698E-19 ) ) ;
#428 = EDGE_CURVE ( 'NONE', #431, #495, #136, .T. ) ;
#429 = B_SPLINE_CURVE_WITH_KNOTS ( 'NONE', 3,
 ( #743, #650, #432, #947, #145 ),
 .UNSPECIFIED., .F., .F.,
 ( 4, 1, 4 ),
 ( 0.03292637840298960616, 0.03293130639031137397, 0.03293623437763314177 ),
 .UNSPECIFIED. ) ;
#430 = DIRECTION ( 'NONE',  ( 2.200000000000000003E-16, -4.884981308350999698E-32, -1.000000000000000000 ) ) ;
#431 = VERTEX_POINT ( 'NONE', #58 ) ;
#432 = CARTESIAN_POINT ( 'NONE',  ( 127.5335618461626552, -99.99499965975034854, -2.745001587605918392 ) ) ;
#433 = EDGE_LOOP ( 'NONE', ( #628, #110, #567, #851, #438 ) ) ;
#434 = LINE ( 'NONE', #864, #201 ) ;
#435 = CARTESIAN_POINT ( 'NONE',  ( 129.5335639049536951, -100.0000000000000000, -2.745000000000000995 ) ) ;
#436 = VERTEX_POINT ( 'NONE', #361 ) ;
#437 = CARTESIAN_POINT ( 'NONE',  ( 170.4500780616563134, -100.1499999284999944, -12.29499999999999993 ) ) ;
#438 = ORIENTED_EDGE ( 'NONE', *, *, #823, .T. ) ;
#439 = FACE_OUTER_BOUND ( 'NONE', #97, .T. ) ;
#440 = CARTESIAN_POINT ( 'NONE',  ( 172.4510780616563181, -100.0000000000000000, -7.995000000000000107 ) ) ;
#441 = ORIENTED_EDGE ( 'NONE', *, *, #615, .F. ) ;
#442 = DIRECTION ( 'NONE',  ( -3.715593182741270656E-15, 1.000000000000000000, 0.000000000000000000 ) ) ;
#443 = CARTESIAN_POINT ( 'NONE',  ( 150.0060134222598265, -138.4942385696188865, -15.29499999999999638 ) ) ;
#444 = CARTESIAN_POINT ( 'NONE',  ( 169.3691338975927465, -111.4900250980258107, 56.34065318653828314 ) ) ;
#445 = ADVANCED_FACE ( 'NONE', ( #318 ), #679, .T. ) ;
#446 = AXIS2_PLACEMENT_3D ( 'NONE', #368, #873, #664 ) ;
#447 = ORIENTED_EDGE ( 'NONE', *, *, #902, .F. ) ;
#448 = CARTESIAN_POINT ( 'NONE',  ( 130.5113570189808456, -88.77804892253203661, -81.15558455551644101 ) ) ;
#449 = FACE_OUTER_BOUND ( 'NONE', #946, .T. ) ;
#450 = AXIS2_PLACEMENT_3D ( 'NONE', #395, #756, #543 ) ;
#451 = CARTESIAN_POINT ( 'NONE',  ( 150.1299956832199598, -99.99000039289001052, 3.000000000000002665 ) ) ;
#452 = CARTESIAN_POINT ( 'NONE',  ( 150.0400017288499726, -100.1499999284999944, 56.34065318653827603 ) ) ;
#453 = CARTESIAN_POINT ( 'NONE',  ( 130.5221094965188797, -88.75925517714331647, -15.29499999999999993 ) ) ;
#454 = CARTESIAN_POINT ( 'NONE',  ( 130.1907062550889975, -105.1513605369129749, -6.944672131242113799 ) ) ;
#455 = CARTESIAN_POINT ( 'NONE',  ( 169.3507210626279971, -88.77864820347369346, 56.34065318653828314 ) ) ;
#456 = DIRECTION ( 'NONE',  ( 2.200000000000000250E-16, -4.884981308350999151E-32, -1.000000000000000000 ) ) ;
#457 = EDGE_CURVE ( 'NONE', #944, #43, #10, .T. ) ;
#458 = LINE ( 'NONE', #904, #665 ) ;
#459 = FACE_OUTER_BOUND ( 'NONE', #683, .T. ) ;
#460 = CARTESIAN_POINT ( 'NONE',  ( 149.9690032540909215, -138.4942379458542518, -15.29499999999999638 ) ) ;
#461 = DIRECTION ( 'NONE',  ( -5.487948460325288726E-23, -1.098794048079020357E-19, 1.000000000000000000 ) ) ;
#462 = CARTESIAN_POINT ( 'NONE',  ( 168.1876053648817901, -109.4900051844121833, -2.510000000000000231 ) ) ;
#463 = ORIENTED_EDGE ( 'NONE', *, *, #195, .T. ) ;
#464 = DIRECTION ( 'NONE',  ( 1.000000000000000000, 0.000000000000000000, 0.000000000000000000 ) ) ;
#465 = CARTESIAN_POINT ( 'NONE',  ( 129.8048182376615500, -103.3292268392929572, -3.926313110049997501 ) ) ;
#466 = EDGE_CURVE ( 'NONE', #191, #636, #165, .T. ) ;
#467 = DIRECTION ( 'NONE',  ( 0.9999998915411808520, 0.0004657441640879468213, 4.399999486993158446E-16 ) ) ;
#468 = CARTESIAN_POINT ( 'NONE',  ( 130.1615810366892276, -94.94182539405579746, -9.428368610027145991 ) ) ;
#469 = DIRECTION ( 'NONE',  ( -0.000000000000000000, -0.000000000000000000, 1.000000000000000000 ) ) ;
#470 = CARTESIAN_POINT ( 'NONE',  ( 169.3691338975927749, -111.4900250980258107, -30.29500000000002302 ) ) ;
#471 = PLANE ( 'NONE',  #98 ) ;
#472 = CARTESIAN_POINT ( 'NONE',  ( 127.5971415985473527, -101.6919862457452979, -3.022122737111658797 ) ) ;
#473 = VECTOR ( 'NONE', #657, 1000.000000000000114 ) ;
#474 = ORIENTED_EDGE ( 'NONE', *, *, #955, .F. ) ;
#475 = VECTOR ( 'NONE', #758, 1000.000000000000227 ) ;
#476 = DIRECTION ( 'NONE',  ( 0.000000000000000000, 0.000000000000000000, 1.000000000000000000 ) ) ;
#477 =( LENGTH_UNIT ( ) NAMED_UNIT ( * ) SI_UNIT ( .MILLI., .METRE. ) );
#478 = CARTESIAN_POINT ( 'NONE',  ( 127.5953474162755725, -98.29040564065178387, -3.019408685470708953 ) ) ;
#479 = ORIENTED_EDGE ( 'NONE', *, *, #70, .F. ) ;
#480 = DIRECTION ( 'NONE',  ( -1.000000000000000000, 0.000000000000000000, 0.000000000000000000 ) ) ;
#481 = ADVANCED_BREP_SHAPE_REPRESENTATION ( 'P001-B124_REV2 Light Cover_1', ( #767, #263 ), #134 ) ;
#482 = PRODUCT_RELATED_PRODUCT_CATEGORY ( 'part', '', ( #93 ) ) ;
#483 = CARTESIAN_POINT ( 'NONE',  ( 127.5746143762195572, -101.3615116543398216, -2.921676459889434696 ) ) ;
#484 = ORIENTED_EDGE ( 'NONE', *, *, #28, .T. ) ;
#485 = CARTESIAN_POINT ( 'NONE',  ( 130.2069386024508049, -94.76633531218428175, -7.496819181514429609 ) ) ;
#486 = ORIENTED_EDGE ( 'NONE', *, *, #739, .T. ) ;
#487 = CLOSED_SHELL ( 'NONE', ( #807, #183, #780, #512, #283, #445, #488, #626, #75, #113, #354, #696, #638, #579, #732, #12, #39, #243, #819, #407, #228, #169, #610, #927, #1 ) ) ;
#488 = ADVANCED_FACE ( 'NONE', ( #381 ), #471, .T. ) ;
#489 = CARTESIAN_POINT ( 'NONE',  ( 127.6101684797158953, -101.8559185003571343, -3.080974392176061283 ) ) ;
#490 = VERTEX_POINT ( 'NONE', #605 ) ;
#491 = CARTESIAN_POINT ( 'NONE',  ( 150.0400017288499726, -100.1499999284999944, 3.000000000000002665 ) ) ;
#492 = VERTEX_POINT ( 'NONE', #750 ) ;
#493 = CARTESIAN_POINT ( 'NONE',  ( 128.0476887966122774, -104.7832392613878341, -10.16591185598534075 ) ) ;
#494 = EDGE_CURVE ( 'NONE', #811, #660, #156, .T. ) ;
#495 = VERTEX_POINT ( 'NONE', #96 ) ;
#496 = CARTESIAN_POINT ( 'NONE',  ( 169.3507210626280255, -88.77864820347369346, -30.29500000000002302 ) ) ;
#497 = ORIENTED_EDGE ( 'NONE', *, *, #457, .F. ) ;
#498 = DIRECTION ( 'NONE',  ( 2.200000000000000003E-16, -4.884981308350999698E-32, -1.000000000000000000 ) ) ;
#499 = ORIENTED_EDGE ( 'NONE', *, *, #366, .T. ) ;
#500 = CARTESIAN_POINT ( 'NONE',  ( 150.0400017288499726, -100.1499999284999944, -30.29500000000002302 ) ) ;
#501 = EDGE_LOOP ( 'NONE', ( #672, #37, #930, #463, #62, #809, #921 ) ) ;
#502 = CIRCLE ( 'NONE', #763, 22.59643420568034600 ) ;
#503 = LINE ( 'NONE', #278, #473 ) ;
#504 = ORIENTED_EDGE ( 'NONE', *, *, #866, .T. ) ;
#505 = DIRECTION ( 'NONE',  ( 1.000000000000000000, 0.000000000000000000, 0.000000000000000000 ) ) ;
#506 = VERTEX_POINT ( 'NONE', #462 ) ;
#507 = VECTOR ( 'NONE', #127, 1000.000000000000000 ) ;
#508 = CARTESIAN_POINT ( 'NONE',  ( 127.5436937041185530, -100.6882133180288861, -13.20257480645808812 ) ) ;
#509 = ORIENTED_EDGE ( 'NONE', *, *, #397, .F. ) ;
#510 = LINE ( 'NONE', #280, #766 ) ;
#511 = ORIENTED_EDGE ( 'NONE', *, *, #748, .F. ) ;
#512 = ADVANCED_FACE ( 'NONE', ( #759 ), #388, .T. ) ;
#513 = DIRECTION ( 'NONE',  ( 2.200000000000000250E-16, -4.884981308350999151E-32, -1.000000000000000000 ) ) ;
#514 = ORIENTED_EDGE ( 'NONE', *, *, #534, .T. ) ;
#515 = CARTESIAN_POINT ( 'NONE',  ( 168.1876053648817901, -109.4900051844121833, 3.000000000000000000 ) ) ;
#516 = DIRECTION ( 'NONE',  ( 0.7391660071920632680, 0.000000000000000000, 0.6735232837933242678 ) ) ;
#517 = DIRECTION ( 'NONE',  ( 0.000000000000000000, 0.000000000000000000, 1.000000000000000000 ) ) ;
#518 = EDGE_CURVE ( 'NONE', #636, #281, #6, .T. ) ;
#519 = DIRECTION ( 'NONE',  ( -0.000000000000000000, -0.000000000000000000, 1.000000000000000000 ) ) ;
#520 = ORIENTED_EDGE ( 'NONE', *, *, #586, .T. ) ;
#521 = VECTOR ( 'NONE', #729, 1000.000000000000000 ) ;
#522 = AXIS2_PLACEMENT_3D ( 'NONE', #874, #617, #464 ) ;
#523 = LINE ( 'NONE', #378, #310 ) ;
#524 = CARTESIAN_POINT ( 'NONE',  ( 149.9828541708477871, -88.76898018538388158, -15.29499999999999638 ) ) ;
#525 = DIRECTION ( 'NONE',  ( 2.200000000000000003E-16, -4.884981308350999698E-32, -1.000000000000000000 ) ) ;
#526 = EDGE_CURVE ( 'NONE', #57, #371, #914, .T. ) ;
#527 = PLANE ( 'NONE',  #35 ) ;
#528 = DIRECTION ( 'NONE',  ( 0.7391658906556057840, 0.0003442622372038242552, 0.6735233237051387878 ) ) ;
#529 = CARTESIAN_POINT ( 'NONE',  ( 130.5221094965188513, -88.75925517714331647, 3.000000000000002665 ) ) ;
#530 = CARTESIAN_POINT ( 'NONE',  ( 127.5209329109526237, -88.77944169525953555, -15.29500000000003546 ) ) ;
#531 = CARTESIAN_POINT ( 'NONE',  ( 129.8404231830757851, -103.5376374082792665, -4.105960343056175965 ) ) ;
#532 = CARTESIAN_POINT ( 'NONE',  ( 129.6149033709428693, -101.8363700064251987, -12.92057629580991218 ) ) ;
#533 = AXIS2_PLACEMENT_3D ( 'NONE', #452, #656, #74 ) ;
#534 = EDGE_CURVE ( 'NONE', #689, #800, #78, .T. ) ;
#535 = AXIS2_PLACEMENT_3D ( 'NONE', #747, #609, #467 ) ;
#536 = LINE ( 'NONE', #453, #910 ) ;
#537 = CARTESIAN_POINT ( 'NONE',  ( 130.2172729694781879, -105.2527550188831071, -7.776008890070027491 ) ) ;
#538 = VECTOR ( 'NONE', #676, 1000.000000000000227 ) ;
#539 = CARTESIAN_POINT ( 'NONE',  ( 127.5335614775396351, -99.99000039289001052, -13.24499047693018561 ) ) ;
#540 = DIRECTION ( 'NONE',  ( -0.9999999998579734983, 1.685387108405130843E-05, -5.302759127203387193E-23 ) ) ;
#541 = B_SPLINE_CURVE_WITH_KNOTS ( 'NONE', 3,
 ( #100, #544, #29, #856, #483, #472, #489, #919, #782, #120, #768, #566, #259, #550, #775, #925, #114, #639, #421, #845, #712, #42, #400, #860, #203, #493, #786, #138, #886, #736, #937, #65, #370, #60, #52, #731, #727, #292, #508, #287, #132, #355 ),
 .UNSPECIFIED., .F., .F.,
 ( 4, 2, 2, 2, 2, 2, 2, 2, 2, 2, 2, 2, 2, 2, 2, 2, 2, 2, 2, 2, 4 ),
 ( 0.000000000000000000, 0.001029417842075258833, 0.001544126763112886516, 0.002058835684150514198, 0.003088253526225776500, 0.004117671368301038803, 0.005147089210376301974, 0.006176507052451564277, 0.006691215973489200199, 0.007205924894526836121, 0.008235342736602107097, 0.009264760578677378941, 0.01029417842075265078, 0.01080888734179028844, 0.01132359626282792436, 0.01235301410490319274, 0.01338243194697846111, 0.01441184978905372949, 0.01544126763112899613, 0.01595597655216662858, 0.01647068547320425930 ),
 .UNSPECIFIED. ) ;
#542 = CARTESIAN_POINT ( 'NONE',  ( 129.7903126812595644, -103.2401657530268295, -12.13521610927036498 ) ) ;
#543 = DIRECTION ( 'NONE',  ( 0.9999999998579734983, -1.685387108405130843E-05, 0.000000000000000000 ) ) ;
#544 = CARTESIAN_POINT ( 'NONE',  ( 127.5337177654827485, -100.3481690600913367, -2.745000000000000995 ) ) ;
#545 = EDGE_CURVE ( 'NONE', #790, #490, #176, .T. ) ;
#546 = EDGE_LOOP ( 'NONE', ( #447, #187, #405, #871 ) ) ;
#547 = CARTESIAN_POINT ( 'NONE',  ( 130.1696565501690941, -94.91010299352272739, -6.678854029470496556 ) ) ;
#548 = CARTESIAN_POINT ( 'NONE',  ( 146.5000000000000000, -108.9896396642361793, -12.29500000000003013 ) ) ;
#549 = AXIS2_PLACEMENT_3D ( 'NONE', #257, #563, #784 ) ;
#550 = CARTESIAN_POINT ( 'NONE',  ( 127.9986549360055932, -104.5551782365623836, -5.362148338792319890 ) ) ;
#551 = CIRCLE ( 'NONE', #262, 22.59643420568036021 ) ;
#552 = ORIENTED_EDGE ( 'NONE', *, *, #428, .T. ) ;
#553 = EDGE_CURVE ( 'NONE', #790, #640, #962, .T. ) ;
#554 = VECTOR ( 'NONE', #625, 1000.000000000000000 ) ;
#555 = CARTESIAN_POINT ( 'NONE',  ( 129.5334295813080416, -99.72333034951626018, -2.745000000000000551 ) ) ;
#556 = DIRECTION ( 'NONE',  ( 0.000000000000000000, 0.000000000000000000, 1.000000000000000000 ) ) ;
#557 = CARTESIAN_POINT ( 'NONE',  ( 127.7593980181390663, -96.79038384750043633, -12.16372798351787310 ) ) ;
#558 = EDGE_LOOP ( 'NONE', ( #479, #209, #601, #220, #803 ) ) ;
#559 = CARTESIAN_POINT ( 'NONE',  ( 129.6188633067467606, -98.09904762995176952, -3.093467764423115884 ) ) ;
#560 = EDGE_LOOP ( 'NONE', ( #40, #633, #499, #299 ) ) ;
#561 = CARTESIAN_POINT ( 'NONE',  ( 127.6517842203655704, -97.65997801790381061, -3.282938993811630901 ) ) ;
#562 = VERTEX_POINT ( 'NONE', #304 ) ;
#563 = DIRECTION ( 'NONE',  ( 0.000000000000000000, 0.000000000000000000, 1.000000000000000000 ) ) ;
#564 = ORIENTED_EDGE ( 'NONE', *, *, #837, .T. ) ;
#565 = EDGE_CURVE ( 'NONE', #193, #667, #94, .T. ) ;
#566 = CARTESIAN_POINT ( 'NONE',  ( 127.8827237871464320, -103.9545343531351733, -4.525047457372229687 ) ) ;
#567 = ORIENTED_EDGE ( 'NONE', *, *, #598, .F. ) ;
#568 = VECTOR ( 'NONE', #251, 1000.000000000000000 ) ;
#569 = ORIENTED_EDGE ( 'NONE', *, *, #526, .T. ) ;
#570 = CARTESIAN_POINT ( 'NONE',  ( 130.6784335807655282, -111.4893730099504268, 56.34065318653827603 ) ) ;
#571 = DIRECTION ( 'NONE',  ( 0.000000000000000000, 0.000000000000000000, 1.000000000000000000 ) ) ;
#572 = B_SPLINE_CURVE_WITH_KNOTS ( 'NONE', 3,
 ( #956, #362, #153, #593, #793 ),
 .UNSPECIFIED., .F., .F.,
 ( 4, 1, 4 ),
 ( 0.01647068547320425930, 0.01647568272600253778, 0.01648067997880081625 ),
 .UNSPECIFIED. ) ;
#573 = ORIENTED_EDGE ( 'NONE', *, *, #151, .T. ) ;
#574 = DIRECTION ( 'NONE',  ( -5.487948460325288726E-23, -1.098794048079020357E-19, 1.000000000000000000 ) ) ;
#575 = EDGE_LOOP ( 'NONE', ( #200, #552, #960, #232 ) ) ;
#576 = DIRECTION ( 'NONE',  ( 1.000000000000000000, 0.000000000000000000, 0.000000000000000000 ) ) ;
#577 = VERTEX_POINT ( 'NONE', #822 ) ;
#578 = LINE ( 'NONE', #872, #587 ) ;
#579 = ADVANCED_FACE ( 'NONE', ( #459 ), #16, .F. ) ;
#580 = CARTESIAN_POINT ( 'NONE',  ( 133.5315106032249730, -111.4894210953427631, -30.29500000000003013 ) ) ;
#581 = CARTESIAN_POINT ( 'NONE',  ( 131.8550224922801419, -109.4893928397442124, 3.000000000000000000 ) ) ;
#582 = CYLINDRICAL_SURFACE ( 'NONE', #829, 5.249999999999999112 ) ;
#583 = VECTOR ( 'NONE', #63, 1000.000000000000000 ) ;
#584 = EDGE_LOOP ( 'NONE', ( #511, #940, #569, #504, #814 ) ) ;
#585 = DIRECTION ( 'NONE',  ( 0.000000000000000000, -1.000000000000000000, 0.000000000000000000 ) ) ;
#586 = EDGE_CURVE ( 'NONE', #806, #273, #805, .T. ) ;
#587 = VECTOR ( 'NONE', #734, 1000.000000000000000 ) ;
#588 = CARTESIAN_POINT ( 'NONE',  ( 150.1299956832199598, -99.99000039289001052, -30.29500000000002302 ) ) ;
#589 = VECTOR ( 'NONE', #528, 1000.000000000000114 ) ;
#590 = PLANE ( 'NONE',  #894 ) ;
#591 = ORIENTED_EDGE ( 'NONE', *, *, #121, .F. ) ;
#592 = FACE_OUTER_BOUND ( 'NONE', #376, .T. ) ;
#593 = CARTESIAN_POINT ( 'NONE',  ( 127.5335614775396635, -99.99166693569344488, -13.24499365117847205 ) ) ;
#594 = CARTESIAN_POINT ( 'NONE',  ( 150.0400017288499726, -100.1499999284999944, -2.509999999999998455 ) ) ;
#595 = EDGE_LOOP ( 'NONE', ( #27, #25, #722, #349, #846 ) ) ;
#596 = CARTESIAN_POINT ( 'NONE',  ( 150.1299956832199598, -99.99000039289001052, -12.29499999999999993 ) ) ;
#597 = FACE_OUTER_BOUND ( 'NONE', #356, .T. ) ;
#598 = EDGE_CURVE ( 'NONE', #306, #787, #541, .T. ) ;
#599 = CARTESIAN_POINT ( 'NONE',  ( 130.1745382683595267, -105.0890372972789493, -6.675769397831197161 ) ) ;
#600 = CARTESIAN_POINT ( 'NONE',  ( 129.5335639049536951, -100.0000000000000000, -13.24499999999999922 ) ) ;
#601 = ORIENTED_EDGE ( 'NONE', *, *, #526, .F. ) ;
#602 = VECTOR ( 'NONE', #285, 1000.000000000000000 ) ;
#603 = CARTESIAN_POINT ( 'NONE',  ( 150.1299956832199598, -99.99000039289001052, 56.34065318653827603 ) ) ;
#604 = CARTESIAN_POINT ( 'NONE',  ( 130.6784335807655282, -111.4893730099504268, 3.000000000000002665 ) ) ;
#605 = CARTESIAN_POINT ( 'NONE',  ( 146.5000000000000000, -90.76723561539810703, -2.509999999999984688 ) ) ;
#606 = DIRECTION ( 'NONE',  ( -0.000000000000000000, -0.000000000000000000, 1.000000000000000000 ) ) ;
#607 = PRESENTATION_STYLE_ASSIGNMENT (( #154 ) ) ;
#608 = DIRECTION ( 'NONE',  ( -0.9999999998579734983, 1.685387108405130843E-05, 0.000000000000000000 ) ) ;
#609 = DIRECTION ( 'NONE',  ( -0.0004657441640879468755, 0.9999998915411809630, -2.123431346121173615E-19 ) ) ;
#610 = ADVANCED_FACE ( 'NONE', ( #439 ), #666, .T. ) ;
#611 = LINE ( 'NONE', #234, #538 ) ;
#612 = CARTESIAN_POINT ( 'NONE',  ( 130.0956973975006292, -104.7709539668939414, -10.20332641122620210 ) ) ;
#613 = CARTESIAN_POINT ( 'NONE',  ( 168.1876053648817901, -109.4900051844121833, -12.29500000000003013 ) ) ;
#614 = LINE ( 'NONE', #820, #350 ) ;
#615 = EDGE_CURVE ( 'NONE', #718, #409, #503, .T. ) ;
#616 = AXIS2_PLACEMENT_3D ( 'NONE', #827, #681, #246 ) ;
#617 = DIRECTION ( 'NONE',  ( 0.000000000000000000, 0.000000000000000000, 1.000000000000000000 ) ) ;
#618 = CARTESIAN_POINT ( 'NONE',  ( 130.1222943876888678, -104.8801392607544472, -9.950345809388284835 ) ) ;
#619 = AXIS2_PLACEMENT_3D ( 'NONE', #603, #89, #8 ) ;
#620 = DIRECTION ( 'NONE',  ( -1.000000000000000000, 0.000000000000000000, -2.200000000000000003E-16 ) ) ;
#621 = DIRECTION ( 'NONE',  ( -0.6735232396991951420, 0.0003363925052887163864, -0.7391659708246742788 ) ) ;
#622 = CARTESIAN_POINT ( 'NONE',  ( 127.9194418836978002, -95.83039632329906965, -4.800281575740726225 ) ) ;
#623 = ORIENTED_EDGE ( 'NONE', *, *, #131, .F. ) ;
#624 = DIRECTION ( 'NONE',  ( 0.0004994519023308320550, 0.9999998752738908925, 1.098794185127343698E-19 ) ) ;
#625 = DIRECTION ( 'NONE',  ( 2.200000000000000250E-16, -4.884981308350999151E-32, -1.000000000000000000 ) ) ;
#626 = ADVANCED_FACE ( 'NONE', ( #363 ), #590, .T. ) ;
#627 = CARTESIAN_POINT ( 'NONE',  ( 127.7998909196714550, -96.52234601134792058, -4.047302574826463939 ) ) ;
#628 = ORIENTED_EDGE ( 'NONE', *, *, #565, .F. ) ;
#629 = CARTESIAN_POINT ( 'NONE',  ( 150.0400017288499726, -100.1499999284999944, -12.29499999999999993 ) ) ;
#630 = CARTESIAN_POINT ( 'NONE',  ( 128.1333363090375315, -94.81825024321705087, -8.855944463148366808 ) ) ;
#631 = ORIENTED_EDGE ( 'NONE', *, *, #682, .T. ) ;
#632 = LINE ( 'NONE', #711, #148 ) ;
#633 = ORIENTED_EDGE ( 'NONE', *, *, #708, .T. ) ;
#634 =( NAMED_UNIT ( * ) SI_UNIT ( $, .STERADIAN. ) SOLID_ANGLE_UNIT ( ) );
#635 = CARTESIAN_POINT ( 'NONE',  ( 127.7598418688596666, -96.78714782704130926, -3.828610873447440444 ) ) ;
#636 = VERTEX_POINT ( 'NONE', #882 ) ;
#637 = CARTESIAN_POINT ( 'NONE',  ( 129.5388680320691890, -99.44702741599482465, -2.766730421376993654 ) ) ;
#638 = ADVANCED_FACE ( 'NONE', ( #351 ), #801, .F. ) ;
#639 = CARTESIAN_POINT ( 'NONE',  ( 128.1124647531681546, -105.0723047110819977, -6.629772256978260891 ) ) ;
#640 = VERTEX_POINT ( 'NONE', #789 ) ;
#641 = CARTESIAN_POINT ( 'NONE',  ( 129.5772713181598306, -98.62333478246006280, -2.921201516771988693 ) ) ;
#642 = CIRCLE ( 'NONE', #305, 20.41007633280633726 ) ;
#643 = CIRCLE ( 'NONE', #180, 22.41007633280631239 ) ;
#644 = DIRECTION ( 'NONE',  ( -0.9999998752738908925, 0.0004994519023309256216, 0.000000000000000000 ) ) ;
#645 = ORIENTED_EDGE ( 'NONE', *, *, #162, .F. ) ;
#646 = FACE_OUTER_BOUND ( 'NONE', #575, .T. ) ;
#647 = VECTOR ( 'NONE', #208, 1000.000000000000114 ) ;
#648 = LINE ( 'NONE', #941, #166 ) ;
#649 = ORIENTED_EDGE ( 'NONE', *, *, #534, .F. ) ;
#650 = CARTESIAN_POINT ( 'NONE',  ( 127.5335614775396351, -99.99166676867999115, -2.745006349139639479 ) ) ;
#651 = ORIENTED_EDGE ( 'NONE', *, *, #345, .T. ) ;
#652 = DIRECTION ( 'NONE',  ( -0.9999998752738908925, 0.0004994519023313969243, -0.000000000000000000 ) ) ;
#653 = EDGE_CURVE ( 'NONE', #877, #764, #957, .T. ) ;
#654 = EDGE_LOOP ( 'NONE', ( #735, #256, #867, #135, #895 ) ) ;
#655 = DIRECTION ( 'NONE',  ( 1.000000000000000000, 0.000000000000000000, 4.399999486993189015E-16 ) ) ;
#656 = DIRECTION ( 'NONE',  ( 2.200000000000000250E-16, -4.884981308350999151E-32, -1.000000000000000000 ) ) ;
#657 = DIRECTION ( 'NONE',  ( 0.9999999998579734983, -1.685387108403392053E-05, 0.000000000000000000 ) ) ;
#658 = DIRECTION ( 'NONE',  ( -1.000000000000000000, 0.000000000000000000, 0.000000000000000000 ) ) ;
#659 = CIRCLE ( 'NONE', #549, 20.59643420568033179 ) ;
#660 = VERTEX_POINT ( 'NONE', #808 ) ;
#661 = DIRECTION ( 'NONE',  ( 0.000000000000000000, 0.000000000000000000, 1.000000000000000000 ) ) ;
#662 = EDGE_CURVE ( 'NONE', #18, #841, #142, .T. ) ;
#663 = CIRCLE ( 'NONE', #522, 20.41007633280633726 ) ;
#664 = DIRECTION ( 'NONE',  ( -0.9999998752738908925, 0.0004994519023308319466, 0.000000000000000000 ) ) ;
#665 = VECTOR ( 'NONE', #171, 1000.000000000000000 ) ;
#666 = CYLINDRICAL_SURFACE ( 'NONE', #876, 20.59643420568033179 ) ;
#667 = VERTEX_POINT ( 'NONE', #298 ) ;
#668 = PLANE ( 'NONE',  #80 ) ;
#669 = ORIENTED_EDGE ( 'NONE', *, *, #45, .T. ) ;
#670 = EDGE_CURVE ( 'NONE', #431, #790, #84, .T. ) ;
#671 = CARTESIAN_POINT ( 'NONE',  ( 131.7175685786137080, -90.75985250098275969, -12.29499999999999993 ) ) ;
#672 = ORIENTED_EDGE ( 'NONE', *, *, #830, .F. ) ;
#673 = CARTESIAN_POINT ( 'NONE',  ( 129.9125442070259169, -103.9279105542964174, -4.500572069252879004 ) ) ;
#674 = CARTESIAN_POINT ( 'NONE',  ( 168.1711336536158399, -90.77805930567706127, -12.29499999999999993 ) ) ;
#675 = AXIS2_PLACEMENT_3D ( 'NONE', #155, #380, #2 ) ;
#676 = DIRECTION ( 'NONE',  ( 1.685386945452232801E-05, 0.9999999031722421883, 0.0004397402109805796200 ) ) ;
#677 = DIRECTION ( 'NONE',  ( -0.9999998752738908925, 0.0004994519023309255132, 0.000000000000000000 ) ) ;
#678 = EDGE_CURVE ( 'NONE', #764, #57, #648, .T. ) ;
#679 = PLANE ( 'NONE',  #535 ) ;
#680 = CARTESIAN_POINT ( 'NONE',  ( 129.5394301129455812, -100.5541807506678680, -2.766825604976962616 ) ) ;
#681 = DIRECTION ( 'NONE',  ( -0.000000000000000000, -0.000000000000000000, 1.000000000000000000 ) ) ;
#682 = EDGE_CURVE ( 'NONE', #281, #577, #434, .T. ) ;
#683 = EDGE_LOOP ( 'NONE', ( #260, #716, #862, #737 ) ) ;
#684 = CARTESIAN_POINT ( 'NONE',  ( 150.1299956832199598, -99.99000039289001052, 56.34065318653827603 ) ) ;
#685 = CARTESIAN_POINT ( 'NONE',  ( 130.5113570189808740, -88.77804892253203661, -15.29499999999999993 ) ) ;
#686 = CARTESIAN_POINT ( 'NONE',  ( 130.0485688928130230, -104.5688327729186113, -5.393999000372732056 ) ) ;
#687 = APPLICATION_CONTEXT ( 'automotive_design' ) ;
#688 = CARTESIAN_POINT ( 'NONE',  ( 168.1711336536158399, -90.77805930567706127, -12.29499999999999993 ) ) ;
#689 = VERTEX_POINT ( 'NONE', #206 ) ;
#690 = CARTESIAN_POINT ( 'NONE',  ( 130.1794049773328936, -94.87244524463896767, -9.155725114646473983 ) ) ;
#691 = CARTESIAN_POINT ( 'NONE',  ( 129.5590682326013336, -98.93112516230000608, -13.14211292955092603 ) ) ;
#692 = CIRCLE ( 'NONE', #353, 22.59643420568036021 ) ;
#693 = CARTESIAN_POINT ( 'NONE',  ( 129.5785905970479917, -101.3763717929483477, -2.921120838681474652 ) ) ;
#694 = CARTESIAN_POINT ( 'NONE',  ( 128.1474222845528743, -94.75878516630997694, -8.343975839142780515 ) ) ;
#695 = ORIENTED_EDGE ( 'NONE', *, *, #682, .F. ) ;
#696 = ADVANCED_FACE ( 'NONE', ( #47 ), #425, .F. ) ;
#697 = CARTESIAN_POINT ( 'NONE',  ( 128.1102477948391822, -94.91710772485123471, -6.636927815426631128 ) ) ;
#698 = ORIENTED_EDGE ( 'NONE', *, *, #719, .F. ) ;
#699 = CARTESIAN_POINT ( 'NONE',  ( 129.6440861315563495, -97.84473096399246117, -3.199780509813693108 ) ) ;
#700 = EDGE_LOOP ( 'NONE', ( #139, #53, #416, #46, #102 ) ) ;
#701 = CARTESIAN_POINT ( 'NONE',  ( 127.5948495699046674, -98.29695992850530217, -12.97285009138420975 ) ) ;
#702 = VERTEX_POINT ( 'NONE', #870 ) ;
#703 = DIRECTION ( 'NONE',  ( -1.685387108403392053E-05, -0.9999999998579734983, 0.000000000000000000 ) ) ;
#704 = EDGE_LOOP ( 'NONE', ( #769, #474, #33, #923, #265 ) ) ;
#705 = LINE ( 'NONE', #41, #754 ) ;
#706 = AXIS2_PLACEMENT_3D ( 'NONE', #282, #715, #644 ) ;
#707 = CARTESIAN_POINT ( 'NONE',  ( 128.0293226414319747, -95.28074355291971642, -5.669392735620117030 ) ) ;
#708 = EDGE_CURVE ( 'NONE', #490, #689, #210, .T. ) ;
#709 = AXIS2_PLACEMENT_3D ( 'NONE', #194, #911, #253 ) ;
#710 = ORIENTED_EDGE ( 'NONE', *, *, #105, .T. ) ;
#711 = CARTESIAN_POINT ( 'NONE',  ( 127.5335614775396067, -99.99000039289001052, 56.34065318653826893 ) ) ;
#712 = CARTESIAN_POINT ( 'NONE',  ( 128.1542652362742274, -105.2498587708103770, -7.649097917539050329 ) ) ;
#713 = ORIENTED_EDGE ( 'NONE', *, *, #662, .F. ) ;
#714 = CARTESIAN_POINT ( 'NONE',  ( 127.5335614775396351, -99.99000039289001052, -2.745009523069814605 ) ) ;
#715 = DIRECTION ( 'NONE',  ( 0.0004994519023309256216, 0.9999998752738908925, 0.000000000000000000 ) ) ;
#716 = ORIENTED_EDGE ( 'NONE', *, *, #898, .F. ) ;
#717 = CARTESIAN_POINT ( 'NONE',  ( 130.0442014263800843, -95.43037963085356523, -5.395491726431579593 ) ) ;
#718 = VERTEX_POINT ( 'NONE', #581 ) ;
#719 = EDGE_CURVE ( 'NONE', #495, #640, #663, .T. ) ;
#720 = DIRECTION ( 'NONE',  ( 1.000000000000000000, 0.000000000000000000, 0.000000000000000000 ) ) ;
#721 = DIRECTION ( 'NONE',  ( 1.000000000000000000, 0.000000000000000000, -0.000000000000000000 ) ) ;
#722 = ORIENTED_EDGE ( 'NONE', *, *, #315, .F. ) ;
#723 = CARTESIAN_POINT ( 'NONE',  ( 150.1299956832199598, -99.99000039289001052, 3.000000000000000000 ) ) ;
#724 = VECTOR ( 'NONE', #838, 1000.000000000000114 ) ;
#725 = DIRECTION ( 'NONE',  ( -0.000000000000000000, -0.000000000000000000, -1.000000000000000000 ) ) ;
#726 = PRODUCT_DEFINITION ( 'UNKNOWN', '', #341, #824 ) ;
#727 = CARTESIAN_POINT ( 'NONE',  ( 127.5730564902081170, -101.3675764384608016, -13.07544702247608370 ) ) ;
#728 = EDGE_LOOP ( 'NONE', ( #497, #772, #514, #422, #204, #651, #484 ) ) ;
#729 = DIRECTION ( 'NONE',  ( -0.000000000000000000, -0.000000000000000000, 1.000000000000000000 ) ) ;
#730 = EDGE_LOOP ( 'NONE', ( #623, #108, #301 ) ) ;
#731 = CARTESIAN_POINT ( 'NONE',  ( 127.5957244828352657, -101.6949340033027340, -12.97571599659319119 ) ) ;
#732 = ADVANCED_FACE ( 'NONE', ( #757, #14 ), #527, .T. ) ;
#733 = ORIENTED_EDGE ( 'NONE', *, *, #271, .T. ) ;
#734 = DIRECTION ( 'NONE',  ( 0.9997339592193676960, -0.02306535895163543473, 0.000000000000000000 ) ) ;
#735 = ORIENTED_EDGE ( 'NONE', *, *, #397, .T. ) ;
#736 = CARTESIAN_POINT ( 'NONE',  ( 127.9233984505070936, -104.1736953589953458, -11.19800967582553675 ) ) ;
#737 = ORIENTED_EDGE ( 'NONE', *, *, #61, .T. ) ;
#738 = LINE ( 'NONE', #888, #647 ) ;
#739 = EDGE_CURVE ( 'NONE', #411, #492, #536, .T. ) ;
#740 = CYLINDRICAL_SURFACE ( 'NONE', #533, 22.41007633280631239 ) ;
#741 = VECTOR ( 'NONE', #608, 1000.000000000000114 ) ;
#742 = DIRECTION ( 'NONE',  ( 0.000000000000000000, 0.000000000000000000, 1.000000000000000000 ) ) ;
#743 = CARTESIAN_POINT ( 'NONE',  ( 127.5335614775396351, -99.99000039289001052, -2.745009523069814605 ) ) ;
#744 = FACE_OUTER_BOUND ( 'NONE', #584, .T. ) ;
#745 = CARTESIAN_POINT ( 'NONE',  ( 130.5221094965188797, -88.75925517714331647, -15.29499999999999993 ) ) ;
#746 = CARTESIAN_POINT ( 'NONE',  ( 130.2156467035274261, -105.2465978515888310, -8.330564268558902086 ) ) ;
#747 = CARTESIAN_POINT ( 'NONE',  ( 300.0209936575311644, -88.69910078994834635, 6.601436425580085645E-14 ) ) ;
#748 = EDGE_CURVE ( 'NONE', #660, #348, #611, .T. ) ;
#749 = DIRECTION ( 'NONE',  ( 0.9999998915411808520, 0.0004657441640885754959, 4.399999486993158446E-16 ) ) ;
#750 = CARTESIAN_POINT ( 'NONE',  ( 149.9828541683788501, -88.76897488430275018, -15.29499999999999638 ) ) ;
#751 = CARTESIAN_POINT ( 'NONE',  ( 149.9690032540909215, -138.4942379458542518, -15.29499999999999638 ) ) ;
#752 = AXIS2_PLACEMENT_3D ( 'NONE', #723, #661, #797 ) ;
#753 = EDGE_CURVE ( 'NONE', #492, #332, #831, .T. ) ;
#754 = VECTOR ( 'NONE', #469, 1000.000000000000000 ) ;
#755 = CARTESIAN_POINT ( 'NONE',  ( 130.2121357287406340, -105.2334492835372828, -7.494287897293355094 ) ) ;
#756 = DIRECTION ( 'NONE',  ( -1.685387108405130843E-05, -0.9999999998579734983, -3.707851638442438458E-21 ) ) ;
#757 = FACE_BOUND ( 'NONE', #360, .T. ) ;
#758 = DIRECTION ( 'NONE',  ( -0.0004657441640880107892, 0.9999998915411808520, -1.024637160994111825E-19 ) ) ;
#759 = FACE_OUTER_BOUND ( 'NONE', #328, .T. ) ;
#760 = CARTESIAN_POINT ( 'NONE',  ( 127.5335614775396067, -99.99000039289001052, 3.000000000000002665 ) ) ;
#761 = DIRECTION ( 'NONE',  ( -1.000000000000000000, 0.000000000000000000, -2.303093656530188652E-16 ) ) ;
#762 = DIRECTION ( 'NONE',  ( 0.9999998752738908925, -0.0004994519023308319466, 0.000000000000000000 ) ) ;
#763 = AXIS2_PLACEMENT_3D ( 'NONE', #588, #168, #22 ) ;
#764 = VERTEX_POINT ( 'NONE', #76 ) ;
#765 = EDGE_CURVE ( 'NONE', #43, #506, #523, .T. ) ;
#766 = VECTOR ( 'NONE', #868, 1000.000000000000000 ) ;
#767 = MANIFOLD_SOLID_BREP ( 'Cut-Extrude4', #487 ) ;
#768 = CARTESIAN_POINT ( 'NONE',  ( 127.8021368719228832, -103.4721487588477657, -4.042393822470179643 ) ) ;
#769 = ORIENTED_EDGE ( 'NONE', *, *, #615, .T. ) ;
#770 = LINE ( 'NONE', #103, #367 ) ;
#771 = CARTESIAN_POINT ( 'NONE',  ( 127.9944982194873830, -95.44512991444166516, -10.62785206126851989 ) ) ;
#772 = ORIENTED_EDGE ( 'NONE', *, *, #366, .F. ) ;
#773 = CARTESIAN_POINT ( 'NONE',  ( 130.5221094965188797, -88.75925517714330226, 3.000000000000002665 ) ) ;
#774 = CARTESIAN_POINT ( 'NONE',  ( 129.5742523412411629, -98.67122144987237675, -13.08101551837324017 ) ) ;
#775 = CARTESIAN_POINT ( 'NONE',  ( 128.0332080556226231, -104.7174552628576691, -5.665853632214138180 ) ) ;
#776 = ORIENTED_EDGE ( 'NONE', *, *, #518, .F. ) ;
#777 = CARTESIAN_POINT ( 'NONE',  ( 130.1020329857143167, -95.18271606501664905, -5.889614269968638460 ) ) ;
#778 = ORIENTED_EDGE ( 'NONE', *, *, #881, .T. ) ;
#779 = CARTESIAN_POINT ( 'NONE',  ( 129.6367218329803563, -97.91695925251720212, -12.82153971179570817 ) ) ;
#780 = ADVANCED_FACE ( 'NONE', ( #816 ), #307, .T. ) ;
#781 = VECTOR ( 'NONE', #901, 1000.000000000000000 ) ;
#782 = CARTESIAN_POINT ( 'NONE',  ( 127.6868828023474975, -102.6334989538826363, -3.440369408696417164 ) ) ;
#783 = ORIENTED_EDGE ( 'NONE', *, *, #553, .T. ) ;
#784 = DIRECTION ( 'NONE',  ( 1.000000000000000000, 0.000000000000000000, 0.000000000000000000 ) ) ;
#785 = VERTEX_POINT ( 'NONE', #685 ) ;
#786 = CARTESIAN_POINT ( 'NONE',  ( 128.0315950797099731, -104.7087291609423403, -10.32306345028067973 ) ) ;
#787 = VERTEX_POINT ( 'NONE', #912 ) ;
#788 = CARTESIAN_POINT ( 'NONE',  ( 130.1857153015047004, -94.84796185020108794, -6.948131767884627052 ) ) ;
#789 = CARTESIAN_POINT ( 'NONE',  ( 168.1711336536158399, -90.77805930567707549, 3.000000000000000000 ) ) ;
#790 = VERTEX_POINT ( 'NONE', #249 ) ;
#791 = CARTESIAN_POINT ( 'NONE',  ( 150.1299956832199598, -99.99000039289001052, 3.000000000000002665 ) ) ;
#792 = EDGE_CURVE ( 'NONE', #958, #667, #202, .T. ) ;
#793 = CARTESIAN_POINT ( 'NONE',  ( 127.5335614775396351, -99.99000039289001052, -13.24499047693018561 ) ) ;
#794 = AXIS2_PLACEMENT_3D ( 'NONE', #629, #26, #852 ) ;
#795 = CARTESIAN_POINT ( 'NONE',  ( 146.5000000000000000, -90.76723561539810703, 28.88980821475410465 ) ) ;
#796 = VERTEX_POINT ( 'NONE', #374 ) ;
#797 = DIRECTION ( 'NONE',  ( 1.000000000000000000, 0.000000000000000000, 0.000000000000000000 ) ) ;
#798 = VECTOR ( 'NONE', #309, 1000.000000000000000 ) ;
#799 = AXIS2_PLACEMENT_3D ( 'NONE', #175, #461, #238 ) ;
#800 = VERTEX_POINT ( 'NONE', #671 ) ;
#801 = PLANE ( 'NONE',  #34 ) ;
#802 = CARTESIAN_POINT ( 'NONE',  ( 127.5335614775396351, -99.99000039289001052, -13.24499047693018561 ) ) ;
#803 = ORIENTED_EDGE ( 'NONE', *, *, #837, .F. ) ;
#804 = CARTESIAN_POINT ( 'NONE',  ( 133.5209322601997428, -88.77664723027500315, -30.29500000000003013 ) ) ;
#805 = B_SPLINE_CURVE_WITH_KNOTS ( 'NONE', 3,
 ( #539, #833, #172, #107, #701, #840, #331, #916, #20, #557, #415, #327, #347, #771, #197, #929, #850, #630, #932, #694, #24, #36, #264, #697, #255, #707, #186, #272, #622, #190, #343, #627, #635, #267, #561, #478, #408, #336, #402, #181 ),
 .UNSPECIFIED., .F., .F.,
 ( 4, 2, 2, 2, 2, 2, 2, 2, 2, 2, 2, 2, 2, 2, 2, 2, 2, 2, 2, 4 ),
 ( 0.01648067997880081625, 0.01750853613031264425, 0.01853639228182447224, 0.01905032035758036715, 0.01956424843333626207, 0.02059210458484805190, 0.02161996073635984172, 0.02264781688787163155, 0.02367567303938342138, 0.02418960111513931283, 0.02470352919089520427, 0.02573138534240699063, 0.02675924149391877352, 0.02778709764543055988, 0.02830102572118645826, 0.02881495379694236011, 0.02984280994845417076, 0.03087066609996598487, 0.03189852225147779552, 0.03292637840298960616 ),
 .UNSPECIFIED. ) ;
#806 = VERTEX_POINT ( 'NONE', #802 ) ;
#807 = ADVANCED_FACE ( 'NONE', ( #961 ), #582, .F. ) ;
#808 = CARTESIAN_POINT ( 'NONE',  ( 149.9879634692080401, -111.4896984502779134, -15.29998672958641670 ) ) ;
#809 = ORIENTED_EDGE ( 'NONE', *, *, #586, .F. ) ;
#810 = CARTESIAN_POINT ( 'NONE',  ( 130.5221094965188797, -88.75925517714331647, -15.29499999999999993 ) ) ;
#811 = VERTEX_POINT ( 'NONE', #293 ) ;
#812 = CARTESIAN_POINT ( 'NONE',  ( 150.1299956832199598, -99.99000039289001052, -12.29499999999999993 ) ) ;
#813 = PLANE ( 'NONE',  #340 ) ;
#814 = ORIENTED_EDGE ( 'NONE', *, *, #848, .F. ) ;
#815 = CIRCLE ( 'NONE', #799, 22.59643420568034600 ) ;
#816 = FACE_OUTER_BOUND ( 'NONE', #942, .T. ) ;
#817 = CARTESIAN_POINT ( 'NONE',  ( 169.3691338975927465, -111.4900250980258107, 3.000000000000002665 ) ) ;
#818 = DIRECTION ( 'NONE',  ( -0.0004657441640880107892, 0.9999998915411808520, -1.024637160994111825E-19 ) ) ;
#819 = ADVANCED_FACE ( 'NONE', ( #875 ), #218, .F. ) ;
#820 = CARTESIAN_POINT ( 'NONE',  ( 130.5221094965188513, -88.75925517714331647, 56.34065318653827603 ) ) ;
#821 = CARTESIAN_POINT ( 'NONE',  ( 133.5209322601997428, -88.77664723027500315, -30.29500000000003013 ) ) ;
#822 = CARTESIAN_POINT ( 'NONE',  ( 166.4557602745356064, -88.77720230962060555, -30.29500000000002302 ) ) ;
#823 = EDGE_CURVE ( 'NONE', #562, #667, #17, .T. ) ;
#824 = PRODUCT_DEFINITION_CONTEXT ( 'detailed design', #687, 'design' ) ;
#825 = AXIS2_PLACEMENT_3D ( 'NONE', #751, #621, #157 ) ;
#826 = LINE ( 'NONE', #86, #475 ) ;
#827 = CARTESIAN_POINT ( 'NONE',  ( 150.0400017288499726, -100.1499999284999944, -12.29499999999999993 ) ) ;
#828 = CIRCLE ( 'NONE', #51, 20.59643420568033179 ) ;
#829 = AXIS2_PLACEMENT_3D ( 'NONE', #440, #658, #571 ) ;
#830 = EDGE_CURVE ( 'NONE', #193, #787, #303, .T. ) ;
#831 = LINE ( 'NONE', #745, #69 ) ;
#832 = CARTESIAN_POINT ( 'NONE',  ( 129.7030996557386118, -102.6650141369451745, -3.438459966865174966 ) ) ;
#833 = CARTESIAN_POINT ( 'NONE',  ( 127.5335614775396635, -99.64721880039876112, -13.24433758407933404 ) ) ;
#834 = CARTESIAN_POINT ( 'NONE',  ( 130.0311297871142244, -95.48820800408942944, -10.69350945294751298 ) ) ;
#835 = APPLICATION_PROTOCOL_DEFINITION ( 'draft international standard', 'automotive_design', 1998, #230 ) ;
#836 = CARTESIAN_POINT ( 'NONE',  ( 129.9332765333099644, -104.0315686866605063, -11.36916693943437551 ) ) ;
#837 = EDGE_CURVE ( 'NONE', #702, #764, #815, .T. ) ;
#838 = DIRECTION ( 'NONE',  ( -0.9999998752738908925, 0.0004994519023309255132, 0.000000000000000000 ) ) ;
#839 = APPLICATION_PROTOCOL_DEFINITION ( 'draft international standard', 'automotive_design', 1998, #687 ) ;
#840 = CARTESIAN_POINT ( 'NONE',  ( 127.6370887327894224, -97.82365205556469334, -12.77571321866358289 ) ) ;
#841 = VERTEX_POINT ( 'NONE', #470 ) ;
#842 = FACE_OUTER_BOUND ( 'NONE', #501, .T. ) ;
#843 = PLANE ( 'NONE',  #709 ) ;
#844 = VECTOR ( 'NONE', #749, 1000.000000000000114 ) ;
#845 = CARTESIAN_POINT ( 'NONE',  ( 128.1461465254904510, -105.2162838943501555, -7.307623229368692463 ) ) ;
#846 = ORIENTED_EDGE ( 'NONE', *, *, #881, .F. ) ;
#847 = CARTESIAN_POINT ( 'NONE',  ( 130.1279370692152497, -95.07694155990061802, -6.150335437632849178 ) ) ;
#848 = EDGE_CURVE ( 'NONE', #348, #492, #826, .T. ) ;
#849 = DIRECTION ( 'NONE',  ( 1.000000000000000000, 0.000000000000000000, 0.000000000000000000 ) ) ;
#850 = CARTESIAN_POINT ( 'NONE',  ( 128.1098589741293381, -94.91879187658530270, -9.359128897402841929 ) ) ;
#851 = ORIENTED_EDGE ( 'NONE', *, *, #195, .F. ) ;
#852 = DIRECTION ( 'NONE',  ( 1.000000000000000000, 0.000000000000000000, 0.000000000000000000 ) ) ;
#853 = ORIENTED_EDGE ( 'NONE', *, *, #70, .T. ) ;
#854 = EDGE_CURVE ( 'NONE', #785, #411, #19, .T. ) ;
#855 = CARTESIAN_POINT ( 'NONE',  ( 0.000000000000000000, 0.000000000000000000, 0.000000000000000000 ) ) ;
#856 = CARTESIAN_POINT ( 'NONE',  ( 127.5650748755121100, -101.1947944712231475, -2.879887881359201707 ) ) ;
#857 = ORIENTED_EDGE ( 'NONE', *, *, #457, .T. ) ;
#858 = FACE_OUTER_BOUND ( 'NONE', #654, .T. ) ;
#859 = EDGE_CURVE ( 'NONE', #577, #332, #458, .T. ) ;
#860 = CARTESIAN_POINT ( 'NONE',  ( 128.1144333807893361, -105.0810353768830510, -9.360206141741945984 ) ) ;
#861 = AXIS2_PLACEMENT_3D ( 'NONE', #812, #742, #72 ) ;
#862 = ORIENTED_EDGE ( 'NONE', *, *, #955, .T. ) ;
#863 = CARTESIAN_POINT ( 'NONE',  ( 130.5113570189808456, -88.77804892253203661, -30.29500000000002302 ) ) ;
#864 = CARTESIAN_POINT ( 'NONE',  ( 166.4557602745356064, -88.77720230962060555, -30.29500000000002302 ) ) ;
#865 = CARTESIAN_POINT ( 'NONE',  ( 146.5000000000000000, -90.76723561539810703, 28.88980821475410465 ) ) ;
#866 = EDGE_CURVE ( 'NONE', #371, #492, #235, .T. ) ;
#867 = ORIENTED_EDGE ( 'NONE', *, *, #670, .T. ) ;
#868 = DIRECTION ( 'NONE',  ( -0.000000000000000000, -0.000000000000000000, 1.000000000000000000 ) ) ;
#869 = ORIENTED_EDGE ( 'NONE', *, *, #61, .F. ) ;
#870 = CARTESIAN_POINT ( 'NONE',  ( 127.5335614775396351, -99.99000039289001052, -30.29500000000002302 ) ) ;
#871 = ORIENTED_EDGE ( 'NONE', *, *, #866, .F. ) ;
#872 = CARTESIAN_POINT ( 'NONE',  ( 168.1876053648817901, -109.4900051844121833, -2.509999999999998455 ) ) ;
#873 = DIRECTION ( 'NONE',  ( 0.0004994519023308319466, 0.9999998752738908925, 1.098794185127342253E-19 ) ) ;
#874 = CARTESIAN_POINT ( 'NONE',  ( 150.0400017288499726, -100.1499999284999944, 3.000000000000000000 ) ) ;
#875 = FACE_OUTER_BOUND ( 'NONE', #560, .T. ) ;
#876 = AXIS2_PLACEMENT_3D ( 'NONE', #229, #950, #576 ) ;
#877 = VERTEX_POINT ( 'NONE', #604 ) ;
#878 = CARTESIAN_POINT ( 'NONE',  ( 146.5000000000000000, -108.9896396642361793, -2.509999999999984688 ) ) ;
#879 = MECHANICAL_DESIGN_GEOMETRIC_PRESENTATION_REPRESENTATION (  '', ( #369 ), #99 ) ;
#880 = PLANE ( 'NONE',  #146 ) ;
#881 = EDGE_CURVE ( 'NONE', #18, #877, #245, .T. ) ;
#882 = CARTESIAN_POINT ( 'NONE',  ( 169.3507210626280255, -88.77864820347369346, 3.000000000000002665 ) ) ;
#883 = ORIENTED_EDGE ( 'NONE', *, *, #859, .T. ) ;
#884 = DIRECTION ( 'NONE',  ( 0.02306535895163543473, 0.9997339592193676960, -0.000000000000000000 ) ) ;
#885 = LINE ( 'NONE', #237, #288 ) ;
#886 = CARTESIAN_POINT ( 'NONE',  ( 127.9795631091037791, -104.4583929388285384, -10.77247338174223223 ) ) ;
#887 = EDGE_LOOP ( 'NONE', ( #486, #710, #294 ) ) ;
#888 = CARTESIAN_POINT ( 'NONE',  ( 150.0005566461627495, -111.4896986625216897, -15.28851190830565265 ) ) ;
#889 = ORIENTED_EDGE ( 'NONE', *, *, #823, .F. ) ;
#890 = VECTOR ( 'NONE', #606, 1000.000000000000000 ) ;
#891 = CARTESIAN_POINT ( 'NONE',  ( 129.8261025588816722, -103.4548703178462858, -11.95757457255167999 ) ) ;
#892 = VECTOR ( 'NONE', #427, 1000.000000000000114 ) ;
#893 = CARTESIAN_POINT ( 'NONE',  ( 129.6387780883199525, -102.0831175339034615, -12.82142234652545021 ) ) ;
#894 = AXIS2_PLACEMENT_3D ( 'NONE', #359, #498, #56 ) ;
#895 = ORIENTED_EDGE ( 'NONE', *, *, #297, .T. ) ;
#896 = DIRECTION ( 'NONE',  ( -1.000000000000000000, 0.000000000000000000, 0.000000000000000000 ) ) ;
#897 = CARTESIAN_POINT ( 'NONE',  ( 168.1711336536158399, -90.77805930567706127, -2.509999999999998455 ) ) ;
#898 = EDGE_CURVE ( 'NONE', #506, #431, #167, .T. ) ;
#899 = CARTESIAN_POINT ( 'NONE',  ( 130.1170540771827575, -95.12134322812836729, -9.954179424836137713 ) ) ;
#900 = FACE_OUTER_BOUND ( 'NONE', #270, .T. ) ;
#901 = DIRECTION ( 'NONE',  ( 2.200000000000000250E-16, -4.884981308350999151E-32, -1.000000000000000000 ) ) ;
#902 = EDGE_CURVE ( 'NONE', #275, #371, #308, .T. ) ;
#903 = DIRECTION ( 'NONE',  ( 0.9999998752738908925, -0.0004994519023308319466, 1.787056698288557535E-16 ) ) ;
#904 = CARTESIAN_POINT ( 'NONE',  ( 149.9938386316784431, -88.76898037051456924, -15.29499999999999638 ) ) ;
#905 = CARTESIAN_POINT ( 'NONE',  ( 149.9753702922533307, -111.4896982380341370, -15.28851190830565265 ) ) ;
#906 = ORIENTED_EDGE ( 'NONE', *, *, #254, .T. ) ;
#907 = CARTESIAN_POINT ( 'NONE',  ( 131.8550224922801419, -109.4893928397442124, -12.29499999999999993 ) ) ;
#908 = VECTOR ( 'NONE', #91, 1000.000000000000000 ) ;
#909 = EDGE_CURVE ( 'NONE', #640, #796, #82, .T. ) ;
#910 = VECTOR ( 'NONE', #903, 1000.000000000000114 ) ;
#911 = DIRECTION ( 'NONE',  ( 5.487948460325288726E-23, 1.098794048079020357E-19, -1.000000000000000000 ) ) ;
#912 = CARTESIAN_POINT ( 'NONE',  ( 127.5335636901043728, -100.0000000000000000, -13.24499999999999922 ) ) ;
#913 = CARTESIAN_POINT ( 'NONE',  ( 130.0024110785765004, -104.3628800706848949, -10.92822793169127138 ) ) ;
#914 = LINE ( 'NONE', #87, #924 ) ;
#915 = UNCERTAINTY_MEASURE_WITH_UNIT (LENGTH_MEASURE( 1.000000000000000082E-05 ), #163, 'distance_accuracy_value', 'NONE');
#916 = CARTESIAN_POINT ( 'NONE',  ( 127.6859378596136594, -97.36581291426757900, -12.53957365693863579 ) ) ;
#917 = ORIENTED_EDGE ( 'NONE', *, *, #345, .F. ) ;
#918 = LINE ( 'NONE', #907, #890 ) ;
#919 = CARTESIAN_POINT ( 'NONE',  ( 127.6530345963497695, -102.3323868900834981, -3.278985155638743709 ) ) ;
#920 = AXIS2_PLACEMENT_3D ( 'NONE', #922, #261, #199 ) ;
#921 = ORIENTED_EDGE ( 'NONE', *, *, #23, .F. ) ;
#922 = CARTESIAN_POINT ( 'NONE',  ( 0.000000000000000000, 0.000000000000000000, -2.510000000000000231 ) ) ;
#923 = ORIENTED_EDGE ( 'NONE', *, *, #28, .F. ) ;
#924 = VECTOR ( 'NONE', #818, 1000.000000000000227 ) ;
#925 = CARTESIAN_POINT ( 'NONE',  ( 128.0764956951758222, -104.9140719437254035, -6.139306417589572185 ) ) ;
#926 = ORIENTED_EDGE ( 'NONE', *, *, #213, .F. ) ;
#927 = ADVANCED_FACE ( 'NONE', ( #900 ), #843, .T. ) ;
#928 = CARTESIAN_POINT ( 'NONE',  ( 166.4309248969480848, -138.5024598849603024, -30.29500000000002302 ) ) ;
#929 = CARTESIAN_POINT ( 'NONE',  ( 128.0866829620598253, -95.01912952760247322, -9.689841649533843082 ) ) ;
#930 = ORIENTED_EDGE ( 'NONE', *, *, #162, .T. ) ;
#931 = CARTESIAN_POINT ( 'NONE',  ( 129.5608266043369099, -98.89517574759598517, -2.854966455681828830 ) ) ;
#932 = CARTESIAN_POINT ( 'NONE',  ( 128.1393339514628735, -94.79289133361315578, -8.686474081680932713 ) ) ;
#933 = ORIENTED_EDGE ( 'NONE', *, *, #518, .T. ) ;
#934 = CYLINDRICAL_SURFACE ( 'NONE', #382, 5.249999999999999112 ) ;
#935 = ORIENTED_EDGE ( 'NONE', *, *, #320, .F. ) ;
#936 = EDGE_CURVE ( 'NONE', #958, #193, #379, .T. ) ;
#937 = CARTESIAN_POINT ( 'NONE',  ( 127.8828134333500657, -103.9551837130139234, -11.46452288163332334 ) ) ;
#938 = EDGE_LOOP ( 'NONE', ( #645, #926, #126, #284, #279, #917, #889 ) ) ;
#939 = CARTESIAN_POINT ( 'NONE',  ( 146.5000000000000000, -90.76723561539810703, -12.29500000000003013 ) ) ;
#940 = ORIENTED_EDGE ( 'NONE', *, *, #392, .F. ) ;
#941 = CARTESIAN_POINT ( 'NONE',  ( 133.5445467765399030, -111.4894213150527520, -30.29500000000003013 ) ) ;
#942 = EDGE_LOOP ( 'NONE', ( #334, #906, #182, #31, #141, #396, #564, #963 ) ) ;
#943 = LINE ( 'NONE', #448, #602 ) ;
#944 = VERTEX_POINT ( 'NONE', #548 ) ;
#945 = DIRECTION ( 'NONE',  ( -0.000000000000000000, -0.000000000000000000, -1.000000000000000000 ) ) ;
#946 = EDGE_LOOP ( 'NONE', ( #268, #50, #776, #733 ) ) ;
#947 = CARTESIAN_POINT ( 'NONE',  ( 127.5335629525210237, -99.99833325920360494, -2.745000000000001883 ) ) ;
#948 = EDGE_CURVE ( 'NONE', #806, #702, #420, .T. ) ;
#949 = CARTESIAN_POINT ( 'NONE',  ( 168.1876053648817901, -109.4900051844121833, -12.29499999999999993 ) ) ;
#950 = DIRECTION ( 'NONE',  ( -0.000000000000000000, -0.000000000000000000, 1.000000000000000000 ) ) ;
#951 = CIRCLE ( 'NONE', #752, 20.59643420568033179 ) ;
#952 = ORIENTED_EDGE ( 'NONE', *, *, #254, .F. ) ;
#953 = LINE ( 'NONE', #939, #324 ) ;
#954 = VECTOR ( 'NONE', #677, 1000.000000000000114 ) ;
#955 = EDGE_CURVE ( 'NONE', #506, #409, #705, .T. ) ;
#956 = CARTESIAN_POINT ( 'NONE',  ( 127.5335636901043728, -100.0000000000000000, -13.24499999999999922 ) ) ;
#957 = LINE ( 'NONE', #570, #387 ) ;
#958 = VERTEX_POINT ( 'NONE', #342 ) ;
#959 = CARTESIAN_POINT ( 'NONE',  ( 149.9881545949849340, -100.1495276424997769, -15.29499999999999638 ) ) ;
#960 = ORIENTED_EDGE ( 'NONE', *, *, #719, .T. ) ;
#961 = FACE_OUTER_BOUND ( 'NONE', #433, .T. ) ;
#962 = LINE ( 'NONE', #674, #798 ) ;
#963 = ORIENTED_EDGE ( 'NONE', *, *, #653, .F. ) ;
ENDSEC;
END-ISO-10303-21;
