ISO-10303-21;
HEADER;
FILE_DESCRIPTION (( 'STEP AP214' ),
    '1' );
FILE_NAME ('P001-B109_Winding_Plate_Attachment_3.STEP',
    '2026-04-24T02:18:27',
    ( '' ),
    ( '' ),
    'SwSTEP 2.0',
    'SolidWorks 2026',
    '' );
FILE_SCHEMA (( 'AUTOMOTIVE_DESIGN' ));
ENDSEC;

DATA;
#1 = ORIENTED_EDGE ( 'NONE', *, *, #269, .F. ) ;
#2 = PRODUCT_DEFINITION_SHAPE ( 'NONE', 'NONE',  #522 ) ;
#3 = CIRCLE ( 'NONE', #51, 2.000000000000000000 ) ;
#4 = CARTESIAN_POINT ( 'NONE',  ( -13.99999999999991651, -11.50000000000006750, 0.000000000000000000 ) ) ;
#5 = VECTOR ( 'NONE', #257, 1000.000000000000000 ) ;
#6 = ORIENTED_EDGE ( 'NONE', *, *, #286, .F. ) ;
#7 = CIRCLE ( 'NONE', #394, 5.750000000000000000 ) ;
#8 = DIRECTION ( 'NONE',  ( -0.000000000000000000, -0.000000000000000000, 1.000000000000000000 ) ) ;
#9 = FACE_BOUND ( 'NONE', #167, .T. ) ;
#10 = CARTESIAN_POINT ( 'NONE',  ( 16.00000000000008527, -11.50000000000006750, 10.00000000000000000 ) ) ;
#11 = VERTEX_POINT ( 'NONE', #348 ) ;
#12 = AXIS2_PLACEMENT_3D ( 'NONE', #509, #229, #404 ) ;
#13 = PLANE ( 'NONE',  #276 ) ;
#14 = VECTOR ( 'NONE', #463, 1000.000000000000000 ) ;
#15 = ORIENTED_EDGE ( 'NONE', *, *, #666, .T. ) ;
#16 = EDGE_CURVE ( 'NONE', #29, #638, #678, .T. ) ;
#17 = VECTOR ( 'NONE', #43, 1000.000000000000000 ) ;
#18 = VERTEX_POINT ( 'NONE', #63 ) ;
#19 = EDGE_LOOP ( 'NONE', ( #127, #124, #375, #490 ) ) ;
#20 = DIRECTION ( 'NONE',  ( -1.000000000000000000, 0.000000000000000000, 0.000000000000000000 ) ) ;
#21 = VECTOR ( 'NONE', #416, 1000.000000000000000 ) ;
#22 = ORIENTED_EDGE ( 'NONE', *, *, #493, .F. ) ;
#23 = ADVANCED_FACE ( 'NONE', ( #280 ), #346, .T. ) ;
#24 = DIRECTION ( 'NONE',  ( -0.000000000000000000, 1.000000000000000000, -0.000000000000000000 ) ) ;
#25 = CARTESIAN_POINT ( 'NONE',  ( -13.99999999999991651, 11.49999999999995381, 10.00000000000000000 ) ) ;
#26 = PRODUCT_DEFINITION_CONTEXT ( 'detailed design', #411, 'design' ) ;
#27 = DIRECTION ( 'NONE',  ( -0.000000000000000000, 0.000000000000000000, -1.000000000000000000 ) ) ;
#28 = LINE ( 'NONE', #244, #341 ) ;
#29 = VERTEX_POINT ( 'NONE', #506 ) ;
#30 = LINE ( 'NONE', #246, #236 ) ;
#31 = FACE_OUTER_BOUND ( 'NONE', #83, .T. ) ;
#32 = EDGE_CURVE ( 'NONE', #249, #379, #107, .T. ) ;
#33 = DIRECTION ( 'NONE',  ( -0.000000000000000000, -1.000000000000000000, -0.000000000000000000 ) ) ;
#34 = EDGE_LOOP ( 'NONE', ( #49, #512, #427, #647 ) ) ;
#35 = DIRECTION ( 'NONE',  ( -0.000000000000000000, -0.000000000000000000, 1.000000000000000000 ) ) ;
#36 = DIRECTION ( 'NONE',  ( -0.000000000000000000, 1.000000000000000000, -0.000000000000000000 ) ) ;
#37 = ORIENTED_EDGE ( 'NONE', *, *, #247, .F. ) ;
#38 = CARTESIAN_POINT ( 'NONE',  ( -5.750000000000000000, 7.041719095097280880E-16, -18.00000000000000000 ) ) ;
#39 = VECTOR ( 'NONE', #137, 1000.000000000000000 ) ;
#40 = DIRECTION ( 'NONE',  ( -0.000000000000000000, -0.000000000000000000, 1.000000000000000000 ) ) ;
#41 = DIRECTION ( 'NONE',  ( 1.000000000000000000, 0.000000000000000000, 0.000000000000000000 ) ) ;
#42 = ORIENTED_EDGE ( 'NONE', *, *, #484, .T. ) ;
#43 = DIRECTION ( 'NONE',  ( -1.000000000000000000, -0.000000000000000000, -1.406532548089303536E-16 ) ) ;
#44 = LINE ( 'NONE', #89, #517 ) ;
#45 = CARTESIAN_POINT ( 'NONE',  ( -13.99999999999991651, -13.50000000000006750, 0.000000000000000000 ) ) ;
#46 = ORIENTED_EDGE ( 'NONE', *, *, #600, .T. ) ;
#47 = LINE ( 'NONE', #581, #315 ) ;
#48 = DIRECTION ( 'NONE',  ( 0.000000000000000000, 0.000000000000000000, -1.000000000000000000 ) ) ;
#49 = ORIENTED_EDGE ( 'NONE', *, *, #423, .F. ) ;
#50 = EDGE_CURVE ( 'NONE', #492, #661, #591, .T. ) ;
#51 = AXIS2_PLACEMENT_3D ( 'NONE', #612, #219, #440 ) ;
#52 = VECTOR ( 'NONE', #649, 1000.000000000000000 ) ;
#53 = CARTESIAN_POINT ( 'NONE',  ( 16.00000000000008527, -11.50000000000006750, 0.000000000000000000 ) ) ;
#54 = ORIENTED_EDGE ( 'NONE', *, *, #611, .T. ) ;
#55 = ADVANCED_BREP_SHAPE_REPRESENTATION ( 'P001-B109_Winding_Plate_Attachment_3', ( #330, #673 ), #266 ) ;
#56 = SURFACE_SIDE_STYLE ('',( #318 ) ) ;
#57 = ORIENTED_EDGE ( 'NONE', *, *, #32, .T. ) ;
#58 = CARTESIAN_POINT ( 'NONE',  ( -9.249999999999925393, -32.73050961363225042, 8.250000000000000000 ) ) ;
#59 = EDGE_CURVE ( 'NONE', #259, #688, #454, .T. ) ;
#60 = ORIENTED_EDGE ( 'NONE', *, *, #654, .F. ) ;
#61 = DIRECTION ( 'NONE',  ( 0.000000000000000000, 0.000000000000000000, 1.000000000000000000 ) ) ;
#62 = DIRECTION ( 'NONE',  ( -0.000000000000000000, 1.000000000000000000, -0.000000000000000000 ) ) ;
#63 = CARTESIAN_POINT ( 'NONE',  ( -7.750000000000000000, -12.50000000000006750, 10.00000000000000000 ) ) ;
#64 = FACE_OUTER_BOUND ( 'NONE', #607, .T. ) ;
#65 = EDGE_CURVE ( 'NONE', #159, #120, #116, .T. ) ;
#66 = ORIENTED_EDGE ( 'NONE', *, *, #398, .T. ) ;
#67 = CARTESIAN_POINT ( 'NONE',  ( -13.99999999999991651, -11.50000000000006750, 10.00000000000000000 ) ) ;
#68 = ADVANCED_FACE ( 'NONE', ( #9, #223 ), #391, .T. ) ;
#69 = LINE ( 'NONE', #637, #698 ) ;
#70 = ADVANCED_FACE ( 'NONE', ( #344 ), #324, .F. ) ;
#71 = AXIS2_PLACEMENT_3D ( 'NONE', #685, #349, #456 ) ;
#72 = DIRECTION ( 'NONE',  ( -1.000000000000000000, 0.000000000000000000, -0.000000000000000000 ) ) ;
#73 = VECTOR ( 'NONE', #238, 1000.000000000000000 ) ;
#74 = ORIENTED_EDGE ( 'NONE', *, *, #618, .F. ) ;
#75 = UNCERTAINTY_MEASURE_WITH_UNIT (LENGTH_MEASURE( 1.000000000000000082E-05 ), #163, 'distance_accuracy_value', 'NONE');
#76 = CARTESIAN_POINT ( 'NONE',  ( -9.249999999999925393, -12.50000000000006750, 8.250000000000000000 ) ) ;
#77 = ORIENTED_EDGE ( 'NONE', *, *, #676, .T. ) ;
#78 = PLANE ( 'NONE',  #450 ) ;
#79 = DIRECTION ( 'NONE',  ( 0.000000000000000000, 0.000000000000000000, -1.000000000000000000 ) ) ;
#80 = AXIS2_PLACEMENT_3D ( 'NONE', #553, #619, #504 ) ;
#81 = CARTESIAN_POINT ( 'NONE',  ( 7.750000000000001776, -32.73050961363225042, 8.249999999999998224 ) ) ;
#82 = VECTOR ( 'NONE', #165, 1000.000000000000000 ) ;
#83 = EDGE_LOOP ( 'NONE', ( #200, #363, #54, #6 ) ) ;
#84 = LINE ( 'NONE', #147, #183 ) ;
#85 = CARTESIAN_POINT ( 'NONE',  ( -13.99999999999991651, 13.49999999999995737, 10.00000000000000000 ) ) ;
#86 = CARTESIAN_POINT ( 'NONE',  ( -15.99999999999991651, 13.49999999999995737, 0.000000000000000000 ) ) ;
#87 = ORIENTED_EDGE ( 'NONE', *, *, #536, .T. ) ;
#88 = ORIENTED_EDGE ( 'NONE', *, *, #676, .F. ) ;
#89 = CARTESIAN_POINT ( 'NONE',  ( -15.99999999999991651, 11.49999999999995381, 10.00000000000000000 ) ) ;
#90 = CYLINDRICAL_SURFACE ( 'NONE', #400, 5.750000000000000000 ) ;
#91 = CARTESIAN_POINT ( 'NONE',  ( -15.99999999999991651, -13.50000000000006750, 10.00000000000000000 ) ) ;
#92 = EDGE_LOOP ( 'NONE', ( #479, #113, #620, #370 ) ) ;
#93 = CARTESIAN_POINT ( 'NONE',  ( -15.99999999999991651, -11.50000000000006750, 0.000000000000000000 ) ) ;
#94 = DIRECTION ( 'NONE',  ( 1.000000000000000000, -0.000000000000000000, 1.406532548089303782E-16 ) ) ;
#95 = ORIENTED_EDGE ( 'NONE', *, *, #307, .F. ) ;
#96 = CARTESIAN_POINT ( 'NONE',  ( 14.00000000000008171, 13.49999999999995737, 0.000000000000000000 ) ) ;
#97 = AXIS2_PLACEMENT_3D ( 'NONE', #420, #262, #478 ) ;
#98 = PLANE ( 'NONE',  #715 ) ;
#99 = LINE ( 'NONE', #551, #439 ) ;
#100 = ORIENTED_EDGE ( 'NONE', *, *, #720, .F. ) ;
#101 = CARTESIAN_POINT ( 'NONE',  ( -7.750000000000000000, -32.73050961363225042, 10.00000000000000000 ) ) ;
#102 =( NAMED_UNIT ( * ) PLANE_ANGLE_UNIT ( ) SI_UNIT ( $, .RADIAN. ) );
#103 = EDGE_CURVE ( 'NONE', #583, #214, #69, .T. ) ;
#104 = ORIENTED_EDGE ( 'NONE', *, *, #321, .F. ) ;
#105 = DIRECTION ( 'NONE',  ( -0.000000000000000000, -0.000000000000000000, -1.000000000000000000 ) ) ;
#106 = ORIENTED_EDGE ( 'NONE', *, *, #242, .F. ) ;
#107 = CIRCLE ( 'NONE', #424, 2.000000000000000000 ) ;
#108 = VECTOR ( 'NONE', #62, 1000.000000000000000 ) ;
#109 = DIRECTION ( 'NONE',  ( -1.000000000000000000, 0.000000000000000000, 0.000000000000000000 ) ) ;
#110 = ADVANCED_FACE ( 'NONE', ( #191 ), #529, .F. ) ;
#111 = ORIENTED_EDGE ( 'NONE', *, *, #690, .T. ) ;
#112 = CARTESIAN_POINT ( 'NONE',  ( 7.750000000000001776, 13.49999999999995737, 8.249999999999998224 ) ) ;
#113 = ORIENTED_EDGE ( 'NONE', *, *, #297, .T. ) ;
#114 = DIRECTION ( 'NONE',  ( 1.000000000000000000, 0.000000000000000000, 0.000000000000000000 ) ) ;
#115 = LINE ( 'NONE', #337, #313 ) ;
#116 = LINE ( 'NONE', #338, #172 ) ;
#117 = CIRCLE ( 'NONE', #412, 5.750000000000000000 ) ;
#118 = CARTESIAN_POINT ( 'NONE',  ( 0.000000000000000000, 0.000000000000000000, 10.00000000000000000 ) ) ;
#119 = PRODUCT_RELATED_PRODUCT_CATEGORY ( 'part', '', ( #332 ) ) ;
#120 = VERTEX_POINT ( 'NONE', #524 ) ;
#121 = EDGE_CURVE ( 'NONE', #334, #314, #202, .T. ) ;
#122 = CARTESIAN_POINT ( 'NONE',  ( 14.00000000000008171, -13.50000000000006750, 0.000000000000000000 ) ) ;
#123 = DIRECTION ( 'NONE',  ( 0.000000000000000000, 0.000000000000000000, -1.000000000000000000 ) ) ;
#124 = ORIENTED_EDGE ( 'NONE', *, *, #103, .T. ) ;
#125 = AXIS2_PLACEMENT_3D ( 'NONE', #287, #669, #72 ) ;
#126 = AXIS2_PLACEMENT_3D ( 'NONE', #67, #670, #624 ) ;
#127 = ORIENTED_EDGE ( 'NONE', *, *, #658, .F. ) ;
#128 = CARTESIAN_POINT ( 'NONE',  ( 16.00000000000008527, -13.50000000000006750, 10.00000000000000000 ) ) ;
#129 = LINE ( 'NONE', #91, #458 ) ;
#130 = DIRECTION ( 'NONE',  ( -1.000000000000000000, 0.000000000000000000, -0.000000000000000000 ) ) ;
#131 = CARTESIAN_POINT ( 'NONE',  ( -15.99999999999991651, 11.49999999999995381, 0.000000000000000000 ) ) ;
#132 = ORIENTED_EDGE ( 'NONE', *, *, #666, .F. ) ;
#133 = DIRECTION ( 'NONE',  ( -1.000000000000000000, 0.000000000000000000, 0.000000000000000000 ) ) ;
#134 = ORIENTED_EDGE ( 'NONE', *, *, #180, .F. ) ;
#135 = FACE_OUTER_BOUND ( 'NONE', #464, .T. ) ;
#136 = EDGE_CURVE ( 'NONE', #397, #677, #695, .T. ) ;
#137 = DIRECTION ( 'NONE',  ( -0.000000000000000000, 1.000000000000000000, -0.000000000000000000 ) ) ;
#138 = VECTOR ( 'NONE', #491, 1000.000000000000000 ) ;
#139 = ORIENTED_EDGE ( 'NONE', *, *, #423, .T. ) ;
#140 = CARTESIAN_POINT ( 'NONE',  ( 9.249999999999928946, -32.73050961363225042, 8.249999999999998224 ) ) ;
#141 = LINE ( 'NONE', #679, #151 ) ;
#142 = ORIENTED_EDGE ( 'NONE', *, *, #382, .T. ) ;
#143 = ADVANCED_FACE ( 'NONE', ( #145 ), #90, .T. ) ;
#144 = PLANE ( 'NONE',  #265 ) ;
#145 = FACE_OUTER_BOUND ( 'NONE', #570, .T. ) ;
#146 = ORIENTED_EDGE ( 'NONE', *, *, #588, .T. ) ;
#147 = CARTESIAN_POINT ( 'NONE',  ( -15.99999999999991651, 13.49999999999995737, 10.00000000000000000 ) ) ;
#148 = DIRECTION ( 'NONE',  ( 1.000000000000000000, 0.000000000000000000, 0.000000000000000000 ) ) ;
#149 = CARTESIAN_POINT ( 'NONE',  ( -15.99999999999991651, 13.49999999999995737, 10.00000000000000000 ) ) ;
#150 = ORIENTED_EDGE ( 'NONE', *, *, #230, .F. ) ;
#151 = VECTOR ( 'NONE', #408, 1000.000000000000000 ) ;
#152 = VECTOR ( 'NONE', #213, 1000.000000000000000 ) ;
#153 = VERTEX_POINT ( 'NONE', #586 ) ;
#154 = DIRECTION ( 'NONE',  ( -0.000000000000000000, -0.000000000000000000, 1.000000000000000000 ) ) ;
#155 =( LENGTH_UNIT ( ) NAMED_UNIT ( * ) SI_UNIT ( .MILLI., .METRE. ) );
#156 = EDGE_LOOP ( 'NONE', ( #718, #209, #712, #722 ) ) ;
#157 = CARTESIAN_POINT ( 'NONE',  ( -7.750000000000000000, 0.000000000000000000, 8.673617379884035472E-16 ) ) ;
#158 = DIRECTION ( 'NONE',  ( -1.000000000000000000, 0.000000000000000000, 0.000000000000000000 ) ) ;
#159 = VERTEX_POINT ( 'NONE', #401 ) ;
#160 = EDGE_CURVE ( 'NONE', #677, #385, #305, .T. ) ;
#161 = CARTESIAN_POINT ( 'NONE',  ( 7.750000000000001776, -12.50000000000007283, 8.249999999999998224 ) ) ;
#162 = ORIENTED_EDGE ( 'NONE', *, *, #455, .T. ) ;
#163 =( LENGTH_UNIT ( ) NAMED_UNIT ( * ) SI_UNIT ( .MILLI., .METRE. ) );
#164 = ADVANCED_FACE ( 'NONE', ( #31 ), #714, .F. ) ;
#165 = DIRECTION ( 'NONE',  ( 0.000000000000000000, 1.000000000000000000, 0.000000000000000000 ) ) ;
#166 = VECTOR ( 'NONE', #664, 1000.000000000000000 ) ;
#167 = EDGE_LOOP ( 'NONE', ( #142, #342 ) ) ;
#168 = FACE_OUTER_BOUND ( 'NONE', #92, .T. ) ;
#169 = CARTESIAN_POINT ( 'NONE',  ( 9.249999999999928946, -32.73050961363225042, 8.249999999999998224 ) ) ;
#170 = PLANE ( 'NONE',  #218 ) ;
#171 = ORIENTED_EDGE ( 'NONE', *, *, #32, .F. ) ;
#172 = VECTOR ( 'NONE', #279, 1000.000000000000000 ) ;
#173 = CIRCLE ( 'NONE', #447, 7.750000000000000000 ) ;
#174 = CARTESIAN_POINT ( 'NONE',  ( -9.249999999999925393, -12.50000000000006750, 8.250000000000000000 ) ) ;
#175 = ADVANCED_FACE ( 'NONE', ( #311 ), #413, .F. ) ;
#176 = ORIENTED_EDGE ( 'NONE', *, *, #674, .T. ) ;
#177 = ORIENTED_EDGE ( 'NONE', *, *, #561, .F. ) ;
#178 = EDGE_CURVE ( 'NONE', #397, #120, #141, .T. ) ;
#179 = VERTEX_POINT ( 'NONE', #366 ) ;
#180 = EDGE_CURVE ( 'NONE', #11, #466, #582, .T. ) ;
#181 = CLOSED_SHELL ( 'NONE', ( #70, #143, #393, #195, #175, #354, #283, #68, #270, #481, #495, #352, #580, #568, #452, #110, #630, #507, #222, #528, #518, #23, #164 ) ) ;
#182 = DIRECTION ( 'NONE',  ( 1.000000000000000000, 0.000000000000000000, 0.000000000000000000 ) ) ;
#183 = VECTOR ( 'NONE', #589, 1000.000000000000000 ) ;
#184 = CARTESIAN_POINT ( 'NONE',  ( 0.000000000000000000, 0.000000000000000000, -18.00000000000000000 ) ) ;
#185 = DIRECTION ( 'NONE',  ( 1.000000000000000000, 0.000000000000000000, 0.000000000000000000 ) ) ;
#186 = DIRECTION ( 'NONE',  ( 0.000000000000000000, 0.000000000000000000, 1.000000000000000000 ) ) ;
#187 = ORIENTED_EDGE ( 'NONE', *, *, #613, .F. ) ;
#188 = EDGE_CURVE ( 'NONE', #602, #699, #474, .T. ) ;
#189 = CARTESIAN_POINT ( 'NONE',  ( 9.249999999999928946, 13.49999999999995737, 8.249999999999998224 ) ) ;
#190 = DIRECTION ( 'NONE',  ( -1.000000000000000000, 0.000000000000000000, 0.000000000000000000 ) ) ;
#191 = FACE_OUTER_BOUND ( 'NONE', #331, .T. ) ;
#192 = ORIENTED_EDGE ( 'NONE', *, *, #136, .F. ) ;
#193 = ORIENTED_EDGE ( 'NONE', *, *, #577, .F. ) ;
#194 = DIRECTION ( 'NONE',  ( 1.000000000000000000, 0.000000000000000000, -0.000000000000000000 ) ) ;
#195 = ADVANCED_FACE ( 'NONE', ( #288 ), #513, .T. ) ;
#196 = CARTESIAN_POINT ( 'NONE',  ( -9.249999999999998224, -12.50000000000006750, 4.750000000000000888 ) ) ;
#197 = VECTOR ( 'NONE', #683, 1000.000000000000000 ) ;
#198 = EDGE_LOOP ( 'NONE', ( #599, #57, #187, #563, #657, #66, #289, #272 ) ) ;
#199 = CARTESIAN_POINT ( 'NONE',  ( -7.750000000000000000, 0.000000000000000000, -1.999999999999998224 ) ) ;
#200 = ORIENTED_EDGE ( 'NONE', *, *, #50, .F. ) ;
#201 = CARTESIAN_POINT ( 'NONE',  ( 7.750000000000001776, -12.50000000000006750, 8.249999999999998224 ) ) ;
#202 = LINE ( 'NONE', #128, #374 ) ;
#203 = ORIENTED_EDGE ( 'NONE', *, *, #470, .F. ) ;
#204 = LINE ( 'NONE', #634, #475 ) ;
#205 = DIRECTION ( 'NONE',  ( -1.000000000000000000, 0.000000000000000000, 1.119176436114069332E-16 ) ) ;
#206 = CARTESIAN_POINT ( 'NONE',  ( -7.750000000000000000, -32.73050961363225042, 10.00000000000000000 ) ) ;
#207 = VERTEX_POINT ( 'NONE', #131 ) ;
#208 = LINE ( 'NONE', #85, #52 ) ;
#209 = ORIENTED_EDGE ( 'NONE', *, *, #682, .T. ) ;
#210 = CIRCLE ( 'NONE', #264, 7.750000000000000000 ) ;
#211 = CARTESIAN_POINT ( 'NONE',  ( -15.99999999999991651, 11.49999999999995381, 10.00000000000000000 ) ) ;
#212 = ORIENTED_EDGE ( 'NONE', *, *, #160, .T. ) ;
#213 = DIRECTION ( 'NONE',  ( -2.032104643287119632E-14, 0.000000000000000000, 1.000000000000000000 ) ) ;
#214 = VERTEX_POINT ( 'NONE', #361 ) ;
#215 = LINE ( 'NONE', #435, #166 ) ;
#216 = FILL_AREA_STYLE ('',( #716 ) ) ;
#217 = VERTEX_POINT ( 'NONE', #355 ) ;
#218 = AXIS2_PLACEMENT_3D ( 'NONE', #343, #228, #451 ) ;
#219 = DIRECTION ( 'NONE',  ( -0.000000000000000000, -0.000000000000000000, 1.000000000000000000 ) ) ;
#220 = ORIENTED_EDGE ( 'NONE', *, *, #600, .F. ) ;
#221 = CYLINDRICAL_SURFACE ( 'NONE', #555, 2.000000000000000000 ) ;
#222 = ADVANCED_FACE ( 'NONE', ( #578 ), #569, .F. ) ;
#223 = FACE_OUTER_BOUND ( 'NONE', #198, .T. ) ;
#224 = EDGE_CURVE ( 'NONE', #379, #584, #241, .T. ) ;
#225 = DIRECTION ( 'NONE',  ( 0.000000000000000000, 0.000000000000000000, -1.000000000000000000 ) ) ;
#226 = ORIENTED_EDGE ( 'NONE', *, *, #65, .T. ) ;
#227 =( GEOMETRIC_REPRESENTATION_CONTEXT ( 3 ) GLOBAL_UNCERTAINTY_ASSIGNED_CONTEXT ( ( #235 ) ) GLOBAL_UNIT_ASSIGNED_CONTEXT ( ( #155, #102, #488 ) ) REPRESENTATION_CONTEXT ( 'NONE', 'WORKASPACE' ) );
#228 = DIRECTION ( 'NONE',  ( -1.000000000000000000, 0.000000000000000000, 0.000000000000000000 ) ) ;
#229 = DIRECTION ( 'NONE',  ( 0.000000000000000000, 0.000000000000000000, -1.000000000000000000 ) ) ;
#230 = EDGE_CURVE ( 'NONE', #677, #159, #691, .T. ) ;
#231 = EDGE_CURVE ( 'NONE', #249, #274, #267, .T. ) ;
#232 = VERTEX_POINT ( 'NONE', #271 ) ;
#233 = ORIENTED_EDGE ( 'NONE', *, *, #611, .F. ) ;
#234 = AXIS2_PLACEMENT_3D ( 'NONE', #149, #707, #593 ) ;
#235 = UNCERTAINTY_MEASURE_WITH_UNIT (LENGTH_MEASURE( 1.000000000000000082E-05 ), #155, 'distance_accuracy_value', 'NONE');
#236 = VECTOR ( 'NONE', #154, 1000.000000000000000 ) ;
#237 = AXIS2_PLACEMENT_3D ( 'NONE', #199, #33, #371 ) ;
#238 = DIRECTION ( 'NONE',  ( 1.000000000000000000, 0.000000000000000000, 0.000000000000000000 ) ) ;
#239 = VERTEX_POINT ( 'NONE', #161 ) ;
#240 = FACE_OUTER_BOUND ( 'NONE', #538, .T. ) ;
#241 = LINE ( 'NONE', #300, #14 ) ;
#242 = EDGE_CURVE ( 'NONE', #325, #153, #482, .T. ) ;
#243 = ORIENTED_EDGE ( 'NONE', *, *, #561, .T. ) ;
#244 = CARTESIAN_POINT ( 'NONE',  ( 9.250000000000000000, 13.49999999999995737, 4.750000000000003553 ) ) ;
#245 = ORIENTED_EDGE ( 'NONE', *, *, #160, .F. ) ;
#246 = CARTESIAN_POINT ( 'NONE',  ( 5.750000000000000000, 0.000000000000000000, -18.00000000000000000 ) ) ;
#247 = EDGE_CURVE ( 'NONE', #18, #696, #433, .T. ) ;
#248 = DIRECTION ( 'NONE',  ( -1.000000000000000000, 0.000000000000000000, -1.406532548089303782E-16 ) ) ;
#249 = VERTEX_POINT ( 'NONE', #53 ) ;
#250 = LINE ( 'NONE', #302, #502 ) ;
#251 = CARTESIAN_POINT ( 'NONE',  ( 7.750000000000001776, 13.49999999999995737, 8.249999999999998224 ) ) ;
#252 = CARTESIAN_POINT ( 'NONE',  ( 0.000000000000000000, 0.000000000000000000, -18.00000000000000000 ) ) ;
#253 = DIRECTION ( 'NONE',  ( 1.000000000000000000, -0.000000000000000000, -0.000000000000000000 ) ) ;
#254 = DIRECTION ( 'NONE',  ( 0.000000000000000000, 0.000000000000000000, 1.000000000000000000 ) ) ;
#255 = CARTESIAN_POINT ( 'NONE',  ( 9.250000000000000000, -12.50000000000006750, 4.750000000000003553 ) ) ;
#256 = EDGE_LOOP ( 'NONE', ( #446, #193, #263, #692, #245, #192, #203, #350 ) ) ;
#257 = DIRECTION ( 'NONE',  ( 0.000000000000000000, 0.000000000000000000, -1.000000000000000000 ) ) ;
#258 = LINE ( 'NONE', #255, #152 ) ;
#259 = VERTEX_POINT ( 'NONE', #437 ) ;
#260 =( NAMED_UNIT ( * ) SI_UNIT ( $, .STERADIAN. ) SOLID_ANGLE_UNIT ( ) );
#261 = DIRECTION ( 'NONE',  ( 0.000000000000000000, 0.000000000000000000, 1.000000000000000000 ) ) ;
#262 = DIRECTION ( 'NONE',  ( 0.000000000000000000, 0.000000000000000000, -1.000000000000000000 ) ) ;
#263 = ORIENTED_EDGE ( 'NONE', *, *, #436, .F. ) ;
#264 = AXIS2_PLACEMENT_3D ( 'NONE', #340, #353, #281 ) ;
#265 = AXIS2_PLACEMENT_3D ( 'NONE', #101, #368, #655 ) ;
#266 =( GEOMETRIC_REPRESENTATION_CONTEXT ( 3 ) GLOBAL_UNCERTAINTY_ASSIGNED_CONTEXT ( ( #75 ) ) GLOBAL_UNIT_ASSIGNED_CONTEXT ( ( #163, #333, #260 ) ) REPRESENTATION_CONTEXT ( 'NONE', 'WORKASPACE' ) );
#267 = LINE ( 'NONE', #537, #82 ) ;
#268 = EDGE_LOOP ( 'NONE', ( #104, #469, #15, #319, #146, #483, #409, #220, #438, #417, #545, #100 ) ) ;
#269 = EDGE_CURVE ( 'NONE', #385, #217, #431, .T. ) ;
#270 = ADVANCED_FACE ( 'NONE', ( #329 ), #386, .T. ) ;
#271 = CARTESIAN_POINT ( 'NONE',  ( 14.00000000000008171, 13.49999999999995737, 10.00000000000000000 ) ) ;
#272 = ORIENTED_EDGE ( 'NONE', *, *, #307, .T. ) ;
#273 = CARTESIAN_POINT ( 'NONE',  ( -13.99999999999991651, 13.49999999999995737, 10.00000000000000000 ) ) ;
#274 = VERTEX_POINT ( 'NONE', #721 ) ;
#275 = VECTOR ( 'NONE', #389, 1000.000000000000000 ) ;
#276 = AXIS2_PLACEMENT_3D ( 'NONE', #118, #79, #130 ) ;
#277 = EDGE_CURVE ( 'NONE', #385, #259, #258, .T. ) ;
#278 = DIRECTION ( 'NONE',  ( -1.000000000000000000, 0.000000000000000000, 0.000000000000000000 ) ) ;
#279 = DIRECTION ( 'NONE',  ( 2.081668171172168829E-14, -0.000000000000000000, 1.000000000000000000 ) ) ;
#280 = FACE_OUTER_BOUND ( 'NONE', #539, .T. ) ;
#281 = DIRECTION ( 'NONE',  ( -1.000000000000000000, 0.000000000000000000, 0.000000000000000000 ) ) ;
#282 = EDGE_LOOP ( 'NONE', ( #594, #421, #642, #405 ) ) ;
#283 = ADVANCED_FACE ( 'NONE', ( #384 ), #710, .T. ) ;
#284 = AXIS2_PLACEMENT_3D ( 'NONE', #625, #622, #248 ) ;
#285 = CARTESIAN_POINT ( 'NONE',  ( 14.00000000000008349, -11.50000000000006750, 0.000000000000000000 ) ) ;
#286 = EDGE_CURVE ( 'NONE', #661, #587, #173, .T. ) ;
#287 = CARTESIAN_POINT ( 'NONE',  ( 0.000000000000000000, 0.000000000000000000, -18.00000000000000000 ) ) ;
#288 = FACE_OUTER_BOUND ( 'NONE', #19, .T. ) ;
#289 = ORIENTED_EDGE ( 'NONE', *, *, #188, .T. ) ;
#290 = DIRECTION ( 'NONE',  ( 0.000000000000000000, 0.000000000000000000, -1.000000000000000000 ) ) ;
#291 = DIRECTION ( 'NONE',  ( -1.000000000000000000, 0.000000000000000000, 0.000000000000000000 ) ) ;
#292 = VECTOR ( 'NONE', #94, 1000.000000000000000 ) ;
#293 = DIRECTION ( 'NONE',  ( 1.000000000000000000, 0.000000000000000000, -0.000000000000000000 ) ) ;
#294 = AXIS2_PLACEMENT_3D ( 'NONE', #700, #261, #480 ) ;
#295 = CIRCLE ( 'NONE', #237, 2.000000000000000000 ) ;
#296 = ORIENTED_EDGE ( 'NONE', *, *, #430, .T. ) ;
#297 = EDGE_CURVE ( 'NONE', #334, #249, #656, .T. ) ;
#298 = CARTESIAN_POINT ( 'NONE',  ( -7.750000000000000000, 13.49999999999995737, 10.00000000000000000 ) ) ;
#299 = LINE ( 'NONE', #377, #449 ) ;
#300 = CARTESIAN_POINT ( 'NONE',  ( 14.00000000000008171, -13.50000000000006750, 10.00000000000000000 ) ) ;
#301 = ORIENTED_EDGE ( 'NONE', *, *, #328, .T. ) ;
#302 = CARTESIAN_POINT ( 'NONE',  ( -15.99999999999991651, -13.50000000000006750, 0.000000000000000000 ) ) ;
#303 = ORIENTED_EDGE ( 'NONE', *, *, #336, .T. ) ;
#304 = LINE ( 'NONE', #645, #5 ) ;
#305 = LINE ( 'NONE', #196, #292 ) ;
#306 = ORIENTED_EDGE ( 'NONE', *, *, #16, .T. ) ;
#307 = EDGE_CURVE ( 'NONE', #699, #274, #392, .T. ) ;
#308 = DIRECTION ( 'NONE',  ( 2.032104643287119632E-14, 0.000000000000000000, -1.000000000000000000 ) ) ;
#309 = ORIENTED_EDGE ( 'NONE', *, *, #269, .T. ) ;
#310 = LINE ( 'NONE', #540, #592 ) ;
#311 = FACE_OUTER_BOUND ( 'NONE', #282, .T. ) ;
#312 = VECTOR ( 'NONE', #8, 1000.000000000000000 ) ;
#313 = VECTOR ( 'NONE', #278, 1000.000000000000000 ) ;
#314 = VERTEX_POINT ( 'NONE', #547 ) ;
#315 = VECTOR ( 'NONE', #40, 1000.000000000000000 ) ;
#316 = LINE ( 'NONE', #534, #17 ) ;
#317 = CARTESIAN_POINT ( 'NONE',  ( -7.750000000000000000, -12.50000000000006750, 8.250000000000000000 ) ) ;
#318 = SURFACE_STYLE_FILL_AREA ( #216 ) ;
#319 = ORIENTED_EDGE ( 'NONE', *, *, #188, .F. ) ;
#320 = DIRECTION ( 'NONE',  ( -1.000000000000000000, 0.000000000000000000, 0.000000000000000000 ) ) ;
#321 = EDGE_CURVE ( 'NONE', #466, #565, #373, .T. ) ;
#322 = ORIENTED_EDGE ( 'NONE', *, *, #544, .F. ) ;
#323 = SURFACE_STYLE_USAGE ( .BOTH. , #56 ) ;
#324 = TOROIDAL_SURFACE ( 'NONE', #12, 7.750000000000000000, 2.000000000000000000 ) ;
#325 = VERTEX_POINT ( 'NONE', #494 ) ;
#326 = AXIS2_PLACEMENT_3D ( 'NONE', #25, #508, #291 ) ;
#327 = APPLICATION_PROTOCOL_DEFINITION ( 'draft international standard', 'automotive_design', 1998, #571 ) ;
#328 = EDGE_CURVE ( 'NONE', #605, #492, #562, .T. ) ;
#329 = FACE_OUTER_BOUND ( 'NONE', #383, .T. ) ;
#330 = MANIFOLD_SOLID_BREP ( 'Fillet2', #181 ) ;
#331 = EDGE_LOOP ( 'NONE', ( #212, #309, #176, #150 ) ) ;
#332 = PRODUCT ( 'P001-B109_Winding_Plate_Attachment_3', 'P001-B109_Winding_Plate_Attachment_3', '', ( #608 ) ) ;
#333 =( NAMED_UNIT ( * ) PLANE_ANGLE_UNIT ( ) SI_UNIT ( $, .RADIAN. ) );
#334 = VERTEX_POINT ( 'NONE', #10 ) ;
#335 = APPLICATION_PROTOCOL_DEFINITION ( 'draft international standard', 'automotive_design', 1998, #411 ) ;
#336 = EDGE_CURVE ( 'NONE', #325, #584, #99, .T. ) ;
#337 = CARTESIAN_POINT ( 'NONE',  ( -7.750000000000000000, -12.50000000000006750, 8.250000000000000000 ) ) ;
#338 = CARTESIAN_POINT ( 'NONE',  ( -9.249999999999925393, 13.49999999999995737, 8.250000000000000000 ) ) ;
#339 = CIRCLE ( 'NONE', #126, 2.000000000000000000 ) ;
#340 = CARTESIAN_POINT ( 'NONE',  ( 0.000000000000000000, 0.000000000000000000, 0.000000000000000000 ) ) ;
#341 = VECTOR ( 'NONE', #465, 1000.000000000000000 ) ;
#342 = ORIENTED_EDGE ( 'NONE', *, *, #286, .T. ) ;
#343 = CARTESIAN_POINT ( 'NONE',  ( 16.00000000000008527, -13.50000000000006750, 10.00000000000000000 ) ) ;
#344 = FACE_OUTER_BOUND ( 'NONE', #432, .T. ) ;
#345 = EDGE_CURVE ( 'NONE', #214, #325, #339, .T. ) ;
#346 = PLANE ( 'NONE',  #125 ) ;
#347 = COLOUR_RGB ( '',0.7921568627450980005, 0.8196078431372548767, 0.9333333333333333481 ) ;
#348 = CARTESIAN_POINT ( 'NONE',  ( 7.750000000000001776, -12.50000000000006750, 9.999999999999998224 ) ) ;
#349 = DIRECTION ( 'NONE',  ( 0.000000000000000000, 0.000000000000000000, -1.000000000000000000 ) ) ;
#350 = ORIENTED_EDGE ( 'NONE', *, *, #559, .F. ) ;
#351 = CARTESIAN_POINT ( 'NONE',  ( -9.249999999999998224, -12.50000000000006750, 4.750000000000000888 ) ) ;
#352 = ADVANCED_FACE ( 'NONE', ( #403 ), #516, .T. ) ;
#353 = DIRECTION ( 'NONE',  ( -0.000000000000000000, -0.000000000000000000, 1.000000000000000000 ) ) ;
#354 = ADVANCED_FACE ( 'NONE', ( #168 ), #170, .F. ) ;
#355 = CARTESIAN_POINT ( 'NONE',  ( 9.250000000000000000, 13.49999999999995737, 4.750000000000003553 ) ) ;
#356 = ORIENTED_EDGE ( 'NONE', *, *, #382, .F. ) ;
#357 = CARTESIAN_POINT ( 'NONE',  ( -5.750000000000000000, 7.041719095097280880E-16, -1.999999999999998224 ) ) ;
#358 = ORIENTED_EDGE ( 'NONE', *, *, #690, .F. ) ;
#359 = PLANE ( 'NONE',  #603 ) ;
#360 = AXIS2_PLACEMENT_3D ( 'NONE', #4, #567, #407 ) ;
#361 = CARTESIAN_POINT ( 'NONE',  ( -15.99999999999991651, -11.50000000000006750, 10.00000000000000000 ) ) ;
#362 = PRODUCT_DEFINITION_FORMATION_WITH_SPECIFIED_SOURCE ( 'ANY', '', #332, .NOT_KNOWN. ) ;
#363 = ORIENTED_EDGE ( 'NONE', *, *, #328, .F. ) ;
#364 = DIRECTION ( 'NONE',  ( 0.000000000000000000, -0.000000000000000000, 1.000000000000000000 ) ) ;
#365 = EDGE_CURVE ( 'NONE', #492, #605, #117, .T. ) ;
#366 = CARTESIAN_POINT ( 'NONE',  ( -7.750000000000000000, 13.49999999999995737, 8.250000000000000000 ) ) ;
#367 = ORIENTED_EDGE ( 'NONE', *, *, #559, .T. ) ;
#368 = DIRECTION ( 'NONE',  ( -1.000000000000000000, 0.000000000000000000, -0.000000000000000000 ) ) ;
#369 = DIRECTION ( 'NONE',  ( -0.000000000000000000, -0.000000000000000000, 1.000000000000000000 ) ) ;
#370 = ORIENTED_EDGE ( 'NONE', *, *, #711, .T. ) ;
#371 = DIRECTION ( 'NONE',  ( 0.000000000000000000, 0.000000000000000000, -1.000000000000000000 ) ) ;
#372 = DIRECTION ( 'NONE',  ( 0.000000000000000000, -0.000000000000000000, 1.000000000000000000 ) ) ;
#373 = LINE ( 'NONE', #112, #425 ) ;
#374 = VECTOR ( 'NONE', #703, 1000.000000000000000 ) ;
#375 = ORIENTED_EDGE ( 'NONE', *, *, #618, .T. ) ;
#376 = ORIENTED_EDGE ( 'NONE', *, *, #444, .F. ) ;
#377 = CARTESIAN_POINT ( 'NONE',  ( -7.750000000000000000, 13.49999999999995737, 8.250000000000000000 ) ) ;
#378 = CARTESIAN_POINT ( 'NONE',  ( 16.00000000000008527, -11.50000000000006750, 10.00000000000000000 ) ) ;
#379 = VERTEX_POINT ( 'NONE', #122 ) ;
#380 = CARTESIAN_POINT ( 'NONE',  ( 0.000000000000000000, 0.000000000000000000, 0.000000000000000000 ) ) ;
#381 = CARTESIAN_POINT ( 'NONE',  ( 14.00000000000008171, 11.49999999999995559, 0.000000000000000000 ) ) ;
#382 = EDGE_CURVE ( 'NONE', #587, #661, #210, .T. ) ;
#383 = EDGE_LOOP ( 'NONE', ( #177, #533, #171, #434 ) ) ;
#384 = FACE_OUTER_BOUND ( 'NONE', #268, .T. ) ;
#385 = VERTEX_POINT ( 'NONE', #390 ) ;
#386 = CYLINDRICAL_SURFACE ( 'NONE', #97, 2.000000000000000000 ) ;
#387 = EDGE_LOOP ( 'NONE', ( #496, #541, #46, #414 ) ) ;
#388 = DIRECTION ( 'NONE',  ( 0.000000000000000000, 0.000000000000000000, -1.000000000000000000 ) ) ;
#389 = DIRECTION ( 'NONE',  ( -0.000000000000000000, 1.000000000000000000, -0.000000000000000000 ) ) ;
#390 = CARTESIAN_POINT ( 'NONE',  ( 9.250000000000000000, -12.50000000000006750, 4.750000000000003553 ) ) ;
#391 = PLANE ( 'NONE',  #633 ) ;
#392 = CIRCLE ( 'NONE', #542, 2.000000000000000000 ) ;
#393 = ADVANCED_FACE ( 'NONE', ( #240 ), #13, .F. ) ;
#394 = AXIS2_PLACEMENT_3D ( 'NONE', #184, #290, #623 ) ;
#395 = DIRECTION ( 'NONE',  ( 2.081668171172168829E-14, 0.000000000000000000, 1.000000000000000000 ) ) ;
#396 = DIRECTION ( 'NONE',  ( -1.000000000000000000, 0.000000000000000000, 0.000000000000000000 ) ) ;
#397 = VERTEX_POINT ( 'NONE', #174 ) ;
#398 = EDGE_CURVE ( 'NONE', #207, #602, #621, .T. ) ;
#399 = ORIENTED_EDGE ( 'NONE', *, *, #277, .T. ) ;
#400 = AXIS2_PLACEMENT_3D ( 'NONE', #252, #369, #182 ) ;
#401 = CARTESIAN_POINT ( 'NONE',  ( -9.249999999999998224, 13.49999999999995737, 4.750000000000000888 ) ) ;
#402 = DIRECTION ( 'NONE',  ( 0.000000000000000000, 1.000000000000000000, 0.000000000000000000 ) ) ;
#403 = FACE_OUTER_BOUND ( 'NONE', #560, .T. ) ;
#404 = DIRECTION ( 'NONE',  ( -1.000000000000000000, 0.000000000000000000, 0.000000000000000000 ) ) ;
#405 = ORIENTED_EDGE ( 'NONE', *, *, #242, .T. ) ;
#406 = CARTESIAN_POINT ( 'NONE',  ( 14.00000000000008171, 11.49999999999995559, 10.00000000000000000 ) ) ;
#407 = DIRECTION ( 'NONE',  ( -1.000000000000000000, 0.000000000000000000, 0.000000000000000000 ) ) ;
#408 = DIRECTION ( 'NONE',  ( -0.000000000000000000, 1.000000000000000000, -0.000000000000000000 ) ) ;
#409 = ORIENTED_EDGE ( 'NONE', *, *, #536, .F. ) ;
#410 = CYLINDRICAL_SURFACE ( 'NONE', #448, 5.750000000000000000 ) ;
#411 = APPLICATION_CONTEXT ( 'automotive_design' ) ;
#412 = AXIS2_PLACEMENT_3D ( 'NONE', #497, #225, #190 ) ;
#413 = PLANE ( 'NONE',  #510 ) ;
#414 = ORIENTED_EDGE ( 'NONE', *, *, #430, .F. ) ;
#415 = DIRECTION ( 'NONE',  ( 0.000000000000000000, 0.000000000000000000, -1.000000000000000000 ) ) ;
#416 = DIRECTION ( 'NONE',  ( -2.081668171172168829E-14, 0.000000000000000000, -1.000000000000000000 ) ) ;
#417 = ORIENTED_EDGE ( 'NONE', *, *, #674, .F. ) ;
#418 = DIRECTION ( 'NONE',  ( 0.000000000000000000, 1.000000000000000000, 0.000000000000000000 ) ) ;
#419 = CARTESIAN_POINT ( 'NONE',  ( -15.99999999999991651, -12.50000000000006750, 10.00000000000000000 ) ) ;
#420 = CARTESIAN_POINT ( 'NONE',  ( 14.00000000000008349, -11.50000000000006750, 10.00000000000000000 ) ) ;
#421 = ORIENTED_EDGE ( 'NONE', *, *, #224, .T. ) ;
#422 = DIRECTION ( 'NONE',  ( 0.000000000000000000, 1.000000000000000000, 0.000000000000000000 ) ) ;
#423 = EDGE_CURVE ( 'NONE', #638, #605, #445, .T. ) ;
#424 = AXIS2_PLACEMENT_3D ( 'NONE', #285, #123, #396 ) ;
#425 = VECTOR ( 'NONE', #105, 1000.000000000000000 ) ;
#426 = CARTESIAN_POINT ( 'NONE',  ( 9.250000000000000000, -32.73050961363225042, 4.750000000000003553 ) ) ;
#427 = ORIENTED_EDGE ( 'NONE', *, *, #493, .T. ) ;
#428 = VECTOR ( 'NONE', #595, 1000.000000000000000 ) ;
#429 = PLANE ( 'NONE',  #294 ) ;
#430 = EDGE_CURVE ( 'NONE', #514, #179, #668, .T. ) ;
#431 = LINE ( 'NONE', #426, #138 ) ;
#432 = EDGE_LOOP ( 'NONE', ( #525, #667, #356, #233 ) ) ;
#433 = LINE ( 'NONE', #206, #552 ) ;
#434 = ORIENTED_EDGE ( 'NONE', *, *, #297, .F. ) ;
#435 = CARTESIAN_POINT ( 'NONE',  ( 9.249999999999928946, 13.49999999999995737, 8.249999999999998224 ) ) ;
#436 = EDGE_CURVE ( 'NONE', #259, #239, #689, .T. ) ;
#437 = CARTESIAN_POINT ( 'NONE',  ( 9.249999999999928946, -12.50000000000006750, 8.249999999999998224 ) ) ;
#438 = ORIENTED_EDGE ( 'NONE', *, *, #65, .F. ) ;
#439 = VECTOR ( 'NONE', #185, 1000.000000000000000 ) ;
#440 = DIRECTION ( 'NONE',  ( -1.000000000000000000, 0.000000000000000000, 0.000000000000000000 ) ) ;
#441 = ORIENTED_EDGE ( 'NONE', *, *, #230, .T. ) ;
#442 = CARTESIAN_POINT ( 'NONE',  ( -13.99999999999991651, -11.50000000000006750, 10.00000000000000000 ) ) ;
#443 = ORIENTED_EDGE ( 'NONE', *, *, #345, .F. ) ;
#444 = EDGE_CURVE ( 'NONE', #153, #583, #671, .T. ) ;
#445 = LINE ( 'NONE', #609, #312 ) ;
#446 = ORIENTED_EDGE ( 'NONE', *, *, #484, .F. ) ;
#447 = AXIS2_PLACEMENT_3D ( 'NONE', #646, #604, #158 ) ;
#448 = AXIS2_PLACEMENT_3D ( 'NONE', #531, #713, #575 ) ;
#449 = VECTOR ( 'NONE', #253, 1000.000000000000000 ) ;
#450 = AXIS2_PLACEMENT_3D ( 'NONE', #572, #643, #308 ) ;
#451 = DIRECTION ( 'NONE',  ( 0.000000000000000000, 0.000000000000000000, 1.000000000000000000 ) ) ;
#452 = ADVANCED_FACE ( 'NONE', ( #135 ), #359, .F. ) ;
#453 = VERTEX_POINT ( 'NONE', #273 ) ;
#454 = LINE ( 'NONE', #169, #275 ) ;
#455 = EDGE_CURVE ( 'NONE', #453, #550, #3, .T. ) ;
#456 = DIRECTION ( 'NONE',  ( -1.000000000000000000, 0.000000000000000000, 0.000000000000000000 ) ) ;
#457 = AXIS2_PLACEMENT_3D ( 'NONE', #81, #293, #27 ) ;
#458 = VECTOR ( 'NONE', #402, 1000.000000000000000 ) ;
#459 = CARTESIAN_POINT ( 'NONE',  ( -15.99999999999991651, -13.50000000000006750, 10.00000000000000000 ) ) ;
#460 = CARTESIAN_POINT ( 'NONE',  ( 7.750000000000000000, 9.491012693391987787E-16, 8.673617379884035472E-16 ) ) ;
#461 = ORIENTED_EDGE ( 'NONE', *, *, #455, .F. ) ;
#462 = DIRECTION ( 'NONE',  ( -1.000000000000000000, 0.000000000000000000, 0.000000000000000000 ) ) ;
#463 = DIRECTION ( 'NONE',  ( -0.000000000000000000, -0.000000000000000000, 1.000000000000000000 ) ) ;
#464 = EDGE_LOOP ( 'NONE', ( #693, #441, #226, #663 ) ) ;
#465 = DIRECTION ( 'NONE',  ( 2.032104643287119632E-14, -0.000000000000000000, -1.000000000000000000 ) ) ;
#466 = VERTEX_POINT ( 'NONE', #665 ) ;
#467 = CARTESIAN_POINT ( 'NONE',  ( 14.00000000000008171, 11.49999999999995559, 10.00000000000000000 ) ) ;
#468 = DIRECTION ( 'NONE',  ( 0.000000000000000000, 1.000000000000000000, 0.000000000000000000 ) ) ;
#469 = ORIENTED_EDGE ( 'NONE', *, *, #660, .T. ) ;
#470 = EDGE_CURVE ( 'NONE', #514, #397, #115, .T. ) ;
#471 = EDGE_LOOP ( 'NONE', ( #704, #628, #708, #498 ) ) ;
#472 = LINE ( 'NONE', #201, #576 ) ;
#473 = VECTOR ( 'NONE', #549, 1000.000000000000000 ) ;
#474 = LINE ( 'NONE', #86, #680 ) ;
#475 = VECTOR ( 'NONE', #418, 1000.000000000000000 ) ;
#476 = LINE ( 'NONE', #705, #73 ) ;
#477 = DIRECTION ( 'NONE',  ( 1.000000000000000000, 0.000000000000000000, 0.000000000000000000 ) ) ;
#478 = DIRECTION ( 'NONE',  ( -1.000000000000000000, 0.000000000000000000, 0.000000000000000000 ) ) ;
#479 = ORIENTED_EDGE ( 'NONE', *, *, #121, .F. ) ;
#480 = DIRECTION ( 'NONE',  ( 1.000000000000000000, 0.000000000000000000, -0.000000000000000000 ) ) ;
#481 = ADVANCED_FACE ( 'NONE', ( #64 ), #221, .T. ) ;
#482 = LINE ( 'NONE', #45, #473 ) ;
#483 = ORIENTED_EDGE ( 'NONE', *, *, #654, .T. ) ;
#484 = EDGE_CURVE ( 'NONE', #11, #18, #310, .T. ) ;
#485 = DIRECTION ( 'NONE',  ( 0.000000000000000000, -0.000000000000000000, 1.000000000000000000 ) ) ;
#486 = AXIS2_PLACEMENT_3D ( 'NONE', #672, #511, #675 ) ;
#487 = AXIS2_PLACEMENT_3D ( 'NONE', #543, #606, #651 ) ;
#488 =( NAMED_UNIT ( * ) SI_UNIT ( $, .STERADIAN. ) SOLID_ANGLE_UNIT ( ) );
#489 = AXIS2_PLACEMENT_3D ( 'NONE', #419, #422, #364 ) ;
#490 = ORIENTED_EDGE ( 'NONE', *, *, #544, .T. ) ;
#491 = DIRECTION ( 'NONE',  ( -0.000000000000000000, 1.000000000000000000, -0.000000000000000000 ) ) ;
#492 = VERTEX_POINT ( 'NONE', #590 ) ;
#493 = EDGE_CURVE ( 'NONE', #29, #492, #30, .T. ) ;
#494 = CARTESIAN_POINT ( 'NONE',  ( -13.99999999999991651, -13.50000000000006750, 10.00000000000000000 ) ) ;
#495 = ADVANCED_FACE ( 'NONE', ( #585 ), #527, .T. ) ;
#496 = ORIENTED_EDGE ( 'NONE', *, *, #470, .T. ) ;
#497 = CARTESIAN_POINT ( 'NONE',  ( 0.000000000000000000, 0.000000000000000000, -1.999999999999998224 ) ) ;
#498 = ORIENTED_EDGE ( 'NONE', *, *, #682, .F. ) ;
#499 = VECTOR ( 'NONE', #48, 1000.000000000000000 ) ;
#500 = SHAPE_DEFINITION_REPRESENTATION ( #2, #55 ) ;
#501 = CIRCLE ( 'NONE', #556, 2.000000000000000000 ) ;
#502 = VECTOR ( 'NONE', #639, 1000.000000000000000 ) ;
#503 = CARTESIAN_POINT ( 'NONE',  ( 9.249999999999928946, -12.50000000000006750, 8.249999999999998224 ) ) ;
#504 = DIRECTION ( 'NONE',  ( -1.000000000000000000, 0.000000000000000000, 0.000000000000000000 ) ) ;
#505 = DIRECTION ( 'NONE',  ( 0.000000000000000000, -0.000000000000000000, 1.000000000000000000 ) ) ;
#506 = CARTESIAN_POINT ( 'NONE',  ( 5.750000000000000000, 0.000000000000000000, -18.00000000000000000 ) ) ;
#507 = ADVANCED_FACE ( 'NONE', ( #694 ), #98, .F. ) ;
#508 = DIRECTION ( 'NONE',  ( 0.000000000000000000, 0.000000000000000000, -1.000000000000000000 ) ) ;
#509 = CARTESIAN_POINT ( 'NONE',  ( 0.000000000000000000, 0.000000000000000000, -1.999999999999998224 ) ) ;
#510 = AXIS2_PLACEMENT_3D ( 'NONE', #532, #468, #519 ) ;
#511 = DIRECTION ( 'NONE',  ( -1.224646799147353207E-16, 1.000000000000000000, 0.000000000000000000 ) ) ;
#512 = ORIENTED_EDGE ( 'NONE', *, *, #16, .F. ) ;
#513 = PLANE ( 'NONE',  #635 ) ;
#514 = VERTEX_POINT ( 'NONE', #317 ) ;
#515 = CARTESIAN_POINT ( 'NONE',  ( 7.750000000000001776, -32.73050961363225042, 8.249999999999998224 ) ) ;
#516 = CYLINDRICAL_SURFACE ( 'NONE', #326, 2.000000000000000000 ) ;
#517 = VECTOR ( 'NONE', #415, 1000.000000000000000 ) ;
#518 = ADVANCED_FACE ( 'NONE', ( #706 ), #410, .T. ) ;
#519 = DIRECTION ( 'NONE',  ( 0.000000000000000000, -0.000000000000000000, 1.000000000000000000 ) ) ;
#520 = EDGE_LOOP ( 'NONE', ( #399, #632, #644, #1 ) ) ;
#521 = CARTESIAN_POINT ( 'NONE',  ( 14.00000000000008171, 13.49999999999995737, 0.000000000000000000 ) ) ;
#522 = PRODUCT_DEFINITION ( 'UNKNOWN', '', #362, #26 ) ;
#523 = CARTESIAN_POINT ( 'NONE',  ( 14.00000000000008349, -11.50000000000006750, 10.00000000000000000 ) ) ;
#524 = CARTESIAN_POINT ( 'NONE',  ( -9.249999999999925393, 13.49999999999995737, 8.250000000000000000 ) ) ;
#525 = ORIENTED_EDGE ( 'NONE', *, *, #365, .F. ) ;
#526 = FACE_OUTER_BOUND ( 'NONE', #520, .T. ) ;
#527 = CYLINDRICAL_SURFACE ( 'NONE', #701, 2.000000000000001776 ) ;
#528 = ADVANCED_FACE ( 'NONE', ( #636 ), #535, .T. ) ;
#529 = PLANE ( 'NONE',  #284 ) ;
#530 = EDGE_LOOP ( 'NONE', ( #367, #296, #87, #37 ) ) ;
#531 = CARTESIAN_POINT ( 'NONE',  ( 0.000000000000000000, 0.000000000000000000, -18.00000000000000000 ) ) ;
#532 = CARTESIAN_POINT ( 'NONE',  ( -15.99999999999991651, -13.50000000000006750, 10.00000000000000000 ) ) ;
#533 = ORIENTED_EDGE ( 'NONE', *, *, #224, .F. ) ;
#534 = CARTESIAN_POINT ( 'NONE',  ( -9.249999999999998224, 13.49999999999995737, 4.750000000000000888 ) ) ;
#535 = PLANE ( 'NONE',  #489 ) ;
#536 = EDGE_CURVE ( 'NONE', #179, #696, #47, .T. ) ;
#537 = CARTESIAN_POINT ( 'NONE',  ( 16.00000000000008527, -13.50000000000006750, 0.000000000000000000 ) ) ;
#538 = EDGE_LOOP ( 'NONE', ( #134, #42, #648, #60, #162, #74, #574, #303, #243, #653, #111, #579 ) ) ;
#539 = EDGE_LOOP ( 'NONE', ( #306, #77 ) ) ;
#540 = CARTESIAN_POINT ( 'NONE',  ( -7.750000000000000000, -12.50000000000006750, 10.00000000000000000 ) ) ;
#541 = ORIENTED_EDGE ( 'NONE', *, *, #178, .T. ) ;
#542 = AXIS2_PLACEMENT_3D ( 'NONE', #381, #601, #109 ) ;
#543 = CARTESIAN_POINT ( 'NONE',  ( 0.000000000000000000, 0.000000000000000000, -1.999999999999998224 ) ) ;
#544 = EDGE_CURVE ( 'NONE', #550, #207, #44, .T. ) ;
#545 = ORIENTED_EDGE ( 'NONE', *, *, #702, .F. ) ;
#546 = VECTOR ( 'NONE', #681, 1000.000000000000000 ) ;
#547 = CARTESIAN_POINT ( 'NONE',  ( 16.00000000000008527, 11.49999999999995381, 10.00000000000000000 ) ) ;
#548 = ORIENTED_EDGE ( 'NONE', *, *, #398, .F. ) ;
#549 = DIRECTION ( 'NONE',  ( 0.000000000000000000, 0.000000000000000000, -1.000000000000000000 ) ) ;
#550 = VERTEX_POINT ( 'NONE', #211 ) ;
#551 = CARTESIAN_POINT ( 'NONE',  ( -15.99999999999991651, -13.50000000000006750, 10.00000000000000000 ) ) ;
#552 = VECTOR ( 'NONE', #659, 1000.000000000000000 ) ;
#553 = CARTESIAN_POINT ( 'NONE',  ( 0.000000000000000000, 0.000000000000000000, -18.00000000000000000 ) ) ;
#554 = VECTOR ( 'NONE', #36, 1000.000000000000000 ) ;
#555 = AXIS2_PLACEMENT_3D ( 'NONE', #442, #505, #148 ) ;
#556 = AXIS2_PLACEMENT_3D ( 'NONE', #523, #35, #320 ) ;
#557 = DIRECTION ( 'NONE',  ( -1.000000000000000000, 0.000000000000000000, 2.081668171172168829E-14 ) ) ;
#558 = DIRECTION ( 'NONE',  ( 0.000000000000000000, 0.000000000000000000, -1.000000000000000000 ) ) ;
#559 = EDGE_CURVE ( 'NONE', #18, #514, #304, .T. ) ;
#560 = EDGE_LOOP ( 'NONE', ( #461, #610, #548, #322 ) ) ;
#561 = EDGE_CURVE ( 'NONE', #584, #334, #501, .T. ) ;
#562 = CIRCLE ( 'NONE', #487, 5.750000000000000000 ) ;
#563 = ORIENTED_EDGE ( 'NONE', *, *, #444, .T. ) ;
#564 = CARTESIAN_POINT ( 'NONE',  ( 7.750000000000001776, -32.73050961363225042, 9.999999999999998224 ) ) ;
#565 = VERTEX_POINT ( 'NONE', #251 ) ;
#566 = LINE ( 'NONE', #515, #652 ) ;
#567 = DIRECTION ( 'NONE',  ( 0.000000000000000000, 0.000000000000000000, -1.000000000000000000 ) ) ;
#568 = ADVANCED_FACE ( 'NONE', ( #597 ), #429, .F. ) ;
#569 = PLANE ( 'NONE',  #457 ) ;
#570 = EDGE_LOOP ( 'NONE', ( #88, #139, #301, #22 ) ) ;
#571 = APPLICATION_CONTEXT ( 'automotive_design' ) ;
#572 = CARTESIAN_POINT ( 'NONE',  ( 9.250000000000000000, -32.73050961363225042, 4.750000000000003553 ) ) ;
#573 = MECHANICAL_DESIGN_GEOMETRIC_PRESENTATION_REPRESENTATION (  '', ( #650 ), #227 ) ;
#574 = ORIENTED_EDGE ( 'NONE', *, *, #345, .T. ) ;
#575 = DIRECTION ( 'NONE',  ( 1.000000000000000000, 0.000000000000000000, 0.000000000000000000 ) ) ;
#576 = VECTOR ( 'NONE', #485, 1000.000000000000000 ) ;
#577 = EDGE_CURVE ( 'NONE', #239, #11, #472, .T. ) ;
#578 = FACE_OUTER_BOUND ( 'NONE', #471, .T. ) ;
#579 = ORIENTED_EDGE ( 'NONE', *, *, #660, .F. ) ;
#580 = ADVANCED_FACE ( 'NONE', ( #640 ), #144, .F. ) ;
#581 = CARTESIAN_POINT ( 'NONE',  ( -7.750000000000000000, 13.49999999999995737, 10.00000000000000000 ) ) ;
#582 = LINE ( 'NONE', #564, #554 ) ;
#583 = VERTEX_POINT ( 'NONE', #93 ) ;
#584 = VERTEX_POINT ( 'NONE', #709 ) ;
#585 = FACE_OUTER_BOUND ( 'NONE', #626, .T. ) ;
#586 = CARTESIAN_POINT ( 'NONE',  ( -13.99999999999991651, -13.50000000000006750, 0.000000000000000000 ) ) ;
#587 = VERTEX_POINT ( 'NONE', #157 ) ;
#588 = EDGE_CURVE ( 'NONE', #602, #453, #208, .T. ) ;
#589 = DIRECTION ( 'NONE',  ( 1.000000000000000000, 0.000000000000000000, 0.000000000000000000 ) ) ;
#590 = CARTESIAN_POINT ( 'NONE',  ( 5.750000000000000000, 0.000000000000000000, -1.999999999999998224 ) ) ;
#591 = CIRCLE ( 'NONE', #486, 2.000000000000000000 ) ;
#592 = VECTOR ( 'NONE', #205, 1000.000000000000000 ) ;
#593 = DIRECTION ( 'NONE',  ( 0.000000000000000000, -0.000000000000000000, 1.000000000000000000 ) ) ;
#594 = ORIENTED_EDGE ( 'NONE', *, *, #613, .T. ) ;
#595 = DIRECTION ( 'NONE',  ( -0.000000000000000000, -0.000000000000000000, 1.000000000000000000 ) ) ;
#596 = ORIENTED_EDGE ( 'NONE', *, *, #711, .F. ) ;
#597 = FACE_OUTER_BOUND ( 'NONE', #387, .T. ) ;
#598 = PRESENTATION_STYLE_ASSIGNMENT (( #323 ) ) ;
#599 = ORIENTED_EDGE ( 'NONE', *, *, #231, .F. ) ;
#600 = EDGE_CURVE ( 'NONE', #120, #179, #299, .T. ) ;
#601 = DIRECTION ( 'NONE',  ( 0.000000000000000000, 0.000000000000000000, -1.000000000000000000 ) ) ;
#602 = VERTEX_POINT ( 'NONE', #697 ) ;
#603 = AXIS2_PLACEMENT_3D ( 'NONE', #58, #557, #395 ) ;
#604 = DIRECTION ( 'NONE',  ( -0.000000000000000000, -0.000000000000000000, 1.000000000000000000 ) ) ;
#605 = VERTEX_POINT ( 'NONE', #357 ) ;
#606 = DIRECTION ( 'NONE',  ( 0.000000000000000000, 0.000000000000000000, -1.000000000000000000 ) ) ;
#607 = EDGE_LOOP ( 'NONE', ( #443, #686, #376, #106 ) ) ;
#608 = PRODUCT_CONTEXT ( 'NONE', #571, 'mechanical' ) ;
#609 = CARTESIAN_POINT ( 'NONE',  ( -5.750000000000000000, 7.041719095097280880E-16, -18.00000000000000000 ) ) ;
#610 = ORIENTED_EDGE ( 'NONE', *, *, #588, .F. ) ;
#611 = EDGE_CURVE ( 'NONE', #605, #587, #295, .T. ) ;
#612 = CARTESIAN_POINT ( 'NONE',  ( -13.99999999999991651, 11.49999999999995381, 10.00000000000000000 ) ) ;
#613 = EDGE_CURVE ( 'NONE', #153, #379, #250, .T. ) ;
#614 = AXIS2_PLACEMENT_3D ( 'NONE', #616, #388, #462 ) ;
#615 = CARTESIAN_POINT ( 'NONE',  ( 0.000000000000000000, 0.000000000000000000, 0.000000000000000000 ) ) ;
#616 = CARTESIAN_POINT ( 'NONE',  ( -13.99999999999991651, 11.49999999999995381, 0.000000000000000000 ) ) ;
#617 = DIRECTION ( 'NONE',  ( -1.000000000000000000, 0.000000000000000000, -0.000000000000000000 ) ) ;
#618 = EDGE_CURVE ( 'NONE', #214, #550, #129, .T. ) ;
#619 = DIRECTION ( 'NONE',  ( 0.000000000000000000, 0.000000000000000000, -1.000000000000000000 ) ) ;
#620 = ORIENTED_EDGE ( 'NONE', *, *, #231, .T. ) ;
#621 = CIRCLE ( 'NONE', #614, 2.000000000000000000 ) ;
#622 = DIRECTION ( 'NONE',  ( 1.406532548089303782E-16, 0.000000000000000000, -1.000000000000000000 ) ) ;
#623 = DIRECTION ( 'NONE',  ( -1.000000000000000000, 0.000000000000000000, 0.000000000000000000 ) ) ;
#624 = DIRECTION ( 'NONE',  ( -1.000000000000000000, 0.000000000000000000, 0.000000000000000000 ) ) ;
#625 = CARTESIAN_POINT ( 'NONE',  ( -9.249999999999998224, -32.73050961363225042, 4.750000000000000888 ) ) ;
#626 = EDGE_LOOP ( 'NONE', ( #358, #596, #95, #132 ) ) ;
#627 = DIRECTION ( 'NONE',  ( -0.000000000000000000, -0.000000000000000000, 1.000000000000000000 ) ) ;
#628 = ORIENTED_EDGE ( 'NONE', *, *, #180, .T. ) ;
#629 = CARTESIAN_POINT ( 'NONE',  ( -7.750000000000000000, -32.73050961363225042, 8.250000000000000000 ) ) ;
#630 = ADVANCED_FACE ( 'NONE', ( #526 ), #78, .F. ) ;
#631 = CARTESIAN_POINT ( 'NONE',  ( -9.249999999999998224, -32.73050961363225042, 4.750000000000000888 ) ) ;
#632 = ORIENTED_EDGE ( 'NONE', *, *, #59, .T. ) ;
#633 = AXIS2_PLACEMENT_3D ( 'NONE', #615, #558, #617 ) ;
#634 = CARTESIAN_POINT ( 'NONE',  ( -15.99999999999991651, -13.50000000000006750, 0.000000000000000000 ) ) ;
#635 = AXIS2_PLACEMENT_3D ( 'NONE', #459, #20, #186 ) ;
#636 = FACE_OUTER_BOUND ( 'NONE', #256, .T. ) ;
#637 = CARTESIAN_POINT ( 'NONE',  ( -15.99999999999991651, -11.50000000000006750, 10.00000000000000000 ) ) ;
#638 = VERTEX_POINT ( 'NONE', #38 ) ;
#639 = DIRECTION ( 'NONE',  ( 1.000000000000000000, 0.000000000000000000, 0.000000000000000000 ) ) ;
#640 = FACE_OUTER_BOUND ( 'NONE', #530, .T. ) ;
#641 = DIRECTION ( 'NONE',  ( -0.000000000000000000, -0.000000000000000000, 1.000000000000000000 ) ) ;
#642 = ORIENTED_EDGE ( 'NONE', *, *, #336, .F. ) ;
#643 = DIRECTION ( 'NONE',  ( 1.000000000000000000, 0.000000000000000000, 2.032104643287119632E-14 ) ) ;
#644 = ORIENTED_EDGE ( 'NONE', *, *, #702, .T. ) ;
#645 = CARTESIAN_POINT ( 'NONE',  ( -7.750000000000000000, -12.50000000000006750, 10.00000000000000000 ) ) ;
#646 = CARTESIAN_POINT ( 'NONE',  ( 0.000000000000000000, 0.000000000000000000, 0.000000000000000000 ) ) ;
#647 = ORIENTED_EDGE ( 'NONE', *, *, #365, .T. ) ;
#648 = ORIENTED_EDGE ( 'NONE', *, *, #247, .T. ) ;
#649 = DIRECTION ( 'NONE',  ( -0.000000000000000000, -0.000000000000000000, 1.000000000000000000 ) ) ;
#650 = STYLED_ITEM ( 'NONE', ( #598 ), #330 ) ;
#651 = DIRECTION ( 'NONE',  ( -1.000000000000000000, 0.000000000000000000, 0.000000000000000000 ) ) ;
#652 = VECTOR ( 'NONE', #24, 1000.000000000000000 ) ;
#653 = ORIENTED_EDGE ( 'NONE', *, *, #121, .T. ) ;
#654 = EDGE_CURVE ( 'NONE', #453, #696, #476, .T. ) ;
#655 = DIRECTION ( 'NONE',  ( -0.000000000000000000, 0.000000000000000000, 1.000000000000000000 ) ) ;
#656 = LINE ( 'NONE', #378, #499 ) ;
#657 = ORIENTED_EDGE ( 'NONE', *, *, #658, .T. ) ;
#658 = EDGE_CURVE ( 'NONE', #583, #207, #204, .T. ) ;
#659 = DIRECTION ( 'NONE',  ( -0.000000000000000000, 1.000000000000000000, -0.000000000000000000 ) ) ;
#660 = EDGE_CURVE ( 'NONE', #466, #232, #84, .T. ) ;
#661 = VERTEX_POINT ( 'NONE', #460 ) ;
#662 = PRESENTATION_LAYER_ASSIGNMENT (  '', '', ( #650 ) ) ;
#663 = ORIENTED_EDGE ( 'NONE', *, *, #178, .F. ) ;
#664 = DIRECTION ( 'NONE',  ( 1.000000000000000000, -0.000000000000000000, -0.000000000000000000 ) ) ;
#665 = CARTESIAN_POINT ( 'NONE',  ( 7.750000000000001776, 13.49999999999995737, 9.999999999999998224 ) ) ;
#666 = EDGE_CURVE ( 'NONE', #232, #699, #687, .T. ) ;
#667 = ORIENTED_EDGE ( 'NONE', *, *, #50, .T. ) ;
#668 = LINE ( 'NONE', #629, #108 ) ;
#669 = DIRECTION ( 'NONE',  ( 0.000000000000000000, 0.000000000000000000, -1.000000000000000000 ) ) ;
#670 = DIRECTION ( 'NONE',  ( -0.000000000000000000, -0.000000000000000000, 1.000000000000000000 ) ) ;
#671 = CIRCLE ( 'NONE', #360, 2.000000000000000000 ) ;
#672 = CARTESIAN_POINT ( 'NONE',  ( 7.750000000000000000, 9.491012693391987787E-16, -1.999999999999998224 ) ) ;
#673 = AXIS2_PLACEMENT_3D ( 'NONE', #380, #61, #114 ) ;
#674 = EDGE_CURVE ( 'NONE', #217, #159, #316, .T. ) ;
#675 = DIRECTION ( 'NONE',  ( -1.000000000000000000, -1.224646799147353454E-16, 0.000000000000000000 ) ) ;
#676 = EDGE_CURVE ( 'NONE', #638, #29, #7, .T. ) ;
#677 = VERTEX_POINT ( 'NONE', #351 ) ;
#678 = CIRCLE ( 'NONE', #80, 5.750000000000000000 ) ;
#679 = CARTESIAN_POINT ( 'NONE',  ( -9.249999999999925393, -32.73050961363225042, 8.250000000000000000 ) ) ;
#680 = VECTOR ( 'NONE', #41, 1000.000000000000000 ) ;
#681 = DIRECTION ( 'NONE',  ( 0.000000000000000000, 0.000000000000000000, -1.000000000000000000 ) ) ;
#682 = EDGE_CURVE ( 'NONE', #239, #565, #566, .T. ) ;
#683 = DIRECTION ( 'NONE',  ( -1.000000000000000000, 0.000000000000000000, 0.000000000000000000 ) ) ;
#684 = AXIS2_PLACEMENT_3D ( 'NONE', #406, #627, #133 ) ;
#685 = CARTESIAN_POINT ( 'NONE',  ( 0.000000000000000000, 0.000000000000000000, -1.999999999999998224 ) ) ;
#686 = ORIENTED_EDGE ( 'NONE', *, *, #103, .F. ) ;
#687 = LINE ( 'NONE', #96, #546 ) ;
#688 = VERTEX_POINT ( 'NONE', #189 ) ;
#689 = LINE ( 'NONE', #503, #197 ) ;
#690 = EDGE_CURVE ( 'NONE', #314, #232, #717, .T. ) ;
#691 = LINE ( 'NONE', #631, #39 ) ;
#692 = ORIENTED_EDGE ( 'NONE', *, *, #277, .F. ) ;
#693 = ORIENTED_EDGE ( 'NONE', *, *, #136, .T. ) ;
#694 = FACE_OUTER_BOUND ( 'NONE', #156, .T. ) ;
#695 = LINE ( 'NONE', #76, #21 ) ;
#696 = VERTEX_POINT ( 'NONE', #298 ) ;
#697 = CARTESIAN_POINT ( 'NONE',  ( -13.99999999999991651, 13.49999999999995737, 0.000000000000000000 ) ) ;
#698 = VECTOR ( 'NONE', #641, 1000.000000000000000 ) ;
#699 = VERTEX_POINT ( 'NONE', #521 ) ;
#700 = CARTESIAN_POINT ( 'NONE',  ( -7.750000000000000000, -32.73050961363225042, 8.250000000000000000 ) ) ;
#701 = AXIS2_PLACEMENT_3D ( 'NONE', #467, #372, #477 ) ;
#702 = EDGE_CURVE ( 'NONE', #688, #217, #28, .T. ) ;
#703 = DIRECTION ( 'NONE',  ( 0.000000000000000000, 1.000000000000000000, 0.000000000000000000 ) ) ;
#704 = ORIENTED_EDGE ( 'NONE', *, *, #577, .T. ) ;
#705 = CARTESIAN_POINT ( 'NONE',  ( -15.99999999999991651, 13.49999999999995737, 10.00000000000000000 ) ) ;
#706 = FACE_OUTER_BOUND ( 'NONE', #34, .T. ) ;
#707 = DIRECTION ( 'NONE',  ( 0.000000000000000000, 1.000000000000000000, 0.000000000000000000 ) ) ;
#708 = ORIENTED_EDGE ( 'NONE', *, *, #321, .T. ) ;
#709 = CARTESIAN_POINT ( 'NONE',  ( 14.00000000000008171, -13.50000000000006750, 10.00000000000000000 ) ) ;
#710 = PLANE ( 'NONE',  #234 ) ;
#711 = EDGE_CURVE ( 'NONE', #274, #314, #719, .T. ) ;
#712 = ORIENTED_EDGE ( 'NONE', *, *, #720, .T. ) ;
#713 = DIRECTION ( 'NONE',  ( -0.000000000000000000, -0.000000000000000000, 1.000000000000000000 ) ) ;
#714 = TOROIDAL_SURFACE ( 'NONE', #71, 7.750000000000000000, 2.000000000000000000 ) ;
#715 = AXIS2_PLACEMENT_3D ( 'NONE', #140, #254, #194 ) ;
#716 = FILL_AREA_STYLE_COLOUR ( '', #347 ) ;
#717 = CIRCLE ( 'NONE', #684, 2.000000000000000000 ) ;
#718 = ORIENTED_EDGE ( 'NONE', *, *, #436, .T. ) ;
#719 = LINE ( 'NONE', #723, #428 ) ;
#720 = EDGE_CURVE ( 'NONE', #565, #688, #215, .T. ) ;
#721 = CARTESIAN_POINT ( 'NONE',  ( 16.00000000000008527, 11.49999999999995381, 0.000000000000000000 ) ) ;
#722 = ORIENTED_EDGE ( 'NONE', *, *, #59, .F. ) ;
#723 = CARTESIAN_POINT ( 'NONE',  ( 16.00000000000008527, 11.49999999999995559, 10.00000000000000000 ) ) ;
ENDSEC;
END-ISO-10303-21;
