ISO-10303-21;
HEADER;
FILE_DESCRIPTION (( 'STEP AP214' ),
    '1' );
FILE_NAME ('P001-B109_Winding_Plate_Attachment_2.STEP',
    '2026-04-23T23:08:28',
    ( '' ),
    ( '' ),
    'SwSTEP 2.0',
    'SolidWorks 2026',
    '' );
FILE_SCHEMA (( 'AUTOMOTIVE_DESIGN' ));
ENDSEC;

DATA;
#1 = FACE_OUTER_BOUND ( 'NONE', #693, .T. ) ;
#2 = EDGE_CURVE ( 'NONE', #541, #94, #549, .T. ) ;
#3 = DIRECTION ( 'NONE',  ( 0.000000000000000000, 0.000000000000000000, -1.000000000000000000 ) ) ;
#4 = ORIENTED_EDGE ( 'NONE', *, *, #130, .F. ) ;
#5 = DIRECTION ( 'NONE',  ( -1.000000000000000000, -1.224646799147353454E-16, 0.000000000000000000 ) ) ;
#6 = CIRCLE ( 'NONE', #67, 7.488573475632453125 ) ;
#7 = DIRECTION ( 'NONE',  ( 0.000000000000000000, 0.000000000000000000, -1.000000000000000000 ) ) ;
#8 = VERTEX_POINT ( 'NONE', #659 ) ;
#9 = DIRECTION ( 'NONE',  ( -1.224646799147353207E-16, 1.000000000000000000, 0.000000000000000000 ) ) ;
#10 = VECTOR ( 'NONE', #209, 1000.000000000000000 ) ;
#11 = CARTESIAN_POINT ( 'NONE',  ( -5.750000000000000000, 0.000000000000000000, 0.000000000000000000 ) ) ;
#12 = VERTEX_POINT ( 'NONE', #277 ) ;
#13 = DIRECTION ( 'NONE',  ( 1.000000000000000000, 0.000000000000000000, 0.000000000000000000 ) ) ;
#14 = FACE_OUTER_BOUND ( 'NONE', #233, .T. ) ;
#15 = VERTEX_POINT ( 'NONE', #667 ) ;
#16 = PRODUCT_DEFINITION_SHAPE ( 'NONE', 'NONE',  #554 ) ;
#17 =( NAMED_UNIT ( * ) SI_UNIT ( $, .STERADIAN. ) SOLID_ANGLE_UNIT ( ) );
#18 = AXIS2_PLACEMENT_3D ( 'NONE', #448, #506, #520 ) ;
#19 = DIRECTION ( 'NONE',  ( -1.000000000000000000, 0.000000000000000000, 0.000000000000000000 ) ) ;
#20 = EDGE_CURVE ( 'NONE', #541, #89, #494, .T. ) ;
#21 = VERTEX_POINT ( 'NONE', #159 ) ;
#22 = EDGE_CURVE ( 'NONE', #578, #316, #269, .T. ) ;
#23 =( NAMED_UNIT ( * ) SI_UNIT ( $, .STERADIAN. ) SOLID_ANGLE_UNIT ( ) );
#24 = VECTOR ( 'NONE', #226, 1000.000000000000000 ) ;
#25 = CARTESIAN_POINT ( 'NONE',  ( 3.220264975356947890, -5.344543745112938044E-16, -18.00000000000000000 ) ) ;
#26 = AXIS2_PLACEMENT_3D ( 'NONE', #391, #327, #268 ) ;
#27 = ORIENTED_EDGE ( 'NONE', *, *, #403, .T. ) ;
#28 = UNCERTAINTY_MEASURE_WITH_UNIT (LENGTH_MEASURE( 1.000000000000000082E-05 ), #299, 'distance_accuracy_value', 'NONE');
#29 = CARTESIAN_POINT ( 'NONE',  ( -15.99999999999991651, 13.49999999999995737, 10.00000000000000000 ) ) ;
#30 = VERTEX_POINT ( 'NONE', #432 ) ;
#31 = CARTESIAN_POINT ( 'NONE',  ( 16.00000000000008527, -13.50000000000006750, 10.00000000000000000 ) ) ;
#32 = ORIENTED_EDGE ( 'NONE', *, *, #631, .T. ) ;
#33 = VECTOR ( 'NONE', #337, 1000.000000000000000 ) ;
#34 = DIRECTION ( 'NONE',  ( 0.000000000000000000, 1.000000000000000000, 0.000000000000000000 ) ) ;
#35 = ORIENTED_EDGE ( 'NONE', *, *, #617, .F. ) ;
#36 = AXIS2_PLACEMENT_3D ( 'NONE', #29, #194, #651 ) ;
#37 = CARTESIAN_POINT ( 'NONE',  ( -7.750000000000000000, -32.73050961363225042, 8.250000000000000000 ) ) ;
#38 = DIRECTION ( 'NONE',  ( 0.000000000000000000, 0.000000000000000000, -1.000000000000000000 ) ) ;
#39 = DIRECTION ( 'NONE',  ( -1.000000000000000000, 0.000000000000000000, 0.000000000000000000 ) ) ;
#40 = EDGE_CURVE ( 'NONE', #316, #12, #547, .T. ) ;
#41 = ADVANCED_FACE ( 'NONE', ( #446 ), #654, .T. ) ;
#42 = LINE ( 'NONE', #265, #10 ) ;
#43 = ADVANCED_FACE ( 'NONE', ( #161 ), #492, .T. ) ;
#44 = LINE ( 'NONE', #158, #224 ) ;
#45 = CARTESIAN_POINT ( 'NONE',  ( 5.508037338149311068, -6.745400295748661009E-16, -1.721653798079876507 ) ) ;
#46 = EDGE_LOOP ( 'NONE', ( #627, #351, #109, #4 ) ) ;
#47 = VECTOR ( 'NONE', #168, 1000.000000000000000 ) ;
#48 = CARTESIAN_POINT ( 'NONE',  ( -13.99999999999991651, 11.49999999999995381, 10.00000000000000000 ) ) ;
#49 = LINE ( 'NONE', #274, #72 ) ;
#50 = ORIENTED_EDGE ( 'NONE', *, *, #251, .T. ) ;
#51 = EDGE_CURVE ( 'NONE', #162, #12, #108, .T. ) ;
#52 = FACE_OUTER_BOUND ( 'NONE', #46, .T. ) ;
#53 = CARTESIAN_POINT ( 'NONE',  ( -13.99999999999991651, -11.50000000000006750, 10.00000000000000000 ) ) ;
#54 = ORIENTED_EDGE ( 'NONE', *, *, #251, .F. ) ;
#55 = CARTESIAN_POINT ( 'NONE',  ( -9.249999999999925393, -32.73050961363225042, 8.250000000000000000 ) ) ;
#56 = CARTESIAN_POINT ( 'NONE',  ( 16.00000000000008527, 11.49999999999995381, 10.00000000000000000 ) ) ;
#57 = ORIENTED_EDGE ( 'NONE', *, *, #692, .F. ) ;
#58 = DIRECTION ( 'NONE',  ( 1.000000000000000000, 0.000000000000000000, -0.000000000000000000 ) ) ;
#59 = DIRECTION ( 'NONE',  ( 1.000000000000000000, 0.000000000000000000, 0.000000000000000000 ) ) ;
#60 = ORIENTED_EDGE ( 'NONE', *, *, #155, .T. ) ;
#61 = DIRECTION ( 'NONE',  ( -0.000000000000000000, -0.000000000000000000, 1.000000000000000000 ) ) ;
#62 = DIRECTION ( 'NONE',  ( -0.000000000000000000, -0.000000000000000000, 1.000000000000000000 ) ) ;
#63 = EDGE_CURVE ( 'NONE', #488, #525, #376, .T. ) ;
#64 = ORIENTED_EDGE ( 'NONE', *, *, #649, .T. ) ;
#65 = CARTESIAN_POINT ( 'NONE',  ( 7.750000000000001776, -12.50000000000007283, 8.249999999999998224 ) ) ;
#66 = EDGE_CURVE ( 'NONE', #246, #15, #112, .T. ) ;
#67 = AXIS2_PLACEMENT_3D ( 'NONE', #283, #225, #114 ) ;
#68 = DIRECTION ( 'NONE',  ( -1.000000000000000000, 0.000000000000000000, 0.000000000000000000 ) ) ;
#69 = VERTEX_POINT ( 'NONE', #165 ) ;
#70 = AXIS2_PLACEMENT_3D ( 'NONE', #338, #507, #577 ) ;
#71 = SURFACE_STYLE_FILL_AREA ( #571 ) ;
#72 = VECTOR ( 'NONE', #331, 1000.000000000000000 ) ;
#73 = VECTOR ( 'NONE', #422, 999.9999999999998863 ) ;
#74 = DIRECTION ( 'NONE',  ( -0.000000000000000000, 1.000000000000000000, -0.000000000000000000 ) ) ;
#75 =( GEOMETRIC_REPRESENTATION_CONTEXT ( 3 ) GLOBAL_UNCERTAINTY_ASSIGNED_CONTEXT ( ( #424 ) ) GLOBAL_UNIT_ASSIGNED_CONTEXT ( ( #243, #630, #23 ) ) REPRESENTATION_CONTEXT ( 'NONE', 'WORKASPACE' ) );
#76 = ORIENTED_EDGE ( 'NONE', *, *, #287, .T. ) ;
#77 = APPLICATION_CONTEXT ( 'automotive_design' ) ;
#78 = CARTESIAN_POINT ( 'NONE',  ( 9.249999999999928946, 13.49999999999995737, 8.249999999999998224 ) ) ;
#79 = ORIENTED_EDGE ( 'NONE', *, *, #670, .F. ) ;
#80 = VERTEX_POINT ( 'NONE', #56 ) ;
#81 = DIRECTION ( 'NONE',  ( 1.000000000000000000, 0.000000000000000000, 0.000000000000000000 ) ) ;
#82 = FACE_OUTER_BOUND ( 'NONE', #652, .T. ) ;
#83 = EDGE_LOOP ( 'NONE', ( #405, #450, #664, #570 ) ) ;
#84 = CARTESIAN_POINT ( 'NONE',  ( 0.000000000000000000, 0.000000000000000000, 0.000000000000000000 ) ) ;
#85 = VECTOR ( 'NONE', #669, 1000.000000000000000 ) ;
#86 = DIRECTION ( 'NONE',  ( -1.000000000000000000, 0.000000000000000000, 2.081668171172168829E-14 ) ) ;
#87 = ORIENTED_EDGE ( 'NONE', *, *, #102, .F. ) ;
#88 = DIRECTION ( 'NONE',  ( 0.000000000000000000, 0.000000000000000000, -1.000000000000000000 ) ) ;
#89 = VERTEX_POINT ( 'NONE', #45 ) ;
#90 = APPLICATION_CONTEXT ( 'automotive_design' ) ;
#91 = CARTESIAN_POINT ( 'NONE',  ( -15.99999999999991651, -13.50000000000006750, 0.000000000000000000 ) ) ;
#92 = ORIENTED_EDGE ( 'NONE', *, *, #661, .T. ) ;
#93 = CARTESIAN_POINT ( 'NONE',  ( -15.99999999999991651, 11.49999999999995381, 0.000000000000000000 ) ) ;
#94 = VERTEX_POINT ( 'NONE', #381 ) ;
#95 = AXIS2_PLACEMENT_3D ( 'NONE', #84, #581, #81 ) ;
#96 = ADVANCED_FACE ( 'NONE', ( #713 ), #214, .F. ) ;
#97 = FACE_OUTER_BOUND ( 'NONE', #289, .T. ) ;
#98 = DIRECTION ( 'NONE',  ( 0.000000000000000000, 0.000000000000000000, -1.000000000000000000 ) ) ;
#99 = CARTESIAN_POINT ( 'NONE',  ( -9.249999999999998224, -12.50000000000006750, 4.750000000000000888 ) ) ;
#100 = DIRECTION ( 'NONE',  ( -1.000000000000000000, 0.000000000000000000, 0.000000000000000000 ) ) ;
#101 = ORIENTED_EDGE ( 'NONE', *, *, #273, .T. ) ;
#102 = EDGE_CURVE ( 'NONE', #488, #195, #329, .T. ) ;
#103 = PLANE ( 'NONE',  #144 ) ;
#104 = DIRECTION ( 'NONE',  ( 0.000000000000000000, 0.000000000000000000, 1.000000000000000000 ) ) ;
#105 = CIRCLE ( 'NONE', #196, 2.000000000000000000 ) ;
#106 = CLOSED_SHELL ( 'NONE', ( #250, #374, #642, #41, #467, #294, #303, #258, #455, #545, #665, #458, #121, #437, #355, #333, #96, #717, #595, #43, #443, #361, #493 ) ) ;
#107 = CARTESIAN_POINT ( 'NONE',  ( -13.99999999999991651, 13.49999999999995737, 0.000000000000000000 ) ) ;
#108 = LINE ( 'NONE', #280, #401 ) ;
#109 = ORIENTED_EDGE ( 'NONE', *, *, #421, .F. ) ;
#110 = DIRECTION ( 'NONE',  ( -1.000000000000000000, 0.000000000000000000, 0.000000000000000000 ) ) ;
#111 = EDGE_CURVE ( 'NONE', #195, #8, #42, .T. ) ;
#112 = LINE ( 'NONE', #601, #271 ) ;
#113 = ORIENTED_EDGE ( 'NONE', *, *, #511, .T. ) ;
#114 = DIRECTION ( 'NONE',  ( -1.000000000000000000, 0.000000000000000000, 0.000000000000000000 ) ) ;
#115 = CARTESIAN_POINT ( 'NONE',  ( -15.99999999999991651, -13.50000000000006750, 10.00000000000000000 ) ) ;
#116 = ORIENTED_EDGE ( 'NONE', *, *, #356, .F. ) ;
#117 = TOROIDAL_SURFACE ( 'NONE', #166, 7.488573475632453125, 2.000000000000000000 ) ;
#118 = VECTOR ( 'NONE', #636, 1000.000000000000000 ) ;
#119 = FACE_OUTER_BOUND ( 'NONE', #215, .T. ) ;
#120 = EDGE_CURVE ( 'NONE', #528, #340, #293, .T. ) ;
#121 = ADVANCED_FACE ( 'NONE', ( #440 ), #221, .F. ) ;
#122 = CARTESIAN_POINT ( 'NONE',  ( -13.99999999999991651, 11.49999999999995381, 10.00000000000000000 ) ) ;
#123 = EDGE_LOOP ( 'NONE', ( #640, #57, #223, #326 ) ) ;
#124 = LINE ( 'NONE', #451, #605 ) ;
#125 = DIRECTION ( 'NONE',  ( 1.000000000000000000, 0.000000000000000000, 0.000000000000000000 ) ) ;
#126 = ORIENTED_EDGE ( 'NONE', *, *, #193, .T. ) ;
#127 = FILL_AREA_STYLE_COLOUR ( '', #362 ) ;
#128 = CARTESIAN_POINT ( 'NONE',  ( -7.750000000000000000, -12.50000000000006750, 10.00000000000000000 ) ) ;
#129 = ORIENTED_EDGE ( 'NONE', *, *, #306, .F. ) ;
#130 = EDGE_CURVE ( 'NONE', #304, #180, #49, .T. ) ;
#131 = AXIS2_PLACEMENT_3D ( 'NONE', #182, #3, #452 ) ;
#132 = VECTOR ( 'NONE', #252, 1000.000000000000000 ) ;
#133 = DIRECTION ( 'NONE',  ( 0.000000000000000000, 0.000000000000000000, -1.000000000000000000 ) ) ;
#134 = ORIENTED_EDGE ( 'NONE', *, *, #377, .T. ) ;
#135 = ORIENTED_EDGE ( 'NONE', *, *, #561, .F. ) ;
#136 = LINE ( 'NONE', #359, #368 ) ;
#137 = ORIENTED_EDGE ( 'NONE', *, *, #175, .F. ) ;
#138 = CARTESIAN_POINT ( 'NONE',  ( 0.000000000000000000, 0.000000000000000000, 0.000000000000000000 ) ) ;
#139 = ORIENTED_EDGE ( 'NONE', *, *, #389, .T. ) ;
#140 = CARTESIAN_POINT ( 'NONE',  ( -13.99999999999991651, 13.49999999999995737, 10.00000000000000000 ) ) ;
#141 = VECTOR ( 'NONE', #133, 1000.000000000000000 ) ;
#142 = FACE_OUTER_BOUND ( 'NONE', #482, .T. ) ;
#143 = EDGE_CURVE ( 'NONE', #12, #15, #555, .T. ) ;
#144 = AXIS2_PLACEMENT_3D ( 'NONE', #37, #708, #207 ) ;
#145 = ORIENTED_EDGE ( 'NONE', *, *, #617, .T. ) ;
#146 = PRODUCT_DEFINITION_CONTEXT ( 'detailed design', #90, 'design' ) ;
#147 = EDGE_CURVE ( 'NONE', #509, #246, #633, .T. ) ;
#148 = PLANE ( 'NONE',  #480 ) ;
#149 = ORIENTED_EDGE ( 'NONE', *, *, #63, .F. ) ;
#150 = CARTESIAN_POINT ( 'NONE',  ( -9.249999999999925393, 13.49999999999995737, 8.250000000000000000 ) ) ;
#151 = AXIS2_PLACEMENT_3D ( 'NONE', #687, #9, #5 ) ;
#152 = ORIENTED_EDGE ( 'NONE', *, *, #210, .T. ) ;
#153 = EDGE_CURVE ( 'NONE', #597, #30, #407, .T. ) ;
#154 = FACE_OUTER_BOUND ( 'NONE', #123, .T. ) ;
#155 = EDGE_CURVE ( 'NONE', #615, #488, #284, .T. ) ;
#156 = DIRECTION ( 'NONE',  ( -0.000000000000000000, 1.000000000000000000, -0.000000000000000000 ) ) ;
#157 = TOROIDAL_SURFACE ( 'NONE', #414, 7.488573475632453125, 2.000000000000000000 ) ;
#158 = CARTESIAN_POINT ( 'NONE',  ( -15.99999999999991651, 11.49999999999995381, 10.00000000000000000 ) ) ;
#159 = CARTESIAN_POINT ( 'NONE',  ( 7.750000000000001776, 13.49999999999995737, 8.249999999999998224 ) ) ;
#160 = CARTESIAN_POINT ( 'NONE',  ( 16.00000000000008527, -13.50000000000006750, 10.00000000000000000 ) ) ;
#161 = FACE_OUTER_BOUND ( 'NONE', #187, .T. ) ;
#162 = VERTEX_POINT ( 'NONE', #343 ) ;
#163 = VECTOR ( 'NONE', #514, 1000.000000000000000 ) ;
#164 = CARTESIAN_POINT ( 'NONE',  ( 16.00000000000008527, 11.49999999999995559, 10.00000000000000000 ) ) ;
#165 = CARTESIAN_POINT ( 'NONE',  ( -9.249999999999925393, -12.50000000000006750, 8.250000000000000000 ) ) ;
#166 = AXIS2_PLACEMENT_3D ( 'NONE', #573, #7, #516 ) ;
#167 = EDGE_CURVE ( 'NONE', #528, #541, #449, .T. ) ;
#168 = DIRECTION ( 'NONE',  ( 0.000000000000000000, 1.000000000000000000, 0.000000000000000000 ) ) ;
#169 = ORIENTED_EDGE ( 'NONE', *, *, #253, .F. ) ;
#170 = DIRECTION ( 'NONE',  ( -0.000000000000000000, 0.000000000000000000, -1.000000000000000000 ) ) ;
#171 = CARTESIAN_POINT ( 'NONE',  ( 9.250000000000000000, -12.50000000000006750, 4.750000000000003553 ) ) ;
#172 = ORIENTED_EDGE ( 'NONE', *, *, #111, .F. ) ;
#173 = EDGE_CURVE ( 'NONE', #21, #714, #629, .T. ) ;
#174 = PLANE ( 'NONE',  #420 ) ;
#175 = EDGE_CURVE ( 'NONE', #246, #162, #291, .T. ) ;
#176 = ORIENTED_EDGE ( 'NONE', *, *, #638, .F. ) ;
#177 = AXIS2_PLACEMENT_3D ( 'NONE', #603, #100, #104 ) ;
#178 = CARTESIAN_POINT ( 'NONE',  ( -15.99999999999991651, -11.50000000000006750, 0.000000000000000000 ) ) ;
#179 = DIRECTION ( 'NONE',  ( -1.000000000000000000, 0.000000000000000000, 0.000000000000000000 ) ) ;
#180 = VERTEX_POINT ( 'NONE', #684 ) ;
#181 = LINE ( 'NONE', #55, #641 ) ;
#182 = CARTESIAN_POINT ( 'NONE',  ( 14.00000000000008171, 11.49999999999995559, 0.000000000000000000 ) ) ;
#183 = EDGE_CURVE ( 'NONE', #195, #681, #463, .T. ) ;
#184 = ORIENTED_EDGE ( 'NONE', *, *, #20, .F. ) ;
#185 = LINE ( 'NONE', #231, #430 ) ;
#186 = DIRECTION ( 'NONE',  ( -0.000000000000000000, -0.000000000000000000, 1.000000000000000000 ) ) ;
#187 = EDGE_LOOP ( 'NONE', ( #470, #354, #531, #54, #574, #580, #524, #137 ) ) ;
#188 = PRESENTATION_STYLE_ASSIGNMENT (( #308 ) ) ;
#189 = CARTESIAN_POINT ( 'NONE',  ( 7.750000000000001776, 13.49999999999995737, 8.249999999999998224 ) ) ;
#190 = ORIENTED_EDGE ( 'NONE', *, *, #306, .T. ) ;
#191 = DIRECTION ( 'NONE',  ( 2.032104643287119632E-14, -0.000000000000000000, -1.000000000000000000 ) ) ;
#192 = ORIENTED_EDGE ( 'NONE', *, *, #586, .T. ) ;
#193 = EDGE_CURVE ( 'NONE', #556, #714, #566, .T. ) ;
#194 = DIRECTION ( 'NONE',  ( 0.000000000000000000, 1.000000000000000000, 0.000000000000000000 ) ) ;
#195 = VERTEX_POINT ( 'NONE', #300 ) ;
#196 = AXIS2_PLACEMENT_3D ( 'NONE', #569, #186, #19 ) ;
#197 = AXIS2_PLACEMENT_3D ( 'NONE', #592, #700, #38 ) ;
#198 = LINE ( 'NONE', #91, #412 ) ;
#199 = VERTEX_POINT ( 'NONE', #229 ) ;
#200 = CARTESIAN_POINT ( 'NONE',  ( 9.249999999999928946, -32.73050961363225042, 8.249999999999998224 ) ) ;
#201 = CARTESIAN_POINT ( 'NONE',  ( 5.750000000000000000, -7.041719095097280880E-16, 0.000000000000000000 ) ) ;
#202 = EDGE_CURVE ( 'NONE', #89, #541, #434, .T. ) ;
#203 = ORIENTED_EDGE ( 'NONE', *, *, #297, .T. ) ;
#204 = FACE_OUTER_BOUND ( 'NONE', #372, .T. ) ;
#205 = CIRCLE ( 'NONE', #441, 7.488573475632453125 ) ;
#206 = CARTESIAN_POINT ( 'NONE',  ( 0.000000000000000000, 0.000000000000000000, -1.721653798079876507 ) ) ;
#207 = DIRECTION ( 'NONE',  ( 1.000000000000000000, 0.000000000000000000, -0.000000000000000000 ) ) ;
#208 = CIRCLE ( 'NONE', #398, 2.000000000000000000 ) ;
#209 = DIRECTION ( 'NONE',  ( 0.000000000000000000, 0.000000000000000000, -1.000000000000000000 ) ) ;
#210 = EDGE_CURVE ( 'NONE', #30, #199, #479, .T. ) ;
#211 = CONICAL_SURFACE ( 'NONE', #680, 5.750000000000000000, 0.1396263401595466691 ) ;
#212 = ORIENTED_EDGE ( 'NONE', *, *, #22, .T. ) ;
#213 = DIRECTION ( 'NONE',  ( -1.000000000000000000, 0.000000000000000000, 0.000000000000000000 ) ) ;
#214 = PLANE ( 'NONE',  #235 ) ;
#215 = EDGE_LOOP ( 'NONE', ( #475, #710, #134, #35 ) ) ;
#216 = DIRECTION ( 'NONE',  ( -0.000000000000000000, -0.000000000000000000, 1.000000000000000000 ) ) ;
#217 = DIRECTION ( 'NONE',  ( -1.000000000000000000, 0.000000000000000000, -0.000000000000000000 ) ) ;
#218 = EDGE_LOOP ( 'NONE', ( #485, #459, #245, #390 ) ) ;
#219 = CIRCLE ( 'NONE', #325, 2.000000000000000000 ) ;
#220 = FACE_OUTER_BOUND ( 'NONE', #685, .T. ) ;
#221 = PLANE ( 'NONE',  #385 ) ;
#222 = VECTOR ( 'NONE', #241, 1000.000000000000000 ) ;
#223 = ORIENTED_EDGE ( 'NONE', *, *, #616, .F. ) ;
#224 = VECTOR ( 'NONE', #712, 1000.000000000000000 ) ;
#225 = DIRECTION ( 'NONE',  ( -0.000000000000000000, -0.000000000000000000, 1.000000000000000000 ) ) ;
#226 = DIRECTION ( 'NONE',  ( 1.000000000000000000, -0.000000000000000000, -0.000000000000000000 ) ) ;
#227 = VERTEX_POINT ( 'NONE', #674 ) ;
#228 = CARTESIAN_POINT ( 'NONE',  ( 9.249999999999928946, -12.50000000000006750, 8.249999999999998224 ) ) ;
#229 = CARTESIAN_POINT ( 'NONE',  ( 16.00000000000008527, 11.49999999999995381, 0.000000000000000000 ) ) ;
#230 = ORIENTED_EDGE ( 'NONE', *, *, #590, .T. ) ;
#231 = CARTESIAN_POINT ( 'NONE',  ( 16.00000000000008527, -13.50000000000006750, 0.000000000000000000 ) ) ;
#232 = CARTESIAN_POINT ( 'NONE',  ( 14.00000000000008171, 11.49999999999995559, 10.00000000000000000 ) ) ;
#233 = EDGE_LOOP ( 'NONE', ( #79, #689, #544, #266, #203, #370, #495, #152 ) ) ;
#234 = AXIS2_PLACEMENT_3D ( 'NONE', #232, #457, #179 ) ;
#235 = AXIS2_PLACEMENT_3D ( 'NONE', #386, #709, #328 ) ;
#236 = CARTESIAN_POINT ( 'NONE',  ( -15.99999999999991651, 13.49999999999995737, 10.00000000000000000 ) ) ;
#237 = AXIS2_PLACEMENT_3D ( 'NONE', #324, #558, #718 ) ;
#238 = DIRECTION ( 'NONE',  ( -0.1391731009600657432, 0.000000000000000000, 0.9902680687415703620 ) ) ;
#239 = ORIENTED_EDGE ( 'NONE', *, *, #366, .T. ) ;
#240 = LINE ( 'NONE', #286, #382 ) ;
#241 = DIRECTION ( 'NONE',  ( 0.000000000000000000, 0.000000000000000000, -1.000000000000000000 ) ) ;
#242 = ORIENTED_EDGE ( 'NONE', *, *, #683, .T. ) ;
#243 =( LENGTH_UNIT ( ) NAMED_UNIT ( * ) SI_UNIT ( .MILLI., .METRE. ) );
#244 = FACE_OUTER_BOUND ( 'NONE', #400, .T. ) ;
#245 = ORIENTED_EDGE ( 'NONE', *, *, #670, .T. ) ;
#246 = VERTEX_POINT ( 'NONE', #563 ) ;
#247 = AXIS2_PLACEMENT_3D ( 'NONE', #600, #653, #606 ) ;
#248 = CARTESIAN_POINT ( 'NONE',  ( -9.249999999999925393, -32.73050961363225042, 8.250000000000000000 ) ) ;
#249 = ORIENTED_EDGE ( 'NONE', *, *, #389, .F. ) ;
#250 = ADVANCED_FACE ( 'NONE', ( #722 ), #117, .F. ) ;
#251 = EDGE_CURVE ( 'NONE', #645, #556, #672, .T. ) ;
#252 = DIRECTION ( 'NONE',  ( -0.000000000000000000, -0.000000000000000000, -1.000000000000000000 ) ) ;
#253 = EDGE_CURVE ( 'NONE', #8, #615, #208, .T. ) ;
#254 = ORIENTED_EDGE ( 'NONE', *, *, #51, .F. ) ;
#255 = DIRECTION ( 'NONE',  ( 0.000000000000000000, 0.000000000000000000, 1.000000000000000000 ) ) ;
#256 = CIRCLE ( 'NONE', #151, 2.000000000000000000 ) ;
#257 = ORIENTED_EDGE ( 'NONE', *, *, #183, .F. ) ;
#258 = ADVANCED_FACE ( 'NONE', ( #521, #14 ), #346, .T. ) ;
#259 = FACE_OUTER_BOUND ( 'NONE', #218, .T. ) ;
#260 = ORIENTED_EDGE ( 'NONE', *, *, #153, .T. ) ;
#261 = PLANE ( 'NONE',  #26 ) ;
#262 = ORIENTED_EDGE ( 'NONE', *, *, #120, .T. ) ;
#263 = LINE ( 'NONE', #658, #307 ) ;
#264 = VECTOR ( 'NONE', #410, 1000.000000000000000 ) ;
#265 = CARTESIAN_POINT ( 'NONE',  ( -13.99999999999991651, -13.50000000000006750, 0.000000000000000000 ) ) ;
#266 = ORIENTED_EDGE ( 'NONE', *, *, #253, .T. ) ;
#267 = PRESENTATION_LAYER_ASSIGNMENT (  '', '', ( #453 ) ) ;
#268 = DIRECTION ( 'NONE',  ( 0.000000000000000000, -0.000000000000000000, 1.000000000000000000 ) ) ;
#269 = LINE ( 'NONE', #379, #589 ) ;
#270 = EDGE_CURVE ( 'NONE', #360, #525, #720, .T. ) ;
#271 = VECTOR ( 'NONE', #321, 1000.000000000000000 ) ;
#272 = LINE ( 'NONE', #160, #47 ) ;
#273 = EDGE_CURVE ( 'NONE', #80, #597, #677, .T. ) ;
#274 = CARTESIAN_POINT ( 'NONE',  ( 16.00000000000008527, -11.50000000000006750, 10.00000000000000000 ) ) ;
#275 = ORIENTED_EDGE ( 'NONE', *, *, #173, .F. ) ;
#276 = CYLINDRICAL_SURFACE ( 'NONE', #711, 2.000000000000000000 ) ;
#277 = CARTESIAN_POINT ( 'NONE',  ( -7.750000000000000000, 13.49999999999995737, 8.250000000000000000 ) ) ;
#278 = SURFACE_SIDE_STYLE ('',( #71 ) ) ;
#279 = EDGE_CURVE ( 'NONE', #498, #30, #404, .T. ) ;
#280 = CARTESIAN_POINT ( 'NONE',  ( -7.750000000000000000, -32.73050961363225042, 8.250000000000000000 ) ) ;
#281 = ORIENTED_EDGE ( 'NONE', *, *, #675, .F. ) ;
#282 = AXIS2_PLACEMENT_3D ( 'NONE', #540, #216, #323 ) ;
#283 = CARTESIAN_POINT ( 'NONE',  ( 0.000000000000000000, 0.000000000000000000, 0.000000000000000000 ) ) ;
#284 = LINE ( 'NONE', #626, #350 ) ;
#285 = ORIENTED_EDGE ( 'NONE', *, *, #167, .F. ) ;
#286 = CARTESIAN_POINT ( 'NONE',  ( 7.750000000000001776, -32.73050961363225042, 8.249999999999998224 ) ) ;
#287 = EDGE_CURVE ( 'NONE', #681, #304, #105, .T. ) ;
#288 = CARTESIAN_POINT ( 'NONE',  ( -13.99999999999991651, -11.50000000000006750, 0.000000000000000000 ) ) ;
#289 = EDGE_LOOP ( 'NONE', ( #176, #184, #298, #695 ) ) ;
#290 = CARTESIAN_POINT ( 'NONE',  ( 7.750000000000001776, 13.49999999999995737, 9.999999999999998224 ) ) ;
#291 = LINE ( 'NONE', #353, #141 ) ;
#292 = EDGE_LOOP ( 'NONE', ( #336, #620, #703, #281, #650, #149, #311, #538, #76, #332, #101, #135 ) ) ;
#293 = CIRCLE ( 'NONE', #701, 3.220264975356947890 ) ;
#294 = ADVANCED_FACE ( 'NONE', ( #259 ), #302, .F. ) ;
#295 = PLANE ( 'NONE',  #18 ) ;
#296 = CARTESIAN_POINT ( 'NONE',  ( 14.00000000000008171, 13.49999999999995737, 0.000000000000000000 ) ) ;
#297 = EDGE_CURVE ( 'NONE', #615, #375, #198, .T. ) ;
#298 = ORIENTED_EDGE ( 'NONE', *, *, #2, .T. ) ;
#299 =( LENGTH_UNIT ( ) NAMED_UNIT ( * ) SI_UNIT ( .MILLI., .METRE. ) );
#300 = CARTESIAN_POINT ( 'NONE',  ( -13.99999999999991651, -13.50000000000006750, 10.00000000000000000 ) ) ;
#301 = ORIENTED_EDGE ( 'NONE', *, *, #297, .F. ) ;
#302 = PLANE ( 'NONE',  #609 ) ;
#303 = ADVANCED_FACE ( 'NONE', ( #142 ), #477, .T. ) ;
#304 = VERTEX_POINT ( 'NONE', #699 ) ;
#305 = VECTOR ( 'NONE', #238, 999.9999999999998863 ) ;
#306 = EDGE_CURVE ( 'NONE', #340, #89, #425, .T. ) ;
#307 = VECTOR ( 'NONE', #550, 1000.000000000000000 ) ;
#308 = SURFACE_STYLE_USAGE ( .BOTH. , #278 ) ;
#309 = AXIS2_PLACEMENT_3D ( 'NONE', #582, #639, #213 ) ;
#310 = CARTESIAN_POINT ( 'NONE',  ( 7.750000000000001776, -12.50000000000006750, 8.249999999999998224 ) ) ;
#311 = ORIENTED_EDGE ( 'NONE', *, *, #102, .T. ) ;
#312 = LINE ( 'NONE', #694, #387 ) ;
#313 = ORIENTED_EDGE ( 'NONE', *, *, #377, .F. ) ;
#314 = CARTESIAN_POINT ( 'NONE',  ( 9.249999999999928946, 13.49999999999995737, 8.249999999999998224 ) ) ;
#315 = FACE_OUTER_BOUND ( 'NONE', #478, .T. ) ;
#316 = VERTEX_POINT ( 'NONE', #150 ) ;
#317 = VECTOR ( 'NONE', #399, 1000.000000000000000 ) ;
#318 = CARTESIAN_POINT ( 'NONE',  ( -15.99999999999991651, 11.49999999999995381, 10.00000000000000000 ) ) ;
#319 = ORIENTED_EDGE ( 'NONE', *, *, #279, .F. ) ;
#320 = DIRECTION ( 'NONE',  ( 0.000000000000000000, 0.000000000000000000, -1.000000000000000000 ) ) ;
#321 = DIRECTION ( 'NONE',  ( -0.000000000000000000, 1.000000000000000000, -0.000000000000000000 ) ) ;
#322 = ORIENTED_EDGE ( 'NONE', *, *, #63, .T. ) ;
#323 = DIRECTION ( 'NONE',  ( -1.000000000000000000, 0.000000000000000000, 0.000000000000000000 ) ) ;
#324 = CARTESIAN_POINT ( 'NONE',  ( -15.99999999999991651, -12.50000000000006750, 10.00000000000000000 ) ) ;
#325 = AXIS2_PLACEMENT_3D ( 'NONE', #347, #560, #502 ) ;
#326 = ORIENTED_EDGE ( 'NONE', *, *, #433, .F. ) ;
#327 = DIRECTION ( 'NONE',  ( 0.000000000000000000, 1.000000000000000000, 0.000000000000000000 ) ) ;
#328 = DIRECTION ( 'NONE',  ( 2.032104643287119632E-14, 0.000000000000000000, -1.000000000000000000 ) ) ;
#329 = CIRCLE ( 'NONE', #646, 2.000000000000000000 ) ;
#330 = CARTESIAN_POINT ( 'NONE',  ( -3.220264975356947890, 0.000000000000000000, -18.00000000000000000 ) ) ;
#331 = DIRECTION ( 'NONE',  ( 0.000000000000000000, 0.000000000000000000, -1.000000000000000000 ) ) ;
#332 = ORIENTED_EDGE ( 'NONE', *, *, #427, .T. ) ;
#333 = ADVANCED_FACE ( 'NONE', ( #82 ), #596, .F. ) ;
#334 = CARTESIAN_POINT ( 'NONE',  ( 14.00000000000008171, -13.50000000000006750, 10.00000000000000000 ) ) ;
#335 = DIRECTION ( 'NONE',  ( 2.081668171172168829E-14, -0.000000000000000000, 1.000000000000000000 ) ) ;
#336 = ORIENTED_EDGE ( 'NONE', *, *, #388, .F. ) ;
#337 = DIRECTION ( 'NONE',  ( 1.000000000000000000, 0.000000000000000000, 0.000000000000000000 ) ) ;
#338 = CARTESIAN_POINT ( 'NONE',  ( 0.000000000000000000, 0.000000000000000000, -1.721653798079876507 ) ) ;
#339 = AXIS2_PLACEMENT_3D ( 'NONE', #499, #716, #39 ) ;
#340 = VERTEX_POINT ( 'NONE', #25 ) ;
#341 = MECHANICAL_DESIGN_GEOMETRIC_PRESENTATION_REPRESENTATION (  '', ( #453 ), #75 ) ;
#342 = LINE ( 'NONE', #402, #163 ) ;
#343 = CARTESIAN_POINT ( 'NONE',  ( -7.750000000000000000, -12.50000000000006750, 8.250000000000000000 ) ) ;
#344 = EDGE_LOOP ( 'NONE', ( #471, #429, #517, #584 ) ) ;
#345 = CARTESIAN_POINT ( 'NONE',  ( 14.00000000000008171, 13.49999999999995737, 10.00000000000000000 ) ) ;
#346 = PLANE ( 'NONE',  #572 ) ;
#347 = CARTESIAN_POINT ( 'NONE',  ( -13.99999999999991651, 11.49999999999995381, 0.000000000000000000 ) ) ;
#348 = CARTESIAN_POINT ( 'NONE',  ( 9.249999999999928946, -32.73050961363225042, 8.249999999999998224 ) ) ;
#349 = ORIENTED_EDGE ( 'NONE', *, *, #193, .F. ) ;
#350 = VECTOR ( 'NONE', #62, 1000.000000000000000 ) ;
#351 = ORIENTED_EDGE ( 'NONE', *, *, #661, .F. ) ;
#352 = FACE_OUTER_BOUND ( 'NONE', #408, .T. ) ;
#353 = CARTESIAN_POINT ( 'NONE',  ( -7.750000000000000000, -12.50000000000006750, 10.00000000000000000 ) ) ;
#354 = ORIENTED_EDGE ( 'NONE', *, *, #413, .F. ) ;
#355 = ADVANCED_FACE ( 'NONE', ( #648 ), #148, .F. ) ;
#356 = EDGE_CURVE ( 'NONE', #698, #578, #697, .T. ) ;
#357 = ORIENTED_EDGE ( 'NONE', *, *, #173, .T. ) ;
#358 = APPLICATION_PROTOCOL_DEFINITION ( 'draft international standard', 'automotive_design', 1998, #77 ) ;
#359 = CARTESIAN_POINT ( 'NONE',  ( 9.250000000000000000, 13.49999999999995737, 4.750000000000003553 ) ) ;
#360 = VERTEX_POINT ( 'NONE', #373 ) ;
#361 = ADVANCED_FACE ( 'NONE', ( #315 ), #469, .T. ) ;
#362 = COLOUR_RGB ( '',0.7921568627450980005, 0.8196078431372548767, 0.9333333333333333481 ) ;
#363 = DIRECTION ( 'NONE',  ( 1.000000000000000000, 0.000000000000000000, -0.000000000000000000 ) ) ;
#364 = DIRECTION ( 'NONE',  ( 1.406532548089303782E-16, 0.000000000000000000, -1.000000000000000000 ) ) ;
#365 = ORIENTED_EDGE ( 'NONE', *, *, #155, .F. ) ;
#366 = EDGE_CURVE ( 'NONE', #8, #423, #533, .T. ) ;
#367 = CARTESIAN_POINT ( 'NONE',  ( 9.250000000000000000, 13.49999999999995737, 4.750000000000003553 ) ) ;
#368 = VECTOR ( 'NONE', #191, 1000.000000000000000 ) ;
#369 = DIRECTION ( 'NONE',  ( -0.000000000000000000, 1.000000000000000000, -0.000000000000000000 ) ) ;
#370 = ORIENTED_EDGE ( 'NONE', *, *, #616, .T. ) ;
#371 = DIRECTION ( 'NONE',  ( -1.000000000000000000, 0.000000000000000000, -0.000000000000000000 ) ) ;
#372 = EDGE_LOOP ( 'NONE', ( #192, #242, #691, #254 ) ) ;
#373 = CARTESIAN_POINT ( 'NONE',  ( -13.99999999999991651, 13.49999999999995737, 10.00000000000000000 ) ) ;
#374 = ADVANCED_FACE ( 'NONE', ( #244 ), #211, .T. ) ;
#375 = VERTEX_POINT ( 'NONE', #93 ) ;
#376 = LINE ( 'NONE', #392, #647 ) ;
#377 = EDGE_CURVE ( 'NONE', #634, #21, #593, .T. ) ;
#378 = DIRECTION ( 'NONE',  ( -1.000000000000000000, 0.000000000000000000, 0.000000000000000000 ) ) ;
#379 = CARTESIAN_POINT ( 'NONE',  ( -9.249999999999925393, 13.49999999999995737, 8.250000000000000000 ) ) ;
#380 = CYLINDRICAL_SURFACE ( 'NONE', #247, 2.000000000000000000 ) ;
#381 = CARTESIAN_POINT ( 'NONE',  ( -7.488573475632453125, 0.000000000000000000, 0.000000000000000000 ) ) ;
#382 = VECTOR ( 'NONE', #394, 1000.000000000000000 ) ;
#383 = EDGE_LOOP ( 'NONE', ( #230, #139, #212, #454 ) ) ;
#384 = CARTESIAN_POINT ( 'NONE',  ( 7.488573475632453125, 9.170857537113052424E-16, 0.000000000000000000 ) ) ;
#385 = AXIS2_PLACEMENT_3D ( 'NONE', #663, #217, #612 ) ;
#386 = CARTESIAN_POINT ( 'NONE',  ( 9.250000000000000000, -32.73050961363225042, 4.750000000000003553 ) ) ;
#387 = VECTOR ( 'NONE', #369, 1000.000000000000000 ) ;
#388 = EDGE_CURVE ( 'NONE', #509, #634, #416, .T. ) ;
#389 = EDGE_CURVE ( 'NONE', #227, #578, #312, .T. ) ;
#390 = ORIENTED_EDGE ( 'NONE', *, *, #518, .T. ) ;
#391 = CARTESIAN_POINT ( 'NONE',  ( -15.99999999999991651, -13.50000000000006750, 10.00000000000000000 ) ) ;
#392 = CARTESIAN_POINT ( 'NONE',  ( -15.99999999999991651, -13.50000000000006750, 10.00000000000000000 ) ) ;
#393 = ORIENTED_EDGE ( 'NONE', *, *, #20, .T. ) ;
#394 = DIRECTION ( 'NONE',  ( -0.000000000000000000, 1.000000000000000000, -0.000000000000000000 ) ) ;
#395 = DIRECTION ( 'NONE',  ( 0.000000000000000000, 0.000000000000000000, -1.000000000000000000 ) ) ;
#396 = ORIENTED_EDGE ( 'NONE', *, *, #202, .T. ) ;
#397 = CYLINDRICAL_SURFACE ( 'NONE', #706, 2.000000000000001776 ) ;
#398 = AXIS2_PLACEMENT_3D ( 'NONE', #288, #395, #68 ) ;
#399 = DIRECTION ( 'NONE',  ( -2.032104643287119632E-14, 0.000000000000000000, 1.000000000000000000 ) ) ;
#400 = EDGE_LOOP ( 'NONE', ( #559, #190, #396, #285 ) ) ;
#401 = VECTOR ( 'NONE', #156, 1000.000000000000000 ) ;
#402 = CARTESIAN_POINT ( 'NONE',  ( -7.750000000000000000, -12.50000000000006750, 8.250000000000000000 ) ) ;
#403 = EDGE_CURVE ( 'NONE', #714, #698, #136, .T. ) ;
#404 = LINE ( 'NONE', #411, #515 ) ;
#405 = ORIENTED_EDGE ( 'NONE', *, *, #175, .T. ) ;
#406 = DIRECTION ( 'NONE',  ( -0.000000000000000000, 1.000000000000000000, -0.000000000000000000 ) ) ;
#407 = LINE ( 'NONE', #296, #222 ) ;
#408 = EDGE_LOOP ( 'NONE', ( #505, #145, #357, #349 ) ) ;
#409 = VECTOR ( 'NONE', #510, 1000.000000000000000 ) ;
#410 = DIRECTION ( 'NONE',  ( 1.000000000000000000, 0.000000000000000000, 0.000000000000000000 ) ) ;
#411 = CARTESIAN_POINT ( 'NONE',  ( -15.99999999999991651, 13.49999999999995737, 0.000000000000000000 ) ) ;
#412 = VECTOR ( 'NONE', #34, 1000.000000000000000 ) ;
#413 = EDGE_CURVE ( 'NONE', #604, #509, #474, .T. ) ;
#414 = AXIS2_PLACEMENT_3D ( 'NONE', #439, #320, #611 ) ;
#415 = AXIS2_PLACEMENT_3D ( 'NONE', #428, #88, #371 ) ;
#416 = LINE ( 'NONE', #585, #118 ) ;
#417 = ORIENTED_EDGE ( 'NONE', *, *, #692, .T. ) ;
#418 = DIRECTION ( 'NONE',  ( 0.000000000000000000, -0.000000000000000000, 1.000000000000000000 ) ) ;
#419 = ORIENTED_EDGE ( 'NONE', *, *, #22, .F. ) ;
#420 = AXIS2_PLACEMENT_3D ( 'NONE', #721, #58, #170 ) ;
#421 = EDGE_CURVE ( 'NONE', #180, #423, #623, .T. ) ;
#422 = DIRECTION ( 'NONE',  ( 0.1391731009600657432, -1.704378926181559679E-17, 0.9902680687415703620 ) ) ;
#423 = VERTEX_POINT ( 'NONE', #715 ) ;
#424 = UNCERTAINTY_MEASURE_WITH_UNIT (LENGTH_MEASURE( 1.000000000000000082E-05 ), #243, 'distance_accuracy_value', 'NONE');
#425 = LINE ( 'NONE', #201, #73 ) ;
#426 = VERTEX_POINT ( 'NONE', #384 ) ;
#427 = EDGE_CURVE ( 'NONE', #304, #80, #272, .T. ) ;
#428 = CARTESIAN_POINT ( 'NONE',  ( 0.000000000000000000, 0.000000000000000000, -18.00000000000000000 ) ) ;
#429 = ORIENTED_EDGE ( 'NONE', *, *, #638, .T. ) ;
#430 = VECTOR ( 'NONE', #557, 1000.000000000000000 ) ;
#431 = FACE_OUTER_BOUND ( 'NONE', #513, .T. ) ;
#432 = CARTESIAN_POINT ( 'NONE',  ( 14.00000000000008171, 13.49999999999995737, 0.000000000000000000 ) ) ;
#433 = EDGE_CURVE ( 'NONE', #525, #375, #44, .T. ) ;
#434 = CIRCLE ( 'NONE', #70, 5.508037338149311068 ) ;
#435 = VECTOR ( 'NONE', #662, 1000.000000000000000 ) ;
#436 = FACE_OUTER_BOUND ( 'NONE', #567, .T. ) ;
#437 = ADVANCED_FACE ( 'NONE', ( #204 ), #103, .F. ) ;
#438 = CARTESIAN_POINT ( 'NONE',  ( 0.000000000000000000, 0.000000000000000000, -18.00000000000000000 ) ) ;
#439 = CARTESIAN_POINT ( 'NONE',  ( 0.000000000000000000, 0.000000000000000000, -2.000000000000000000 ) ) ;
#440 = FACE_OUTER_BOUND ( 'NONE', #83, .T. ) ;
#441 = AXIS2_PLACEMENT_3D ( 'NONE', #462, #61, #110 ) ;
#442 = CARTESIAN_POINT ( 'NONE',  ( -15.99999999999991651, -11.50000000000006750, 10.00000000000000000 ) ) ;
#443 = ADVANCED_FACE ( 'NONE', ( #431 ), #598, .T. ) ;
#444 = DIRECTION ( 'NONE',  ( 0.000000000000000000, 1.000000000000000000, 0.000000000000000000 ) ) ;
#445 = CYLINDRICAL_SURFACE ( 'NONE', #535, 2.000000000000000000 ) ;
#446 = FACE_OUTER_BOUND ( 'NONE', #564, .T. ) ;
#447 = VECTOR ( 'NONE', #644, 1000.000000000000000 ) ;
#448 = CARTESIAN_POINT ( 'NONE',  ( 0.000000000000000000, 0.000000000000000000, 10.00000000000000000 ) ) ;
#449 = LINE ( 'NONE', #11, #305 ) ;
#450 = ORIENTED_EDGE ( 'NONE', *, *, #51, .T. ) ;
#451 = CARTESIAN_POINT ( 'NONE',  ( -9.249999999999925393, -12.50000000000006750, 8.250000000000000000 ) ) ;
#452 = DIRECTION ( 'NONE',  ( -1.000000000000000000, 0.000000000000000000, 0.000000000000000000 ) ) ;
#453 = STYLED_ITEM ( 'NONE', ( #188 ), #686 ) ;
#454 = ORIENTED_EDGE ( 'NONE', *, *, #683, .F. ) ;
#455 = ADVANCED_FACE ( 'NONE', ( #52 ), #380, .T. ) ;
#456 = FACE_OUTER_BOUND ( 'NONE', #292, .T. ) ;
#457 = DIRECTION ( 'NONE',  ( -0.000000000000000000, -0.000000000000000000, 1.000000000000000000 ) ) ;
#458 = ADVANCED_FACE ( 'NONE', ( #154 ), #276, .T. ) ;
#459 = ORIENTED_EDGE ( 'NONE', *, *, #130, .T. ) ;
#460 = AXIS2_PLACEMENT_3D ( 'NONE', #523, #364, #527 ) ;
#461 =( GEOMETRIC_REPRESENTATION_CONTEXT ( 3 ) GLOBAL_UNCERTAINTY_ASSIGNED_CONTEXT ( ( #28 ) ) GLOBAL_UNIT_ASSIGNED_CONTEXT ( ( #299, #476, #17 ) ) REPRESENTATION_CONTEXT ( 'NONE', 'WORKASPACE' ) );
#462 = CARTESIAN_POINT ( 'NONE',  ( 0.000000000000000000, 0.000000000000000000, 0.000000000000000000 ) ) ;
#463 = LINE ( 'NONE', #115, #489 ) ;
#464 = ORIENTED_EDGE ( 'NONE', *, *, #484, .F. ) ;
#465 = CARTESIAN_POINT ( 'NONE',  ( 9.250000000000000000, -12.50000000000006750, 4.750000000000003553 ) ) ;
#466 = DIRECTION ( 'NONE',  ( -1.000000000000000000, 0.000000000000000000, -0.000000000000000000 ) ) ;
#467 = ADVANCED_FACE ( 'NONE', ( #436 ), #261, .F. ) ;
#468 = ORIENTED_EDGE ( 'NONE', *, *, #518, .F. ) ;
#469 = PLANE ( 'NONE',  #415 ) ;
#470 = ORIENTED_EDGE ( 'NONE', *, *, #147, .F. ) ;
#471 = ORIENTED_EDGE ( 'NONE', *, *, #202, .F. ) ;
#472 = DIRECTION ( 'NONE',  ( 1.000000000000000000, 0.000000000000000000, 0.000000000000000000 ) ) ;
#473 = ORIENTED_EDGE ( 'NONE', *, *, #433, .T. ) ;
#474 = LINE ( 'NONE', #310, #539 ) ;
#475 = ORIENTED_EDGE ( 'NONE', *, *, #413, .T. ) ;
#476 =( NAMED_UNIT ( * ) PLANE_ANGLE_UNIT ( ) SI_UNIT ( $, .RADIAN. ) );
#477 = PLANE ( 'NONE',  #36 ) ;
#478 = EDGE_LOOP ( 'NONE', ( #262, #583 ) ) ;
#479 = CIRCLE ( 'NONE', #131, 2.000000000000000000 ) ;
#480 = AXIS2_PLACEMENT_3D ( 'NONE', #248, #86, #536 ) ;
#481 = DIRECTION ( 'NONE',  ( -1.000000000000000000, 0.000000000000000000, 0.000000000000000000 ) ) ;
#482 = EDGE_LOOP ( 'NONE', ( #313, #588, #260, #319, #417, #534, #522, #608, #419, #116, #707, #275 ) ) ;
#483 = LINE ( 'NONE', #666, #655 ) ;
#484 = EDGE_CURVE ( 'NONE', #645, #698, #263, .T. ) ;
#485 = ORIENTED_EDGE ( 'NONE', *, *, #427, .F. ) ;
#486 = CARTESIAN_POINT ( 'NONE',  ( 7.750000000000001776, -12.50000000000006750, 9.999999999999998224 ) ) ;
#487 = DIRECTION ( 'NONE',  ( -1.000000000000000000, 0.000000000000000000, 0.000000000000000000 ) ) ;
#488 = VERTEX_POINT ( 'NONE', #442 ) ;
#489 = VECTOR ( 'NONE', #59, 1000.000000000000000 ) ;
#490 = AXIS2_PLACEMENT_3D ( 'NONE', #206, #98, #487 ) ;
#491 = CARTESIAN_POINT ( 'NONE',  ( -5.508037338149311068, 0.000000000000000000, -1.721653798079876507 ) ) ;
#492 = PLANE ( 'NONE',  #237 ) ;
#493 = ADVANCED_FACE ( 'NONE', ( #97 ), #157, .F. ) ;
#494 = CIRCLE ( 'NONE', #490, 5.508037338149311068 ) ;
#495 = ORIENTED_EDGE ( 'NONE', *, *, #279, .T. ) ;
#496 = DIRECTION ( 'NONE',  ( 0.000000000000000000, 0.000000000000000000, -1.000000000000000000 ) ) ;
#497 = DIRECTION ( 'NONE',  ( 1.000000000000000000, -0.000000000000000000, -0.000000000000000000 ) ) ;
#498 = VERTEX_POINT ( 'NONE', #107 ) ;
#499 = CARTESIAN_POINT ( 'NONE',  ( 0.000000000000000000, 0.000000000000000000, -18.00000000000000000 ) ) ;
#500 = CARTESIAN_POINT ( 'NONE',  ( -7.750000000000000000, 13.49999999999995737, 10.00000000000000000 ) ) ;
#501 = ORIENTED_EDGE ( 'NONE', *, *, #210, .F. ) ;
#502 = DIRECTION ( 'NONE',  ( -1.000000000000000000, 0.000000000000000000, 0.000000000000000000 ) ) ;
#503 = VECTOR ( 'NONE', #542, 1000.000000000000000 ) ;
#504 = DIRECTION ( 'NONE',  ( -1.000000000000000000, 0.000000000000000000, 0.000000000000000000 ) ) ;
#505 = ORIENTED_EDGE ( 'NONE', *, *, #508, .T. ) ;
#506 = DIRECTION ( 'NONE',  ( 0.000000000000000000, 0.000000000000000000, -1.000000000000000000 ) ) ;
#507 = DIRECTION ( 'NONE',  ( 0.000000000000000000, 0.000000000000000000, -1.000000000000000000 ) ) ;
#508 = EDGE_CURVE ( 'NONE', #556, #604, #483, .T. ) ;
#509 = VERTEX_POINT ( 'NONE', #486 ) ;
#510 = DIRECTION ( 'NONE',  ( -0.000000000000000000, -0.000000000000000000, 1.000000000000000000 ) ) ;
#511 = EDGE_CURVE ( 'NONE', #227, #645, #602, .T. ) ;
#512 = DIRECTION ( 'NONE',  ( -0.000000000000000000, -0.000000000000000000, 1.000000000000000000 ) ) ;
#513 = EDGE_LOOP ( 'NONE', ( #129, #637, #705, #393 ) ) ;
#514 = DIRECTION ( 'NONE',  ( -1.000000000000000000, 0.000000000000000000, 0.000000000000000000 ) ) ;
#515 = VECTOR ( 'NONE', #125, 1000.000000000000000 ) ;
#516 = DIRECTION ( 'NONE',  ( -1.000000000000000000, 0.000000000000000000, 0.000000000000000000 ) ) ;
#517 = ORIENTED_EDGE ( 'NONE', *, *, #631, .F. ) ;
#518 = EDGE_CURVE ( 'NONE', #199, #80, #553, .T. ) ;
#519 = ORIENTED_EDGE ( 'NONE', *, *, #356, .T. ) ;
#520 = DIRECTION ( 'NONE',  ( -1.000000000000000000, 0.000000000000000000, -0.000000000000000000 ) ) ;
#521 = FACE_BOUND ( 'NONE', #676, .T. ) ;
#522 = ORIENTED_EDGE ( 'NONE', *, *, #143, .F. ) ;
#523 = CARTESIAN_POINT ( 'NONE',  ( -9.249999999999998224, -32.73050961363225042, 4.750000000000000888 ) ) ;
#524 = ORIENTED_EDGE ( 'NONE', *, *, #586, .F. ) ;
#525 = VERTEX_POINT ( 'NONE', #318 ) ;
#526 = APPLICATION_PROTOCOL_DEFINITION ( 'draft international standard', 'automotive_design', 1998, #90 ) ;
#527 = DIRECTION ( 'NONE',  ( -1.000000000000000000, 0.000000000000000000, -1.406532548089303782E-16 ) ) ;
#528 = VERTEX_POINT ( 'NONE', #330 ) ;
#529 = SHAPE_DEFINITION_REPRESENTATION ( #16, #537 ) ;
#530 = CARTESIAN_POINT ( 'NONE',  ( -15.99999999999991651, -13.50000000000006750, 0.000000000000000000 ) ) ;
#531 = ORIENTED_EDGE ( 'NONE', *, *, #508, .F. ) ;
#532 = EDGE_CURVE ( 'NONE', #340, #528, #562, .T. ) ;
#533 = LINE ( 'NONE', #530, #656 ) ;
#534 = ORIENTED_EDGE ( 'NONE', *, *, #675, .T. ) ;
#535 = AXIS2_PLACEMENT_3D ( 'NONE', #668, #613, #704 ) ;
#536 = DIRECTION ( 'NONE',  ( 2.081668171172168829E-14, 0.000000000000000000, 1.000000000000000000 ) ) ;
#537 = ADVANCED_BREP_SHAPE_REPRESENTATION ( 'P001-B109_Winding_Plate_Attachment_2', ( #686, #95 ), #461 ) ;
#538 = ORIENTED_EDGE ( 'NONE', *, *, #183, .T. ) ;
#539 = VECTOR ( 'NONE', #418, 1000.000000000000000 ) ;
#540 = CARTESIAN_POINT ( 'NONE',  ( 0.000000000000000000, 0.000000000000000000, 0.000000000000000000 ) ) ;
#541 = VERTEX_POINT ( 'NONE', #491 ) ;
#542 = DIRECTION ( 'NONE',  ( 1.000000000000000000, -0.000000000000000000, 1.406532548089303782E-16 ) ) ;
#543 = DIRECTION ( 'NONE',  ( -0.000000000000000000, -0.000000000000000000, 1.000000000000000000 ) ) ;
#544 = ORIENTED_EDGE ( 'NONE', *, *, #366, .F. ) ;
#545 = ADVANCED_FACE ( 'NONE', ( #220 ), #445, .T. ) ;
#546 = DIRECTION ( 'NONE',  ( -1.000000000000000000, 0.000000000000000000, 0.000000000000000000 ) ) ;
#547 = LINE ( 'NONE', #614, #552 ) ;
#548 = AXIS2_PLACEMENT_3D ( 'NONE', #122, #512, #688 ) ;
#549 = CIRCLE ( 'NONE', #197, 2.000000000000000000 ) ;
#550 = DIRECTION ( 'NONE',  ( -0.000000000000000000, 1.000000000000000000, -0.000000000000000000 ) ) ;
#551 = DIRECTION ( 'NONE',  ( 0.000000000000000000, 0.000000000000000000, -1.000000000000000000 ) ) ;
#552 = VECTOR ( 'NONE', #497, 1000.000000000000000 ) ;
#553 = LINE ( 'NONE', #164, #435 ) ;
#554 = PRODUCT_DEFINITION ( 'UNKNOWN', '', #575, #146 ) ;
#555 = LINE ( 'NONE', #500, #85 ) ;
#556 = VERTEX_POINT ( 'NONE', #228 ) ;
#557 = DIRECTION ( 'NONE',  ( 0.000000000000000000, 1.000000000000000000, 0.000000000000000000 ) ) ;
#558 = DIRECTION ( 'NONE',  ( 0.000000000000000000, 1.000000000000000000, 0.000000000000000000 ) ) ;
#559 = ORIENTED_EDGE ( 'NONE', *, *, #532, .F. ) ;
#560 = DIRECTION ( 'NONE',  ( 0.000000000000000000, 0.000000000000000000, -1.000000000000000000 ) ) ;
#561 = EDGE_CURVE ( 'NONE', #634, #597, #625, .T. ) ;
#562 = CIRCLE ( 'NONE', #339, 3.220264975356947890 ) ;
#563 = CARTESIAN_POINT ( 'NONE',  ( -7.750000000000000000, -12.50000000000006750, 10.00000000000000000 ) ) ;
#564 = EDGE_LOOP ( 'NONE', ( #301, #60, #322, #473 ) ) ;
#565 = LINE ( 'NONE', #334, #409 ) ;
#566 = LINE ( 'NONE', #348, #587 ) ;
#567 = EDGE_LOOP ( 'NONE', ( #239, #92, #257, #660 ) ) ;
#568 = CARTESIAN_POINT ( 'NONE',  ( -9.249999999999998224, 13.49999999999995737, 4.750000000000000888 ) ) ;
#569 = CARTESIAN_POINT ( 'NONE',  ( 14.00000000000008349, -11.50000000000006750, 10.00000000000000000 ) ) ;
#570 = ORIENTED_EDGE ( 'NONE', *, *, #66, .F. ) ;
#571 = FILL_AREA_STYLE ('',( #127 ) ) ;
#572 = AXIS2_PLACEMENT_3D ( 'NONE', #679, #622, #466 ) ;
#573 = CARTESIAN_POINT ( 'NONE',  ( 0.000000000000000000, 0.000000000000000000, -2.000000000000000000 ) ) ;
#574 = ORIENTED_EDGE ( 'NONE', *, *, #511, .F. ) ;
#575 = PRODUCT_DEFINITION_FORMATION_WITH_SPECIFIED_SOURCE ( 'ANY', '', #579, .NOT_KNOWN. ) ;
#576 = PLANE ( 'NONE',  #657 ) ;
#577 = DIRECTION ( 'NONE',  ( -1.000000000000000000, 0.000000000000000000, 0.000000000000000000 ) ) ;
#578 = VERTEX_POINT ( 'NONE', #568 ) ;
#579 = PRODUCT ( 'P001-B109_Winding_Plate_Attachment_2', 'P001-B109_Winding_Plate_Attachment_2', '', ( #635 ) ) ;
#580 = ORIENTED_EDGE ( 'NONE', *, *, #590, .F. ) ;
#581 = DIRECTION ( 'NONE',  ( 0.000000000000000000, 0.000000000000000000, 1.000000000000000000 ) ) ;
#582 = CARTESIAN_POINT ( 'NONE',  ( 14.00000000000008349, -11.50000000000006750, 0.000000000000000000 ) ) ;
#583 = ORIENTED_EDGE ( 'NONE', *, *, #532, .T. ) ;
#584 = ORIENTED_EDGE ( 'NONE', *, *, #2, .F. ) ;
#585 = CARTESIAN_POINT ( 'NONE',  ( 7.750000000000001776, -32.73050961363225042, 9.999999999999998224 ) ) ;
#586 = EDGE_CURVE ( 'NONE', #162, #69, #342, .T. ) ;
#587 = VECTOR ( 'NONE', #74, 1000.000000000000000 ) ;
#588 = ORIENTED_EDGE ( 'NONE', *, *, #561, .T. ) ;
#589 = VECTOR ( 'NONE', #335, 1000.000000000000000 ) ;
#590 = EDGE_CURVE ( 'NONE', #69, #227, #124, .T. ) ;
#591 = DIRECTION ( 'NONE',  ( -1.000000000000000000, 0.000000000000000000, 0.000000000000000000 ) ) ;
#592 = CARTESIAN_POINT ( 'NONE',  ( -7.488573475632453125, 0.000000000000000000, -2.000000000000000000 ) ) ;
#593 = LINE ( 'NONE', #189, #132 ) ;
#594 = ORIENTED_EDGE ( 'NONE', *, *, #153, .F. ) ;
#595 = ADVANCED_FACE ( 'NONE', ( #119 ), #174, .F. ) ;
#596 = PLANE ( 'NONE',  #460 ) ;
#597 = VERTEX_POINT ( 'NONE', #345 ) ;
#598 = CONICAL_SURFACE ( 'NONE', #282, 5.750000000000000000, 0.1396263401595466691 ) ;
#599 = VECTOR ( 'NONE', #696, 1000.000000000000000 ) ;
#600 = CARTESIAN_POINT ( 'NONE',  ( 14.00000000000008349, -11.50000000000006750, 10.00000000000000000 ) ) ;
#601 = CARTESIAN_POINT ( 'NONE',  ( -7.750000000000000000, -32.73050961363225042, 10.00000000000000000 ) ) ;
#602 = LINE ( 'NONE', #99, #503 ) ;
#603 = CARTESIAN_POINT ( 'NONE',  ( -15.99999999999991651, -13.50000000000006750, 10.00000000000000000 ) ) ;
#604 = VERTEX_POINT ( 'NONE', #65 ) ;
#605 = VECTOR ( 'NONE', #673, 1000.000000000000000 ) ;
#606 = DIRECTION ( 'NONE',  ( -1.000000000000000000, 0.000000000000000000, 0.000000000000000000 ) ) ;
#607 = DIRECTION ( 'NONE',  ( -1.000000000000000000, 0.000000000000000000, 0.000000000000000000 ) ) ;
#608 = ORIENTED_EDGE ( 'NONE', *, *, #40, .F. ) ;
#609 = AXIS2_PLACEMENT_3D ( 'NONE', #31, #481, #255 ) ;
#610 = PRODUCT_RELATED_PRODUCT_CATEGORY ( 'part', '', ( #579 ) ) ;
#611 = DIRECTION ( 'NONE',  ( -1.000000000000000000, 0.000000000000000000, 0.000000000000000000 ) ) ;
#612 = DIRECTION ( 'NONE',  ( -0.000000000000000000, 0.000000000000000000, 1.000000000000000000 ) ) ;
#613 = DIRECTION ( 'NONE',  ( 0.000000000000000000, -0.000000000000000000, 1.000000000000000000 ) ) ;
#614 = CARTESIAN_POINT ( 'NONE',  ( -7.750000000000000000, 13.49999999999995737, 8.250000000000000000 ) ) ;
#615 = VERTEX_POINT ( 'NONE', #178 ) ;
#616 = EDGE_CURVE ( 'NONE', #375, #498, #219, .T. ) ;
#617 = EDGE_CURVE ( 'NONE', #604, #21, #240, .T. ) ;
#618 = CARTESIAN_POINT ( 'NONE',  ( -15.99999999999991651, 13.49999999999995737, 10.00000000000000000 ) ) ;
#619 = DIRECTION ( 'NONE',  ( -1.000000000000000000, 0.000000000000000000, 1.119176436114069332E-16 ) ) ;
#620 = ORIENTED_EDGE ( 'NONE', *, *, #147, .T. ) ;
#621 = DIRECTION ( 'NONE',  ( 0.000000000000000000, -0.000000000000000000, 1.000000000000000000 ) ) ;
#622 = DIRECTION ( 'NONE',  ( 0.000000000000000000, 0.000000000000000000, -1.000000000000000000 ) ) ;
#623 = CIRCLE ( 'NONE', #309, 2.000000000000000000 ) ;
#624 = ORIENTED_EDGE ( 'NONE', *, *, #273, .F. ) ;
#625 = LINE ( 'NONE', #618, #33 ) ;
#626 = CARTESIAN_POINT ( 'NONE',  ( -15.99999999999991651, -11.50000000000006750, 10.00000000000000000 ) ) ;
#627 = ORIENTED_EDGE ( 'NONE', *, *, #287, .F. ) ;
#628 = LINE ( 'NONE', #140, #599 ) ;
#629 = LINE ( 'NONE', #78, #24 ) ;
#630 =( NAMED_UNIT ( * ) PLANE_ANGLE_UNIT ( ) SI_UNIT ( $, .RADIAN. ) );
#631 = EDGE_CURVE ( 'NONE', #94, #426, #6, .T. ) ;
#632 = VECTOR ( 'NONE', #619, 1000.000000000000000 ) ;
#633 = LINE ( 'NONE', #128, #632 ) ;
#634 = VERTEX_POINT ( 'NONE', #290 ) ;
#635 = PRODUCT_CONTEXT ( 'NONE', #77, 'mechanical' ) ;
#636 = DIRECTION ( 'NONE',  ( -0.000000000000000000, 1.000000000000000000, -0.000000000000000000 ) ) ;
#637 = ORIENTED_EDGE ( 'NONE', *, *, #120, .F. ) ;
#638 = EDGE_CURVE ( 'NONE', #89, #426, #256, .T. ) ;
#639 = DIRECTION ( 'NONE',  ( 0.000000000000000000, 0.000000000000000000, -1.000000000000000000 ) ) ;
#640 = ORIENTED_EDGE ( 'NONE', *, *, #270, .F. ) ;
#641 = VECTOR ( 'NONE', #406, 1000.000000000000000 ) ;
#642 = ADVANCED_FACE ( 'NONE', ( #456 ), #295, .F. ) ;
#643 = DIRECTION ( 'NONE',  ( 0.000000000000000000, 0.000000000000000000, 1.000000000000000000 ) ) ;
#644 = DIRECTION ( 'NONE',  ( -1.000000000000000000, -0.000000000000000000, -1.406532548089303536E-16 ) ) ;
#645 = VERTEX_POINT ( 'NONE', #465 ) ;
#646 = AXIS2_PLACEMENT_3D ( 'NONE', #53, #543, #504 ) ;
#647 = VECTOR ( 'NONE', #444, 1000.000000000000000 ) ;
#648 = FACE_OUTER_BOUND ( 'NONE', #383, .T. ) ;
#649 = EDGE_CURVE ( 'NONE', #426, #94, #205, .T. ) ;
#650 = ORIENTED_EDGE ( 'NONE', *, *, #270, .T. ) ;
#651 = DIRECTION ( 'NONE',  ( 0.000000000000000000, -0.000000000000000000, 1.000000000000000000 ) ) ;
#652 = EDGE_LOOP ( 'NONE', ( #113, #719, #519, #249 ) ) ;
#653 = DIRECTION ( 'NONE',  ( 0.000000000000000000, 0.000000000000000000, -1.000000000000000000 ) ) ;
#654 = PLANE ( 'NONE',  #177 ) ;
#655 = VECTOR ( 'NONE', #378, 1000.000000000000000 ) ;
#656 = VECTOR ( 'NONE', #472, 1000.000000000000000 ) ;
#657 = AXIS2_PLACEMENT_3D ( 'NONE', #200, #643, #363 ) ;
#658 = CARTESIAN_POINT ( 'NONE',  ( 9.250000000000000000, -32.73050961363225042, 4.750000000000003553 ) ) ;
#659 = CARTESIAN_POINT ( 'NONE',  ( -13.99999999999991651, -13.50000000000006750, 0.000000000000000000 ) ) ;
#660 = ORIENTED_EDGE ( 'NONE', *, *, #111, .T. ) ;
#661 = EDGE_CURVE ( 'NONE', #423, #681, #565, .T. ) ;
#662 = DIRECTION ( 'NONE',  ( -0.000000000000000000, -0.000000000000000000, 1.000000000000000000 ) ) ;
#663 = CARTESIAN_POINT ( 'NONE',  ( -7.750000000000000000, -32.73050961363225042, 10.00000000000000000 ) ) ;
#664 = ORIENTED_EDGE ( 'NONE', *, *, #143, .T. ) ;
#665 = ADVANCED_FACE ( 'NONE', ( #1 ), #397, .T. ) ;
#666 = CARTESIAN_POINT ( 'NONE',  ( 9.249999999999928946, -12.50000000000006750, 8.249999999999998224 ) ) ;
#667 = CARTESIAN_POINT ( 'NONE',  ( -7.750000000000000000, 13.49999999999995737, 10.00000000000000000 ) ) ;
#668 = CARTESIAN_POINT ( 'NONE',  ( -13.99999999999991651, -11.50000000000006750, 10.00000000000000000 ) ) ;
#669 = DIRECTION ( 'NONE',  ( -0.000000000000000000, -0.000000000000000000, 1.000000000000000000 ) ) ;
#670 = EDGE_CURVE ( 'NONE', #180, #199, #185, .T. ) ;
#671 = CARTESIAN_POINT ( 'NONE',  ( 14.00000000000008171, -13.50000000000006750, 10.00000000000000000 ) ) ;
#672 = LINE ( 'NONE', #171, #317 ) ;
#673 = DIRECTION ( 'NONE',  ( -2.081668171172168829E-14, 0.000000000000000000, -1.000000000000000000 ) ) ;
#674 = CARTESIAN_POINT ( 'NONE',  ( -9.249999999999998224, -12.50000000000006750, 4.750000000000000888 ) ) ;
#675 = EDGE_CURVE ( 'NONE', #360, #15, #678, .T. ) ;
#676 = EDGE_LOOP ( 'NONE', ( #32, #64 ) ) ;
#677 = CIRCLE ( 'NONE', #234, 2.000000000000000000 ) ;
#678 = LINE ( 'NONE', #236, #264 ) ;
#679 = CARTESIAN_POINT ( 'NONE',  ( 0.000000000000000000, 0.000000000000000000, 0.000000000000000000 ) ) ;
#680 = AXIS2_PLACEMENT_3D ( 'NONE', #138, #690, #591 ) ;
#681 = VERTEX_POINT ( 'NONE', #671 ) ;
#682 = CARTESIAN_POINT ( 'NONE',  ( 14.00000000000008171, 11.49999999999995559, 10.00000000000000000 ) ) ;
#683 = EDGE_CURVE ( 'NONE', #69, #316, #181, .T. ) ;
#684 = CARTESIAN_POINT ( 'NONE',  ( 16.00000000000008527, -11.50000000000006750, 0.000000000000000000 ) ) ;
#685 = EDGE_LOOP ( 'NONE', ( #87, #365, #169, #172 ) ) ;
#686 = MANIFOLD_SOLID_BREP ( 'Fillet2', #106 ) ;
#687 = CARTESIAN_POINT ( 'NONE',  ( 7.488573475632453125, 9.170857537113052424E-16, -2.000000000000000000 ) ) ;
#688 = DIRECTION ( 'NONE',  ( -1.000000000000000000, 0.000000000000000000, 0.000000000000000000 ) ) ;
#689 = ORIENTED_EDGE ( 'NONE', *, *, #421, .T. ) ;
#690 = DIRECTION ( 'NONE',  ( -0.000000000000000000, -0.000000000000000000, 1.000000000000000000 ) ) ;
#691 = ORIENTED_EDGE ( 'NONE', *, *, #40, .T. ) ;
#692 = EDGE_CURVE ( 'NONE', #498, #360, #628, .T. ) ;
#693 = EDGE_LOOP ( 'NONE', ( #624, #468, #501, #594 ) ) ;
#694 = CARTESIAN_POINT ( 'NONE',  ( -9.249999999999998224, -32.73050961363225042, 4.750000000000000888 ) ) ;
#695 = ORIENTED_EDGE ( 'NONE', *, *, #649, .F. ) ;
#696 = DIRECTION ( 'NONE',  ( -0.000000000000000000, -0.000000000000000000, 1.000000000000000000 ) ) ;
#697 = LINE ( 'NONE', #702, #447 ) ;
#698 = VERTEX_POINT ( 'NONE', #367 ) ;
#699 = CARTESIAN_POINT ( 'NONE',  ( 16.00000000000008527, -11.50000000000006750, 10.00000000000000000 ) ) ;
#700 = DIRECTION ( 'NONE',  ( -0.000000000000000000, -1.000000000000000000, -0.000000000000000000 ) ) ;
#701 = AXIS2_PLACEMENT_3D ( 'NONE', #438, #551, #607 ) ;
#702 = CARTESIAN_POINT ( 'NONE',  ( -9.249999999999998224, 13.49999999999995737, 4.750000000000000888 ) ) ;
#703 = ORIENTED_EDGE ( 'NONE', *, *, #66, .T. ) ;
#704 = DIRECTION ( 'NONE',  ( 1.000000000000000000, 0.000000000000000000, 0.000000000000000000 ) ) ;
#705 = ORIENTED_EDGE ( 'NONE', *, *, #167, .T. ) ;
#706 = AXIS2_PLACEMENT_3D ( 'NONE', #682, #621, #13 ) ;
#707 = ORIENTED_EDGE ( 'NONE', *, *, #403, .F. ) ;
#708 = DIRECTION ( 'NONE',  ( 0.000000000000000000, 0.000000000000000000, 1.000000000000000000 ) ) ;
#709 = DIRECTION ( 'NONE',  ( 1.000000000000000000, 0.000000000000000000, 2.032104643287119632E-14 ) ) ;
#710 = ORIENTED_EDGE ( 'NONE', *, *, #388, .T. ) ;
#711 = AXIS2_PLACEMENT_3D ( 'NONE', #48, #496, #546 ) ;
#712 = DIRECTION ( 'NONE',  ( 0.000000000000000000, 0.000000000000000000, -1.000000000000000000 ) ) ;
#713 = FACE_OUTER_BOUND ( 'NONE', #723, .T. ) ;
#714 = VERTEX_POINT ( 'NONE', #314 ) ;
#715 = CARTESIAN_POINT ( 'NONE',  ( 14.00000000000008171, -13.50000000000006750, 0.000000000000000000 ) ) ;
#716 = DIRECTION ( 'NONE',  ( 0.000000000000000000, 0.000000000000000000, -1.000000000000000000 ) ) ;
#717 = ADVANCED_FACE ( 'NONE', ( #352 ), #576, .F. ) ;
#718 = DIRECTION ( 'NONE',  ( 0.000000000000000000, -0.000000000000000000, 1.000000000000000000 ) ) ;
#719 = ORIENTED_EDGE ( 'NONE', *, *, #484, .T. ) ;
#720 = CIRCLE ( 'NONE', #548, 2.000000000000000000 ) ;
#721 = CARTESIAN_POINT ( 'NONE',  ( 7.750000000000001776, -32.73050961363225042, 8.249999999999998224 ) ) ;
#722 = FACE_OUTER_BOUND ( 'NONE', #344, .T. ) ;
#723 = EDGE_LOOP ( 'NONE', ( #50, #126, #27, #464 ) ) ;
ENDSEC;
END-ISO-10303-21;
