ISO-10303-21;
HEADER;
FILE_DESCRIPTION (( 'STEP AP214' ),
    '1' );
FILE_NAME ('P001-B102_MagnetHolderRing_Rev2C_6.STEP',
    '2026-04-23T23:14:39',
    ( '' ),
    ( '' ),
    'SwSTEP 2.0',
    'SolidWorks 2026',
    '' );
FILE_SCHEMA (( 'AUTOMOTIVE_DESIGN' ));
ENDSEC;

DATA;
#1 = EDGE_CURVE ( 'NONE', #292, #426, #200, .T. ) ;
#2 = ORIENTED_EDGE ( 'NONE', *, *, #280, .F. ) ;
#3 = CARTESIAN_POINT ( 'NONE',  ( 0.1166352203497058454, -5.302018127597639463, 5.000000000000000000 ) ) ;
#4 = FACE_OUTER_BOUND ( 'NONE', #209, .T. ) ;
#5 = CARTESIAN_POINT ( 'NONE',  ( 4.533364779650331577, -2.752018127597619657, -5.000000000000000000 ) ) ;
#6 = ORIENTED_EDGE ( 'NONE', *, *, #574, .F. ) ;
#7 = FACE_OUTER_BOUND ( 'NONE', #907, .T. ) ;
#8 = DIRECTION ( 'NONE',  ( 1.000000000000000000, 0.000000000000000000, 0.000000000000000000 ) ) ;
#9 = VERTEX_POINT ( 'NONE', #122 ) ;
#10 = MECHANICAL_DESIGN_GEOMETRIC_PRESENTATION_REPRESENTATION (  '', ( #374 ), #404 ) ;
#11 = ADVANCED_FACE ( 'NONE', ( #638 ), #642, .T. ) ;
#12 = CARTESIAN_POINT ( 'NONE',  ( 4.649999999999999467, 2.550000000000000266, 5.000000000000000000 ) ) ;
#13 = DIRECTION ( 'NONE',  ( 0.000000000000000000, 0.000000000000000000, 1.000000000000000000 ) ) ;
#14 = EDGE_LOOP ( 'NONE', ( #833, #306, #2, #879 ) ) ;
#15 = CARTESIAN_POINT ( 'NONE',  ( 0.000000000000000000, 0.000000000000000000, -5.000000000000000000 ) ) ;
#16 = ORIENTED_EDGE ( 'NONE', *, *, #476, .T. ) ;
#17 = EDGE_CURVE ( 'NONE', #436, #849, #918, .T. ) ;
#18 = CARTESIAN_POINT ( 'NONE',  ( -8.370185183136632290, -2.550000000000000266, -5.000000000000000000 ) ) ;
#19 = DIRECTION ( 'NONE',  ( -0.000000000000000000, -0.000000000000000000, -1.000000000000000000 ) ) ;
#20 = EDGE_CURVE ( 'NONE', #509, #187, #551, .T. ) ;
#21 = VECTOR ( 'NONE', #850, 1000.000000000000114 ) ;
#22 = VERTEX_POINT ( 'NONE', #933 ) ;
#23 = PLANE ( 'NONE',  #651 ) ;
#24 = PRESENTATION_LAYER_ASSIGNMENT (  '', '', ( #374 ) ) ;
#25 = CARTESIAN_POINT ( 'NONE',  ( -2.324999999999990852, -4.027018127597644437, 0.000000000000000000 ) ) ;
#26 = DIRECTION ( 'NONE',  ( 0.000000000000000000, 0.000000000000000000, 1.000000000000000000 ) ) ;
#27 = EDGE_LOOP ( 'NONE', ( #170, #260, #381, #690 ) ) ;
#28 = LINE ( 'NONE', #385, #406 ) ;
#29 = EDGE_CURVE ( 'NONE', #621, #791, #573, .T. ) ;
#30 = ORIENTED_EDGE ( 'NONE', *, *, #39, .F. ) ;
#31 = CARTESIAN_POINT ( 'NONE',  ( 0.000000000000000000, 0.000000000000000000, 5.000000000000000000 ) ) ;
#32 = DIRECTION ( 'NONE',  ( -0.000000000000000000, -0.000000000000000000, -1.000000000000000000 ) ) ;
#33 = ORIENTED_EDGE ( 'NONE', *, *, #783, .F. ) ;
#34 = DIRECTION ( 'NONE',  ( -0.8660254037844432595, 0.4999999999999919509, 0.000000000000000000 ) ) ;
#35 = CARTESIAN_POINT ( 'NONE',  ( -1.976727811917978306, -8.523793002976432831, 5.000000000000000000 ) ) ;
#36 = EDGE_LOOP ( 'NONE', ( #809, #358, #157, #891 ) ) ;
#37 = VERTEX_POINT ( 'NONE', #413 ) ;
#38 = PLANE ( 'NONE',  #439 ) ;
#39 = EDGE_CURVE ( 'NONE', #643, #109, #782, .T. ) ;
#40 = VECTOR ( 'NONE', #45, 1000.000000000000114 ) ;
#41 = FACE_OUTER_BOUND ( 'NONE', #562, .T. ) ;
#42 = ORIENTED_EDGE ( 'NONE', *, *, #189, .F. ) ;
#43 = ORIENTED_EDGE ( 'NONE', *, *, #927, .F. ) ;
#44 = DIRECTION ( 'NONE',  ( 0.000000000000000000, 0.000000000000000000, 1.000000000000000000 ) ) ;
#45 = DIRECTION ( 'NONE',  ( -0.4999999999999979461, -0.8660254037844397068, 0.000000000000000000 ) ) ;
#46 = ORIENTED_EDGE ( 'NONE', *, *, #117, .T. ) ;
#47 = APPLICATION_PROTOCOL_DEFINITION ( 'draft international standard', 'automotive_design', 1998, #150 ) ;
#48 = CARTESIAN_POINT ( 'NONE',  ( -4.533364779650312926, -2.752018127597649855, -5.000000000000000000 ) ) ;
#49 = DIRECTION ( 'NONE',  ( -0.000000000000000000, -0.000000000000000000, 1.000000000000000000 ) ) ;
#50 = DIRECTION ( 'NONE',  ( -1.000000000000000000, 0.000000000000000000, 0.000000000000000000 ) ) ;
#51 = EDGE_CURVE ( 'NONE', #490, #9, #204, .T. ) ;
#52 = ORIENTED_EDGE ( 'NONE', *, *, #729, .F. ) ;
#53 = DIRECTION ( 'NONE',  ( 1.000000000000000000, 0.000000000000000000, 0.000000000000000000 ) ) ;
#54 =( NAMED_UNIT ( * ) PLANE_ANGLE_UNIT ( ) SI_UNIT ( $, .RADIAN. ) );
#55 = VECTOR ( 'NONE', #393, 1000.000000000000000 ) ;
#56 = DIRECTION ( 'NONE',  ( 0.000000000000000000, -0.000000000000000000, -1.000000000000000000 ) ) ;
#57 = VECTOR ( 'NONE', #706, 1000.000000000000000 ) ;
#58 = EDGE_LOOP ( 'NONE', ( #669, #252, #149, #904 ) ) ;
#59 = CIRCLE ( 'NONE', #515, 8.750000000000001776 ) ;
#60 = LINE ( 'NONE', #48, #758 ) ;
#61 = ORIENTED_EDGE ( 'NONE', *, *, #185, .F. ) ;
#62 = ORIENTED_EDGE ( 'NONE', *, *, #237, .T. ) ;
#63 = CARTESIAN_POINT ( 'NONE',  ( -4.649999999999999467, 2.550000000000000266, 5.000000000000000000 ) ) ;
#64 = PLANE ( 'NONE',  #496 ) ;
#65 = DIRECTION ( 'NONE',  ( 0.8660254037844328234, 0.5000000000000101030, 0.000000000000000000 ) ) ;
#66 = ORIENTED_EDGE ( 'NONE', *, *, #229, .T. ) ;
#67 = FACE_BOUND ( 'NONE', #648, .T. ) ;
#68 = VECTOR ( 'NONE', #916, 1000.000000000000000 ) ;
#69 = LINE ( 'NONE', #360, #238 ) ;
#70 = EDGE_CURVE ( 'NONE', #621, #364, #118, .T. ) ;
#71 = CARTESIAN_POINT ( 'NONE',  ( 8.370185183136632290, 2.550000000000000266, -5.000000000000000000 ) ) ;
#72 = AXIS2_PLACEMENT_3D ( 'NONE', #112, #616, #541 ) ;
#73 = ORIENTED_EDGE ( 'NONE', *, *, #870, .T. ) ;
#74 = PLANE ( 'NONE',  #239 ) ;
#75 = CARTESIAN_POINT ( 'NONE',  ( 0.000000000000000000, 0.000000000000000000, 5.000000000000000000 ) ) ;
#76 = DIRECTION ( 'NONE',  ( 1.000000000000000000, 0.000000000000000000, 0.000000000000000000 ) ) ;
#77 = ORIENTED_EDGE ( 'NONE', *, *, #20, .F. ) ;
#78 = CARTESIAN_POINT ( 'NONE',  ( -4.649999999999999467, 0.000000000000000000, 0.000000000000000000 ) ) ;
#79 = DIRECTION ( 'NONE',  ( 0.000000000000000000, 0.000000000000000000, 1.000000000000000000 ) ) ;
#80 = CARTESIAN_POINT ( 'NONE',  ( -6.393457371218622676, -5.973793002976441890, 5.000000000000000000 ) ) ;
#81 = ORIENTED_EDGE ( 'NONE', *, *, #646, .F. ) ;
#82 = EDGE_CURVE ( 'NONE', #22, #384, #126, .T. ) ;
#83 = LINE ( 'NONE', #456, #844 ) ;
#84 = EDGE_LOOP ( 'NONE', ( #320, #873, #431, #16 ) ) ;
#85 = CIRCLE ( 'NONE', #480, 8.750000000000001776 ) ;
#86 = CARTESIAN_POINT ( 'NONE',  ( 4.533364779650292498, 2.752018127597681829, 5.000000000000000000 ) ) ;
#87 = ORIENTED_EDGE ( 'NONE', *, *, #460, .F. ) ;
#88 = EDGE_CURVE ( 'NONE', #22, #549, #425, .T. ) ;
#89 = CARTESIAN_POINT ( 'NONE',  ( 6.393457371218662644, -5.973793002976398370, 5.000000000000000000 ) ) ;
#90 = ORIENTED_EDGE ( 'NONE', *, *, #164, .F. ) ;
#91 = CARTESIAN_POINT ( 'NONE',  ( 1.976727811918038258, -8.523793002976418620, 5.000000000000000000 ) ) ;
#92 = FACE_OUTER_BOUND ( 'NONE', #394, .T. ) ;
#93 = LINE ( 'NONE', #749, #785 ) ;
#94 = EDGE_CURVE ( 'NONE', #446, #575, #423, .T. ) ;
#95 = ORIENTED_EDGE ( 'NONE', *, *, #350, .F. ) ;
#96 = CARTESIAN_POINT ( 'NONE',  ( -4.649999999999999467, -2.550000000000000266, -5.000000000000000000 ) ) ;
#97 = AXIS2_PLACEMENT_3D ( 'NONE', #518, #803, #295 ) ;
#98 = DIRECTION ( 'NONE',  ( 0.000000000000000000, 0.000000000000000000, -1.000000000000000000 ) ) ;
#99 = VECTOR ( 'NONE', #305, 1000.000000000000000 ) ;
#100 = LINE ( 'NONE', #535, #740 ) ;
#101 = EDGE_LOOP ( 'NONE', ( #368, #735 ) ) ;
#102 = VERTEX_POINT ( 'NONE', #718 ) ;
#103 = APPLICATION_CONTEXT ( 'automotive_design' ) ;
#104 = LINE ( 'NONE', #532, #929 ) ;
#105 = ORIENTED_EDGE ( 'NONE', *, *, #265, .F. ) ;
#106 = ADVANCED_FACE ( 'NONE', ( #843 ), #647, .T. ) ;
#107 = CARTESIAN_POINT ( 'NONE',  ( 0.1166352203496321127, 5.302018127597640351, 5.000000000000000000 ) ) ;
#108 = CARTESIAN_POINT ( 'NONE',  ( 0.000000000000000000, 0.000000000000000000, -5.000000000000000000 ) ) ;
#109 = VERTEX_POINT ( 'NONE', #775 ) ;
#110 = LINE ( 'NONE', #405, #244 ) ;
#111 = VECTOR ( 'NONE', #428, 1000.000000000000000 ) ;
#112 = CARTESIAN_POINT ( 'NONE',  ( -0.1166352203497427048, 5.302018127597637687, 5.000000000000000000 ) ) ;
#113 = EDGE_CURVE ( 'NONE', #521, #142, #504, .T. ) ;
#114 = VERTEX_POINT ( 'NONE', #71 ) ;
#115 = FACE_OUTER_BOUND ( 'NONE', #761, .T. ) ;
#116 = SURFACE_SIDE_STYLE ('',( #921 ) ) ;
#117 = EDGE_CURVE ( 'NONE', #601, #411, #174, .T. ) ;
#118 = LINE ( 'NONE', #357, #347 ) ;
#119 = DIRECTION ( 'NONE',  ( 0.8660254037844432595, -0.4999999999999919509, 0.000000000000000000 ) ) ;
#120 = PRESENTATION_STYLE_ASSIGNMENT (( #482 ) ) ;
#121 = ADVANCED_FACE ( 'NONE', ( #235 ), #161, .T. ) ;
#122 = CARTESIAN_POINT ( 'NONE',  ( -0.1166352203497427048, 5.302018127597637687, -5.000000000000000000 ) ) ;
#123 = ORIENTED_EDGE ( 'NONE', *, *, #734, .T. ) ;
#124 = CARTESIAN_POINT ( 'NONE',  ( 0.1166352203496321127, 5.302018127597640351, -5.000000000000000000 ) ) ;
#125 = VECTOR ( 'NONE', #379, 1000.000000000000000 ) ;
#126 = LINE ( 'NONE', #857, #469 ) ;
#127 = AXIS2_PLACEMENT_3D ( 'NONE', #815, #13, #152 ) ;
#128 = ORIENTED_EDGE ( 'NONE', *, *, #585, .T. ) ;
#129 = DIRECTION ( 'NONE',  ( -0.4999999999999979461, -0.8660254037844397068, 0.000000000000000000 ) ) ;
#130 = CARTESIAN_POINT ( 'NONE',  ( 6.393457371218662644, -5.973793002976398370, 5.000000000000000000 ) ) ;
#131 = CARTESIAN_POINT ( 'NONE',  ( 0.000000000000000000, 0.000000000000000000, 5.000000000000000000 ) ) ;
#132 = ORIENTED_EDGE ( 'NONE', *, *, #221, .T. ) ;
#133 = ADVANCED_FACE ( 'NONE', ( #380 ), #728, .T. ) ;
#134 = CYLINDRICAL_SURFACE ( 'NONE', #269, 4.049999999999999822 ) ;
#135 = FILL_AREA_STYLE ('',( #278 ) ) ;
#136 = VERTEX_POINT ( 'NONE', #442 ) ;
#137 = ORIENTED_EDGE ( 'NONE', *, *, #1, .F. ) ;
#138 = LINE ( 'NONE', #931, #538 ) ;
#139 = CARTESIAN_POINT ( 'NONE',  ( 0.1166352203497058454, -5.302018127597639463, -5.000000000000000000 ) ) ;
#140 = CARTESIAN_POINT ( 'NONE',  ( -6.393457371218622676, -5.973793002976441890, 5.000000000000000000 ) ) ;
#141 = CIRCLE ( 'NONE', #422, 8.750000000000001776 ) ;
#142 = VERTEX_POINT ( 'NONE', #307 ) ;
#143 = AXIS2_PLACEMENT_3D ( 'NONE', #926, #863, #214 ) ;
#144 = CARTESIAN_POINT ( 'NONE',  ( -4.649999999999999467, 2.550000000000000266, 5.000000000000000000 ) ) ;
#145 = CARTESIAN_POINT ( 'NONE',  ( -4.533364779650312926, -2.752018127597649855, 5.000000000000000000 ) ) ;
#146 = AXIS2_PLACEMENT_3D ( 'NONE', #711, #846, #640 ) ;
#147 = DIRECTION ( 'NONE',  ( 0.000000000000000000, 1.000000000000000000, 0.000000000000000000 ) ) ;
#148 = EDGE_CURVE ( 'NONE', #505, #435, #83, .T. ) ;
#149 = ORIENTED_EDGE ( 'NONE', *, *, #563, .T. ) ;
#150 = APPLICATION_CONTEXT ( 'automotive_design' ) ;
#151 = CARTESIAN_POINT ( 'NONE',  ( -0.1166352203496689860, -5.302018127597639463, -5.000000000000000000 ) ) ;
#152 = DIRECTION ( 'NONE',  ( 1.000000000000000000, 0.000000000000000000, 0.000000000000000000 ) ) ;
#153 = PRODUCT ( 'P001-B102_MagnetHolderRing_Rev2C_6', 'P001-B102_MagnetHolderRing_Rev2C_6', '', ( #253 ) ) ;
#154 = ORIENTED_EDGE ( 'NONE', *, *, #429, .T. ) ;
#155 = CARTESIAN_POINT ( 'NONE',  ( 6.393457371218662644, -5.973793002976398370, -5.000000000000000000 ) ) ;
#156 = DIRECTION ( 'NONE',  ( -0.000000000000000000, -0.000000000000000000, -1.000000000000000000 ) ) ;
#157 = ORIENTED_EDGE ( 'NONE', *, *, #88, .T. ) ;
#158 = VECTOR ( 'NONE', #166, 1000.000000000000000 ) ;
#159 = ADVANCED_FACE ( 'NONE', ( #373 ), #880, .T. ) ;
#160 = CARTESIAN_POINT ( 'NONE',  ( -0.1166352203497427048, 5.302018127597637687, 5.000000000000000000 ) ) ;
#161 = PLANE ( 'NONE',  #315 ) ;
#162 = ORIENTED_EDGE ( 'NONE', *, *, #113, .F. ) ;
#163 = DIRECTION ( 'NONE',  ( -1.000000000000000000, 0.000000000000000000, -0.000000000000000000 ) ) ;
#164 = EDGE_CURVE ( 'NONE', #780, #462, #875, .T. ) ;
#165 = CARTESIAN_POINT ( 'NONE',  ( -4.049999999999999822, 0.000000000000000000, 5.000000000000000000 ) ) ;
#166 = DIRECTION ( 'NONE',  ( 0.000000000000000000, 0.000000000000000000, 1.000000000000000000 ) ) ;
#167 = ORIENTED_EDGE ( 'NONE', *, *, #488, .T. ) ;
#168 = FACE_OUTER_BOUND ( 'NONE', #36, .T. ) ;
#169 = CARTESIAN_POINT ( 'NONE',  ( -4.049999999999999822, 0.000000000000000000, 5.000000000000000000 ) ) ;
#170 = ORIENTED_EDGE ( 'NONE', *, *, #767, .T. ) ;
#171 = DIRECTION ( 'NONE',  ( 1.000000000000000000, 0.000000000000000000, -0.000000000000000000 ) ) ;
#172 = AXIS2_PLACEMENT_3D ( 'NONE', #145, #511, #661 ) ;
#173 = VECTOR ( 'NONE', #403, 1000.000000000000000 ) ;
#174 = CIRCLE ( 'NONE', #666, 4.049999999999999822 ) ;
#175 = DIRECTION ( 'NONE',  ( 0.4999999999999919509, 0.8660254037844432595, 0.000000000000000000 ) ) ;
#176 = EDGE_CURVE ( 'NONE', #411, #601, #681, .T. ) ;
#177 = VERTEX_POINT ( 'NONE', #5 ) ;
#178 = CARTESIAN_POINT ( 'NONE',  ( 1.976727811917918576, 8.523793002976447042, 5.000000000000000000 ) ) ;
#179 = ORIENTED_EDGE ( 'NONE', *, *, #734, .F. ) ;
#180 = CARTESIAN_POINT ( 'NONE',  ( 4.649999999999999467, 2.550000000000000266, 5.000000000000000000 ) ) ;
#181 = LINE ( 'NONE', #35, #600 ) ;
#182 = EDGE_LOOP ( 'NONE', ( #248, #457, #338, #137, #348, #128, #719, #95, #343, #396, #893, #795, #730, #388, #219, #81, #132, #617, #806, #105, #811, #472, #167, #676 ) ) ;
#183 = ORIENTED_EDGE ( 'NONE', *, *, #185, .T. ) ;
#184 = DIRECTION ( 'NONE',  ( 0.000000000000000000, 0.000000000000000000, 1.000000000000000000 ) ) ;
#185 = EDGE_CURVE ( 'NONE', #523, #829, #448, .T. ) ;
#186 = DIRECTION ( 'NONE',  ( 1.000000000000000000, 0.000000000000000000, 0.000000000000000000 ) ) ;
#187 = VERTEX_POINT ( 'NONE', #370 ) ;
#188 =( LENGTH_UNIT ( ) NAMED_UNIT ( * ) SI_UNIT ( .MILLI., .METRE. ) );
#189 = EDGE_CURVE ( 'NONE', #654, #536, #802, .T. ) ;
#190 = DIRECTION ( 'NONE',  ( -0.000000000000000000, -0.000000000000000000, -1.000000000000000000 ) ) ;
#191 = VECTOR ( 'NONE', #721, 1000.000000000000114 ) ;
#192 = VECTOR ( 'NONE', #223, 1000.000000000000114 ) ;
#193 = LINE ( 'NONE', #700, #570 ) ;
#194 = DIRECTION ( 'NONE',  ( 0.4999999999999919509, 0.8660254037844432595, 0.000000000000000000 ) ) ;
#195 = CARTESIAN_POINT ( 'NONE',  ( 0.000000000000000000, 0.000000000000000000, 5.000000000000000000 ) ) ;
#196 = ORIENTED_EDGE ( 'NONE', *, *, #870, .F. ) ;
#197 = LINE ( 'NONE', #781, #554 ) ;
#198 = EDGE_CURVE ( 'NONE', #816, #446, #668, .T. ) ;
#199 = LINE ( 'NONE', #487, #125 ) ;
#200 = LINE ( 'NONE', #499, #441 ) ;
#201 = ORIENTED_EDGE ( 'NONE', *, *, #39, .T. ) ;
#202 = LINE ( 'NONE', #63, #900 ) ;
#203 = CARTESIAN_POINT ( 'NONE',  ( -4.533364779650312926, -2.752018127597649855, 5.000000000000000000 ) ) ;
#204 = LINE ( 'NONE', #632, #727 ) ;
#205 = VERTEX_POINT ( 'NONE', #733 ) ;
#206 = CYLINDRICAL_SURFACE ( 'NONE', #615, 8.750000000000001776 ) ;
#207 =( NAMED_UNIT ( * ) SI_UNIT ( $, .STERADIAN. ) SOLID_ANGLE_UNIT ( ) );
#208 = VECTOR ( 'NONE', #764, 1000.000000000000000 ) ;
#209 = EDGE_LOOP ( 'NONE', ( #853, #743, #606, #399 ) ) ;
#210 = EDGE_CURVE ( 'NONE', #509, #446, #745, .T. ) ;
#211 = EDGE_LOOP ( 'NONE', ( #323, #568, #564, #6 ) ) ;
#212 = PLANE ( 'NONE',  #913 ) ;
#213 = CARTESIAN_POINT ( 'NONE',  ( -0.1166352203496689860, -5.302018127597639463, -5.000000000000000000 ) ) ;
#214 = DIRECTION ( 'NONE',  ( 0.000000000000000000, -0.000000000000000000, 1.000000000000000000 ) ) ;
#215 = ORIENTED_EDGE ( 'NONE', *, *, #585, .F. ) ;
#216 = FACE_OUTER_BOUND ( 'NONE', #58, .T. ) ;
#217 = LINE ( 'NONE', #139, #453 ) ;
#218 = LINE ( 'NONE', #508, #814 ) ;
#219 = ORIENTED_EDGE ( 'NONE', *, *, #94, .T. ) ;
#220 = DIRECTION ( 'NONE',  ( 0.8660254037844363761, 0.5000000000000039968, 0.000000000000000000 ) ) ;
#221 = EDGE_CURVE ( 'NONE', #309, #516, #671, .T. ) ;
#222 = DIRECTION ( 'NONE',  ( -0.000000000000000000, 0.000000000000000000, -1.000000000000000000 ) ) ;
#223 = DIRECTION ( 'NONE',  ( 0.5000000000000039968, -0.8660254037844363761, 0.000000000000000000 ) ) ;
#224 = AXIS2_PLACEMENT_3D ( 'NONE', #31, #331, #622 ) ;
#225 = EDGE_LOOP ( 'NONE', ( #46, #707, #334, #596 ) ) ;
#226 = AXIS2_PLACEMENT_3D ( 'NONE', #848, #567, #286 ) ;
#227 = DIRECTION ( 'NONE',  ( -0.000000000000000000, -0.000000000000000000, -1.000000000000000000 ) ) ;
#228 = DIRECTION ( 'NONE',  ( 1.000000000000000000, 0.000000000000000000, 0.000000000000000000 ) ) ;
#229 = EDGE_CURVE ( 'NONE', #791, #136, #578, .T. ) ;
#230 = DIRECTION ( 'NONE',  ( 0.000000000000000000, -0.000000000000000000, 1.000000000000000000 ) ) ;
#231 = ORIENTED_EDGE ( 'NONE', *, *, #321, .T. ) ;
#232 = CARTESIAN_POINT ( 'NONE',  ( 4.649999999999999467, 2.550000000000000266, 5.000000000000000000 ) ) ;
#233 = ORIENTED_EDGE ( 'NONE', *, *, #250, .F. ) ;
#234 = LINE ( 'NONE', #813, #191 ) ;
#235 = FACE_OUTER_BOUND ( 'NONE', #757, .T. ) ;
#236 = VERTEX_POINT ( 'NONE', #445 ) ;
#237 = EDGE_CURVE ( 'NONE', #849, #643, #218, .T. ) ;
#238 = VECTOR ( 'NONE', #290, 1000.000000000000000 ) ;
#239 = AXIS2_PLACEMENT_3D ( 'NONE', #195, #484, #171 ) ;
#240 = DIRECTION ( 'NONE',  ( -0.4999999999999919509, -0.8660254037844432595, 0.000000000000000000 ) ) ;
#241 = DIRECTION ( 'NONE',  ( 0.000000000000000000, 0.000000000000000000, 1.000000000000000000 ) ) ;
#242 = ORIENTED_EDGE ( 'NONE', *, *, #531, .F. ) ;
#243 = DIRECTION ( 'NONE',  ( -0.5000000000000101030, 0.8660254037844328234, 0.000000000000000000 ) ) ;
#244 = VECTOR ( 'NONE', #908, 1000.000000000000000 ) ;
#245 = ADVANCED_FACE ( 'NONE', ( #877 ), #798, .T. ) ;
#246 = FACE_OUTER_BOUND ( 'NONE', #724, .T. ) ;
#247 = VERTEX_POINT ( 'NONE', #140 ) ;
#248 = ORIENTED_EDGE ( 'NONE', *, *, #113, .T. ) ;
#249 = DIRECTION ( 'NONE',  ( 1.000000000000000000, 0.000000000000000000, 0.000000000000000000 ) ) ;
#250 = EDGE_CURVE ( 'NONE', #247, #884, #805, .T. ) ;
#251 = DIRECTION ( 'NONE',  ( 0.000000000000000000, 0.000000000000000000, 1.000000000000000000 ) ) ;
#252 = ORIENTED_EDGE ( 'NONE', *, *, #198, .F. ) ;
#253 = PRODUCT_CONTEXT ( 'NONE', #103, 'mechanical' ) ;
#254 = VECTOR ( 'NONE', #222, 1000.000000000000000 ) ;
#255 = DIRECTION ( 'NONE',  ( -1.000000000000000000, 0.000000000000000000, 0.000000000000000000 ) ) ;
#256 = VECTOR ( 'NONE', #524, 1000.000000000000000 ) ;
#257 = CARTESIAN_POINT ( 'NONE',  ( 4.649999999999999467, -2.550000000000000266, -5.000000000000000000 ) ) ;
#258 = VERTEX_POINT ( 'NONE', #452 ) ;
#259 = CARTESIAN_POINT ( 'NONE',  ( 4.649999999999999467, -2.550000000000000266, 5.000000000000000000 ) ) ;
#260 = ORIENTED_EDGE ( 'NONE', *, *, #327, .F. ) ;
#261 = SHAPE_DEFINITION_REPRESENTATION ( #742, #842 ) ;
#262 = DIRECTION ( 'NONE',  ( 1.000000000000000000, 0.000000000000000000, 0.000000000000000000 ) ) ;
#263 = CARTESIAN_POINT ( 'NONE',  ( 0.000000000000000000, 0.000000000000000000, 5.000000000000000000 ) ) ;
#264 = ORIENTED_EDGE ( 'NONE', *, *, #440, .T. ) ;
#265 = EDGE_CURVE ( 'NONE', #102, #324, #741, .T. ) ;
#266 = FACE_OUTER_BOUND ( 'NONE', #211, .T. ) ;
#267 = AXIS2_PLACEMENT_3D ( 'NONE', #662, #19, #366 ) ;
#268 = LINE ( 'NONE', #572, #800 ) ;
#269 = AXIS2_PLACEMENT_3D ( 'NONE', #530, #576, #294 ) ;
#270 = CARTESIAN_POINT ( 'NONE',  ( -0.1166352203497427048, 5.302018127597637687, 5.000000000000000000 ) ) ;
#271 = AXIS2_PLACEMENT_3D ( 'NONE', #355, #184, #53 ) ;
#272 = ORIENTED_EDGE ( 'NONE', *, *, #520, .F. ) ;
#273 = CYLINDRICAL_SURFACE ( 'NONE', #146, 8.750000000000001776 ) ;
#274 = PLANE ( 'NONE',  #634 ) ;
#275 = CARTESIAN_POINT ( 'NONE',  ( -8.370185183136632290, -2.550000000000000266, 5.000000000000000000 ) ) ;
#276 = ORIENTED_EDGE ( 'NONE', *, *, #793, .F. ) ;
#277 = DIRECTION ( 'NONE',  ( 0.000000000000000000, 0.000000000000000000, 1.000000000000000000 ) ) ;
#278 = FILL_AREA_STYLE_COLOUR ( '', #679 ) ;
#279 = UNCERTAINTY_MEASURE_WITH_UNIT (LENGTH_MEASURE( 1.000000000000000082E-05 ), #188, 'distance_accuracy_value', 'NONE');
#280 = EDGE_CURVE ( 'NONE', #114, #823, #605, .T. ) ;
#281 = ORIENTED_EDGE ( 'NONE', *, *, #889, .F. ) ;
#282 = EDGE_LOOP ( 'NONE', ( #329, #335, #630, #420 ) ) ;
#283 = FACE_OUTER_BOUND ( 'NONE', #297, .T. ) ;
#284 = FACE_OUTER_BOUND ( 'NONE', #84, .T. ) ;
#285 = VECTOR ( 'NONE', #175, 1000.000000000000000 ) ;
#286 = DIRECTION ( 'NONE',  ( 1.000000000000000000, 0.000000000000000000, 0.000000000000000000 ) ) ;
#287 = ORIENTED_EDGE ( 'NONE', *, *, #629, .F. ) ;
#288 = EDGE_CURVE ( 'NONE', #114, #611, #141, .T. ) ;
#289 = FACE_OUTER_BOUND ( 'NONE', #182, .T. ) ;
#290 = DIRECTION ( 'NONE',  ( -0.8660254037844432595, 0.4999999999999919509, 0.000000000000000000 ) ) ;
#291 = DIRECTION ( 'NONE',  ( -0.000000000000000000, -0.000000000000000000, -1.000000000000000000 ) ) ;
#292 = VERTEX_POINT ( 'NONE', #623 ) ;
#293 = ADVANCED_FACE ( 'NONE', ( #246 ), #474, .T. ) ;
#294 = DIRECTION ( 'NONE',  ( -1.000000000000000000, 0.000000000000000000, 0.000000000000000000 ) ) ;
#295 = DIRECTION ( 'NONE',  ( 1.000000000000000000, 0.000000000000000000, 0.000000000000000000 ) ) ;
#296 = CARTESIAN_POINT ( 'NONE',  ( 4.649999999999999467, -2.550000000000000266, -5.000000000000000000 ) ) ;
#297 = EDGE_LOOP ( 'NONE', ( #328, #276, #624, #529 ) ) ;
#298 = EDGE_CURVE ( 'NONE', #426, #435, #104, .T. ) ;
#299 = DIRECTION ( 'NONE',  ( -0.000000000000000000, 0.000000000000000000, 1.000000000000000000 ) ) ;
#300 = LINE ( 'NONE', #652, #650 ) ;
#301 = CARTESIAN_POINT ( 'NONE',  ( 4.649999999999999467, -2.550000000000000266, 5.000000000000000000 ) ) ;
#302 = AXIS2_PLACEMENT_3D ( 'NONE', #232, #592, #522 ) ;
#303 = ORIENTED_EDGE ( 'NONE', *, *, #574, .T. ) ;
#304 = VECTOR ( 'NONE', #444, 1000.000000000000000 ) ;
#305 = DIRECTION ( 'NONE',  ( 0.000000000000000000, 0.000000000000000000, 1.000000000000000000 ) ) ;
#306 = ORIENTED_EDGE ( 'NONE', *, *, #527, .F. ) ;
#307 = CARTESIAN_POINT ( 'NONE',  ( -4.533364779650351117, 2.752018127597585906, 5.000000000000000000 ) ) ;
#308 = EDGE_CURVE ( 'NONE', #402, #899, #408, .T. ) ;
#309 = VERTEX_POINT ( 'NONE', #259 ) ;
#310 = CARTESIAN_POINT ( 'NONE',  ( 4.649999999999999467, -2.550000000000000266, 5.000000000000000000 ) ) ;
#311 = DIRECTION ( 'NONE',  ( -0.000000000000000000, -0.000000000000000000, -1.000000000000000000 ) ) ;
#312 = ORIENTED_EDGE ( 'NONE', *, *, #17, .T. ) ;
#313 = FACE_OUTER_BOUND ( 'NONE', #911, .T. ) ;
#314 = AXIS2_PLACEMENT_3D ( 'NONE', #608, #34, #240 ) ;
#315 = AXIS2_PLACEMENT_3D ( 'NONE', #738, #674, #808 ) ;
#316 = CIRCLE ( 'NONE', #271, 8.750000000000001776 ) ;
#317 = CARTESIAN_POINT ( 'NONE',  ( -0.1166352203497427048, 5.302018127597637687, 5.000000000000000000 ) ) ;
#318 = ORIENTED_EDGE ( 'NONE', *, *, #701, .T. ) ;
#319 = PLANE ( 'NONE',  #709 ) ;
#320 = ORIENTED_EDGE ( 'NONE', *, *, #501, .T. ) ;
#321 = EDGE_CURVE ( 'NONE', #9, #521, #93, .T. ) ;
#322 = LINE ( 'NONE', #609, #111 ) ;
#323 = ORIENTED_EDGE ( 'NONE', *, *, #563, .F. ) ;
#324 = VERTEX_POINT ( 'NONE', #902 ) ;
#325 = CARTESIAN_POINT ( 'NONE',  ( 6.393457371218580043, 5.973793002976488076, -5.000000000000000000 ) ) ;
#326 = DIRECTION ( 'NONE',  ( -0.4999999999999979461, -0.8660254037844397068, 0.000000000000000000 ) ) ;
#327 = EDGE_CURVE ( 'NONE', #829, #187, #545, .T. ) ;
#328 = ORIENTED_EDGE ( 'NONE', *, *, #501, .F. ) ;
#329 = ORIENTED_EDGE ( 'NONE', *, *, #298, .T. ) ;
#330 = AXIS2_PLACEMENT_3D ( 'NONE', #599, #890, #241 ) ;
#331 = DIRECTION ( 'NONE',  ( 0.000000000000000000, 0.000000000000000000, 1.000000000000000000 ) ) ;
#332 = DIRECTION ( 'NONE',  ( 1.000000000000000000, 0.000000000000000000, 0.000000000000000000 ) ) ;
#333 = ADVANCED_FACE ( 'NONE', ( #386 ), #471, .T. ) ;
#334 = ORIENTED_EDGE ( 'NONE', *, *, #763, .F. ) ;
#335 = ORIENTED_EDGE ( 'NONE', *, *, #148, .F. ) ;
#336 = DIRECTION ( 'NONE',  ( -1.000000000000000000, 0.000000000000000000, 0.000000000000000000 ) ) ;
#337 = EDGE_CURVE ( 'NONE', #516, #823, #692, .T. ) ;
#338 = ORIENTED_EDGE ( 'NONE', *, *, #629, .T. ) ;
#339 = ORIENTED_EDGE ( 'NONE', *, *, #337, .F. ) ;
#340 = DIRECTION ( 'NONE',  ( 0.5000000000000039968, -0.8660254037844363761, 0.000000000000000000 ) ) ;
#341 = CARTESIAN_POINT ( 'NONE',  ( -8.370185183136632290, 2.550000000000000266, 5.000000000000000000 ) ) ;
#342 = DIRECTION ( 'NONE',  ( -0.4999999999999979461, -0.8660254037844397068, 0.000000000000000000 ) ) ;
#343 = ORIENTED_EDGE ( 'NONE', *, *, #552, .T. ) ;
#344 = LINE ( 'NONE', #920, #391 ) ;
#345 = VECTOR ( 'NONE', #249, 1000.000000000000000 ) ;
#346 = AXIS2_PLACEMENT_3D ( 'NONE', #699, #726, #369 ) ;
#347 = VECTOR ( 'NONE', #194, 1000.000000000000000 ) ;
#348 = ORIENTED_EDGE ( 'NONE', *, *, #716, .T. ) ;
#349 = ORIENTED_EDGE ( 'NONE', *, *, #889, .T. ) ;
#350 = EDGE_CURVE ( 'NONE', #462, #247, #100, .T. ) ;
#351 = DIRECTION ( 'NONE',  ( -0.000000000000000000, -0.000000000000000000, -1.000000000000000000 ) ) ;
#352 = LINE ( 'NONE', #925, #598 ) ;
#353 = ORIENTED_EDGE ( 'NONE', *, *, #308, .F. ) ;
#354 = ORIENTED_EDGE ( 'NONE', *, *, #767, .F. ) ;
#355 = CARTESIAN_POINT ( 'NONE',  ( 0.000000000000000000, 0.000000000000000000, -5.000000000000000000 ) ) ;
#356 = DIRECTION ( 'NONE',  ( 1.000000000000000000, 0.000000000000000000, -0.000000000000000000 ) ) ;
#357 = CARTESIAN_POINT ( 'NONE',  ( 0.1166352203496321127, 5.302018127597640351, 5.000000000000000000 ) ) ;
#358 = ORIENTED_EDGE ( 'NONE', *, *, #82, .F. ) ;
#359 = CARTESIAN_POINT ( 'NONE',  ( 0.1166352203497058454, -5.302018127597639463, -5.000000000000000000 ) ) ;
#360 = CARTESIAN_POINT ( 'NONE',  ( 4.533364779650292498, 2.752018127597681829, 5.000000000000000000 ) ) ;
#361 = CIRCLE ( 'NONE', #665, 8.750000000000001776 ) ;
#362 = CARTESIAN_POINT ( 'NONE',  ( 0.000000000000000000, 0.000000000000000000, 5.000000000000000000 ) ) ;
#363 = EDGE_CURVE ( 'NONE', #324, #611, #822, .T. ) ;
#364 = VERTEX_POINT ( 'NONE', #769 ) ;
#365 = DIRECTION ( 'NONE',  ( 0.4999999999999919509, 0.8660254037844432595, 0.000000000000000000 ) ) ;
#366 = DIRECTION ( 'NONE',  ( -1.000000000000000000, 0.000000000000000000, 0.000000000000000000 ) ) ;
#367 = ADVANCED_FACE ( 'NONE', ( #41 ), #818, .T. ) ;
#368 = ORIENTED_EDGE ( 'NONE', *, *, #763, .T. ) ;
#369 = DIRECTION ( 'NONE',  ( -1.000000000000000000, 0.000000000000000000, 0.000000000000000000 ) ) ;
#370 = CARTESIAN_POINT ( 'NONE',  ( 8.370185183136632290, -2.550000000000000266, -5.000000000000000000 ) ) ;
#371 = EDGE_LOOP ( 'NONE', ( #845, #557, #318, #702, #869, #687, #73, #467, #443, #183, #590, #77, #653, #303, #493, #901, #628, #914, #375, #887, #475, #349, #454, #52 ) ) ;
#372 = CARTESIAN_POINT ( 'NONE',  ( -4.049999999999999822, 0.000000000000000000, -5.000000000000000000 ) ) ;
#373 = FACE_OUTER_BOUND ( 'NONE', #663, .T. ) ;
#374 = STYLED_ITEM ( 'NONE', ( #120 ), #447 ) ;
#375 = ORIENTED_EDGE ( 'NONE', *, *, #675, .T. ) ;
#376 =( GEOMETRIC_REPRESENTATION_CONTEXT ( 3 ) GLOBAL_UNCERTAINTY_ASSIGNED_CONTEXT ( ( #279 ) ) GLOBAL_UNIT_ASSIGNED_CONTEXT ( ( #188, #698, #766 ) ) REPRESENTATION_CONTEXT ( 'NONE', 'WORKASPACE' ) );
#377 = AXIS2_PLACEMENT_3D ( 'NONE', #418, #291, #50 ) ;
#378 = EDGE_CURVE ( 'NONE', #601, #536, #398, .T. ) ;
#379 = DIRECTION ( 'NONE',  ( -0.000000000000000000, -0.000000000000000000, -1.000000000000000000 ) ) ;
#380 = FACE_OUTER_BOUND ( 'NONE', #593, .T. ) ;
#381 = ORIENTED_EDGE ( 'NONE', *, *, #635, .T. ) ;
#382 = LINE ( 'NONE', #835, #753 ) ;
#383 = CARTESIAN_POINT ( 'NONE',  ( 0.1166352203496321127, 5.302018127597640351, -5.000000000000000000 ) ) ;
#384 = VERTEX_POINT ( 'NONE', #826 ) ;
#385 = CARTESIAN_POINT ( 'NONE',  ( -4.649999999999999467, 2.550000000000000266, -5.000000000000000000 ) ) ;
#386 = FACE_OUTER_BOUND ( 'NONE', #473, .T. ) ;
#387 = EDGE_CURVE ( 'NONE', #236, #384, #181, .T. ) ;
#388 = ORIENTED_EDGE ( 'NONE', *, *, #198, .T. ) ;
#389 = CARTESIAN_POINT ( 'NONE',  ( -6.393457371218621788, -5.973793002976442779, -5.000000000000000000 ) ) ;
#390 = AXIS2_PLACEMENT_3D ( 'NONE', #613, #762, #684 ) ;
#391 = VECTOR ( 'NONE', #631, 1000.000000000000000 ) ;
#392 = PLANE ( 'NONE',  #314 ) ;
#393 = DIRECTION ( 'NONE',  ( -0.5000000000000101030, 0.8660254037844328234, 0.000000000000000000 ) ) ;
#394 = EDGE_LOOP ( 'NONE', ( #179, #162, #449, #876 ) ) ;
#395 = EDGE_CURVE ( 'NONE', #523, #114, #696, .T. ) ;
#396 = ORIENTED_EDGE ( 'NONE', *, *, #82, .T. ) ;
#397 = CARTESIAN_POINT ( 'NONE',  ( -4.649999999999999467, -2.550000000000000266, 5.000000000000000000 ) ) ;
#398 = LINE ( 'NONE', #169, #825 ) ;
#399 = ORIENTED_EDGE ( 'NONE', *, *, #350, .T. ) ;
#400 = DIRECTION ( 'NONE',  ( 1.000000000000000000, 0.000000000000000000, 0.000000000000000000 ) ) ;
#401 = AXIS2_PLACEMENT_3D ( 'NONE', #427, #351, #336 ) ;
#402 = VERTEX_POINT ( 'NONE', #465 ) ;
#403 = DIRECTION ( 'NONE',  ( 0.000000000000000000, 0.000000000000000000, 1.000000000000000000 ) ) ;
#404 =( GEOMETRIC_REPRESENTATION_CONTEXT ( 3 ) GLOBAL_UNCERTAINTY_ASSIGNED_CONTEXT ( ( #434 ) ) GLOBAL_UNIT_ASSIGNED_CONTEXT ( ( #645, #54, #207 ) ) REPRESENTATION_CONTEXT ( 'NONE', 'WORKASPACE' ) );
#405 = CARTESIAN_POINT ( 'NONE',  ( 8.370185183136632290, -2.550000000000000266, 5.000000000000000000 ) ) ;
#406 = VECTOR ( 'NONE', #437, 1000.000000000000000 ) ;
#407 = EDGE_CURVE ( 'NONE', #521, #205, #528, .T. ) ;
#408 = LINE ( 'NONE', #832, #158 ) ;
#409 = ORIENTED_EDGE ( 'NONE', *, *, #419, .T. ) ;
#410 = LINE ( 'NONE', #178, #173 ) ;
#411 = VERTEX_POINT ( 'NONE', #685 ) ;
#412 = CYLINDRICAL_SURFACE ( 'NONE', #346, 8.750000000000001776 ) ;
#413 = CARTESIAN_POINT ( 'NONE',  ( 0.1166352203497058454, -5.302018127597639463, 5.000000000000000000 ) ) ;
#414 = DIRECTION ( 'NONE',  ( 0.000000000000000000, 0.000000000000000000, 1.000000000000000000 ) ) ;
#415 = EDGE_LOOP ( 'NONE', ( #923, #703, #697, #42 ) ) ;
#416 = PRODUCT_RELATED_PRODUCT_CATEGORY ( 'part', '', ( #153 ) ) ;
#417 = FACE_OUTER_BOUND ( 'NONE', #415, .T. ) ;
#418 = CARTESIAN_POINT ( 'NONE',  ( 0.000000000000000000, 0.000000000000000000, 5.000000000000000000 ) ) ;
#419 = EDGE_CURVE ( 'NONE', #205, #739, #322, .T. ) ;
#420 = ORIENTED_EDGE ( 'NONE', *, *, #1, .T. ) ;
#421 = CARTESIAN_POINT ( 'NONE',  ( 4.533364779650331577, -2.752018127597619657, -5.000000000000000000 ) ) ;
#422 = AXIS2_PLACEMENT_3D ( 'NONE', #108, #251, #332 ) ;
#423 = CIRCLE ( 'NONE', #912, 8.750000000000001776 ) ;
#424 = CARTESIAN_POINT ( 'NONE',  ( 0.000000000000000000, 0.000000000000000000, -5.000000000000000000 ) ) ;
#425 = LINE ( 'NONE', #714, #497 ) ;
#426 = VERTEX_POINT ( 'NONE', #341 ) ;
#427 = CARTESIAN_POINT ( 'NONE',  ( 0.000000000000000000, 0.000000000000000000, 5.000000000000000000 ) ) ;
#428 = DIRECTION ( 'NONE',  ( -0.000000000000000000, -0.000000000000000000, -1.000000000000000000 ) ) ;
#429 = EDGE_CURVE ( 'NONE', #490, #402, #352, .T. ) ;
#430 = DIRECTION ( 'NONE',  ( 1.000000000000000000, 0.000000000000000000, 0.000000000000000000 ) ) ;
#431 = ORIENTED_EDGE ( 'NONE', *, *, #878, .T. ) ;
#432 = PLANE ( 'NONE',  #859 ) ;
#433 = ADVANCED_FACE ( 'NONE', ( #503, #641 ), #274, .F. ) ;
#434 = UNCERTAINTY_MEASURE_WITH_UNIT (LENGTH_MEASURE( 1.000000000000000082E-05 ), #645, 'distance_accuracy_value', 'NONE');
#435 = VERTEX_POINT ( 'NONE', #774 ) ;
#436 = VERTEX_POINT ( 'NONE', #788 ) ;
#437 = DIRECTION ( 'NONE',  ( -0.000000000000000000, 1.000000000000000000, -0.000000000000000000 ) ) ;
#438 = DIRECTION ( 'NONE',  ( -0.8660254037844363761, -0.5000000000000039968, 0.000000000000000000 ) ) ;
#439 = AXIS2_PLACEMENT_3D ( 'NONE', #25, #597, #459 ) ;
#440 = EDGE_CURVE ( 'NONE', #888, #102, #566, .T. ) ;
#441 = VECTOR ( 'NONE', #778, 1000.000000000000000 ) ;
#442 = CARTESIAN_POINT ( 'NONE',  ( 1.976727811917918576, 8.523793002976447042, -5.000000000000000000 ) ) ;
#443 = ORIENTED_EDGE ( 'NONE', *, *, #395, .F. ) ;
#444 = DIRECTION ( 'NONE',  ( 0.4999999999999919509, 0.8660254037844432595, 0.000000000000000000 ) ) ;
#445 = CARTESIAN_POINT ( 'NONE',  ( -1.976727811917978306, -8.523793002976432831, -5.000000000000000000 ) ) ;
#446 = VERTEX_POINT ( 'NONE', #130 ) ;
#447 = MANIFOLD_SOLID_BREP ( 'CirPattern1', #588 ) ;
#448 = LINE ( 'NONE', #296, #256 ) ;
#449 = ORIENTED_EDGE ( 'NONE', *, *, #321, .F. ) ;
#450 = ADVANCED_FACE ( 'NONE', ( #284 ), #64, .T. ) ;
#451 = DIRECTION ( 'NONE',  ( 0.5000000000000039968, -0.8660254037844363761, 0.000000000000000000 ) ) ;
#452 = CARTESIAN_POINT ( 'NONE',  ( 1.976727811918036481, -8.523793002976416844, -5.000000000000000000 ) ) ;
#453 = VECTOR ( 'NONE', #438, 999.9999999999998863 ) ;
#454 = ORIENTED_EDGE ( 'NONE', *, *, #148, .T. ) ;
#455 = PRODUCT_DEFINITION_FORMATION_WITH_SPECIFIED_SOURCE ( 'ANY', '', #153, .NOT_KNOWN. ) ;
#456 = CARTESIAN_POINT ( 'NONE',  ( -4.649999999999999467, 2.550000000000000266, -5.000000000000000000 ) ) ;
#457 = ORIENTED_EDGE ( 'NONE', *, *, #460, .T. ) ;
#458 = LINE ( 'NONE', #463, #304 ) ;
#459 = DIRECTION ( 'NONE',  ( 0.000000000000000000, 0.000000000000000000, 1.000000000000000000 ) ) ;
#460 = EDGE_CURVE ( 'NONE', #142, #899, #268, .T. ) ;
#461 = DIRECTION ( 'NONE',  ( 0.000000000000000000, 0.000000000000000000, 1.000000000000000000 ) ) ;
#462 = VERTEX_POINT ( 'NONE', #203 ) ;
#463 = CARTESIAN_POINT ( 'NONE',  ( 4.533364779650292498, 2.752018127597681829, -5.000000000000000000 ) ) ;
#464 = LINE ( 'NONE', #180, #725 ) ;
#465 = CARTESIAN_POINT ( 'NONE',  ( -6.393457371218705276, 5.973793002976353073, -5.000000000000000000 ) ) ;
#466 = EDGE_CURVE ( 'NONE', #549, #236, #851, .T. ) ;
#467 = ORIENTED_EDGE ( 'NONE', *, *, #288, .F. ) ;
#468 = VECTOR ( 'NONE', #777, 1000.000000000000000 ) ;
#469 = VECTOR ( 'NONE', #342, 1000.000000000000114 ) ;
#470 = FACE_OUTER_BOUND ( 'NONE', #819, .T. ) ;
#471 = CYLINDRICAL_SURFACE ( 'NONE', #895, 8.750000000000001776 ) ;
#472 = ORIENTED_EDGE ( 'NONE', *, *, #70, .T. ) ;
#473 = EDGE_LOOP ( 'NONE', ( #233, #272, #30, #686 ) ) ;
#474 = PLANE ( 'NONE',  #330 ) ;
#475 = ORIENTED_EDGE ( 'NONE', *, *, #237, .F. ) ;
#476 = EDGE_CURVE ( 'NONE', #37, #881, #627, .T. ) ;
#477 = DIRECTION ( 'NONE',  ( 1.000000000000000000, 0.000000000000000000, 0.000000000000000000 ) ) ;
#478 = DIRECTION ( 'NONE',  ( -0.000000000000000000, -0.000000000000000000, -1.000000000000000000 ) ) ;
#479 = ORIENTED_EDGE ( 'NONE', *, *, #407, .T. ) ;
#480 = AXIS2_PLACEMENT_3D ( 'NONE', #263, #548, #840 ) ;
#481 = DIRECTION ( 'NONE',  ( 0.000000000000000000, 0.000000000000000000, 1.000000000000000000 ) ) ;
#482 = SURFACE_STYLE_USAGE ( .BOTH. , #116 ) ;
#483 = CARTESIAN_POINT ( 'NONE',  ( -4.649999999999999467, -2.550000000000000266, 5.000000000000000000 ) ) ;
#484 = DIRECTION ( 'NONE',  ( 0.000000000000000000, 0.000000000000000000, 1.000000000000000000 ) ) ;
#485 = ORIENTED_EDGE ( 'NONE', *, *, #280, .T. ) ;
#486 = CARTESIAN_POINT ( 'NONE',  ( -1.976727811918097100, 8.523793002976406186, -5.000000000000000000 ) ) ;
#487 = CARTESIAN_POINT ( 'NONE',  ( 1.976727811918037814, -8.523793002976416844, 5.000000000000000000 ) ) ;
#488 = EDGE_CURVE ( 'NONE', #364, #205, #85, .T. ) ;
#489 = EDGE_LOOP ( 'NONE', ( #830, #579, #43, #583 ) ) ;
#490 = VERTEX_POINT ( 'NONE', #847 ) ;
#491 = CARTESIAN_POINT ( 'NONE',  ( -0.1166352203497427048, 5.302018127597637687, -5.000000000000000000 ) ) ;
#492 = CARTESIAN_POINT ( 'NONE',  ( 0.1166352203496321127, 5.302018127597640351, 5.000000000000000000 ) ) ;
#493 = ORIENTED_EDGE ( 'NONE', *, *, #542, .T. ) ;
#494 = EDGE_CURVE ( 'NONE', #505, #292, #193, .T. ) ;
#495 = DIRECTION ( 'NONE',  ( 1.000000000000000000, 0.000000000000000000, 0.000000000000000000 ) ) ;
#496 = AXIS2_PLACEMENT_3D ( 'NONE', #555, #917, #909 ) ;
#497 = VECTOR ( 'NONE', #790, 1000.000000000000000 ) ;
#498 = DIRECTION ( 'NONE',  ( -0.5000000000000101030, 0.8660254037844328234, 0.000000000000000000 ) ) ;
#499 = CARTESIAN_POINT ( 'NONE',  ( -4.649999999999999467, 2.550000000000000266, 5.000000000000000000 ) ) ;
#500 = ORIENTED_EDGE ( 'NONE', *, *, #176, .F. ) ;
#501 = EDGE_CURVE ( 'NONE', #881, #258, #199, .T. ) ;
#502 = CARTESIAN_POINT ( 'NONE',  ( 4.649999999999999467, -2.550000000000000266, -5.000000000000000000 ) ) ;
#503 = FACE_BOUND ( 'NONE', #101, .T. ) ;
#504 = LINE ( 'NONE', #270, #513 ) ;
#505 = VERTEX_POINT ( 'NONE', #732 ) ;
#506 = ADVANCED_FACE ( 'NONE', ( #4 ), #591, .T. ) ;
#507 = CARTESIAN_POINT ( 'NONE',  ( 4.533364779650331577, -2.752018127597619657, 5.000000000000000000 ) ) ;
#508 = CARTESIAN_POINT ( 'NONE',  ( -4.649999999999999467, -2.550000000000000266, -5.000000000000000000 ) ) ;
#509 = VERTEX_POINT ( 'NONE', #155 ) ;
#510 = DIRECTION ( 'NONE',  ( 0.000000000000000000, 0.000000000000000000, -1.000000000000000000 ) ) ;
#511 = DIRECTION ( 'NONE',  ( 0.8660254037844398178, -0.4999999999999980016, 0.000000000000000000 ) ) ;
#512 = CIRCLE ( 'NONE', #224, 8.750000000000001776 ) ;
#513 = VECTOR ( 'NONE', #722, 1000.000000000000000 ) ;
#514 = DIRECTION ( 'NONE',  ( -1.000000000000000000, 0.000000000000000000, 0.000000000000000000 ) ) ;
#515 = AXIS2_PLACEMENT_3D ( 'NONE', #924, #481, #495 ) ;
#516 = VERTEX_POINT ( 'NONE', #12 ) ;
#517 = PLANE ( 'NONE',  #827 ) ;
#518 = CARTESIAN_POINT ( 'NONE',  ( 0.000000000000000000, 0.000000000000000000, 5.000000000000000000 ) ) ;
#519 = DIRECTION ( 'NONE',  ( 0.000000000000000000, 1.000000000000000000, 0.000000000000000000 ) ) ;
#520 = EDGE_CURVE ( 'NONE', #109, #247, #361, .T. ) ;
#521 = VERTEX_POINT ( 'NONE', #160 ) ;
#522 = DIRECTION ( 'NONE',  ( 0.000000000000000000, -0.000000000000000000, -1.000000000000000000 ) ) ;
#523 = VERTEX_POINT ( 'NONE', #664 ) ;
#524 = DIRECTION ( 'NONE',  ( 0.000000000000000000, -1.000000000000000000, 0.000000000000000000 ) ) ;
#525 = VECTOR ( 'NONE', #156, 1000.000000000000000 ) ;
#526 = ORIENTED_EDGE ( 'NONE', *, *, #265, .T. ) ;
#527 = EDGE_CURVE ( 'NONE', #823, #324, #882, .T. ) ;
#528 = LINE ( 'NONE', #317, #55 ) ;
#529 = ORIENTED_EDGE ( 'NONE', *, *, #614, .T. ) ;
#530 = CARTESIAN_POINT ( 'NONE',  ( 0.000000000000000000, 0.000000000000000000, 5.000000000000000000 ) ) ;
#531 = EDGE_CURVE ( 'NONE', #549, #780, #300, .T. ) ;
#532 = CARTESIAN_POINT ( 'NONE',  ( -8.370185183136632290, 2.550000000000000266, 5.000000000000000000 ) ) ;
#533 = ORIENTED_EDGE ( 'NONE', *, *, #94, .F. ) ;
#534 = PLANE ( 'NONE',  #712 ) ;
#535 = CARTESIAN_POINT ( 'NONE',  ( -4.533364779650312926, -2.752018127597649855, 5.000000000000000000 ) ) ;
#536 = VERTEX_POINT ( 'NONE', #372 ) ;
#537 = VECTOR ( 'NONE', #906, 1000.000000000000114 ) ;
#538 = VECTOR ( 'NONE', #227, 1000.000000000000000 ) ;
#539 = VECTOR ( 'NONE', #656, 1000.000000000000000 ) ;
#540 = ORIENTED_EDGE ( 'NONE', *, *, #440, .F. ) ;
#541 = DIRECTION ( 'NONE',  ( 0.5000000000000101030, -0.8660254037844328234, 0.000000000000000000 ) ) ;
#542 = EDGE_CURVE ( 'NONE', #799, #258, #932, .T. ) ;
#543 = EDGE_LOOP ( 'NONE', ( #485, #339, #864, #682 ) ) ;
#544 = ORIENTED_EDGE ( 'NONE', *, *, #221, .F. ) ;
#545 = LINE ( 'NONE', #257, #910 ) ;
#546 = ORIENTED_EDGE ( 'NONE', *, *, #559, .F. ) ;
#547 = DIRECTION ( 'NONE',  ( 0.000000000000000000, 0.000000000000000000, 1.000000000000000000 ) ) ;
#548 = DIRECTION ( 'NONE',  ( 0.000000000000000000, 0.000000000000000000, 1.000000000000000000 ) ) ;
#549 = VERTEX_POINT ( 'NONE', #151 ) ;
#550 = VECTOR ( 'NONE', #886, 1000.000000000000000 ) ;
#551 = CIRCLE ( 'NONE', #226, 8.750000000000001776 ) ;
#552 = EDGE_CURVE ( 'NONE', #462, #22, #234, .T. ) ;
#553 = CARTESIAN_POINT ( 'NONE',  ( 0.000000000000000000, 0.000000000000000000, -5.000000000000000000 ) ) ;
#554 = VECTOR ( 'NONE', #119, 1000.000000000000000 ) ;
#555 = CARTESIAN_POINT ( 'NONE',  ( 0.1166352203497058454, -5.302018127597639463, 5.000000000000000000 ) ) ;
#556 = DIRECTION ( 'NONE',  ( 0.000000000000000000, 0.000000000000000000, 1.000000000000000000 ) ) ;
#557 = ORIENTED_EDGE ( 'NONE', *, *, #51, .T. ) ;
#558 = CARTESIAN_POINT ( 'NONE',  ( -4.533364779650312926, -2.752018127597649855, -5.000000000000000000 ) ) ;
#559 = EDGE_CURVE ( 'NONE', #102, #621, #69, .T. ) ;
#560 = CARTESIAN_POINT ( 'NONE',  ( 0.1166352203497058454, -5.302018127597639463, 5.000000000000000000 ) ) ;
#561 = PRODUCT_DEFINITION_CONTEXT ( 'detailed design', #150, 'design' ) ;
#562 = EDGE_LOOP ( 'NONE', ( #409, #854, #231, #479 ) ) ;
#563 = EDGE_CURVE ( 'NONE', #816, #177, #577, .T. ) ;
#564 = ORIENTED_EDGE ( 'NONE', *, *, #878, .F. ) ;
#565 = DIRECTION ( 'NONE',  ( -0.5000000000000101030, 0.8660254037844328234, 0.000000000000000000 ) ) ;
#566 = LINE ( 'NONE', #705, #468 ) ;
#567 = DIRECTION ( 'NONE',  ( 0.000000000000000000, 0.000000000000000000, 1.000000000000000000 ) ) ;
#568 = ORIENTED_EDGE ( 'NONE', *, *, #817, .F. ) ;
#569 = DIRECTION ( 'NONE',  ( 0.000000000000000000, 0.000000000000000000, 1.000000000000000000 ) ) ;
#570 = VECTOR ( 'NONE', #49, 1000.000000000000000 ) ;
#571 = AXIS2_PLACEMENT_3D ( 'NONE', #677, #801, #243 ) ;
#572 = CARTESIAN_POINT ( 'NONE',  ( -4.533364779650351117, 2.752018127597585906, 5.000000000000000000 ) ) ;
#573 = LINE ( 'NONE', #492, #898 ) ;
#574 = EDGE_CURVE ( 'NONE', #177, #799, #217, .T. ) ;
#575 = VERTEX_POINT ( 'NONE', #581 ) ;
#576 = DIRECTION ( 'NONE',  ( -0.000000000000000000, -0.000000000000000000, -1.000000000000000000 ) ) ;
#577 = LINE ( 'NONE', #867, #254 ) ;
#578 = LINE ( 'NONE', #383, #755 ) ;
#579 = ORIENTED_EDGE ( 'NONE', *, *, #488, .F. ) ;
#580 = CARTESIAN_POINT ( 'NONE',  ( 8.370185183136632290, 2.550000000000000266, 5.000000000000000000 ) ) ;
#581 = CARTESIAN_POINT ( 'NONE',  ( 8.370185183136632290, -2.550000000000000266, 5.000000000000000000 ) ) ;
#582 = DIRECTION ( 'NONE',  ( 0.000000000000000000, 0.000000000000000000, 1.000000000000000000 ) ) ;
#583 = ORIENTED_EDGE ( 'NONE', *, *, #773, .T. ) ;
#584 = LINE ( 'NONE', #3, #930 ) ;
#585 = EDGE_CURVE ( 'NONE', #436, #109, #752, .T. ) ;
#586 = VECTOR ( 'NONE', #451, 1000.000000000000114 ) ;
#587 = CIRCLE ( 'NONE', #602, 8.750000000000001776 ) ;
#588 = CLOSED_SHELL ( 'NONE', ( #852, #915, #433, #797, #11, #736, #159, #756, #333, #693, #133, #860, #838, #821, #506, #625, #812, #450, #688, #245, #106, #121, #804, #604, #293, #831, #367, #659 ) ) ;
#589 = DIRECTION ( 'NONE',  ( -1.000000000000000000, 0.000000000000000000, 0.000000000000000000 ) ) ;
#590 = ORIENTED_EDGE ( 'NONE', *, *, #327, .T. ) ;
#591 = PLANE ( 'NONE',  #172 ) ;
#592 = DIRECTION ( 'NONE',  ( 0.000000000000000000, -1.000000000000000000, 0.000000000000000000 ) ) ;
#593 = EDGE_LOOP ( 'NONE', ( #201, #215, #312, #62 ) ) ;
#594 = CARTESIAN_POINT ( 'NONE',  ( -4.533364779650312926, -2.752018127597649855, 5.000000000000000000 ) ) ;
#595 = EDGE_CURVE ( 'NONE', #516, #523, #464, .T. ) ;
#596 = ORIENTED_EDGE ( 'NONE', *, *, #378, .F. ) ;
#597 = DIRECTION ( 'NONE',  ( -0.4999999999999980016, -0.8660254037844398178, 0.000000000000000000 ) ) ;
#598 = VECTOR ( 'NONE', #498, 1000.000000000000000 ) ;
#599 = CARTESIAN_POINT ( 'NONE',  ( 2.324999999999962430, 4.027018127597661312, 0.000000000000000000 ) ) ;
#600 = VECTOR ( 'NONE', #26, 1000.000000000000000 ) ;
#601 = VERTEX_POINT ( 'NONE', #165 ) ;
#602 = AXIS2_PLACEMENT_3D ( 'NONE', #626, #547, #772 ) ;
#603 = CARTESIAN_POINT ( 'NONE',  ( 0.1166352203496321127, 5.302018127597640351, 5.000000000000000000 ) ) ;
#604 = ADVANCED_FACE ( 'NONE', ( #470 ), #392, .T. ) ;
#605 = LINE ( 'NONE', #896, #550 ) ;
#606 = ORIENTED_EDGE ( 'NONE', *, *, #164, .T. ) ;
#607 = APPLICATION_PROTOCOL_DEFINITION ( 'draft international standard', 'automotive_design', 1998, #103 ) ;
#608 = CARTESIAN_POINT ( 'NONE',  ( 4.533364779650292498, 2.752018127597681829, 5.000000000000000000 ) ) ;
#609 = CARTESIAN_POINT ( 'NONE',  ( -1.976727811918096656, 8.523793002976406186, 5.000000000000000000 ) ) ;
#610 = ORIENTED_EDGE ( 'NONE', *, *, #595, .F. ) ;
#611 = VERTEX_POINT ( 'NONE', #325 ) ;
#612 = AXIS2_PLACEMENT_3D ( 'NONE', #787, #340, #277 ) ;
#613 = CARTESIAN_POINT ( 'NONE',  ( 0.000000000000000000, 0.000000000000000000, -5.000000000000000000 ) ) ;
#614 = EDGE_CURVE ( 'NONE', #236, #258, #841, .T. ) ;
#615 = AXIS2_PLACEMENT_3D ( 'NONE', #905, #190, #776 ) ;
#616 = DIRECTION ( 'NONE',  ( -0.8660254037844328234, -0.5000000000000101030, 0.000000000000000000 ) ) ;
#617 = ORIENTED_EDGE ( 'NONE', *, *, #337, .T. ) ;
#618 = CARTESIAN_POINT ( 'NONE',  ( 0.000000000000000000, 0.000000000000000000, 0.000000000000000000 ) ) ;
#619 = VECTOR ( 'NONE', #255, 1000.000000000000000 ) ;
#620 = VECTOR ( 'NONE', #751, 1000.000000000000000 ) ;
#621 = VERTEX_POINT ( 'NONE', #107 ) ;
#622 = DIRECTION ( 'NONE',  ( 1.000000000000000000, 0.000000000000000000, 0.000000000000000000 ) ) ;
#623 = CARTESIAN_POINT ( 'NONE',  ( -4.649999999999999467, 2.550000000000000266, 5.000000000000000000 ) ) ;
#624 = ORIENTED_EDGE ( 'NONE', *, *, #387, .F. ) ;
#625 = ADVANCED_FACE ( 'NONE', ( #894 ), #38, .T. ) ;
#626 = CARTESIAN_POINT ( 'NONE',  ( 0.000000000000000000, 0.000000000000000000, 5.000000000000000000 ) ) ;
#627 = LINE ( 'NONE', #560, #537 ) ;
#628 = ORIENTED_EDGE ( 'NONE', *, *, #466, .F. ) ;
#629 = EDGE_CURVE ( 'NONE', #899, #426, #512, .T. ) ;
#630 = ORIENTED_EDGE ( 'NONE', *, *, #494, .T. ) ;
#631 = DIRECTION ( 'NONE',  ( 0.000000000000000000, 0.000000000000000000, -1.000000000000000000 ) ) ;
#632 = CARTESIAN_POINT ( 'NONE',  ( -0.1166352203497427048, 5.302018127597637687, -5.000000000000000000 ) ) ;
#633 = ORIENTED_EDGE ( 'NONE', *, *, #70, .F. ) ;
#634 = AXIS2_PLACEMENT_3D ( 'NONE', #424, #713, #356 ) ;
#635 = EDGE_CURVE ( 'NONE', #829, #309, #382, .T. ) ;
#636 = VECTOR ( 'NONE', #147, 1000.000000000000000 ) ;
#637 = FACE_OUTER_BOUND ( 'NONE', #14, .T. ) ;
#638 = FACE_OUTER_BOUND ( 'NONE', #489, .T. ) ;
#639 = ORIENTED_EDGE ( 'NONE', *, *, #308, .T. ) ;
#640 = DIRECTION ( 'NONE',  ( -1.000000000000000000, 0.000000000000000000, 0.000000000000000000 ) ) ;
#641 = FACE_OUTER_BOUND ( 'NONE', #371, .T. ) ;
#642 = CYLINDRICAL_SURFACE ( 'NONE', #377, 8.750000000000001776 ) ;
#643 = VERTEX_POINT ( 'NONE', #18 ) ;
#644 = LINE ( 'NONE', #421, #21 ) ;
#645 =( LENGTH_UNIT ( ) NAMED_UNIT ( * ) SI_UNIT ( .MILLI., .METRE. ) );
#646 = EDGE_CURVE ( 'NONE', #309, #575, #748, .T. ) ;
#647 = PLANE ( 'NONE',  #143 ) ;
#648 = EDGE_LOOP ( 'NONE', ( #694, #500 ) ) ;
#649 = PLANE ( 'NONE',  #571 ) ;
#650 = VECTOR ( 'NONE', #737, 1000.000000000000114 ) ;
#651 = AXIS2_PLACEMENT_3D ( 'NONE', #507, #866, #792 ) ;
#652 = CARTESIAN_POINT ( 'NONE',  ( -4.533364779650312926, -2.752018127597649855, -5.000000000000000000 ) ) ;
#653 = ORIENTED_EDGE ( 'NONE', *, *, #744, .F. ) ;
#654 = VERTEX_POINT ( 'NONE', #678 ) ;
#655 = DIRECTION ( 'NONE',  ( 0.8660254037844432595, -0.4999999999999919509, 0.000000000000000000 ) ) ;
#656 = DIRECTION ( 'NONE',  ( 0.000000000000000000, 0.000000000000000000, 1.000000000000000000 ) ) ;
#657 = ORIENTED_EDGE ( 'NONE', *, *, #635, .F. ) ;
#658 = AXIS2_PLACEMENT_3D ( 'NONE', #695, #44, #262 ) ;
#659 = ADVANCED_FACE ( 'NONE', ( #92 ), #534, .T. ) ;
#660 = FACE_OUTER_BOUND ( 'NONE', #928, .T. ) ;
#661 = DIRECTION ( 'NONE',  ( 0.4999999999999979461, 0.8660254037844397068, 0.000000000000000000 ) ) ;
#662 = CARTESIAN_POINT ( 'NONE',  ( 0.000000000000000000, 0.000000000000000000, 5.000000000000000000 ) ) ;
#663 = EDGE_LOOP ( 'NONE', ( #354, #533, #837, #715 ) ) ;
#664 = CARTESIAN_POINT ( 'NONE',  ( 4.649999999999999467, 2.550000000000000266, -5.000000000000000000 ) ) ;
#665 = AXIS2_PLACEMENT_3D ( 'NONE', #75, #79, #228 ) ;
#666 = AXIS2_PLACEMENT_3D ( 'NONE', #362, #556, #76 ) ;
#667 = EDGE_CURVE ( 'NONE', #643, #884, #59, .T. ) ;
#668 = LINE ( 'NONE', #872, #192 ) ;
#669 = ORIENTED_EDGE ( 'NONE', *, *, #210, .T. ) ;
#670 = CARTESIAN_POINT ( 'NONE',  ( 0.1166352203497058454, -5.302018127597639463, -5.000000000000000000 ) ) ;
#671 = LINE ( 'NONE', #301, #636 ) ;
#672 = ORIENTED_EDGE ( 'NONE', *, *, #363, .T. ) ;
#673 = DIRECTION ( 'NONE',  ( 0.000000000000000000, 0.000000000000000000, 1.000000000000000000 ) ) ;
#674 = DIRECTION ( 'NONE',  ( 1.000000000000000000, 0.000000000000000000, -0.000000000000000000 ) ) ;
#675 = EDGE_CURVE ( 'NONE', #780, #884, #60, .T. ) ;
#676 = ORIENTED_EDGE ( 'NONE', *, *, #407, .F. ) ;
#677 = CARTESIAN_POINT ( 'NONE',  ( -4.533364779650351117, 2.752018127597585906, 5.000000000000000000 ) ) ;
#678 = CARTESIAN_POINT ( 'NONE',  ( 4.049999999999999822, 4.959819536546779614E-16, -5.000000000000000000 ) ) ;
#679 = COLOUR_RGB ( '',0.7921568627450980005, 0.8196078431372548767, 0.9333333333333333481 ) ;
#680 = CARTESIAN_POINT ( 'NONE',  ( 6.393457371218579155, 5.973793002976488076, 5.000000000000000000 ) ) ;
#681 = CIRCLE ( 'NONE', #127, 4.049999999999999822 ) ;
#682 = ORIENTED_EDGE ( 'NONE', *, *, #395, .T. ) ;
#683 = CARTESIAN_POINT ( 'NONE',  ( 4.533364779650292498, 2.752018127597681829, -5.000000000000000000 ) ) ;
#684 = DIRECTION ( 'NONE',  ( 1.000000000000000000, 0.000000000000000000, 0.000000000000000000 ) ) ;
#685 = CARTESIAN_POINT ( 'NONE',  ( 4.049999999999999822, 4.959819536546779614E-16, 5.000000000000000000 ) ) ;
#686 = ORIENTED_EDGE ( 'NONE', *, *, #667, .T. ) ;
#687 = ORIENTED_EDGE ( 'NONE', *, *, #783, .T. ) ;
#688 = ADVANCED_FACE ( 'NONE', ( #266 ), #704, .T. ) ;
#689 = DIRECTION ( 'NONE',  ( -0.000000000000000000, -0.000000000000000000, -1.000000000000000000 ) ) ;
#690 = ORIENTED_EDGE ( 'NONE', *, *, #646, .T. ) ;
#691 = ORIENTED_EDGE ( 'NONE', *, *, #927, .T. ) ;
#692 = LINE ( 'NONE', #760, #771 ) ;
#693 = ADVANCED_FACE ( 'NONE', ( #417 ), #855, .F. ) ;
#694 = ORIENTED_EDGE ( 'NONE', *, *, #117, .F. ) ;
#695 = CARTESIAN_POINT ( 'NONE',  ( 0.000000000000000000, 0.000000000000000000, -5.000000000000000000 ) ) ;
#696 = LINE ( 'NONE', #883, #208 ) ;
#697 = ORIENTED_EDGE ( 'NONE', *, *, #378, .T. ) ;
#698 =( NAMED_UNIT ( * ) PLANE_ANGLE_UNIT ( ) SI_UNIT ( $, .RADIAN. ) );
#699 = CARTESIAN_POINT ( 'NONE',  ( 0.000000000000000000, 0.000000000000000000, 5.000000000000000000 ) ) ;
#700 = CARTESIAN_POINT ( 'NONE',  ( -4.649999999999999467, 2.550000000000000266, 5.000000000000000000 ) ) ;
#701 = EDGE_CURVE ( 'NONE', #9, #739, #717, .T. ) ;
#702 = ORIENTED_EDGE ( 'NONE', *, *, #773, .F. ) ;
#703 = ORIENTED_EDGE ( 'NONE', *, *, #176, .T. ) ;
#704 = PLANE ( 'NONE',  #612 ) ;
#705 = CARTESIAN_POINT ( 'NONE',  ( 4.533364779650292498, 2.752018127597681829, 5.000000000000000000 ) ) ;
#706 = DIRECTION ( 'NONE',  ( 0.000000000000000000, 0.000000000000000000, -1.000000000000000000 ) ) ;
#707 = ORIENTED_EDGE ( 'NONE', *, *, #865, .T. ) ;
#708 = VECTOR ( 'NONE', #478, 1000.000000000000000 ) ;
#709 = AXIS2_PLACEMENT_3D ( 'NONE', #603, #655, #365 ) ;
#710 = AXIS2_PLACEMENT_3D ( 'NONE', #810, #519, #230 ) ;
#711 = CARTESIAN_POINT ( 'NONE',  ( 0.000000000000000000, 0.000000000000000000, 5.000000000000000000 ) ) ;
#712 = AXIS2_PLACEMENT_3D ( 'NONE', #824, #565, #839 ) ;
#713 = DIRECTION ( 'NONE',  ( 0.000000000000000000, 0.000000000000000000, 1.000000000000000000 ) ) ;
#714 = CARTESIAN_POINT ( 'NONE',  ( -0.1166352203496689860, -5.302018127597639463, 5.000000000000000000 ) ) ;
#715 = ORIENTED_EDGE ( 'NONE', *, *, #20, .T. ) ;
#716 = EDGE_CURVE ( 'NONE', #292, #436, #202, .T. ) ;
#717 = LINE ( 'NONE', #491, #68 ) ;
#718 = CARTESIAN_POINT ( 'NONE',  ( 4.533364779650292498, 2.752018127597681829, 5.000000000000000000 ) ) ;
#719 = ORIENTED_EDGE ( 'NONE', *, *, #520, .T. ) ;
#720 = CARTESIAN_POINT ( 'NONE',  ( -6.393457371218705276, 5.973793002976353073, 5.000000000000000000 ) ) ;
#721 = DIRECTION ( 'NONE',  ( 0.8660254037844397068, -0.4999999999999979461, 0.000000000000000000 ) ) ;
#722 = DIRECTION ( 'NONE',  ( -0.8660254037844328234, -0.5000000000000101030, 0.000000000000000000 ) ) ;
#723 = PRODUCT_DEFINITION ( 'UNKNOWN', '', #455, #561 ) ;
#724 = EDGE_LOOP ( 'NONE', ( #750, #546, #540, #33 ) ) ;
#725 = VECTOR ( 'NONE', #98, 1000.000000000000000 ) ;
#726 = DIRECTION ( 'NONE',  ( -0.000000000000000000, -0.000000000000000000, -1.000000000000000000 ) ) ;
#727 = VECTOR ( 'NONE', #65, 1000.000000000000000 ) ;
#728 = PLANE ( 'NONE',  #710 ) ;
#729 = EDGE_CURVE ( 'NONE', #402, #435, #316, .T. ) ;
#730 = ORIENTED_EDGE ( 'NONE', *, *, #817, .T. ) ;
#731 = DIRECTION ( 'NONE',  ( -0.8660254037844398178, 0.4999999999999980016, 0.000000000000000000 ) ) ;
#732 = CARTESIAN_POINT ( 'NONE',  ( -4.649999999999999467, 2.550000000000000266, -5.000000000000000000 ) ) ;
#733 = CARTESIAN_POINT ( 'NONE',  ( -1.976727811918096656, 8.523793002976406186, 5.000000000000000000 ) ) ;
#734 = EDGE_CURVE ( 'NONE', #142, #490, #344, .T. ) ;
#735 = ORIENTED_EDGE ( 'NONE', *, *, #189, .T. ) ;
#736 = ADVANCED_FACE ( 'NONE', ( #637 ), #206, .T. ) ;
#737 = DIRECTION ( 'NONE',  ( -0.8660254037844397068, 0.4999999999999979461, 0.000000000000000000 ) ) ;
#738 = CARTESIAN_POINT ( 'NONE',  ( 4.649999999999999467, 0.000000000000000000, 0.000000000000000000 ) ) ;
#739 = VERTEX_POINT ( 'NONE', #486 ) ;
#740 = VECTOR ( 'NONE', #326, 1000.000000000000114 ) ;
#741 = LINE ( 'NONE', #86, #285 ) ;
#742 = PRODUCT_DEFINITION_SHAPE ( 'NONE', 'NONE',  #723 ) ;
#743 = ORIENTED_EDGE ( 'NONE', *, *, #675, .F. ) ;
#744 = EDGE_CURVE ( 'NONE', #177, #509, #644, .T. ) ;
#745 = LINE ( 'NONE', #89, #99 ) ;
#746 = EDGE_LOOP ( 'NONE', ( #858, #770, #90, #242 ) ) ;
#747 = CARTESIAN_POINT ( 'NONE',  ( 0.1166352203497058454, -5.302018127597639463, 5.000000000000000000 ) ) ;
#748 = LINE ( 'NONE', #310, #345 ) ;
#749 = CARTESIAN_POINT ( 'NONE',  ( -0.1166352203497427048, 5.302018127597637687, 5.000000000000000000 ) ) ;
#750 = ORIENTED_EDGE ( 'NONE', *, *, #29, .F. ) ;
#751 = DIRECTION ( 'NONE',  ( 0.000000000000000000, 0.000000000000000000, 1.000000000000000000 ) ) ;
#752 = LINE ( 'NONE', #397, #619 ) ;
#753 = VECTOR ( 'NONE', #673, 1000.000000000000000 ) ;
#754 = DIRECTION ( 'NONE',  ( -1.000000000000000000, 0.000000000000000000, 0.000000000000000000 ) ) ;
#755 = VECTOR ( 'NONE', #868, 1000.000000000000000 ) ;
#756 = ADVANCED_FACE ( 'NONE', ( #283 ), #273, .T. ) ;
#757 = EDGE_LOOP ( 'NONE', ( #610, #544, #657, #61 ) ) ;
#758 = VECTOR ( 'NONE', #129, 1000.000000000000114 ) ;
#759 = ORIENTED_EDGE ( 'NONE', *, *, #494, .F. ) ;
#760 = CARTESIAN_POINT ( 'NONE',  ( 4.649999999999999467, 2.550000000000000266, 5.000000000000000000 ) ) ;
#761 = EDGE_LOOP ( 'NONE', ( #353, #765, #903, #287 ) ) ;
#762 = DIRECTION ( 'NONE',  ( 0.000000000000000000, 0.000000000000000000, 1.000000000000000000 ) ) ;
#763 = EDGE_CURVE ( 'NONE', #536, #654, #789, .T. ) ;
#764 = DIRECTION ( 'NONE',  ( 1.000000000000000000, 0.000000000000000000, 0.000000000000000000 ) ) ;
#765 = ORIENTED_EDGE ( 'NONE', *, *, #729, .T. ) ;
#766 =( NAMED_UNIT ( * ) SI_UNIT ( $, .STERADIAN. ) SOLID_ANGLE_UNIT ( ) );
#767 = EDGE_CURVE ( 'NONE', #575, #187, #110, .T. ) ;
#768 = DIRECTION ( 'NONE',  ( 0.000000000000000000, -1.000000000000000000, 0.000000000000000000 ) ) ;
#769 = CARTESIAN_POINT ( 'NONE',  ( 1.976727811917918576, 8.523793002976447042, 5.000000000000000000 ) ) ;
#770 = ORIENTED_EDGE ( 'NONE', *, *, #552, .F. ) ;
#771 = VECTOR ( 'NONE', #186, 1000.000000000000000 ) ;
#772 = DIRECTION ( 'NONE',  ( 1.000000000000000000, 0.000000000000000000, 0.000000000000000000 ) ) ;
#773 = EDGE_CURVE ( 'NONE', #136, #739, #856, .T. ) ;
#774 = CARTESIAN_POINT ( 'NONE',  ( -8.370185183136632290, 2.550000000000000266, -5.000000000000000000 ) ) ;
#775 = CARTESIAN_POINT ( 'NONE',  ( -8.370185183136632290, -2.550000000000000266, 5.000000000000000000 ) ) ;
#776 = DIRECTION ( 'NONE',  ( -1.000000000000000000, 0.000000000000000000, 0.000000000000000000 ) ) ;
#777 = DIRECTION ( 'NONE',  ( 0.000000000000000000, 0.000000000000000000, 1.000000000000000000 ) ) ;
#778 = DIRECTION ( 'NONE',  ( -1.000000000000000000, 0.000000000000000000, 0.000000000000000000 ) ) ;
#779 = AXIS2_PLACEMENT_3D ( 'NONE', #553, #569, #477 ) ;
#780 = VERTEX_POINT ( 'NONE', #558 ) ;
#781 = CARTESIAN_POINT ( 'NONE',  ( 4.533364779650292498, 2.752018127597681829, -5.000000000000000000 ) ) ;
#782 = LINE ( 'NONE', #275, #828 ) ;
#783 = EDGE_CURVE ( 'NONE', #791, #888, #197, .T. ) ;
#784 = ORIENTED_EDGE ( 'NONE', *, *, #17, .F. ) ;
#785 = VECTOR ( 'NONE', #461, 1000.000000000000000 ) ;
#786 = AXIS2_PLACEMENT_3D ( 'NONE', #15, #582, #8 ) ;
#787 = CARTESIAN_POINT ( 'NONE',  ( 2.325000000000018829, -4.027018127597630226, 0.000000000000000000 ) ) ;
#788 = CARTESIAN_POINT ( 'NONE',  ( -4.649999999999999467, -2.550000000000000266, 5.000000000000000000 ) ) ;
#789 = CIRCLE ( 'NONE', #779, 4.049999999999999822 ) ;
#790 = DIRECTION ( 'NONE',  ( 0.000000000000000000, 0.000000000000000000, -1.000000000000000000 ) ) ;
#791 = VERTEX_POINT ( 'NONE', #124 ) ;
#792 = DIRECTION ( 'NONE',  ( 0.5000000000000039968, -0.8660254037844363761, 0.000000000000000000 ) ) ;
#793 = EDGE_CURVE ( 'NONE', #384, #881, #587, .T. ) ;
#794 = DIRECTION ( 'NONE',  ( 0.000000000000000000, 0.000000000000000000, 1.000000000000000000 ) ) ;
#795 = ORIENTED_EDGE ( 'NONE', *, *, #476, .F. ) ;
#796 = DIRECTION ( 'NONE',  ( -0.4999999999999979461, -0.8660254037844397068, 0.000000000000000000 ) ) ;
#797 = ADVANCED_FACE ( 'NONE', ( #115 ), #412, .T. ) ;
#798 = PLANE ( 'NONE',  #302 ) ;
#799 = VERTEX_POINT ( 'NONE', #359 ) ;
#800 = VECTOR ( 'NONE', #862, 1000.000000000000000 ) ;
#801 = DIRECTION ( 'NONE',  ( 0.8660254037844328234, 0.5000000000000101030, 0.000000000000000000 ) ) ;
#802 = CIRCLE ( 'NONE', #786, 4.049999999999999822 ) ;
#803 = DIRECTION ( 'NONE',  ( 0.000000000000000000, 0.000000000000000000, 1.000000000000000000 ) ) ;
#804 = ADVANCED_FACE ( 'NONE', ( #660 ), #319, .T. ) ;
#805 = LINE ( 'NONE', #80, #525 ) ;
#806 = ORIENTED_EDGE ( 'NONE', *, *, #527, .T. ) ;
#807 = LINE ( 'NONE', #747, #620 ) ;
#808 = DIRECTION ( 'NONE',  ( 0.000000000000000000, 0.000000000000000000, 1.000000000000000000 ) ) ;
#809 = ORIENTED_EDGE ( 'NONE', *, *, #387, .T. ) ;
#810 = CARTESIAN_POINT ( 'NONE',  ( -4.649999999999999467, -2.550000000000000266, 5.000000000000000000 ) ) ;
#811 = ORIENTED_EDGE ( 'NONE', *, *, #559, .T. ) ;
#812 = ADVANCED_FACE ( 'NONE', ( #216 ), #23, .T. ) ;
#813 = CARTESIAN_POINT ( 'NONE',  ( -4.533364779650312926, -2.752018127597649855, 5.000000000000000000 ) ) ;
#814 = VECTOR ( 'NONE', #514, 1000.000000000000000 ) ;
#815 = CARTESIAN_POINT ( 'NONE',  ( 0.000000000000000000, 0.000000000000000000, 5.000000000000000000 ) ) ;
#816 = VERTEX_POINT ( 'NONE', #861 ) ;
#817 = EDGE_CURVE ( 'NONE', #37, #816, #584, .T. ) ;
#818 = PLANE ( 'NONE',  #72 ) ;
#819 = EDGE_LOOP ( 'NONE', ( #672, #196, #264, #526 ) ) ;
#820 = FACE_OUTER_BOUND ( 'NONE', #282, .T. ) ;
#821 = ADVANCED_FACE ( 'NONE', ( #168 ), #212, .T. ) ;
#822 = LINE ( 'NONE', #680, #708 ) ;
#823 = VERTEX_POINT ( 'NONE', #580 ) ;
#824 = CARTESIAN_POINT ( 'NONE',  ( -2.325000000000046807, 4.027018127597611574, 0.000000000000000000 ) ) ;
#825 = VECTOR ( 'NONE', #689, 1000.000000000000000 ) ;
#826 = CARTESIAN_POINT ( 'NONE',  ( -1.976727811917978306, -8.523793002976432831, 5.000000000000000000 ) ) ;
#827 = AXIS2_PLACEMENT_3D ( 'NONE', #144, #871, #510 ) ;
#828 = VECTOR ( 'NONE', #922, 1000.000000000000000 ) ;
#829 = VERTEX_POINT ( 'NONE', #502 ) ;
#830 = ORIENTED_EDGE ( 'NONE', *, *, #419, .F. ) ;
#831 = ADVANCED_FACE ( 'NONE', ( #7 ), #649, .T. ) ;
#832 = CARTESIAN_POINT ( 'NONE',  ( -6.393457371218705276, 5.973793002976353073, 5.000000000000000000 ) ) ;
#833 = ORIENTED_EDGE ( 'NONE', *, *, #363, .F. ) ;
#834 = ORIENTED_EDGE ( 'NONE', *, *, #29, .T. ) ;
#835 = CARTESIAN_POINT ( 'NONE',  ( 4.649999999999999467, -2.550000000000000266, 5.000000000000000000 ) ) ;
#836 = CARTESIAN_POINT ( 'NONE',  ( 0.000000000000000000, 0.000000000000000000, 5.000000000000000000 ) ) ;
#837 = ORIENTED_EDGE ( 'NONE', *, *, #210, .F. ) ;
#838 = ADVANCED_FACE ( 'NONE', ( #313 ), #432, .T. ) ;
#839 = DIRECTION ( 'NONE',  ( 0.000000000000000000, 0.000000000000000000, 1.000000000000000000 ) ) ;
#840 = DIRECTION ( 'NONE',  ( 1.000000000000000000, 0.000000000000000000, 0.000000000000000000 ) ) ;
#841 = CIRCLE ( 'NONE', #390, 8.750000000000001776 ) ;
#842 = ADVANCED_BREP_SHAPE_REPRESENTATION ( 'P001-B102_MagnetHolderRing_Rev2C_6', ( #447, #897 ), #376 ) ;
#843 = FACE_OUTER_BOUND ( 'NONE', #27, .T. ) ;
#844 = VECTOR ( 'NONE', #589, 1000.000000000000000 ) ;
#845 = ORIENTED_EDGE ( 'NONE', *, *, #429, .F. ) ;
#846 = DIRECTION ( 'NONE',  ( -0.000000000000000000, -0.000000000000000000, -1.000000000000000000 ) ) ;
#847 = CARTESIAN_POINT ( 'NONE',  ( -4.533364779650351117, 2.752018127597585906, -5.000000000000000000 ) ) ;
#848 = CARTESIAN_POINT ( 'NONE',  ( 0.000000000000000000, 0.000000000000000000, -5.000000000000000000 ) ) ;
#849 = VERTEX_POINT ( 'NONE', #96 ) ;
#850 = DIRECTION ( 'NONE',  ( 0.5000000000000039968, -0.8660254037844363761, 0.000000000000000000 ) ) ;
#851 = LINE ( 'NONE', #213, #40 ) ;
#852 = ADVANCED_FACE ( 'NONE', ( #874 ), #134, .F. ) ;
#853 = ORIENTED_EDGE ( 'NONE', *, *, #250, .T. ) ;
#854 = ORIENTED_EDGE ( 'NONE', *, *, #701, .F. ) ;
#855 = CYLINDRICAL_SURFACE ( 'NONE', #401, 4.049999999999999822 ) ;
#856 = CIRCLE ( 'NONE', #658, 8.750000000000001776 ) ;
#857 = CARTESIAN_POINT ( 'NONE',  ( -0.1166352203496689860, -5.302018127597639463, 5.000000000000000000 ) ) ;
#858 = ORIENTED_EDGE ( 'NONE', *, *, #88, .F. ) ;
#859 = AXIS2_PLACEMENT_3D ( 'NONE', #78, #163, #299 ) ;
#860 = ADVANCED_FACE ( 'NONE', ( #820 ), #517, .T. ) ;
#861 = CARTESIAN_POINT ( 'NONE',  ( 4.533364779650331577, -2.752018127597619657, 5.000000000000000000 ) ) ;
#862 = DIRECTION ( 'NONE',  ( -0.5000000000000101030, 0.8660254037844328234, 0.000000000000000000 ) ) ;
#863 = DIRECTION ( 'NONE',  ( 0.000000000000000000, 1.000000000000000000, 0.000000000000000000 ) ) ;
#864 = ORIENTED_EDGE ( 'NONE', *, *, #595, .T. ) ;
#865 = EDGE_CURVE ( 'NONE', #411, #654, #138, .T. ) ;
#866 = DIRECTION ( 'NONE',  ( -0.8660254037844363761, -0.5000000000000039968, 0.000000000000000000 ) ) ;
#867 = CARTESIAN_POINT ( 'NONE',  ( 4.533364779650331577, -2.752018127597619657, 5.000000000000000000 ) ) ;
#868 = DIRECTION ( 'NONE',  ( 0.4999999999999919509, 0.8660254037844432595, 0.000000000000000000 ) ) ;
#869 = ORIENTED_EDGE ( 'NONE', *, *, #229, .F. ) ;
#870 = EDGE_CURVE ( 'NONE', #888, #611, #458, .T. ) ;
#871 = DIRECTION ( 'NONE',  ( 0.000000000000000000, -1.000000000000000000, -0.000000000000000000 ) ) ;
#872 = CARTESIAN_POINT ( 'NONE',  ( 4.533364779650331577, -2.752018127597619657, 5.000000000000000000 ) ) ;
#873 = ORIENTED_EDGE ( 'NONE', *, *, #542, .F. ) ;
#874 = FACE_OUTER_BOUND ( 'NONE', #225, .T. ) ;
#875 = LINE ( 'NONE', #594, #539 ) ;
#876 = ORIENTED_EDGE ( 'NONE', *, *, #51, .F. ) ;
#877 = FACE_OUTER_BOUND ( 'NONE', #543, .T. ) ;
#878 = EDGE_CURVE ( 'NONE', #799, #37, #807, .T. ) ;
#879 = ORIENTED_EDGE ( 'NONE', *, *, #288, .T. ) ;
#880 = CYLINDRICAL_SURFACE ( 'NONE', #267, 8.750000000000001776 ) ;
#881 = VERTEX_POINT ( 'NONE', #91 ) ;
#882 = CIRCLE ( 'NONE', #97, 8.750000000000001776 ) ;
#883 = CARTESIAN_POINT ( 'NONE',  ( 4.649999999999999467, 2.550000000000000266, -5.000000000000000000 ) ) ;
#884 = VERTEX_POINT ( 'NONE', #389 ) ;
#885 = CARTESIAN_POINT ( 'NONE',  ( -0.1166352203496689860, -5.302018127597639463, 5.000000000000000000 ) ) ;
#886 = DIRECTION ( 'NONE',  ( 0.000000000000000000, 0.000000000000000000, 1.000000000000000000 ) ) ;
#887 = ORIENTED_EDGE ( 'NONE', *, *, #667, .F. ) ;
#888 = VERTEX_POINT ( 'NONE', #683 ) ;
#889 = EDGE_CURVE ( 'NONE', #849, #505, #28, .T. ) ;
#890 = DIRECTION ( 'NONE',  ( 0.4999999999999919509, 0.8660254037844432595, -0.000000000000000000 ) ) ;
#891 = ORIENTED_EDGE ( 'NONE', *, *, #466, .T. ) ;
#892 = DIRECTION ( 'NONE',  ( 1.000000000000000000, 0.000000000000000000, 0.000000000000000000 ) ) ;
#893 = ORIENTED_EDGE ( 'NONE', *, *, #793, .T. ) ;
#894 = FACE_OUTER_BOUND ( 'NONE', #746, .T. ) ;
#895 = AXIS2_PLACEMENT_3D ( 'NONE', #836, #32, #754 ) ;
#896 = CARTESIAN_POINT ( 'NONE',  ( 8.370185183136632290, 2.550000000000000266, 5.000000000000000000 ) ) ;
#897 = AXIS2_PLACEMENT_3D ( 'NONE', #618, #414, #892 ) ;
#898 = VECTOR ( 'NONE', #56, 1000.000000000000000 ) ;
#899 = VERTEX_POINT ( 'NONE', #720 ) ;
#900 = VECTOR ( 'NONE', #768, 1000.000000000000000 ) ;
#901 = ORIENTED_EDGE ( 'NONE', *, *, #614, .F. ) ;
#902 = CARTESIAN_POINT ( 'NONE',  ( 6.393457371218579155, 5.973793002976488076, 5.000000000000000000 ) ) ;
#903 = ORIENTED_EDGE ( 'NONE', *, *, #298, .F. ) ;
#904 = ORIENTED_EDGE ( 'NONE', *, *, #744, .T. ) ;
#905 = CARTESIAN_POINT ( 'NONE',  ( 0.000000000000000000, 0.000000000000000000, 5.000000000000000000 ) ) ;
#906 = DIRECTION ( 'NONE',  ( 0.5000000000000039968, -0.8660254037844363761, 0.000000000000000000 ) ) ;
#907 = EDGE_LOOP ( 'NONE', ( #639, #87, #123, #154 ) ) ;
#908 = DIRECTION ( 'NONE',  ( -0.000000000000000000, -0.000000000000000000, -1.000000000000000000 ) ) ;
#909 = DIRECTION ( 'NONE',  ( -0.5000000000000039968, 0.8660254037844363761, 0.000000000000000000 ) ) ;
#910 = VECTOR ( 'NONE', #400, 1000.000000000000000 ) ;
#911 = EDGE_LOOP ( 'NONE', ( #784, #919, #759, #281 ) ) ;
#912 = AXIS2_PLACEMENT_3D ( 'NONE', #131, #794, #430 ) ;
#913 = AXIS2_PLACEMENT_3D ( 'NONE', #885, #731, #796 ) ;
#914 = ORIENTED_EDGE ( 'NONE', *, *, #531, .T. ) ;
#915 = ADVANCED_FACE ( 'NONE', ( #67, #289 ), #74, .T. ) ;
#916 = DIRECTION ( 'NONE',  ( -0.5000000000000101030, 0.8660254037844328234, 0.000000000000000000 ) ) ;
#917 = DIRECTION ( 'NONE',  ( 0.8660254037844363761, 0.5000000000000039968, -0.000000000000000000 ) ) ;
#918 = LINE ( 'NONE', #483, #57 ) ;
#919 = ORIENTED_EDGE ( 'NONE', *, *, #716, .F. ) ;
#920 = CARTESIAN_POINT ( 'NONE',  ( -4.533364779650351117, 2.752018127597585906, 5.000000000000000000 ) ) ;
#921 = SURFACE_STYLE_FILL_AREA ( #135 ) ;
#922 = DIRECTION ( 'NONE',  ( 0.000000000000000000, 0.000000000000000000, 1.000000000000000000 ) ) ;
#923 = ORIENTED_EDGE ( 'NONE', *, *, #865, .F. ) ;
#924 = CARTESIAN_POINT ( 'NONE',  ( 0.000000000000000000, 0.000000000000000000, -5.000000000000000000 ) ) ;
#925 = CARTESIAN_POINT ( 'NONE',  ( -4.533364779650351117, 2.752018127597585906, -5.000000000000000000 ) ) ;
#926 = CARTESIAN_POINT ( 'NONE',  ( 4.649999999999999467, -2.550000000000000266, 5.000000000000000000 ) ) ;
#927 = EDGE_CURVE ( 'NONE', #136, #364, #410, .T. ) ;
#928 = EDGE_LOOP ( 'NONE', ( #691, #633, #834, #66 ) ) ;
#929 = VECTOR ( 'NONE', #311, 1000.000000000000000 ) ;
#930 = VECTOR ( 'NONE', #220, 999.9999999999998863 ) ;
#931 = CARTESIAN_POINT ( 'NONE',  ( 4.049999999999999822, 4.959819536546779614E-16, 5.000000000000000000 ) ) ;
#932 = LINE ( 'NONE', #670, #586 ) ;
#933 = CARTESIAN_POINT ( 'NONE',  ( -0.1166352203496689860, -5.302018127597639463, 5.000000000000000000 ) ) ;
ENDSEC;
END-ISO-10303-21;
