ISO-10303-21;
HEADER;
FILE_DESCRIPTION (( 'STEP AP214' ),
    '1' );
FILE_NAME ('P001-B102_BallMount_Rev2D-2.STEP',
    '2026-04-21T00:29:42',
    ( '' ),
    ( '' ),
    'SwSTEP 2.0',
    'SolidWorks 2026',
    '' );
FILE_SCHEMA (( 'AUTOMOTIVE_DESIGN' ));
ENDSEC;

DATA;
#1 = CARTESIAN_POINT ( 'NONE',  ( 0.000000000000000000, 0.000000000000000000, 0.000000000000000000 ) ) ;
#2 = LINE ( 'NONE', #369, #53 ) ;
#3 = PRODUCT ( 'P001-B102_BallMount_Rev2D-2', 'P001-B102_BallMount_Rev2D-2', '', ( #395 ) ) ;
#4 = CIRCLE ( 'NONE', #223, 4.000000000000000000 ) ;
#5 = EDGE_CURVE ( 'NONE', #142, #152, #185, .T. ) ;
#6 = LINE ( 'NONE', #282, #175 ) ;
#7 = CARTESIAN_POINT ( 'NONE',  ( 9.750000000000000000, -16.24999999999999645, -10.00000000000000000 ) ) ;
#8 = PRODUCT_DEFINITION ( 'UNKNOWN', '', #108, #222 ) ;
#9 = VECTOR ( 'NONE', #197, 1000.000000000000000 ) ;
#10 = CARTESIAN_POINT ( 'NONE',  ( -9.750000000000001776, -16.24999999999999645, 6.500000000000000888 ) ) ;
#11 = ORIENTED_EDGE ( 'NONE', *, *, #335, .T. ) ;
#12 = MANIFOLD_SOLID_BREP ( 'Fillet2', #84 ) ;
#13 = CARTESIAN_POINT ( 'NONE',  ( 0.000000000000000000, 0.000000000000000000, 0.000000000000000000 ) ) ;
#14 = DIRECTION ( 'NONE',  ( -1.000000000000000000, -0.000000000000000000, 0.000000000000000000 ) ) ;
#15 = DIRECTION ( 'NONE',  ( -0.000000000000000000, 1.000000000000000000, 1.224646799147353207E-16 ) ) ;
#16 = EDGE_CURVE ( 'NONE', #270, #208, #315, .T. ) ;
#17 = PLANE ( 'NONE',  #339 ) ;
#18 = ORIENTED_EDGE ( 'NONE', *, *, #230, .F. ) ;
#19 = PLANE ( 'NONE',  #90 ) ;
#20 = VERTEX_POINT ( 'NONE', #122 ) ;
#21 = DIRECTION ( 'NONE',  ( 0.000000000000000000, 0.000000000000000000, 1.000000000000000000 ) ) ;
#22 = ORIENTED_EDGE ( 'NONE', *, *, #383, .T. ) ;
#23 = EDGE_CURVE ( 'NONE', #221, #119, #300, .T. ) ;
#24 = CIRCLE ( 'NONE', #243, 7.500000000000000000 ) ;
#25 = FACE_OUTER_BOUND ( 'NONE', #358, .T. ) ;
#26 = ORIENTED_EDGE ( 'NONE', *, *, #5, .T. ) ;
#27 = CARTESIAN_POINT ( 'NONE',  ( 9.750000000000000000, 11.68295544692684729, -9.999999999999996447 ) ) ;
#28 = ORIENTED_EDGE ( 'NONE', *, *, #128, .F. ) ;
#29 = CARTESIAN_POINT ( 'NONE',  ( 0.000000000000000000, -15.24999999999999645, -4.000000000000001776 ) ) ;
#30 = ORIENTED_EDGE ( 'NONE', *, *, #349, .T. ) ;
#31 = AXIS2_PLACEMENT_3D ( 'NONE', #224, #217, #291 ) ;
#32 = CARTESIAN_POINT ( 'NONE',  ( 0.000000000000000000, -16.24999999999999645, -1.990051048614448919E-15 ) ) ;
#33 = DIRECTION ( 'NONE',  ( 1.000000000000000000, 0.000000000000000000, 0.000000000000000000 ) ) ;
#34 = AXIS2_PLACEMENT_3D ( 'NONE', #156, #314, #373 ) ;
#35 = PLANE ( 'NONE',  #125 ) ;
#36 = DIRECTION ( 'NONE',  ( 0.000000000000000000, 1.224646799147353207E-16, -1.000000000000000000 ) ) ;
#37 = LINE ( 'NONE', #225, #387 ) ;
#38 = CIRCLE ( 'NONE', #242, 3.000000000000000000 ) ;
#39 = EDGE_CURVE ( 'NONE', #47, #203, #24, .T. ) ;
#40 = AXIS2_PLACEMENT_3D ( 'NONE', #299, #161, #100 ) ;
#41 = DIRECTION ( 'NONE',  ( 0.000000000000000000, 0.000000000000000000, 1.000000000000000000 ) ) ;
#42 = AXIS2_PLACEMENT_3D ( 'NONE', #154, #247, #182 ) ;
#43 = LINE ( 'NONE', #382, #308 ) ;
#44 = CARTESIAN_POINT ( 'NONE',  ( -9.750000000000000000, 11.68295544692684729, -9.999999999999996447 ) ) ;
#45 = EDGE_CURVE ( 'NONE', #208, #57, #2, .T. ) ;
#46 = CARTESIAN_POINT ( 'NONE',  ( -9.750000000000001776, -16.24999999999999645, 6.500000000000000888 ) ) ;
#47 = VERTEX_POINT ( 'NONE', #309 ) ;
#48 = DIRECTION ( 'NONE',  ( -0.000000000000000000, 1.000000000000000000, 1.224646799147353454E-16 ) ) ;
#49 = VERTEX_POINT ( 'NONE', #312 ) ;
#50 = EDGE_CURVE ( 'NONE', #47, #20, #70, .T. ) ;
#51 = CARTESIAN_POINT ( 'NONE',  ( -9.750000000000001776, -18.00000000000000355, 6.500000000000000888 ) ) ;
#52 = VERTEX_POINT ( 'NONE', #97 ) ;
#53 = VECTOR ( 'NONE', #66, 1000.000000000000000 ) ;
#54 = CARTESIAN_POINT ( 'NONE',  ( 9.750000000000000000, -18.00000000000000000, -10.00000000000000000 ) ) ;
#55 = ORIENTED_EDGE ( 'NONE', *, *, #72, .T. ) ;
#56 = CARTESIAN_POINT ( 'NONE',  ( -9.750000000000001776, -18.00000000000000355, 6.500000000000000888 ) ) ;
#57 = VERTEX_POINT ( 'NONE', #213 ) ;
#58 = ADVANCED_FACE ( 'NONE', ( #276, #342 ), #35, .F. ) ;
#59 = DIRECTION ( 'NONE',  ( 0.000000000000000000, -1.224646799147353207E-16, 1.000000000000000000 ) ) ;
#60 = AXIS2_PLACEMENT_3D ( 'NONE', #389, #303, #226 ) ;
#61 =( LENGTH_UNIT ( ) NAMED_UNIT ( * ) SI_UNIT ( .MILLI., .METRE. ) );
#62 = EDGE_CURVE ( 'NONE', #49, #119, #350, .T. ) ;
#63 = SHAPE_DEFINITION_REPRESENTATION ( #278, #316 ) ;
#64 = CARTESIAN_POINT ( 'NONE',  ( 0.000000000000000000, -16.24999999999999645, -3.000000000000002220 ) ) ;
#65 = APPLICATION_PROTOCOL_DEFINITION ( 'draft international standard', 'automotive_design', 1998, #88 ) ;
#66 = DIRECTION ( 'NONE',  ( 1.982541115402063729E-15, -1.000000000000000000, 0.000000000000000000 ) ) ;
#67 = CARTESIAN_POINT ( 'NONE',  ( -9.750000000000000000, -16.24999999999999645, -13.50000000000000000 ) ) ;
#68 = CARTESIAN_POINT ( 'NONE',  ( 9.749999999999998224, -18.00000000000000355, 6.500000000000000888 ) ) ;
#69 = CARTESIAN_POINT ( 'NONE',  ( 0.000000000000000000, 4.286263797015736595E-16, -13.50000000000000000 ) ) ;
#70 = CIRCLE ( 'NONE', #42, 3.947368421052630971 ) ;
#71 = DIRECTION ( 'NONE',  ( 0.000000000000000000, 1.000000000000000000, 0.000000000000000000 ) ) ;
#72 = EDGE_CURVE ( 'NONE', #252, #103, #6, .T. ) ;
#73 = CARTESIAN_POINT ( 'NONE',  ( 0.000000000000000000, -8.077747210701756941, 4.999999999999999112 ) ) ;
#74 = ORIENTED_EDGE ( 'NONE', *, *, #23, .F. ) ;
#75 = EDGE_CURVE ( 'NONE', #221, #337, #4, .T. ) ;
#76 = CIRCLE ( 'NONE', #40, 7.500000000000000000 ) ;
#77 = CARTESIAN_POINT ( 'NONE',  ( 0.000000000000000000, 0.000000000000000000, 0.000000000000000000 ) ) ;
#78 = FACE_OUTER_BOUND ( 'NONE', #290, .T. ) ;
#79 = ORIENTED_EDGE ( 'NONE', *, *, #110, .F. ) ;
#80 = CARTESIAN_POINT ( 'NONE',  ( -9.750000000000000000, -18.00000000000000000, -10.00000000000000000 ) ) ;
#81 = EDGE_LOOP ( 'NONE', ( #74, #28, #11, #177 ) ) ;
#82 = LINE ( 'NONE', #51, #271 ) ;
#83 = EDGE_LOOP ( 'NONE', ( #179, #101, #390 ) ) ;
#84 = CLOSED_SHELL ( 'NONE', ( #305, #117, #317, #188, #327, #58, #370, #364, #195, #164, #376, #201, #87, #157 ) ) ;
#85 = DIRECTION ( 'NONE',  ( 0.000000000000000000, -1.224646799147353207E-16, 1.000000000000000000 ) ) ;
#86 = ORIENTED_EDGE ( 'NONE', *, *, #391, .T. ) ;
#87 = ADVANCED_FACE ( 'NONE', ( #343 ), #264, .F. ) ;
#88 = APPLICATION_CONTEXT ( 'automotive_design' ) ;
#89 = ORIENTED_EDGE ( 'NONE', *, *, #335, .F. ) ;
#90 = AXIS2_PLACEMENT_3D ( 'NONE', #27, #269, #118 ) ;
#91 = DIRECTION ( 'NONE',  ( 1.000000000000000000, 0.000000000000000000, 0.000000000000000000 ) ) ;
#92 = DIRECTION ( 'NONE',  ( 0.000000000000000000, 0.000000000000000000, 1.000000000000000000 ) ) ;
#93 = VECTOR ( 'NONE', #163, 1000.000000000000000 ) ;
#94 = AXIS2_PLACEMENT_3D ( 'NONE', #193, #191, #137 ) ;
#95 = EDGE_CURVE ( 'NONE', #384, #52, #104, .T. ) ;
#96 = DIRECTION ( 'NONE',  ( 0.000000000000000000, 0.000000000000000000, 1.000000000000000000 ) ) ;
#97 = CARTESIAN_POINT ( 'NONE',  ( 0.000000000000000000, -8.077747210701756941, 2.999999999999999112 ) ) ;
#98 = DIRECTION ( 'NONE',  ( 0.000000000000000000, 0.000000000000000000, -1.000000000000000000 ) ) ;
#99 = AXIS2_PLACEMENT_3D ( 'NONE', #173, #296, #326 ) ;
#100 = DIRECTION ( 'NONE',  ( -1.224646799147352961E-16, 0.000000000000000000, 1.000000000000000000 ) ) ;
#101 = ORIENTED_EDGE ( 'NONE', *, *, #255, .T. ) ;
#102 = CARTESIAN_POINT ( 'NONE',  ( 0.000000000000000000, -15.24999999999999645, -1.867586368699713376E-15 ) ) ;
#103 = VERTEX_POINT ( 'NONE', #136 ) ;
#104 = CIRCLE ( 'NONE', #332, 3.000000000000000000 ) ;
#105 = DIRECTION ( 'NONE',  ( -0.000000000000000000, 1.000000000000000000, 1.224646799147353207E-16 ) ) ;
#106 = CARTESIAN_POINT ( 'NONE',  ( 9.749999999999998224, -16.24999999999999645, 6.500000000000000888 ) ) ;
#107 = EDGE_LOOP ( 'NONE', ( #174, #232, #292, #392 ) ) ;
#108 = PRODUCT_DEFINITION_FORMATION_WITH_SPECIFIED_SOURCE ( 'ANY', '', #3, .NOT_KNOWN. ) ;
#109 = AXIS2_PLACEMENT_3D ( 'NONE', #73, #14, #41 ) ;
#110 = EDGE_CURVE ( 'NONE', #286, #142, #285, .T. ) ;
#111 = DIRECTION ( 'NONE',  ( -1.000000000000000000, 0.000000000000000000, -0.000000000000000000 ) ) ;
#112 = ORIENTED_EDGE ( 'NONE', *, *, #230, .T. ) ;
#113 = DIRECTION ( 'NONE',  ( -0.000000000000000000, 1.000000000000000000, 1.224646799147353207E-16 ) ) ;
#114 = ORIENTED_EDGE ( 'NONE', *, *, #62, .F. ) ;
#115 = FACE_OUTER_BOUND ( 'NONE', #116, .T. ) ;
#116 = EDGE_LOOP ( 'NONE', ( #234, #168, #145, #229 ) ) ;
#117 = ADVANCED_FACE ( 'NONE', ( #289 ), #204, .F. ) ;
#118 = DIRECTION ( 'NONE',  ( -0.000000000000000000, 0.000000000000000000, -1.000000000000000000 ) ) ;
#119 = VERTEX_POINT ( 'NONE', #348 ) ;
#120 = ORIENTED_EDGE ( 'NONE', *, *, #279, .F. ) ;
#121 =( NAMED_UNIT ( * ) PLANE_ANGLE_UNIT ( ) SI_UNIT ( $, .RADIAN. ) );
#122 = CARTESIAN_POINT ( 'NONE',  ( -4.834132101897446287E-16, -6.377168850554017610, 3.947368421052630971 ) ) ;
#123 = PRODUCT_RELATED_PRODUCT_CATEGORY ( 'part', '', ( #3 ) ) ;
#124 = AXIS2_PLACEMENT_3D ( 'NONE', #355, #235, #361 ) ;
#125 = AXIS2_PLACEMENT_3D ( 'NONE', #64, #241, #36 ) ;
#126 = DIRECTION ( 'NONE',  ( -0.000000000000000000, 1.224646799147353207E-16, -1.000000000000000000 ) ) ;
#127 = DIRECTION ( 'NONE',  ( -1.000000000000000000, -0.000000000000000000, -0.000000000000000000 ) ) ;
#128 = EDGE_CURVE ( 'NONE', #337, #221, #210, .T. ) ;
#129 = DIRECTION ( 'NONE',  ( -1.224646799147353454E-16, 0.000000000000000000, -1.000000000000000000 ) ) ;
#130 = CIRCLE ( 'NONE', #31, 3.000000000000000000 ) ;
#131 = DIRECTION ( 'NONE',  ( 0.000000000000000000, -1.000000000000000000, -1.224646799147353207E-16 ) ) ;
#132 = ORIENTED_EDGE ( 'NONE', *, *, #248, .T. ) ;
#133 = DIRECTION ( 'NONE',  ( 1.000000000000000000, -1.499759782661857608E-32, 1.224646799147353207E-16 ) ) ;
#134 = ORIENTED_EDGE ( 'NONE', *, *, #272, .F. ) ;
#135 = EDGE_CURVE ( 'NONE', #20, #52, #262, .T. ) ;
#136 = CARTESIAN_POINT ( 'NONE',  ( -9.750000000000000000, -18.00000000000000000, 6.500000000000000888 ) ) ;
#137 = DIRECTION ( 'NONE',  ( 0.000000000000000000, -1.224646799147353207E-16, 1.000000000000000000 ) ) ;
#138 = EDGE_LOOP ( 'NONE', ( #148, #295, #207, #112 ) ) ;
#139 = CARTESIAN_POINT ( 'NONE',  ( 0.000000000000000000, 7.500000000000000000, 4.592425496802573972E-16 ) ) ;
#140 = EDGE_LOOP ( 'NONE', ( #388, #330, #114, #89 ) ) ;
#141 = DIRECTION ( 'NONE',  ( 0.000000000000000000, 1.224646799147353454E-16, -1.000000000000000000 ) ) ;
#142 = VERTEX_POINT ( 'NONE', #67 ) ;
#143 = VECTOR ( 'NONE', #301, 1000.000000000000000 ) ;
#144 = CYLINDRICAL_SURFACE ( 'NONE', #385, 3.000000000000000000 ) ;
#145 = ORIENTED_EDGE ( 'NONE', *, *, #95, .T. ) ;
#146 = CARTESIAN_POINT ( 'NONE',  ( 0.000000000000000000, -16.24999999999999645, -4.000000000000001776 ) ) ;
#147 = EDGE_LOOP ( 'NONE', ( #297, #134, #170, #331 ) ) ;
#148 = ORIENTED_EDGE ( 'NONE', *, *, #311, .T. ) ;
#149 = AXIS2_PLACEMENT_3D ( 'NONE', #13, #345, #251 ) ;
#150 = DIRECTION ( 'NONE',  ( 0.000000000000000000, -1.000000000000000000, -1.224646799147353207E-16 ) ) ;
#151 = EDGE_CURVE ( 'NONE', #119, #49, #130, .T. ) ;
#152 = VERTEX_POINT ( 'NONE', #10 ) ;
#153 = DIRECTION ( 'NONE',  ( 1.000000000000000000, 1.499759782661857608E-32, -1.224646799147353207E-16 ) ) ;
#154 = CARTESIAN_POINT ( 'NONE',  ( 0.000000000000000000, -6.377168850554016721, -7.809779420453182223E-16 ) ) ;
#155 = VECTOR ( 'NONE', #71, 1000.000000000000000 ) ;
#156 = CARTESIAN_POINT ( 'NONE',  ( 0.000000000000000000, -15.24999999999999645, -1.867586368699713376E-15 ) ) ;
#157 = ADVANCED_FACE ( 'NONE', ( #253 ), #354, .F. ) ;
#158 =( LENGTH_UNIT ( ) NAMED_UNIT ( * ) SI_UNIT ( .MILLI., .METRE. ) );
#159 = CARTESIAN_POINT ( 'NONE',  ( 0.000000000000000000, -8.077747210701756941, -9.892387265907365464E-16 ) ) ;
#160 = AXIS2_PLACEMENT_3D ( 'NONE', #56, #141, #178 ) ;
#161 = DIRECTION ( 'NONE',  ( -1.000000000000000000, 1.499759782661857608E-32, -1.224646799147353207E-16 ) ) ;
#162 = AXIS2_PLACEMENT_3D ( 'NONE', #320, #133, #265 ) ;
#163 = DIRECTION ( 'NONE',  ( -0.000000000000000000, 1.000000000000000000, 1.224646799147353454E-16 ) ) ;
#164 = ADVANCED_FACE ( 'NONE', ( #186 ), #324, .F. ) ;
#165 = DIRECTION ( 'NONE',  ( 0.000000000000000000, 0.000000000000000000, -1.000000000000000000 ) ) ;
#166 = DIRECTION ( 'NONE',  ( -1.000000000000000000, 0.000000000000000000, -0.000000000000000000 ) ) ;
#167 = PLANE ( 'NONE',  #372 ) ;
#168 = ORIENTED_EDGE ( 'NONE', *, *, #240, .T. ) ;
#169 = DIRECTION ( 'NONE',  ( 0.000000000000000000, 0.000000000000000000, 1.000000000000000000 ) ) ;
#170 = ORIENTED_EDGE ( 'NONE', *, *, #135, .T. ) ;
#171 = LINE ( 'NONE', #54, #338 ) ;
#172 = ORIENTED_EDGE ( 'NONE', *, *, #128, .T. ) ;
#173 = CARTESIAN_POINT ( 'NONE',  ( 0.000000000000000000, -15.24999999999999645, -1.867586368699713376E-15 ) ) ;
#174 = ORIENTED_EDGE ( 'NONE', *, *, #50, .F. ) ;
#175 = VECTOR ( 'NONE', #127, 1000.000000000000000 ) ;
#176 = DIRECTION ( 'NONE',  ( 0.000000000000000000, 0.000000000000000000, 1.000000000000000000 ) ) ;
#177 = ORIENTED_EDGE ( 'NONE', *, *, #151, .F. ) ;
#178 = DIRECTION ( 'NONE',  ( 0.000000000000000000, 1.000000000000000000, 1.224646799147353454E-16 ) ) ;
#179 = ORIENTED_EDGE ( 'NONE', *, *, #50, .T. ) ;
#180 = CIRCLE ( 'NONE', #162, 2.000000000000000000 ) ;
#181 =( NAMED_UNIT ( * ) SI_UNIT ( $, .STERADIAN. ) SOLID_ANGLE_UNIT ( ) );
#182 = DIRECTION ( 'NONE',  ( 0.000000000000000000, -2.197316402903955982E-16, 1.000000000000000000 ) ) ;
#183 = CARTESIAN_POINT ( 'NONE',  ( 4.898587196589412829E-16, -15.24999999999999645, 3.999999999999998224 ) ) ;
#184 = CARTESIAN_POINT ( 'NONE',  ( 0.000000000000000000, 0.000000000000000000, 0.000000000000000000 ) ) ;
#185 = LINE ( 'NONE', #283, #380 ) ;
#186 = FACE_OUTER_BOUND ( 'NONE', #237, .T. ) ;
#187 = DIRECTION ( 'NONE',  ( 0.000000000000000000, 0.000000000000000000, 1.000000000000000000 ) ) ;
#188 = ADVANCED_FACE ( 'NONE', ( #346 ), #377, .T. ) ;
#189 = ORIENTED_EDGE ( 'NONE', *, *, #16, .T. ) ;
#190 = AXIS2_PLACEMENT_3D ( 'NONE', #183, #153, #129 ) ;
#191 = DIRECTION ( 'NONE',  ( -0.000000000000000000, 1.000000000000000000, 1.224646799147353207E-16 ) ) ;
#192 = CARTESIAN_POINT ( 'NONE',  ( 0.000000000000000000, -16.24999999999999645, -1.990051048614448919E-15 ) ) ;
#193 = CARTESIAN_POINT ( 'NONE',  ( 0.000000000000000000, -8.077747210701756941, -9.892387265907365464E-16 ) ) ;
#194 = AXIS2_PLACEMENT_3D ( 'NONE', #102, #131, #215 ) ;
#195 = ADVANCED_FACE ( 'NONE', ( #220 ), #17, .T. ) ;
#196 = DIRECTION ( 'NONE',  ( 0.000000000000000000, 1.224646799147353207E-16, -1.000000000000000000 ) ) ;
#197 = DIRECTION ( 'NONE',  ( -1.000000000000000000, 0.000000000000000000, 0.000000000000000000 ) ) ;
#198 = ORIENTED_EDGE ( 'NONE', *, *, #279, .T. ) ;
#199 = DIRECTION ( 'NONE',  ( -0.000000000000000000, -0.000000000000000000, -1.000000000000000000 ) ) ;
#200 = ORIENTED_EDGE ( 'NONE', *, *, #311, .F. ) ;
#201 = ADVANCED_FACE ( 'NONE', ( #352 ), #167, .T. ) ;
#202 = CARTESIAN_POINT ( 'NONE',  ( -9.750000000000000000, -18.00000000000000000, -13.50000000000000000 ) ) ;
#203 = VERTEX_POINT ( 'NONE', #139 ) ;
#204 = TOROIDAL_SURFACE ( 'NONE', #94, 5.000000000000000000, 2.000000000000000000 ) ;
#205 = COLOUR_RGB ( '',0.7921568627450980005, 0.8196078431372548767, 0.9333333333333333481 ) ;
#206 = DIRECTION ( 'NONE',  ( 1.000000000000000000, 0.000000000000000000, 0.000000000000000000 ) ) ;
#207 = ORIENTED_EDGE ( 'NONE', *, *, #72, .F. ) ;
#208 = VERTEX_POINT ( 'NONE', #256 ) ;
#209 = CIRCLE ( 'NONE', #260, 1.000000000000000000 ) ;
#210 = CIRCLE ( 'NONE', #325, 4.000000000000000000 ) ;
#211 = PRESENTATION_STYLE_ASSIGNMENT (( #368 ) ) ;
#212 = SURFACE_STYLE_FILL_AREA ( #341 ) ;
#213 = CARTESIAN_POINT ( 'NONE',  ( 9.750000000000000000, -18.00000000000000000, -13.50000000000000000 ) ) ;
#214 = DIRECTION ( 'NONE',  ( 0.000000000000000000, 0.000000000000000000, -1.000000000000000000 ) ) ;
#215 = DIRECTION ( 'NONE',  ( 0.000000000000000000, 1.224646799147353207E-16, -1.000000000000000000 ) ) ;
#216 = UNCERTAINTY_MEASURE_WITH_UNIT (LENGTH_MEASURE( 1.000000000000000082E-05 ), #61, 'distance_accuracy_value', 'NONE');
#217 = DIRECTION ( 'NONE',  ( -0.000000000000000000, 1.000000000000000000, 1.224646799147353207E-16 ) ) ;
#218 = EDGE_LOOP ( 'NONE', ( #172, #360 ) ) ;
#219 = AXIS2_PLACEMENT_3D ( 'NONE', #1, #96, #91 ) ;
#220 = FACE_OUTER_BOUND ( 'NONE', #304, .T. ) ;
#221 = VERTEX_POINT ( 'NONE', #351 ) ;
#222 = PRODUCT_DEFINITION_CONTEXT ( 'detailed design', #236, 'design' ) ;
#223 = AXIS2_PLACEMENT_3D ( 'NONE', #32, #245, #214 ) ;
#224 = CARTESIAN_POINT ( 'NONE',  ( 0.000000000000000000, -15.24999999999999645, -1.867586368699713376E-15 ) ) ;
#225 = CARTESIAN_POINT ( 'NONE',  ( 0.000000000000000000, -3.673940397442059868E-16, 3.000000000000000000 ) ) ;
#226 = DIRECTION ( 'NONE',  ( 0.000000000000000000, -2.197316402903955982E-16, 1.000000000000000000 ) ) ;
#227 = TOROIDAL_SURFACE ( 'NONE', #99, 4.000000000000000000, 1.000000000000000000 ) ;
#228 = LINE ( 'NONE', #359, #366 ) ;
#229 = ORIENTED_EDGE ( 'NONE', *, *, #248, .F. ) ;
#230 = EDGE_CURVE ( 'NONE', #252, #270, #257, .T. ) ;
#231 = CARTESIAN_POINT ( 'NONE',  ( 3.673940397442059868E-16, -8.077747210701756941, -3.000000000000000888 ) ) ;
#232 = ORIENTED_EDGE ( 'NONE', *, *, #263, .T. ) ;
#233 = DIRECTION ( 'NONE',  ( -1.000000000000000000, 0.000000000000000000, 0.000000000000000000 ) ) ;
#234 = ORIENTED_EDGE ( 'NONE', *, *, #151, .T. ) ;
#235 = DIRECTION ( 'NONE',  ( -0.000000000000000000, 1.000000000000000000, 1.224646799147353207E-16 ) ) ;
#236 = APPLICATION_CONTEXT ( 'automotive_design' ) ;
#237 = EDGE_LOOP ( 'NONE', ( #30, #55, #86, #120 ) ) ;
#238 =( NAMED_UNIT ( * ) SI_UNIT ( $, .STERADIAN. ) SOLID_ANGLE_UNIT ( ) );
#239 = ORIENTED_EDGE ( 'NONE', *, *, #110, .T. ) ;
#240 = EDGE_CURVE ( 'NONE', #49, #384, #43, .T. ) ;
#241 = DIRECTION ( 'NONE',  ( 0.000000000000000000, -1.000000000000000000, -1.224646799147353207E-16 ) ) ;
#242 = AXIS2_PLACEMENT_3D ( 'NONE', #259, #150, #21 ) ;
#243 = AXIS2_PLACEMENT_3D ( 'NONE', #184, #33, #98 ) ;
#244 = APPLICATION_PROTOCOL_DEFINITION ( 'draft international standard', 'automotive_design', 1998, #236 ) ;
#245 = DIRECTION ( 'NONE',  ( 0.000000000000000000, -1.000000000000000000, -1.224646799147353207E-16 ) ) ;
#246 = CIRCLE ( 'NONE', #60, 3.947368421052630971 ) ;
#247 = DIRECTION ( 'NONE',  ( -0.000000000000000000, 1.000000000000000000, 1.224646799147353207E-16 ) ) ;
#248 = EDGE_CURVE ( 'NONE', #119, #52, #37, .T. ) ;
#249 = DIRECTION ( 'NONE',  ( -0.000000000000000000, 1.000000000000000000, 1.224646799147353207E-16 ) ) ;
#250 = ORIENTED_EDGE ( 'NONE', *, *, #45, .F. ) ;
#251 = DIRECTION ( 'NONE',  ( 0.000000000000000000, 1.224646799147353207E-16, -1.000000000000000000 ) ) ;
#252 = VERTEX_POINT ( 'NONE', #68 ) ;
#253 = FACE_OUTER_BOUND ( 'NONE', #81, .T. ) ;
#254 =( GEOMETRIC_REPRESENTATION_CONTEXT ( 3 ) GLOBAL_UNCERTAINTY_ASSIGNED_CONTEXT ( ( #216 ) ) GLOBAL_UNIT_ASSIGNED_CONTEXT ( ( #61, #280, #181 ) ) REPRESENTATION_CONTEXT ( 'NONE', 'WORKASPACE' ) );
#255 = EDGE_CURVE ( 'NONE', #20, #203, #76, .T. ) ;
#256 = CARTESIAN_POINT ( 'NONE',  ( 9.749999999999996447, -16.24999999999999645, -13.50000000000000000 ) ) ;
#257 = LINE ( 'NONE', #381, #93 ) ;
#258 = ORIENTED_EDGE ( 'NONE', *, *, #62, .T. ) ;
#259 = CARTESIAN_POINT ( 'NONE',  ( 0.000000000000000000, -8.077747210701756941, -9.892387265907365464E-16 ) ) ;
#260 = AXIS2_PLACEMENT_3D ( 'NONE', #29, #111, #169 ) ;
#261 = ORIENTED_EDGE ( 'NONE', *, *, #293, .T. ) ;
#262 = CIRCLE ( 'NONE', #109, 2.000000000000000000 ) ;
#263 = EDGE_CURVE ( 'NONE', #47, #384, #180, .T. ) ;
#264 = TOROIDAL_SURFACE ( 'NONE', #281, 5.000000000000000000, 2.000000000000000000 ) ;
#265 = DIRECTION ( 'NONE',  ( 1.224646799147353454E-16, 0.000000000000000000, -1.000000000000000000 ) ) ;
#266 = EDGE_LOOP ( 'NONE', ( #394, #258, #132, #22 ) ) ;
#267 = SPHERICAL_SURFACE ( 'NONE', #277, 7.500000000000000000 ) ;
#268 = ORIENTED_EDGE ( 'NONE', *, *, #391, .F. ) ;
#269 = DIRECTION ( 'NONE',  ( 1.000000000000000000, 0.000000000000000000, -0.000000000000000000 ) ) ;
#270 = VERTEX_POINT ( 'NONE', #106 ) ;
#271 = VECTOR ( 'NONE', #48, 1000.000000000000000 ) ;
#272 = EDGE_CURVE ( 'NONE', #20, #47, #246, .T. ) ;
#273 = CARTESIAN_POINT ( 'NONE',  ( 9.750000000000000000, -18.00000000000000000, -13.50000000000000000 ) ) ;
#274 = ORIENTED_EDGE ( 'NONE', *, *, #39, .T. ) ;
#275 = DIRECTION ( 'NONE',  ( 0.000000000000000000, -1.224646799147353207E-16, 1.000000000000000000 ) ) ;
#276 = FACE_BOUND ( 'NONE', #218, .T. ) ;
#277 = AXIS2_PLACEMENT_3D ( 'NONE', #329, #233, #196 ) ;
#278 = PRODUCT_DEFINITION_SHAPE ( 'NONE', 'NONE',  #8 ) ;
#279 = EDGE_CURVE ( 'NONE', #57, #286, #386, .T. ) ;
#280 =( NAMED_UNIT ( * ) PLANE_ANGLE_UNIT ( ) SI_UNIT ( $, .RADIAN. ) );
#281 = AXIS2_PLACEMENT_3D ( 'NONE', #159, #340, #275 ) ;
#282 = CARTESIAN_POINT ( 'NONE',  ( -9.750000000000001776, -18.00000000000000355, 6.500000000000000888 ) ) ;
#283 = CARTESIAN_POINT ( 'NONE',  ( -9.750000000000000000, -16.24999999999999645, -10.00000000000000000 ) ) ;
#284 = AXIS2_PLACEMENT_3D ( 'NONE', #322, #15, #294 ) ;
#285 = LINE ( 'NONE', #287, #155 ) ;
#286 = VERTEX_POINT ( 'NONE', #202 ) ;
#287 = CARTESIAN_POINT ( 'NONE',  ( -9.750000000000000000, -18.00000000000000000, -13.50000000000000000 ) ) ;
#288 = UNCERTAINTY_MEASURE_WITH_UNIT (LENGTH_MEASURE( 1.000000000000000082E-05 ), #158, 'distance_accuracy_value', 'NONE');
#289 = FACE_OUTER_BOUND ( 'NONE', #107, .T. ) ;
#290 = EDGE_LOOP ( 'NONE', ( #18, #334, #250, #356 ) ) ;
#291 = DIRECTION ( 'NONE',  ( 0.000000000000000000, 0.000000000000000000, -1.000000000000000000 ) ) ;
#292 = ORIENTED_EDGE ( 'NONE', *, *, #383, .F. ) ;
#293 = EDGE_CURVE ( 'NONE', #103, #152, #82, .T. ) ;
#294 = DIRECTION ( 'NONE',  ( 0.000000000000000000, -1.224646799147353207E-16, 1.000000000000000000 ) ) ;
#295 = ORIENTED_EDGE ( 'NONE', *, *, #293, .F. ) ;
#296 = DIRECTION ( 'NONE',  ( 0.000000000000000000, -1.000000000000000000, -1.224646799147353207E-16 ) ) ;
#297 = ORIENTED_EDGE ( 'NONE', *, *, #263, .F. ) ;
#298 = CYLINDRICAL_SURFACE ( 'NONE', #124, 3.000000000000000000 ) ;
#299 = CARTESIAN_POINT ( 'NONE',  ( 0.000000000000000000, 0.000000000000000000, 0.000000000000000000 ) ) ;
#300 = CIRCLE ( 'NONE', #190, 1.000000000000000000 ) ;
#301 = DIRECTION ( 'NONE',  ( -1.000000000000000000, -0.000000000000000000, -0.000000000000000000 ) ) ;
#302 = ORIENTED_EDGE ( 'NONE', *, *, #344, .F. ) ;
#303 = DIRECTION ( 'NONE',  ( -0.000000000000000000, 1.000000000000000000, 1.224646799147353207E-16 ) ) ;
#304 = EDGE_LOOP ( 'NONE', ( #261, #363, #79, #268 ) ) ;
#305 = ADVANCED_FACE ( 'NONE', ( #333 ), #227, .F. ) ;
#306 = FACE_OUTER_BOUND ( 'NONE', #138, .T. ) ;
#307 = EDGE_LOOP ( 'NONE', ( #239, #328, #375, #198 ) ) ;
#308 = VECTOR ( 'NONE', #105, 1000.000000000000000 ) ;
#309 = CARTESIAN_POINT ( 'NONE',  ( 0.000000000000000000, -6.377168850554015833, -3.947368421052632748 ) ) ;
#310 = SURFACE_SIDE_STYLE ('',( #212 ) ) ;
#311 = EDGE_CURVE ( 'NONE', #270, #152, #353, .T. ) ;
#312 = CARTESIAN_POINT ( 'NONE',  ( 3.673940397442060854E-16, -15.24999999999999645, -3.000000000000002220 ) ) ;
#313 = PRESENTATION_LAYER_ASSIGNMENT (  '', '', ( #367 ) ) ;
#314 = DIRECTION ( 'NONE',  ( -0.000000000000000000, 1.000000000000000000, 1.224646799147353207E-16 ) ) ;
#315 = LINE ( 'NONE', #7, #379 ) ;
#316 = ADVANCED_BREP_SHAPE_REPRESENTATION ( 'P001-B102_BallMount_Rev2D-2', ( #12, #219 ), #347 ) ;
#317 = ADVANCED_FACE ( 'NONE', ( #115 ), #144, .T. ) ;
#318 = DIRECTION ( 'NONE',  ( -1.000000000000000000, -0.000000000000000000, 0.000000000000000000 ) ) ;
#319 = VECTOR ( 'NONE', #199, 1000.000000000000000 ) ;
#320 = CARTESIAN_POINT ( 'NONE',  ( 6.123233995736766282E-16, -8.077747210701756941, -5.000000000000000888 ) ) ;
#321 = EDGE_LOOP ( 'NONE', ( #26, #200, #189, #302 ) ) ;
#322 = CARTESIAN_POINT ( 'NONE',  ( 0.000000000000000000, -18.00000000000000000, -6.000000000000002665 ) ) ;
#323 = DIRECTION ( 'NONE',  ( 0.000000000000000000, -1.000000000000000000, -1.224646799147353207E-16 ) ) ;
#324 = PLANE ( 'NONE',  #284 ) ;
#325 = AXIS2_PLACEMENT_3D ( 'NONE', #192, #323, #374 ) ;
#326 = DIRECTION ( 'NONE',  ( 0.000000000000000000, 1.224646799147353207E-16, -1.000000000000000000 ) ) ;
#327 = ADVANCED_FACE ( 'NONE', ( #25 ), #267, .T. ) ;
#328 = ORIENTED_EDGE ( 'NONE', *, *, #344, .T. ) ;
#329 = CARTESIAN_POINT ( 'NONE',  ( 0.000000000000000000, 0.000000000000000000, 0.000000000000000000 ) ) ;
#330 = ORIENTED_EDGE ( 'NONE', *, *, #23, .T. ) ;
#331 = ORIENTED_EDGE ( 'NONE', *, *, #95, .F. ) ;
#332 = AXIS2_PLACEMENT_3D ( 'NONE', #397, #365, #92 ) ;
#333 = FACE_OUTER_BOUND ( 'NONE', #140, .T. ) ;
#334 = ORIENTED_EDGE ( 'NONE', *, *, #349, .F. ) ;
#335 = EDGE_CURVE ( 'NONE', #337, #49, #209, .T. ) ;
#336 = PLANE ( 'NONE',  #160 ) ;
#337 = VERTEX_POINT ( 'NONE', #146 ) ;
#338 = VECTOR ( 'NONE', #176, 1000.000000000000000 ) ;
#339 = AXIS2_PLACEMENT_3D ( 'NONE', #44, #318, #187 ) ;
#340 = DIRECTION ( 'NONE',  ( -0.000000000000000000, 1.000000000000000000, 1.224646799147353207E-16 ) ) ;
#341 = FILL_AREA_STYLE ('',( #371 ) ) ;
#342 = FACE_OUTER_BOUND ( 'NONE', #321, .T. ) ;
#343 = FACE_OUTER_BOUND ( 'NONE', #147, .T. ) ;
#344 = EDGE_CURVE ( 'NONE', #142, #208, #228, .T. ) ;
#345 = DIRECTION ( 'NONE',  ( -1.000000000000000000, 0.000000000000000000, 0.000000000000000000 ) ) ;
#346 = FACE_OUTER_BOUND ( 'NONE', #83, .T. ) ;
#347 =( GEOMETRIC_REPRESENTATION_CONTEXT ( 3 ) GLOBAL_UNCERTAINTY_ASSIGNED_CONTEXT ( ( #288 ) ) GLOBAL_UNIT_ASSIGNED_CONTEXT ( ( #158, #121, #238 ) ) REPRESENTATION_CONTEXT ( 'NONE', 'WORKASPACE' ) );
#348 = CARTESIAN_POINT ( 'NONE',  ( 0.000000000000000000, -15.24999999999999645, 2.999999999999998224 ) ) ;
#349 = EDGE_CURVE ( 'NONE', #57, #252, #171, .T. ) ;
#350 = CIRCLE ( 'NONE', #34, 3.000000000000000000 ) ;
#351 = CARTESIAN_POINT ( 'NONE',  ( 4.898587196589412829E-16, -16.24999999999999645, 3.999999999999998224 ) ) ;
#352 = FACE_OUTER_BOUND ( 'NONE', #307, .T. ) ;
#353 = LINE ( 'NONE', #46, #143 ) ;
#354 = TOROIDAL_SURFACE ( 'NONE', #194, 4.000000000000000000, 1.000000000000000000 ) ;
#355 = CARTESIAN_POINT ( 'NONE',  ( 0.000000000000000000, 0.000000000000000000, 0.000000000000000000 ) ) ;
#356 = ORIENTED_EDGE ( 'NONE', *, *, #16, .F. ) ;
#357 = LINE ( 'NONE', #80, #319 ) ;
#358 = EDGE_LOOP ( 'NONE', ( #362, #396, #274 ) ) ;
#359 = CARTESIAN_POINT ( 'NONE',  ( -9.750000000000000000, -16.24999999999999645, -13.50000000000000000 ) ) ;
#360 = ORIENTED_EDGE ( 'NONE', *, *, #75, .T. ) ;
#361 = DIRECTION ( 'NONE',  ( 0.000000000000000000, -1.224646799147353207E-16, 1.000000000000000000 ) ) ;
#362 = ORIENTED_EDGE ( 'NONE', *, *, #255, .F. ) ;
#363 = ORIENTED_EDGE ( 'NONE', *, *, #5, .F. ) ;
#364 = ADVANCED_FACE ( 'NONE', ( #78 ), #19, .T. ) ;
#365 = DIRECTION ( 'NONE',  ( 0.000000000000000000, -1.000000000000000000, -1.224646799147353207E-16 ) ) ;
#366 = VECTOR ( 'NONE', #206, 1000.000000000000000 ) ;
#367 = STYLED_ITEM ( 'NONE', ( #211 ), #12 ) ;
#368 = SURFACE_STYLE_USAGE ( .BOTH. , #310 ) ;
#369 = CARTESIAN_POINT ( 'NONE',  ( 9.749999999999996447, -16.24999999999999645, -13.50000000000000000 ) ) ;
#370 = ADVANCED_FACE ( 'NONE', ( #393 ), #298, .T. ) ;
#371 = FILL_AREA_STYLE_COLOUR ( '', #205 ) ;
#372 = AXIS2_PLACEMENT_3D ( 'NONE', #69, #165, #166 ) ;
#373 = DIRECTION ( 'NONE',  ( 0.000000000000000000, 0.000000000000000000, -1.000000000000000000 ) ) ;
#374 = DIRECTION ( 'NONE',  ( 0.000000000000000000, 0.000000000000000000, -1.000000000000000000 ) ) ;
#375 = ORIENTED_EDGE ( 'NONE', *, *, #45, .T. ) ;
#376 = ADVANCED_FACE ( 'NONE', ( #306 ), #336, .F. ) ;
#377 = SPHERICAL_SURFACE ( 'NONE', #149, 7.500000000000000000 ) ;
#378 = MECHANICAL_DESIGN_GEOMETRIC_PRESENTATION_REPRESENTATION (  '', ( #367 ), #254 ) ;
#379 = VECTOR ( 'NONE', #126, 1000.000000000000000 ) ;
#380 = VECTOR ( 'NONE', #59, 1000.000000000000000 ) ;
#381 = CARTESIAN_POINT ( 'NONE',  ( 9.749999999999998224, -18.00000000000000355, 6.500000000000000888 ) ) ;
#382 = CARTESIAN_POINT ( 'NONE',  ( 3.673940397442059868E-16, 3.673940397442059868E-16, -3.000000000000000000 ) ) ;
#383 = EDGE_CURVE ( 'NONE', #52, #384, #38, .T. ) ;
#384 = VERTEX_POINT ( 'NONE', #231 ) ;
#385 = AXIS2_PLACEMENT_3D ( 'NONE', #77, #113, #85 ) ;
#386 = LINE ( 'NONE', #273, #9 ) ;
#387 = VECTOR ( 'NONE', #249, 1000.000000000000000 ) ;
#388 = ORIENTED_EDGE ( 'NONE', *, *, #75, .F. ) ;
#389 = CARTESIAN_POINT ( 'NONE',  ( 0.000000000000000000, -6.377168850554016721, -7.809779420453182223E-16 ) ) ;
#390 = ORIENTED_EDGE ( 'NONE', *, *, #39, .F. ) ;
#391 = EDGE_CURVE ( 'NONE', #103, #286, #357, .T. ) ;
#392 = ORIENTED_EDGE ( 'NONE', *, *, #135, .F. ) ;
#393 = FACE_OUTER_BOUND ( 'NONE', #266, .T. ) ;
#394 = ORIENTED_EDGE ( 'NONE', *, *, #240, .F. ) ;
#395 = PRODUCT_CONTEXT ( 'NONE', #88, 'mechanical' ) ;
#396 = ORIENTED_EDGE ( 'NONE', *, *, #272, .T. ) ;
#397 = CARTESIAN_POINT ( 'NONE',  ( 0.000000000000000000, -8.077747210701756941, -9.892387265907365464E-16 ) ) ;
ENDSEC;
END-ISO-10303-21;
