ISO-10303-21;
HEADER;
FILE_DESCRIPTION (( 'STEP AP214' ),
    '1' );
FILE_NAME ('P001-B119_BobbinDriveShaft-1.STEP',
    '2026-04-25T01:19:34',
    ( '' ),
    ( '' ),
    'SwSTEP 2.0',
    'SolidWorks 2024',
    '' );
FILE_SCHEMA (( 'AUTOMOTIVE_DESIGN' ));
ENDSEC;

DATA;
#1 = CARTESIAN_POINT ( 'NONE',  ( 11.00000000000000000, -7.500000000000000000, 28.00000000000001066 ) ) ;
#2 = ORIENTED_EDGE ( 'NONE', *, *, #732, .F. ) ;
#3 =( NAMED_UNIT ( * ) PLANE_ANGLE_UNIT ( ) SI_UNIT ( $, .RADIAN. ) );
#4 = AXIS2_PLACEMENT_3D ( 'NONE', #733, #211, #737 ) ;
#5 = CARTESIAN_POINT ( 'NONE',  ( -4.000000000000000000, -3.000000000000000888, 10.00000000000000000 ) ) ;
#6 = CIRCLE ( 'NONE', #93, 4.999999999999999112 ) ;
#7 = ORIENTED_EDGE ( 'NONE', *, *, #127, .T. ) ;
#8 = VECTOR ( 'NONE', #997, 1000.000000000000000 ) ;
#9 = FACE_OUTER_BOUND ( 'NONE', #785, .T. ) ;
#10 = LINE ( 'NONE', #910, #191 ) ;
#11 = DIRECTION ( 'NONE',  ( 1.734723475976807094E-15, 0.000000000000000000, 1.000000000000000000 ) ) ;
#12 = DIRECTION ( 'NONE',  ( -0.000000000000000000, 0.000000000000000000, 1.000000000000000000 ) ) ;
#13 = ORIENTED_EDGE ( 'NONE', *, *, #117, .F. ) ;
#14 = DIRECTION ( 'NONE',  ( 1.000000000000000000, 0.000000000000000000, 0.000000000000000000 ) ) ;
#15 = ADVANCED_FACE ( 'NONE', ( #963 ), #507, .T. ) ;
#16 = DIRECTION ( 'NONE',  ( 1.000000000000000000, 0.000000000000000000, 0.000000000000000000 ) ) ;
#17 = DIRECTION ( 'NONE',  ( -1.000000000000000000, -0.000000000000000000, -0.000000000000000000 ) ) ;
#18 = PLANE ( 'NONE',  #280 ) ;
#19 = EDGE_LOOP ( 'NONE', ( #61 ) ) ;
#20 = DIRECTION ( 'NONE',  ( 0.000000000000000000, 0.000000000000000000, 1.000000000000000000 ) ) ;
#21 = CARTESIAN_POINT ( 'NONE',  ( 2.500000000000000000, 0.000000000000000000, 13.00000000000000000 ) ) ;
#22 = DIRECTION ( 'NONE',  ( -0.000000000000000000, 0.000000000000000000, -1.000000000000000000 ) ) ;
#23 = AXIS2_PLACEMENT_3D ( 'NONE', #764, #586, #410 ) ;
#24 = ORIENTED_EDGE ( 'NONE', *, *, #376, .F. ) ;
#25 = AXIS2_PLACEMENT_3D ( 'NONE', #1068, #979, #22 ) ;
#26 = CLOSED_SHELL ( 'NONE', ( #660, #903, #218, #136, #150, #308, #613, #475, #901, #694, #456, #453, #778, #164, #647, #995, #745, #438, #342, #1029, #319, #205, #646, #757, #101, #180, #465, #15, #782, #612, #163, #504, #1083, #1137, #1103, #208, #320, #359, #909, #222, #750, #935, #978, #731, #579 ) ) ;
#27 = DIRECTION ( 'NONE',  ( -1.000000000000000000, 0.000000000000000000, -0.000000000000000000 ) ) ;
#28 = PLANE ( 'NONE',  #888 ) ;
#29 = CARTESIAN_POINT ( 'NONE',  ( 4.999999999999999112, 0.000000000000000000, 11.00000000000000000 ) ) ;
#30 = DIRECTION ( 'NONE',  ( -1.000000000000000000, 0.000000000000000000, 0.000000000000000000 ) ) ;
#31 = EDGE_LOOP ( 'NONE', ( #1078, #254 ) ) ;
#32 = DIRECTION ( 'NONE',  ( -0.000000000000000000, 0.000000000000000000, 1.000000000000000000 ) ) ;
#33 = EDGE_CURVE ( 'NONE', #895, #895, #575, .T. ) ;
#34 = FACE_OUTER_BOUND ( 'NONE', #439, .T. ) ;
#35 = ORIENTED_EDGE ( 'NONE', *, *, #423, .F. ) ;
#36 = EDGE_CURVE ( 'NONE', #273, #273, #146, .T. ) ;
#37 = ORIENTED_EDGE ( 'NONE', *, *, #1141, .F. ) ;
#38 = LINE ( 'NONE', #568, #56 ) ;
#39 = APPLICATION_PROTOCOL_DEFINITION ( 'draft international standard', 'automotive_design', 1998, #461 ) ;
#40 = LINE ( 'NONE', #844, #405 ) ;
#41 = EDGE_LOOP ( 'NONE', ( #751 ) ) ;
#42 = AXIS2_PLACEMENT_3D ( 'NONE', #177, #623, #530 ) ;
#43 = VECTOR ( 'NONE', #783, 1000.000000000000000 ) ;
#44 = AXIS2_PLACEMENT_3D ( 'NONE', #225, #937, #141 ) ;
#45 = DIRECTION ( 'NONE',  ( 1.084202172485504434E-16, -1.000000000000000000, 0.000000000000000000 ) ) ;
#46 = VECTOR ( 'NONE', #982, 1000.000000000000000 ) ;
#47 = FACE_OUTER_BOUND ( 'NONE', #617, .T. ) ;
#48 = VERTEX_POINT ( 'NONE', #531 ) ;
#49 = DIRECTION ( 'NONE',  ( -0.000000000000000000, -0.000000000000000000, -1.000000000000000000 ) ) ;
#50 = EDGE_CURVE ( 'NONE', #677, #425, #741, .T. ) ;
#51 = DIRECTION ( 'NONE',  ( 0.000000000000000000, 0.000000000000000000, -1.000000000000000000 ) ) ;
#52 = ORIENTED_EDGE ( 'NONE', *, *, #839, .F. ) ;
#53 = CARTESIAN_POINT ( 'NONE',  ( 9.000000000000000000, 13.50000000000000355, 31.00000000000000711 ) ) ;
#54 = EDGE_CURVE ( 'NONE', #363, #627, #334, .T. ) ;
#55 = ORIENTED_EDGE ( 'NONE', *, *, #203, .F. ) ;
#56 = VECTOR ( 'NONE', #1030, 1000.000000000000000 ) ;
#57 = CARTESIAN_POINT ( 'NONE',  ( -4.000000000000001776, 3.000000000000000000, 10.00000000000000000 ) ) ;
#58 = CIRCLE ( 'NONE', #666, 4.999999999999999112 ) ;
#59 = ORIENTED_EDGE ( 'NONE', *, *, #717, .F. ) ;
#60 = CARTESIAN_POINT ( 'NONE',  ( -9.000000000000000000, -36.06102834535694512, 31.00000000000000711 ) ) ;
#61 = ORIENTED_EDGE ( 'NONE', *, *, #562, .T. ) ;
#62 = CARTESIAN_POINT ( 'NONE',  ( 3.000000000000000000, -4.000000000000000000, 10.00000000000000000 ) ) ;
#63 = ORIENTED_EDGE ( 'NONE', *, *, #401, .F. ) ;
#64 = DIRECTION ( 'NONE',  ( -0.000000000000000000, 0.000000000000000000, 1.000000000000000000 ) ) ;
#65 = DIRECTION ( 'NONE',  ( -0.000000000000000000, 0.000000000000000000, 1.000000000000000000 ) ) ;
#66 = ORIENTED_EDGE ( 'NONE', *, *, #566, .F. ) ;
#67 = DIRECTION ( 'NONE',  ( 1.000000000000000000, -0.000000000000000000, -1.734723475976807094E-15 ) ) ;
#68 = VERTEX_POINT ( 'NONE', #193 ) ;
#69 = CARTESIAN_POINT ( 'NONE',  ( 0.000000000000000000, 0.000000000000000000, 11.00000000000000000 ) ) ;
#70 = CARTESIAN_POINT ( 'NONE',  ( 0.000000000000000000, 0.000000000000000000, 11.00000000000000000 ) ) ;
#71 = ORIENTED_EDGE ( 'NONE', *, *, #796, .F. ) ;
#72 = LINE ( 'NONE', #339, #907 ) ;
#73 = AXIS2_PLACEMENT_3D ( 'NONE', #214, #918, #484 ) ;
#74 = ORIENTED_EDGE ( 'NONE', *, *, #488, .T. ) ;
#75 = CARTESIAN_POINT ( 'NONE',  ( -4.000000000000000000, -3.000000000000000888, 6.000000000000000000 ) ) ;
#76 = AXIS2_PLACEMENT_3D ( 'NONE', #281, #362, #1005 ) ;
#77 = DIRECTION ( 'NONE',  ( -0.000000000000000000, -0.000000000000000000, -1.000000000000000000 ) ) ;
#78 = DIRECTION ( 'NONE',  ( 1.000000000000000000, -5.329070518200751394E-15, 0.000000000000000000 ) ) ;
#79 = ORIENTED_EDGE ( 'NONE', *, *, #402, .T. ) ;
#80 = CYLINDRICAL_SURFACE ( 'NONE', #869, 3.500000000000000000 ) ;
#81 = EDGE_CURVE ( 'NONE', #905, #68, #360, .T. ) ;
#82 = EDGE_CURVE ( 'NONE', #595, #304, #631, .T. ) ;
#83 = EDGE_CURVE ( 'NONE', #625, #625, #911, .T. ) ;
#84 = CARTESIAN_POINT ( 'NONE',  ( -3.000000000000001776, 3.000000000000000000, 6.000000000000000000 ) ) ;
#85 = ORIENTED_EDGE ( 'NONE', *, *, #1065, .F. ) ;
#86 = FACE_OUTER_BOUND ( 'NONE', #1129, .T. ) ;
#87 = ORIENTED_EDGE ( 'NONE', *, *, #953, .T. ) ;
#88 = CARTESIAN_POINT ( 'NONE',  ( -3.000000000000001776, 4.000000000000000000, 6.000000000000000000 ) ) ;
#89 = EDGE_LOOP ( 'NONE', ( #238, #226, #789, #686 ) ) ;
#90 = DIRECTION ( 'NONE',  ( 1.000000000000000000, 0.000000000000000000, 0.000000000000000000 ) ) ;
#91 = DIRECTION ( 'NONE',  ( 0.000000000000000000, -0.000000000000000000, -1.000000000000000000 ) ) ;
#92 = CARTESIAN_POINT ( 'NONE',  ( -9.000000000000000000, -36.06102834535694512, 31.00000000000000711 ) ) ;
#93 = AXIS2_PLACEMENT_3D ( 'NONE', #1019, #212, #564 ) ;
#94 = ORIENTED_EDGE ( 'NONE', *, *, #1109, .F. ) ;
#95 = EDGE_CURVE ( 'NONE', #632, #632, #445, .T. ) ;
#96 = LINE ( 'NONE', #803, #125 ) ;
#97 = CARTESIAN_POINT ( 'NONE',  ( -16.00000000000000000, 13.50000000000000355, 23.00000000000000000 ) ) ;
#98 = VERTEX_POINT ( 'NONE', #21 ) ;
#99 = DIRECTION ( 'NONE',  ( 0.000000000000000000, -0.000000000000000000, -1.000000000000000000 ) ) ;
#100 = DIRECTION ( 'NONE',  ( -1.000000000000000000, 0.000000000000000000, 0.000000000000000000 ) ) ;
#101 = ADVANCED_FACE ( 'NONE', ( #102 ), #28, .T. ) ;
#102 = FACE_OUTER_BOUND ( 'NONE', #713, .T. ) ;
#103 = CARTESIAN_POINT ( 'NONE',  ( 2.500000000000000000, 0.000000000000000000, 0.000000000000000000 ) ) ;
#104 = DIRECTION ( 'NONE',  ( 1.000000000000000000, 0.000000000000000000, 0.000000000000000000 ) ) ;
#105 = ORIENTED_EDGE ( 'NONE', *, *, #578, .T. ) ;
#106 = DIRECTION ( 'NONE',  ( 1.000000000000000000, 0.000000000000000000, 0.000000000000000000 ) ) ;
#107 = DIRECTION ( 'NONE',  ( -1.000000000000000000, 0.000000000000000000, 1.734723475976807094E-15 ) ) ;
#108 = DIRECTION ( 'NONE',  ( 1.000000000000000000, 0.000000000000000000, 0.000000000000000000 ) ) ;
#109 = VECTOR ( 'NONE', #494, 1000.000000000000000 ) ;
#110 = DIRECTION ( 'NONE',  ( 0.000000000000000000, 0.000000000000000000, -1.000000000000000000 ) ) ;
#111 = VECTOR ( 'NONE', #253, 1000.000000000000000 ) ;
#112 = ORIENTED_EDGE ( 'NONE', *, *, #525, .F. ) ;
#113 = DIRECTION ( 'NONE',  ( -1.000000000000000000, -0.000000000000000000, -0.000000000000000000 ) ) ;
#114 = DIRECTION ( 'NONE',  ( 1.000000000000000000, 0.000000000000000000, 0.000000000000000000 ) ) ;
#115 = EDGE_CURVE ( 'NONE', #368, #231, #899, .T. ) ;
#116 = EDGE_CURVE ( 'NONE', #1082, #1134, #379, .T. ) ;
#117 = EDGE_CURVE ( 'NONE', #577, #1112, #198, .T. ) ;
#118 = ORIENTED_EDGE ( 'NONE', *, *, #565, .F. ) ;
#119 = ORIENTED_EDGE ( 'NONE', *, *, #129, .T. ) ;
#120 = DIRECTION ( 'NONE',  ( 1.000000000000000000, 0.000000000000000000, 0.000000000000000000 ) ) ;
#121 = ORIENTED_EDGE ( 'NONE', *, *, #233, .T. ) ;
#122 = EDGE_LOOP ( 'NONE', ( #142 ) ) ;
#123 = LINE ( 'NONE', #305, #665 ) ;
#124 = CARTESIAN_POINT ( 'NONE',  ( -16.00000000000000000, -13.49999999999999822, 33.00000000000000000 ) ) ;
#125 = VECTOR ( 'NONE', #14, 1000.000000000000000 ) ;
#126 = ORIENTED_EDGE ( 'NONE', *, *, #127, .F. ) ;
#127 = EDGE_CURVE ( 'NONE', #158, #350, #449, .T. ) ;
#128 = VECTOR ( 'NONE', #964, 1000.000000000000000 ) ;
#129 = EDGE_CURVE ( 'NONE', #153, #936, #10, .T. ) ;
#130 = DIRECTION ( 'NONE',  ( 1.000000000000000000, 0.000000000000000000, 0.000000000000000000 ) ) ;
#131 = VECTOR ( 'NONE', #113, 1000.000000000000000 ) ;
#132 = DIRECTION ( 'NONE',  ( 0.000000000000000000, 0.000000000000000000, -1.000000000000000000 ) ) ;
#133 = ORIENTED_EDGE ( 'NONE', *, *, #148, .F. ) ;
#134 = EDGE_CURVE ( 'NONE', #627, #252, #552, .T. ) ;
#135 = LINE ( 'NONE', #932, #986 ) ;
#136 = ADVANCED_FACE ( 'NONE', ( #462 ), #365, .F. ) ;
#137 = UNCERTAINTY_MEASURE_WITH_UNIT (LENGTH_MEASURE( 1.000000000000000082E-05 ), #878, 'distance_accuracy_value', 'NONE');
#138 = VERTEX_POINT ( 'NONE', #721 ) ;
#139 = FACE_OUTER_BOUND ( 'NONE', #614, .T. ) ;
#140 = VERTEX_POINT ( 'NONE', #204 ) ;
#141 = DIRECTION ( 'NONE',  ( -1.000000000000000000, 0.000000000000000000, -0.000000000000000000 ) ) ;
#142 = ORIENTED_EDGE ( 'NONE', *, *, #83, .F. ) ;
#143 = AXIS2_PLACEMENT_3D ( 'NONE', #898, #441, #106 ) ;
#144 = CARTESIAN_POINT ( 'NONE',  ( -4.000000000000001776, 4.000000000000000000, 10.00000000000000000 ) ) ;
#145 = EDGE_LOOP ( 'NONE', ( #357 ) ) ;
#146 = CIRCLE ( 'NONE', #652, 3.500000000000000000 ) ;
#147 = DIRECTION ( 'NONE',  ( 0.000000000000000000, 0.000000000000000000, -1.000000000000000000 ) ) ;
#148 = EDGE_CURVE ( 'NONE', #425, #677, #1080, .T. ) ;
#149 = DIRECTION ( 'NONE',  ( -1.084202172485504434E-16, 1.000000000000000000, -0.000000000000000000 ) ) ;
#150 = ADVANCED_FACE ( 'NONE', ( #823 ), #178, .F. ) ;
#151 = VERTEX_POINT ( 'NONE', #268 ) ;
#152 = PLANE ( 'NONE',  #1061 ) ;
#153 = VERTEX_POINT ( 'NONE', #619 ) ;
#154 = DIRECTION ( 'NONE',  ( -1.000000000000000000, 0.000000000000000000, 0.000000000000000000 ) ) ;
#155 = FACE_OUTER_BOUND ( 'NONE', #517, .T. ) ;
#156 = EDGE_LOOP ( 'NONE', ( #829 ) ) ;
#157 = CARTESIAN_POINT ( 'NONE',  ( 0.000000000000000000, 0.000000000000000000, 13.00000000000000000 ) ) ;
#158 = VERTEX_POINT ( 'NONE', #975 ) ;
#159 = FACE_OUTER_BOUND ( 'NONE', #657, .T. ) ;
#160 = FACE_OUTER_BOUND ( 'NONE', #145, .T. ) ;
#161 = VERTEX_POINT ( 'NONE', #443 ) ;
#162 = CARTESIAN_POINT ( 'NONE',  ( 0.000000000000000000, 0.000000000000000000, 10.00000000000000000 ) ) ;
#163 = ADVANCED_FACE ( 'NONE', ( #399 ), #831, .F. ) ;
#164 = ADVANCED_FACE ( 'NONE', ( #139 ), #1096, .F. ) ;
#165 = VECTOR ( 'NONE', #571, 1000.000000000000000 ) ;
#166 = DIRECTION ( 'NONE',  ( 1.000000000000000000, 0.000000000000000000, 0.000000000000000000 ) ) ;
#167 = PLANE ( 'NONE',  #329 ) ;
#168 = AXIS2_PLACEMENT_3D ( 'NONE', #682, #793, #875 ) ;
#169 = DIRECTION ( 'NONE',  ( 0.000000000000000000, 0.000000000000000000, 1.000000000000000000 ) ) ;
#170 = ORIENTED_EDGE ( 'NONE', *, *, #489, .T. ) ;
#171 = EDGE_CURVE ( 'NONE', #1021, #231, #135, .T. ) ;
#172 = DIRECTION ( 'NONE',  ( 1.000000000000000000, 2.168404344971008868E-16, -0.000000000000000000 ) ) ;
#173 = ORIENTED_EDGE ( 'NONE', *, *, #921, .T. ) ;
#174 = LINE ( 'NONE', #976, #440 ) ;
#175 = CYLINDRICAL_SURFACE ( 'NONE', #830, 2.500000000000000000 ) ;
#176 = ORIENTED_EDGE ( 'NONE', *, *, #819, .F. ) ;
#177 = CARTESIAN_POINT ( 'NONE',  ( 0.000000000000000000, 0.000000000000000000, 10.00000000000000000 ) ) ;
#178 = PLANE ( 'NONE',  #927 ) ;
#179 = LINE ( 'NONE', #998, #940 ) ;
#180 = ADVANCED_FACE ( 'NONE', ( #479, #655 ), #1106, .T. ) ;
#181 = SURFACE_SIDE_STYLE ('',( #374 ) ) ;
#182 = EDGE_LOOP ( 'NONE', ( #795, #635, #970, #1073 ) ) ;
#183 = FACE_OUTER_BOUND ( 'NONE', #289, .T. ) ;
#184 = DIRECTION ( 'NONE',  ( -1.084202172485504434E-16, 1.000000000000000000, -0.000000000000000000 ) ) ;
#185 = VERTEX_POINT ( 'NONE', #527 ) ;
#186 = AXIS2_PLACEMENT_3D ( 'NONE', #197, #20, #550 ) ;
#187 = CIRCLE ( 'NONE', #832, 4.999999999999999112 ) ;
#188 = FACE_OUTER_BOUND ( 'NONE', #863, .T. ) ;
#189 = VECTOR ( 'NONE', #1117, 1000.000000000000000 ) ;
#190 = EDGE_LOOP ( 'NONE', ( #478, #913, #892, #85 ) ) ;
#191 = VECTOR ( 'NONE', #557, 1000.000000000000000 ) ;
#192 = DIRECTION ( 'NONE',  ( 1.000000000000000000, 0.000000000000000000, 0.000000000000000000 ) ) ;
#193 = CARTESIAN_POINT ( 'NONE',  ( 16.00000000000000000, 13.50000000000000355, 33.00000000000000000 ) ) ;
#194 = CARTESIAN_POINT ( 'NONE',  ( 3.500000000000000000, 0.000000000000000000, 13.00000000000000000 ) ) ;
#195 = CARTESIAN_POINT ( 'NONE',  ( 2.999999999999999112, 3.000000000000000000, 10.00000000000000000 ) ) ;
#196 = VERTEX_POINT ( 'NONE', #393 ) ;
#197 = CARTESIAN_POINT ( 'NONE',  ( 0.000000000000000000, 0.000000000000000000, 15.00000000000000000 ) ) ;
#198 = LINE ( 'NONE', #1085, #46 ) ;
#199 = VERTEX_POINT ( 'NONE', #810 ) ;
#200 = CARTESIAN_POINT ( 'NONE',  ( 9.000000000000000000, -7.500000000000000000, 31.00000000000000711 ) ) ;
#201 = VERTEX_POINT ( 'NONE', #57 ) ;
#202 = LINE ( 'NONE', #556, #535 ) ;
#203 = EDGE_CURVE ( 'NONE', #1088, #1021, #658, .T. ) ;
#204 = CARTESIAN_POINT ( 'NONE',  ( -11.00000000000000000, 13.50000000000000355, 31.00000000000001066 ) ) ;
#205 = ADVANCED_FACE ( 'NONE', ( #310 ), #316, .T. ) ;
#206 = CARTESIAN_POINT ( 'NONE',  ( 0.000000000000000000, 0.000000000000000000, 6.000000000000000000 ) ) ;
#207 = AXIS2_PLACEMENT_3D ( 'NONE', #260, #759, #333 ) ;
#208 = ADVANCED_FACE ( 'NONE', ( #227 ), #670, .T. ) ;
#209 = ORIENTED_EDGE ( 'NONE', *, *, #551, .F. ) ;
#210 = VECTOR ( 'NONE', #149, 1000.000000000000000 ) ;
#211 = DIRECTION ( 'NONE',  ( -0.000000000000000000, 0.000000000000000000, 1.000000000000000000 ) ) ;
#212 = DIRECTION ( 'NONE',  ( 0.000000000000000000, -0.000000000000000000, -1.000000000000000000 ) ) ;
#213 = EDGE_LOOP ( 'NONE', ( #960 ) ) ;
#214 = CARTESIAN_POINT ( 'NONE',  ( 16.00000000000000000, 13.50000000000000355, 33.00000000000000000 ) ) ;
#215 = DIRECTION ( 'NONE',  ( -1.000000000000000000, 0.000000000000000000, 0.000000000000000000 ) ) ;
#216 = EDGE_LOOP ( 'NONE', ( #257, #689, #133, #1013 ) ) ;
#217 = CARTESIAN_POINT ( 'NONE',  ( 3.999999999999999112, 3.000000000000000000, 10.00000000000000000 ) ) ;
#218 = ADVANCED_FACE ( 'NONE', ( #1100 ), #387, .F. ) ;
#219 = CIRCLE ( 'NONE', #628, 4.999999999999999112 ) ;
#220 = VECTOR ( 'NONE', #843, 1000.000000000000000 ) ;
#221 = ORIENTED_EDGE ( 'NONE', *, *, #729, .T. ) ;
#222 = ADVANCED_FACE ( 'NONE', ( #748 ), #1089, .F. ) ;
#223 = CIRCLE ( 'NONE', #498, 3.500000000000000000 ) ;
#224 = FACE_OUTER_BOUND ( 'NONE', #698, .T. ) ;
#225 = CARTESIAN_POINT ( 'NONE',  ( 0.000000000000000000, 0.000000000000000000, 0.000000000000000000 ) ) ;
#226 = ORIENTED_EDGE ( 'NONE', *, *, #344, .F. ) ;
#227 = FACE_OUTER_BOUND ( 'NONE', #287, .T. ) ;
#228 = ORIENTED_EDGE ( 'NONE', *, *, #549, .T. ) ;
#229 = CARTESIAN_POINT ( 'NONE',  ( 0.000000000000000000, 0.000000000000000000, 18.00000000000000000 ) ) ;
#230 = UNCERTAINTY_MEASURE_WITH_UNIT (LENGTH_MEASURE( 1.000000000000000082E-05 ), #754, 'distance_accuracy_value', 'NONE');
#231 = VERTEX_POINT ( 'NONE', #53 ) ;
#232 = CYLINDRICAL_SURFACE ( 'NONE', #23, 3.500000000000000000 ) ;
#233 = EDGE_CURVE ( 'NONE', #350, #603, #38, .T. ) ;
#234 = ORIENTED_EDGE ( 'NONE', *, *, #1051, .F. ) ;
#235 = FACE_OUTER_BOUND ( 'NONE', #275, .T. ) ;
#236 = CYLINDRICAL_SURFACE ( 'NONE', #315, 2.500000000000000000 ) ;
#237 = AXIS2_PLACEMENT_3D ( 'NONE', #371, #361, #108 ) ;
#238 = ORIENTED_EDGE ( 'NONE', *, *, #870, .T. ) ;
#239 = AXIS2_PLACEMENT_3D ( 'NONE', #424, #674, #1120 ) ;
#240 = PLANE ( 'NONE',  #573 ) ;
#241 = AXIS2_PLACEMENT_3D ( 'NONE', #428, #65, #413 ) ;
#242 = ORIENTED_EDGE ( 'NONE', *, *, #148, .T. ) ;
#243 = VECTOR ( 'NONE', #107, 1000.000000000000000 ) ;
#244 = DIRECTION ( 'NONE',  ( 1.000000000000000000, 0.000000000000000000, 0.000000000000000000 ) ) ;
#245 = FACE_BOUND ( 'NONE', #122, .T. ) ;
#246 = ORIENTED_EDGE ( 'NONE', *, *, #1104, .F. ) ;
#247 = CARTESIAN_POINT ( 'NONE',  ( 9.000000000000000000, -7.500000000000000000, 31.00000000000000711 ) ) ;
#248 = CARTESIAN_POINT ( 'NONE',  ( 0.000000000000000000, 0.000000000000000000, 0.000000000000000000 ) ) ;
#249 = LINE ( 'NONE', #957, #516 ) ;
#250 = EDGE_CURVE ( 'NONE', #201, #347, #123, .T. ) ;
#251 = CARTESIAN_POINT ( 'NONE',  ( -4.000000000000000000, -4.000000000000000000, 10.00000000000000000 ) ) ;
#252 = VERTEX_POINT ( 'NONE', #217 ) ;
#253 = DIRECTION ( 'NONE',  ( -0.000000000000000000, -0.000000000000000000, 1.000000000000000000 ) ) ;
#254 = ORIENTED_EDGE ( 'NONE', *, *, #134, .T. ) ;
#255 = CYLINDRICAL_SURFACE ( 'NONE', #736, 1.000000000000000000 ) ;
#256 = FACE_OUTER_BOUND ( 'NONE', #505, .T. ) ;
#257 = ORIENTED_EDGE ( 'NONE', *, *, #401, .T. ) ;
#258 = AXIS2_PLACEMENT_3D ( 'NONE', #92, #11, #269 ) ;
#259 = EDGE_CURVE ( 'NONE', #196, #252, #1018, .T. ) ;
#260 = CARTESIAN_POINT ( 'NONE',  ( -3.000000000000000000, -3.000000000000000000, 10.00000000000000000 ) ) ;
#261 = VECTOR ( 'NONE', #67, 1000.000000000000000 ) ;
#262 = EDGE_LOOP ( 'NONE', ( #112, #791, #980, #877, #63, #390, #968, #762 ) ) ;
#263 = CARTESIAN_POINT ( 'NONE',  ( 0.000000000000000000, 0.000000000000000000, 10.00000000000000000 ) ) ;
#264 =( GEOMETRIC_REPRESENTATION_CONTEXT ( 3 ) GLOBAL_UNCERTAINTY_ASSIGNED_CONTEXT ( ( #230 ) ) GLOBAL_UNIT_ASSIGNED_CONTEXT ( ( #754, #747, #749 ) ) REPRESENTATION_CONTEXT ( 'NONE', 'WORKASPACE' ) );
#265 = DIRECTION ( 'NONE',  ( 1.000000000000000000, 0.000000000000000000, -0.000000000000000000 ) ) ;
#266 = EDGE_LOOP ( 'NONE', ( #246, #59, #1140, #526, #672, #411, #24, #622, #66, #501, #7, #821 ) ) ;
#267 = CARTESIAN_POINT ( 'NONE',  ( -16.00000000000000000, 13.50000000000000355, 33.00000000000000000 ) ) ;
#268 = CARTESIAN_POINT ( 'NONE',  ( -3.000000000000000000, -4.000000000000000000, 6.000000000000000000 ) ) ;
#269 = DIRECTION ( 'NONE',  ( 1.000000000000000000, 0.000000000000000000, -1.734723475976807094E-15 ) ) ;
#270 = FILL_AREA_STYLE ('',( #547 ) ) ;
#271 = PLANE ( 'NONE',  #1008 ) ;
#272 = DIRECTION ( 'NONE',  ( -0.000000000000000000, 0.000000000000000000, 1.000000000000000000 ) ) ;
#273 = VERTEX_POINT ( 'NONE', #800 ) ;
#274 = PLANE ( 'NONE',  #774 ) ;
#275 = EDGE_LOOP ( 'NONE', ( #1123, #35, #469, #668 ) ) ;
#276 = FACE_BOUND ( 'NONE', #880, .T. ) ;
#277 = CARTESIAN_POINT ( 'NONE',  ( 0.000000000000000000, 0.000000000000000000, 10.00000000000000000 ) ) ;
#278 = CARTESIAN_POINT ( 'NONE',  ( 0.000000000000000000, 0.000000000000000000, 10.00000000000000000 ) ) ;
#279 = AXIS2_PLACEMENT_3D ( 'NONE', #663, #1014, #492 ) ;
#280 = AXIS2_PLACEMENT_3D ( 'NONE', #634, #12, #891 ) ;
#281 = CARTESIAN_POINT ( 'NONE',  ( 0.000000000000000000, 0.000000000000000000, 10.00000000000000000 ) ) ;
#282 = VECTOR ( 'NONE', #184, 1000.000000000000000 ) ;
#283 = DIRECTION ( 'NONE',  ( 1.000000000000000000, 0.000000000000000000, -0.000000000000000000 ) ) ;
#284 = CARTESIAN_POINT ( 'NONE',  ( -4.000000000000001776, 4.000000000000000000, 10.00000000000000000 ) ) ;
#285 = VERTEX_POINT ( 'NONE', #355 ) ;
#286 = PLANE ( 'NONE',  #76 ) ;
#287 = EDGE_LOOP ( 'NONE', ( #434, #822, #954, #324, #322, #645, #55, #436 ) ) ;
#288 = EDGE_CURVE ( 'NONE', #1088, #1082, #923, .T. ) ;
#289 = EDGE_LOOP ( 'NONE', ( #314 ) ) ;
#290 = DIRECTION ( 'NONE',  ( 1.000000000000000000, 0.000000000000000000, 0.000000000000000000 ) ) ;
#291 = DIRECTION ( 'NONE',  ( -1.000000000000000000, -0.000000000000000000, -0.000000000000000000 ) ) ;
#292 = FACE_OUTER_BOUND ( 'NONE', #262, .T. ) ;
#293 = ORIENTED_EDGE ( 'NONE', *, *, #999, .F. ) ;
#294 = CARTESIAN_POINT ( 'NONE',  ( 9.000000000000000000, -7.500000000000000000, 33.00000000000000711 ) ) ;
#295 = DIRECTION ( 'NONE',  ( -1.000000000000000000, 0.000000000000000000, 0.000000000000000000 ) ) ;
#296 = AXIS2_PLACEMENT_3D ( 'NONE', #914, #837, #45 ) ;
#297 = ORIENTED_EDGE ( 'NONE', *, *, #696, .T. ) ;
#298 = VECTOR ( 'NONE', #806, 1000.000000000000000 ) ;
#299 = ORIENTED_EDGE ( 'NONE', *, *, #115, .F. ) ;
#300 = DIRECTION ( 'NONE',  ( -1.000000000000000000, 0.000000000000000000, 0.000000000000000000 ) ) ;
#301 = APPLICATION_PROTOCOL_DEFINITION ( 'draft international standard', 'automotive_design', 1998, #840 ) ;
#302 = EDGE_CURVE ( 'NONE', #677, #201, #755, .T. ) ;
#303 = FACE_BOUND ( 'NONE', #691, .T. ) ;
#304 = VERTEX_POINT ( 'NONE', #395 ) ;
#305 = CARTESIAN_POINT ( 'NONE',  ( -4.000000000000001776, 4.000000000000000000, 10.00000000000000000 ) ) ;
#306 = PRODUCT_CONTEXT ( 'NONE', #461, 'mechanical' ) ;
#307 = DIRECTION ( 'NONE',  ( 0.000000000000000000, 0.000000000000000000, -1.000000000000000000 ) ) ;
#308 = ADVANCED_FACE ( 'NONE', ( #224, #580 ), #948, .T. ) ;
#309 = CARTESIAN_POINT ( 'NONE',  ( 0.000000000000000000, 0.000000000000000000, 10.00000000000000000 ) ) ;
#310 = FACE_OUTER_BOUND ( 'NONE', #377, .T. ) ;
#311 = CARTESIAN_POINT ( 'NONE',  ( 0.000000000000000000, 0.000000000000000000, 18.00000000000000000 ) ) ;
#312 = VECTOR ( 'NONE', #17, 1000.000000000000000 ) ;
#313 = AXIS2_PLACEMENT_3D ( 'NONE', #157, #769, #854 ) ;
#314 = ORIENTED_EDGE ( 'NONE', *, *, #796, .T. ) ;
#315 = AXIS2_PLACEMENT_3D ( 'NONE', #589, #77, #857 ) ;
#316 = CYLINDRICAL_SURFACE ( 'NONE', #279, 1.000000000000000000 ) ;
#317 = DIRECTION ( 'NONE',  ( 0.000000000000000000, -0.000000000000000000, -1.000000000000000000 ) ) ;
#318 = EDGE_LOOP ( 'NONE', ( #228 ) ) ;
#319 = ADVANCED_FACE ( 'NONE', ( #519 ), #240, .F. ) ;
#320 = ADVANCED_FACE ( 'NONE', ( #604 ), #152, .F. ) ;
#321 = FACE_OUTER_BOUND ( 'NONE', #1031, .T. ) ;
#322 = ORIENTED_EDGE ( 'NONE', *, *, #81, .T. ) ;
#323 = CARTESIAN_POINT ( 'NONE',  ( 0.000000000000000000, 0.000000000000000000, 23.00000000000000000 ) ) ;
#324 = ORIENTED_EDGE ( 'NONE', *, *, #820, .T. ) ;
#325 = LINE ( 'NONE', #939, #965 ) ;
#326 = ORIENTED_EDGE ( 'NONE', *, *, #1095, .T. ) ;
#327 = LINE ( 'NONE', #856, #189 ) ;
#328 = FACE_OUTER_BOUND ( 'NONE', #828, .T. ) ;
#329 = AXIS2_PLACEMENT_3D ( 'NONE', #861, #417, #336 ) ;
#330 = ORIENTED_EDGE ( 'NONE', *, *, #933, .F. ) ;
#331 = AXIS2_PLACEMENT_3D ( 'NONE', #838, #485, #1015 ) ;
#332 = MECHANICAL_DESIGN_GEOMETRIC_PRESENTATION_REPRESENTATION (  '', ( #944 ), #264 ) ;
#333 = DIRECTION ( 'NONE',  ( -1.000000000000000000, 0.000000000000000000, 0.000000000000000000 ) ) ;
#334 = CIRCLE ( 'NONE', #499, 1.000000000000000000 ) ;
#335 = CARTESIAN_POINT ( 'NONE',  ( -16.00000000000000000, -7.499999999999998224, 33.00000000000000000 ) ) ;
#336 = DIRECTION ( 'NONE',  ( 1.000000000000000000, 0.000000000000000000, 0.000000000000000000 ) ) ;
#337 = DIRECTION ( 'NONE',  ( 1.000000000000000000, 0.000000000000000000, 0.000000000000000000 ) ) ;
#338 = EDGE_LOOP ( 'NONE', ( #591, #585 ) ) ;
#339 = CARTESIAN_POINT ( 'NONE',  ( -4.000000000000001776, 4.000000000000000000, 6.000000000000000000 ) ) ;
#340 = ORIENTED_EDGE ( 'NONE', *, *, #870, .F. ) ;
#341 = PLANE ( 'NONE',  #985 ) ;
#342 = ADVANCED_FACE ( 'NONE', ( #876 ), #859, .T. ) ;
#343 = DIRECTION ( 'NONE',  ( 0.000000000000000000, 1.000000000000000000, 0.000000000000000000 ) ) ;
#344 = EDGE_CURVE ( 'NONE', #68, #158, #500, .T. ) ;
#345 = ORIENTED_EDGE ( 'NONE', *, *, #250, .T. ) ;
#346 = CARTESIAN_POINT ( 'NONE',  ( -9.000000000000000000, 13.50000000000000355, 31.00000000000000711 ) ) ;
#347 = VERTEX_POINT ( 'NONE', #1133 ) ;
#348 = DIRECTION ( 'NONE',  ( -1.000000000000000000, 0.000000000000000000, -0.000000000000000000 ) ) ;
#349 = PLANE ( 'NONE',  #609 ) ;
#350 = VERTEX_POINT ( 'NONE', #777 ) ;
#351 = EDGE_CURVE ( 'NONE', #140, #161, #1047, .T. ) ;
#352 = LINE ( 'NONE', #267, #43 ) ;
#353 = VECTOR ( 'NONE', #996, 1000.000000000000000 ) ;
#354 = EDGE_LOOP ( 'NONE', ( #121, #510, #906, #105 ) ) ;
#355 = CARTESIAN_POINT ( 'NONE',  ( -3.500000000000000000, 0.000000000000000000, 0.000000000000000000 ) ) ;
#356 = VECTOR ( 'NONE', #433, 1000.000000000000000 ) ;
#357 = ORIENTED_EDGE ( 'NONE', *, *, #549, .F. ) ;
#358 = DIRECTION ( 'NONE',  ( -1.000000000000000000, -0.000000000000000000, -0.000000000000000000 ) ) ;
#359 = ADVANCED_FACE ( 'NONE', ( #415 ), #685, .F. ) ;
#360 = LINE ( 'NONE', #799, #8 ) ;
#361 = DIRECTION ( 'NONE',  ( 0.000000000000000000, -0.000000000000000000, -1.000000000000000000 ) ) ;
#362 = DIRECTION ( 'NONE',  ( -0.000000000000000000, 0.000000000000000000, 1.000000000000000000 ) ) ;
#363 = VERTEX_POINT ( 'NONE', #62 ) ;
#364 = PLANE ( 'NONE',  #630 ) ;
#365 = PLANE ( 'NONE',  #925 ) ;
#366 = FACE_OUTER_BOUND ( 'NONE', #768, .T. ) ;
#367 = DIRECTION ( 'NONE',  ( 0.000000000000000000, -0.000000000000000000, 1.000000000000000000 ) ) ;
#368 = VERTEX_POINT ( 'NONE', #247 ) ;
#369 = CARTESIAN_POINT ( 'NONE',  ( -11.00000000000000000, -36.06102834535694512, 31.00000000000001066 ) ) ;
#370 = DIRECTION ( 'NONE',  ( 1.000000000000000000, 0.000000000000000000, 0.000000000000000000 ) ) ;
#371 = CARTESIAN_POINT ( 'NONE',  ( -3.000000000000000000, -3.000000000000000000, 6.000000000000000000 ) ) ;
#372 = AXIS2_PLACEMENT_3D ( 'NONE', #969, #172, #524 ) ;
#373 = VECTOR ( 'NONE', #662, 1000.000000000000000 ) ;
#374 = SURFACE_STYLE_FILL_AREA ( #270 ) ;
#375 = EDGE_CURVE ( 'NONE', #792, #792, #867, .T. ) ;
#376 = EDGE_CURVE ( 'NONE', #231, #581, #871, .T. ) ;
#377 = EDGE_LOOP ( 'NONE', ( #775, #37, #1116, #330 ) ) ;
#378 = LINE ( 'NONE', #369, #649 ) ;
#379 = LINE ( 'NONE', #715, #1045 ) ;
#380 = CARTESIAN_POINT ( 'NONE',  ( 11.00000000000000000, 13.50000000000000355, 28.00000000000001066 ) ) ;
#381 = LINE ( 'NONE', #560, #298 ) ;
#382 = ORIENTED_EDGE ( 'NONE', *, *, #528, .F. ) ;
#383 = CARTESIAN_POINT ( 'NONE',  ( 0.000000000000000000, 0.000000000000000000, 11.00000000000000000 ) ) ;
#384 = PLANE ( 'NONE',  #684 ) ;
#385 = EDGE_LOOP ( 'NONE', ( #414, #730, #916, #570, #429, #1110, #825, #2 ) ) ;
#386 = ORIENTED_EDGE ( 'NONE', *, *, #611, .F. ) ;
#387 = PLANE ( 'NONE',  #4 ) ;
#388 = CARTESIAN_POINT ( 'NONE',  ( 16.00000000000000000, 13.50000000000000355, 23.00000000000000000 ) ) ;
#389 = AXIS2_PLACEMENT_3D ( 'NONE', #725, #1084, #290 ) ;
#390 = ORIENTED_EDGE ( 'NONE', *, *, #819, .T. ) ;
#391 = TOROIDAL_SURFACE ( 'NONE', #422, 8.500000000000000000, 5.000000000000000000 ) ;
#392 = VECTOR ( 'NONE', #711, 1000.000000000000000 ) ;
#393 = CARTESIAN_POINT ( 'NONE',  ( 3.999999999999999112, 3.000000000000000000, 6.000000000000000000 ) ) ;
#394 = EDGE_LOOP ( 'NONE', ( #1001 ) ) ;
#395 = CARTESIAN_POINT ( 'NONE',  ( -11.00000000000000000, -7.500000000000000000, 31.00000000000001066 ) ) ;
#396 = DIRECTION ( 'NONE',  ( 0.000000000000000000, 0.000000000000000000, -1.000000000000000000 ) ) ;
#397 = PRODUCT_DEFINITION_SHAPE ( 'NONE', 'NONE',  #952 ) ;
#398 = EDGE_LOOP ( 'NONE', ( #221, #567, #765, #299 ) ) ;
#399 = FACE_OUTER_BOUND ( 'NONE', #938, .T. ) ;
#400 = LINE ( 'NONE', #388, #704 ) ;
#401 = EDGE_CURVE ( 'NONE', #533, #654, #72, .T. ) ;
#402 = EDGE_CURVE ( 'NONE', #577, #884, #325, .T. ) ;
#403 = TOROIDAL_SURFACE ( 'NONE', #943, 1.500000000000000000, 2.000000000000000000 ) ;
#404 = ORIENTED_EDGE ( 'NONE', *, *, #351, .T. ) ;
#405 = VECTOR ( 'NONE', #307, 1000.000000000000000 ) ;
#406 = DIRECTION ( 'NONE',  ( 0.000000000000000000, -0.000000000000000000, -1.000000000000000000 ) ) ;
#407 = ORIENTED_EDGE ( 'NONE', *, *, #820, .F. ) ;
#408 = DIRECTION ( 'NONE',  ( -0.000000000000000000, 1.000000000000000000, -0.000000000000000000 ) ) ;
#409 = ORIENTED_EDGE ( 'NONE', *, *, #1139, .F. ) ;
#410 = DIRECTION ( 'NONE',  ( -1.000000000000000000, 0.000000000000000000, 0.000000000000000000 ) ) ;
#411 = ORIENTED_EDGE ( 'NONE', *, *, #673, .F. ) ;
#412 = LINE ( 'NONE', #588, #483 ) ;
#413 = DIRECTION ( 'NONE',  ( 1.000000000000000000, 0.000000000000000000, 0.000000000000000000 ) ) ;
#414 = ORIENTED_EDGE ( 'NONE', *, *, #288, .F. ) ;
#415 = FACE_OUTER_BOUND ( 'NONE', #354, .T. ) ;
#416 = ORIENTED_EDGE ( 'NONE', *, *, #302, .T. ) ;
#417 = DIRECTION ( 'NONE',  ( -0.000000000000000000, 0.000000000000000000, 1.000000000000000000 ) ) ;
#418 = DIRECTION ( 'NONE',  ( 0.000000000000000000, -0.000000000000000000, -1.000000000000000000 ) ) ;
#419 = CIRCLE ( 'NONE', #904, 3.500000000000000000 ) ;
#420 = ORIENTED_EDGE ( 'NONE', *, *, #95, .F. ) ;
#421 = AXIS2_PLACEMENT_3D ( 'NONE', #1050, #958, #522 ) ;
#422 = AXIS2_PLACEMENT_3D ( 'NONE', #311, #64, #606 ) ;
#423 = EDGE_CURVE ( 'NONE', #523, #363, #1111, .T. ) ;
#424 = CARTESIAN_POINT ( 'NONE',  ( -16.00000000000000000, 13.50000000000000355, 33.00000000000000000 ) ) ;
#425 = VERTEX_POINT ( 'NONE', #697 ) ;
#426 = CARTESIAN_POINT ( 'NONE',  ( -11.00000000000000000, -7.500000000000000000, 28.00000000000001066 ) ) ;
#427 = EDGE_CURVE ( 'NONE', #201, #677, #1023, .T. ) ;
#428 = CARTESIAN_POINT ( 'NONE',  ( 0.000000000000000000, 0.000000000000000000, 10.00000000000000000 ) ) ;
#429 = ORIENTED_EDGE ( 'NONE', *, *, #1041, .F. ) ;
#430 = FACE_OUTER_BOUND ( 'NONE', #182, .T. ) ;
#431 = EDGE_LOOP ( 'NONE', ( #1119 ) ) ;
#432 = DIRECTION ( 'NONE',  ( -0.000000000000000000, 0.000000000000000000, -1.000000000000000000 ) ) ;
#433 = DIRECTION ( 'NONE',  ( -0.000000000000000000, -0.000000000000000000, 1.000000000000000000 ) ) ;
#434 = ORIENTED_EDGE ( 'NONE', *, *, #116, .T. ) ;
#435 = CARTESIAN_POINT ( 'NONE',  ( -16.00000000000000000, 13.50000000000000355, 33.00000000000000000 ) ) ;
#436 = ORIENTED_EDGE ( 'NONE', *, *, #288, .T. ) ;
#437 = DIRECTION ( 'NONE',  ( 0.000000000000000000, -0.000000000000000000, -1.000000000000000000 ) ) ;
#438 = ADVANCED_FACE ( 'NONE', ( #430 ), #610, .F. ) ;
#439 = EDGE_LOOP ( 'NONE', ( #71 ) ) ;
#440 = VECTOR ( 'NONE', #455, 1000.000000000000000 ) ;
#441 = DIRECTION ( 'NONE',  ( 0.000000000000000000, 0.000000000000000000, 1.000000000000000000 ) ) ;
#442 = CIRCLE ( 'NONE', #42, 4.999999999999999112 ) ;
#443 = CARTESIAN_POINT ( 'NONE',  ( -9.000000000000000000, 13.50000000000000355, 31.00000000000000711 ) ) ;
#444 = DIRECTION ( 'NONE',  ( 0.000000000000000000, -0.000000000000000000, -1.000000000000000000 ) ) ;
#445 = CIRCLE ( 'NONE', #593, 8.500000000000000000 ) ;
#446 = SURFACE_STYLE_USAGE ( .BOTH. , #181 ) ;
#447 = ORIENTED_EDGE ( 'NONE', *, *, #994, .T. ) ;
#448 = CARTESIAN_POINT ( 'NONE',  ( 0.000000000000000000, 0.000000000000000000, 2.000000000000000000 ) ) ;
#449 = LINE ( 'NONE', #97, #633 ) ;
#450 = DIRECTION ( 'NONE',  ( -0.000000000000000000, -0.000000000000000000, -1.000000000000000000 ) ) ;
#451 = DIRECTION ( 'NONE',  ( -0.000000000000000000, 0.000000000000000000, 1.000000000000000000 ) ) ;
#452 = LINE ( 'NONE', #813, #353 ) ;
#453 = ADVANCED_FACE ( 'NONE', ( #1034, #321 ), #232, .T. ) ;
#454 = CARTESIAN_POINT ( 'NONE',  ( 0.000000000000000000, 0.000000000000000000, 10.00000000000000000 ) ) ;
#455 = DIRECTION ( 'NONE',  ( -0.000000000000000000, -0.000000000000000000, 1.000000000000000000 ) ) ;
#456 = ADVANCED_FACE ( 'NONE', ( #714, #710 ), #364, .F. ) ;
#457 = LINE ( 'NONE', #626, #886 ) ;
#458 = ORIENTED_EDGE ( 'NONE', *, *, #611, .T. ) ;
#459 = CARTESIAN_POINT ( 'NONE',  ( 2.999999999999999112, 4.000000000000000000, 6.000000000000000000 ) ) ;
#460 = PRODUCT_DEFINITION_FORMATION_WITH_SPECIFIED_SOURCE ( 'ANY', '', #1108, .NOT_KNOWN. ) ;
#461 = APPLICATION_CONTEXT ( 'automotive_design' ) ;
#462 = FACE_OUTER_BOUND ( 'NONE', #812, .T. ) ;
#463 = CARTESIAN_POINT ( 'NONE',  ( -1.500000000000000000, 0.000000000000000000, -2.000000000000000000 ) ) ;
#464 = VECTOR ( 'NONE', #864, 1000.000000000000000 ) ;
#465 = ADVANCED_FACE ( 'NONE', ( #276, #629 ), #271, .T. ) ;
#466 = CIRCLE ( 'NONE', #988, 1.000000000000000000 ) ;
#467 = DIRECTION ( 'NONE',  ( 0.000000000000000000, 0.000000000000000000, -1.000000000000000000 ) ) ;
#468 = AXIS2_PLACEMENT_3D ( 'NONE', #277, #91, #894 ) ;
#469 = ORIENTED_EDGE ( 'NONE', *, *, #763, .F. ) ;
#470 = DIRECTION ( 'NONE',  ( 1.000000000000000000, 0.000000000000000000, 0.000000000000000000 ) ) ;
#471 = LINE ( 'NONE', #5, #1107 ) ;
#472 = ORIENTED_EDGE ( 'NONE', *, *, #129, .F. ) ;
#473 = DIRECTION ( 'NONE',  ( -0.000000000000000000, 0.000000000000000000, -1.000000000000000000 ) ) ;
#474 =( NAMED_UNIT ( * ) SI_UNIT ( $, .STERADIAN. ) SOLID_ANGLE_UNIT ( ) );
#475 = ADVANCED_FACE ( 'NONE', ( #183, #9 ), #403, .T. ) ;
#476 = CARTESIAN_POINT ( 'NONE',  ( -4.000000000000001776, 3.000000000000000000, 10.00000000000000000 ) ) ;
#477 = EDGE_LOOP ( 'NONE', ( #458 ) ) ;
#478 = ORIENTED_EDGE ( 'NONE', *, *, #511, .F. ) ;
#479 = FACE_OUTER_BOUND ( 'NONE', #394, .T. ) ;
#480 = VECTOR ( 'NONE', #408, 1000.000000000000000 ) ;
#481 = FACE_OUTER_BOUND ( 'NONE', #31, .T. ) ;
#482 = AXIS2_PLACEMENT_3D ( 'NONE', #1010, #563, #130 ) ;
#483 = VECTOR ( 'NONE', #514, 1000.000000000000000 ) ;
#484 = DIRECTION ( 'NONE',  ( 0.000000000000000000, 0.000000000000000000, 1.000000000000000000 ) ) ;
#485 = DIRECTION ( 'NONE',  ( 0.000000000000000000, 0.000000000000000000, 1.000000000000000000 ) ) ;
#486 = CARTESIAN_POINT ( 'NONE',  ( 11.00000000000000000, -7.500000000000000000, 31.00000000000001066 ) ) ;
#487 = DIRECTION ( 'NONE',  ( -0.000000000000000000, -0.000000000000000000, -1.000000000000000000 ) ) ;
#488 = EDGE_CURVE ( 'NONE', #347, #201, #442, .T. ) ;
#489 = EDGE_CURVE ( 'NONE', #1112, #936, #808, .T. ) ;
#490 = DIRECTION ( 'NONE',  ( 1.000000000000000000, -1.776356839400250465E-15, 0.000000000000000000 ) ) ;
#491 = ORIENTED_EDGE ( 'NONE', *, *, #562, .F. ) ;
#492 = DIRECTION ( 'NONE',  ( -1.000000000000000000, 0.000000000000000000, 0.000000000000000000 ) ) ;
#493 = ORIENTED_EDGE ( 'NONE', *, *, #852, .F. ) ;
#494 = DIRECTION ( 'NONE',  ( 1.000000000000000000, -0.000000000000000000, 0.000000000000000000 ) ) ;
#495 = CIRCLE ( 'NONE', #1020, 1.000000000000000000 ) ;
#496 = CIRCLE ( 'NONE', #186, 2.500000000000000000 ) ;
#497 = ORIENTED_EDGE ( 'NONE', *, *, #50, .T. ) ;
#498 = AXIS2_PLACEMENT_3D ( 'NONE', #992, #132, #295 ) ;
#499 = AXIS2_PLACEMENT_3D ( 'NONE', #990, #889, #470 ) ;
#500 = LINE ( 'NONE', #955, #1122 ) ;
#501 = ORIENTED_EDGE ( 'NONE', *, *, #344, .T. ) ;
#502 = DIRECTION ( 'NONE',  ( 0.000000000000000000, 0.000000000000000000, 1.000000000000000000 ) ) ;
#503 = LINE ( 'NONE', #966, #356 ) ;
#504 = ADVANCED_FACE ( 'NONE', ( #86 ), #881, .F. ) ;
#505 = EDGE_LOOP ( 'NONE', ( #709, #639, #1017, #947 ) ) ;
#506 = DIRECTION ( 'NONE',  ( -0.000000000000000000, -0.000000000000000000, -1.000000000000000000 ) ) ;
#507 = PLANE ( 'NONE',  #1011 ) ;
#508 = CARTESIAN_POINT ( 'NONE',  ( 9.000000000000000000, 13.50000000000000355, 33.00000000000000711 ) ) ;
#509 = DIRECTION ( 'NONE',  ( 1.000000000000000000, 0.000000000000000000, 0.000000000000000000 ) ) ;
#510 = ORIENTED_EDGE ( 'NONE', *, *, #1095, .F. ) ;
#511 = EDGE_CURVE ( 'NONE', #347, #138, #681, .T. ) ;
#512 = CARTESIAN_POINT ( 'NONE',  ( 11.00000000000000000, 13.50000000000000355, 31.00000000000001066 ) ) ;
#513 = ORIENTED_EDGE ( 'NONE', *, *, #525, .T. ) ;
#514 = DIRECTION ( 'NONE',  ( 0.000000000000000000, -1.000000000000000000, 0.000000000000000000 ) ) ;
#515 = CARTESIAN_POINT ( 'NONE',  ( -3.000000000000001776, 4.000000000000000000, 10.00000000000000000 ) ) ;
#516 = VECTOR ( 'NONE', #432, 1000.000000000000000 ) ;
#517 = EDGE_LOOP ( 'NONE', ( #758, #416 ) ) ;
#518 = AXIS2_PLACEMENT_3D ( 'NONE', #309, #418, #337 ) ;
#519 = FACE_OUTER_BOUND ( 'NONE', #216, .T. ) ;
#520 = CARTESIAN_POINT ( 'NONE',  ( 0.000000000000000000, 0.000000000000000000, 6.000000000000000000 ) ) ;
#521 = DIRECTION ( 'NONE',  ( -0.000000000000000000, 0.000000000000000000, 1.000000000000000000 ) ) ;
#522 = DIRECTION ( 'NONE',  ( 1.000000000000000000, 0.000000000000000000, 1.734723475976807094E-15 ) ) ;
#523 = VERTEX_POINT ( 'NONE', #618 ) ;
#524 = DIRECTION ( 'NONE',  ( -2.168404344971008868E-16, 1.000000000000000000, 0.000000000000000000 ) ) ;
#525 = EDGE_CURVE ( 'NONE', #151, #523, #96, .T. ) ;
#526 = ORIENTED_EDGE ( 'NONE', *, *, #994, .F. ) ;
#527 = CARTESIAN_POINT ( 'NONE',  ( 3.500000000000000000, 0.000000000000000000, 2.000000000000000000 ) ) ;
#528 = EDGE_CURVE ( 'NONE', #603, #679, #544, .T. ) ;
#529 = DIRECTION ( 'NONE',  ( -1.000000000000000000, 0.000000000000000000, 0.000000000000000000 ) ) ;
#530 = DIRECTION ( 'NONE',  ( 1.000000000000000000, 1.776356839400250465E-15, 0.000000000000000000 ) ) ;
#531 = CARTESIAN_POINT ( 'NONE',  ( -16.00000000000000000, -13.49999999999999822, 33.00000000000000000 ) ) ;
#532 = DIRECTION ( 'NONE',  ( -0.000000000000000000, 0.000000000000000000, 1.000000000000000000 ) ) ;
#533 = VERTEX_POINT ( 'NONE', #459 ) ;
#534 = CARTESIAN_POINT ( 'NONE',  ( -3.000000000000000000, -3.000000000000000000, 10.00000000000000000 ) ) ;
#535 = VECTOR ( 'NONE', #790, 1000.000000000000000 ) ;
#536 = CARTESIAN_POINT ( 'NONE',  ( 9.000000000000000000, -36.06102834535694512, 31.00000000000000711 ) ) ;
#537 = CARTESIAN_POINT ( 'NONE',  ( 2.500000000000000000, 0.000000000000000000, 2.000000000000000000 ) ) ;
#538 = AXIS2_PLACEMENT_3D ( 'NONE', #664, #317, #1026 ) ;
#539 = CARTESIAN_POINT ( 'NONE',  ( 0.000000000000000000, 0.000000000000000000, 15.00000000000000000 ) ) ;
#540 = ORIENTED_EDGE ( 'NONE', *, *, #746, .T. ) ;
#541 = PRODUCT_RELATED_PRODUCT_CATEGORY ( 'part', '', ( #1108 ) ) ;
#542 = EDGE_CURVE ( 'NONE', #836, #1059, #452, .T. ) ;
#543 = ADVANCED_BREP_SHAPE_REPRESENTATION ( 'P001-B119_BobbinDriveShaft-1', ( #787, #331 ), #794 ) ;
#544 = LINE ( 'NONE', #893, #850 ) ;
#545 = CARTESIAN_POINT ( 'NONE',  ( -9.000000000000000000, -7.500000000000000000, 31.00000000000000711 ) ) ;
#546 = DIRECTION ( 'NONE',  ( 1.000000000000000000, 0.000000000000000000, 0.000000000000000000 ) ) ;
#547 = FILL_AREA_STYLE_COLOUR ( '', #833 ) ;
#548 = ORIENTED_EDGE ( 'NONE', *, *, #82, .T. ) ;
#549 = EDGE_CURVE ( 'NONE', #199, #199, #496, .T. ) ;
#550 = DIRECTION ( 'NONE',  ( 1.000000000000000000, 0.000000000000000000, 0.000000000000000000 ) ) ;
#551 = EDGE_CURVE ( 'NONE', #304, #140, #378, .T. ) ;
#552 = LINE ( 'NONE', #642, #282 ) ;
#553 = CARTESIAN_POINT ( 'NONE',  ( 3.500000000000000000, 0.000000000000000000, 18.00000000000000000 ) ) ;
#554 = FACE_OUTER_BOUND ( 'NONE', #897, .T. ) ;
#555 = ORIENTED_EDGE ( 'NONE', *, *, #117, .T. ) ;
#556 = CARTESIAN_POINT ( 'NONE',  ( 11.00000000000000000, -7.500000000000000000, 31.00000000000001066 ) ) ;
#557 = DIRECTION ( 'NONE',  ( -0.000000000000000000, 1.000000000000000000, -0.000000000000000000 ) ) ;
#558 = AXIS2_PLACEMENT_3D ( 'NONE', #636, #981, #27 ) ;
#559 = CIRCLE ( 'NONE', #518, 4.999999999999999112 ) ;
#560 = CARTESIAN_POINT ( 'NONE',  ( 11.00000000000000000, -36.06102834535694512, 31.00000000000001066 ) ) ;
#561 = ORIENTED_EDGE ( 'NONE', *, *, #54, .T. ) ;
#562 = EDGE_CURVE ( 'NONE', #185, #185, #738, .T. ) ;
#563 = DIRECTION ( 'NONE',  ( -0.000000000000000000, 0.000000000000000000, 1.000000000000000000 ) ) ;
#564 = DIRECTION ( 'NONE',  ( 1.000000000000000000, 0.000000000000000000, 0.000000000000000000 ) ) ;
#565 = EDGE_CURVE ( 'NONE', #98, #98, #885, .T. ) ;
#566 = EDGE_CURVE ( 'NONE', #68, #1021, #641, .T. ) ;
#567 = ORIENTED_EDGE ( 'NONE', *, *, #203, .T. ) ;
#568 = CARTESIAN_POINT ( 'NONE',  ( -16.00000000000000000, 13.50000000000000355, 23.00000000000000000 ) ) ;
#569 = FACE_OUTER_BOUND ( 'NONE', #858, .T. ) ;
#570 = ORIENTED_EDGE ( 'NONE', *, *, #402, .F. ) ;
#571 = DIRECTION ( 'NONE',  ( -0.000000000000000000, -0.000000000000000000, 1.000000000000000000 ) ) ;
#572 = FACE_OUTER_BOUND ( 'NONE', #743, .T. ) ;
#573 = AXIS2_PLACEMENT_3D ( 'NONE', #144, #594, #1058 ) ;
#574 = AXIS2_PLACEMENT_3D ( 'NONE', #206, #451, #104 ) ;
#575 = CIRCLE ( 'NONE', #667, 2.500000000000000000 ) ;
#576 = EDGE_CURVE ( 'NONE', #884, #368, #202, .T. ) ;
#577 = VERTEX_POINT ( 'NONE', #1 ) ;
#578 = EDGE_CURVE ( 'NONE', #1069, #350, #352, .T. ) ;
#579 = ADVANCED_FACE ( 'NONE', ( #328, #160 ), #175, .T. ) ;
#580 = FACE_OUTER_BOUND ( 'NONE', #1027, .T. ) ;
#581 = VERTEX_POINT ( 'NONE', #767 ) ;
#582 = CARTESIAN_POINT ( 'NONE',  ( 3.999999999999999112, 3.000000000000000000, 10.00000000000000000 ) ) ;
#583 = ORIENTED_EDGE ( 'NONE', *, *, #732, .T. ) ;
#584 = DIRECTION ( 'NONE',  ( 0.000000000000000000, -0.000000000000000000, -1.000000000000000000 ) ) ;
#585 = ORIENTED_EDGE ( 'NONE', *, *, #1109, .T. ) ;
#586 = DIRECTION ( 'NONE',  ( -0.000000000000000000, -0.000000000000000000, -1.000000000000000000 ) ) ;
#587 = ORIENTED_EDGE ( 'NONE', *, *, #661, .F. ) ;
#588 = CARTESIAN_POINT ( 'NONE',  ( -16.00000000000000000, 13.50000000000000355, 33.00000000000000000 ) ) ;
#589 = CARTESIAN_POINT ( 'NONE',  ( 0.000000000000000000, 0.000000000000000000, 2.000000000000000000 ) ) ;
#590 = AXIS2_PLACEMENT_3D ( 'NONE', #846, #487, #300 ) ;
#591 = ORIENTED_EDGE ( 'NONE', *, *, #1139, .T. ) ;
#592 = AXIS2_PLACEMENT_3D ( 'NONE', #195, #110, #30 ) ;
#593 = AXIS2_PLACEMENT_3D ( 'NONE', #804, #272, #637 ) ;
#594 = DIRECTION ( 'NONE',  ( 0.000000000000000000, -1.000000000000000000, 0.000000000000000000 ) ) ;
#595 = VERTEX_POINT ( 'NONE', #1118 ) ;
#596 = DIRECTION ( 'NONE',  ( 0.000000000000000000, -0.000000000000000000, -1.000000000000000000 ) ) ;
#597 = DIRECTION ( 'NONE',  ( 1.000000000000000000, 0.000000000000000000, 0.000000000000000000 ) ) ;
#598 = ORIENTED_EDGE ( 'NONE', *, *, #36, .T. ) ;
#599 = DIRECTION ( 'NONE',  ( 1.000000000000000000, 0.000000000000000000, 0.000000000000000000 ) ) ;
#600 = ORIENTED_EDGE ( 'NONE', *, *, #511, .T. ) ;
#601 = DIRECTION ( 'NONE',  ( -0.000000000000000000, -0.000000000000000000, 1.000000000000000000 ) ) ;
#602 = CARTESIAN_POINT ( 'NONE',  ( 11.00000000000000000, 13.50000000000000355, 28.00000000000001066 ) ) ;
#603 = VERTEX_POINT ( 'NONE', #1131 ) ;
#604 = FACE_OUTER_BOUND ( 'NONE', #266, .T. ) ;
#605 = DIRECTION ( 'NONE',  ( 0.000000000000000000, 0.000000000000000000, 1.000000000000000000 ) ) ;
#606 = DIRECTION ( 'NONE',  ( 1.000000000000000000, 0.000000000000000000, 0.000000000000000000 ) ) ;
#607 = LINE ( 'NONE', #945, #210 ) ;
#608 = AXIS2_PLACEMENT_3D ( 'NONE', #534, #887, #192 ) ;
#609 = AXIS2_PLACEMENT_3D ( 'NONE', #70, #862, #265 ) ;
#610 = PLANE ( 'NONE',  #372 ) ;
#611 = EDGE_CURVE ( 'NONE', #722, #722, #772, .T. ) ;
#612 = ADVANCED_FACE ( 'NONE', ( #256 ), #693, .F. ) ;
#613 = ADVANCED_FACE ( 'NONE', ( #879 ), #616, .T. ) ;
#614 = EDGE_LOOP ( 'NONE', ( #845, #87, #297, #1046 ) ) ;
#615 = DIRECTION ( 'NONE',  ( -0.000000000000000000, 0.000000000000000000, 1.000000000000000000 ) ) ;
#616 = PLANE ( 'NONE',  #168 ) ;
#617 = EDGE_LOOP ( 'NONE', ( #420 ) ) ;
#618 = CARTESIAN_POINT ( 'NONE',  ( 3.000000000000000000, -4.000000000000000000, 6.000000000000000000 ) ) ;
#619 = CARTESIAN_POINT ( 'NONE',  ( -11.00000000000000000, -7.500000000000000000, 28.00000000000001066 ) ) ;
#620 = DIRECTION ( 'NONE',  ( -1.000000000000000000, 0.000000000000000000, -0.000000000000000000 ) ) ;
#621 = DIRECTION ( 'NONE',  ( 0.000000000000000000, -0.000000000000000000, 1.000000000000000000 ) ) ;
#622 = ORIENTED_EDGE ( 'NONE', *, *, #171, .F. ) ;
#623 = DIRECTION ( 'NONE',  ( 0.000000000000000000, -0.000000000000000000, -1.000000000000000000 ) ) ;
#624 = CARTESIAN_POINT ( 'NONE',  ( 0.000000000000000000, 0.000000000000000000, 10.00000000000000000 ) ) ;
#625 = VERTEX_POINT ( 'NONE', #707 ) ;
#626 = CARTESIAN_POINT ( 'NONE',  ( -9.000000000000000000, -7.500000000000000000, 33.00000000000000711 ) ) ;
#627 = VERTEX_POINT ( 'NONE', #788 ) ;
#628 = AXIS2_PLACEMENT_3D ( 'NONE', #263, #596, #761 ) ;
#629 = FACE_OUTER_BOUND ( 'NONE', #770, .T. ) ;
#630 = AXIS2_PLACEMENT_3D ( 'NONE', #448, #974, #1070 ) ;
#631 = LINE ( 'NONE', #545, #243 ) ;
#632 = VERTEX_POINT ( 'NONE', #983 ) ;
#633 = VECTOR ( 'NONE', #291, 1000.000000000000000 ) ;
#634 = CARTESIAN_POINT ( 'NONE',  ( 0.000000000000000000, 0.000000000000000000, 23.00000000000000000 ) ) ;
#635 = ORIENTED_EDGE ( 'NONE', *, *, #781, .T. ) ;
#636 = CARTESIAN_POINT ( 'NONE',  ( -11.00000000000000000, -36.06102834535694512, 28.00000000000001066 ) ) ;
#637 = DIRECTION ( 'NONE',  ( 1.000000000000000000, 0.000000000000000000, 0.000000000000000000 ) ) ;
#638 = VERTEX_POINT ( 'NONE', #553 ) ;
#639 = ORIENTED_EDGE ( 'NONE', *, *, #115, .T. ) ;
#640 = ORIENTED_EDGE ( 'NONE', *, *, #423, .T. ) ;
#641 = LINE ( 'NONE', #435, #1042 ) ;
#642 = CARTESIAN_POINT ( 'NONE',  ( 3.999999999999999112, 4.000000000000000000, 10.00000000000000000 ) ) ;
#643 = PLANE ( 'NONE',  #574 ) ;
#644 = EDGE_LOOP ( 'NONE', ( #1035 ) ) ;
#645 = ORIENTED_EDGE ( 'NONE', *, *, #566, .T. ) ;
#646 = ADVANCED_FACE ( 'NONE', ( #155 ), #1136, .T. ) ;
#647 = ADVANCED_FACE ( 'NONE', ( #972 ), #1044, .F. ) ;
#648 = DIRECTION ( 'NONE',  ( -1.000000000000000000, 0.000000000000000000, 0.000000000000000000 ) ) ;
#649 = VECTOR ( 'NONE', #1064, 1000.000000000000000 ) ;
#650 = VECTOR ( 'NONE', #51, 1000.000000000000000 ) ;
#651 = DIRECTION ( 'NONE',  ( 0.000000000000000000, -0.000000000000000000, 1.000000000000000000 ) ) ;
#652 = AXIS2_PLACEMENT_3D ( 'NONE', #520, #872, #1074 ) ;
#653 = ORIENTED_EDGE ( 'NONE', *, *, #1028, .F. ) ;
#654 = VERTEX_POINT ( 'NONE', #88 ) ;
#655 = FACE_OUTER_BOUND ( 'NONE', #928, .T. ) ;
#656 = CARTESIAN_POINT ( 'NONE',  ( -16.00000000000000000, -13.49999999999999822, 33.00000000000000000 ) ) ;
#657 = EDGE_LOOP ( 'NONE', ( #1002, #119, #447, #209 ) ) ;
#658 = LINE ( 'NONE', #744, #220 ) ;
#659 = PLANE ( 'NONE',  #44 ) ;
#660 = ADVANCED_FACE ( 'NONE', ( #245, #1062 ), #349, .T. ) ;
#661 = EDGE_CURVE ( 'NONE', #252, #627, #559, .T. ) ;
#662 = DIRECTION ( 'NONE',  ( -0.000000000000000000, -0.000000000000000000, -1.000000000000000000 ) ) ;
#663 = CARTESIAN_POINT ( 'NONE',  ( -3.000000000000001776, 3.000000000000000000, 10.00000000000000000 ) ) ;
#664 = CARTESIAN_POINT ( 'NONE',  ( 2.999999999999999112, 3.000000000000000000, 6.000000000000000000 ) ) ;
#665 = VECTOR ( 'NONE', #1101, 1000.000000000000000 ) ;
#666 = AXIS2_PLACEMENT_3D ( 'NONE', #919, #734, #490 ) ;
#667 = AXIS2_PLACEMENT_3D ( 'NONE', #248, #605, #166 ) ;
#668 = ORIENTED_EDGE ( 'NONE', *, *, #953, .F. ) ;
#669 = EDGE_CURVE ( 'NONE', #836, #654, #815, .T. ) ;
#670 = PLANE ( 'NONE',  #703 ) ;
#671 = LINE ( 'NONE', #124, #1043 ) ;
#672 = ORIENTED_EDGE ( 'NONE', *, *, #489, .F. ) ;
#673 = EDGE_CURVE ( 'NONE', #581, #1112, #688, .T. ) ;
#674 = DIRECTION ( 'NONE',  ( 1.000000000000000000, 0.000000000000000000, -0.000000000000000000 ) ) ;
#675 = EDGE_LOOP ( 'NONE', ( #386 ) ) ;
#676 = DIRECTION ( 'NONE',  ( -1.000000000000000000, 0.000000000000000000, 0.000000000000000000 ) ) ;
#677 = VERTEX_POINT ( 'NONE', #515 ) ;
#678 = DIRECTION ( 'NONE',  ( 0.000000000000000000, -0.000000000000000000, -1.000000000000000000 ) ) ;
#679 = VERTEX_POINT ( 'NONE', #868 ) ;
#680 = CARTESIAN_POINT ( 'NONE',  ( 3.000000000000000000, -3.000000000000000000, 10.00000000000000000 ) ) ;
#681 = CIRCLE ( 'NONE', #608, 1.000000000000000000 ) ;
#682 = CARTESIAN_POINT ( 'NONE',  ( 0.000000000000000000, 0.000000000000000000, -2.000000000000000000 ) ) ;
#683 = EDGE_LOOP ( 'NONE', ( #1114 ) ) ;
#684 = AXIS2_PLACEMENT_3D ( 'NONE', #656, #834, #651 ) ;
#685 = PLANE ( 'NONE',  #239 ) ;
#686 = ORIENTED_EDGE ( 'NONE', *, *, #993, .T. ) ;
#687 = LINE ( 'NONE', #1113, #128 ) ;
#688 = LINE ( 'NONE', #602, #373 ) ;
#689 = ORIENTED_EDGE ( 'NONE', *, *, #1141, .T. ) ;
#690 = DIRECTION ( 'NONE',  ( 0.000000000000000000, -0.000000000000000000, 1.000000000000000000 ) ) ;
#691 = EDGE_LOOP ( 'NONE', ( #855 ) ) ;
#692 = DIRECTION ( 'NONE',  ( 1.000000000000000000, 0.000000000000000000, 0.000000000000000000 ) ) ;
#693 = PLANE ( 'NONE',  #421 ) ;
#694 = ADVANCED_FACE ( 'NONE', ( #1022, #1056 ), #236, .T. ) ;
#695 = ORIENTED_EDGE ( 'NONE', *, *, #874, .F. ) ;
#696 = EDGE_CURVE ( 'NONE', #724, #196, #607, .T. ) ;
#697 = CARTESIAN_POINT ( 'NONE',  ( 2.999999999999999112, 4.000000000000000000, 10.00000000000000000 ) ) ;
#698 = EDGE_LOOP ( 'NONE', ( #760, #587, #52, #941, #860, #1007, #653, #409 ) ) ;
#699 = CARTESIAN_POINT ( 'NONE',  ( -11.00000000000000000, -36.06102834535694512, 31.00000000000001066 ) ) ;
#700 = DIRECTION ( 'NONE',  ( 0.000000000000000000, -0.000000000000000000, 1.000000000000000000 ) ) ;
#701 = CIRCLE ( 'NONE', #237, 1.000000000000000000 ) ;
#702 = ORIENTED_EDGE ( 'NONE', *, *, #375, .T. ) ;
#703 = AXIS2_PLACEMENT_3D ( 'NONE', #1024, #826, #120 ) ;
#704 = VECTOR ( 'NONE', #1032, 1000.000000000000000 ) ;
#705 = CARTESIAN_POINT ( 'NONE',  ( -11.00000000000000000, 13.50000000000000355, 28.00000000000001066 ) ) ;
#706 = ORIENTED_EDGE ( 'NONE', *, *, #1041, .T. ) ;
#707 = CARTESIAN_POINT ( 'NONE',  ( 3.500000000000000000, 0.000000000000000000, 11.00000000000000000 ) ) ;
#708 = FACE_OUTER_BOUND ( 'NONE', #398, .T. ) ;
#709 = ORIENTED_EDGE ( 'NONE', *, *, #576, .T. ) ;
#710 = FACE_OUTER_BOUND ( 'NONE', #853, .T. ) ;
#711 = DIRECTION ( 'NONE',  ( -0.000000000000000000, 1.000000000000000000, -0.000000000000000000 ) ) ;
#712 = CARTESIAN_POINT ( 'NONE',  ( -9.000000000000000000, -36.06102834535694512, 33.00000000000000711 ) ) ;
#713 = EDGE_LOOP ( 'NONE', ( #865, #807 ) ) ;
#714 = FACE_BOUND ( 'NONE', #477, .T. ) ;
#715 = CARTESIAN_POINT ( 'NONE',  ( -9.000000000000000000, -36.06102834535694512, 33.00000000000000711 ) ) ;
#716 = LINE ( 'NONE', #883, #753 ) ;
#717 = EDGE_CURVE ( 'NONE', #161, #1134, #503, .T. ) ;
#718 = CARTESIAN_POINT ( 'NONE',  ( 4.000000000000000000, -3.000000000000000000, 6.000000000000000000 ) ) ;
#719 = CARTESIAN_POINT ( 'NONE',  ( 0.000000000000000000, 0.000000000000000000, 13.00000000000000000 ) ) ;
#720 = AXIS2_PLACEMENT_3D ( 'NONE', #162, #678, #78 ) ;
#721 = CARTESIAN_POINT ( 'NONE',  ( -3.000000000000000000, -4.000000000000000000, 10.00000000000000000 ) ) ;
#722 = VERTEX_POINT ( 'NONE', #537 ) ;
#723 = PRESENTATION_STYLE_ASSIGNMENT (( #446 ) ) ;
#724 = VERTEX_POINT ( 'NONE', #718 ) ;
#725 = CARTESIAN_POINT ( 'NONE',  ( 0.000000000000000000, 0.000000000000000000, 13.00000000000000000 ) ) ;
#726 = DIRECTION ( 'NONE',  ( 1.000000000000000000, 0.000000000000000000, 0.000000000000000000 ) ) ;
#727 = VERTEX_POINT ( 'NONE', #1086 ) ;
#728 = FACE_BOUND ( 'NONE', #431, .T. ) ;
#729 = EDGE_CURVE ( 'NONE', #368, #1088, #801, .T. ) ;
#730 = ORIENTED_EDGE ( 'NONE', *, *, #729, .F. ) ;
#731 = ADVANCED_FACE ( 'NONE', ( #818, #188 ), #274, .F. ) ;
#732 = EDGE_CURVE ( 'NONE', #1082, #595, #457, .T. ) ;
#733 = CARTESIAN_POINT ( 'NONE',  ( 0.000000000000000000, 0.000000000000000000, 10.00000000000000000 ) ) ;
#734 = DIRECTION ( 'NONE',  ( 0.000000000000000000, -0.000000000000000000, -1.000000000000000000 ) ) ;
#735 = EDGE_LOOP ( 'NONE', ( #598 ) ) ;
#736 = AXIS2_PLACEMENT_3D ( 'NONE', #680, #771, #154 ) ;
#737 = DIRECTION ( 'NONE',  ( 1.000000000000000000, 0.000000000000000000, 0.000000000000000000 ) ) ;
#738 = CIRCLE ( 'NONE', #143, 3.500000000000000000 ) ;
#739 = AXIS2_PLACEMENT_3D ( 'NONE', #841, #1102, #740 ) ;
#740 = DIRECTION ( 'NONE',  ( 1.000000000000000000, 0.000000000000000000, 0.000000000000000000 ) ) ;
#741 = CIRCLE ( 'NONE', #468, 4.999999999999999112 ) ;
#742 = ORIENTED_EDGE ( 'NONE', *, *, #1028, .T. ) ;
#743 = EDGE_LOOP ( 'NONE', ( #695 ) ) ;
#744 = CARTESIAN_POINT ( 'NONE',  ( 9.000000000000000000, -36.06102834535694512, 33.00000000000000711 ) ) ;
#745 = ADVANCED_FACE ( 'NONE', ( #984 ), #286, .T. ) ;
#746 = EDGE_CURVE ( 'NONE', #884, #581, #381, .T. ) ;
#747 =( NAMED_UNIT ( * ) PLANE_ANGLE_UNIT ( ) SI_UNIT ( $, .RADIAN. ) );
#748 = FACE_OUTER_BOUND ( 'NONE', #89, .T. ) ;
#749 =( NAMED_UNIT ( * ) SI_UNIT ( $, .STERADIAN. ) SOLID_ANGLE_UNIT ( ) );
#750 = ADVANCED_FACE ( 'NONE', ( #728, #554 ), #18, .F. ) ;
#751 = ORIENTED_EDGE ( 'NONE', *, *, #959, .T. ) ;
#752 = DIRECTION ( 'NONE',  ( 1.000000000000000000, 0.000000000000000000, -0.000000000000000000 ) ) ;
#753 = VECTOR ( 'NONE', #546, 1000.000000000000000 ) ;
#754 =( LENGTH_UNIT ( ) NAMED_UNIT ( * ) SI_UNIT ( .MILLI., .METRE. ) );
#755 = CIRCLE ( 'NONE', #482, 1.000000000000000000 ) ;
#756 = AXIS2_PLACEMENT_3D ( 'NONE', #251, #343, #700 ) ;
#757 = ADVANCED_FACE ( 'NONE', ( #912 ), #1076, .T. ) ;
#758 = ORIENTED_EDGE ( 'NONE', *, *, #427, .T. ) ;
#759 = DIRECTION ( 'NONE',  ( -0.000000000000000000, 0.000000000000000000, -1.000000000000000000 ) ) ;
#760 = ORIENTED_EDGE ( 'NONE', *, *, #921, .F. ) ;
#761 = DIRECTION ( 'NONE',  ( 1.000000000000000000, 0.000000000000000000, 0.000000000000000000 ) ) ;
#762 = ORIENTED_EDGE ( 'NONE', *, *, #763, .T. ) ;
#763 = EDGE_CURVE ( 'NONE', #724, #523, #466, .T. ) ;
#764 = CARTESIAN_POINT ( 'NONE',  ( 0.000000000000000000, 0.000000000000000000, 4.000000000000000000 ) ) ;
#765 = ORIENTED_EDGE ( 'NONE', *, *, #171, .T. ) ;
#766 = DIRECTION ( 'NONE',  ( -0.000000000000000000, -0.000000000000000000, -1.000000000000000000 ) ) ;
#767 = CARTESIAN_POINT ( 'NONE',  ( 11.00000000000000000, 13.50000000000000355, 31.00000000000001066 ) ) ;
#768 = EDGE_LOOP ( 'NONE', ( #583, #1127, #842, #848 ) ) ;
#769 = DIRECTION ( 'NONE',  ( 0.000000000000000000, 0.000000000000000000, 1.000000000000000000 ) ) ;
#770 = EDGE_LOOP ( 'NONE', ( #702 ) ) ;
#771 = DIRECTION ( 'NONE',  ( 0.000000000000000000, 0.000000000000000000, -1.000000000000000000 ) ) ;
#772 = CIRCLE ( 'NONE', #922, 2.500000000000000000 ) ;
#773 = DIRECTION ( 'NONE',  ( -0.000000000000000000, -0.000000000000000000, -1.000000000000000000 ) ) ;
#774 = AXIS2_PLACEMENT_3D ( 'NONE', #539, #896, #1000 ) ;
#775 = ORIENTED_EDGE ( 'NONE', *, *, #302, .F. ) ;
#776 = AXIS2_PLACEMENT_3D ( 'NONE', #929, #752, #473 ) ;
#777 = CARTESIAN_POINT ( 'NONE',  ( -16.00000000000000000, 13.50000000000000355, 23.00000000000000000 ) ) ;
#778 = ADVANCED_FACE ( 'NONE', ( #1087, #292 ), #643, .F. ) ;
#779 = ORIENTED_EDGE ( 'NONE', *, *, #934, .F. ) ;
#780 = FACE_OUTER_BOUND ( 'NONE', #213, .T. ) ;
#781 = EDGE_CURVE ( 'NONE', #1059, #347, #471, .T. ) ;
#782 = ADVANCED_FACE ( 'NONE', ( #708 ), #811, .F. ) ;
#783 = DIRECTION ( 'NONE',  ( -0.000000000000000000, -0.000000000000000000, -1.000000000000000000 ) ) ;
#784 = DIRECTION ( 'NONE',  ( 0.000000000000000000, -1.000000000000000000, 0.000000000000000000 ) ) ;
#785 = EDGE_LOOP ( 'NONE', ( #779 ) ) ;
#786 = CARTESIAN_POINT ( 'NONE',  ( -16.00000000000000000, 13.50000000000000355, 33.00000000000000000 ) ) ;
#787 = MANIFOLD_SOLID_BREP ( 'Boss-Extrude4', #26 ) ;
#788 = CARTESIAN_POINT ( 'NONE',  ( 3.999999999999995559, -3.000000000000003997, 10.00000000000000000 ) ) ;
#789 = ORIENTED_EDGE ( 'NONE', *, *, #81, .F. ) ;
#790 = DIRECTION ( 'NONE',  ( -1.000000000000000000, 0.000000000000000000, -1.734723475976807094E-15 ) ) ;
#791 = ORIENTED_EDGE ( 'NONE', *, *, #1138, .T. ) ;
#792 = VERTEX_POINT ( 'NONE', #194 ) ;
#793 = DIRECTION ( 'NONE',  ( 0.000000000000000000, 0.000000000000000000, -1.000000000000000000 ) ) ;
#794 =( GEOMETRIC_REPRESENTATION_CONTEXT ( 3 ) GLOBAL_UNCERTAINTY_ASSIGNED_CONTEXT ( ( #137 ) ) GLOBAL_UNIT_ASSIGNED_CONTEXT ( ( #878, #3, #474 ) ) REPRESENTATION_CONTEXT ( 'NONE', 'WORKASPACE' ) );
#795 = ORIENTED_EDGE ( 'NONE', *, *, #542, .T. ) ;
#796 = EDGE_CURVE ( 'NONE', #285, #285, #223, .T. ) ;
#797 = CIRCLE ( 'NONE', #1094, 1.500000000000000000 ) ;
#798 = CARTESIAN_POINT ( 'NONE',  ( 0.000000000000000000, 0.000000000000000000, 0.000000000000000000 ) ) ;
#799 = CARTESIAN_POINT ( 'NONE',  ( 16.00000000000000000, 13.50000000000000355, 33.00000000000000000 ) ) ;
#800 = CARTESIAN_POINT ( 'NONE',  ( 3.500000000000000000, 0.000000000000000000, 6.000000000000000000 ) ) ;
#801 = LINE ( 'NONE', #200, #967 ) ;
#802 = ORIENTED_EDGE ( 'NONE', *, *, #959, .F. ) ;
#803 = CARTESIAN_POINT ( 'NONE',  ( -4.000000000000000000, -4.000000000000000000, 6.000000000000000000 ) ) ;
#804 = CARTESIAN_POINT ( 'NONE',  ( 0.000000000000000000, 0.000000000000000000, 23.00000000000000000 ) ) ;
#805 = DIRECTION ( 'NONE',  ( 1.000000000000000000, 0.000000000000000000, 0.000000000000000000 ) ) ;
#806 = DIRECTION ( 'NONE',  ( -0.000000000000000000, 1.000000000000000000, -0.000000000000000000 ) ) ;
#807 = ORIENTED_EDGE ( 'NONE', *, *, #1051, .T. ) ;
#808 = LINE ( 'NONE', #705, #1093 ) ;
#809 = DIRECTION ( 'NONE',  ( -0.000000000000000000, 0.000000000000000000, 1.000000000000000000 ) ) ;
#810 = CARTESIAN_POINT ( 'NONE',  ( 2.500000000000000000, 0.000000000000000000, 15.00000000000000000 ) ) ;
#811 = PLANE ( 'NONE',  #25 ) ;
#812 = EDGE_LOOP ( 'NONE', ( #74, #345 ) ) ;
#813 = CARTESIAN_POINT ( 'NONE',  ( -4.000000000000001776, 4.000000000000000000, 6.000000000000000000 ) ) ;
#814 = VECTOR ( 'NONE', #648, 1000.000000000000000 ) ;
#815 = CIRCLE ( 'NONE', #1063, 1.000000000000000000 ) ;
#816 = DIRECTION ( 'NONE',  ( 0.000000000000000000, 0.000000000000000000, 1.000000000000000000 ) ) ;
#817 = VERTEX_POINT ( 'NONE', #29 ) ;
#818 = FACE_BOUND ( 'NONE', #318, .T. ) ;
#819 = EDGE_CURVE ( 'NONE', #533, #196, #908, .T. ) ;
#820 = EDGE_CURVE ( 'NONE', #48, #905, #671, .T. ) ;
#821 = ORIENTED_EDGE ( 'NONE', *, *, #578, .F. ) ;
#822 = ORIENTED_EDGE ( 'NONE', *, *, #1104, .T. ) ;
#823 = FACE_OUTER_BOUND ( 'NONE', #338, .T. ) ;
#824 = CARTESIAN_POINT ( 'NONE',  ( -4.000000000000001776, 3.000000000000000000, 6.000000000000000000 ) ) ;
#825 = ORIENTED_EDGE ( 'NONE', *, *, #82, .F. ) ;
#826 = DIRECTION ( 'NONE',  ( -0.000000000000000000, 0.000000000000000000, 1.000000000000000000 ) ) ;
#827 = DIRECTION ( 'NONE',  ( 1.000000000000000000, 0.000000000000000000, 0.000000000000000000 ) ) ;
#828 = EDGE_LOOP ( 'NONE', ( #973 ) ) ;
#829 = ORIENTED_EDGE ( 'NONE', *, *, #874, .T. ) ;
#830 = AXIS2_PLACEMENT_3D ( 'NONE', #951, #773, #529 ) ;
#831 = PLANE ( 'NONE',  #776 ) ;
#832 = AXIS2_PLACEMENT_3D ( 'NONE', #69, #1124, #692 ) ;
#833 = COLOUR_RGB ( '',0.7921568627450980005, 0.8196078431372548767, 0.9333333333333333481 ) ;
#834 = DIRECTION ( 'NONE',  ( 0.000000000000000000, 1.000000000000000000, 0.000000000000000000 ) ) ;
#835 = PRODUCT_DEFINITION_CONTEXT ( 'detailed design', #840, 'design' ) ;
#836 = VERTEX_POINT ( 'NONE', #824 ) ;
#837 = DIRECTION ( 'NONE',  ( -1.000000000000000000, -1.084202172485504434E-16, 0.000000000000000000 ) ) ;
#838 = CARTESIAN_POINT ( 'NONE',  ( 0.000000000000000000, 0.000000000000000000, 0.000000000000000000 ) ) ;
#839 = EDGE_CURVE ( 'NONE', #425, #252, #58, .T. ) ;
#840 = APPLICATION_CONTEXT ( 'automotive_design' ) ;
#841 = CARTESIAN_POINT ( 'NONE',  ( 0.000000000000000000, 0.000000000000000000, 10.00000000000000000 ) ) ;
#842 = ORIENTED_EDGE ( 'NONE', *, *, #717, .T. ) ;
#843 = DIRECTION ( 'NONE',  ( -0.000000000000000000, 1.000000000000000000, -0.000000000000000000 ) ) ;
#844 = CARTESIAN_POINT ( 'NONE',  ( 2.999999999999999112, 4.000000000000000000, 10.00000000000000000 ) ) ;
#845 = ORIENTED_EDGE ( 'NONE', *, *, #134, .F. ) ;
#846 = CARTESIAN_POINT ( 'NONE',  ( 0.000000000000000000, 0.000000000000000000, 13.00000000000000000 ) ) ;
#847 = CIRCLE ( 'NONE', #1006, 4.999999999999999112 ) ;
#848 = ORIENTED_EDGE ( 'NONE', *, *, #116, .F. ) ;
#849 = LINE ( 'NONE', #60, #480 ) ;
#850 = VECTOR ( 'NONE', #90, 1000.000000000000000 ) ;
#851 = CIRCLE ( 'NONE', #1009, 3.500000000000000000 ) ;
#852 = EDGE_CURVE ( 'NONE', #425, #533, #40, .T. ) ;
#853 = EDGE_LOOP ( 'NONE', ( #491 ) ) ;
#854 = DIRECTION ( 'NONE',  ( 1.000000000000000000, 0.000000000000000000, 0.000000000000000000 ) ) ;
#855 = ORIENTED_EDGE ( 'NONE', *, *, #33, .F. ) ;
#856 = CARTESIAN_POINT ( 'NONE',  ( 4.000000000000000000, -3.000000000000000000, 10.00000000000000000 ) ) ;
#857 = DIRECTION ( 'NONE',  ( -1.000000000000000000, 0.000000000000000000, 0.000000000000000000 ) ) ;
#858 = EDGE_LOOP ( 'NONE', ( #1039, #1057, #407, #326 ) ) ;
#859 = CYLINDRICAL_SURFACE ( 'NONE', #207, 1.000000000000000000 ) ;
#860 = ORIENTED_EDGE ( 'NONE', *, *, #427, .F. ) ;
#861 = CARTESIAN_POINT ( 'NONE',  ( 0.000000000000000000, 0.000000000000000000, 10.00000000000000000 ) ) ;
#862 = DIRECTION ( 'NONE',  ( 0.000000000000000000, 0.000000000000000000, 1.000000000000000000 ) ) ;
#863 = EDGE_LOOP ( 'NONE', ( #293 ) ) ;
#864 = DIRECTION ( 'NONE',  ( 1.000000000000000000, -0.000000000000000000, 1.734723475976807094E-15 ) ) ;
#865 = ORIENTED_EDGE ( 'NONE', *, *, #839, .T. ) ;
#866 = LINE ( 'NONE', #426, #109 ) ;
#867 = CIRCLE ( 'NONE', #313, 3.500000000000000000 ) ;
#868 = CARTESIAN_POINT ( 'NONE',  ( 16.00000000000000000, -13.49999999999999822, 23.00000000000000000 ) ) ;
#869 = AXIS2_PLACEMENT_3D ( 'NONE', #323, #766, #676 ) ;
#870 = EDGE_CURVE ( 'NONE', #679, #158, #400, .T. ) ;
#871 = LINE ( 'NONE', #512, #464 ) ;
#872 = DIRECTION ( 'NONE',  ( 0.000000000000000000, 0.000000000000000000, 1.000000000000000000 ) ) ;
#873 = CARTESIAN_POINT ( 'NONE',  ( 2.999999999999999112, 3.000000000000000000, 10.00000000000000000 ) ) ;
#874 = EDGE_CURVE ( 'NONE', #638, #638, #851, .T. ) ;
#875 = DIRECTION ( 'NONE',  ( -1.000000000000000000, 0.000000000000000000, -0.000000000000000000 ) ) ;
#876 = FACE_OUTER_BOUND ( 'NONE', #190, .T. ) ;
#877 = ORIENTED_EDGE ( 'NONE', *, *, #669, .T. ) ;
#878 =( LENGTH_UNIT ( ) NAMED_UNIT ( * ) SI_UNIT ( .MILLI., .METRE. ) );
#879 = FACE_OUTER_BOUND ( 'NONE', #644, .T. ) ;
#880 = EDGE_LOOP ( 'NONE', ( #118 ) ) ;
#881 = PLANE ( 'NONE',  #558 ) ;
#882 = DIRECTION ( 'NONE',  ( -0.000000000000000000, 1.000000000000000000, -0.000000000000000000 ) ) ;
#883 = CARTESIAN_POINT ( 'NONE',  ( -4.000000000000000000, -4.000000000000000000, 10.00000000000000000 ) ) ;
#884 = VERTEX_POINT ( 'NONE', #486 ) ;
#885 = CIRCLE ( 'NONE', #389, 2.500000000000000000 ) ;
#886 = VECTOR ( 'NONE', #467, 1000.000000000000000 ) ;
#887 = DIRECTION ( 'NONE',  ( -0.000000000000000000, 0.000000000000000000, 1.000000000000000000 ) ) ;
#888 = AXIS2_PLACEMENT_3D ( 'NONE', #624, #1004, #726 ) ;
#889 = DIRECTION ( 'NONE',  ( -0.000000000000000000, 0.000000000000000000, 1.000000000000000000 ) ) ;
#890 = VERTEX_POINT ( 'NONE', #463 ) ;
#891 = DIRECTION ( 'NONE',  ( 1.000000000000000000, 0.000000000000000000, 0.000000000000000000 ) ) ;
#892 = ORIENTED_EDGE ( 'NONE', *, *, #1138, .F. ) ;
#893 = CARTESIAN_POINT ( 'NONE',  ( -16.00000000000000000, -13.49999999999999822, 23.00000000000000000 ) ) ;
#894 = DIRECTION ( 'NONE',  ( 1.000000000000000000, 1.776356839400250465E-15, 0.000000000000000000 ) ) ;
#895 = VERTEX_POINT ( 'NONE', #103 ) ;
#896 = DIRECTION ( 'NONE',  ( 0.000000000000000000, 0.000000000000000000, 1.000000000000000000 ) ) ;
#897 = EDGE_LOOP ( 'NONE', ( #340, #382, #1037, #126 ) ) ;
#898 = CARTESIAN_POINT ( 'NONE',  ( 0.000000000000000000, 0.000000000000000000, 2.000000000000000000 ) ) ;
#899 = LINE ( 'NONE', #536, #392 ) ;
#900 = LINE ( 'NONE', #991, #312 ) ;
#901 = ADVANCED_FACE ( 'NONE', ( #303, #34 ), #659, .F. ) ;
#902 = CARTESIAN_POINT ( 'NONE',  ( 3.000000000000000000, -3.000000000000000000, 6.000000000000000000 ) ) ;
#903 = ADVANCED_FACE ( 'NONE', ( #481 ), #1012, .F. ) ;
#904 = AXIS2_PLACEMENT_3D ( 'NONE', #1040, #502, #244 ) ;
#905 = VERTEX_POINT ( 'NONE', #1098 ) ;
#906 = ORIENTED_EDGE ( 'NONE', *, *, #961, .F. ) ;
#907 = VECTOR ( 'NONE', #962, 1000.000000000000000 ) ;
#908 = CIRCLE ( 'NONE', #538, 1.000000000000000000 ) ;
#909 = ADVANCED_FACE ( 'NONE', ( #569 ), #384, .F. ) ;
#910 = CARTESIAN_POINT ( 'NONE',  ( -11.00000000000000000, -36.06102834535694512, 28.00000000000001066 ) ) ;
#911 = CIRCLE ( 'NONE', #946, 3.500000000000000000 ) ;
#912 = FACE_OUTER_BOUND ( 'NONE', #987, .T. ) ;
#913 = ORIENTED_EDGE ( 'NONE', *, *, #781, .F. ) ;
#914 = CARTESIAN_POINT ( 'NONE',  ( 3.999999999999999112, 4.000000000000000000, 10.00000000000000000 ) ) ;
#915 = LINE ( 'NONE', #476, #650 ) ;
#916 = ORIENTED_EDGE ( 'NONE', *, *, #576, .F. ) ;
#917 = EDGE_LOOP ( 'NONE', ( #548, #1092, #404, #1033 ) ) ;
#918 = DIRECTION ( 'NONE',  ( -1.000000000000000000, 0.000000000000000000, 0.000000000000000000 ) ) ;
#919 = CARTESIAN_POINT ( 'NONE',  ( 0.000000000000000000, 0.000000000000000000, 10.00000000000000000 ) ) ;
#920 = EDGE_LOOP ( 'NONE', ( #497, #242 ) ) ;
#921 = EDGE_CURVE ( 'NONE', #627, #363, #6, .T. ) ;
#922 = AXIS2_PLACEMENT_3D ( 'NONE', #1126, #169, #509 ) ;
#923 = LINE ( 'NONE', #294, #814 ) ;
#924 = PRESENTATION_LAYER_ASSIGNMENT (  '', '', ( #944 ) ) ;
#925 = AXIS2_PLACEMENT_3D ( 'NONE', #454, #809, #370 ) ;
#926 = CARTESIAN_POINT ( 'NONE',  ( -11.00000000000000000, 13.50000000000000355, 28.00000000000001066 ) ) ;
#927 = AXIS2_PLACEMENT_3D ( 'NONE', #1071, #32, #1066 ) ;
#928 = EDGE_LOOP ( 'NONE', ( #1091 ) ) ;
#929 = CARTESIAN_POINT ( 'NONE',  ( 11.00000000000000000, -36.06102834535694512, 28.00000000000001066 ) ) ;
#930 = DIRECTION ( 'NONE',  ( 1.000000000000000000, 0.000000000000000000, 0.000000000000000000 ) ) ;
#931 = ORIENTED_EDGE ( 'NONE', *, *, #1065, .T. ) ;
#932 = CARTESIAN_POINT ( 'NONE',  ( 9.000000000000000000, 13.50000000000000355, 31.00000000000000711 ) ) ;
#933 = EDGE_CURVE ( 'NONE', #201, #836, #915, .T. ) ;
#934 = EDGE_CURVE ( 'NONE', #890, #890, #797, .T. ) ;
#935 = ADVANCED_FACE ( 'NONE', ( #572, #47 ), #391, .F. ) ;
#936 = VERTEX_POINT ( 'NONE', #926 ) ;
#937 = DIRECTION ( 'NONE',  ( 0.000000000000000000, 0.000000000000000000, -1.000000000000000000 ) ) ;
#938 = EDGE_LOOP ( 'NONE', ( #79, #540, #1052, #13 ) ) ;
#939 = CARTESIAN_POINT ( 'NONE',  ( 11.00000000000000000, -7.500000000000000000, 28.00000000000001066 ) ) ;
#940 = VECTOR ( 'NONE', #450, 1000.000000000000000 ) ;
#941 = ORIENTED_EDGE ( 'NONE', *, *, #50, .F. ) ;
#942 = CARTESIAN_POINT ( 'NONE',  ( -11.00000000000000000, 13.50000000000000355, 31.00000000000001066 ) ) ;
#943 = AXIS2_PLACEMENT_3D ( 'NONE', #798, #989, #100 ) ;
#944 = STYLED_ITEM ( 'NONE', ( #723 ), #787 ) ;
#945 = CARTESIAN_POINT ( 'NONE',  ( 3.999999999999999112, 4.000000000000000000, 6.000000000000000000 ) ) ;
#946 = AXIS2_PLACEMENT_3D ( 'NONE', #383, #816, #16 ) ;
#947 = ORIENTED_EDGE ( 'NONE', *, *, #746, .F. ) ;
#948 = CYLINDRICAL_SURFACE ( 'NONE', #1077, 4.999999999999999112 ) ;
#949 = EDGE_LOOP ( 'NONE', ( #742, #600 ) ) ;
#950 = FACE_OUTER_BOUND ( 'NONE', #949, .T. ) ;
#951 = CARTESIAN_POINT ( 'NONE',  ( 0.000000000000000000, 0.000000000000000000, 15.00000000000000000 ) ) ;
#952 = PRODUCT_DEFINITION ( 'UNKNOWN', '', #460, #835 ) ;
#953 = EDGE_CURVE ( 'NONE', #627, #724, #327, .T. ) ;
#954 = ORIENTED_EDGE ( 'NONE', *, *, #961, .T. ) ;
#955 = CARTESIAN_POINT ( 'NONE',  ( 16.00000000000000000, 13.50000000000000355, 33.00000000000000000 ) ) ;
#956 = EDGE_LOOP ( 'NONE', ( #94, #931, #513, #640 ) ) ;
#957 = CARTESIAN_POINT ( 'NONE',  ( -3.000000000000000000, -4.000000000000000000, 10.00000000000000000 ) ) ;
#958 = DIRECTION ( 'NONE',  ( -1.734723475976807094E-15, 0.000000000000000000, 1.000000000000000000 ) ) ;
#959 = EDGE_CURVE ( 'NONE', #817, #817, #187, .T. ) ;
#960 = ORIENTED_EDGE ( 'NONE', *, *, #999, .T. ) ;
#961 = EDGE_CURVE ( 'NONE', #1069, #48, #412, .T. ) ;
#962 = DIRECTION ( 'NONE',  ( -1.000000000000000000, -0.000000000000000000, -0.000000000000000000 ) ) ;
#963 = FACE_OUTER_BOUND ( 'NONE', #385, .T. ) ;
#964 = DIRECTION ( 'NONE',  ( -0.000000000000000000, -0.000000000000000000, -1.000000000000000000 ) ) ;
#965 = VECTOR ( 'NONE', #690, 1000.000000000000000 ) ;
#966 = CARTESIAN_POINT ( 'NONE',  ( -9.000000000000000000, 13.50000000000000355, 33.00000000000000711 ) ) ;
#967 = VECTOR ( 'NONE', #621, 1000.000000000000000 ) ;
#968 = ORIENTED_EDGE ( 'NONE', *, *, #696, .F. ) ;
#969 = CARTESIAN_POINT ( 'NONE',  ( -4.000000000000001776, 4.000000000000000000, 10.00000000000000000 ) ) ;
#970 = ORIENTED_EDGE ( 'NONE', *, *, #250, .F. ) ;
#971 = CARTESIAN_POINT ( 'NONE',  ( 9.000000000000000000, -7.500000000000000000, 33.00000000000000711 ) ) ;
#972 = FACE_OUTER_BOUND ( 'NONE', #956, .T. ) ;
#973 = ORIENTED_EDGE ( 'NONE', *, *, #565, .T. ) ;
#974 = DIRECTION ( 'NONE',  ( 0.000000000000000000, 0.000000000000000000, 1.000000000000000000 ) ) ;
#975 = CARTESIAN_POINT ( 'NONE',  ( 16.00000000000000000, 13.50000000000000355, 23.00000000000000000 ) ) ;
#976 = CARTESIAN_POINT ( 'NONE',  ( -3.000000000000001776, 4.000000000000000000, 10.00000000000000000 ) ) ;
#977 = EDGE_CURVE ( 'NONE', #304, #153, #1036, .T. ) ;
#978 = ADVANCED_FACE ( 'NONE', ( #1055, #780 ), #80, .T. ) ;
#979 = DIRECTION ( 'NONE',  ( 1.000000000000000000, 0.000000000000000000, -0.000000000000000000 ) ) ;
#980 = ORIENTED_EDGE ( 'NONE', *, *, #542, .F. ) ;
#981 = DIRECTION ( 'NONE',  ( 0.000000000000000000, 0.000000000000000000, -1.000000000000000000 ) ) ;
#982 = DIRECTION ( 'NONE',  ( -0.000000000000000000, 1.000000000000000000, -0.000000000000000000 ) ) ;
#983 = CARTESIAN_POINT ( 'NONE',  ( 8.500000000000000000, 0.000000000000000000, 23.00000000000000000 ) ) ;
#984 = FACE_OUTER_BOUND ( 'NONE', #1105, .T. ) ;
#985 = AXIS2_PLACEMENT_3D ( 'NONE', #699, #348, #615 ) ;
#986 = VECTOR ( 'NONE', #49, 1000.000000000000000 ) ;
#987 = EDGE_LOOP ( 'NONE', ( #234, #1099, #176, #493 ) ) ;
#988 = AXIS2_PLACEMENT_3D ( 'NONE', #902, #99, #114 ) ;
#989 = DIRECTION ( 'NONE',  ( 0.000000000000000000, 0.000000000000000000, -1.000000000000000000 ) ) ;
#990 = CARTESIAN_POINT ( 'NONE',  ( 3.000000000000000000, -3.000000000000000000, 10.00000000000000000 ) ) ;
#991 = CARTESIAN_POINT ( 'NONE',  ( -16.00000000000000000, 13.50000000000000355, 33.00000000000000000 ) ) ;
#992 = CARTESIAN_POINT ( 'NONE',  ( 0.000000000000000000, 0.000000000000000000, 0.000000000000000000 ) ) ;
#993 = EDGE_CURVE ( 'NONE', #905, #679, #687, .T. ) ;
#994 = EDGE_CURVE ( 'NONE', #936, #140, #1130, .T. ) ;
#995 = ADVANCED_FACE ( 'NONE', ( #235 ), #255, .T. ) ;
#996 = DIRECTION ( 'NONE',  ( 2.168404344971008868E-16, -1.000000000000000000, 0.000000000000000000 ) ) ;
#997 = DIRECTION ( 'NONE',  ( -0.000000000000000000, 1.000000000000000000, -0.000000000000000000 ) ) ;
#998 = CARTESIAN_POINT ( 'NONE',  ( -16.00000000000000000, -13.49999999999999822, 33.00000000000000000 ) ) ;
#999 = EDGE_CURVE ( 'NONE', #727, #727, #419, .T. ) ;
#1000 = DIRECTION ( 'NONE',  ( 1.000000000000000000, 0.000000000000000000, -0.000000000000000000 ) ) ;
#1001 = ORIENTED_EDGE ( 'NONE', *, *, #375, .F. ) ;
#1002 = ORIENTED_EDGE ( 'NONE', *, *, #977, .T. ) ;
#1003 = DIRECTION ( 'NONE',  ( -1.000000000000000000, -0.000000000000000000, -0.000000000000000000 ) ) ;
#1004 = DIRECTION ( 'NONE',  ( -0.000000000000000000, 0.000000000000000000, 1.000000000000000000 ) ) ;
#1005 = DIRECTION ( 'NONE',  ( 1.000000000000000000, 0.000000000000000000, 0.000000000000000000 ) ) ;
#1006 = AXIS2_PLACEMENT_3D ( 'NONE', #278, #444, #805 ) ;
#1007 = ORIENTED_EDGE ( 'NONE', *, *, #488, .F. ) ;
#1008 = AXIS2_PLACEMENT_3D ( 'NONE', #719, #1079, #283 ) ;
#1009 = AXIS2_PLACEMENT_3D ( 'NONE', #229, #584, #930 ) ;
#1010 = CARTESIAN_POINT ( 'NONE',  ( -3.000000000000001776, 3.000000000000000000, 10.00000000000000000 ) ) ;
#1011 = AXIS2_PLACEMENT_3D ( 'NONE', #335, #1054, #1048 ) ;
#1012 = PLANE ( 'NONE',  #739 ) ;
#1013 = ORIENTED_EDGE ( 'NONE', *, *, #852, .T. ) ;
#1014 = DIRECTION ( 'NONE',  ( 0.000000000000000000, 0.000000000000000000, -1.000000000000000000 ) ) ;
#1015 = DIRECTION ( 'NONE',  ( 1.000000000000000000, 0.000000000000000000, 0.000000000000000000 ) ) ;
#1016 = CARTESIAN_POINT ( 'NONE',  ( 0.000000000000000000, 0.000000000000000000, -2.000000000000000000 ) ) ;
#1017 = ORIENTED_EDGE ( 'NONE', *, *, #376, .T. ) ;
#1018 = LINE ( 'NONE', #582, #165 ) ;
#1019 = CARTESIAN_POINT ( 'NONE',  ( 0.000000000000000000, 0.000000000000000000, 10.00000000000000000 ) ) ;
#1020 = AXIS2_PLACEMENT_3D ( 'NONE', #873, #521, #1049 ) ;
#1021 = VERTEX_POINT ( 'NONE', #508 ) ;
#1022 = FACE_OUTER_BOUND ( 'NONE', #675, .T. ) ;
#1023 = CIRCLE ( 'NONE', #720, 4.999999999999999112 ) ;
#1024 = CARTESIAN_POINT ( 'NONE',  ( 0.000000000000000000, 0.000000000000000000, 33.00000000000000000 ) ) ;
#1025 = VECTOR ( 'NONE', #601, 1000.000000000000000 ) ;
#1026 = DIRECTION ( 'NONE',  ( 1.000000000000000000, 0.000000000000000000, 0.000000000000000000 ) ) ;
#1027 = EDGE_LOOP ( 'NONE', ( #802 ) ) ;
#1028 = EDGE_CURVE ( 'NONE', #138, #347, #219, .T. ) ;
#1029 = ADVANCED_FACE ( 'NONE', ( #950 ), #167, .T. ) ;
#1030 = DIRECTION ( 'NONE',  ( 0.000000000000000000, -1.000000000000000000, 0.000000000000000000 ) ) ;
#1031 = EDGE_LOOP ( 'NONE', ( #1132 ) ) ;
#1032 = DIRECTION ( 'NONE',  ( -0.000000000000000000, 1.000000000000000000, -0.000000000000000000 ) ) ;
#1033 = ORIENTED_EDGE ( 'NONE', *, *, #1090, .F. ) ;
#1034 = FACE_OUTER_BOUND ( 'NONE', #19, .T. ) ;
#1035 = ORIENTED_EDGE ( 'NONE', *, *, #934, .T. ) ;
#1036 = LINE ( 'NONE', #1060, #1125 ) ;
#1037 = ORIENTED_EDGE ( 'NONE', *, *, #233, .F. ) ;
#1038 = CARTESIAN_POINT ( 'NONE',  ( 0.000000000000000000, 0.000000000000000000, -4.142135623730947458 ) ) ;
#1039 = ORIENTED_EDGE ( 'NONE', *, *, #528, .T. ) ;
#1040 = CARTESIAN_POINT ( 'NONE',  ( 0.000000000000000000, 0.000000000000000000, 15.00000000000000000 ) ) ;
#1041 = EDGE_CURVE ( 'NONE', #153, #577, #866, .T. ) ;
#1042 = VECTOR ( 'NONE', #1003, 1000.000000000000000 ) ;
#1043 = VECTOR ( 'NONE', #827, 1000.000000000000000 ) ;
#1044 = PLANE ( 'NONE',  #756 ) ;
#1045 = VECTOR ( 'NONE', #882, 1000.000000000000000 ) ;
#1046 = ORIENTED_EDGE ( 'NONE', *, *, #259, .T. ) ;
#1047 = LINE ( 'NONE', #346, #261 ) ;
#1048 = DIRECTION ( 'NONE',  ( 0.000000000000000000, -0.000000000000000000, 1.000000000000000000 ) ) ;
#1049 = DIRECTION ( 'NONE',  ( 1.000000000000000000, 0.000000000000000000, 0.000000000000000000 ) ) ;
#1050 = CARTESIAN_POINT ( 'NONE',  ( 11.00000000000000000, -36.06102834535694512, 31.00000000000001066 ) ) ;
#1051 = EDGE_CURVE ( 'NONE', #252, #425, #495, .T. ) ;
#1052 = ORIENTED_EDGE ( 'NONE', *, *, #673, .T. ) ;
#1053 = CARTESIAN_POINT ( 'NONE',  ( 3.000000000000000000, -4.000000000000000000, 10.00000000000000000 ) ) ;
#1054 = DIRECTION ( 'NONE',  ( 0.000000000000000000, 1.000000000000000000, 0.000000000000000000 ) ) ;
#1055 = FACE_OUTER_BOUND ( 'NONE', #156, .T. ) ;
#1056 = FACE_OUTER_BOUND ( 'NONE', #683, .T. ) ;
#1057 = ORIENTED_EDGE ( 'NONE', *, *, #993, .F. ) ;
#1058 = DIRECTION ( 'NONE',  ( 0.000000000000000000, -0.000000000000000000, -1.000000000000000000 ) ) ;
#1059 = VERTEX_POINT ( 'NONE', #75 ) ;
#1060 = CARTESIAN_POINT ( 'NONE',  ( -11.00000000000000000, -7.500000000000000000, 31.00000000000001066 ) ) ;
#1061 = AXIS2_PLACEMENT_3D ( 'NONE', #1128, #784, #406 ) ;
#1062 = FACE_OUTER_BOUND ( 'NONE', #41, .T. ) ;
#1063 = AXIS2_PLACEMENT_3D ( 'NONE', #84, #437, #597 ) ;
#1064 = DIRECTION ( 'NONE',  ( -0.000000000000000000, 1.000000000000000000, -0.000000000000000000 ) ) ;
#1065 = EDGE_CURVE ( 'NONE', #138, #151, #249, .T. ) ;
#1066 = DIRECTION ( 'NONE',  ( 1.000000000000000000, 0.000000000000000000, 0.000000000000000000 ) ) ;
#1067 = PLANE ( 'NONE',  #1121 ) ;
#1068 = CARTESIAN_POINT ( 'NONE',  ( 9.000000000000000000, -36.06102834535694512, 31.00000000000000711 ) ) ;
#1069 = VERTEX_POINT ( 'NONE', #786 ) ;
#1070 = DIRECTION ( 'NONE',  ( 1.000000000000000000, 0.000000000000000000, -0.000000000000000000 ) ) ;
#1071 = CARTESIAN_POINT ( 'NONE',  ( 0.000000000000000000, 0.000000000000000000, 10.00000000000000000 ) ) ;
#1072 = FACE_OUTER_BOUND ( 'NONE', #917, .T. ) ;
#1073 = ORIENTED_EDGE ( 'NONE', *, *, #933, .T. ) ;
#1074 = DIRECTION ( 'NONE',  ( 1.000000000000000000, 0.000000000000000000, 0.000000000000000000 ) ) ;
#1075 = CARTESIAN_POINT ( 'NONE',  ( -9.000000000000000000, 13.50000000000000355, 33.00000000000000711 ) ) ;
#1076 = CYLINDRICAL_SURFACE ( 'NONE', #592, 1.000000000000000000 ) ;
#1077 = AXIS2_PLACEMENT_3D ( 'NONE', #1038, #1115, #599 ) ;
#1078 = ORIENTED_EDGE ( 'NONE', *, *, #661, .T. ) ;
#1079 = DIRECTION ( 'NONE',  ( 0.000000000000000000, 0.000000000000000000, 1.000000000000000000 ) ) ;
#1080 = LINE ( 'NONE', #284, #131 ) ;
#1081 = PLANE ( 'NONE',  #258 ) ;
#1082 = VERTEX_POINT ( 'NONE', #1135 ) ;
#1083 = ADVANCED_FACE ( 'NONE', ( #159 ), #341, .F. ) ;
#1084 = DIRECTION ( 'NONE',  ( 0.000000000000000000, 0.000000000000000000, 1.000000000000000000 ) ) ;
#1085 = CARTESIAN_POINT ( 'NONE',  ( 11.00000000000000000, -36.06102834535694512, 28.00000000000001066 ) ) ;
#1086 = CARTESIAN_POINT ( 'NONE',  ( 3.500000000000000000, 0.000000000000000000, 15.00000000000000000 ) ) ;
#1087 = FACE_BOUND ( 'NONE', #735, .T. ) ;
#1088 = VERTEX_POINT ( 'NONE', #971 ) ;
#1089 = PLANE ( 'NONE',  #73 ) ;
#1090 = EDGE_CURVE ( 'NONE', #595, #161, #849, .T. ) ;
#1091 = ORIENTED_EDGE ( 'NONE', *, *, #83, .T. ) ;
#1092 = ORIENTED_EDGE ( 'NONE', *, *, #551, .T. ) ;
#1093 = VECTOR ( 'NONE', #358, 1000.000000000000000 ) ;
#1094 = AXIS2_PLACEMENT_3D ( 'NONE', #1016, #396, #215 ) ;
#1095 = EDGE_CURVE ( 'NONE', #48, #603, #179, .T. ) ;
#1096 = PLANE ( 'NONE',  #296 ) ;
#1097 = SHAPE_DEFINITION_REPRESENTATION ( #397, #543 ) ;
#1098 = CARTESIAN_POINT ( 'NONE',  ( 16.00000000000000000, -13.49999999999999822, 33.00000000000000000 ) ) ;
#1099 = ORIENTED_EDGE ( 'NONE', *, *, #259, .F. ) ;
#1100 = FACE_OUTER_BOUND ( 'NONE', #920, .T. ) ;
#1101 = DIRECTION ( 'NONE',  ( 2.168404344971008868E-16, -1.000000000000000000, 0.000000000000000000 ) ) ;
#1102 = DIRECTION ( 'NONE',  ( -0.000000000000000000, 0.000000000000000000, 1.000000000000000000 ) ) ;
#1103 = ADVANCED_FACE ( 'NONE', ( #366 ), #1067, .F. ) ;
#1104 = EDGE_CURVE ( 'NONE', #1134, #1069, #900, .T. ) ;
#1105 = EDGE_LOOP ( 'NONE', ( #173, #561 ) ) ;
#1106 = CYLINDRICAL_SURFACE ( 'NONE', #590, 3.500000000000000000 ) ;
#1107 = VECTOR ( 'NONE', #367, 1000.000000000000000 ) ;
#1108 = PRODUCT ( 'P001-B119_BobbinDriveShaft-1', 'P001-B119_BobbinDriveShaft-1', '', ( #306 ) ) ;
#1109 = EDGE_CURVE ( 'NONE', #138, #363, #716, .T. ) ;
#1110 = ORIENTED_EDGE ( 'NONE', *, *, #977, .F. ) ;
#1111 = LINE ( 'NONE', #1053, #111 ) ;
#1112 = VERTEX_POINT ( 'NONE', #380 ) ;
#1113 = CARTESIAN_POINT ( 'NONE',  ( 16.00000000000000000, -13.49999999999999822, 33.00000000000000000 ) ) ;
#1114 = ORIENTED_EDGE ( 'NONE', *, *, #33, .T. ) ;
#1115 = DIRECTION ( 'NONE',  ( 0.000000000000000000, 0.000000000000000000, 1.000000000000000000 ) ) ;
#1116 = ORIENTED_EDGE ( 'NONE', *, *, #669, .F. ) ;
#1117 = DIRECTION ( 'NONE',  ( 0.000000000000000000, 0.000000000000000000, -1.000000000000000000 ) ) ;
#1118 = CARTESIAN_POINT ( 'NONE',  ( -9.000000000000000000, -7.500000000000000000, 31.00000000000000711 ) ) ;
#1119 = ORIENTED_EDGE ( 'NONE', *, *, #95, .T. ) ;
#1120 = DIRECTION ( 'NONE',  ( -0.000000000000000000, 0.000000000000000000, -1.000000000000000000 ) ) ;
#1121 = AXIS2_PLACEMENT_3D ( 'NONE', #712, #620, #532 ) ;
#1122 = VECTOR ( 'NONE', #506, 1000.000000000000000 ) ;
#1123 = ORIENTED_EDGE ( 'NONE', *, *, #54, .F. ) ;
#1124 = DIRECTION ( 'NONE',  ( 0.000000000000000000, 0.000000000000000000, 1.000000000000000000 ) ) ;
#1125 = VECTOR ( 'NONE', #147, 1000.000000000000000 ) ;
#1126 = CARTESIAN_POINT ( 'NONE',  ( 0.000000000000000000, 0.000000000000000000, 2.000000000000000000 ) ) ;
#1127 = ORIENTED_EDGE ( 'NONE', *, *, #1090, .T. ) ;
#1128 = CARTESIAN_POINT ( 'NONE',  ( -16.00000000000000000, 13.50000000000000355, 33.00000000000000000 ) ) ;
#1129 = EDGE_LOOP ( 'NONE', ( #706, #555, #170, #472 ) ) ;
#1130 = LINE ( 'NONE', #942, #1025 ) ;
#1131 = CARTESIAN_POINT ( 'NONE',  ( -16.00000000000000000, -13.49999999999999822, 23.00000000000000000 ) ) ;
#1132 = ORIENTED_EDGE ( 'NONE', *, *, #36, .F. ) ;
#1133 = CARTESIAN_POINT ( 'NONE',  ( -4.000000000000000000, -3.000000000000000888, 10.00000000000000000 ) ) ;
#1134 = VERTEX_POINT ( 'NONE', #1075 ) ;
#1135 = CARTESIAN_POINT ( 'NONE',  ( -9.000000000000000000, -7.499999999999998224, 33.00000000000000000 ) ) ;
#1136 = PLANE ( 'NONE',  #241 ) ;
#1137 = ADVANCED_FACE ( 'NONE', ( #1072 ), #1081, .F. ) ;
#1138 = EDGE_CURVE ( 'NONE', #151, #1059, #701, .T. ) ;
#1139 = EDGE_CURVE ( 'NONE', #363, #138, #847, .T. ) ;
#1140 = ORIENTED_EDGE ( 'NONE', *, *, #351, .F. ) ;
#1141 = EDGE_CURVE ( 'NONE', #654, #677, #174, .T. ) ;
ENDSEC;
END-ISO-10303-21;
