ISO-10303-21;
HEADER;
FILE_DESCRIPTION (( 'STEP AP214' ),
    '1' );
FILE_NAME ('P001-B122-Magnet Ring Bearing Adaptor_2.STEP',
    '2026-05-08T16:03:31',
    ( '' ),
    ( '' ),
    'SwSTEP 2.0',
    'SolidWorks 2026',
    '' );
FILE_SCHEMA (( 'AUTOMOTIVE_DESIGN' ));
ENDSEC;

DATA;
#1 = DIRECTION ( 'NONE',  ( 0.000000000000000000, 0.000000000000000000, 1.000000000000000000 ) ) ;
#2 = EDGE_CURVE ( 'NONE', #123, #22, #116, .T. ) ;
#3 = AXIS2_PLACEMENT_3D ( 'NONE', #127, #142, #170 ) ;
#4 = CARTESIAN_POINT ( 'NONE',  ( 0.000000000000000000, 1.899999999999999911, -3.950000000000000178 ) ) ;
#5 = EDGE_LOOP ( 'NONE', ( #24, #35, #150, #140 ) ) ;
#6 = DIRECTION ( 'NONE',  ( 0.000000000000000000, 0.000000000000000000, -1.000000000000000000 ) ) ;
#7 = EDGE_LOOP ( 'NONE', ( #167, #155 ) ) ;
#8 = AXIS2_PLACEMENT_3D ( 'NONE', #156, #104, #94 ) ;
#9 = DIRECTION ( 'NONE',  ( 0.000000000000000000, -0.000000000000000000, 1.000000000000000000 ) ) ;
#10 = ORIENTED_EDGE ( 'NONE', *, *, #125, .T. ) ;
#11 = ADVANCED_FACE ( 'NONE', ( #158 ), #56, .F. ) ;
#12 = CARTESIAN_POINT ( 'NONE',  ( 1.530808498934191324E-16, 1.899999999999999911, 1.250000000000000000 ) ) ;
#13 = DIRECTION ( 'NONE',  ( 0.000000000000000000, 0.000000000000000000, -1.000000000000000000 ) ) ;
#14 = LINE ( 'NONE', #197, #50 ) ;
#15 = AXIS2_PLACEMENT_3D ( 'NONE', #122, #27, #145 ) ;
#16 = DIRECTION ( 'NONE',  ( 0.000000000000000000, 0.000000000000000000, 1.000000000000000000 ) ) ;
#17 = EDGE_LOOP ( 'NONE', ( #102, #33, #68, #55 ) ) ;
#18 = PLANE ( 'NONE',  #157 ) ;
#19 = SURFACE_SIDE_STYLE ('',( #96 ) ) ;
#20 = DIRECTION ( 'NONE',  ( 0.000000000000000000, 1.000000000000000000, 0.000000000000000000 ) ) ;
#21 = ORIENTED_EDGE ( 'NONE', *, *, #125, .F. ) ;
#22 = VERTEX_POINT ( 'NONE', #59 ) ;
#23 = DIRECTION ( 'NONE',  ( 0.000000000000000000, 1.000000000000000000, 0.000000000000000000 ) ) ;
#24 = ORIENTED_EDGE ( 'NONE', *, *, #108, .T. ) ;
#25 = ADVANCED_FACE ( 'NONE', ( #80, #176 ), #18, .F. ) ;
#26 = EDGE_LOOP ( 'NONE', ( #70, #194 ) ) ;
#27 = DIRECTION ( 'NONE',  ( 0.000000000000000000, 0.000000000000000000, 1.000000000000000000 ) ) ;
#28 = CARTESIAN_POINT ( 'NONE',  ( 0.000000000000000000, 1.899999999999999911, 0.000000000000000000 ) ) ;
#29 = DIRECTION ( 'NONE',  ( -0.000000000000000000, -1.000000000000000000, -0.000000000000000000 ) ) ;
#30 = DIRECTION ( 'NONE',  ( 0.000000000000000000, 0.000000000000000000, -1.000000000000000000 ) ) ;
#31 = CYLINDRICAL_SURFACE ( 'NONE', #45, 1.250000000000000000 ) ;
#32 = DIRECTION ( 'NONE',  ( 0.000000000000000000, 0.000000000000000000, -1.000000000000000000 ) ) ;
#33 = ORIENTED_EDGE ( 'NONE', *, *, #196, .T. ) ;
#34 = ORIENTED_EDGE ( 'NONE', *, *, #196, .F. ) ;
#35 = ORIENTED_EDGE ( 'NONE', *, *, #178, .T. ) ;
#36 = CIRCLE ( 'NONE', #3, 1.250000000000000000 ) ;
#37 = APPLICATION_PROTOCOL_DEFINITION ( 'draft international standard', 'automotive_design', 1998, #112 ) ;
#38 = DIRECTION ( 'NONE',  ( -0.000000000000000000, -1.000000000000000000, -0.000000000000000000 ) ) ;
#39 = UNCERTAINTY_MEASURE_WITH_UNIT (LENGTH_MEASURE( 1.000000000000000082E-05 ), #84, 'distance_accuracy_value', 'NONE');
#40 =( NAMED_UNIT ( * ) SI_UNIT ( $, .STERADIAN. ) SOLID_ANGLE_UNIT ( ) );
#41 = AXIS2_PLACEMENT_3D ( 'NONE', #49, #99, #163 ) ;
#42 =( LENGTH_UNIT ( ) NAMED_UNIT ( * ) SI_UNIT ( .MILLI., .METRE. ) );
#43 = EDGE_CURVE ( 'NONE', #118, #166, #169, .T. ) ;
#44 = CARTESIAN_POINT ( 'NONE',  ( 0.000000000000000000, 0.000000000000000000, 0.000000000000000000 ) ) ;
#45 = AXIS2_PLACEMENT_3D ( 'NONE', #28, #198, #30 ) ;
#46 = DIRECTION ( 'NONE',  ( -0.000000000000000000, -1.000000000000000000, -0.000000000000000000 ) ) ;
#47 = CARTESIAN_POINT ( 'NONE',  ( 0.000000000000000000, 1.899999999999999911, 0.000000000000000000 ) ) ;
#48 = DIRECTION ( 'NONE',  ( 0.000000000000000000, -0.000000000000000000, 1.000000000000000000 ) ) ;
#49 = CARTESIAN_POINT ( 'NONE',  ( 0.000000000000000000, 0.000000000000000000, 0.000000000000000000 ) ) ;
#50 = VECTOR ( 'NONE', #76, 1000.000000000000000 ) ;
#51 = FACE_OUTER_BOUND ( 'NONE', #143, .T. ) ;
#52 = AXIS2_PLACEMENT_3D ( 'NONE', #182, #38, #13 ) ;
#53 = DIRECTION ( 'NONE',  ( 0.000000000000000000, 1.000000000000000000, 0.000000000000000000 ) ) ;
#54 = FACE_OUTER_BOUND ( 'NONE', #120, .T. ) ;
#55 = ORIENTED_EDGE ( 'NONE', *, *, #78, .F. ) ;
#56 = CYLINDRICAL_SURFACE ( 'NONE', #52, 1.250000000000000000 ) ;
#57 = CARTESIAN_POINT ( 'NONE',  ( 0.000000000000000000, 0.000000000000000000, 0.000000000000000000 ) ) ;
#58 = CARTESIAN_POINT ( 'NONE',  ( 0.000000000000000000, 1.899999999999999911, -3.950000000000000178 ) ) ;
#59 = CARTESIAN_POINT ( 'NONE',  ( 4.837354856632044071E-16, 0.000000000000000000, 3.950000000000000178 ) ) ;
#60 = AXIS2_PLACEMENT_3D ( 'NONE', #188, #46, #32 ) ;
#61 = ADVANCED_BREP_SHAPE_REPRESENTATION ( 'P001-B122-Magnet Ring Bearing Adaptor_2', ( #151, #15 ), #124 ) ;
#62 = CIRCLE ( 'NONE', #130, 1.250000000000000000 ) ;
#63 = EDGE_CURVE ( 'NONE', #165, #103, #133, .T. ) ;
#64 = CARTESIAN_POINT ( 'NONE',  ( 0.000000000000000000, 1.899999999999999911, 0.000000000000000000 ) ) ;
#65 =( NAMED_UNIT ( * ) SI_UNIT ( $, .STERADIAN. ) SOLID_ANGLE_UNIT ( ) );
#66 = MECHANICAL_DESIGN_GEOMETRIC_PRESENTATION_REPRESENTATION (  '', ( #110 ), #153 ) ;
#67 = EDGE_CURVE ( 'NONE', #103, #159, #147, .T. ) ;
#68 = ORIENTED_EDGE ( 'NONE', *, *, #63, .T. ) ;
#69 = AXIS2_PLACEMENT_3D ( 'NONE', #44, #20, #16 ) ;
#70 = ORIENTED_EDGE ( 'NONE', *, *, #2, .F. ) ;
#71 = LINE ( 'NONE', #107, #136 ) ;
#72 = ORIENTED_EDGE ( 'NONE', *, *, #2, .T. ) ;
#73 = FACE_OUTER_BOUND ( 'NONE', #17, .T. ) ;
#74 = UNCERTAINTY_MEASURE_WITH_UNIT (LENGTH_MEASURE( 1.000000000000000082E-05 ), #42, 'distance_accuracy_value', 'NONE');
#75 = FACE_OUTER_BOUND ( 'NONE', #164, .T. ) ;
#76 = DIRECTION ( 'NONE',  ( -0.000000000000000000, -1.000000000000000000, -0.000000000000000000 ) ) ;
#77 = COLOUR_RGB ( '',0.7921568627450980005, 0.8196078431372548767, 0.9333333333333333481 ) ;
#78 = EDGE_CURVE ( 'NONE', #159, #103, #105, .T. ) ;
#79 = CARTESIAN_POINT ( 'NONE',  ( 0.000000000000000000, 0.000000000000000000, -3.950000000000000178 ) ) ;
#80 = FACE_OUTER_BOUND ( 'NONE', #26, .T. ) ;
#81 = SURFACE_STYLE_USAGE ( .BOTH. , #19 ) ;
#82 = ORIENTED_EDGE ( 'NONE', *, *, #43, .T. ) ;
#83 = DIRECTION ( 'NONE',  ( 0.000000000000000000, 1.000000000000000000, 0.000000000000000000 ) ) ;
#84 =( LENGTH_UNIT ( ) NAMED_UNIT ( * ) SI_UNIT ( .MILLI., .METRE. ) );
#85 = LINE ( 'NONE', #4, #137 ) ;
#86 = EDGE_CURVE ( 'NONE', #118, #123, #85, .T. ) ;
#87 = PRESENTATION_LAYER_ASSIGNMENT (  '', '', ( #110 ) ) ;
#88 = DIRECTION ( 'NONE',  ( 0.000000000000000000, 0.000000000000000000, 1.000000000000000000 ) ) ;
#89 = PRODUCT_DEFINITION_CONTEXT ( 'detailed design', #112, 'design' ) ;
#90 = ORIENTED_EDGE ( 'NONE', *, *, #193, .T. ) ;
#91 = DIRECTION ( 'NONE',  ( 0.000000000000000000, 1.000000000000000000, 0.000000000000000000 ) ) ;
#92 = ORIENTED_EDGE ( 'NONE', *, *, #86, .F. ) ;
#93 = CLOSED_SHELL ( 'NONE', ( #11, #148, #100, #25, #141, #162 ) ) ;
#94 = DIRECTION ( 'NONE',  ( 0.000000000000000000, 0.000000000000000000, 1.000000000000000000 ) ) ;
#95 = DIRECTION ( 'NONE',  ( -0.000000000000000000, -1.000000000000000000, -0.000000000000000000 ) ) ;
#96 = SURFACE_STYLE_FILL_AREA ( #134 ) ;
#97 = EDGE_LOOP ( 'NONE', ( #106, #34 ) ) ;
#98 = VECTOR ( 'NONE', #135, 1000.000000000000000 ) ;
#99 = DIRECTION ( 'NONE',  ( 0.000000000000000000, 1.000000000000000000, 0.000000000000000000 ) ) ;
#100 = ADVANCED_FACE ( 'NONE', ( #51, #117 ), #111, .T. ) ;
#101 = ORIENTED_EDGE ( 'NONE', *, *, #86, .T. ) ;
#102 = ORIENTED_EDGE ( 'NONE', *, *, #178, .F. ) ;
#103 = VERTEX_POINT ( 'NONE', #181 ) ;
#104 = DIRECTION ( 'NONE',  ( 0.000000000000000000, 1.000000000000000000, 0.000000000000000000 ) ) ;
#105 = CIRCLE ( 'NONE', #41, 1.250000000000000000 ) ;
#106 = ORIENTED_EDGE ( 'NONE', *, *, #108, .F. ) ;
#107 = CARTESIAN_POINT ( 'NONE',  ( 1.530808498934191324E-16, 1.899999999999999911, 1.250000000000000000 ) ) ;
#108 = EDGE_CURVE ( 'NONE', #165, #180, #62, .T. ) ;
#109 = CARTESIAN_POINT ( 'NONE',  ( 0.000000000000000000, 1.899999999999999911, 0.000000000000000000 ) ) ;
#110 = STYLED_ITEM ( 'NONE', ( #161 ), #151 ) ;
#111 = PLANE ( 'NONE',  #186 ) ;
#112 = APPLICATION_CONTEXT ( 'automotive_design' ) ;
#113 =( NAMED_UNIT ( * ) PLANE_ANGLE_UNIT ( ) SI_UNIT ( $, .RADIAN. ) );
#114 = EDGE_CURVE ( 'NONE', #22, #123, #177, .T. ) ;
#115 = PRODUCT_RELATED_PRODUCT_CATEGORY ( 'part', '', ( #131 ) ) ;
#116 = CIRCLE ( 'NONE', #8, 3.950000000000000178 ) ;
#117 = FACE_BOUND ( 'NONE', #97, .T. ) ;
#118 = VERTEX_POINT ( 'NONE', #58 ) ;
#119 = CIRCLE ( 'NONE', #173, 3.950000000000000178 ) ;
#120 = EDGE_LOOP ( 'NONE', ( #179, #154, #101, #72 ) ) ;
#121 = CARTESIAN_POINT ( 'NONE',  ( 0.000000000000000000, 1.899999999999999911, 0.000000000000000000 ) ) ;
#122 = CARTESIAN_POINT ( 'NONE',  ( 0.000000000000000000, 0.000000000000000000, 0.000000000000000000 ) ) ;
#123 = VERTEX_POINT ( 'NONE', #79 ) ;
#124 =( GEOMETRIC_REPRESENTATION_CONTEXT ( 3 ) GLOBAL_UNCERTAINTY_ASSIGNED_CONTEXT ( ( #74 ) ) GLOBAL_UNIT_ASSIGNED_CONTEXT ( ( #42, #184, #40 ) ) REPRESENTATION_CONTEXT ( 'NONE', 'WORKASPACE' ) );
#125 = EDGE_CURVE ( 'NONE', #166, #118, #119, .T. ) ;
#126 = DIRECTION ( 'NONE',  ( 0.000000000000000000, 1.000000000000000000, 0.000000000000000000 ) ) ;
#127 = CARTESIAN_POINT ( 'NONE',  ( 0.000000000000000000, 1.899999999999999911, 0.000000000000000000 ) ) ;
#128 = CYLINDRICAL_SURFACE ( 'NONE', #144, 3.950000000000000178 ) ;
#129 = PRODUCT_CONTEXT ( 'NONE', #187, 'mechanical' ) ;
#130 = AXIS2_PLACEMENT_3D ( 'NONE', #121, #23, #139 ) ;
#131 = PRODUCT ( 'P001-B122-Magnet Ring Bearing Adaptor_2', 'P001-B122-Magnet Ring Bearing Adaptor_2', '', ( #129 ) ) ;
#132 = CYLINDRICAL_SURFACE ( 'NONE', #60, 3.950000000000000178 ) ;
#133 = LINE ( 'NONE', #190, #98 ) ;
#134 = FILL_AREA_STYLE ('',( #149 ) ) ;
#135 = DIRECTION ( 'NONE',  ( -0.000000000000000000, -1.000000000000000000, -0.000000000000000000 ) ) ;
#136 = VECTOR ( 'NONE', #95, 1000.000000000000000 ) ;
#137 = VECTOR ( 'NONE', #191, 1000.000000000000000 ) ;
#138 = ORIENTED_EDGE ( 'NONE', *, *, #114, .T. ) ;
#139 = DIRECTION ( 'NONE',  ( 0.000000000000000000, 0.000000000000000000, 1.000000000000000000 ) ) ;
#140 = ORIENTED_EDGE ( 'NONE', *, *, #63, .F. ) ;
#141 = ADVANCED_FACE ( 'NONE', ( #54 ), #132, .T. ) ;
#142 = DIRECTION ( 'NONE',  ( 0.000000000000000000, 1.000000000000000000, 0.000000000000000000 ) ) ;
#143 = EDGE_LOOP ( 'NONE', ( #82, #10 ) ) ;
#144 = AXIS2_PLACEMENT_3D ( 'NONE', #109, #29, #6 ) ;
#145 = DIRECTION ( 'NONE',  ( 1.000000000000000000, 0.000000000000000000, 0.000000000000000000 ) ) ;
#146 = APPLICATION_PROTOCOL_DEFINITION ( 'draft international standard', 'automotive_design', 1998, #187 ) ;
#147 = CIRCLE ( 'NONE', #69, 1.250000000000000000 ) ;
#148 = ADVANCED_FACE ( 'NONE', ( #75 ), #128, .T. ) ;
#149 = FILL_AREA_STYLE_COLOUR ( '', #77 ) ;
#150 = ORIENTED_EDGE ( 'NONE', *, *, #67, .F. ) ;
#151 = MANIFOLD_SOLID_BREP ( 'Boss-Extrude1', #93 ) ;
#152 = CARTESIAN_POINT ( 'NONE',  ( 0.000000000000000000, 0.000000000000000000, 0.000000000000000000 ) ) ;
#153 =( GEOMETRIC_REPRESENTATION_CONTEXT ( 3 ) GLOBAL_UNCERTAINTY_ASSIGNED_CONTEXT ( ( #39 ) ) GLOBAL_UNIT_ASSIGNED_CONTEXT ( ( #84, #113, #65 ) ) REPRESENTATION_CONTEXT ( 'NONE', 'WORKASPACE' ) );
#154 = ORIENTED_EDGE ( 'NONE', *, *, #43, .F. ) ;
#155 = ORIENTED_EDGE ( 'NONE', *, *, #78, .T. ) ;
#156 = CARTESIAN_POINT ( 'NONE',  ( 0.000000000000000000, 0.000000000000000000, 0.000000000000000000 ) ) ;
#157 = AXIS2_PLACEMENT_3D ( 'NONE', #152, #83, #48 ) ;
#158 = FACE_OUTER_BOUND ( 'NONE', #5, .T. ) ;
#159 = VERTEX_POINT ( 'NONE', #171 ) ;
#160 = CARTESIAN_POINT ( 'NONE',  ( 0.000000000000000000, 1.899999999999999911, -1.250000000000000000 ) ) ;
#161 = PRESENTATION_STYLE_ASSIGNMENT (( #81 ) ) ;
#162 = ADVANCED_FACE ( 'NONE', ( #73 ), #31, .F. ) ;
#163 = DIRECTION ( 'NONE',  ( 0.000000000000000000, 0.000000000000000000, 1.000000000000000000 ) ) ;
#164 = EDGE_LOOP ( 'NONE', ( #21, #90, #138, #92 ) ) ;
#165 = VERTEX_POINT ( 'NONE', #160 ) ;
#166 = VERTEX_POINT ( 'NONE', #185 ) ;
#167 = ORIENTED_EDGE ( 'NONE', *, *, #67, .T. ) ;
#168 = SHAPE_DEFINITION_REPRESENTATION ( #199, #61 ) ;
#169 = CIRCLE ( 'NONE', #192, 3.950000000000000178 ) ;
#170 = DIRECTION ( 'NONE',  ( 0.000000000000000000, 0.000000000000000000, 1.000000000000000000 ) ) ;
#171 = CARTESIAN_POINT ( 'NONE',  ( 1.530808498934191324E-16, 0.000000000000000000, 1.250000000000000000 ) ) ;
#172 = PRODUCT_DEFINITION ( 'UNKNOWN', '', #195, #89 ) ;
#173 = AXIS2_PLACEMENT_3D ( 'NONE', #47, #53, #88 ) ;
#174 = CARTESIAN_POINT ( 'NONE',  ( 0.000000000000000000, 1.899999999999999911, 0.000000000000000000 ) ) ;
#175 = DIRECTION ( 'NONE',  ( 0.000000000000000000, 1.000000000000000000, 0.000000000000000000 ) ) ;
#176 = FACE_BOUND ( 'NONE', #7, .T. ) ;
#177 = CIRCLE ( 'NONE', #189, 3.950000000000000178 ) ;
#178 = EDGE_CURVE ( 'NONE', #180, #159, #71, .T. ) ;
#179 = ORIENTED_EDGE ( 'NONE', *, *, #193, .F. ) ;
#180 = VERTEX_POINT ( 'NONE', #12 ) ;
#181 = CARTESIAN_POINT ( 'NONE',  ( 0.000000000000000000, 0.000000000000000000, -1.250000000000000000 ) ) ;
#182 = CARTESIAN_POINT ( 'NONE',  ( 0.000000000000000000, 1.899999999999999911, 0.000000000000000000 ) ) ;
#183 = DIRECTION ( 'NONE',  ( 0.000000000000000000, 0.000000000000000000, 1.000000000000000000 ) ) ;
#184 =( NAMED_UNIT ( * ) PLANE_ANGLE_UNIT ( ) SI_UNIT ( $, .RADIAN. ) );
#185 = CARTESIAN_POINT ( 'NONE',  ( 4.837354856632044071E-16, 1.899999999999999911, 3.950000000000000178 ) ) ;
#186 = AXIS2_PLACEMENT_3D ( 'NONE', #174, #91, #9 ) ;
#187 = APPLICATION_CONTEXT ( 'automotive_design' ) ;
#188 = CARTESIAN_POINT ( 'NONE',  ( 0.000000000000000000, 1.899999999999999911, 0.000000000000000000 ) ) ;
#189 = AXIS2_PLACEMENT_3D ( 'NONE', #57, #126, #183 ) ;
#190 = CARTESIAN_POINT ( 'NONE',  ( 0.000000000000000000, 1.899999999999999911, -1.250000000000000000 ) ) ;
#191 = DIRECTION ( 'NONE',  ( -0.000000000000000000, -1.000000000000000000, -0.000000000000000000 ) ) ;
#192 = AXIS2_PLACEMENT_3D ( 'NONE', #64, #175, #1 ) ;
#193 = EDGE_CURVE ( 'NONE', #166, #22, #14, .T. ) ;
#194 = ORIENTED_EDGE ( 'NONE', *, *, #114, .F. ) ;
#195 = PRODUCT_DEFINITION_FORMATION_WITH_SPECIFIED_SOURCE ( 'ANY', '', #131, .NOT_KNOWN. ) ;
#196 = EDGE_CURVE ( 'NONE', #180, #165, #36, .T. ) ;
#197 = CARTESIAN_POINT ( 'NONE',  ( 4.837354856632044071E-16, 1.899999999999999911, 3.950000000000000178 ) ) ;
#198 = DIRECTION ( 'NONE',  ( -0.000000000000000000, -1.000000000000000000, -0.000000000000000000 ) ) ;
#199 = PRODUCT_DEFINITION_SHAPE ( 'NONE', 'NONE',  #172 ) ;
ENDSEC;
END-ISO-10303-21;
