ISO-10303-21;
HEADER;
FILE_DESCRIPTION (( 'STEP AP214' ),
    '1' );
FILE_NAME ('P001-B102_BallMount_Rev2D-1.STEP',
    '2026-04-20T05:40:31',
    ( '' ),
    ( '' ),
    'SwSTEP 2.0',
    'SolidWorks 2024',
    '' );
FILE_SCHEMA (( 'AUTOMOTIVE_DESIGN' ));
ENDSEC;

DATA;
#1 = VECTOR ( 'NONE', #91, 1000.000000000000000 ) ;
#2 = FACE_OUTER_BOUND ( 'NONE', #147, .T. ) ;
#3 = PRODUCT_RELATED_PRODUCT_CATEGORY ( 'part', '', ( #174 ) ) ;
#4 = FACE_OUTER_BOUND ( 'NONE', #92, .T. ) ;
#5 = ADVANCED_BREP_SHAPE_REPRESENTATION ( 'P001-B102_BallMount_Rev2D-1', ( #75, #107 ), #114 ) ;
#6 = PLANE ( 'NONE',  #119 ) ;
#7 = VERTEX_POINT ( 'NONE', #125 ) ;
#8 = AXIS2_PLACEMENT_3D ( 'NONE', #159, #77, #98 ) ;
#9 = VECTOR ( 'NONE', #213, 1000.000000000000000 ) ;
#10 = VERTEX_POINT ( 'NONE', #161 ) ;
#11 = ORIENTED_EDGE ( 'NONE', *, *, #48, .F. ) ;
#12 = ORIENTED_EDGE ( 'NONE', *, *, #48, .T. ) ;
#13 = DIRECTION ( 'NONE',  ( -1.000000000000000000, -0.000000000000000000, 0.000000000000000000 ) ) ;
#14 = CARTESIAN_POINT ( 'NONE',  ( -9.750000000000001776, -16.24999999999999645, 6.500000000000000888 ) ) ;
#15 = CARTESIAN_POINT ( 'NONE',  ( 9.749999999999996447, -16.24999999999999645, -13.50000000000000000 ) ) ;
#16 = VECTOR ( 'NONE', #156, 1000.000000000000000 ) ;
#17 = AXIS2_PLACEMENT_3D ( 'NONE', #56, #13, #242 ) ;
#18 = CARTESIAN_POINT ( 'NONE',  ( -9.750000000000000000, -16.24999999999999645, -13.50000000000000000 ) ) ;
#19 = ORIENTED_EDGE ( 'NONE', *, *, #36, .F. ) ;
#20 = CARTESIAN_POINT ( 'NONE',  ( -9.750000000000001776, -18.00000000000000355, 6.500000000000000888 ) ) ;
#21 = LINE ( 'NONE', #20, #170 ) ;
#22 = VECTOR ( 'NONE', #58, 1000.000000000000000 ) ;
#23 = DIRECTION ( 'NONE',  ( -0.000000000000000000, 1.224646799147353207E-16, -1.000000000000000000 ) ) ;
#24 = CARTESIAN_POINT ( 'NONE',  ( -9.750000000000001776, -18.00000000000000355, 6.500000000000000888 ) ) ;
#25 = DIRECTION ( 'NONE',  ( -0.000000000000000000, 1.000000000000000000, 1.224646799147353207E-16 ) ) ;
#26 = DIRECTION ( 'NONE',  ( 0.000000000000000000, 0.000000000000000000, 1.000000000000000000 ) ) ;
#27 = PLANE ( 'NONE',  #246 ) ;
#28 = ORIENTED_EDGE ( 'NONE', *, *, #93, .T. ) ;
#29 =( GEOMETRIC_REPRESENTATION_CONTEXT ( 3 ) GLOBAL_UNCERTAINTY_ASSIGNED_CONTEXT ( ( #52 ) ) GLOBAL_UNIT_ASSIGNED_CONTEXT ( ( #34, #189, #109 ) ) REPRESENTATION_CONTEXT ( 'NONE', 'WORKASPACE' ) );
#30 = VERTEX_POINT ( 'NONE', #18 ) ;
#31 = ORIENTED_EDGE ( 'NONE', *, *, #188, .T. ) ;
#32 = CARTESIAN_POINT ( 'NONE',  ( -9.750000000000000000, -16.24999999999999645, -13.50000000000000000 ) ) ;
#33 = DIRECTION ( 'NONE',  ( -1.000000000000000000, 0.000000000000000000, -0.000000000000000000 ) ) ;
#34 =( LENGTH_UNIT ( ) NAMED_UNIT ( * ) SI_UNIT ( .MILLI., .METRE. ) );
#35 = DIRECTION ( 'NONE',  ( 0.000000000000000000, 1.000000000000000000, 0.000000000000000000 ) ) ;
#36 = EDGE_CURVE ( 'NONE', #30, #65, #186, .T. ) ;
#37 = DIRECTION ( 'NONE',  ( 0.000000000000000000, 0.000000000000000000, 1.000000000000000000 ) ) ;
#38 = LINE ( 'NONE', #113, #44 ) ;
#39 = DIRECTION ( 'NONE',  ( -0.000000000000000000, 1.000000000000000000, 1.224646799147353207E-16 ) ) ;
#40 = CARTESIAN_POINT ( 'NONE',  ( 9.750000000000000000, -16.24999999999999645, -10.00000000000000000 ) ) ;
#41 = FACE_OUTER_BOUND ( 'NONE', #47, .T. ) ;
#42 = EDGE_CURVE ( 'NONE', #88, #50, #106, .T. ) ;
#43 = VERTEX_POINT ( 'NONE', #86 ) ;
#44 = VECTOR ( 'NONE', #37, 1000.000000000000000 ) ;
#45 = ORIENTED_EDGE ( 'NONE', *, *, #93, .F. ) ;
#46 = CARTESIAN_POINT ( 'NONE',  ( 0.000000000000000000, 4.286263797015736595E-16, -13.50000000000000000 ) ) ;
#47 = EDGE_LOOP ( 'NONE', ( #197, #237, #218, #105 ) ) ;
#48 = EDGE_CURVE ( 'NONE', #50, #30, #171, .T. ) ;
#49 = VERTEX_POINT ( 'NONE', #14 ) ;
#50 = VERTEX_POINT ( 'NONE', #68 ) ;
#51 = CARTESIAN_POINT ( 'NONE',  ( 9.749999999999998224, -16.24999999999999645, 6.500000000000000888 ) ) ;
#52 = UNCERTAINTY_MEASURE_WITH_UNIT (LENGTH_MEASURE( 1.000000000000000082E-05 ), #34, 'distance_accuracy_value', 'NONE');
#53 = ADVANCED_FACE ( 'NONE', ( #148 ), #201, .T. ) ;
#54 = FACE_OUTER_BOUND ( 'NONE', #139, .T. ) ;
#55 = CIRCLE ( 'NONE', #85, 3.000000000000000000 ) ;
#56 = CARTESIAN_POINT ( 'NONE',  ( -9.750000000000000000, 11.68295544692684729, -9.999999999999996447 ) ) ;
#57 = PRODUCT_DEFINITION ( 'UNKNOWN', '', #67, #172 ) ;
#58 = DIRECTION ( 'NONE',  ( 1.982541115402063729E-15, -1.000000000000000000, 0.000000000000000000 ) ) ;
#59 = CARTESIAN_POINT ( 'NONE',  ( -9.750000000000000000, -18.00000000000000000, 6.500000000000000888 ) ) ;
#60 = LINE ( 'NONE', #40, #110 ) ;
#61 = LINE ( 'NONE', #212, #9 ) ;
#62 = APPLICATION_PROTOCOL_DEFINITION ( 'draft international standard', 'automotive_design', 1998, #192 ) ;
#63 = VERTEX_POINT ( 'NONE', #51 ) ;
#64 = ORIENTED_EDGE ( 'NONE', *, *, #89, .F. ) ;
#65 = VERTEX_POINT ( 'NONE', #15 ) ;
#66 = EDGE_LOOP ( 'NONE', ( #165 ) ) ;
#67 = PRODUCT_DEFINITION_FORMATION_WITH_SPECIFIED_SOURCE ( 'ANY', '', #174, .NOT_KNOWN. ) ;
#68 = CARTESIAN_POINT ( 'NONE',  ( -9.750000000000000000, -18.00000000000000000, -13.50000000000000000 ) ) ;
#69 = ORIENTED_EDGE ( 'NONE', *, *, #72, .F. ) ;
#70 = EDGE_LOOP ( 'NONE', ( #142 ) ) ;
#71 = AXIS2_PLACEMENT_3D ( 'NONE', #195, #179, #141 ) ;
#72 = EDGE_CURVE ( 'NONE', #65, #88, #244, .T. ) ;
#73 = ORIENTED_EDGE ( 'NONE', *, *, #211, .F. ) ;
#74 = DIRECTION ( 'NONE',  ( -1.000000000000000000, -0.000000000000000000, -0.000000000000000000 ) ) ;
#75 = MANIFOLD_SOLID_BREP ( 'Fillet1', #135 ) ;
#76 = CARTESIAN_POINT ( 'NONE',  ( 0.000000000000000000, -6.377168850554016721, -7.809779420453182223E-16 ) ) ;
#77 = DIRECTION ( 'NONE',  ( 0.000000000000000000, -1.000000000000000000, -1.224646799147353207E-16 ) ) ;
#78 = PLANE ( 'NONE',  #8 ) ;
#79 = EDGE_CURVE ( 'NONE', #30, #49, #241, .T. ) ;
#80 = CYLINDRICAL_SURFACE ( 'NONE', #150, 3.000000000000000000 ) ;
#81 = VECTOR ( 'NONE', #247, 1000.000000000000000 ) ;
#82 = ORIENTED_EDGE ( 'NONE', *, *, #79, .T. ) ;
#83 = EDGE_LOOP ( 'NONE', ( #82, #45, #173, #19 ) ) ;
#84 = ADVANCED_FACE ( 'NONE', ( #54 ), #111, .T. ) ;
#85 = AXIS2_PLACEMENT_3D ( 'NONE', #131, #193, #94 ) ;
#86 = CARTESIAN_POINT ( 'NONE',  ( 0.000000000000000000, -6.377168850554017610, 3.947368421052630083 ) ) ;
#87 = ORIENTED_EDGE ( 'NONE', *, *, #143, .F. ) ;
#88 = VERTEX_POINT ( 'NONE', #207 ) ;
#89 = EDGE_CURVE ( 'NONE', #145, #50, #124, .T. ) ;
#90 = CARTESIAN_POINT ( 'NONE',  ( 9.750000000000000000, 11.68295544692684729, -9.999999999999996447 ) ) ;
#91 = DIRECTION ( 'NONE',  ( 1.000000000000000000, 0.000000000000000000, 0.000000000000000000 ) ) ;
#92 = EDGE_LOOP ( 'NONE', ( #221 ) ) ;
#93 = EDGE_CURVE ( 'NONE', #63, #49, #61, .T. ) ;
#94 = DIRECTION ( 'NONE',  ( 0.000000000000000000, 0.000000000000000000, 1.000000000000000000 ) ) ;
#95 = DIRECTION ( 'NONE',  ( 0.000000000000000000, -2.197316402903955982E-16, 1.000000000000000000 ) ) ;
#96 = DIRECTION ( 'NONE',  ( 0.000000000000000000, -1.000000000000000000, -1.224646799147353207E-16 ) ) ;
#97 = ADVANCED_FACE ( 'NONE', ( #191, #115 ), #80, .T. ) ;
#98 = DIRECTION ( 'NONE',  ( 0.000000000000000000, 1.224646799147353207E-16, -1.000000000000000000 ) ) ;
#99 = FACE_OUTER_BOUND ( 'NONE', #129, .T. ) ;
#100 = STYLED_ITEM ( 'NONE', ( #223 ), #75 ) ;
#101 = PRODUCT_CONTEXT ( 'NONE', #192, 'mechanical' ) ;
#102 = VERTEX_POINT ( 'NONE', #132 ) ;
#103 = VECTOR ( 'NONE', #240, 1000.000000000000000 ) ;
#104 = EDGE_LOOP ( 'NONE', ( #121 ) ) ;
#105 = ORIENTED_EDGE ( 'NONE', *, *, #42, .F. ) ;
#106 = LINE ( 'NONE', #149, #126 ) ;
#107 = AXIS2_PLACEMENT_3D ( 'NONE', #180, #26, #217 ) ;
#108 = CARTESIAN_POINT ( 'NONE',  ( -9.750000000000000000, -16.24999999999999645, -10.00000000000000000 ) ) ;
#109 =( NAMED_UNIT ( * ) SI_UNIT ( $, .STERADIAN. ) SOLID_ANGLE_UNIT ( ) );
#110 = VECTOR ( 'NONE', #23, 1000.000000000000000 ) ;
#111 = PLANE ( 'NONE',  #243 ) ;
#112 = LINE ( 'NONE', #24, #81 ) ;
#113 = CARTESIAN_POINT ( 'NONE',  ( 9.750000000000000000, -18.00000000000000000, -10.00000000000000000 ) ) ;
#114 =( GEOMETRIC_REPRESENTATION_CONTEXT ( 3 ) GLOBAL_UNCERTAINTY_ASSIGNED_CONTEXT ( ( #183 ) ) GLOBAL_UNIT_ASSIGNED_CONTEXT ( ( #162, #234, #205 ) ) REPRESENTATION_CONTEXT ( 'NONE', 'WORKASPACE' ) );
#115 = FACE_OUTER_BOUND ( 'NONE', #104, .T. ) ;
#116 = EDGE_CURVE ( 'NONE', #102, #145, #21, .T. ) ;
#117 = SPHERICAL_SURFACE ( 'NONE', #71, 7.500000000000000000 ) ;
#118 = CARTESIAN_POINT ( 'NONE',  ( 0.000000000000000000, 0.000000000000000000, 0.000000000000000000 ) ) ;
#119 = AXIS2_PLACEMENT_3D ( 'NONE', #138, #210, #216 ) ;
#120 = EDGE_CURVE ( 'NONE', #145, #49, #112, .T. ) ;
#121 = ORIENTED_EDGE ( 'NONE', *, *, #152, .T. ) ;
#122 = VECTOR ( 'NONE', #35, 1000.000000000000000 ) ;
#123 = ORIENTED_EDGE ( 'NONE', *, *, #215, .F. ) ;
#124 = LINE ( 'NONE', #233, #136 ) ;
#125 = CARTESIAN_POINT ( 'NONE',  ( 0.000000000000000000, -8.077747210701756941, 2.999999999999999112 ) ) ;
#126 = VECTOR ( 'NONE', #153, 1000.000000000000000 ) ;
#127 = SHAPE_DEFINITION_REPRESENTATION ( #208, #5 ) ;
#128 = CARTESIAN_POINT ( 'NONE',  ( -9.750000000000000000, -18.00000000000000000, -13.50000000000000000 ) ) ;
#129 = EDGE_LOOP ( 'NONE', ( #123 ) ) ;
#130 = AXIS2_PLACEMENT_3D ( 'NONE', #196, #25, #155 ) ;
#131 = CARTESIAN_POINT ( 'NONE',  ( 0.000000000000000000, -16.24999999999999645, -1.990051048614448919E-15 ) ) ;
#132 = CARTESIAN_POINT ( 'NONE',  ( 9.749999999999998224, -18.00000000000000355, 6.500000000000000888 ) ) ;
#133 = ADVANCED_FACE ( 'NONE', ( #2 ), #6, .F. ) ;
#134 = DIRECTION ( 'NONE',  ( -0.000000000000000000, 1.000000000000000000, 1.224646799147353207E-16 ) ) ;
#135 = CLOSED_SHELL ( 'NONE', ( #228, #164, #97, #84, #53, #167, #133, #231, #200 ) ) ;
#136 = VECTOR ( 'NONE', #214, 1000.000000000000000 ) ;
#137 = FACE_OUTER_BOUND ( 'NONE', #204, .T. ) ;
#138 = CARTESIAN_POINT ( 'NONE',  ( -9.750000000000001776, -18.00000000000000355, 6.500000000000000888 ) ) ;
#139 = EDGE_LOOP ( 'NONE', ( #209, #87, #69, #73 ) ) ;
#140 = ORIENTED_EDGE ( 'NONE', *, *, #79, .F. ) ;
#141 = DIRECTION ( 'NONE',  ( 0.000000000000000000, 1.224646799147353207E-16, -1.000000000000000000 ) ) ;
#142 = ORIENTED_EDGE ( 'NONE', *, *, #152, .F. ) ;
#143 = EDGE_CURVE ( 'NONE', #88, #102, #38, .T. ) ;
#144 = ORIENTED_EDGE ( 'NONE', *, *, #120, .F. ) ;
#145 = VERTEX_POINT ( 'NONE', #59 ) ;
#146 = COLOUR_RGB ( '',0.8980392156862745390, 0.9215686274509803377, 0.9294117647058823817 ) ;
#147 = EDGE_LOOP ( 'NONE', ( #28, #144, #238, #31 ) ) ;
#148 = FACE_OUTER_BOUND ( 'NONE', #236, .T. ) ;
#149 = CARTESIAN_POINT ( 'NONE',  ( 9.750000000000000000, -18.00000000000000000, -13.50000000000000000 ) ) ;
#150 = AXIS2_PLACEMENT_3D ( 'NONE', #118, #39, #178 ) ;
#151 = SURFACE_STYLE_FILL_AREA ( #187 ) ;
#152 = EDGE_CURVE ( 'NONE', #10, #10, #55, .T. ) ;
#153 = DIRECTION ( 'NONE',  ( -1.000000000000000000, 0.000000000000000000, 0.000000000000000000 ) ) ;
#154 = DIRECTION ( 'NONE',  ( -0.000000000000000000, 1.000000000000000000, 1.224646799147353207E-16 ) ) ;
#155 = DIRECTION ( 'NONE',  ( 0.000000000000000000, -1.224646799147353207E-16, 1.000000000000000000 ) ) ;
#156 = DIRECTION ( 'NONE',  ( -0.000000000000000000, 1.000000000000000000, 1.224646799147353454E-16 ) ) ;
#157 = CARTESIAN_POINT ( 'NONE',  ( 0.000000000000000000, -8.077747210701756941, -9.892387265907365464E-16 ) ) ;
#158 = AXIS2_PLACEMENT_3D ( 'NONE', #157, #96, #177 ) ;
#159 = CARTESIAN_POINT ( 'NONE',  ( 0.000000000000000000, -16.24999999999999645, -3.000000000000002220 ) ) ;
#160 = EDGE_CURVE ( 'NONE', #43, #43, #203, .T. ) ;
#161 = CARTESIAN_POINT ( 'NONE',  ( 0.000000000000000000, -16.24999999999999645, 2.999999999999997780 ) ) ;
#162 =( LENGTH_UNIT ( ) NAMED_UNIT ( * ) SI_UNIT ( .MILLI., .METRE. ) );
#163 = PRESENTATION_LAYER_ASSIGNMENT (  '', '', ( #100 ) ) ;
#164 = ADVANCED_FACE ( 'NONE', ( #176, #175 ), #78, .F. ) ;
#165 = ORIENTED_EDGE ( 'NONE', *, *, #160, .F. ) ;
#166 = TOROIDAL_SURFACE ( 'NONE', #168, 5.000000000000000000, 2.000000000000000000 ) ;
#167 = ADVANCED_FACE ( 'NONE', ( #41 ), #227, .F. ) ;
#168 = AXIS2_PLACEMENT_3D ( 'NONE', #245, #134, #194 ) ;
#169 = DIRECTION ( 'NONE',  ( 1.000000000000000000, 0.000000000000000000, -0.000000000000000000 ) ) ;
#170 = VECTOR ( 'NONE', #74, 1000.000000000000000 ) ;
#171 = LINE ( 'NONE', #128, #122 ) ;
#172 = PRODUCT_DEFINITION_CONTEXT ( 'detailed design', #202, 'design' ) ;
#173 = ORIENTED_EDGE ( 'NONE', *, *, #211, .T. ) ;
#174 = PRODUCT ( 'P001-B102_BallMount_Rev2D-1', 'P001-B102_BallMount_Rev2D-1', '', ( #101 ) ) ;
#175 = FACE_OUTER_BOUND ( 'NONE', #83, .T. ) ;
#176 = FACE_BOUND ( 'NONE', #70, .T. ) ;
#177 = DIRECTION ( 'NONE',  ( 0.000000000000000000, 0.000000000000000000, 1.000000000000000000 ) ) ;
#178 = DIRECTION ( 'NONE',  ( 0.000000000000000000, -1.224646799147353207E-16, 1.000000000000000000 ) ) ;
#179 = DIRECTION ( 'NONE',  ( -1.000000000000000000, 0.000000000000000000, 0.000000000000000000 ) ) ;
#180 = CARTESIAN_POINT ( 'NONE',  ( 0.000000000000000000, 0.000000000000000000, 0.000000000000000000 ) ) ;
#181 = MECHANICAL_DESIGN_GEOMETRIC_PRESENTATION_REPRESENTATION (  '', ( #100 ), #29 ) ;
#182 = ORIENTED_EDGE ( 'NONE', *, *, #72, .T. ) ;
#183 = UNCERTAINTY_MEASURE_WITH_UNIT (LENGTH_MEASURE( 1.000000000000000082E-05 ), #162, 'distance_accuracy_value', 'NONE');
#184 = CIRCLE ( 'NONE', #158, 3.000000000000000000 ) ;
#185 = FILL_AREA_STYLE_COLOUR ( '', #146 ) ;
#186 = LINE ( 'NONE', #32, #1 ) ;
#187 = FILL_AREA_STYLE ('',( #185 ) ) ;
#188 = EDGE_CURVE ( 'NONE', #102, #63, #232, .T. ) ;
#189 =( NAMED_UNIT ( * ) PLANE_ANGLE_UNIT ( ) SI_UNIT ( $, .RADIAN. ) );
#190 = CARTESIAN_POINT ( 'NONE',  ( 9.749999999999996447, -16.24999999999999645, -13.50000000000000000 ) ) ;
#191 = FACE_OUTER_BOUND ( 'NONE', #219, .T. ) ;
#192 = APPLICATION_CONTEXT ( 'automotive_design' ) ;
#193 = DIRECTION ( 'NONE',  ( -0.000000000000000000, 1.000000000000000000, 1.224646799147353207E-16 ) ) ;
#194 = DIRECTION ( 'NONE',  ( 0.000000000000000000, -1.224646799147353207E-16, 1.000000000000000000 ) ) ;
#195 = CARTESIAN_POINT ( 'NONE',  ( 0.000000000000000000, 0.000000000000000000, 0.000000000000000000 ) ) ;
#196 = CARTESIAN_POINT ( 'NONE',  ( 0.000000000000000000, -18.00000000000000000, -6.000000000000002665 ) ) ;
#197 = ORIENTED_EDGE ( 'NONE', *, *, #143, .T. ) ;
#198 = ORIENTED_EDGE ( 'NONE', *, *, #42, .T. ) ;
#199 = ORIENTED_EDGE ( 'NONE', *, *, #36, .T. ) ;
#200 = ADVANCED_FACE ( 'NONE', ( #99, #230 ), #166, .F. ) ;
#201 = PLANE ( 'NONE',  #17 ) ;
#202 = APPLICATION_CONTEXT ( 'automotive_design' ) ;
#203 = CIRCLE ( 'NONE', #224, 3.947368421052630971 ) ;
#204 = EDGE_LOOP ( 'NONE', ( #12, #199, #182, #198 ) ) ;
#205 =( NAMED_UNIT ( * ) SI_UNIT ( $, .STERADIAN. ) SOLID_ANGLE_UNIT ( ) );
#206 = SURFACE_SIDE_STYLE ('',( #151 ) ) ;
#207 = CARTESIAN_POINT ( 'NONE',  ( 9.750000000000000000, -18.00000000000000000, -13.50000000000000000 ) ) ;
#208 = PRODUCT_DEFINITION_SHAPE ( 'NONE', 'NONE',  #57 ) ;
#209 = ORIENTED_EDGE ( 'NONE', *, *, #188, .F. ) ;
#210 = DIRECTION ( 'NONE',  ( 0.000000000000000000, 1.224646799147353454E-16, -1.000000000000000000 ) ) ;
#211 = EDGE_CURVE ( 'NONE', #63, #65, #60, .T. ) ;
#212 = CARTESIAN_POINT ( 'NONE',  ( -9.750000000000001776, -16.24999999999999645, 6.500000000000000888 ) ) ;
#213 = DIRECTION ( 'NONE',  ( -1.000000000000000000, -0.000000000000000000, -0.000000000000000000 ) ) ;
#214 = DIRECTION ( 'NONE',  ( -0.000000000000000000, -0.000000000000000000, -1.000000000000000000 ) ) ;
#215 = EDGE_CURVE ( 'NONE', #7, #7, #184, .T. ) ;
#216 = DIRECTION ( 'NONE',  ( 0.000000000000000000, 1.000000000000000000, 1.224646799147353454E-16 ) ) ;
#217 = DIRECTION ( 'NONE',  ( 1.000000000000000000, 0.000000000000000000, 0.000000000000000000 ) ) ;
#218 = ORIENTED_EDGE ( 'NONE', *, *, #89, .T. ) ;
#219 = EDGE_LOOP ( 'NONE', ( #235 ) ) ;
#220 = DIRECTION ( 'NONE',  ( 0.000000000000000000, 0.000000000000000000, -1.000000000000000000 ) ) ;
#221 = ORIENTED_EDGE ( 'NONE', *, *, #160, .T. ) ;
#222 = ORIENTED_EDGE ( 'NONE', *, *, #120, .T. ) ;
#223 = PRESENTATION_STYLE_ASSIGNMENT (( #225 ) ) ;
#224 = AXIS2_PLACEMENT_3D ( 'NONE', #76, #154, #95 ) ;
#225 = SURFACE_STYLE_USAGE ( .BOTH. , #206 ) ;
#226 = DIRECTION ( 'NONE',  ( -0.000000000000000000, 0.000000000000000000, -1.000000000000000000 ) ) ;
#227 = PLANE ( 'NONE',  #130 ) ;
#228 = ADVANCED_FACE ( 'NONE', ( #4 ), #117, .T. ) ;
#229 = CARTESIAN_POINT ( 'NONE',  ( 9.749999999999998224, -18.00000000000000355, 6.500000000000000888 ) ) ;
#230 = FACE_OUTER_BOUND ( 'NONE', #66, .T. ) ;
#231 = ADVANCED_FACE ( 'NONE', ( #137 ), #27, .T. ) ;
#232 = LINE ( 'NONE', #229, #16 ) ;
#233 = CARTESIAN_POINT ( 'NONE',  ( -9.750000000000000000, -18.00000000000000000, -10.00000000000000000 ) ) ;
#234 =( NAMED_UNIT ( * ) PLANE_ANGLE_UNIT ( ) SI_UNIT ( $, .RADIAN. ) );
#235 = ORIENTED_EDGE ( 'NONE', *, *, #215, .T. ) ;
#236 = EDGE_LOOP ( 'NONE', ( #222, #140, #11, #64 ) ) ;
#237 = ORIENTED_EDGE ( 'NONE', *, *, #116, .T. ) ;
#238 = ORIENTED_EDGE ( 'NONE', *, *, #116, .F. ) ;
#239 = APPLICATION_PROTOCOL_DEFINITION ( 'draft international standard', 'automotive_design', 1998, #202 ) ;
#240 = DIRECTION ( 'NONE',  ( 0.000000000000000000, -1.224646799147353207E-16, 1.000000000000000000 ) ) ;
#241 = LINE ( 'NONE', #108, #103 ) ;
#242 = DIRECTION ( 'NONE',  ( 0.000000000000000000, 0.000000000000000000, 1.000000000000000000 ) ) ;
#243 = AXIS2_PLACEMENT_3D ( 'NONE', #90, #169, #226 ) ;
#244 = LINE ( 'NONE', #190, #22 ) ;
#245 = CARTESIAN_POINT ( 'NONE',  ( 0.000000000000000000, -8.077747210701756941, -9.892387265907365464E-16 ) ) ;
#246 = AXIS2_PLACEMENT_3D ( 'NONE', #46, #220, #33 ) ;
#247 = DIRECTION ( 'NONE',  ( -0.000000000000000000, 1.000000000000000000, 1.224646799147353454E-16 ) ) ;
ENDSEC;
END-ISO-10303-21;
