ISO-10303-21;
HEADER;
FILE_DESCRIPTION (( 'STEP AP214' ),
    '1' );
FILE_NAME ('P001-B111_BallMount_3.STEP',
    '2026-05-13T09:37:21',
    ( '' ),
    ( '' ),
    'SwSTEP 2.0',
    'SolidWorks 2026',
    '' );
FILE_SCHEMA (( 'AUTOMOTIVE_DESIGN' ));
ENDSEC;

DATA;
#1 = ORIENTED_EDGE ( 'NONE', *, *, #70, .T. ) ;
#2 = FACE_OUTER_BOUND ( 'NONE', #237, .T. ) ;
#3 = ORIENTED_EDGE ( 'NONE', *, *, #195, .F. ) ;
#4 = CARTESIAN_POINT ( 'NONE',  ( -9.750000000000000000, 1.750000000000000000, -10.00000000000000000 ) ) ;
#5 = ORIENTED_EDGE ( 'NONE', *, *, #77, .T. ) ;
#6 = CARTESIAN_POINT ( 'NONE',  ( -9.750000000000000000, 1.750000000000000000, -10.00000000000000000 ) ) ;
#7 = EDGE_LOOP ( 'NONE', ( #108, #145, #26, #159 ) ) ;
#8 = LINE ( 'NONE', #212, #53 ) ;
#9 = CARTESIAN_POINT ( 'NONE',  ( 3.000000000000000000, 1.750000000000000000, 8.010749087384078097E-16 ) ) ;
#10 = DIRECTION ( 'NONE',  ( 0.000000000000000000, -1.000000000000000000, 0.000000000000000000 ) ) ;
#11 = CARTESIAN_POINT ( 'NONE',  ( 3.000000000000000000, 1.750000000000000000, -1.352549999999987040 ) ) ;
#12 = ADVANCED_FACE ( 'NONE', ( #318 ), #38, .F. ) ;
#13 = AXIS2_PLACEMENT_3D ( 'NONE', #118, #36, #93 ) ;
#14 = DIRECTION ( 'NONE',  ( 0.000000000000000000, -1.000000000000000000, 0.000000000000000000 ) ) ;
#15 = ORIENTED_EDGE ( 'NONE', *, *, #238, .T. ) ;
#16 =( NAMED_UNIT ( * ) SI_UNIT ( $, .STERADIAN. ) SOLID_ANGLE_UNIT ( ) );
#17 = LINE ( 'NONE', #124, #200 ) ;
#18 = APPLICATION_CONTEXT ( 'automotive_design' ) ;
#19 = CARTESIAN_POINT ( 'NONE',  ( 0.000000000000000000, 0.000000000000000000, 0.000000000000000000 ) ) ;
#20 = AXIS2_PLACEMENT_3D ( 'NONE', #241, #83, #189 ) ;
#21 = VERTEX_POINT ( 'NONE', #294 ) ;
#22 = ADVANCED_FACE ( 'NONE', ( #139 ), #320, .F. ) ;
#23 = DIRECTION ( 'NONE',  ( 0.000000000000000000, -1.000000000000000000, 0.000000000000000000 ) ) ;
#24 = EDGE_LOOP ( 'NONE', ( #265, #135, #242, #170 ) ) ;
#25 = DIRECTION ( 'NONE',  ( -1.000000000000000000, -0.000000000000000000, -0.000000000000000000 ) ) ;
#26 = ORIENTED_EDGE ( 'NONE', *, *, #259, .F. ) ;
#27 = DIRECTION ( 'NONE',  ( -0.000000000000000000, -1.000000000000000000, -0.000000000000000000 ) ) ;
#28 = ORIENTED_EDGE ( 'NONE', *, *, #72, .F. ) ;
#29 = EDGE_CURVE ( 'NONE', #131, #86, #192, .T. ) ;
#30 = DIRECTION ( 'NONE',  ( 0.000000000000000000, 0.000000000000000000, 1.000000000000000000 ) ) ;
#31 = ORIENTED_EDGE ( 'NONE', *, *, #136, .F. ) ;
#32 = CARTESIAN_POINT ( 'NONE',  ( 3.000000000000000000, 0.000000000000000000, 8.010749087384078097E-16 ) ) ;
#33 = ORIENTED_EDGE ( 'NONE', *, *, #264, .F. ) ;
#34 = VECTOR ( 'NONE', #116, 1000.000000000000000 ) ;
#35 = FACE_OUTER_BOUND ( 'NONE', #58, .T. ) ;
#36 = DIRECTION ( 'NONE',  ( 0.000000000000000000, 0.000000000000000000, -1.000000000000000000 ) ) ;
#37 = ADVANCED_FACE ( 'NONE', ( #40 ), #91, .F. ) ;
#38 = PLANE ( 'NONE',  #13 ) ;
#39 = DIRECTION ( 'NONE',  ( -1.000000000000000000, 0.000000000000000000, 0.000000000000000000 ) ) ;
#40 = FACE_OUTER_BOUND ( 'NONE', #65, .T. ) ;
#41 = AXIS2_PLACEMENT_3D ( 'NONE', #19, #98, #306 ) ;
#42 = STYLED_ITEM ( 'NONE', ( #120 ), #248 ) ;
#43 = FILL_AREA_STYLE_COLOUR ( '', #149 ) ;
#44 = PRODUCT_RELATED_PRODUCT_CATEGORY ( 'part', '', ( #204 ) ) ;
#45 = SURFACE_SIDE_STYLE ('',( #146 ) ) ;
#46 = CLOSED_SHELL ( 'NONE', ( #100, #160, #308, #187, #22, #12, #304, #130, #37, #323 ) ) ;
#47 = VECTOR ( 'NONE', #274, 1000.000000000000000 ) ;
#48 = ORIENTED_EDGE ( 'NONE', *, *, #97, .F. ) ;
#49 = CARTESIAN_POINT ( 'NONE',  ( -3.000000000000000000, 1.750000000000000000, 3.673940397442060361E-16 ) ) ;
#50 = ORIENTED_EDGE ( 'NONE', *, *, #87, .F. ) ;
#51 = PLANE ( 'NONE',  #128 ) ;
#52 = DIRECTION ( 'NONE',  ( 0.000000000000000000, -1.000000000000000000, 0.000000000000000000 ) ) ;
#53 = VECTOR ( 'NONE', #129, 1000.000000000000000 ) ;
#54 = VERTEX_POINT ( 'NONE', #60 ) ;
#55 = DIRECTION ( 'NONE',  ( -0.000000000000000000, 1.000000000000000000, -0.000000000000000000 ) ) ;
#56 = ADVANCED_BREP_SHAPE_REPRESENTATION ( 'P001-B111_BallMount_3', ( #248, #41 ), #176 ) ;
#57 = LINE ( 'NONE', #293, #279 ) ;
#58 = EDGE_LOOP ( 'NONE', ( #5, #162, #208, #121 ) ) ;
#59 = PLANE ( 'NONE',  #206 ) ;
#60 = CARTESIAN_POINT ( 'NONE',  ( 9.750000000000000000, 0.000000000000000000, 10.00000000000000000 ) ) ;
#61 = CIRCLE ( 'NONE', #20, 1.352549999999988817 ) ;
#62 = DIRECTION ( 'NONE',  ( -0.000000000000000000, 1.000000000000000000, -0.000000000000000000 ) ) ;
#63 = CARTESIAN_POINT ( 'NONE',  ( -9.750000000000000000, 1.750000000000000000, 10.00000000000000000 ) ) ;
#64 = CARTESIAN_POINT ( 'NONE',  ( -3.000000000000000000, 1.750000000000000000, -1.352549999999987485 ) ) ;
#65 = EDGE_LOOP ( 'NONE', ( #50, #298, #1, #114 ) ) ;
#66 = UNCERTAINTY_MEASURE_WITH_UNIT (LENGTH_MEASURE( 1.000000000000000082E-05 ), #96, 'distance_accuracy_value', 'NONE');
#67 = FACE_OUTER_BOUND ( 'NONE', #216, .T. ) ;
#68 = VECTOR ( 'NONE', #281, 1000.000000000000000 ) ;
#69 = CIRCLE ( 'NONE', #302, 1.352549999999988817 ) ;
#70 = EDGE_CURVE ( 'NONE', #21, #285, #165, .T. ) ;
#71 =( NAMED_UNIT ( * ) PLANE_ANGLE_UNIT ( ) SI_UNIT ( $, .RADIAN. ) );
#72 = EDGE_CURVE ( 'NONE', #272, #260, #178, .T. ) ;
#73 = VERTEX_POINT ( 'NONE', #322 ) ;
#74 = ORIENTED_EDGE ( 'NONE', *, *, #180, .F. ) ;
#75 = DIRECTION ( 'NONE',  ( -0.000000000000000000, 1.000000000000000000, -0.000000000000000000 ) ) ;
#76 = ORIENTED_EDGE ( 'NONE', *, *, #287, .F. ) ;
#77 = EDGE_CURVE ( 'NONE', #54, #205, #89, .T. ) ;
#78 = CARTESIAN_POINT ( 'NONE',  ( 3.000000000000000000, 0.000000000000000000, 8.010749087384078097E-16 ) ) ;
#79 = EDGE_LOOP ( 'NONE', ( #82, #104, #31, #234 ) ) ;
#80 = CARTESIAN_POINT ( 'NONE',  ( 9.750000000000000000, 1.750000000000000000, 10.00000000000000000 ) ) ;
#81 = MECHANICAL_DESIGN_GEOMETRIC_PRESENTATION_REPRESENTATION (  '', ( #42 ), #138 ) ;
#82 = ORIENTED_EDGE ( 'NONE', *, *, #311, .T. ) ;
#83 = DIRECTION ( 'NONE',  ( -0.000000000000000000, 1.000000000000000000, -0.000000000000000000 ) ) ;
#84 = ORIENTED_EDGE ( 'NONE', *, *, #311, .F. ) ;
#85 = DIRECTION ( 'NONE',  ( 0.000000000000000000, -1.000000000000000000, 0.000000000000000000 ) ) ;
#86 = VERTEX_POINT ( 'NONE', #143 ) ;
#87 = EDGE_CURVE ( 'NONE', #73, #310, #250, .T. ) ;
#88 = FACE_BOUND ( 'NONE', #334, .T. ) ;
#89 = LINE ( 'NONE', #194, #243 ) ;
#90 = AXIS2_PLACEMENT_3D ( 'NONE', #158, #267, #112 ) ;
#91 = CYLINDRICAL_SURFACE ( 'NONE', #330, 1.352549999999987929 ) ;
#92 = DIRECTION ( 'NONE',  ( 0.000000000000000000, 0.000000000000000000, 1.000000000000000000 ) ) ;
#93 = DIRECTION ( 'NONE',  ( -1.000000000000000000, 0.000000000000000000, -0.000000000000000000 ) ) ;
#94 = CARTESIAN_POINT ( 'NONE',  ( -3.000000000000000000, 1.750000000000000000, 3.673940397442060361E-16 ) ) ;
#95 = VECTOR ( 'NONE', #269, 1000.000000000000000 ) ;
#96 =( LENGTH_UNIT ( ) NAMED_UNIT ( * ) SI_UNIT ( .MILLI., .METRE. ) );
#97 = EDGE_CURVE ( 'NONE', #260, #315, #57, .T. ) ;
#98 = DIRECTION ( 'NONE',  ( 0.000000000000000000, 0.000000000000000000, 1.000000000000000000 ) ) ;
#99 = AXIS2_PLACEMENT_3D ( 'NONE', #78, #52, #132 ) ;
#100 = ADVANCED_FACE ( 'NONE', ( #2 ), #186, .F. ) ;
#101 = ORIENTED_EDGE ( 'NONE', *, *, #211, .T. ) ;
#102 = AXIS2_PLACEMENT_3D ( 'NONE', #299, #39, #92 ) ;
#103 = CARTESIAN_POINT ( 'NONE',  ( 3.000000000000000000, 1.750000000000000000, 8.010749087384078097E-16 ) ) ;
#104 = ORIENTED_EDGE ( 'NONE', *, *, #220, .F. ) ;
#105 = CARTESIAN_POINT ( 'NONE',  ( -9.750000000000000000, 1.750000000000000000, -10.00000000000000000 ) ) ;
#106 = ORIENTED_EDGE ( 'NONE', *, *, #113, .F. ) ;
#107 = LINE ( 'NONE', #105, #117 ) ;
#108 = ORIENTED_EDGE ( 'NONE', *, *, #254, .T. ) ;
#109 = CARTESIAN_POINT ( 'NONE',  ( 0.000000000000000000, 0.000000000000000000, 0.000000000000000000 ) ) ;
#110 = AXIS2_PLACEMENT_3D ( 'NONE', #245, #278, #222 ) ;
#111 = VERTEX_POINT ( 'NONE', #80 ) ;
#112 = DIRECTION ( 'NONE',  ( 0.000000000000000000, 0.000000000000000000, 1.000000000000000000 ) ) ;
#113 = EDGE_CURVE ( 'NONE', #285, #310, #235, .T. ) ;
#114 = ORIENTED_EDGE ( 'NONE', *, *, #113, .T. ) ;
#115 = ORIENTED_EDGE ( 'NONE', *, *, #126, .F. ) ;
#116 = DIRECTION ( 'NONE',  ( -0.000000000000000000, 1.000000000000000000, -0.000000000000000000 ) ) ;
#117 = VECTOR ( 'NONE', #25, 1000.000000000000000 ) ;
#118 = CARTESIAN_POINT ( 'NONE',  ( -9.750000000000000000, 1.750000000000000000, 10.00000000000000000 ) ) ;
#119 = PRODUCT_DEFINITION_FORMATION_WITH_SPECIFIED_SOURCE ( 'ANY', '', #204, .NOT_KNOWN. ) ;
#120 = PRESENTATION_STYLE_ASSIGNMENT (( #169 ) ) ;
#121 = ORIENTED_EDGE ( 'NONE', *, *, #264, .T. ) ;
#122 = CARTESIAN_POINT ( 'NONE',  ( -3.000000000000000000, 0.000000000000000000, 3.673940397442060361E-16 ) ) ;
#123 = UNCERTAINTY_MEASURE_WITH_UNIT (LENGTH_MEASURE( 1.000000000000000082E-05 ), #173, 'distance_accuracy_value', 'NONE');
#124 = CARTESIAN_POINT ( 'NONE',  ( -9.750000000000000000, 1.750000000000000000, 10.00000000000000000 ) ) ;
#125 = APPLICATION_CONTEXT ( 'automotive_design' ) ;
#126 = EDGE_CURVE ( 'NONE', #315, #268, #69, .T. ) ;
#127 = PLANE ( 'NONE',  #273 ) ;
#128 = AXIS2_PLACEMENT_3D ( 'NONE', #183, #30, #134 ) ;
#129 = DIRECTION ( 'NONE',  ( 1.000000000000000000, 0.000000000000000000, 0.000000000000000000 ) ) ;
#130 = ADVANCED_FACE ( 'NONE', ( #317, #263, #217 ), #127, .T. ) ;
#131 = VERTEX_POINT ( 'NONE', #288 ) ;
#132 = DIRECTION ( 'NONE',  ( 0.000000000000000000, 0.000000000000000000, -1.000000000000000000 ) ) ;
#133 = ORIENTED_EDGE ( 'NONE', *, *, #136, .T. ) ;
#134 = DIRECTION ( 'NONE',  ( 1.000000000000000000, 0.000000000000000000, -0.000000000000000000 ) ) ;
#135 = ORIENTED_EDGE ( 'NONE', *, *, #72, .T. ) ;
#136 = EDGE_CURVE ( 'NONE', #190, #197, #107, .T. ) ;
#137 = LINE ( 'NONE', #291, #95 ) ;
#138 =( GEOMETRIC_REPRESENTATION_CONTEXT ( 3 ) GLOBAL_UNCERTAINTY_ASSIGNED_CONTEXT ( ( #123 ) ) GLOBAL_UNIT_ASSIGNED_CONTEXT ( ( #173, #303, #16 ) ) REPRESENTATION_CONTEXT ( 'NONE', 'WORKASPACE' ) );
#139 = FACE_OUTER_BOUND ( 'NONE', #7, .T. ) ;
#140 = CARTESIAN_POINT ( 'NONE',  ( 3.000000000000000000, 1.750000000000001332, -1.352549999999987929 ) ) ;
#141 = DIRECTION ( 'NONE',  ( -0.000000000000000000, 1.000000000000000000, -0.000000000000000000 ) ) ;
#142 = CARTESIAN_POINT ( 'NONE',  ( -3.000000000000000000, 0.000000000000000000, 1.352549999999988373 ) ) ;
#143 = CARTESIAN_POINT ( 'NONE',  ( -9.750000000000000000, 0.000000000000000000, 10.00000000000000000 ) ) ;
#144 = CARTESIAN_POINT ( 'NONE',  ( -3.000000000000000000, 1.750000000000001332, -1.352549999999988373 ) ) ;
#145 = ORIENTED_EDGE ( 'NONE', *, *, #29, .F. ) ;
#146 = SURFACE_STYLE_FILL_AREA ( #199 ) ;
#147 = VECTOR ( 'NONE', #198, 1000.000000000000000 ) ;
#148 = APPLICATION_PROTOCOL_DEFINITION ( 'draft international standard', 'automotive_design', 1998, #125 ) ;
#149 = COLOUR_RGB ( '',0.7921568627450980005, 0.8196078431372548767, 0.9333333333333333481 ) ;
#150 = ORIENTED_EDGE ( 'NONE', *, *, #259, .T. ) ;
#151 = CARTESIAN_POINT ( 'NONE',  ( -3.000000000000000000, 1.750000000000001332, 3.673940397442060361E-16 ) ) ;
#152 = ORIENTED_EDGE ( 'NONE', *, *, #70, .F. ) ;
#153 = EDGE_CURVE ( 'NONE', #73, #21, #290, .T. ) ;
#154 = CARTESIAN_POINT ( 'NONE',  ( 9.750000000000000000, 1.750000000000000000, -10.00000000000000000 ) ) ;
#155 = VERTEX_POINT ( 'NONE', #309 ) ;
#156 = FACE_OUTER_BOUND ( 'NONE', #79, .T. ) ;
#157 = EDGE_LOOP ( 'NONE', ( #179, #3, #210, #84 ) ) ;
#158 = CARTESIAN_POINT ( 'NONE',  ( 3.000000000000000000, 1.750000000000001332, 8.010749087384078097E-16 ) ) ;
#159 = ORIENTED_EDGE ( 'NONE', *, *, #220, .T. ) ;
#160 = ADVANCED_FACE ( 'NONE', ( #207 ), #233, .F. ) ;
#161 = DIRECTION ( 'NONE',  ( -0.000000000000000000, 1.000000000000000000, -0.000000000000000000 ) ) ;
#162 = ORIENTED_EDGE ( 'NONE', *, *, #202, .F. ) ;
#163 = DIRECTION ( 'NONE',  ( 0.000000000000000000, -0.000000000000000000, -1.000000000000000000 ) ) ;
#164 = AXIS2_PLACEMENT_3D ( 'NONE', #122, #223, #301 ) ;
#165 = LINE ( 'NONE', #300, #172 ) ;
#166 = DIRECTION ( 'NONE',  ( 0.000000000000000000, 0.000000000000000000, 1.000000000000000000 ) ) ;
#167 = DIRECTION ( 'NONE',  ( 0.000000000000000000, 0.000000000000000000, -1.000000000000000000 ) ) ;
#168 = PRODUCT_DEFINITION_CONTEXT ( 'detailed design', #18, 'design' ) ;
#169 = SURFACE_STYLE_USAGE ( .BOTH. , #45 ) ;
#170 = ORIENTED_EDGE ( 'NONE', *, *, #126, .T. ) ;
#171 = CARTESIAN_POINT ( 'NONE',  ( 3.000000000000000000, 1.750000000000001332, 1.352549999999989705 ) ) ;
#172 = VECTOR ( 'NONE', #277, 1000.000000000000000 ) ;
#173 =( LENGTH_UNIT ( ) NAMED_UNIT ( * ) SI_UNIT ( .MILLI., .METRE. ) );
#174 = VECTOR ( 'NONE', #218, 1000.000000000000000 ) ;
#175 = EDGE_CURVE ( 'NONE', #111, #190, #137, .T. ) ;
#176 =( GEOMETRIC_REPRESENTATION_CONTEXT ( 3 ) GLOBAL_UNCERTAINTY_ASSIGNED_CONTEXT ( ( #66 ) ) GLOBAL_UNIT_ASSIGNED_CONTEXT ( ( #96, #71, #332 ) ) REPRESENTATION_CONTEXT ( 'NONE', 'WORKASPACE' ) );
#177 = ORIENTED_EDGE ( 'NONE', *, *, #29, .T. ) ;
#178 = CIRCLE ( 'NONE', #214, 1.352549999999987929 ) ;
#179 = ORIENTED_EDGE ( 'NONE', *, *, #77, .F. ) ;
#180 = EDGE_CURVE ( 'NONE', #131, #111, #284, .T. ) ;
#181 = DIRECTION ( 'NONE',  ( 0.000000000000000000, 0.000000000000000000, 1.000000000000000000 ) ) ;
#182 = ORIENTED_EDGE ( 'NONE', *, *, #153, .F. ) ;
#183 = CARTESIAN_POINT ( 'NONE',  ( -9.750000000000000000, 1.750000000000000000, -10.00000000000000000 ) ) ;
#184 = ORIENTED_EDGE ( 'NONE', *, *, #195, .T. ) ;
#185 = AXIS2_PLACEMENT_3D ( 'NONE', #276, #325, #256 ) ;
#186 = CYLINDRICAL_SURFACE ( 'NONE', #221, 1.352549999999987929 ) ;
#187 = ADVANCED_FACE ( 'NONE', ( #156 ), #51, .F. ) ;
#188 = ORIENTED_EDGE ( 'NONE', *, *, #175, .T. ) ;
#189 = DIRECTION ( 'NONE',  ( 0.000000000000000000, 0.000000000000000000, 1.000000000000000000 ) ) ;
#190 = VERTEX_POINT ( 'NONE', #154 ) ;
#191 = CARTESIAN_POINT ( 'NONE',  ( -9.750000000000000000, 0.000000000000000000, 10.00000000000000000 ) ) ;
#192 = LINE ( 'NONE', #63, #174 ) ;
#193 = CYLINDRICAL_SURFACE ( 'NONE', #307, 1.352549999999987929 ) ;
#194 = CARTESIAN_POINT ( 'NONE',  ( 9.750000000000000000, 0.000000000000000000, 10.00000000000000000 ) ) ;
#195 = EDGE_CURVE ( 'NONE', #86, #54, #8, .T. ) ;
#196 = LINE ( 'NONE', #191, #68 ) ;
#197 = VERTEX_POINT ( 'NONE', #6 ) ;
#198 = DIRECTION ( 'NONE',  ( -1.000000000000000000, -0.000000000000000000, -0.000000000000000000 ) ) ;
#199 = FILL_AREA_STYLE ('',( #43 ) ) ;
#200 = VECTOR ( 'NONE', #295, 1000.000000000000000 ) ;
#201 = PRODUCT_CONTEXT ( 'NONE', #125, 'mechanical' ) ;
#202 = EDGE_CURVE ( 'NONE', #190, #205, #209, .T. ) ;
#203 = AXIS2_PLACEMENT_3D ( 'NONE', #103, #75, #181 ) ;
#204 = PRODUCT ( 'P001-B111_BallMount_3', 'P001-B111_BallMount_3', '', ( #201 ) ) ;
#205 = VERTEX_POINT ( 'NONE', #312 ) ;
#206 = AXIS2_PLACEMENT_3D ( 'NONE', #280, #14, #163 ) ;
#207 = FACE_OUTER_BOUND ( 'NONE', #247, .T. ) ;
#208 = ORIENTED_EDGE ( 'NONE', *, *, #175, .F. ) ;
#209 = LINE ( 'NONE', #236, #324 ) ;
#210 = ORIENTED_EDGE ( 'NONE', *, *, #254, .F. ) ;
#211 = EDGE_CURVE ( 'NONE', #21, #73, #251, .T. ) ;
#212 = CARTESIAN_POINT ( 'NONE',  ( -9.750000000000000000, 0.000000000000000000, 10.00000000000000000 ) ) ;
#213 = ORIENTED_EDGE ( 'NONE', *, *, #230, .T. ) ;
#214 = AXIS2_PLACEMENT_3D ( 'NONE', #275, #10, #219 ) ;
#215 = DIRECTION ( 'NONE',  ( 0.000000000000000000, 0.000000000000000000, 1.000000000000000000 ) ) ;
#216 = EDGE_LOOP ( 'NONE', ( #188, #133, #150, #313 ) ) ;
#217 = FACE_OUTER_BOUND ( 'NONE', #157, .T. ) ;
#218 = DIRECTION ( 'NONE',  ( -0.000000000000000000, -1.000000000000000000, -0.000000000000000000 ) ) ;
#219 = DIRECTION ( 'NONE',  ( 0.000000000000000000, 0.000000000000000000, -1.000000000000000000 ) ) ;
#220 = EDGE_CURVE ( 'NONE', #197, #155, #239, .T. ) ;
#221 = AXIS2_PLACEMENT_3D ( 'NONE', #49, #55, #215 ) ;
#222 = DIRECTION ( 'NONE',  ( 0.000000000000000000, 0.000000000000000000, -1.000000000000000000 ) ) ;
#223 = DIRECTION ( 'NONE',  ( 0.000000000000000000, -1.000000000000000000, 0.000000000000000000 ) ) ;
#224 = EDGE_LOOP ( 'NONE', ( #292, #182 ) ) ;
#225 = CARTESIAN_POINT ( 'NONE',  ( -3.000000000000000000, 1.750000000000001332, 1.352549999999989261 ) ) ;
#226 = EDGE_CURVE ( 'NONE', #268, #315, #61, .T. ) ;
#227 = CARTESIAN_POINT ( 'NONE',  ( 9.750000000000000000, 1.750000000000000000, 10.00000000000000000 ) ) ;
#228 = CIRCLE ( 'NONE', #164, 1.352549999999987929 ) ;
#229 = APPLICATION_PROTOCOL_DEFINITION ( 'draft international standard', 'automotive_design', 1998, #18 ) ;
#230 = EDGE_CURVE ( 'NONE', #272, #268, #331, .T. ) ;
#231 = PRESENTATION_LAYER_ASSIGNMENT (  '', '', ( #42 ) ) ;
#232 = ORIENTED_EDGE ( 'NONE', *, *, #226, .F. ) ;
#233 = CYLINDRICAL_SURFACE ( 'NONE', #203, 1.352549999999987929 ) ;
#234 = ORIENTED_EDGE ( 'NONE', *, *, #202, .T. ) ;
#235 = CIRCLE ( 'NONE', #90, 1.352549999999988817 ) ;
#236 = CARTESIAN_POINT ( 'NONE',  ( 9.750000000000000000, 1.750000000000000000, -10.00000000000000000 ) ) ;
#237 = EDGE_LOOP ( 'NONE', ( #253, #213, #240, #48 ) ) ;
#238 = EDGE_CURVE ( 'NONE', #310, #285, #297, .T. ) ;
#239 = LINE ( 'NONE', #4, #333 ) ;
#240 = ORIENTED_EDGE ( 'NONE', *, *, #226, .T. ) ;
#241 = CARTESIAN_POINT ( 'NONE',  ( -3.000000000000000000, 1.750000000000001332, 3.673940397442060361E-16 ) ) ;
#242 = ORIENTED_EDGE ( 'NONE', *, *, #97, .T. ) ;
#243 = VECTOR ( 'NONE', #167, 1000.000000000000000 ) ;
#244 = DIRECTION ( 'NONE',  ( 1.000000000000000000, 0.000000000000000000, 0.000000000000000000 ) ) ;
#245 = CARTESIAN_POINT ( 'NONE',  ( -9.750000000000000000, 1.750000000000000000, 10.00000000000000000 ) ) ;
#246 = FACE_BOUND ( 'NONE', #328, .T. ) ;
#247 = EDGE_LOOP ( 'NONE', ( #101, #262, #15, #152 ) ) ;
#248 = MANIFOLD_SOLID_BREP ( 'Tap Drill for #6-32 Tap1', #46 ) ;
#249 = PLANE ( 'NONE',  #102 ) ;
#250 = LINE ( 'NONE', #11, #316 ) ;
#251 = CIRCLE ( 'NONE', #99, 1.352549999999987929 ) ;
#252 = LINE ( 'NONE', #255, #147 ) ;
#253 = ORIENTED_EDGE ( 'NONE', *, *, #287, .T. ) ;
#254 = EDGE_CURVE ( 'NONE', #155, #86, #196, .T. ) ;
#255 = CARTESIAN_POINT ( 'NONE',  ( -9.750000000000000000, 0.000000000000000000, -10.00000000000000000 ) ) ;
#256 = DIRECTION ( 'NONE',  ( 0.000000000000000000, 0.000000000000000000, 1.000000000000000000 ) ) ;
#257 = PRODUCT_DEFINITION ( 'UNKNOWN', '', #119, #168 ) ;
#258 = PRODUCT_DEFINITION_SHAPE ( 'NONE', 'NONE',  #257 ) ;
#259 = EDGE_CURVE ( 'NONE', #197, #131, #17, .T. ) ;
#260 = VERTEX_POINT ( 'NONE', #142 ) ;
#261 = DIRECTION ( 'NONE',  ( 0.000000000000000000, 0.000000000000000000, -1.000000000000000000 ) ) ;
#262 = ORIENTED_EDGE ( 'NONE', *, *, #87, .T. ) ;
#263 = FACE_BOUND ( 'NONE', #224, .T. ) ;
#264 = EDGE_CURVE ( 'NONE', #111, #54, #321, .T. ) ;
#265 = ORIENTED_EDGE ( 'NONE', *, *, #230, .F. ) ;
#266 = AXIS2_PLACEMENT_3D ( 'NONE', #32, #23, #261 ) ;
#267 = DIRECTION ( 'NONE',  ( -0.000000000000000000, 1.000000000000000000, -0.000000000000000000 ) ) ;
#268 = VERTEX_POINT ( 'NONE', #144 ) ;
#269 = DIRECTION ( 'NONE',  ( 0.000000000000000000, 0.000000000000000000, -1.000000000000000000 ) ) ;
#270 = EDGE_LOOP ( 'NONE', ( #76, #28 ) ) ;
#271 = DIRECTION ( 'NONE',  ( 0.000000000000000000, -0.000000000000000000, -1.000000000000000000 ) ) ;
#272 = VERTEX_POINT ( 'NONE', #327 ) ;
#273 = AXIS2_PLACEMENT_3D ( 'NONE', #109, #85, #271 ) ;
#274 = DIRECTION ( 'NONE',  ( -0.000000000000000000, -1.000000000000000000, -0.000000000000000000 ) ) ;
#275 = CARTESIAN_POINT ( 'NONE',  ( -3.000000000000000000, 0.000000000000000000, 3.673940397442060361E-16 ) ) ;
#276 = CARTESIAN_POINT ( 'NONE',  ( 3.000000000000000000, 1.750000000000001332, 8.010749087384078097E-16 ) ) ;
#277 = DIRECTION ( 'NONE',  ( -0.000000000000000000, 1.000000000000000000, -0.000000000000000000 ) ) ;
#278 = DIRECTION ( 'NONE',  ( 1.000000000000000000, -0.000000000000000000, 0.000000000000000000 ) ) ;
#279 = VECTOR ( 'NONE', #335, 1000.000000000000000 ) ;
#280 = CARTESIAN_POINT ( 'NONE',  ( 0.000000000000000000, 1.750000000000000000, 0.000000000000000000 ) ) ;
#281 = DIRECTION ( 'NONE',  ( -0.000000000000000000, -0.000000000000000000, 1.000000000000000000 ) ) ;
#282 = VECTOR ( 'NONE', #244, 1000.000000000000000 ) ;
#283 = EDGE_LOOP ( 'NONE', ( #184, #33, #74, #177 ) ) ;
#284 = LINE ( 'NONE', #286, #282 ) ;
#285 = VERTEX_POINT ( 'NONE', #171 ) ;
#286 = CARTESIAN_POINT ( 'NONE',  ( -9.750000000000000000, 1.750000000000000000, 10.00000000000000000 ) ) ;
#287 = EDGE_CURVE ( 'NONE', #260, #272, #228, .T. ) ;
#288 = CARTESIAN_POINT ( 'NONE',  ( -9.750000000000000000, 1.750000000000000000, 10.00000000000000000 ) ) ;
#289 = ORIENTED_EDGE ( 'NONE', *, *, #238, .F. ) ;
#290 = CIRCLE ( 'NONE', #266, 1.352549999999987929 ) ;
#291 = CARTESIAN_POINT ( 'NONE',  ( 9.750000000000000000, 1.750000000000000000, 10.00000000000000000 ) ) ;
#292 = ORIENTED_EDGE ( 'NONE', *, *, #211, .F. ) ;
#293 = CARTESIAN_POINT ( 'NONE',  ( -3.000000000000000000, 1.750000000000000000, 1.352549999999988373 ) ) ;
#294 = CARTESIAN_POINT ( 'NONE',  ( 3.000000000000000000, 0.000000000000000000, 1.352549999999988817 ) ) ;
#295 = DIRECTION ( 'NONE',  ( -0.000000000000000000, -0.000000000000000000, 1.000000000000000000 ) ) ;
#296 = DIRECTION ( 'NONE',  ( 0.000000000000000000, 0.000000000000000000, 1.000000000000000000 ) ) ;
#297 = CIRCLE ( 'NONE', #185, 1.352549999999988817 ) ;
#298 = ORIENTED_EDGE ( 'NONE', *, *, #153, .T. ) ;
#299 = CARTESIAN_POINT ( 'NONE',  ( 9.750000000000000000, 1.750000000000000000, 10.00000000000000000 ) ) ;
#300 = CARTESIAN_POINT ( 'NONE',  ( 3.000000000000000000, 1.750000000000000000, 1.352549999999988817 ) ) ;
#301 = DIRECTION ( 'NONE',  ( 0.000000000000000000, 0.000000000000000000, -1.000000000000000000 ) ) ;
#302 = AXIS2_PLACEMENT_3D ( 'NONE', #151, #161, #319 ) ;
#303 =( NAMED_UNIT ( * ) PLANE_ANGLE_UNIT ( ) SI_UNIT ( $, .RADIAN. ) );
#304 = ADVANCED_FACE ( 'NONE', ( #88, #246, #67 ), #59, .F. ) ;
#305 = SHAPE_DEFINITION_REPRESENTATION ( #258, #56 ) ;
#306 = DIRECTION ( 'NONE',  ( 1.000000000000000000, 0.000000000000000000, 0.000000000000000000 ) ) ;
#307 = AXIS2_PLACEMENT_3D ( 'NONE', #94, #62, #166 ) ;
#308 = ADVANCED_FACE ( 'NONE', ( #35 ), #249, .F. ) ;
#309 = CARTESIAN_POINT ( 'NONE',  ( -9.750000000000000000, 0.000000000000000000, -10.00000000000000000 ) ) ;
#310 = VERTEX_POINT ( 'NONE', #140 ) ;
#311 = EDGE_CURVE ( 'NONE', #205, #155, #252, .T. ) ;
#312 = CARTESIAN_POINT ( 'NONE',  ( 9.750000000000000000, 0.000000000000000000, -10.00000000000000000 ) ) ;
#313 = ORIENTED_EDGE ( 'NONE', *, *, #180, .T. ) ;
#314 = DIRECTION ( 'NONE',  ( -0.000000000000000000, -1.000000000000000000, -0.000000000000000000 ) ) ;
#315 = VERTEX_POINT ( 'NONE', #225 ) ;
#316 = VECTOR ( 'NONE', #326, 1000.000000000000000 ) ;
#317 = FACE_BOUND ( 'NONE', #270, .T. ) ;
#318 = FACE_OUTER_BOUND ( 'NONE', #283, .T. ) ;
#319 = DIRECTION ( 'NONE',  ( 0.000000000000000000, 0.000000000000000000, 1.000000000000000000 ) ) ;
#320 = PLANE ( 'NONE',  #110 ) ;
#321 = LINE ( 'NONE', #227, #47 ) ;
#322 = CARTESIAN_POINT ( 'NONE',  ( 3.000000000000000000, 0.000000000000000000, -1.352549999999987040 ) ) ;
#323 = ADVANCED_FACE ( 'NONE', ( #329 ), #193, .F. ) ;
#324 = VECTOR ( 'NONE', #27, 1000.000000000000000 ) ;
#325 = DIRECTION ( 'NONE',  ( -0.000000000000000000, 1.000000000000000000, -0.000000000000000000 ) ) ;
#326 = DIRECTION ( 'NONE',  ( -0.000000000000000000, 1.000000000000000000, -0.000000000000000000 ) ) ;
#327 = CARTESIAN_POINT ( 'NONE',  ( -3.000000000000000000, 0.000000000000000000, -1.352549999999987485 ) ) ;
#328 = EDGE_LOOP ( 'NONE', ( #106, #289 ) ) ;
#329 = FACE_OUTER_BOUND ( 'NONE', #24, .T. ) ;
#330 = AXIS2_PLACEMENT_3D ( 'NONE', #9, #141, #296 ) ;
#331 = LINE ( 'NONE', #64, #34 ) ;
#332 =( NAMED_UNIT ( * ) SI_UNIT ( $, .STERADIAN. ) SOLID_ANGLE_UNIT ( ) );
#333 = VECTOR ( 'NONE', #314, 1000.000000000000000 ) ;
#334 = EDGE_LOOP ( 'NONE', ( #115, #232 ) ) ;
#335 = DIRECTION ( 'NONE',  ( -0.000000000000000000, 1.000000000000000000, -0.000000000000000000 ) ) ;
ENDSEC;
END-ISO-10303-21;
