ISO-10303-21;
HEADER;
FILE_DESCRIPTION (( 'STEP AP214' ),
    '1' );
FILE_NAME ('P001-B122-Magnet Ring Bearing Adaptor.STEP',
    '2026-05-07T22:23:50',
    ( '' ),
    ( '' ),
    'SwSTEP 2.0',
    'SolidWorks 2026',
    '' );
FILE_SCHEMA (( 'AUTOMOTIVE_DESIGN' ));
ENDSEC;

DATA;
#1 = VERTEX_POINT ( 'NONE', #39 ) ;
#2 = ORIENTED_EDGE ( 'NONE', *, *, #110, .F. ) ;
#3 = AXIS2_PLACEMENT_3D ( 'NONE', #155, #20, #21 ) ;
#4 = ORIENTED_EDGE ( 'NONE', *, *, #180, .F. ) ;
#5 = UNCERTAINTY_MEASURE_WITH_UNIT (LENGTH_MEASURE( 1.000000000000000082E-05 ), #146, 'distance_accuracy_value', 'NONE');
#6 = SURFACE_SIDE_STYLE ('',( #67 ) ) ;
#7 = FACE_OUTER_BOUND ( 'NONE', #69, .T. ) ;
#8 = CYLINDRICAL_SURFACE ( 'NONE', #132, 4.000000000000000000 ) ;
#9 = PRODUCT ( 'P001-B122-Magnet Ring Bearing Adaptor', 'P001-B122-Magnet Ring Bearing Adaptor', '', ( #159 ) ) ;
#10 = APPLICATION_PROTOCOL_DEFINITION ( 'draft international standard', 'automotive_design', 1998, #173 ) ;
#11 =( GEOMETRIC_REPRESENTATION_CONTEXT ( 3 ) GLOBAL_UNCERTAINTY_ASSIGNED_CONTEXT ( ( #5 ) ) GLOBAL_UNIT_ASSIGNED_CONTEXT ( ( #146, #128, #196 ) ) REPRESENTATION_CONTEXT ( 'NONE', 'WORKASPACE' ) );
#12 = CARTESIAN_POINT ( 'NONE',  ( 0.000000000000000000, 1.899999999999999911, 0.000000000000000000 ) ) ;
#13 = LINE ( 'NONE', #51, #98 ) ;
#14 = CARTESIAN_POINT ( 'NONE',  ( 0.000000000000000000, 0.000000000000000000, 0.000000000000000000 ) ) ;
#15 = DIRECTION ( 'NONE',  ( 0.000000000000000000, -0.000000000000000000, 1.000000000000000000 ) ) ;
#16 = ORIENTED_EDGE ( 'NONE', *, *, #139, .F. ) ;
#17 = EDGE_LOOP ( 'NONE', ( #30, #164 ) ) ;
#18 = CARTESIAN_POINT ( 'NONE',  ( 0.000000000000000000, 1.899999999999999911, 0.000000000000000000 ) ) ;
#19 = EDGE_CURVE ( 'NONE', #52, #1, #70, .T. ) ;
#20 = DIRECTION ( 'NONE',  ( 0.000000000000000000, 1.000000000000000000, 0.000000000000000000 ) ) ;
#21 = DIRECTION ( 'NONE',  ( 0.000000000000000000, 0.000000000000000000, 1.000000000000000000 ) ) ;
#22 = AXIS2_PLACEMENT_3D ( 'NONE', #18, #174, #24 ) ;
#23 = DIRECTION ( 'NONE',  ( -0.000000000000000000, -1.000000000000000000, -0.000000000000000000 ) ) ;
#24 = DIRECTION ( 'NONE',  ( 0.000000000000000000, 0.000000000000000000, 1.000000000000000000 ) ) ;
#25 = ORIENTED_EDGE ( 'NONE', *, *, #169, .T. ) ;
#26 = COLOUR_RGB ( '',0.7921568627450980005, 0.8196078431372548767, 0.9333333333333333481 ) ;
#27 = VERTEX_POINT ( 'NONE', #115 ) ;
#28 = EDGE_CURVE ( 'NONE', #165, #182, #57, .T. ) ;
#29 = EDGE_LOOP ( 'NONE', ( #103, #163, #126, #185 ) ) ;
#30 = ORIENTED_EDGE ( 'NONE', *, *, #76, .T. ) ;
#31 = ORIENTED_EDGE ( 'NONE', *, *, #181, .T. ) ;
#32 = DIRECTION ( 'NONE',  ( 0.000000000000000000, 0.000000000000000000, 1.000000000000000000 ) ) ;
#33 = DIRECTION ( 'NONE',  ( 0.000000000000000000, 0.000000000000000000, -1.000000000000000000 ) ) ;
#34 = DIRECTION ( 'NONE',  ( 0.000000000000000000, 1.000000000000000000, 0.000000000000000000 ) ) ;
#35 = AXIS2_PLACEMENT_3D ( 'NONE', #77, #75, #32 ) ;
#36 = ADVANCED_BREP_SHAPE_REPRESENTATION ( 'P001-B122-Magnet Ring Bearing Adaptor', ( #188, #127 ), #166 ) ;
#37 = CIRCLE ( 'NONE', #108, 4.000000000000000000 ) ;
#38 = EDGE_LOOP ( 'NONE', ( #99, #198, #162, #130 ) ) ;
#39 = CARTESIAN_POINT ( 'NONE',  ( 0.000000000000000000, 0.000000000000000000, -4.000000000000000000 ) ) ;
#40 = PRESENTATION_LAYER_ASSIGNMENT (  '', '', ( #56 ) ) ;
#41 = ORIENTED_EDGE ( 'NONE', *, *, #28, .F. ) ;
#42 = UNCERTAINTY_MEASURE_WITH_UNIT (LENGTH_MEASURE( 1.000000000000000082E-05 ), #68, 'distance_accuracy_value', 'NONE');
#43 = FACE_OUTER_BOUND ( 'NONE', #29, .T. ) ;
#44 = VERTEX_POINT ( 'NONE', #133 ) ;
#45 = FILL_AREA_STYLE_COLOUR ( '', #26 ) ;
#46 = VECTOR ( 'NONE', #150, 1000.000000000000000 ) ;
#47 = PRODUCT_DEFINITION_CONTEXT ( 'detailed design', #173, 'design' ) ;
#48 = DIRECTION ( 'NONE',  ( -0.000000000000000000, -1.000000000000000000, -0.000000000000000000 ) ) ;
#49 = CYLINDRICAL_SURFACE ( 'NONE', #189, 1.500000000000000222 ) ;
#50 = VECTOR ( 'NONE', #85, 1000.000000000000000 ) ;
#51 = CARTESIAN_POINT ( 'NONE',  ( 0.000000000000000000, 1.899999999999999911, -1.500000000000000222 ) ) ;
#52 = VERTEX_POINT ( 'NONE', #129 ) ;
#53 = ADVANCED_FACE ( 'NONE', ( #131, #151 ), #199, .F. ) ;
#54 = VERTEX_POINT ( 'NONE', #117 ) ;
#55 = EDGE_LOOP ( 'NONE', ( #114, #73 ) ) ;
#56 = STYLED_ITEM ( 'NONE', ( #144 ), #188 ) ;
#57 = LINE ( 'NONE', #86, #46 ) ;
#58 = DIRECTION ( 'NONE',  ( -0.000000000000000000, -1.000000000000000000, -0.000000000000000000 ) ) ;
#59 = CARTESIAN_POINT ( 'NONE',  ( 0.000000000000000000, 1.899999999999999911, 0.000000000000000000 ) ) ;
#60 = CYLINDRICAL_SURFACE ( 'NONE', #143, 1.500000000000000222 ) ;
#61 = AXIS2_PLACEMENT_3D ( 'NONE', #12, #123, #109 ) ;
#62 = ADVANCED_FACE ( 'NONE', ( #43 ), #104, .T. ) ;
#63 = DIRECTION ( 'NONE',  ( 0.000000000000000000, 0.000000000000000000, -1.000000000000000000 ) ) ;
#64 = ADVANCED_FACE ( 'NONE', ( #78, #178 ), #167, .T. ) ;
#65 = AXIS2_PLACEMENT_3D ( 'NONE', #87, #58, #105 ) ;
#66 = DIRECTION ( 'NONE',  ( 0.000000000000000000, 0.000000000000000000, 1.000000000000000000 ) ) ;
#67 = SURFACE_STYLE_FILL_AREA ( #74 ) ;
#68 =( LENGTH_UNIT ( ) NAMED_UNIT ( * ) SI_UNIT ( .MILLI., .METRE. ) );
#69 = EDGE_LOOP ( 'NONE', ( #41, #25, #145, #4 ) ) ;
#70 = LINE ( 'NONE', #101, #50 ) ;
#71 = ORIENTED_EDGE ( 'NONE', *, *, #28, .T. ) ;
#72 = ORIENTED_EDGE ( 'NONE', *, *, #161, .T. ) ;
#73 = ORIENTED_EDGE ( 'NONE', *, *, #169, .F. ) ;
#74 = FILL_AREA_STYLE ('',( #45 ) ) ;
#75 = DIRECTION ( 'NONE',  ( 0.000000000000000000, 1.000000000000000000, 0.000000000000000000 ) ) ;
#76 = EDGE_CURVE ( 'NONE', #54, #182, #176, .T. ) ;
#77 = CARTESIAN_POINT ( 'NONE',  ( 0.000000000000000000, 0.000000000000000000, 0.000000000000000000 ) ) ;
#78 = FACE_OUTER_BOUND ( 'NONE', #149, .T. ) ;
#79 = AXIS2_PLACEMENT_3D ( 'NONE', #14, #183, #15 ) ;
#80 = CARTESIAN_POINT ( 'NONE',  ( 0.000000000000000000, 0.000000000000000000, 0.000000000000000000 ) ) ;
#81 = ADVANCED_FACE ( 'NONE', ( #138 ), #8, .T. ) ;
#82 =( NAMED_UNIT ( * ) SI_UNIT ( $, .STERADIAN. ) SOLID_ANGLE_UNIT ( ) );
#83 = EDGE_LOOP ( 'NONE', ( #147, #71, #118, #2 ) ) ;
#84 = AXIS2_PLACEMENT_3D ( 'NONE', #153, #34, #97 ) ;
#85 = DIRECTION ( 'NONE',  ( -0.000000000000000000, -1.000000000000000000, -0.000000000000000000 ) ) ;
#86 = CARTESIAN_POINT ( 'NONE',  ( 1.836970198721029934E-16, 1.899999999999999911, 1.500000000000000222 ) ) ;
#87 = CARTESIAN_POINT ( 'NONE',  ( 0.000000000000000000, 1.899999999999999911, 0.000000000000000000 ) ) ;
#88 = CIRCLE ( 'NONE', #194, 1.500000000000000222 ) ;
#89 = DIRECTION ( 'NONE',  ( 0.000000000000000000, 0.000000000000000000, 1.000000000000000000 ) ) ;
#90 = DIRECTION ( 'NONE',  ( -0.000000000000000000, -1.000000000000000000, -0.000000000000000000 ) ) ;
#91 = EDGE_CURVE ( 'NONE', #116, #27, #106, .T. ) ;
#92 = PRODUCT_DEFINITION_SHAPE ( 'NONE', 'NONE',  #195 ) ;
#93 = DIRECTION ( 'NONE',  ( 0.000000000000000000, 1.000000000000000000, 0.000000000000000000 ) ) ;
#94 = APPLICATION_CONTEXT ( 'automotive_design' ) ;
#95 = VECTOR ( 'NONE', #90, 1000.000000000000000 ) ;
#96 = SHAPE_DEFINITION_REPRESENTATION ( #92, #36 ) ;
#97 = DIRECTION ( 'NONE',  ( 0.000000000000000000, 0.000000000000000000, 1.000000000000000000 ) ) ;
#98 = VECTOR ( 'NONE', #107, 1000.000000000000000 ) ;
#99 = ORIENTED_EDGE ( 'NONE', *, *, #91, .F. ) ;
#100 = APPLICATION_PROTOCOL_DEFINITION ( 'draft international standard', 'automotive_design', 1998, #94 ) ;
#101 = CARTESIAN_POINT ( 'NONE',  ( 0.000000000000000000, 1.899999999999999911, -4.000000000000000000 ) ) ;
#102 = CIRCLE ( 'NONE', #61, 1.500000000000000222 ) ;
#103 = ORIENTED_EDGE ( 'NONE', *, *, #181, .F. ) ;
#104 = CYLINDRICAL_SURFACE ( 'NONE', #65, 4.000000000000000000 ) ;
#105 = DIRECTION ( 'NONE',  ( 0.000000000000000000, 0.000000000000000000, -1.000000000000000000 ) ) ;
#106 = LINE ( 'NONE', #121, #95 ) ;
#107 = DIRECTION ( 'NONE',  ( -0.000000000000000000, -1.000000000000000000, -0.000000000000000000 ) ) ;
#108 = AXIS2_PLACEMENT_3D ( 'NONE', #168, #93, #89 ) ;
#109 = DIRECTION ( 'NONE',  ( 0.000000000000000000, 0.000000000000000000, 1.000000000000000000 ) ) ;
#110 = EDGE_CURVE ( 'NONE', #44, #54, #13, .T. ) ;
#111 = CIRCLE ( 'NONE', #22, 4.000000000000000000 ) ;
#112 = FACE_OUTER_BOUND ( 'NONE', #83, .T. ) ;
#113 =( NAMED_UNIT ( * ) PLANE_ANGLE_UNIT ( ) SI_UNIT ( $, .RADIAN. ) );
#114 = ORIENTED_EDGE ( 'NONE', *, *, #170, .F. ) ;
#115 = CARTESIAN_POINT ( 'NONE',  ( 4.898587196589411843E-16, 0.000000000000000000, 4.000000000000000000 ) ) ;
#116 = VERTEX_POINT ( 'NONE', #171 ) ;
#117 = CARTESIAN_POINT ( 'NONE',  ( 0.000000000000000000, 0.000000000000000000, -1.500000000000000222 ) ) ;
#118 = ORIENTED_EDGE ( 'NONE', *, *, #76, .F. ) ;
#119 = CARTESIAN_POINT ( 'NONE',  ( 0.000000000000000000, 1.899999999999999911, 0.000000000000000000 ) ) ;
#120 = CARTESIAN_POINT ( 'NONE',  ( 0.000000000000000000, 1.899999999999999911, 0.000000000000000000 ) ) ;
#121 = CARTESIAN_POINT ( 'NONE',  ( 4.898587196589411843E-16, 1.899999999999999911, 4.000000000000000000 ) ) ;
#122 = CIRCLE ( 'NONE', #84, 4.000000000000000000 ) ;
#123 = DIRECTION ( 'NONE',  ( 0.000000000000000000, 1.000000000000000000, 0.000000000000000000 ) ) ;
#124 = CARTESIAN_POINT ( 'NONE',  ( 0.000000000000000000, 1.899999999999999911, 0.000000000000000000 ) ) ;
#125 = DIRECTION ( 'NONE',  ( 0.000000000000000000, 0.000000000000000000, 1.000000000000000000 ) ) ;
#126 = ORIENTED_EDGE ( 'NONE', *, *, #148, .T. ) ;
#127 = AXIS2_PLACEMENT_3D ( 'NONE', #177, #125, #142 ) ;
#128 =( NAMED_UNIT ( * ) PLANE_ANGLE_UNIT ( ) SI_UNIT ( $, .RADIAN. ) );
#129 = CARTESIAN_POINT ( 'NONE',  ( 0.000000000000000000, 1.899999999999999911, -4.000000000000000000 ) ) ;
#130 = ORIENTED_EDGE ( 'NONE', *, *, #139, .T. ) ;
#131 = FACE_OUTER_BOUND ( 'NONE', #184, .T. ) ;
#132 = AXIS2_PLACEMENT_3D ( 'NONE', #124, #48, #63 ) ;
#133 = CARTESIAN_POINT ( 'NONE',  ( 0.000000000000000000, 1.899999999999999911, -1.500000000000000222 ) ) ;
#134 = PRODUCT_RELATED_PRODUCT_CATEGORY ( 'part', '', ( #9 ) ) ;
#135 = SURFACE_STYLE_USAGE ( .BOTH. , #6 ) ;
#136 = CARTESIAN_POINT ( 'NONE',  ( 0.000000000000000000, 1.899999999999999911, 0.000000000000000000 ) ) ;
#137 = MECHANICAL_DESIGN_GEOMETRIC_PRESENTATION_REPRESENTATION (  '', ( #56 ), #11 ) ;
#138 = FACE_OUTER_BOUND ( 'NONE', #38, .T. ) ;
#139 = EDGE_CURVE ( 'NONE', #1, #27, #122, .T. ) ;
#140 = DIRECTION ( 'NONE',  ( 0.000000000000000000, 0.000000000000000000, -1.000000000000000000 ) ) ;
#141 = CARTESIAN_POINT ( 'NONE',  ( 1.836970198721029934E-16, 0.000000000000000000, 1.500000000000000222 ) ) ;
#142 = DIRECTION ( 'NONE',  ( 1.000000000000000000, 0.000000000000000000, 0.000000000000000000 ) ) ;
#143 = AXIS2_PLACEMENT_3D ( 'NONE', #120, #23, #33 ) ;
#144 = PRESENTATION_STYLE_ASSIGNMENT (( #135 ) ) ;
#145 = ORIENTED_EDGE ( 'NONE', *, *, #110, .T. ) ;
#146 =( LENGTH_UNIT ( ) NAMED_UNIT ( * ) SI_UNIT ( .MILLI., .METRE. ) );
#147 = ORIENTED_EDGE ( 'NONE', *, *, #170, .T. ) ;
#148 = EDGE_CURVE ( 'NONE', #27, #1, #197, .T. ) ;
#149 = EDGE_LOOP ( 'NONE', ( #72, #31 ) ) ;
#150 = DIRECTION ( 'NONE',  ( -0.000000000000000000, -1.000000000000000000, -0.000000000000000000 ) ) ;
#151 = FACE_BOUND ( 'NONE', #17, .T. ) ;
#152 = DIRECTION ( 'NONE',  ( 0.000000000000000000, 1.000000000000000000, 0.000000000000000000 ) ) ;
#153 = CARTESIAN_POINT ( 'NONE',  ( 0.000000000000000000, 0.000000000000000000, 0.000000000000000000 ) ) ;
#154 = DIRECTION ( 'NONE',  ( 0.000000000000000000, 1.000000000000000000, 0.000000000000000000 ) ) ;
#155 = CARTESIAN_POINT ( 'NONE',  ( 0.000000000000000000, 0.000000000000000000, 0.000000000000000000 ) ) ;
#156 = ADVANCED_FACE ( 'NONE', ( #112 ), #49, .F. ) ;
#157 = PRODUCT_DEFINITION_FORMATION_WITH_SPECIFIED_SOURCE ( 'ANY', '', #9, .NOT_KNOWN. ) ;
#158 = DIRECTION ( 'NONE',  ( 0.000000000000000000, -0.000000000000000000, 1.000000000000000000 ) ) ;
#159 = PRODUCT_CONTEXT ( 'NONE', #94, 'mechanical' ) ;
#160 = ADVANCED_FACE ( 'NONE', ( #7 ), #60, .F. ) ;
#161 = EDGE_CURVE ( 'NONE', #52, #116, #37, .T. ) ;
#162 = ORIENTED_EDGE ( 'NONE', *, *, #19, .T. ) ;
#163 = ORIENTED_EDGE ( 'NONE', *, *, #91, .T. ) ;
#164 = ORIENTED_EDGE ( 'NONE', *, *, #180, .T. ) ;
#165 = VERTEX_POINT ( 'NONE', #190 ) ;
#166 =( GEOMETRIC_REPRESENTATION_CONTEXT ( 3 ) GLOBAL_UNCERTAINTY_ASSIGNED_CONTEXT ( ( #42 ) ) GLOBAL_UNIT_ASSIGNED_CONTEXT ( ( #68, #113, #82 ) ) REPRESENTATION_CONTEXT ( 'NONE', 'WORKASPACE' ) );
#167 = PLANE ( 'NONE',  #179 ) ;
#168 = CARTESIAN_POINT ( 'NONE',  ( 0.000000000000000000, 1.899999999999999911, 0.000000000000000000 ) ) ;
#169 = EDGE_CURVE ( 'NONE', #165, #44, #88, .T. ) ;
#170 = EDGE_CURVE ( 'NONE', #44, #165, #102, .T. ) ;
#171 = CARTESIAN_POINT ( 'NONE',  ( 4.898587196589411843E-16, 1.899999999999999911, 4.000000000000000000 ) ) ;
#172 = CIRCLE ( 'NONE', #193, 1.500000000000000222 ) ;
#173 = APPLICATION_CONTEXT ( 'automotive_design' ) ;
#174 = DIRECTION ( 'NONE',  ( 0.000000000000000000, 1.000000000000000000, 0.000000000000000000 ) ) ;
#175 = CLOSED_SHELL ( 'NONE', ( #156, #62, #64, #53, #81, #160 ) ) ;
#176 = CIRCLE ( 'NONE', #35, 1.500000000000000222 ) ;
#177 = CARTESIAN_POINT ( 'NONE',  ( 0.000000000000000000, 0.000000000000000000, 0.000000000000000000 ) ) ;
#178 = FACE_BOUND ( 'NONE', #55, .T. ) ;
#179 = AXIS2_PLACEMENT_3D ( 'NONE', #59, #192, #158 ) ;
#180 = EDGE_CURVE ( 'NONE', #182, #54, #172, .T. ) ;
#181 = EDGE_CURVE ( 'NONE', #116, #52, #111, .T. ) ;
#182 = VERTEX_POINT ( 'NONE', #141 ) ;
#183 = DIRECTION ( 'NONE',  ( 0.000000000000000000, 1.000000000000000000, 0.000000000000000000 ) ) ;
#184 = EDGE_LOOP ( 'NONE', ( #16, #186 ) ) ;
#185 = ORIENTED_EDGE ( 'NONE', *, *, #19, .F. ) ;
#186 = ORIENTED_EDGE ( 'NONE', *, *, #148, .F. ) ;
#187 = DIRECTION ( 'NONE',  ( -0.000000000000000000, -1.000000000000000000, -0.000000000000000000 ) ) ;
#188 = MANIFOLD_SOLID_BREP ( 'Boss-Extrude1', #175 ) ;
#189 = AXIS2_PLACEMENT_3D ( 'NONE', #136, #187, #140 ) ;
#190 = CARTESIAN_POINT ( 'NONE',  ( 1.836970198721029934E-16, 1.899999999999999911, 1.500000000000000222 ) ) ;
#191 = DIRECTION ( 'NONE',  ( 0.000000000000000000, 0.000000000000000000, 1.000000000000000000 ) ) ;
#192 = DIRECTION ( 'NONE',  ( 0.000000000000000000, 1.000000000000000000, 0.000000000000000000 ) ) ;
#193 = AXIS2_PLACEMENT_3D ( 'NONE', #80, #154, #191 ) ;
#194 = AXIS2_PLACEMENT_3D ( 'NONE', #119, #152, #66 ) ;
#195 = PRODUCT_DEFINITION ( 'UNKNOWN', '', #157, #47 ) ;
#196 =( NAMED_UNIT ( * ) SI_UNIT ( $, .STERADIAN. ) SOLID_ANGLE_UNIT ( ) );
#197 = CIRCLE ( 'NONE', #3, 4.000000000000000000 ) ;
#198 = ORIENTED_EDGE ( 'NONE', *, *, #161, .F. ) ;
#199 = PLANE ( 'NONE',  #79 ) ;
ENDSEC;
END-ISO-10303-21;
