ISO-10303-21;
HEADER;
FILE_DESCRIPTION (( 'STEP AP214' ),
    '1' );
FILE_NAME ('P001-B102_MagnetHolderRing_Rev2C_5.STEP',
    '2026-04-21T06:46:36',
    ( '' ),
    ( '' ),
    'SwSTEP 2.0',
    'SolidWorks 2026',
    '' );
FILE_SCHEMA (( 'AUTOMOTIVE_DESIGN' ));
ENDSEC;

DATA;
#1 = EDGE_LOOP ( 'NONE', ( #134, #366, #862, #876 ) ) ;
#2 = EDGE_LOOP ( 'NONE', ( #48, #852, #226, #638 ) ) ;
#3 = DIRECTION ( 'NONE',  ( 0.000000000000000000, 0.000000000000000000, 1.000000000000000000 ) ) ;
#4 = CARTESIAN_POINT ( 'NONE',  ( -2.325000000000046807, 4.027018127597611574, 0.000000000000000000 ) ) ;
#5 = ORIENTED_EDGE ( 'NONE', *, *, #529, .T. ) ;
#6 = ORIENTED_EDGE ( 'NONE', *, *, #555, .T. ) ;
#7 = FACE_OUTER_BOUND ( 'NONE', #139, .T. ) ;
#8 = DIRECTION ( 'NONE',  ( -0.000000000000000000, -0.000000000000000000, -1.000000000000000000 ) ) ;
#9 = ORIENTED_EDGE ( 'NONE', *, *, #738, .F. ) ;
#10 = ORIENTED_EDGE ( 'NONE', *, *, #229, .T. ) ;
#11 = CARTESIAN_POINT ( 'NONE',  ( 8.385254915624212657, 2.500000000000002220, 5.000000000000000000 ) ) ;
#12 = VECTOR ( 'NONE', #3, 1000.000000000000000 ) ;
#13 = DIRECTION ( 'NONE',  ( 1.000000000000000000, 0.000000000000000000, 0.000000000000000000 ) ) ;
#14 = VERTEX_POINT ( 'NONE', #814 ) ;
#15 = ADVANCED_FACE ( 'NONE', ( #156 ), #170, .T. ) ;
#16 = AXIS2_PLACEMENT_3D ( 'NONE', #750, #107, #396 ) ;
#17 = CARTESIAN_POINT ( 'NONE',  ( -6.357690967273188498, -6.011843774138924346, 5.000000000000000000 ) ) ;
#18 = CARTESIAN_POINT ( 'NONE',  ( -4.649999999999999467, 2.499999999999998668, 5.000000000000000000 ) ) ;
#19 = ORIENTED_EDGE ( 'NONE', *, *, #369, .T. ) ;
#20 = DIRECTION ( 'NONE',  ( -0.5000000000000039968, 0.8660254037844363761, 0.000000000000000000 ) ) ;
#21 = LINE ( 'NONE', #234, #233 ) ;
#22 = EDGE_LOOP ( 'NONE', ( #87, #713, #562, #843 ) ) ;
#23 = EDGE_CURVE ( 'NONE', #846, #449, #375, .T. ) ;
#24 = CARTESIAN_POINT ( 'NONE',  ( -0.1599364905388893088, -5.277018127597641772, 5.000000000000000000 ) ) ;
#25 = CARTESIAN_POINT ( 'NONE',  ( -4.649999999999999467, 2.499999999999998668, 5.000000000000000000 ) ) ;
#26 = EDGE_CURVE ( 'NONE', #206, #743, #452, .T. ) ;
#27 = AXIS2_PLACEMENT_3D ( 'NONE', #839, #916, #554 ) ;
#28 = ORIENTED_EDGE ( 'NONE', *, *, #544, .T. ) ;
#29 = CIRCLE ( 'NONE', #16, 8.750000000000001776 ) ;
#30 = FACE_OUTER_BOUND ( 'NONE', #304, .T. ) ;
#31 = AXIS2_PLACEMENT_3D ( 'NONE', #132, #700, #186 ) ;
#32 = CARTESIAN_POINT ( 'NONE',  ( 0.000000000000000000, 0.000000000000000000, -5.000000000000000000 ) ) ;
#33 = DIRECTION ( 'NONE',  ( 1.000000000000000000, 0.000000000000000000, -0.000000000000000000 ) ) ;
#34 = ORIENTED_EDGE ( 'NONE', *, *, #928, .T. ) ;
#35 = CARTESIAN_POINT ( 'NONE',  ( -4.490063509461088564, -2.777018127597650654, -5.000000000000000000 ) ) ;
#36 = CARTESIAN_POINT ( 'NONE',  ( -4.490063509461088564, -2.777018127597650654, 5.000000000000000000 ) ) ;
#37 = VERTEX_POINT ( 'NONE', #820 ) ;
#38 = FACE_OUTER_BOUND ( 'NONE', #425, .T. ) ;
#39 = CARTESIAN_POINT ( 'NONE',  ( 2.324999999999962430, 4.027018127597661312, 0.000000000000000000 ) ) ;
#40 = DIRECTION ( 'NONE',  ( 0.000000000000000000, 0.000000000000000000, -1.000000000000000000 ) ) ;
#41 = VECTOR ( 'NONE', #92, 1000.000000000000114 ) ;
#42 = EDGE_LOOP ( 'NONE', ( #804, #415, #510, #157 ) ) ;
#43 = VECTOR ( 'NONE', #8, 1000.000000000000000 ) ;
#44 = DIRECTION ( 'NONE',  ( -0.000000000000000000, -0.000000000000000000, -1.000000000000000000 ) ) ;
#45 = CARTESIAN_POINT ( 'NONE',  ( 2.027563948351049916, -8.511843774138899477, -5.000000000000000000 ) ) ;
#46 = CARTESIAN_POINT ( 'NONE',  ( -4.649999999999999467, -2.500000000000002220, 5.000000000000000000 ) ) ;
#47 = VERTEX_POINT ( 'NONE', #187 ) ;
#48 = ORIENTED_EDGE ( 'NONE', *, *, #926, .F. ) ;
#49 = LINE ( 'NONE', #853, #441 ) ;
#50 = CARTESIAN_POINT ( 'NONE',  ( -0.1599364905389656366, 5.277018127597635555, -5.000000000000000000 ) ) ;
#51 = ADVANCED_FACE ( 'NONE', ( #817, #533 ), #757, .T. ) ;
#52 = ORIENTED_EDGE ( 'NONE', *, *, #327, .F. ) ;
#53 = CARTESIAN_POINT ( 'NONE',  ( 4.649999999999999467, -2.499999999999998668, 5.000000000000000000 ) ) ;
#54 = FACE_OUTER_BOUND ( 'NONE', #914, .T. ) ;
#55 = EDGE_CURVE ( 'NONE', #192, #14, #112, .T. ) ;
#56 = EDGE_LOOP ( 'NONE', ( #428, #469, #149, #95 ) ) ;
#57 = VECTOR ( 'NONE', #874, 1000.000000000000000 ) ;
#58 = CIRCLE ( 'NONE', #262, 8.750000000000001776 ) ;
#59 = VERTEX_POINT ( 'NONE', #618 ) ;
#60 = DIRECTION ( 'NONE',  ( 0.5000000000000039968, -0.8660254037844363761, 0.000000000000000000 ) ) ;
#61 = DIRECTION ( 'NONE',  ( -1.000000000000000000, 0.000000000000000000, 0.000000000000000000 ) ) ;
#62 = ORIENTED_EDGE ( 'NONE', *, *, #527, .F. ) ;
#63 = ORIENTED_EDGE ( 'NONE', *, *, #567, .F. ) ;
#64 = CARTESIAN_POINT ( 'NONE',  ( 0.1599364905388524494, 5.277018127597640884, 5.000000000000000000 ) ) ;
#65 = DIRECTION ( 'NONE',  ( -0.4999999999999980016, -0.8660254037844398178, 0.000000000000000000 ) ) ;
#66 = ORIENTED_EDGE ( 'NONE', *, *, #151, .F. ) ;
#67 = EDGE_CURVE ( 'NONE', #152, #791, #689, .T. ) ;
#68 = ORIENTED_EDGE ( 'NONE', *, *, #500, .F. ) ;
#69 = CARTESIAN_POINT ( 'NONE',  ( 6.357690967273232907, -6.011843774138875496, -5.000000000000000000 ) ) ;
#70 = CYLINDRICAL_SURFACE ( 'NONE', #27, 8.750000000000001776 ) ;
#71 = ORIENTED_EDGE ( 'NONE', *, *, #414, .T. ) ;
#72 = STYLED_ITEM ( 'NONE', ( #237 ), #873 ) ;
#73 = VECTOR ( 'NONE', #850, 1000.000000000000000 ) ;
#74 = DIRECTION ( 'NONE',  ( -0.8660254037844432595, 0.4999999999999919509, 0.000000000000000000 ) ) ;
#75 = DIRECTION ( 'NONE',  ( -1.000000000000000000, 0.000000000000000000, 0.000000000000000000 ) ) ;
#76 = ORIENTED_EDGE ( 'NONE', *, *, #83, .F. ) ;
#77 = ORIENTED_EDGE ( 'NONE', *, *, #121, .T. ) ;
#78 = DIRECTION ( 'NONE',  ( 0.8660254037844363761, 0.5000000000000039968, -0.000000000000000000 ) ) ;
#79 = DIRECTION ( 'NONE',  ( 1.000000000000000000, 0.000000000000000000, 0.000000000000000000 ) ) ;
#80 = ORIENTED_EDGE ( 'NONE', *, *, #314, .F. ) ;
#81 = ORIENTED_EDGE ( 'NONE', *, *, #828, .T. ) ;
#82 = DIRECTION ( 'NONE',  ( 1.000000000000000000, 0.000000000000000000, 0.000000000000000000 ) ) ;
#83 = EDGE_CURVE ( 'NONE', #633, #908, #481, .T. ) ;
#84 = LINE ( 'NONE', #451, #403 ) ;
#85 = EDGE_CURVE ( 'NONE', #930, #788, #761, .T. ) ;
#86 = DIRECTION ( 'NONE',  ( -0.8660254037844328234, -0.5000000000000101030, 0.000000000000000000 ) ) ;
#87 = ORIENTED_EDGE ( 'NONE', *, *, #67, .F. ) ;
#88 = CARTESIAN_POINT ( 'NONE',  ( 4.649999999999999467, 2.500000000000002220, -5.000000000000000000 ) ) ;
#89 = LINE ( 'NONE', #164, #811 ) ;
#90 = VECTOR ( 'NONE', #91, 1000.000000000000114 ) ;
#91 = DIRECTION ( 'NONE',  ( -0.4999999999999979461, -0.8660254037844397068, 0.000000000000000000 ) ) ;
#92 = DIRECTION ( 'NONE',  ( -0.4999999999999979461, -0.8660254037844397068, 0.000000000000000000 ) ) ;
#93 = DIRECTION ( 'NONE',  ( 0.8660254037844328234, 0.5000000000000101030, 0.000000000000000000 ) ) ;
#94 = EDGE_CURVE ( 'NONE', #270, #619, #318, .T. ) ;
#95 = ORIENTED_EDGE ( 'NONE', *, *, #94, .F. ) ;
#96 = ADVANCED_FACE ( 'NONE', ( #104 ), #752, .T. ) ;
#97 = EDGE_CURVE ( 'NONE', #927, #442, #255, .T. ) ;
#98 = DIRECTION ( 'NONE',  ( 0.000000000000000000, 1.000000000000000000, 0.000000000000000000 ) ) ;
#99 = DIRECTION ( 'NONE',  ( 0.000000000000000000, 0.000000000000000000, 1.000000000000000000 ) ) ;
#100 = ORIENTED_EDGE ( 'NONE', *, *, #283, .F. ) ;
#101 = LINE ( 'NONE', #458, #291 ) ;
#102 = FACE_OUTER_BOUND ( 'NONE', #341, .T. ) ;
#103 = VECTOR ( 'NONE', #79, 1000.000000000000000 ) ;
#104 = FACE_OUTER_BOUND ( 'NONE', #486, .T. ) ;
#105 = ADVANCED_FACE ( 'NONE', ( #241 ), #546, .T. ) ;
#106 = DIRECTION ( 'NONE',  ( 0.8660254037844432595, -0.4999999999999919509, 0.000000000000000000 ) ) ;
#107 = DIRECTION ( 'NONE',  ( 0.000000000000000000, 0.000000000000000000, 1.000000000000000000 ) ) ;
#108 = FACE_OUTER_BOUND ( 'NONE', #460, .T. ) ;
#109 = ORIENTED_EDGE ( 'NONE', *, *, #599, .T. ) ;
#110 = LINE ( 'NONE', #744, #435 ) ;
#111 = CARTESIAN_POINT ( 'NONE',  ( -8.385254915624212657, -2.500000000000002220, 5.000000000000000000 ) ) ;
#112 = LINE ( 'NONE', #612, #372 ) ;
#113 = EDGE_LOOP ( 'NONE', ( #911, #561, #143, #76 ) ) ;
#114 = LINE ( 'NONE', #692, #885 ) ;
#115 = CARTESIAN_POINT ( 'NONE',  ( -4.490063509461130309, 2.777018127597585817, 5.000000000000000000 ) ) ;
#116 = VECTOR ( 'NONE', #438, 1000.000000000000000 ) ;
#117 = CARTESIAN_POINT ( 'NONE',  ( 0.1599364905388524494, 5.277018127597640884, -5.000000000000000000 ) ) ;
#118 = DIRECTION ( 'NONE',  ( 0.000000000000000000, 0.000000000000000000, 1.000000000000000000 ) ) ;
#119 = ORIENTED_EDGE ( 'NONE', *, *, #531, .T. ) ;
#120 = EDGE_CURVE ( 'NONE', #506, #730, #830, .T. ) ;
#121 = EDGE_CURVE ( 'NONE', #59, #506, #176, .T. ) ;
#122 = ORIENTED_EDGE ( 'NONE', *, *, #151, .T. ) ;
#123 = PLANE ( 'NONE',  #840 ) ;
#124 = DIRECTION ( 'NONE',  ( 1.000000000000000000, 0.000000000000000000, -0.000000000000000000 ) ) ;
#125 = VERTEX_POINT ( 'NONE', #826 ) ;
#126 = CARTESIAN_POINT ( 'NONE',  ( -2.027563948350987744, -8.511843774138911911, 5.000000000000000000 ) ) ;
#127 = LINE ( 'NONE', #707, #386 ) ;
#128 = ORIENTED_EDGE ( 'NONE', *, *, #848, .T. ) ;
#129 = CIRCLE ( 'NONE', #477, 4.049999999999999822 ) ;
#130 = CIRCLE ( 'NONE', #676, 4.049999999999999822 ) ;
#131 = ORIENTED_EDGE ( 'NONE', *, *, #818, .T. ) ;
#132 = CARTESIAN_POINT ( 'NONE',  ( -4.490063509461088564, -2.777018127597650654, 5.000000000000000000 ) ) ;
#133 = CARTESIAN_POINT ( 'NONE',  ( 4.649999999999999467, 2.500000000000002220, 5.000000000000000000 ) ) ;
#134 = ORIENTED_EDGE ( 'NONE', *, *, #369, .F. ) ;
#135 = ORIENTED_EDGE ( 'NONE', *, *, #890, .T. ) ;
#136 = ADVANCED_BREP_SHAPE_REPRESENTATION ( 'P001-B102_MagnetHolderRing_Rev2C_5', ( #873, #418 ), #322 ) ;
#137 = DIRECTION ( 'NONE',  ( 0.5000000000000039968, -0.8660254037844363761, 0.000000000000000000 ) ) ;
#138 = DIRECTION ( 'NONE',  ( 1.000000000000000000, 0.000000000000000000, 0.000000000000000000 ) ) ;
#139 = EDGE_LOOP ( 'NONE', ( #708, #524, #512, #483, #609, #444, #857, #344, #201, #583, #409, #9, #290, #436, #906, #267, #781, #28, #382, #600, #810, #77, #367, #301 ) ) ;
#140 = EDGE_LOOP ( 'NONE', ( #595, #363, #591, #257 ) ) ;
#141 = DIRECTION ( 'NONE',  ( 1.000000000000000000, 0.000000000000000000, -0.000000000000000000 ) ) ;
#142 = CARTESIAN_POINT ( 'NONE',  ( -4.049999999999999822, 0.000000000000000000, 5.000000000000000000 ) ) ;
#143 = ORIENTED_EDGE ( 'NONE', *, *, #329, .F. ) ;
#144 = CIRCLE ( 'NONE', #538, 8.750000000000001776 ) ;
#145 = AXIS2_PLACEMENT_3D ( 'NONE', #133, #338, #787 ) ;
#146 = ORIENTED_EDGE ( 'NONE', *, *, #312, .F. ) ;
#147 = DIRECTION ( 'NONE',  ( 0.000000000000000000, 0.000000000000000000, 1.000000000000000000 ) ) ;
#148 = DIRECTION ( 'NONE',  ( -1.000000000000000000, 0.000000000000000000, 0.000000000000000000 ) ) ;
#149 = ORIENTED_EDGE ( 'NONE', *, *, #168, .F. ) ;
#150 = AXIS2_PLACEMENT_3D ( 'NONE', #381, #321, #180 ) ;
#151 = EDGE_CURVE ( 'NONE', #662, #720, #898, .T. ) ;
#152 = VERTEX_POINT ( 'NONE', #475 ) ;
#153 = DIRECTION ( 'NONE',  ( -0.8660254037844328234, -0.5000000000000101030, 0.000000000000000000 ) ) ;
#154 = ADVANCED_FACE ( 'NONE', ( #108 ), #905, .T. ) ;
#155 = DIRECTION ( 'NONE',  ( -0.8660254037844398178, 0.4999999999999980016, 0.000000000000000000 ) ) ;
#156 = FACE_OUTER_BOUND ( 'NONE', #182, .T. ) ;
#157 = ORIENTED_EDGE ( 'NONE', *, *, #721, .T. ) ;
#158 = CARTESIAN_POINT ( 'NONE',  ( -0.1599364905389656366, 5.277018127597635555, 5.000000000000000000 ) ) ;
#159 = CARTESIAN_POINT ( 'NONE',  ( 4.649999999999999467, 2.500000000000002220, 5.000000000000000000 ) ) ;
#160 = DIRECTION ( 'NONE',  ( -0.000000000000000000, -0.000000000000000000, -1.000000000000000000 ) ) ;
#161 = ORIENTED_EDGE ( 'NONE', *, *, #861, .F. ) ;
#162 = DIRECTION ( 'NONE',  ( 1.000000000000000000, 0.000000000000000000, 0.000000000000000000 ) ) ;
#163 = VECTOR ( 'NONE', #153, 1000.000000000000000 ) ;
#164 = CARTESIAN_POINT ( 'NONE',  ( 4.490063509461111657, -2.777018127597618680, 5.000000000000000000 ) ) ;
#165 = AXIS2_PLACEMENT_3D ( 'NONE', #799, #155, #577 ) ;
#166 = EDGE_CURVE ( 'NONE', #720, #801, #685, .T. ) ;
#167 = ORIENTED_EDGE ( 'NONE', *, *, #928, .F. ) ;
#168 = EDGE_CURVE ( 'NONE', #619, #47, #779, .T. ) ;
#169 = PLANE ( 'NONE',  #275 ) ;
#170 = PLANE ( 'NONE',  #868 ) ;
#171 = DIRECTION ( 'NONE',  ( 1.000000000000000000, 0.000000000000000000, 0.000000000000000000 ) ) ;
#172 = CARTESIAN_POINT ( 'NONE',  ( 4.649999999999999467, -2.499999999999998668, -5.000000000000000000 ) ) ;
#173 = DIRECTION ( 'NONE',  ( 0.8660254037844432595, -0.4999999999999919509, 0.000000000000000000 ) ) ;
#174 = DIRECTION ( 'NONE',  ( -0.8660254037844397068, 0.4999999999999979461, 0.000000000000000000 ) ) ;
#175 = VECTOR ( 'NONE', #455, 1000.000000000000000 ) ;
#176 = LINE ( 'NONE', #465, #203 ) ;
#177 = EDGE_CURVE ( 'NONE', #686, #662, #389, .T. ) ;
#178 = CARTESIAN_POINT ( 'NONE',  ( -4.649999999999999467, -2.500000000000002220, 5.000000000000000000 ) ) ;
#179 = CARTESIAN_POINT ( 'NONE',  ( 0.000000000000000000, 0.000000000000000000, 5.000000000000000000 ) ) ;
#180 = DIRECTION ( 'NONE',  ( -1.000000000000000000, 0.000000000000000000, 0.000000000000000000 ) ) ;
#181 = DIRECTION ( 'NONE',  ( 0.000000000000000000, 0.000000000000000000, 1.000000000000000000 ) ) ;
#182 = EDGE_LOOP ( 'NONE', ( #665, #100, #592, #565 ) ) ;
#183 = PRODUCT ( 'P001-B102_MagnetHolderRing_Rev2C_5', 'P001-B102_MagnetHolderRing_Rev2C_5', '', ( #903 ) ) ;
#184 = APPLICATION_PROTOCOL_DEFINITION ( 'draft international standard', 'automotive_design', 1998, #319 ) ;
#185 = ORIENTED_EDGE ( 'NONE', *, *, #516, .F. ) ;
#186 = DIRECTION ( 'NONE',  ( 0.4999999999999979461, 0.8660254037844397068, 0.000000000000000000 ) ) ;
#187 = CARTESIAN_POINT ( 'NONE',  ( 4.049999999999999822, 4.959819536546779614E-16, -5.000000000000000000 ) ) ;
#188 = PRESENTATION_LAYER_ASSIGNMENT (  '', '', ( #72 ) ) ;
#189 = AXIS2_PLACEMENT_3D ( 'NONE', #179, #181, #468 ) ;
#190 = ORIENTED_EDGE ( 'NONE', *, *, #856, .T. ) ;
#191 = EDGE_CURVE ( 'NONE', #235, #206, #834, .T. ) ;
#192 = VERTEX_POINT ( 'NONE', #205 ) ;
#193 = DIRECTION ( 'NONE',  ( 0.000000000000000000, 0.000000000000000000, 1.000000000000000000 ) ) ;
#194 = CARTESIAN_POINT ( 'NONE',  ( 8.385254915624214433, -2.499999999999999112, 5.000000000000000000 ) ) ;
#195 = ORIENTED_EDGE ( 'NONE', *, *, #85, .T. ) ;
#196 = VERTEX_POINT ( 'NONE', #568 ) ;
#197 = PLANE ( 'NONE',  #31 ) ;
#198 = DIRECTION ( 'NONE',  ( -1.000000000000000000, 0.000000000000000000, 0.000000000000000000 ) ) ;
#199 = DIRECTION ( 'NONE',  ( -0.5000000000000101030, 0.8660254037844328234, 0.000000000000000000 ) ) ;
#200 = CARTESIAN_POINT ( 'NONE',  ( 0.1599364905388524494, 5.277018127597640884, 5.000000000000000000 ) ) ;
#201 = ORIENTED_EDGE ( 'NONE', *, *, #856, .F. ) ;
#202 =( GEOMETRIC_REPRESENTATION_CONTEXT ( 3 ) GLOBAL_UNCERTAINTY_ASSIGNED_CONTEXT ( ( #842 ) ) GLOBAL_UNIT_ASSIGNED_CONTEXT ( ( #466, #677, #539 ) ) REPRESENTATION_CONTEXT ( 'NONE', 'WORKASPACE' ) );
#203 = VECTOR ( 'NONE', #605, 1000.000000000000000 ) ;
#204 = CARTESIAN_POINT ( 'NONE',  ( 2.027563948350929568, 8.511843774138927898, -5.000000000000000000 ) ) ;
#205 = CARTESIAN_POINT ( 'NONE',  ( 0.1599364905389287772, -5.277018127597639108, -5.000000000000000000 ) ) ;
#206 = VERTEX_POINT ( 'NONE', #273 ) ;
#207 = CARTESIAN_POINT ( 'NONE',  ( -4.649999999999999467, 2.499999999999998668, -5.000000000000000000 ) ) ;
#208 = FACE_OUTER_BOUND ( 'NONE', #1, .T. ) ;
#209 = ORIENTED_EDGE ( 'NONE', *, *, #926, .T. ) ;
#210 = CARTESIAN_POINT ( 'NONE',  ( -2.027563948350987744, -8.511843774138911911, -5.000000000000000000 ) ) ;
#211 = EDGE_CURVE ( 'NONE', #517, #235, #711, .T. ) ;
#212 = DIRECTION ( 'NONE',  ( 0.000000000000000000, 0.000000000000000000, 1.000000000000000000 ) ) ;
#213 = ORIENTED_EDGE ( 'NONE', *, *, #527, .T. ) ;
#214 = ADVANCED_FACE ( 'NONE', ( #208 ), #353, .T. ) ;
#215 = CIRCLE ( 'NONE', #525, 8.750000000000001776 ) ;
#216 = ADVANCED_FACE ( 'NONE', ( #54 ), #417, .T. ) ;
#217 = VECTOR ( 'NONE', #653, 1000.000000000000000 ) ;
#218 = VERTEX_POINT ( 'NONE', #266 ) ;
#219 = FACE_OUTER_BOUND ( 'NONE', #579, .T. ) ;
#220 = CARTESIAN_POINT ( 'NONE',  ( 0.000000000000000000, 0.000000000000000000, -5.000000000000000000 ) ) ;
#221 = VERTEX_POINT ( 'NONE', #855 ) ;
#222 = ORIENTED_EDGE ( 'NONE', *, *, #120, .F. ) ;
#223 = LINE ( 'NONE', #663, #175 ) ;
#224 = CARTESIAN_POINT ( 'NONE',  ( 0.1599364905389287772, -5.277018127597639108, 5.000000000000000000 ) ) ;
#225 = CARTESIAN_POINT ( 'NONE',  ( -8.385254915624214433, 2.499999999999998668, 5.000000000000000000 ) ) ;
#226 = ORIENTED_EDGE ( 'NONE', *, *, #211, .F. ) ;
#227 = CARTESIAN_POINT ( 'NONE',  ( -4.490063509461130309, 2.777018127597585817, -5.000000000000000000 ) ) ;
#228 = DIRECTION ( 'NONE',  ( 0.000000000000000000, 0.000000000000000000, 1.000000000000000000 ) ) ;
#229 = EDGE_CURVE ( 'NONE', #37, #800, #58, .T. ) ;
#230 = ORIENTED_EDGE ( 'NONE', *, *, #487, .T. ) ;
#231 = AXIS2_PLACEMENT_3D ( 'NONE', #503, #786, #141 ) ;
#232 =( NAMED_UNIT ( * ) SI_UNIT ( $, .STERADIAN. ) SOLID_ANGLE_UNIT ( ) );
#233 = VECTOR ( 'NONE', #361, 1000.000000000000000 ) ;
#234 = CARTESIAN_POINT ( 'NONE',  ( -4.649999999999999467, -2.500000000000002220, -5.000000000000000000 ) ) ;
#235 = VERTEX_POINT ( 'NONE', #715 ) ;
#236 = AXIS2_PLACEMENT_3D ( 'NONE', #32, #307, #833 ) ;
#237 = PRESENTATION_STYLE_ASSIGNMENT (( #690 ) ) ;
#238 = DIRECTION ( 'NONE',  ( -1.000000000000000000, 0.000000000000000000, 0.000000000000000000 ) ) ;
#239 = DIRECTION ( 'NONE',  ( 0.8660254037844328234, 0.5000000000000101030, 0.000000000000000000 ) ) ;
#240 = DIRECTION ( 'NONE',  ( 0.5000000000000039968, -0.8660254037844363761, 0.000000000000000000 ) ) ;
#241 = FACE_OUTER_BOUND ( 'NONE', #660, .T. ) ;
#242 = ADVANCED_FACE ( 'NONE', ( #493 ), #346, .T. ) ;
#243 = ADVANCED_FACE ( 'NONE', ( #560 ), #70, .T. ) ;
#244 = DIRECTION ( 'NONE',  ( 0.5000000000000039968, -0.8660254037844363761, 0.000000000000000000 ) ) ;
#245 = VECTOR ( 'NONE', #74, 1000.000000000000000 ) ;
#246 = AXIS2_PLACEMENT_3D ( 'NONE', #220, #528, #13 ) ;
#247 = CARTESIAN_POINT ( 'NONE',  ( 4.490063509461069913, 2.777018127597681740, 5.000000000000000000 ) ) ;
#248 = CARTESIAN_POINT ( 'NONE',  ( 4.490063509461069913, 2.777018127597681740, 5.000000000000000000 ) ) ;
#249 = PRODUCT_DEFINITION_SHAPE ( 'NONE', 'NONE',  #448 ) ;
#250 = DIRECTION ( 'NONE',  ( 0.000000000000000000, 0.000000000000000000, 1.000000000000000000 ) ) ;
#251 = DIRECTION ( 'NONE',  ( 0.4999999999999919509, 0.8660254037844432595, 0.000000000000000000 ) ) ;
#252 = VERTEX_POINT ( 'NONE', #640 ) ;
#253 = ADVANCED_FACE ( 'NONE', ( #845 ), #427, .F. ) ;
#254 = CYLINDRICAL_SURFACE ( 'NONE', #589, 8.750000000000001776 ) ;
#255 = LINE ( 'NONE', #247, #585 ) ;
#256 = EDGE_CURVE ( 'NONE', #252, #633, #490, .T. ) ;
#257 = ORIENTED_EDGE ( 'NONE', *, *, #897, .F. ) ;
#258 = VERTEX_POINT ( 'NONE', #194 ) ;
#259 = DIRECTION ( 'NONE',  ( 1.000000000000000000, 0.000000000000000000, 0.000000000000000000 ) ) ;
#260 = FACE_OUTER_BOUND ( 'NONE', #113, .T. ) ;
#261 = AXIS2_PLACEMENT_3D ( 'NONE', #450, #78, #20 ) ;
#262 = AXIS2_PLACEMENT_3D ( 'NONE', #645, #783, #138 ) ;
#263 = VERTEX_POINT ( 'NONE', #200 ) ;
#264 = DIRECTION ( 'NONE',  ( 0.000000000000000000, 0.000000000000000000, 1.000000000000000000 ) ) ;
#265 = CARTESIAN_POINT ( 'NONE',  ( 4.649999999999999467, 2.500000000000002220, -5.000000000000000000 ) ) ;
#266 = CARTESIAN_POINT ( 'NONE',  ( -6.357690967273274651, 6.011843774138831975, -5.000000000000000000 ) ) ;
#267 = ORIENTED_EDGE ( 'NONE', *, *, #347, .F. ) ;
#268 = CARTESIAN_POINT ( 'NONE',  ( 2.027563948350929568, 8.511843774138927898, 5.000000000000000000 ) ) ;
#269 = CARTESIAN_POINT ( 'NONE',  ( -2.324999999999990852, -4.027018127597644437, 0.000000000000000000 ) ) ;
#270 = VERTEX_POINT ( 'NONE', #142 ) ;
#271 = EDGE_LOOP ( 'NONE', ( #146, #656 ) ) ;
#272 = FACE_OUTER_BOUND ( 'NONE', #641, .T. ) ;
#273 = CARTESIAN_POINT ( 'NONE',  ( -0.1599364905388893088, -5.277018127597641772, 5.000000000000000000 ) ) ;
#274 = VERTEX_POINT ( 'NONE', #433 ) ;
#275 = AXIS2_PLACEMENT_3D ( 'NONE', #440, #807, #718 ) ;
#276 = ORIENTED_EDGE ( 'NONE', *, *, #760, .F. ) ;
#277 = CARTESIAN_POINT ( 'NONE',  ( 4.490063509461111657, -2.777018127597618680, -5.000000000000000000 ) ) ;
#278 = DIRECTION ( 'NONE',  ( -0.000000000000000000, -0.000000000000000000, -1.000000000000000000 ) ) ;
#279 = VECTOR ( 'NONE', #330, 1000.000000000000000 ) ;
#280 = ORIENTED_EDGE ( 'NONE', *, *, #487, .F. ) ;
#281 = ORIENTED_EDGE ( 'NONE', *, *, #97, .F. ) ;
#282 = LINE ( 'NONE', #299, #57 ) ;
#283 = EDGE_CURVE ( 'NONE', #410, #801, #422, .T. ) ;
#284 = LINE ( 'NONE', #740, #913 ) ;
#285 = ADVANCED_FACE ( 'NONE', ( #260 ), #485, .T. ) ;
#286 = ORIENTED_EDGE ( 'NONE', *, *, #500, .T. ) ;
#287 = ORIENTED_EDGE ( 'NONE', *, *, #748, .T. ) ;
#288 = PLANE ( 'NONE',  #231 ) ;
#289 = LINE ( 'NONE', #456, #929 ) ;
#290 = ORIENTED_EDGE ( 'NONE', *, *, #721, .F. ) ;
#291 = VECTOR ( 'NONE', #755, 1000.000000000000000 ) ;
#292 = VECTOR ( 'NONE', #504, 1000.000000000000000 ) ;
#293 = ORIENTED_EDGE ( 'NONE', *, *, #748, .F. ) ;
#294 = CARTESIAN_POINT ( 'NONE',  ( -4.490063509461130309, 2.777018127597585817, 5.000000000000000000 ) ) ;
#295 = LINE ( 'NONE', #523, #43 ) ;
#296 = ORIENTED_EDGE ( 'NONE', *, *, #596, .T. ) ;
#297 = CIRCLE ( 'NONE', #328, 8.750000000000001776 ) ;
#298 = ORIENTED_EDGE ( 'NONE', *, *, #356, .T. ) ;
#299 = CARTESIAN_POINT ( 'NONE',  ( 4.649999999999999467, -2.499999999999998668, 5.000000000000000000 ) ) ;
#300 = FACE_OUTER_BOUND ( 'NONE', #530, .T. ) ;
#301 = ORIENTED_EDGE ( 'NONE', *, *, #356, .F. ) ;
#302 = CARTESIAN_POINT ( 'NONE',  ( -8.385254915624214433, 2.499999999999999112, 5.000000000000000000 ) ) ;
#303 = FACE_OUTER_BOUND ( 'NONE', #22, .T. ) ;
#304 = EDGE_LOOP ( 'NONE', ( #716, #758, #109, #629 ) ) ;
#305 = CIRCLE ( 'NONE', #659, 4.049999999999999822 ) ;
#306 = FILL_AREA_STYLE_COLOUR ( '', #601 ) ;
#307 = DIRECTION ( 'NONE',  ( 0.000000000000000000, 0.000000000000000000, 1.000000000000000000 ) ) ;
#308 = DIRECTION ( 'NONE',  ( -0.000000000000000000, -0.000000000000000000, 1.000000000000000000 ) ) ;
#309 = VECTOR ( 'NONE', #199, 1000.000000000000000 ) ;
#310 = PLANE ( 'NONE',  #383 ) ;
#311 = CARTESIAN_POINT ( 'NONE',  ( 2.325000000000018829, -4.027018127597630226, 0.000000000000000000 ) ) ;
#312 = EDGE_CURVE ( 'NONE', #270, #501, #130, .T. ) ;
#313 = DIRECTION ( 'NONE',  ( -1.000000000000000000, 0.000000000000000000, 0.000000000000000000 ) ) ;
#314 = EDGE_CURVE ( 'NONE', #832, #37, #127, .T. ) ;
#315 = ORIENTED_EDGE ( 'NONE', *, *, #120, .T. ) ;
#316 = LINE ( 'NONE', #824, #735 ) ;
#317 = LINE ( 'NONE', #464, #279 ) ;
#318 = LINE ( 'NONE', #902, #340 ) ;
#319 = APPLICATION_CONTEXT ( 'automotive_design' ) ;
#320 = FILL_AREA_STYLE ('',( #306 ) ) ;
#321 = DIRECTION ( 'NONE',  ( -0.000000000000000000, -0.000000000000000000, -1.000000000000000000 ) ) ;
#322 =( GEOMETRIC_REPRESENTATION_CONTEXT ( 3 ) GLOBAL_UNCERTAINTY_ASSIGNED_CONTEXT ( ( #434 ) ) GLOBAL_UNIT_ASSIGNED_CONTEXT ( ( #400, #597, #232 ) ) REPRESENTATION_CONTEXT ( 'NONE', 'WORKASPACE' ) );
#323 = ADVANCED_FACE ( 'NONE', ( #922 ), #780, .T. ) ;
#324 = AXIS2_PLACEMENT_3D ( 'NONE', #408, #543, #313 ) ;
#325 = DIRECTION ( 'NONE',  ( 0.000000000000000000, 0.000000000000000000, 1.000000000000000000 ) ) ;
#326 = EDGE_CURVE ( 'NONE', #221, #457, #284, .T. ) ;
#327 = EDGE_CURVE ( 'NONE', #252, #125, #581, .T. ) ;
#328 = AXIS2_PLACEMENT_3D ( 'NONE', #471, #459, #171 ) ;
#329 = EDGE_CURVE ( 'NONE', #908, #699, #875, .T. ) ;
#330 = DIRECTION ( 'NONE',  ( 0.000000000000000000, 0.000000000000000000, 1.000000000000000000 ) ) ;
#331 = CARTESIAN_POINT ( 'NONE',  ( 0.000000000000000000, 0.000000000000000000, -5.000000000000000000 ) ) ;
#332 = EDGE_LOOP ( 'NONE', ( #702, #923, #650, #571 ) ) ;
#333 = LINE ( 'NONE', #407, #851 ) ;
#334 = CARTESIAN_POINT ( 'NONE',  ( 0.000000000000000000, 0.000000000000000000, 5.000000000000000000 ) ) ;
#335 = ORIENTED_EDGE ( 'NONE', *, *, #654, .T. ) ;
#336 = ORIENTED_EDGE ( 'NONE', *, *, #26, .T. ) ;
#337 = LINE ( 'NONE', #277, #628 ) ;
#338 = DIRECTION ( 'NONE',  ( 0.000000000000000000, -1.000000000000000000, 0.000000000000000000 ) ) ;
#339 = VECTOR ( 'NONE', #603, 1000.000000000000000 ) ;
#340 = VECTOR ( 'NONE', #768, 1000.000000000000000 ) ;
#341 = EDGE_LOOP ( 'NONE', ( #505, #478, #647, #502 ) ) ;
#342 = APPLICATION_CONTEXT ( 'automotive_design' ) ;
#343 = DIRECTION ( 'NONE',  ( 1.000000000000000000, 0.000000000000000000, 0.000000000000000000 ) ) ;
#344 = ORIENTED_EDGE ( 'NONE', *, *, #859, .F. ) ;
#345 = CARTESIAN_POINT ( 'NONE',  ( -4.649999999999999467, 2.499999999999998668, 5.000000000000000000 ) ) ;
#346 = PLANE ( 'NONE',  #145 ) ;
#347 = EDGE_CURVE ( 'NONE', #788, #578, #661, .T. ) ;
#348 = DIRECTION ( 'NONE',  ( 0.4999999999999919509, 0.8660254037844432595, 0.000000000000000000 ) ) ;
#349 = DIRECTION ( 'NONE',  ( -1.000000000000000000, 0.000000000000000000, 0.000000000000000000 ) ) ;
#350 = ORIENTED_EDGE ( 'NONE', *, *, #762, .F. ) ;
#351 = EDGE_LOOP ( 'NONE', ( #406, #128, #393, #379, #213, #667, #10, #784, #574, #336, #6, #68, #71, #624, #870, #293, #642, #841, #920, #281, #354, #335, #122, #880 ) ) ;
#352 = CARTESIAN_POINT ( 'NONE',  ( 8.385254915624212657, 2.500000000000002220, -5.000000000000000000 ) ) ;
#353 = CYLINDRICAL_SURFACE ( 'NONE', #823, 8.750000000000001776 ) ;
#354 = ORIENTED_EDGE ( 'NONE', *, *, #765, .T. ) ;
#355 = AXIS2_PLACEMENT_3D ( 'NONE', #4, #864, #212 ) ;
#356 = EDGE_CURVE ( 'NONE', #218, #449, #570, .T. ) ;
#357 = ORIENTED_EDGE ( 'NONE', *, *, #326, .F. ) ;
#358 = CARTESIAN_POINT ( 'NONE',  ( -2.027563948351110756, 8.511843774138883489, -5.000000000000000000 ) ) ;
#359 = EDGE_CURVE ( 'NONE', #908, #587, #598, .T. ) ;
#360 = AXIS2_PLACEMENT_3D ( 'NONE', #39, #604, #99 ) ;
#361 = DIRECTION ( 'NONE',  ( -1.000000000000000000, 0.000000000000000000, 0.000000000000000000 ) ) ;
#362 = ORIENTED_EDGE ( 'NONE', *, *, #529, .F. ) ;
#363 = ORIENTED_EDGE ( 'NONE', *, *, #765, .F. ) ;
#364 = LINE ( 'NONE', #294, #614 ) ;
#365 = DIRECTION ( 'NONE',  ( 1.000000000000000000, 0.000000000000000000, 0.000000000000000000 ) ) ;
#366 = ORIENTED_EDGE ( 'NONE', *, *, #695, .F. ) ;
#367 = ORIENTED_EDGE ( 'NONE', *, *, #762, .T. ) ;
#368 = CARTESIAN_POINT ( 'NONE',  ( -4.649999999999999467, -2.500000000000002220, 5.000000000000000000 ) ) ;
#369 = EDGE_CURVE ( 'NONE', #258, #587, #295, .T. ) ;
#370 = DIRECTION ( 'NONE',  ( 0.8660254037844363761, 0.5000000000000039968, 0.000000000000000000 ) ) ;
#371 = ORIENTED_EDGE ( 'NONE', *, *, #724, .T. ) ;
#372 = VECTOR ( 'NONE', #325, 1000.000000000000000 ) ;
#373 = DIRECTION ( 'NONE',  ( -0.5000000000000101030, 0.8660254037844328234, 0.000000000000000000 ) ) ;
#374 = DIRECTION ( 'NONE',  ( -0.4999999999999979461, -0.8660254037844397068, 0.000000000000000000 ) ) ;
#375 = LINE ( 'NONE', #225, #419 ) ;
#376 = AXIS2_PLACEMENT_3D ( 'NONE', #683, #250, #545 ) ;
#377 = LINE ( 'NONE', #158, #163 ) ;
#378 = CYLINDRICAL_SURFACE ( 'NONE', #766, 8.750000000000001776 ) ;
#379 = ORIENTED_EDGE ( 'NONE', *, *, #430, .F. ) ;
#380 = LINE ( 'NONE', #470, #703 ) ;
#381 = CARTESIAN_POINT ( 'NONE',  ( 0.000000000000000000, 0.000000000000000000, 5.000000000000000000 ) ) ;
#382 = ORIENTED_EDGE ( 'NONE', *, *, #399, .T. ) ;
#383 = AXIS2_PLACEMENT_3D ( 'NONE', #615, #106, #886 ) ;
#384 = ADVANCED_FACE ( 'NONE', ( #508 ), #590, .T. ) ;
#385 = CARTESIAN_POINT ( 'NONE',  ( -0.1599364905388893088, -5.277018127597641772, -5.000000000000000000 ) ) ;
#386 = VECTOR ( 'NONE', #61, 1000.000000000000000 ) ;
#387 = LINE ( 'NONE', #904, #542 ) ;
#388 = ADVANCED_FACE ( 'NONE', ( #446 ), #169, .T. ) ;
#389 = LINE ( 'NONE', #680, #691 ) ;
#390 = VECTOR ( 'NONE', #411, 1000.000000000000000 ) ;
#391 = PLANE ( 'NONE',  #678 ) ;
#392 = DIRECTION ( 'NONE',  ( 0.000000000000000000, 0.000000000000000000, 1.000000000000000000 ) ) ;
#393 = ORIENTED_EDGE ( 'NONE', *, *, #556, .T. ) ;
#394 = SURFACE_STYLE_FILL_AREA ( #320 ) ;
#395 = EDGE_CURVE ( 'NONE', #520, #835, #89, .T. ) ;
#396 = DIRECTION ( 'NONE',  ( 1.000000000000000000, 0.000000000000000000, 0.000000000000000000 ) ) ;
#397 = CARTESIAN_POINT ( 'NONE',  ( -4.490063509461130309, 2.777018127597585817, 5.000000000000000000 ) ) ;
#398 = EDGE_LOOP ( 'NONE', ( #167, #877, #280, #119 ) ) ;
#399 = EDGE_CURVE ( 'NONE', #517, #893, #84, .T. ) ;
#400 =( LENGTH_UNIT ( ) NAMED_UNIT ( * ) SI_UNIT ( .MILLI., .METRE. ) );
#401 = FACE_OUTER_BOUND ( 'NONE', #872, .T. ) ;
#402 = AXIS2_PLACEMENT_3D ( 'NONE', #115, #239, #746 ) ;
#403 = VECTOR ( 'NONE', #374, 1000.000000000000114 ) ;
#404 = CARTESIAN_POINT ( 'NONE',  ( -2.027563948351111200, 8.511843774138883489, 5.000000000000000000 ) ) ;
#405 = ORIENTED_EDGE ( 'NONE', *, *, #67, .T. ) ;
#406 = ORIENTED_EDGE ( 'NONE', *, *, #831, .T. ) ;
#407 = CARTESIAN_POINT ( 'NONE',  ( 6.357690967273232907, -6.011843774138875496, 5.000000000000000000 ) ) ;
#408 = CARTESIAN_POINT ( 'NONE',  ( 0.000000000000000000, 0.000000000000000000, 5.000000000000000000 ) ) ;
#409 = ORIENTED_EDGE ( 'NONE', *, *, #359, .T. ) ;
#410 = VERTEX_POINT ( 'NONE', #729 ) ;
#411 = DIRECTION ( 'NONE',  ( 0.000000000000000000, -0.000000000000000000, -1.000000000000000000 ) ) ;
#412 = DIRECTION ( 'NONE',  ( 0.000000000000000000, 0.000000000000000000, 1.000000000000000000 ) ) ;
#413 = ORIENTED_EDGE ( 'NONE', *, *, #166, .F. ) ;
#414 = EDGE_CURVE ( 'NONE', #14, #520, #867, .T. ) ;
#415 = ORIENTED_EDGE ( 'NONE', *, *, #395, .F. ) ;
#416 = FACE_OUTER_BOUND ( 'NONE', #775, .T. ) ;
#417 = PLANE ( 'NONE',  #631 ) ;
#418 = AXIS2_PLACEMENT_3D ( 'NONE', #424, #264, #343 ) ;
#419 = VECTOR ( 'NONE', #160, 1000.000000000000000 ) ;
#420 = CIRCLE ( 'NONE', #236, 8.750000000000001776 ) ;
#421 = CARTESIAN_POINT ( 'NONE',  ( 0.000000000000000000, 0.000000000000000000, 5.000000000000000000 ) ) ;
#422 = LINE ( 'NONE', #50, #511 ) ;
#423 = ORIENTED_EDGE ( 'NONE', *, *, #94, .T. ) ;
#424 = CARTESIAN_POINT ( 'NONE',  ( 0.000000000000000000, 0.000000000000000000, 0.000000000000000000 ) ) ;
#425 = EDGE_LOOP ( 'NONE', ( #655, #350, #315, #822 ) ) ;
#426 = CARTESIAN_POINT ( 'NONE',  ( -6.357690967273274651, 6.011843774138831975, 5.000000000000000000 ) ) ;
#427 = CYLINDRICAL_SURFACE ( 'NONE', #795, 4.049999999999999822 ) ;
#428 = ORIENTED_EDGE ( 'NONE', *, *, #312, .T. ) ;
#429 = EDGE_CURVE ( 'NONE', #791, #410, #289, .T. ) ;
#430 = EDGE_CURVE ( 'NONE', #730, #846, #664, .T. ) ;
#431 = ORIENTED_EDGE ( 'NONE', *, *, #121, .F. ) ;
#432 = CARTESIAN_POINT ( 'NONE',  ( 0.1599364905389287772, -5.277018127597639108, -5.000000000000000000 ) ) ;
#433 = CARTESIAN_POINT ( 'NONE',  ( -8.385254915624212657, -2.500000000000002220, -5.000000000000000000 ) ) ;
#434 = UNCERTAINTY_MEASURE_WITH_UNIT (LENGTH_MEASURE( 1.000000000000000082E-05 ), #400, 'distance_accuracy_value', 'NONE');
#435 = VECTOR ( 'NONE', #173, 1000.000000000000000 ) ;
#436 = ORIENTED_EDGE ( 'NONE', *, *, #751, .T. ) ;
#437 = VECTOR ( 'NONE', #771, 1000.000000000000114 ) ;
#438 = DIRECTION ( 'NONE',  ( -1.000000000000000000, 0.000000000000000000, 0.000000000000000000 ) ) ;
#439 = VECTOR ( 'NONE', #679, 1000.000000000000000 ) ;
#440 = CARTESIAN_POINT ( 'NONE',  ( -4.649999999999999467, 0.000000000000000000, 0.000000000000000000 ) ) ;
#441 = VECTOR ( 'NONE', #696, 1000.000000000000000 ) ;
#442 = VERTEX_POINT ( 'NONE', #514 ) ;
#443 = ADVANCED_FACE ( 'NONE', ( #300 ), #378, .T. ) ;
#444 = ORIENTED_EDGE ( 'NONE', *, *, #897, .T. ) ;
#445 = CARTESIAN_POINT ( 'NONE',  ( 6.357690967273232907, -6.011843774138875496, 5.000000000000000000 ) ) ;
#446 = FACE_OUTER_BOUND ( 'NONE', #741, .T. ) ;
#447 = CARTESIAN_POINT ( 'NONE',  ( -0.1599364905389656366, 5.277018127597635555, 5.000000000000000000 ) ) ;
#448 = PRODUCT_DEFINITION ( 'UNKNOWN', '', #552, #816 ) ;
#449 = VERTEX_POINT ( 'NONE', #519 ) ;
#450 = CARTESIAN_POINT ( 'NONE',  ( 0.1599364905389287772, -5.277018127597639108, 5.000000000000000000 ) ) ;
#451 = CARTESIAN_POINT ( 'NONE',  ( -4.490063509461088564, -2.777018127597650654, -5.000000000000000000 ) ) ;
#452 = LINE ( 'NONE', #736, #90 ) ;
#453 = VECTOR ( 'NONE', #863, 1000.000000000000114 ) ;
#454 = VECTOR ( 'NONE', #308, 1000.000000000000000 ) ;
#455 = DIRECTION ( 'NONE',  ( -0.000000000000000000, -0.000000000000000000, -1.000000000000000000 ) ) ;
#456 = CARTESIAN_POINT ( 'NONE',  ( -0.1599364905389656366, 5.277018127597635555, -5.000000000000000000 ) ) ;
#457 = VERTEX_POINT ( 'NONE', #670 ) ;
#458 = CARTESIAN_POINT ( 'NONE',  ( 2.027563948351050360, -8.511843774138899477, 5.000000000000000000 ) ) ;
#459 = DIRECTION ( 'NONE',  ( 0.000000000000000000, 0.000000000000000000, 1.000000000000000000 ) ) ;
#460 = EDGE_LOOP ( 'NONE', ( #5, #537, #405, #296 ) ) ;
#461 = EDGE_CURVE ( 'NONE', #59, #274, #21, .T. ) ;
#462 = ADVANCED_FACE ( 'NONE', ( #303 ), #649, .T. ) ;
#463 = CARTESIAN_POINT ( 'NONE',  ( -6.357690967273187610, -6.011843774138924346, -5.000000000000000000 ) ) ;
#464 = CARTESIAN_POINT ( 'NONE',  ( -6.357690967273274651, 6.011843774138831975, 5.000000000000000000 ) ) ;
#465 = CARTESIAN_POINT ( 'NONE',  ( -4.649999999999999467, 2.499999999999998668, -5.000000000000000000 ) ) ;
#466 =( LENGTH_UNIT ( ) NAMED_UNIT ( * ) SI_UNIT ( .MILLI., .METRE. ) );
#467 = CARTESIAN_POINT ( 'NONE',  ( -4.649999999999999467, 2.499999999999998668, -5.000000000000000000 ) ) ;
#468 = DIRECTION ( 'NONE',  ( 1.000000000000000000, 0.000000000000000000, 0.000000000000000000 ) ) ;
#469 = ORIENTED_EDGE ( 'NONE', *, *, #861, .T. ) ;
#470 = CARTESIAN_POINT ( 'NONE',  ( -2.027563948350987744, -8.511843774138911911, 5.000000000000000000 ) ) ;
#471 = CARTESIAN_POINT ( 'NONE',  ( 0.000000000000000000, 0.000000000000000000, 5.000000000000000000 ) ) ;
#472 = CARTESIAN_POINT ( 'NONE',  ( -0.1599364905388893088, -5.277018127597641772, -5.000000000000000000 ) ) ;
#473 = SURFACE_SIDE_STYLE ('',( #394 ) ) ;
#474 = CARTESIAN_POINT ( 'NONE',  ( -4.490063509461088564, -2.777018127597650654, -5.000000000000000000 ) ) ;
#475 = CARTESIAN_POINT ( 'NONE',  ( -4.490063509461130309, 2.777018127597585817, 5.000000000000000000 ) ) ;
#476 = VERTEX_POINT ( 'NONE', #617 ) ;
#477 = AXIS2_PLACEMENT_3D ( 'NONE', #630, #572, #479 ) ;
#478 = ORIENTED_EDGE ( 'NONE', *, *, #414, .F. ) ;
#479 = DIRECTION ( 'NONE',  ( 1.000000000000000000, 0.000000000000000000, 0.000000000000000000 ) ) ;
#480 = VECTOR ( 'NONE', #892, 1000.000000000000000 ) ;
#481 = LINE ( 'NONE', #172, #480 ) ;
#482 = VECTOR ( 'NONE', #745, 1000.000000000000000 ) ;
#483 = ORIENTED_EDGE ( 'NONE', *, *, #828, .F. ) ;
#484 = CARTESIAN_POINT ( 'NONE',  ( 0.000000000000000000, 0.000000000000000000, 5.000000000000000000 ) ) ;
#485 = PLANE ( 'NONE',  #540 ) ;
#486 = EDGE_LOOP ( 'NONE', ( #413, #66, #726, #81 ) ) ;
#487 = EDGE_CURVE ( 'NONE', #274, #37, #535, .T. ) ;
#488 = ADVANCED_FACE ( 'NONE', ( #102 ), #391, .T. ) ;
#489 = CARTESIAN_POINT ( 'NONE',  ( -0.1599364905389656366, 5.277018127597635555, 5.000000000000000000 ) ) ;
#490 = LINE ( 'NONE', #573, #292 ) ;
#491 = ORIENTED_EDGE ( 'NONE', *, *, #399, .F. ) ;
#492 = DIRECTION ( 'NONE',  ( 0.000000000000000000, 1.000000000000000000, 0.000000000000000000 ) ) ;
#493 = FACE_OUTER_BOUND ( 'NONE', #558, .T. ) ;
#494 = AXIS2_PLACEMENT_3D ( 'NONE', #269, #65, #803 ) ;
#495 = ORIENTED_EDGE ( 'NONE', *, *, #211, .T. ) ;
#496 = EDGE_CURVE ( 'NONE', #410, #785, #387, .T. ) ;
#497 = DIRECTION ( 'NONE',  ( 0.000000000000000000, -0.000000000000000000, 1.000000000000000000 ) ) ;
#498 = ADVANCED_FACE ( 'NONE', ( #401 ), #254, .T. ) ;
#499 = CARTESIAN_POINT ( 'NONE',  ( 4.490063509461069913, 2.777018127597681740, 5.000000000000000000 ) ) ;
#500 = EDGE_CURVE ( 'NONE', #14, #196, #901, .T. ) ;
#501 = VERTEX_POINT ( 'NONE', #742 ) ;
#502 = ORIENTED_EDGE ( 'NONE', *, *, #751, .F. ) ;
#503 = CARTESIAN_POINT ( 'NONE',  ( 0.000000000000000000, 0.000000000000000000, -5.000000000000000000 ) ) ;
#504 = DIRECTION ( 'NONE',  ( 0.000000000000000000, 0.000000000000000000, -1.000000000000000000 ) ) ;
#505 = ORIENTED_EDGE ( 'NONE', *, *, #668, .F. ) ;
#506 = VERTEX_POINT ( 'NONE', #467 ) ;
#507 = LINE ( 'NONE', #648, #12 ) ;
#508 = FACE_OUTER_BOUND ( 'NONE', #547, .T. ) ;
#509 = AXIS2_PLACEMENT_3D ( 'NONE', #522, #669, #162 ) ;
#510 = ORIENTED_EDGE ( 'NONE', *, *, #668, .T. ) ;
#511 = VECTOR ( 'NONE', #910, 1000.000000000000000 ) ;
#512 = ORIENTED_EDGE ( 'NONE', *, *, #283, .T. ) ;
#513 = PLANE ( 'NONE',  #261 ) ;
#514 = CARTESIAN_POINT ( 'NONE',  ( 6.357690967273147642, 6.011843774138969643, 5.000000000000000000 ) ) ;
#515 = ORIENTED_EDGE ( 'NONE', *, *, #97, .T. ) ;
#516 = EDGE_CURVE ( 'NONE', #832, #59, #825, .T. ) ;
#517 = VERTEX_POINT ( 'NONE', #474 ) ;
#518 = LINE ( 'NONE', #432, #675 ) ;
#519 = CARTESIAN_POINT ( 'NONE',  ( -8.385254915624214433, 2.499999999999998668, -5.000000000000000000 ) ) ;
#520 = VERTEX_POINT ( 'NONE', #819 ) ;
#521 = ORIENTED_EDGE ( 'NONE', *, *, #516, .T. ) ;
#522 = CARTESIAN_POINT ( 'NONE',  ( 0.000000000000000000, 0.000000000000000000, -5.000000000000000000 ) ) ;
#523 = CARTESIAN_POINT ( 'NONE',  ( 8.385254915624214433, -2.499999999999998668, 5.000000000000000000 ) ) ;
#524 = ORIENTED_EDGE ( 'NONE', *, *, #429, .T. ) ;
#525 = AXIS2_PLACEMENT_3D ( 'NONE', #421, #714, #710 ) ;
#526 = VECTOR ( 'NONE', #75, 1000.000000000000000 ) ;
#527 = EDGE_CURVE ( 'NONE', #730, #832, #549, .T. ) ;
#528 = DIRECTION ( 'NONE',  ( 0.000000000000000000, 0.000000000000000000, 1.000000000000000000 ) ) ;
#529 = EDGE_CURVE ( 'NONE', #218, #704, #317, .T. ) ;
#530 = EDGE_LOOP ( 'NONE', ( #754, #63, #276, #622 ) ) ;
#531 = EDGE_CURVE ( 'NONE', #274, #893, #420, .T. ) ;
#532 = CARTESIAN_POINT ( 'NONE',  ( 0.1599364905389287772, -5.277018127597639108, 5.000000000000000000 ) ) ;
#533 = FACE_OUTER_BOUND ( 'NONE', #351, .T. ) ;
#534 = LINE ( 'NONE', #24, #339 ) ;
#535 = LINE ( 'NONE', #111, #482 ) ;
#536 = DIRECTION ( 'NONE',  ( 0.000000000000000000, -0.000000000000000000, 1.000000000000000000 ) ) ;
#537 = ORIENTED_EDGE ( 'NONE', *, *, #848, .F. ) ;
#538 = AXIS2_PLACEMENT_3D ( 'NONE', #553, #193, #773 ) ;
#539 =( NAMED_UNIT ( * ) SI_UNIT ( $, .STERADIAN. ) SOLID_ANGLE_UNIT ( ) );
#540 = AXIS2_PLACEMENT_3D ( 'NONE', #637, #124, #412 ) ;
#541 = DIRECTION ( 'NONE',  ( -0.000000000000000000, -0.000000000000000000, -1.000000000000000000 ) ) ;
#542 = VECTOR ( 'NONE', #620, 1000.000000000000000 ) ;
#543 = DIRECTION ( 'NONE',  ( -0.000000000000000000, -0.000000000000000000, -1.000000000000000000 ) ) ;
#544 = EDGE_CURVE ( 'NONE', #930, #517, #607, .T. ) ;
#545 = DIRECTION ( 'NONE',  ( 1.000000000000000000, 0.000000000000000000, 0.000000000000000000 ) ) ;
#546 = PLANE ( 'NONE',  #602 ) ;
#547 = EDGE_LOOP ( 'NONE', ( #135, #805, #209, #195 ) ) ;
#548 = ORIENTED_EDGE ( 'NONE', *, *, #790, .F. ) ;
#549 = LINE ( 'NONE', #25, #439 ) ;
#550 = DIRECTION ( 'NONE',  ( 1.000000000000000000, 0.000000000000000000, 0.000000000000000000 ) ) ;
#551 = ORIENTED_EDGE ( 'NONE', *, *, #919, .T. ) ;
#552 = PRODUCT_DEFINITION_FORMATION_WITH_SPECIFIED_SOURCE ( 'ANY', '', #183, .NOT_KNOWN. ) ;
#553 = CARTESIAN_POINT ( 'NONE',  ( 0.000000000000000000, 0.000000000000000000, -5.000000000000000000 ) ) ;
#554 = DIRECTION ( 'NONE',  ( -1.000000000000000000, 0.000000000000000000, 0.000000000000000000 ) ) ;
#555 = EDGE_CURVE ( 'NONE', #743, #196, #297, .T. ) ;
#556 = EDGE_CURVE ( 'NONE', #704, #846, #29, .T. ) ;
#557 = VECTOR ( 'NONE', #829, 1000.000000000000000 ) ;
#558 = EDGE_LOOP ( 'NONE', ( #722, #52, #865, #190 ) ) ;
#559 = CARTESIAN_POINT ( 'NONE',  ( 0.000000000000000000, 0.000000000000000000, -5.000000000000000000 ) ) ;
#560 = FACE_OUTER_BOUND ( 'NONE', #332, .T. ) ;
#561 = ORIENTED_EDGE ( 'NONE', *, *, #888, .F. ) ;
#562 = ORIENTED_EDGE ( 'NONE', *, *, #496, .F. ) ;
#563 = FACE_OUTER_BOUND ( 'NONE', #42, .T. ) ;
#564 = CARTESIAN_POINT ( 'NONE',  ( 0.000000000000000000, 0.000000000000000000, 5.000000000000000000 ) ) ;
#565 = ORIENTED_EDGE ( 'NONE', *, *, #627, .T. ) ;
#566 = CARTESIAN_POINT ( 'NONE',  ( 0.1599364905388524494, 5.277018127597640884, -5.000000000000000000 ) ) ;
#567 = EDGE_CURVE ( 'NONE', #125, #442, #769, .T. ) ;
#568 = CARTESIAN_POINT ( 'NONE',  ( 2.027563948351050360, -8.511843774138899477, 5.000000000000000000 ) ) ;
#569 = AXIS2_PLACEMENT_3D ( 'NONE', #878, #147, #732 ) ;
#570 = CIRCLE ( 'NONE', #246, 8.750000000000001776 ) ;
#571 = ORIENTED_EDGE ( 'NONE', *, *, #347, .T. ) ;
#572 = DIRECTION ( 'NONE',  ( 0.000000000000000000, 0.000000000000000000, 1.000000000000000000 ) ) ;
#573 = CARTESIAN_POINT ( 'NONE',  ( 4.649999999999999467, 2.500000000000002220, 5.000000000000000000 ) ) ;
#574 = ORIENTED_EDGE ( 'NONE', *, *, #191, .T. ) ;
#575 = EDGE_LOOP ( 'NONE', ( #19, #837, #772, #287 ) ) ;
#576 = LINE ( 'NONE', #651, #808 ) ;
#577 = DIRECTION ( 'NONE',  ( -0.4999999999999979461, -0.8660254037844397068, 0.000000000000000000 ) ) ;
#578 = VERTEX_POINT ( 'NONE', #45 ) ;
#579 = EDGE_LOOP ( 'NONE', ( #551, #548, #918, #286 ) ) ;
#580 = LINE ( 'NONE', #806, #453 ) ;
#581 = LINE ( 'NONE', #159, #103 ) ;
#582 = CIRCLE ( 'NONE', #509, 8.750000000000001776 ) ;
#583 = ORIENTED_EDGE ( 'NONE', *, *, #83, .T. ) ;
#584 = ADVANCED_FACE ( 'NONE', ( #611 ), #895, .T. ) ;
#585 = VECTOR ( 'NONE', #251, 1000.000000000000000 ) ;
#586 = ADVANCED_FACE ( 'NONE', ( #688 ), #891, .T. ) ;
#587 = VERTEX_POINT ( 'NONE', #759 ) ;
#588 = LINE ( 'NONE', #88, #821 ) ;
#589 = AXIS2_PLACEMENT_3D ( 'NONE', #756, #541, #238 ) ;
#590 = PLANE ( 'NONE',  #165 ) ;
#591 = ORIENTED_EDGE ( 'NONE', *, *, #789, .F. ) ;
#592 = ORIENTED_EDGE ( 'NONE', *, *, #496, .T. ) ;
#593 = DIRECTION ( 'NONE',  ( 0.000000000000000000, 0.000000000000000000, 1.000000000000000000 ) ) ;
#594 = DIRECTION ( 'NONE',  ( 1.000000000000000000, 0.000000000000000000, 0.000000000000000000 ) ) ;
#595 = ORIENTED_EDGE ( 'NONE', *, *, #599, .F. ) ;
#596 = EDGE_CURVE ( 'NONE', #791, #218, #114, .T. ) ;
#597 =( NAMED_UNIT ( * ) PLANE_ANGLE_UNIT ( ) SI_UNIT ( $, .RADIAN. ) );
#598 = LINE ( 'NONE', #813, #616 ) ;
#599 = EDGE_CURVE ( 'NONE', #263, #727, #815, .T. ) ;
#600 = ORIENTED_EDGE ( 'NONE', *, *, #531, .F. ) ;
#601 = COLOUR_RGB ( '',0.7921568627450980005, 0.8196078431372548767, 0.9333333333333333481 ) ;
#602 = AXIS2_PLACEMENT_3D ( 'NONE', #46, #697, #536 ) ;
#603 = DIRECTION ( 'NONE',  ( 0.000000000000000000, 0.000000000000000000, -1.000000000000000000 ) ) ;
#604 = DIRECTION ( 'NONE',  ( 0.4999999999999919509, 0.8660254037844432595, -0.000000000000000000 ) ) ;
#605 = DIRECTION ( 'NONE',  ( -0.000000000000000000, 1.000000000000000000, -0.000000000000000000 ) ) ;
#606 = DIRECTION ( 'NONE',  ( 0.000000000000000000, 0.000000000000000000, -1.000000000000000000 ) ) ;
#607 = LINE ( 'NONE', #35, #812 ) ;
#608 = CARTESIAN_POINT ( 'NONE',  ( 0.000000000000000000, 0.000000000000000000, 5.000000000000000000 ) ) ;
#609 = ORIENTED_EDGE ( 'NONE', *, *, #652, .F. ) ;
#610 = LINE ( 'NONE', #894, #793 ) ;
#611 = FACE_OUTER_BOUND ( 'NONE', #140, .T. ) ;
#612 = CARTESIAN_POINT ( 'NONE',  ( 0.1599364905389287772, -5.277018127597639108, 5.000000000000000000 ) ) ;
#613 = ORIENTED_EDGE ( 'NONE', *, *, #733, .F. ) ;
#614 = VECTOR ( 'NONE', #373, 1000.000000000000000 ) ;
#615 = CARTESIAN_POINT ( 'NONE',  ( 0.1599364905388524494, 5.277018127597640884, 5.000000000000000000 ) ) ;
#616 = VECTOR ( 'NONE', #365, 1000.000000000000000 ) ;
#617 = CARTESIAN_POINT ( 'NONE',  ( 4.490063509461111657, -2.777018127597618680, -5.000000000000000000 ) ) ;
#618 = CARTESIAN_POINT ( 'NONE',  ( -4.649999999999999467, -2.500000000000002220, -5.000000000000000000 ) ) ;
#619 = VERTEX_POINT ( 'NONE', #782 ) ;
#620 = DIRECTION ( 'NONE',  ( 0.000000000000000000, 0.000000000000000000, 1.000000000000000000 ) ) ;
#621 = DIRECTION ( 'NONE',  ( 0.000000000000000000, 0.000000000000000000, 1.000000000000000000 ) ) ;
#622 = ORIENTED_EDGE ( 'NONE', *, *, #859, .T. ) ;
#623 = ADVANCED_FACE ( 'NONE', ( #416 ), #636, .F. ) ;
#624 = ORIENTED_EDGE ( 'NONE', *, *, #395, .T. ) ;
#625 = DIRECTION ( 'NONE',  ( 0.000000000000000000, 0.000000000000000000, 1.000000000000000000 ) ) ;
#626 = CARTESIAN_POINT ( 'NONE',  ( -4.490063509461088564, -2.777018127597650654, 5.000000000000000000 ) ) ;
#627 = EDGE_CURVE ( 'NONE', #785, #720, #921, .T. ) ;
#628 = VECTOR ( 'NONE', #60, 1000.000000000000114 ) ;
#629 = ORIENTED_EDGE ( 'NONE', *, *, #652, .T. ) ;
#630 = CARTESIAN_POINT ( 'NONE',  ( 0.000000000000000000, 0.000000000000000000, 5.000000000000000000 ) ) ;
#631 = AXIS2_PLACEMENT_3D ( 'NONE', #499, #933, #860 ) ;
#632 = DIRECTION ( 'NONE',  ( -0.000000000000000000, -0.000000000000000000, -1.000000000000000000 ) ) ;
#633 = VERTEX_POINT ( 'NONE', #265 ) ;
#634 = VECTOR ( 'NONE', #348, 1000.000000000000000 ) ;
#635 = ORIENTED_EDGE ( 'NONE', *, *, #556, .F. ) ;
#636 = CYLINDRICAL_SURFACE ( 'NONE', #917, 4.049999999999999822 ) ;
#637 = CARTESIAN_POINT ( 'NONE',  ( 4.649999999999999467, 0.000000000000000000, 0.000000000000000000 ) ) ;
#638 = ORIENTED_EDGE ( 'NONE', *, *, #544, .F. ) ;
#639 = CARTESIAN_POINT ( 'NONE',  ( 0.1599364905388524494, 5.277018127597640884, 5.000000000000000000 ) ) ;
#640 = CARTESIAN_POINT ( 'NONE',  ( 4.649999999999999467, 2.500000000000002220, 5.000000000000000000 ) ) ;
#641 = EDGE_LOOP ( 'NONE', ( #34, #491, #495, #131 ) ) ;
#642 = ORIENTED_EDGE ( 'NONE', *, *, #888, .T. ) ;
#643 = CARTESIAN_POINT ( 'NONE',  ( -2.027563948351111645, 8.511843774138885266, 5.000000000000000000 ) ) ;
#644 = AXIS2_PLACEMENT_3D ( 'NONE', #53, #492, #497 ) ;
#645 = CARTESIAN_POINT ( 'NONE',  ( 0.000000000000000000, 0.000000000000000000, 5.000000000000000000 ) ) ;
#646 = VECTOR ( 'NONE', #693, 1000.000000000000000 ) ;
#647 = ORIENTED_EDGE ( 'NONE', *, *, #55, .F. ) ;
#648 = CARTESIAN_POINT ( 'NONE',  ( 4.490063509461069913, 2.777018127597681740, 5.000000000000000000 ) ) ;
#649 = PLANE ( 'NONE',  #355 ) ;
#650 = ORIENTED_EDGE ( 'NONE', *, *, #890, .F. ) ;
#651 = CARTESIAN_POINT ( 'NONE',  ( 6.357690967273145866, 6.011843774138967866, 5.000000000000000000 ) ) ;
#652 = EDGE_CURVE ( 'NONE', #727, #686, #924, .T. ) ;
#653 = DIRECTION ( 'NONE',  ( 0.000000000000000000, 0.000000000000000000, 1.000000000000000000 ) ) ;
#654 = EDGE_CURVE ( 'NONE', #263, #662, #767, .T. ) ;
#655 = ORIENTED_EDGE ( 'NONE', *, *, #23, .T. ) ;
#656 = ORIENTED_EDGE ( 'NONE', *, *, #724, .F. ) ;
#657 = LINE ( 'NONE', #11, #882 ) ;
#658 = DIRECTION ( 'NONE',  ( 0.4999999999999919509, 0.8660254037844432595, 0.000000000000000000 ) ) ;
#659 = AXIS2_PLACEMENT_3D ( 'NONE', #559, #909, #259 ) ;
#660 = EDGE_LOOP ( 'NONE', ( #230, #80, #521, #709 ) ) ;
#661 = CIRCLE ( 'NONE', #737, 8.750000000000001776 ) ;
#662 = VERTEX_POINT ( 'NONE', #268 ) ;
#663 = CARTESIAN_POINT ( 'NONE',  ( 4.049999999999999822, 4.959819536546779614E-16, 5.000000000000000000 ) ) ;
#664 = LINE ( 'NONE', #18, #526 ) ;
#665 = ORIENTED_EDGE ( 'NONE', *, *, #166, .T. ) ;
#666 = ADVANCED_FACE ( 'NONE', ( #563 ), #123, .T. ) ;
#667 = ORIENTED_EDGE ( 'NONE', *, *, #314, .T. ) ;
#668 = EDGE_CURVE ( 'NONE', #520, #476, #49, .T. ) ;
#669 = DIRECTION ( 'NONE',  ( 0.000000000000000000, 0.000000000000000000, 1.000000000000000000 ) ) ;
#670 = CARTESIAN_POINT ( 'NONE',  ( 6.357690967273145866, 6.011843774138967866, -5.000000000000000000 ) ) ;
#671 = VERTEX_POINT ( 'NONE', #352 ) ;
#672 = CARTESIAN_POINT ( 'NONE',  ( 4.649999999999999467, -2.499999999999998668, -5.000000000000000000 ) ) ;
#673 = DIRECTION ( 'NONE',  ( 0.000000000000000000, 0.000000000000000000, 1.000000000000000000 ) ) ;
#674 = ORIENTED_EDGE ( 'NONE', *, *, #733, .T. ) ;
#675 = VECTOR ( 'NONE', #858, 999.9999999999998863 ) ;
#676 = AXIS2_PLACEMENT_3D ( 'NONE', #564, #701, #774 ) ;
#677 =( NAMED_UNIT ( * ) PLANE_ANGLE_UNIT ( ) SI_UNIT ( $, .RADIAN. ) );
#678 = AXIS2_PLACEMENT_3D ( 'NONE', #311, #240, #673 ) ;
#679 = DIRECTION ( 'NONE',  ( 0.000000000000000000, -1.000000000000000000, 0.000000000000000000 ) ) ;
#680 = CARTESIAN_POINT ( 'NONE',  ( 2.027563948350929568, 8.511843774138927898, 5.000000000000000000 ) ) ;
#681 = PRODUCT_RELATED_PRODUCT_CATEGORY ( 'part', '', ( #183 ) ) ;
#682 = CARTESIAN_POINT ( 'NONE',  ( -4.649999999999999467, 2.499999999999998668, 5.000000000000000000 ) ) ;
#683 = CARTESIAN_POINT ( 'NONE',  ( 0.000000000000000000, 0.000000000000000000, 5.000000000000000000 ) ) ;
#684 = ADVANCED_FACE ( 'NONE', ( #272 ), #197, .T. ) ;
#685 = LINE ( 'NONE', #404, #646 ) ;
#686 = VERTEX_POINT ( 'NONE', #204 ) ;
#687 = DIRECTION ( 'NONE',  ( 0.000000000000000000, 0.000000000000000000, 1.000000000000000000 ) ) ;
#688 = FACE_OUTER_BOUND ( 'NONE', #398, .T. ) ;
#689 = LINE ( 'NONE', #397, #883 ) ;
#690 = SURFACE_STYLE_USAGE ( .BOTH. , #473 ) ;
#691 = VECTOR ( 'NONE', #392, 1000.000000000000000 ) ;
#692 = CARTESIAN_POINT ( 'NONE',  ( -4.490063509461130309, 2.777018127597585817, -5.000000000000000000 ) ) ;
#693 = DIRECTION ( 'NONE',  ( -0.000000000000000000, -0.000000000000000000, -1.000000000000000000 ) ) ;
#694 = ADVANCED_FACE ( 'NONE', ( #770 ), #844, .T. ) ;
#695 = EDGE_CURVE ( 'NONE', #835, #258, #215, .T. ) ;
#696 = DIRECTION ( 'NONE',  ( -0.000000000000000000, 0.000000000000000000, -1.000000000000000000 ) ) ;
#697 = DIRECTION ( 'NONE',  ( 0.000000000000000000, 1.000000000000000000, 0.000000000000000000 ) ) ;
#698 = ORIENTED_EDGE ( 'NONE', *, *, #168, .T. ) ;
#699 = VERTEX_POINT ( 'NONE', #915 ) ;
#700 = DIRECTION ( 'NONE',  ( 0.8660254037844398178, -0.4999999999999980016, 0.000000000000000000 ) ) ;
#701 = DIRECTION ( 'NONE',  ( 0.000000000000000000, 0.000000000000000000, 1.000000000000000000 ) ) ;
#702 = ORIENTED_EDGE ( 'NONE', *, *, #919, .F. ) ;
#703 = VECTOR ( 'NONE', #687, 1000.000000000000000 ) ;
#704 = VERTEX_POINT ( 'NONE', #426 ) ;
#705 = DIRECTION ( 'NONE',  ( -0.8660254037844363761, -0.5000000000000039968, 0.000000000000000000 ) ) ;
#706 = CLOSED_SHELL ( 'NONE', ( #253, #51, #869, #498, #96, #443, #214, #243, #586, #623, #105, #900, #388, #384, #684, #323, #666, #847, #488, #242, #694, #285, #932, #216, #584, #154, #15, #462 ) ) ;
#707 = CARTESIAN_POINT ( 'NONE',  ( -4.649999999999999467, -2.500000000000002220, 5.000000000000000000 ) ) ;
#708 = ORIENTED_EDGE ( 'NONE', *, *, #596, .F. ) ;
#709 = ORIENTED_EDGE ( 'NONE', *, *, #461, .T. ) ;
#710 = DIRECTION ( 'NONE',  ( 1.000000000000000000, 0.000000000000000000, 0.000000000000000000 ) ) ;
#711 = LINE ( 'NONE', #626, #73 ) ;
#712 = VERTEX_POINT ( 'NONE', #69 ) ;
#713 = ORIENTED_EDGE ( 'NONE', *, *, #831, .F. ) ;
#714 = DIRECTION ( 'NONE',  ( 0.000000000000000000, 0.000000000000000000, 1.000000000000000000 ) ) ;
#715 = CARTESIAN_POINT ( 'NONE',  ( -4.490063509461088564, -2.777018127597650654, 5.000000000000000000 ) ) ;
#716 = ORIENTED_EDGE ( 'NONE', *, *, #177, .T. ) ;
#717 = CARTESIAN_POINT ( 'NONE',  ( 4.490063509461069913, 2.777018127597681740, 5.000000000000000000 ) ) ;
#718 = DIRECTION ( 'NONE',  ( -0.000000000000000000, 0.000000000000000000, 1.000000000000000000 ) ) ;
#719 = AXIS2_PLACEMENT_3D ( 'NONE', #608, #118, #33 ) ;
#720 = VERTEX_POINT ( 'NONE', #643 ) ;
#721 = EDGE_CURVE ( 'NONE', #476, #712, #337, .T. ) ;
#722 = ORIENTED_EDGE ( 'NONE', *, *, #760, .T. ) ;
#723 = CARTESIAN_POINT ( 'NONE',  ( -0.1599364905389656366, 5.277018127597635555, 5.000000000000000000 ) ) ;
#724 = EDGE_CURVE ( 'NONE', #501, #270, #129, .T. ) ;
#725 = DIRECTION ( 'NONE',  ( -0.000000000000000000, -0.000000000000000000, -1.000000000000000000 ) ) ;
#726 = ORIENTED_EDGE ( 'NONE', *, *, #177, .F. ) ;
#727 = VERTEX_POINT ( 'NONE', #117 ) ;
#728 = LINE ( 'NONE', #717, #245 ) ;
#729 = CARTESIAN_POINT ( 'NONE',  ( -0.1599364905389656366, 5.277018127597635555, -5.000000000000000000 ) ) ;
#730 = VERTEX_POINT ( 'NONE', #345 ) ;
#731 = EDGE_CURVE ( 'NONE', #712, #835, #333, .T. ) ;
#732 = DIRECTION ( 'NONE',  ( 1.000000000000000000, 0.000000000000000000, 0.000000000000000000 ) ) ;
#733 = EDGE_CURVE ( 'NONE', #47, #619, #305, .T. ) ;
#734 = CARTESIAN_POINT ( 'NONE',  ( 0.000000000000000000, 0.000000000000000000, -5.000000000000000000 ) ) ;
#735 = VECTOR ( 'NONE', #98, 1000.000000000000000 ) ;
#736 = CARTESIAN_POINT ( 'NONE',  ( -0.1599364905388893088, -5.277018127597641772, 5.000000000000000000 ) ) ;
#737 = AXIS2_PLACEMENT_3D ( 'NONE', #734, #228, #594 ) ;
#738 = EDGE_CURVE ( 'NONE', #712, #587, #144, .T. ) ;
#739 = FACE_BOUND ( 'NONE', #827, .T. ) ;
#740 = CARTESIAN_POINT ( 'NONE',  ( 4.490063509461069913, 2.777018127597681740, -5.000000000000000000 ) ) ;
#741 = EDGE_LOOP ( 'NONE', ( #185, #62, #222, #431 ) ) ;
#742 = CARTESIAN_POINT ( 'NONE',  ( 4.049999999999999822, 4.959819536546779614E-16, 5.000000000000000000 ) ) ;
#743 = VERTEX_POINT ( 'NONE', #126 ) ;
#744 = CARTESIAN_POINT ( 'NONE',  ( 4.490063509461069913, 2.777018127597681740, -5.000000000000000000 ) ) ;
#745 = DIRECTION ( 'NONE',  ( 0.000000000000000000, 0.000000000000000000, 1.000000000000000000 ) ) ;
#746 = DIRECTION ( 'NONE',  ( -0.5000000000000101030, 0.8660254037844328234, 0.000000000000000000 ) ) ;
#747 = CIRCLE ( 'NONE', #569, 8.750000000000001776 ) ;
#748 = EDGE_CURVE ( 'NONE', #699, #258, #282, .T. ) ;
#749 = DIRECTION ( 'NONE',  ( 0.000000000000000000, -1.000000000000000000, -0.000000000000000000 ) ) ;
#750 = CARTESIAN_POINT ( 'NONE',  ( 0.000000000000000000, 0.000000000000000000, 5.000000000000000000 ) ) ;
#751 = EDGE_CURVE ( 'NONE', #476, #192, #518, .T. ) ;
#752 = CYLINDRICAL_SURFACE ( 'NONE', #324, 8.750000000000001776 ) ;
#753 = VECTOR ( 'NONE', #778, 1000.000000000000000 ) ;
#754 = ORIENTED_EDGE ( 'NONE', *, *, #777, .F. ) ;
#755 = DIRECTION ( 'NONE',  ( -0.000000000000000000, -0.000000000000000000, -1.000000000000000000 ) ) ;
#756 = CARTESIAN_POINT ( 'NONE',  ( 0.000000000000000000, 0.000000000000000000, 5.000000000000000000 ) ) ;
#757 = PLANE ( 'NONE',  #719 ) ;
#758 = ORIENTED_EDGE ( 'NONE', *, *, #654, .F. ) ;
#759 = CARTESIAN_POINT ( 'NONE',  ( 8.385254915624214433, -2.499999999999998668, -5.000000000000000000 ) ) ;
#760 = EDGE_CURVE ( 'NONE', #671, #125, #657, .T. ) ;
#761 = LINE ( 'NONE', #472, #854 ) ;
#762 = EDGE_CURVE ( 'NONE', #506, #449, #866, .T. ) ;
#763 = ORIENTED_EDGE ( 'NONE', *, *, #23, .F. ) ;
#764 = MECHANICAL_DESIGN_GEOMETRIC_PRESENTATION_REPRESENTATION (  '', ( #72 ), #202 ) ;
#765 = EDGE_CURVE ( 'NONE', #927, #263, #728, .T. ) ;
#766 = AXIS2_PLACEMENT_3D ( 'NONE', #881, #725, #148 ) ;
#767 = LINE ( 'NONE', #639, #753 ) ;
#768 = DIRECTION ( 'NONE',  ( -0.000000000000000000, -0.000000000000000000, -1.000000000000000000 ) ) ;
#769 = CIRCLE ( 'NONE', #376, 8.750000000000001776 ) ;
#770 = FACE_OUTER_BOUND ( 'NONE', #575, .T. ) ;
#771 = DIRECTION ( 'NONE',  ( 0.8660254037844397068, -0.4999999999999979461, 0.000000000000000000 ) ) ;
#772 = ORIENTED_EDGE ( 'NONE', *, *, #329, .T. ) ;
#773 = DIRECTION ( 'NONE',  ( 1.000000000000000000, 0.000000000000000000, 0.000000000000000000 ) ) ;
#774 = DIRECTION ( 'NONE',  ( 1.000000000000000000, 0.000000000000000000, 0.000000000000000000 ) ) ;
#775 = EDGE_LOOP ( 'NONE', ( #161, #371, #423, #613 ) ) ;
#776 = SHAPE_DEFINITION_REPRESENTATION ( #249, #136 ) ;
#777 = EDGE_CURVE ( 'NONE', #442, #457, #576, .T. ) ;
#778 = DIRECTION ( 'NONE',  ( 0.4999999999999919509, 0.8660254037844432595, 0.000000000000000000 ) ) ;
#779 = CIRCLE ( 'NONE', #836, 4.049999999999999822 ) ;
#780 = PLANE ( 'NONE',  #494 ) ;
#781 = ORIENTED_EDGE ( 'NONE', *, *, #85, .F. ) ;
#782 = CARTESIAN_POINT ( 'NONE',  ( -4.049999999999999822, 0.000000000000000000, -5.000000000000000000 ) ) ;
#783 = DIRECTION ( 'NONE',  ( 0.000000000000000000, 0.000000000000000000, 1.000000000000000000 ) ) ;
#784 = ORIENTED_EDGE ( 'NONE', *, *, #818, .F. ) ;
#785 = VERTEX_POINT ( 'NONE', #723 ) ;
#786 = DIRECTION ( 'NONE',  ( 0.000000000000000000, 0.000000000000000000, 1.000000000000000000 ) ) ;
#787 = DIRECTION ( 'NONE',  ( 0.000000000000000000, -0.000000000000000000, -1.000000000000000000 ) ) ;
#788 = VERTEX_POINT ( 'NONE', #210 ) ;
#789 = EDGE_CURVE ( 'NONE', #221, #927, #507, .T. ) ;
#790 = EDGE_CURVE ( 'NONE', #192, #578, #580, .T. ) ;
#791 = VERTEX_POINT ( 'NONE', #227 ) ;
#792 = LINE ( 'NONE', #802, #41 ) ;
#793 = VECTOR ( 'NONE', #44, 1000.000000000000000 ) ;
#794 = DIRECTION ( 'NONE',  ( 0.5000000000000039968, -0.8660254037844363761, 0.000000000000000000 ) ) ;
#795 = AXIS2_PLACEMENT_3D ( 'NONE', #925, #278, #198 ) ;
#796 = DIRECTION ( 'NONE',  ( 0.5000000000000101030, -0.8660254037844328234, 0.000000000000000000 ) ) ;
#797 = ORIENTED_EDGE ( 'NONE', *, *, #777, .T. ) ;
#798 = DIRECTION ( 'NONE',  ( -0.000000000000000000, -0.000000000000000000, -1.000000000000000000 ) ) ;
#799 = CARTESIAN_POINT ( 'NONE',  ( -0.1599364905388893088, -5.277018127597641772, 5.000000000000000000 ) ) ;
#800 = VERTEX_POINT ( 'NONE', #17 ) ;
#801 = VERTEX_POINT ( 'NONE', #358 ) ;
#802 = CARTESIAN_POINT ( 'NONE',  ( -4.490063509461088564, -2.777018127597650654, 5.000000000000000000 ) ) ;
#803 = DIRECTION ( 'NONE',  ( 0.000000000000000000, 0.000000000000000000, 1.000000000000000000 ) ) ;
#804 = ORIENTED_EDGE ( 'NONE', *, *, #731, .T. ) ;
#805 = ORIENTED_EDGE ( 'NONE', *, *, #26, .F. ) ;
#806 = CARTESIAN_POINT ( 'NONE',  ( 0.1599364905389287772, -5.277018127597639108, -5.000000000000000000 ) ) ;
#807 = DIRECTION ( 'NONE',  ( -1.000000000000000000, 0.000000000000000000, -0.000000000000000000 ) ) ;
#808 = VECTOR ( 'NONE', #798, 1000.000000000000000 ) ;
#809 = VECTOR ( 'NONE', #370, 999.9999999999998863 ) ;
#810 = ORIENTED_EDGE ( 'NONE', *, *, #461, .F. ) ;
#811 = VECTOR ( 'NONE', #794, 1000.000000000000114 ) ;
#812 = VECTOR ( 'NONE', #174, 1000.000000000000114 ) ;
#813 = CARTESIAN_POINT ( 'NONE',  ( 4.649999999999999467, -2.499999999999998668, -5.000000000000000000 ) ) ;
#814 = CARTESIAN_POINT ( 'NONE',  ( 0.1599364905389287772, -5.277018127597639108, 5.000000000000000000 ) ) ;
#815 = LINE ( 'NONE', #64, #390 ) ;
#816 = PRODUCT_DEFINITION_CONTEXT ( 'detailed design', #342, 'design' ) ;
#817 = FACE_BOUND ( 'NONE', #271, .T. ) ;
#818 = EDGE_CURVE ( 'NONE', #235, #800, #792, .T. ) ;
#819 = CARTESIAN_POINT ( 'NONE',  ( 4.490063509461111657, -2.777018127597618680, 5.000000000000000000 ) ) ;
#820 = CARTESIAN_POINT ( 'NONE',  ( -8.385254915624212657, -2.500000000000002220, 5.000000000000000000 ) ) ;
#821 = VECTOR ( 'NONE', #82, 1000.000000000000000 ) ;
#822 = ORIENTED_EDGE ( 'NONE', *, *, #430, .T. ) ;
#823 = AXIS2_PLACEMENT_3D ( 'NONE', #334, #632, #349 ) ;
#824 = CARTESIAN_POINT ( 'NONE',  ( 4.649999999999999467, -2.499999999999998668, 5.000000000000000000 ) ) ;
#825 = LINE ( 'NONE', #178, #557 ) ;
#826 = CARTESIAN_POINT ( 'NONE',  ( 8.385254915624212657, 2.500000000000002220, 5.000000000000000000 ) ) ;
#827 = EDGE_LOOP ( 'NONE', ( #698, #674 ) ) ;
#828 = EDGE_CURVE ( 'NONE', #686, #801, #747, .T. ) ;
#829 = DIRECTION ( 'NONE',  ( 0.000000000000000000, 0.000000000000000000, -1.000000000000000000 ) ) ;
#830 = LINE ( 'NONE', #889, #454 ) ;
#831 = EDGE_CURVE ( 'NONE', #785, #152, #377, .T. ) ;
#832 = VERTEX_POINT ( 'NONE', #368 ) ;
#833 = DIRECTION ( 'NONE',  ( 1.000000000000000000, 0.000000000000000000, 0.000000000000000000 ) ) ;
#834 = LINE ( 'NONE', #36, #437 ) ;
#835 = VERTEX_POINT ( 'NONE', #445 ) ;
#836 = AXIS2_PLACEMENT_3D ( 'NONE', #331, #621, #550 ) ;
#837 = ORIENTED_EDGE ( 'NONE', *, *, #359, .F. ) ;
#838 = DIRECTION ( 'NONE',  ( -1.000000000000000000, 0.000000000000000000, 0.000000000000000000 ) ) ;
#839 = CARTESIAN_POINT ( 'NONE',  ( 0.000000000000000000, 0.000000000000000000, 5.000000000000000000 ) ) ;
#840 = AXIS2_PLACEMENT_3D ( 'NONE', #849, #705, #137 ) ;
#841 = ORIENTED_EDGE ( 'NONE', *, *, #327, .T. ) ;
#842 = UNCERTAINTY_MEASURE_WITH_UNIT (LENGTH_MEASURE( 1.000000000000000082E-05 ), #466, 'distance_accuracy_value', 'NONE');
#843 = ORIENTED_EDGE ( 'NONE', *, *, #429, .F. ) ;
#844 = PLANE ( 'NONE',  #644 ) ;
#845 = FACE_OUTER_BOUND ( 'NONE', #56, .T. ) ;
#846 = VERTEX_POINT ( 'NONE', #302 ) ;
#847 = ADVANCED_FACE ( 'NONE', ( #219 ), #513, .T. ) ;
#848 = EDGE_CURVE ( 'NONE', #152, #704, #364, .T. ) ;
#849 = CARTESIAN_POINT ( 'NONE',  ( 4.490063509461111657, -2.777018127597618680, 5.000000000000000000 ) ) ;
#850 = DIRECTION ( 'NONE',  ( 0.000000000000000000, 0.000000000000000000, 1.000000000000000000 ) ) ;
#851 = VECTOR ( 'NONE', #625, 1000.000000000000000 ) ;
#852 = ORIENTED_EDGE ( 'NONE', *, *, #191, .F. ) ;
#853 = CARTESIAN_POINT ( 'NONE',  ( 4.490063509461111657, -2.777018127597618680, 5.000000000000000000 ) ) ;
#854 = VECTOR ( 'NONE', #896, 1000.000000000000114 ) ;
#855 = CARTESIAN_POINT ( 'NONE',  ( 4.490063509461069913, 2.777018127597681740, -5.000000000000000000 ) ) ;
#856 = EDGE_CURVE ( 'NONE', #633, #671, #588, .T. ) ;
#857 = ORIENTED_EDGE ( 'NONE', *, *, #326, .T. ) ;
#858 = DIRECTION ( 'NONE',  ( -0.8660254037844363761, -0.5000000000000039968, 0.000000000000000000 ) ) ;
#859 = EDGE_CURVE ( 'NONE', #671, #457, #582, .T. ) ;
#860 = DIRECTION ( 'NONE',  ( -0.4999999999999919509, -0.8660254037844432595, 0.000000000000000000 ) ) ;
#861 = EDGE_CURVE ( 'NONE', #501, #47, #223, .T. ) ;
#862 = ORIENTED_EDGE ( 'NONE', *, *, #731, .F. ) ;
#863 = DIRECTION ( 'NONE',  ( 0.5000000000000039968, -0.8660254037844363761, 0.000000000000000000 ) ) ;
#864 = DIRECTION ( 'NONE',  ( -0.5000000000000101030, 0.8660254037844328234, 0.000000000000000000 ) ) ;
#865 = ORIENTED_EDGE ( 'NONE', *, *, #256, .T. ) ;
#866 = LINE ( 'NONE', #207, #116 ) ;
#867 = LINE ( 'NONE', #224, #809 ) ;
#868 = AXIS2_PLACEMENT_3D ( 'NONE', #447, #86, #796 ) ;
#869 = ADVANCED_FACE ( 'NONE', ( #739, #7 ), #288, .F. ) ;
#870 = ORIENTED_EDGE ( 'NONE', *, *, #695, .T. ) ;
#871 = VECTOR ( 'NONE', #244, 1000.000000000000114 ) ;
#872 = EDGE_LOOP ( 'NONE', ( #362, #298, #763, #635 ) ) ;
#873 = MANIFOLD_SOLID_BREP ( 'CirPattern1', #706 ) ;
#874 = DIRECTION ( 'NONE',  ( 1.000000000000000000, 0.000000000000000000, 0.000000000000000000 ) ) ;
#875 = LINE ( 'NONE', #879, #217 ) ;
#876 = ORIENTED_EDGE ( 'NONE', *, *, #738, .T. ) ;
#877 = ORIENTED_EDGE ( 'NONE', *, *, #229, .F. ) ;
#878 = CARTESIAN_POINT ( 'NONE',  ( 0.000000000000000000, 0.000000000000000000, -5.000000000000000000 ) ) ;
#879 = CARTESIAN_POINT ( 'NONE',  ( 4.649999999999999467, -2.499999999999998668, 5.000000000000000000 ) ) ;
#880 = ORIENTED_EDGE ( 'NONE', *, *, #627, .F. ) ;
#881 = CARTESIAN_POINT ( 'NONE',  ( 0.000000000000000000, 0.000000000000000000, 5.000000000000000000 ) ) ;
#882 = VECTOR ( 'NONE', #593, 1000.000000000000000 ) ;
#883 = VECTOR ( 'NONE', #40, 1000.000000000000000 ) ;
#884 = ORIENTED_EDGE ( 'NONE', *, *, #789, .T. ) ;
#885 = VECTOR ( 'NONE', #887, 1000.000000000000000 ) ;
#886 = DIRECTION ( 'NONE',  ( 0.4999999999999919509, 0.8660254037844432595, 0.000000000000000000 ) ) ;
#887 = DIRECTION ( 'NONE',  ( -0.5000000000000101030, 0.8660254037844328234, 0.000000000000000000 ) ) ;
#888 = EDGE_CURVE ( 'NONE', #699, #252, #316, .T. ) ;
#889 = CARTESIAN_POINT ( 'NONE',  ( -4.649999999999999467, 2.499999999999998668, 5.000000000000000000 ) ) ;
#890 = EDGE_CURVE ( 'NONE', #788, #743, #380, .T. ) ;
#891 = CYLINDRICAL_SURFACE ( 'NONE', #150, 8.750000000000001776 ) ;
#892 = DIRECTION ( 'NONE',  ( 0.000000000000000000, -1.000000000000000000, 0.000000000000000000 ) ) ;
#893 = VERTEX_POINT ( 'NONE', #463 ) ;
#894 = CARTESIAN_POINT ( 'NONE',  ( -6.357690967273188498, -6.011843774138924346, 5.000000000000000000 ) ) ;
#895 = PLANE ( 'NONE',  #360 ) ;
#896 = DIRECTION ( 'NONE',  ( -0.4999999999999979461, -0.8660254037844397068, 0.000000000000000000 ) ) ;
#897 = EDGE_CURVE ( 'NONE', #727, #221, #110, .T. ) ;
#898 = CIRCLE ( 'NONE', #189, 8.750000000000001776 ) ;
#899 = PLANE ( 'NONE',  #912 ) ;
#900 = ADVANCED_FACE ( 'NONE', ( #38 ), #899, .T. ) ;
#901 = LINE ( 'NONE', #532, #871 ) ;
#902 = CARTESIAN_POINT ( 'NONE',  ( -4.049999999999999822, 0.000000000000000000, 5.000000000000000000 ) ) ;
#903 = PRODUCT_CONTEXT ( 'NONE', #319, 'mechanical' ) ;
#904 = CARTESIAN_POINT ( 'NONE',  ( -0.1599364905389656366, 5.277018127597635555, 5.000000000000000000 ) ) ;
#905 = PLANE ( 'NONE',  #402 ) ;
#906 = ORIENTED_EDGE ( 'NONE', *, *, #790, .T. ) ;
#907 = APPLICATION_PROTOCOL_DEFINITION ( 'draft international standard', 'automotive_design', 1998, #342 ) ;
#908 = VERTEX_POINT ( 'NONE', #672 ) ;
#909 = DIRECTION ( 'NONE',  ( 0.000000000000000000, 0.000000000000000000, 1.000000000000000000 ) ) ;
#910 = DIRECTION ( 'NONE',  ( -0.5000000000000101030, 0.8660254037844328234, 0.000000000000000000 ) ) ;
#911 = ORIENTED_EDGE ( 'NONE', *, *, #256, .F. ) ;
#912 = AXIS2_PLACEMENT_3D ( 'NONE', #682, #749, #606 ) ;
#913 = VECTOR ( 'NONE', #658, 1000.000000000000000 ) ;
#914 = EDGE_LOOP ( 'NONE', ( #797, #357, #884, #515 ) ) ;
#915 = CARTESIAN_POINT ( 'NONE',  ( 4.649999999999999467, -2.499999999999998668, 5.000000000000000000 ) ) ;
#916 = DIRECTION ( 'NONE',  ( -0.000000000000000000, -0.000000000000000000, -1.000000000000000000 ) ) ;
#917 = AXIS2_PLACEMENT_3D ( 'NONE', #484, #931, #838 ) ;
#918 = ORIENTED_EDGE ( 'NONE', *, *, #55, .T. ) ;
#919 = EDGE_CURVE ( 'NONE', #196, #578, #101, .T. ) ;
#920 = ORIENTED_EDGE ( 'NONE', *, *, #567, .T. ) ;
#921 = LINE ( 'NONE', #489, #309 ) ;
#922 = FACE_OUTER_BOUND ( 'NONE', #2, .T. ) ;
#923 = ORIENTED_EDGE ( 'NONE', *, *, #555, .F. ) ;
#924 = LINE ( 'NONE', #566, #634 ) ;
#925 = CARTESIAN_POINT ( 'NONE',  ( 0.000000000000000000, 0.000000000000000000, 5.000000000000000000 ) ) ;
#926 = EDGE_CURVE ( 'NONE', #206, #930, #534, .T. ) ;
#927 = VERTEX_POINT ( 'NONE', #248 ) ;
#928 = EDGE_CURVE ( 'NONE', #800, #893, #610, .T. ) ;
#929 = VECTOR ( 'NONE', #93, 1000.000000000000000 ) ;
#930 = VERTEX_POINT ( 'NONE', #385 ) ;
#931 = DIRECTION ( 'NONE',  ( -0.000000000000000000, -0.000000000000000000, -1.000000000000000000 ) ) ;
#932 = ADVANCED_FACE ( 'NONE', ( #30 ), #310, .T. ) ;
#933 = DIRECTION ( 'NONE',  ( -0.8660254037844432595, 0.4999999999999919509, 0.000000000000000000 ) ) ;
ENDSEC;
END-ISO-10303-21;
