ISO-10303-21;
HEADER;
FILE_DESCRIPTION (( 'STEP AP214' ),
    '1' );
FILE_NAME ('P001-B102_MagnetHolderRing_Rev2C_3.STEP',
    '2026-04-17T21:15:45',
    ( '' ),
    ( '' ),
    'SwSTEP 2.0',
    'SolidWorks 2026',
    '' );
FILE_SCHEMA (( 'AUTOMOTIVE_DESIGN' ));
ENDSEC;

DATA;
#1 = VECTOR ( 'NONE', #55, 1000.000000000000227 ) ;
#2 = ORIENTED_EDGE ( 'NONE', *, *, #798, .T. ) ;
#3 = DIRECTION ( 'NONE',  ( 0.000000000000000000, -1.000000000000000000, 0.000000000000000000 ) ) ;
#4 = CARTESIAN_POINT ( 'NONE',  ( 8.400000000000000355, 2.450000000000000622, 5.000000000000000000 ) ) ;
#5 = APPLICATION_CONTEXT ( 'automotive_design' ) ;
#6 = EDGE_LOOP ( 'NONE', ( #203, #902 ) ) ;
#7 = CARTESIAN_POINT ( 'NONE',  ( 4.749999999999999112, 2.450000000000000622, -5.000000000000000888 ) ) ;
#8 = DIRECTION ( 'NONE',  ( 0.000000000000000000, 0.000000000000000000, 1.000000000000000000 ) ) ;
#9 = CARTESIAN_POINT ( 'NONE',  ( -4.749999999999999112, -2.450000000000000622, 4.999999999999999112 ) ) ;
#10 = ORIENTED_EDGE ( 'NONE', *, *, #41, .F. ) ;
#11 = EDGE_CURVE ( 'NONE', #347, #888, #326, .T. ) ;
#12 = CARTESIAN_POINT ( 'NONE',  ( -0.2532377607281119380, -5.338620667976084810, 4.999999999999999112 ) ) ;
#13 = ADVANCED_FACE ( 'NONE', ( #903 ), #119, .T. ) ;
#14 = DIRECTION ( 'NONE',  ( -0.000000000000000000, -0.000000000000000000, -1.000000000000000000 ) ) ;
#15 = CARTESIAN_POINT ( 'NONE',  ( 4.749999999999999112, -2.450000000000000622, 4.999999999999999112 ) ) ;
#16 = LINE ( 'NONE', #652, #47 ) ;
#17 = UNCERTAINTY_MEASURE_WITH_UNIT (LENGTH_MEASURE( 1.000000000000000082E-05 ), #139, 'distance_accuracy_value', 'NONE');
#18 = VERTEX_POINT ( 'NONE', #411 ) ;
#19 = DIRECTION ( 'NONE',  ( 1.000000000000000000, 0.000000000000000000, 0.000000000000000000 ) ) ;
#20 = AXIS2_PLACEMENT_3D ( 'NONE', #456, #886, #216 ) ;
#21 = CARTESIAN_POINT ( 'NONE',  ( -0.2532377607281119380, -5.338620667976084810, 4.999999999999999112 ) ) ;
#22 = FACE_OUTER_BOUND ( 'NONE', #65, .T. ) ;
#23 = DIRECTION ( 'NONE',  ( -0.8660254037844432595, 0.4999999999999920064, 0.000000000000000000 ) ) ;
#24 = ORIENTED_EDGE ( 'NONE', *, *, #138, .T. ) ;
#25 = PLANE ( 'NONE',  #739 ) ;
#26 = CARTESIAN_POINT ( 'NONE',  ( 8.400000000000000355, 2.450000000000000622, 4.999999999999999112 ) ) ;
#27 = VERTEX_POINT ( 'NONE', #331 ) ;
#28 = EDGE_CURVE ( 'NONE', #875, #27, #697, .T. ) ;
#29 = CYLINDRICAL_SURFACE ( 'NONE', #899, 8.750000000000001776 ) ;
#30 = ORIENTED_EDGE ( 'NONE', *, *, #646, .F. ) ;
#31 = CARTESIAN_POINT ( 'NONE',  ( 0.000000000000000000, 0.000000000000000000, 5.000000000000000000 ) ) ;
#32 = CLOSED_SHELL ( 'NONE', ( #676, #115, #489, #266, #881, #245, #374, #207, #828, #842, #476, #261, #641, #183, #68, #541, #542, #821, #13, #335, #532, #73, #882, #699, #419, #868, #900, #518 ) ) ;
#33 = VECTOR ( 'NONE', #173, 1000.000000000000000 ) ;
#34 = ORIENTED_EDGE ( 'NONE', *, *, #51, .F. ) ;
#35 = CARTESIAN_POINT ( 'NONE',  ( 4.000000000000000000, 4.898587196589412829E-16, 5.000000000000000000 ) ) ;
#36 = ORIENTED_EDGE ( 'NONE', *, *, #780, .T. ) ;
#37 = ORIENTED_EDGE ( 'NONE', *, *, #278, .T. ) ;
#38 = CARTESIAN_POINT ( 'NONE',  ( 0.000000000000000000, 0.000000000000000000, -5.000000000000000000 ) ) ;
#39 = VECTOR ( 'NONE', #448, 1000.000000000000000 ) ;
#40 = ORIENTED_EDGE ( 'NONE', *, *, #747, .T. ) ;
#41 = EDGE_CURVE ( 'NONE', #498, #494, #621, .T. ) ;
#42 = DIRECTION ( 'NONE',  ( 0.000000000000000000, 0.000000000000000000, 1.000000000000000000 ) ) ;
#43 = PRODUCT_DEFINITION_SHAPE ( 'NONE', 'NONE',  #123 ) ;
#44 = MECHANICAL_DESIGN_GEOMETRIC_PRESENTATION_REPRESENTATION (  '', ( #483 ), #763 ) ;
#45 = ORIENTED_EDGE ( 'NONE', *, *, #551, .T. ) ;
#46 = DIRECTION ( 'NONE',  ( 0.000000000000000000, 0.000000000000000000, 1.000000000000000000 ) ) ;
#47 = VECTOR ( 'NONE', #932, 1000.000000000000000 ) ;
#48 = VERTEX_POINT ( 'NONE', #802 ) ;
#49 = DIRECTION ( 'NONE',  ( -1.000000000000000000, 0.000000000000000000, -0.000000000000000000 ) ) ;
#50 = ORIENTED_EDGE ( 'NONE', *, *, #576, .F. ) ;
#51 = EDGE_CURVE ( 'NONE', #888, #677, #704, .T. ) ;
#52 = ORIENTED_EDGE ( 'NONE', *, *, #690, .F. ) ;
#53 = CARTESIAN_POINT ( 'NONE',  ( 0.000000000000000000, 0.000000000000000000, 5.000000000000000000 ) ) ;
#54 = EDGE_CURVE ( 'NONE', #622, #703, #155, .T. ) ;
#55 = DIRECTION ( 'NONE',  ( -0.4999999999999979461, -0.8660254037844397068, 0.000000000000000000 ) ) ;
#56 = DIRECTION ( 'NONE',  ( 0.000000000000000000, 0.000000000000000000, 1.000000000000000000 ) ) ;
#57 = FACE_OUTER_BOUND ( 'NONE', #400, .T. ) ;
#58 = EDGE_LOOP ( 'NONE', ( #334, #283, #661, #733 ) ) ;
#59 = DIRECTION ( 'NONE',  ( 0.000000000000000000, -1.000000000000000000, 0.000000000000000000 ) ) ;
#60 = CARTESIAN_POINT ( 'NONE',  ( -2.078237760728225858, 8.499613391789264227, -5.000000000000000888 ) ) ;
#61 = CARTESIAN_POINT ( 'NONE',  ( 4.749999999999999112, -2.450000000000000622, 4.999999999999999112 ) ) ;
#62 = DIRECTION ( 'NONE',  ( 0.4999999999999920064, 0.8660254037844432595, 0.000000000000000000 ) ) ;
#63 = CIRCLE ( 'NONE', #310, 8.750000000000001776 ) ;
#64 = VECTOR ( 'NONE', #921, 1000.000000000000227 ) ;
#65 = EDGE_LOOP ( 'NONE', ( #824, #361, #807, #113, #829, #701, #101, #670, #269, #198, #689, #480, #795, #24, #409, #431, #328, #367, #895, #209, #601, #320, #339, #827 ) ) ;
#66 = PLANE ( 'NONE',  #876 ) ;
#67 = CARTESIAN_POINT ( 'NONE',  ( -4.749999999999999112, 2.450000000000000622, 4.999999999999999112 ) ) ;
#68 = ADVANCED_FACE ( 'NONE', ( #716 ), #290, .T. ) ;
#69 = CARTESIAN_POINT ( 'NONE',  ( -6.321762239271863315, -6.049613391789300465, 5.000000000000000000 ) ) ;
#70 = CARTESIAN_POINT ( 'NONE',  ( 0.2532377607280746346, 5.338620667976086587, 4.999999999999999112 ) ) ;
#71 = EDGE_LOOP ( 'NONE', ( #852, #175, #906, #491 ) ) ;
#72 = CARTESIAN_POINT ( 'NONE',  ( 4.000000000000000000, 4.898587196589412829E-16, 5.000000000000000000 ) ) ;
#73 = ADVANCED_FACE ( 'NONE', ( #709 ), #66, .T. ) ;
#74 = CARTESIAN_POINT ( 'NONE',  ( -4.749999999999999112, 0.000000000000000000, 0.000000000000000000 ) ) ;
#75 = ORIENTED_EDGE ( 'NONE', *, *, #178, .F. ) ;
#76 = LINE ( 'NONE', #432, #513 ) ;
#77 =( NAMED_UNIT ( * ) PLANE_ANGLE_UNIT ( ) SI_UNIT ( $, .RADIAN. ) );
#78 = CARTESIAN_POINT ( 'NONE',  ( 0.000000000000000000, 0.000000000000000000, 5.000000000000000000 ) ) ;
#79 = VECTOR ( 'NONE', #632, 1000.000000000000114 ) ;
#80 = ORIENTED_EDGE ( 'NONE', *, *, #798, .F. ) ;
#81 = VECTOR ( 'NONE', #673, 1000.000000000000000 ) ;
#82 = CARTESIAN_POINT ( 'NONE',  ( -4.749999999999999112, 2.450000000000000622, 4.999999999999999112 ) ) ;
#83 = CARTESIAN_POINT ( 'NONE',  ( 4.496762239271848038, 2.888620667976124601, -5.000000000000000888 ) ) ;
#84 = EDGE_CURVE ( 'NONE', #656, #755, #757, .T. ) ;
#85 = VERTEX_POINT ( 'NONE', #220 ) ;
#86 = CARTESIAN_POINT ( 'NONE',  ( -8.400000000000000355, 2.450000000000000622, 5.000000000000000000 ) ) ;
#87 = CARTESIAN_POINT ( 'NONE',  ( 2.078237760728163686, -8.499613391789276662, -5.000000000000000888 ) ) ;
#88 = DIRECTION ( 'NONE',  ( 0.000000000000000000, -0.000000000000000000, 1.000000000000000000 ) ) ;
#89 = CARTESIAN_POINT ( 'NONE',  ( -4.000000000000000000, 0.000000000000000000, -5.000000000000000000 ) ) ;
#90 = VECTOR ( 'NONE', #754, 1000.000000000000000 ) ;
#91 = VERTEX_POINT ( 'NONE', #421 ) ;
#92 = CARTESIAN_POINT ( 'NONE',  ( -4.749999999999999112, 2.450000000000000622, -5.000000000000000888 ) ) ;
#93 = CARTESIAN_POINT ( 'NONE',  ( 2.078237760728046446, 8.499613391789305084, 5.000000000000000000 ) ) ;
#94 = DIRECTION ( 'NONE',  ( 0.000000000000000000, 0.000000000000000000, 1.000000000000000000 ) ) ;
#95 = CIRCLE ( 'NONE', #288, 8.750000000000001776 ) ;
#96 = ORIENTED_EDGE ( 'NONE', *, *, #127, .T. ) ;
#97 = CARTESIAN_POINT ( 'NONE',  ( 4.749999999999999112, 2.450000000000000622, 4.999999999999999112 ) ) ;
#98 = CARTESIAN_POINT ( 'NONE',  ( -6.321762239271863315, -6.049613391789300465, 5.000000000000000000 ) ) ;
#99 = FACE_BOUND ( 'NONE', #6, .T. ) ;
#100 = EDGE_CURVE ( 'NONE', #420, #91, #726, .T. ) ;
#101 = ORIENTED_EDGE ( 'NONE', *, *, #323, .T. ) ;
#102 = FACE_OUTER_BOUND ( 'NONE', #58, .T. ) ;
#103 = EDGE_LOOP ( 'NONE', ( #831, #316, #160, #729 ) ) ;
#104 = EDGE_CURVE ( 'NONE', #297, #415, #144, .T. ) ;
#105 = LINE ( 'NONE', #325, #174 ) ;
#106 = VECTOR ( 'NONE', #796, 1000.000000000000000 ) ;
#107 = EDGE_LOOP ( 'NONE', ( #133, #219, #788, #52 ) ) ;
#108 = DIRECTION ( 'NONE',  ( 0.000000000000000000, 0.000000000000000000, -1.000000000000000000 ) ) ;
#109 = ORIENTED_EDGE ( 'NONE', *, *, #783, .T. ) ;
#110 = AXIS2_PLACEMENT_3D ( 'NONE', #70, #275, #62 ) ;
#111 = AXIS2_PLACEMENT_3D ( 'NONE', #387, #600, #463 ) ;
#112 = EDGE_CURVE ( 'NONE', #465, #725, #76, .T. ) ;
#113 = ORIENTED_EDGE ( 'NONE', *, *, #309, .F. ) ;
#114 =( GEOMETRIC_REPRESENTATION_CONTEXT ( 3 ) GLOBAL_UNCERTAINTY_ASSIGNED_CONTEXT ( ( #382 ) ) GLOBAL_UNIT_ASSIGNED_CONTEXT ( ( #346, #649, #295 ) ) REPRESENTATION_CONTEXT ( 'NONE', 'WORKASPACE' ) );
#115 = ADVANCED_FACE ( 'NONE', ( #784, #351 ), #368, .T. ) ;
#116 = DIRECTION ( 'NONE',  ( 0.000000000000000000, 0.000000000000000000, 1.000000000000000000 ) ) ;
#117 = ORIENTED_EDGE ( 'NONE', *, *, #571, .F. ) ;
#118 = ORIENTED_EDGE ( 'NONE', *, *, #278, .F. ) ;
#119 = PLANE ( 'NONE',  #272 ) ;
#120 = CIRCLE ( 'NONE', #193, 8.750000000000001776 ) ;
#121 = VECTOR ( 'NONE', #539, 1000.000000000000000 ) ;
#122 = ORIENTED_EDGE ( 'NONE', *, *, #478, .F. ) ;
#123 = PRODUCT_DEFINITION ( 'UNKNOWN', '', #883, #459 ) ;
#124 = VERTEX_POINT ( 'NONE', #72 ) ;
#125 = CIRCLE ( 'NONE', #176, 8.750000000000001776 ) ;
#126 = LINE ( 'NONE', #416, #248 ) ;
#127 = EDGE_CURVE ( 'NONE', #27, #768, #426, .T. ) ;
#128 = VERTEX_POINT ( 'NONE', #343 ) ;
#129 = EDGE_LOOP ( 'NONE', ( #397, #117, #538, #170 ) ) ;
#130 = DIRECTION ( 'NONE',  ( 0.000000000000000000, 0.000000000000000000, 1.000000000000000000 ) ) ;
#131 = FACE_OUTER_BOUND ( 'NONE', #263, .T. ) ;
#132 = VERTEX_POINT ( 'NONE', #561 ) ;
#133 = ORIENTED_EDGE ( 'NONE', *, *, #811, .F. ) ;
#134 = DIRECTION ( 'NONE',  ( 1.000000000000000000, 0.000000000000000000, 0.000000000000000000 ) ) ;
#135 = DIRECTION ( 'NONE',  ( 0.000000000000000000, 1.000000000000000000, 0.000000000000000000 ) ) ;
#136 = ORIENTED_EDGE ( 'NONE', *, *, #467, .T. ) ;
#137 = LINE ( 'NONE', #639, #396 ) ;
#138 = EDGE_CURVE ( 'NONE', #413, #777, #357, .T. ) ;
#139 =( LENGTH_UNIT ( ) NAMED_UNIT ( * ) SI_UNIT ( .MILLI., .METRE. ) );
#140 = DIRECTION ( 'NONE',  ( 1.000000000000000000, 0.000000000000000000, 0.000000000000000000 ) ) ;
#141 = VECTOR ( 'NONE', #794, 1000.000000000000000 ) ;
#142 = EDGE_CURVE ( 'NONE', #347, #755, #912, .T. ) ;
#143 = ORIENTED_EDGE ( 'NONE', *, *, #350, .F. ) ;
#144 = LINE ( 'NONE', #853, #684 ) ;
#145 = DIRECTION ( 'NONE',  ( 1.000000000000000000, 0.000000000000000000, 0.000000000000000000 ) ) ;
#146 = LINE ( 'NONE', #61, #556 ) ;
#147 = DIRECTION ( 'NONE',  ( 0.000000000000000000, 0.000000000000000000, 1.000000000000000000 ) ) ;
#148 = ORIENTED_EDGE ( 'NONE', *, *, #142, .F. ) ;
#149 = DIRECTION ( 'NONE',  ( 0.000000000000000000, 0.000000000000000000, 1.000000000000000000 ) ) ;
#150 = CARTESIAN_POINT ( 'NONE',  ( -0.2532377607281864895, 5.338620667976079481, 4.999999999999999112 ) ) ;
#151 = LINE ( 'NONE', #206, #854 ) ;
#152 = DIRECTION ( 'NONE',  ( 0.000000000000000000, 0.000000000000000000, 1.000000000000000000 ) ) ;
#153 = VERTEX_POINT ( 'NONE', #841 ) ;
#154 = VECTOR ( 'NONE', #249, 1000.000000000000000 ) ;
#155 = LINE ( 'NONE', #205, #761 ) ;
#156 = CARTESIAN_POINT ( 'NONE',  ( 0.000000000000000000, 0.000000000000000000, 5.000000000000000000 ) ) ;
#157 = CARTESIAN_POINT ( 'NONE',  ( 4.749999999999999112, -2.450000000000000622, -5.000000000000000888 ) ) ;
#158 = VECTOR ( 'NONE', #614, 999.9999999999998863 ) ;
#159 = EDGE_CURVE ( 'NONE', #465, #153, #778, .T. ) ;
#160 = ORIENTED_EDGE ( 'NONE', *, *, #242, .F. ) ;
#161 = VECTOR ( 'NONE', #927, 1000.000000000000000 ) ;
#162 = DIRECTION ( 'NONE',  ( -0.000000000000000000, -0.000000000000000000, -1.000000000000000000 ) ) ;
#163 = DIRECTION ( 'NONE',  ( -0.000000000000000000, -0.000000000000000000, -1.000000000000000000 ) ) ;
#164 = DIRECTION ( 'NONE',  ( 0.000000000000000000, 1.000000000000000000, 0.000000000000000000 ) ) ;
#165 = LINE ( 'NONE', #524, #698 ) ;
#166 = ORIENTED_EDGE ( 'NONE', *, *, #350, .T. ) ;
#167 = FACE_OUTER_BOUND ( 'NONE', #71, .T. ) ;
#168 = LINE ( 'NONE', #93, #533 ) ;
#169 = CARTESIAN_POINT ( 'NONE',  ( 8.400000000000000355, -2.450000000000000622, 5.000000000000000000 ) ) ;
#170 = ORIENTED_EDGE ( 'NONE', *, *, #104, .F. ) ;
#171 = CARTESIAN_POINT ( 'NONE',  ( -6.321762239271862427, -6.049613391789301353, -5.000000000000000888 ) ) ;
#172 = EDGE_CURVE ( 'NONE', #425, #636, #137, .T. ) ;
#173 = DIRECTION ( 'NONE',  ( -0.000000000000000000, 1.000000000000000000, -0.000000000000000000 ) ) ;
#174 = VECTOR ( 'NONE', #180, 1000.000000000000000 ) ;
#175 = ORIENTED_EDGE ( 'NONE', *, *, #191, .F. ) ;
#176 = AXIS2_PLACEMENT_3D ( 'NONE', #558, #922, #434 ) ;
#177 = LINE ( 'NONE', #97, #457 ) ;
#178 = EDGE_CURVE ( 'NONE', #766, #504, #284, .T. ) ;
#179 = VERTEX_POINT ( 'NONE', #645 ) ;
#180 = DIRECTION ( 'NONE',  ( -0.8660254037844432595, 0.4999999999999919509, 0.000000000000000000 ) ) ;
#181 = ORIENTED_EDGE ( 'NONE', *, *, #384, .F. ) ;
#182 = CYLINDRICAL_SURFACE ( 'NONE', #208, 8.750000000000001776 ) ;
#183 = ADVANCED_FACE ( 'NONE', ( #210 ), #499, .T. ) ;
#184 = EDGE_CURVE ( 'NONE', #48, #812, #531, .T. ) ;
#185 = ORIENTED_EDGE ( 'NONE', *, *, #159, .T. ) ;
#186 = DIRECTION ( 'NONE',  ( 1.000000000000000000, 0.000000000000000000, 0.000000000000000000 ) ) ;
#187 = AXIS2_PLACEMENT_3D ( 'NONE', #512, #581, #225 ) ;
#188 = ORIENTED_EDGE ( 'NONE', *, *, #333, .F. ) ;
#189 = ORIENTED_EDGE ( 'NONE', *, *, #833, .F. ) ;
#190 = ORIENTED_EDGE ( 'NONE', *, *, #238, .T. ) ;
#191 = EDGE_CURVE ( 'NONE', #525, #447, #120, .T. ) ;
#192 = LINE ( 'NONE', #484, #1 ) ;
#193 = AXIS2_PLACEMENT_3D ( 'NONE', #748, #605, #239 ) ;
#194 = EDGE_LOOP ( 'NONE', ( #545, #919, #136, #772 ) ) ;
#195 = VERTEX_POINT ( 'NONE', #302 ) ;
#196 = AXIS2_PLACEMENT_3D ( 'NONE', #211, #501, #791 ) ;
#197 = CARTESIAN_POINT ( 'NONE',  ( -2.078237760728105066, -8.499613391789290873, 4.999999999999999112 ) ) ;
#198 = ORIENTED_EDGE ( 'NONE', *, *, #104, .T. ) ;
#199 = ORIENTED_EDGE ( 'NONE', *, *, #172, .F. ) ;
#200 = CARTESIAN_POINT ( 'NONE',  ( -4.749999999999999112, 2.450000000000000622, 4.999999999999999112 ) ) ;
#201 = CARTESIAN_POINT ( 'NONE',  ( 0.000000000000000000, 0.000000000000000000, 5.000000000000000000 ) ) ;
#202 = PRODUCT_CONTEXT ( 'NONE', #255, 'mechanical' ) ;
#203 = ORIENTED_EDGE ( 'NONE', *, *, #410, .T. ) ;
#204 = AXIS2_PLACEMENT_3D ( 'NONE', #817, #526, #734 ) ;
#205 = CARTESIAN_POINT ( 'NONE',  ( -4.000000000000000000, 0.000000000000000000, 5.000000000000000000 ) ) ;
#206 = CARTESIAN_POINT ( 'NONE',  ( 4.749999999999999112, 2.450000000000000622, -5.000000000000000888 ) ) ;
#207 = ADVANCED_FACE ( 'NONE', ( #373 ), #455, .T. ) ;
#208 = AXIS2_PLACEMENT_3D ( 'NONE', #31, #825, #254 ) ;
#209 = ORIENTED_EDGE ( 'NONE', *, *, #602, .F. ) ;
#210 = FACE_OUTER_BOUND ( 'NONE', #624, .T. ) ;
#211 = CARTESIAN_POINT ( 'NONE',  ( -4.749999999999999112, -2.450000000000000622, 4.999999999999999112 ) ) ;
#212 = AXIS2_PLACEMENT_3D ( 'NONE', #869, #23, #451 ) ;
#213 = DIRECTION ( 'NONE',  ( -0.8660254037844363761, -0.5000000000000039968, 0.000000000000000000 ) ) ;
#214 = ORIENTED_EDGE ( 'NONE', *, *, #333, .T. ) ;
#215 = CARTESIAN_POINT ( 'NONE',  ( 4.749999999999999112, -2.450000000000000622, 4.999999999999999112 ) ) ;
#216 = DIRECTION ( 'NONE',  ( 1.000000000000000000, 0.000000000000000000, 0.000000000000000000 ) ) ;
#217 = CARTESIAN_POINT ( 'NONE',  ( 6.321762239271904171, -6.049613391789255168, 5.000000000000000000 ) ) ;
#218 = DIRECTION ( 'NONE',  ( 0.5000000000000101030, -0.8660254037844328234, 0.000000000000000000 ) ) ;
#219 = ORIENTED_EDGE ( 'NONE', *, *, #606, .T. ) ;
#220 = CARTESIAN_POINT ( 'NONE',  ( -2.078237760728105066, -8.499613391789290873, -5.000000000000001776 ) ) ;
#221 = CYLINDRICAL_SURFACE ( 'NONE', #187, 4.000000000000000000 ) ;
#222 = CARTESIAN_POINT ( 'NONE',  ( 6.321762239271820683, 6.049613391789345762, 5.000000000000000000 ) ) ;
#223 = EDGE_CURVE ( 'NONE', #128, #525, #177, .T. ) ;
#224 = VECTOR ( 'NONE', #583, 1000.000000000000114 ) ;
#225 = DIRECTION ( 'NONE',  ( -1.000000000000000000, 0.000000000000000000, 0.000000000000000000 ) ) ;
#226 = VERTEX_POINT ( 'NONE', #889 ) ;
#227 = DIRECTION ( 'NONE',  ( 0.000000000000000000, -1.000000000000000000, -0.000000000000000000 ) ) ;
#228 = CARTESIAN_POINT ( 'NONE',  ( 6.321762239271820683, 6.049613391789345762, 5.000000000000000000 ) ) ;
#229 = SURFACE_SIDE_STYLE ('',( #422 ) ) ;
#230 = CIRCLE ( 'NONE', #259, 8.750000000000001776 ) ;
#231 = ORIENTED_EDGE ( 'NONE', *, *, #688, .T. ) ;
#232 = AXIS2_PLACEMENT_3D ( 'NONE', #642, #130, #140 ) ;
#233 = DIRECTION ( 'NONE',  ( 0.4999999999999920064, 0.8660254037844432595, 0.000000000000000000 ) ) ;
#234 = LINE ( 'NONE', #522, #675 ) ;
#235 = DIRECTION ( 'NONE',  ( 0.000000000000000000, 0.000000000000000000, 1.000000000000000000 ) ) ;
#236 = CARTESIAN_POINT ( 'NONE',  ( 6.321762239271904171, -6.049613391789255168, 4.999999999999999112 ) ) ;
#237 = VERTEX_POINT ( 'NONE', #171 ) ;
#238 = EDGE_CURVE ( 'NONE', #311, #830, #466, .T. ) ;
#239 = DIRECTION ( 'NONE',  ( 1.000000000000000000, 0.000000000000000000, 0.000000000000000000 ) ) ;
#240 = DIRECTION ( 'NONE',  ( 0.000000000000000000, 0.000000000000000000, -1.000000000000000000 ) ) ;
#241 = LINE ( 'NONE', #751, #81 ) ;
#242 = EDGE_CURVE ( 'NONE', #48, #465, #603, .T. ) ;
#243 = ORIENTED_EDGE ( 'NONE', *, *, #843, .T. ) ;
#244 = CARTESIAN_POINT ( 'NONE',  ( 0.000000000000000000, 0.000000000000000000, 5.000000000000000000 ) ) ;
#245 = ADVANCED_FACE ( 'NONE', ( #167 ), #535, .T. ) ;
#246 = VECTOR ( 'NONE', #108, 1000.000000000000000 ) ;
#247 = ORIENTED_EDGE ( 'NONE', *, *, #588, .F. ) ;
#248 = VECTOR ( 'NONE', #340, 1000.000000000000000 ) ;
#249 = DIRECTION ( 'NONE',  ( -1.000000000000000000, 0.000000000000000000, 0.000000000000000000 ) ) ;
#250 = EDGE_LOOP ( 'NONE', ( #377, #34, #555, #738 ) ) ;
#251 = CARTESIAN_POINT ( 'NONE',  ( 0.2532377607281487975, -5.338620667976083034, 4.999999999999999112 ) ) ;
#252 = EDGE_CURVE ( 'NONE', #725, #812, #730, .T. ) ;
#253 = ORIENTED_EDGE ( 'NONE', *, *, #433, .T. ) ;
#254 = DIRECTION ( 'NONE',  ( -1.000000000000000000, 0.000000000000000000, 0.000000000000000000 ) ) ;
#255 = APPLICATION_CONTEXT ( 'automotive_design' ) ;
#256 = ORIENTED_EDGE ( 'NONE', *, *, #602, .T. ) ;
#257 = ORIENTED_EDGE ( 'NONE', *, *, #410, .F. ) ;
#258 = ORIENTED_EDGE ( 'NONE', *, *, #591, .F. ) ;
#259 = AXIS2_PLACEMENT_3D ( 'NONE', #156, #506, #369 ) ;
#260 = ORIENTED_EDGE ( 'NONE', *, *, #623, .F. ) ;
#261 = ADVANCED_FACE ( 'NONE', ( #102 ), #25, .T. ) ;
#262 = EDGE_LOOP ( 'NONE', ( #753, #858, #554, #37 ) ) ;
#263 = EDGE_LOOP ( 'NONE', ( #40, #30, #782, #536 ) ) ;
#264 = ORIENTED_EDGE ( 'NONE', *, *, #172, .T. ) ;
#265 = VECTOR ( 'NONE', #557, 1000.000000000000114 ) ;
#266 = ADVANCED_FACE ( 'NONE', ( #589 ), #29, .T. ) ;
#267 = LINE ( 'NONE', #502, #404 ) ;
#268 = DIRECTION ( 'NONE',  ( 0.8660254037844432595, -0.4999999999999919509, 0.000000000000000000 ) ) ;
#269 = ORIENTED_EDGE ( 'NONE', *, *, #433, .F. ) ;
#270 = ORIENTED_EDGE ( 'NONE', *, *, #238, .F. ) ;
#271 = DIRECTION ( 'NONE',  ( 1.000000000000000000, 0.000000000000000000, -0.000000000000000000 ) ) ;
#272 = AXIS2_PLACEMENT_3D ( 'NONE', #407, #694, #42 ) ;
#273 = AXIS2_PLACEMENT_3D ( 'NONE', #523, #810, #94 ) ;
#274 = CARTESIAN_POINT ( 'NONE',  ( -4.749999999999999112, -2.450000000000000622, -5.000000000000000888 ) ) ;
#275 = DIRECTION ( 'NONE',  ( 0.8660254037844432595, -0.4999999999999920064, 0.000000000000000000 ) ) ;
#276 = ORIENTED_EDGE ( 'NONE', *, *, #728, .F. ) ;
#277 = DIRECTION ( 'NONE',  ( -0.8660254037844328234, -0.5000000000000101030, 0.000000000000000000 ) ) ;
#278 = EDGE_CURVE ( 'NONE', #766, #629, #740, .T. ) ;
#279 = LINE ( 'NONE', #722, #596 ) ;
#280 = EDGE_CURVE ( 'NONE', #777, #822, #378, .T. ) ;
#281 = LINE ( 'NONE', #508, #857 ) ;
#282 = LINE ( 'NONE', #572, #477 ) ;
#283 = ORIENTED_EDGE ( 'NONE', *, *, #184, .F. ) ;
#284 = LINE ( 'NONE', #920, #364 ) ;
#285 = FACE_OUTER_BOUND ( 'NONE', #819, .T. ) ;
#286 = DIRECTION ( 'NONE',  ( 0.5000000000000039968, -0.8660254037844363761, 0.000000000000000000 ) ) ;
#287 = CARTESIAN_POINT ( 'NONE',  ( -4.496762239271909323, 2.888620667976030010, -5.000000000000000888 ) ) ;
#288 = AXIS2_PLACEMENT_3D ( 'NONE', #306, #671, #813 ) ;
#289 = EDGE_LOOP ( 'NONE', ( #243, #318, #264, #692 ) ) ;
#290 = PLANE ( 'NONE',  #352 ) ;
#291 = CARTESIAN_POINT ( 'NONE',  ( 0.2532377607281487975, -5.338620667976083034, -5.000000000000000888 ) ) ;
#292 = CARTESIAN_POINT ( 'NONE',  ( 4.496762239271889783, -2.888620667976062872, -5.000000000000000888 ) ) ;
#293 = AXIS2_PLACEMENT_3D ( 'NONE', #445, #586, #737 ) ;
#294 = FACE_OUTER_BOUND ( 'NONE', #250, .T. ) ;
#295 =( NAMED_UNIT ( * ) SI_UNIT ( $, .STERADIAN. ) SOLID_ANGLE_UNIT ( ) );
#296 = LINE ( 'NONE', #228, #141 ) ;
#297 = VERTEX_POINT ( 'NONE', #7 ) ;
#298 = CARTESIAN_POINT ( 'NONE',  ( -4.496762239271868467, -2.888620667976093070, 4.999999999999999112 ) ) ;
#299 = EDGE_CURVE ( 'NONE', #85, #822, #530, .T. ) ;
#300 = CARTESIAN_POINT ( 'NONE',  ( 2.078237760728046446, 8.499613391789305084, 4.999999999999999112 ) ) ;
#301 = ORIENTED_EDGE ( 'NONE', *, *, #517, .T. ) ;
#302 = CARTESIAN_POINT ( 'NONE',  ( -6.321762239271946804, 6.049613391789210759, -5.000000000000001776 ) ) ;
#303 = CARTESIAN_POINT ( 'NONE',  ( -8.400000000000000355, 2.450000000000000622, -5.000000000000000888 ) ) ;
#304 = PLANE ( 'NONE',  #212 ) ;
#305 = ORIENTED_EDGE ( 'NONE', *, *, #712, .T. ) ;
#306 = CARTESIAN_POINT ( 'NONE',  ( 0.000000000000000000, 0.000000000000000000, -5.000000000000000000 ) ) ;
#307 = DIRECTION ( 'NONE',  ( 1.000000000000000000, 0.000000000000000000, 0.000000000000000000 ) ) ;
#308 = LINE ( 'NONE', #815, #33 ) ;
#309 = EDGE_CURVE ( 'NONE', #91, #443, #95, .T. ) ;
#310 = AXIS2_PLACEMENT_3D ( 'NONE', #360, #430, #845 ) ;
#311 = VERTEX_POINT ( 'NONE', #462 ) ;
#312 = DIRECTION ( 'NONE',  ( -0.8660254037844398178, 0.4999999999999980016, 0.000000000000000000 ) ) ;
#313 = CARTESIAN_POINT ( 'NONE',  ( 6.321762239271819794, 6.049613391789345762, -5.000000000000000888 ) ) ;
#314 = PLANE ( 'NONE',  #322 ) ;
#315 = EDGE_CURVE ( 'NONE', #636, #447, #593, .T. ) ;
#316 = ORIENTED_EDGE ( 'NONE', *, *, #159, .F. ) ;
#317 = DIRECTION ( 'NONE',  ( -1.000000000000000000, 0.000000000000000000, 0.000000000000000000 ) ) ;
#318 = ORIENTED_EDGE ( 'NONE', *, *, #323, .F. ) ;
#319 = CARTESIAN_POINT ( 'NONE',  ( 0.000000000000000000, 0.000000000000000000, 5.000000000000000000 ) ) ;
#320 = ORIENTED_EDGE ( 'NONE', *, *, #500, .T. ) ;
#321 = LINE ( 'NONE', #471, #121 ) ;
#322 = AXIS2_PLACEMENT_3D ( 'NONE', #458, #381, #887 ) ;
#323 = EDGE_CURVE ( 'NONE', #425, #764, #521, .T. ) ;
#324 = ORIENTED_EDGE ( 'NONE', *, *, #11, .T. ) ;
#325 = CARTESIAN_POINT ( 'NONE',  ( 4.496762239271848038, 2.888620667976124601, 4.999999999999999112 ) ) ;
#326 = LINE ( 'NONE', #625, #158 ) ;
#327 = AXIS2_PLACEMENT_3D ( 'NONE', #244, #162, #820 ) ;
#328 = ORIENTED_EDGE ( 'NONE', *, *, #907, .F. ) ;
#329 = CARTESIAN_POINT ( 'NONE',  ( -4.749999999999999112, -2.450000000000000622, 4.999999999999999112 ) ) ;
#330 = ORIENTED_EDGE ( 'NONE', *, *, #747, .F. ) ;
#331 = CARTESIAN_POINT ( 'NONE',  ( -4.496762239271868467, -2.888620667976093070, 4.999999999999999112 ) ) ;
#332 = COLOUR_RGB ( '',0.7921568627450980005, 0.8196078431372548767, 0.9333333333333333481 ) ;
#333 = EDGE_CURVE ( 'NONE', #636, #644, #105, .T. ) ;
#334 = ORIENTED_EDGE ( 'NONE', *, *, #252, .T. ) ;
#335 = ADVANCED_FACE ( 'NONE', ( #765 ), #691, .T. ) ;
#336 = CIRCLE ( 'NONE', #293, 8.750000000000001776 ) ;
#337 = CARTESIAN_POINT ( 'NONE',  ( -4.496762239271868467, -2.888620667976093070, 4.999999999999999112 ) ) ;
#338 = ORIENTED_EDGE ( 'NONE', *, *, #714, .T. ) ;
#339 = ORIENTED_EDGE ( 'NONE', *, *, #184, .T. ) ;
#340 = DIRECTION ( 'NONE',  ( 0.000000000000000000, -0.000000000000000000, -1.000000000000000000 ) ) ;
#341 = LINE ( 'NONE', #217, #161 ) ;
#342 = ORIENTED_EDGE ( 'NONE', *, *, #517, .F. ) ;
#343 = CARTESIAN_POINT ( 'NONE',  ( 4.749999999999999112, 2.450000000000000622, 4.999999999999999112 ) ) ;
#344 = AXIS2_PLACEMENT_3D ( 'NONE', #657, #149, #271 ) ;
#345 = DIRECTION ( 'NONE',  ( -0.000000000000000000, -0.000000000000000000, -1.000000000000000000 ) ) ;
#346 =( LENGTH_UNIT ( ) NAMED_UNIT ( * ) SI_UNIT ( .MILLI., .METRE. ) );
#347 = VERTEX_POINT ( 'NONE', #251 ) ;
#348 = EDGE_CURVE ( 'NONE', #124, #18, #612, .T. ) ;
#349 = EDGE_LOOP ( 'NONE', ( #681, #188, #199, #666 ) ) ;
#350 = EDGE_CURVE ( 'NONE', #768, #573, #321, .T. ) ;
#351 = FACE_OUTER_BOUND ( 'NONE', #800, .T. ) ;
#352 = AXIS2_PLACEMENT_3D ( 'NONE', #866, #492, #438 ) ;
#353 = VECTOR ( 'NONE', #776, 1000.000000000000000 ) ;
#354 = DIRECTION ( 'NONE',  ( 0.000000000000000000, 0.000000000000000000, 1.000000000000000000 ) ) ;
#355 = CARTESIAN_POINT ( 'NONE',  ( 4.496762239271848038, 2.888620667976124601, -5.000000000000000888 ) ) ;
#356 = ORIENTED_EDGE ( 'NONE', *, *, #688, .F. ) ;
#357 = LINE ( 'NONE', #859, #871 ) ;
#358 = CARTESIAN_POINT ( 'NONE',  ( 8.400000000000000355, -2.450000000000000622, -5.000000000000000888 ) ) ;
#359 = LINE ( 'NONE', #363, #414 ) ;
#360 = CARTESIAN_POINT ( 'NONE',  ( 0.000000000000000000, 0.000000000000000000, 5.000000000000000000 ) ) ;
#361 = ORIENTED_EDGE ( 'NONE', *, *, #615, .T. ) ;
#362 = DIRECTION ( 'NONE',  ( 0.000000000000000000, 0.000000000000000000, 1.000000000000000000 ) ) ;
#363 = CARTESIAN_POINT ( 'NONE',  ( -0.2532377607281119380, -5.338620667976084810, 4.999999999999999112 ) ) ;
#364 = VECTOR ( 'NONE', #277, 1000.000000000000000 ) ;
#365 = EDGE_CURVE ( 'NONE', #566, #311, #537, .T. ) ;
#366 = AXIS2_PLACEMENT_3D ( 'NONE', #38, #514, #145 ) ;
#367 = ORIENTED_EDGE ( 'NONE', *, *, #833, .T. ) ;
#368 = PLANE ( 'NONE',  #344 ) ;
#369 = DIRECTION ( 'NONE',  ( 1.000000000000000000, 0.000000000000000000, 0.000000000000000000 ) ) ;
#370 = AXIS2_PLACEMENT_3D ( 'NONE', #723, #354, #441 ) ;
#371 = APPLICATION_PROTOCOL_DEFINITION ( 'draft international standard', 'automotive_design', 1998, #255 ) ;
#372 = ORIENTED_EDGE ( 'NONE', *, *, #453, .F. ) ;
#373 = FACE_OUTER_BOUND ( 'NONE', #529, .T. ) ;
#374 = ADVANCED_FACE ( 'NONE', ( #686 ), #182, .T. ) ;
#375 = LINE ( 'NONE', #527, #658 ) ;
#376 = LINE ( 'NONE', #4, #475 ) ;
#377 = ORIENTED_EDGE ( 'NONE', *, *, #576, .T. ) ;
#378 = LINE ( 'NONE', #885, #616 ) ;
#379 = CARTESIAN_POINT ( 'NONE',  ( 0.000000000000000000, 0.000000000000000000, 5.000000000000000000 ) ) ;
#380 = VECTOR ( 'NONE', #872, 1000.000000000000000 ) ;
#381 = DIRECTION ( 'NONE',  ( -0.5000000000000101030, 0.8660254037844328234, 0.000000000000000000 ) ) ;
#382 = UNCERTAINTY_MEASURE_WITH_UNIT (LENGTH_MEASURE( 1.000000000000000082E-05 ), #346, 'distance_accuracy_value', 'NONE');
#383 = ORIENTED_EDGE ( 'NONE', *, *, #28, .F. ) ;
#384 = EDGE_CURVE ( 'NONE', #18, #703, #653, .T. ) ;
#385 = CARTESIAN_POINT ( 'NONE',  ( -0.2532377607281864895, 5.338620667976079481, 4.999999999999999112 ) ) ;
#386 = LINE ( 'NONE', #599, #607 ) ;
#387 = CARTESIAN_POINT ( 'NONE',  ( 0.000000000000000000, 0.000000000000000000, 5.000000000000000000 ) ) ;
#388 = AXIS2_PLACEMENT_3D ( 'NONE', #379, #14, #439 ) ;
#389 = ORIENTED_EDGE ( 'NONE', *, *, #682, .T. ) ;
#390 = DIRECTION ( 'NONE',  ( 0.4999999999999920064, 0.8660254037844432595, 0.000000000000000000 ) ) ;
#391 = FACE_OUTER_BOUND ( 'NONE', #929, .T. ) ;
#392 = CARTESIAN_POINT ( 'NONE',  ( 0.000000000000000000, 0.000000000000000000, -5.000000000000000000 ) ) ;
#393 = AXIS2_PLACEMENT_3D ( 'NONE', #503, #147, #724 ) ;
#394 = ORIENTED_EDGE ( 'NONE', *, *, #646, .T. ) ;
#395 = CARTESIAN_POINT ( 'NONE',  ( -8.400000000000000355, -2.450000000000000622, 5.000000000000000000 ) ) ;
#396 = VECTOR ( 'NONE', #790, 1000.000000000000000 ) ;
#397 = ORIENTED_EDGE ( 'NONE', *, *, #613, .F. ) ;
#398 = EDGE_CURVE ( 'NONE', #153, #566, #760, .T. ) ;
#399 = CARTESIAN_POINT ( 'NONE',  ( 4.749999999999999112, 2.450000000000000622, 4.999999999999999112 ) ) ;
#400 = EDGE_LOOP ( 'NONE', ( #546, #891, #330, #515 ) ) ;
#401 = VECTOR ( 'NONE', #134, 1000.000000000000000 ) ;
#402 = CARTESIAN_POINT ( 'NONE',  ( 8.400000000000000355, 2.450000000000000622, -5.000000000000001776 ) ) ;
#403 = CIRCLE ( 'NONE', #20, 8.750000000000001776 ) ;
#404 = VECTOR ( 'NONE', #152, 1000.000000000000000 ) ;
#405 = VERTEX_POINT ( 'NONE', #402 ) ;
#406 = DIRECTION ( 'NONE',  ( 0.000000000000000000, -1.000000000000000000, 0.000000000000000000 ) ) ;
#407 = CARTESIAN_POINT ( 'NONE',  ( 2.375000000000019096, -4.113620667976072731, 0.000000000000000000 ) ) ;
#408 = EDGE_CURVE ( 'NONE', #777, #347, #473, .T. ) ;
#409 = ORIENTED_EDGE ( 'NONE', *, *, #280, .T. ) ;
#410 = EDGE_CURVE ( 'NONE', #703, #18, #770, .T. ) ;
#411 = CARTESIAN_POINT ( 'NONE',  ( 4.000000000000000000, 4.898587196589412829E-16, -5.000000000000000000 ) ) ;
#412 = VECTOR ( 'NONE', #390, 1000.000000000000000 ) ;
#413 = VERTEX_POINT ( 'NONE', #292 ) ;
#414 = VECTOR ( 'NONE', #579, 1000.000000000000227 ) ;
#415 = VERTEX_POINT ( 'NONE', #157 ) ;
#416 = CARTESIAN_POINT ( 'NONE',  ( 0.2532377607280746346, 5.338620667976086587, 4.999999999999999112 ) ) ;
#417 = ORIENTED_EDGE ( 'NONE', *, *, #280, .F. ) ;
#418 = CARTESIAN_POINT ( 'NONE',  ( 0.2532377607280746346, 5.338620667976086587, 4.999999999999999112 ) ) ;
#419 = ADVANCED_FACE ( 'NONE', ( #867 ), #647, .T. ) ;
#420 = VERTEX_POINT ( 'NONE', #427 ) ;
#421 = CARTESIAN_POINT ( 'NONE',  ( 2.078237760728046446, 8.499613391789305084, -5.000000000000001776 ) ) ;
#422 = SURFACE_STYLE_FILL_AREA ( #440 ) ;
#423 = CARTESIAN_POINT ( 'NONE',  ( -0.2532377607281119380, -5.338620667976084810, -5.000000000000000888 ) ) ;
#424 = DIRECTION ( 'NONE',  ( -0.5000000000000101030, 0.8660254037844328234, 0.000000000000000000 ) ) ;
#425 = VERTEX_POINT ( 'NONE', #83 ) ;
#426 = LINE ( 'NONE', #298, #224 ) ;
#427 = CARTESIAN_POINT ( 'NONE',  ( 0.2532377607280746346, 5.338620667976086587, -5.000000000000000888 ) ) ;
#428 = VECTOR ( 'NONE', #8, 1000.000000000000000 ) ;
#429 = CARTESIAN_POINT ( 'NONE',  ( 4.749999999999999112, 2.450000000000000622, 4.999999999999999112 ) ) ;
#430 = DIRECTION ( 'NONE',  ( 0.000000000000000000, 0.000000000000000000, 1.000000000000000000 ) ) ;
#431 = ORIENTED_EDGE ( 'NONE', *, *, #299, .F. ) ;
#432 = CARTESIAN_POINT ( 'NONE',  ( -4.749999999999999112, 2.450000000000000622, 4.999999999999999112 ) ) ;
#433 = EDGE_CURVE ( 'NONE', #297, #405, #151, .T. ) ;
#434 = DIRECTION ( 'NONE',  ( 1.000000000000000000, 0.000000000000000000, 0.000000000000000000 ) ) ;
#435 = MANIFOLD_SOLID_BREP ( 'CirPattern1', #32 ) ;
#436 = DIRECTION ( 'NONE',  ( 0.8660254037844328234, 0.5000000000000101030, 0.000000000000000000 ) ) ;
#437 = ORIENTED_EDGE ( 'NONE', *, *, #811, .T. ) ;
#438 = DIRECTION ( 'NONE',  ( 0.4999999999999979461, 0.8660254037844397068, 0.000000000000000000 ) ) ;
#439 = DIRECTION ( 'NONE',  ( -1.000000000000000000, 0.000000000000000000, 0.000000000000000000 ) ) ;
#440 = FILL_AREA_STYLE ('',( #732 ) ) ;
#441 = DIRECTION ( 'NONE',  ( 1.000000000000000000, 0.000000000000000000, 0.000000000000000000 ) ) ;
#442 = APPLICATION_PROTOCOL_DEFINITION ( 'draft international standard', 'automotive_design', 1998, #5 ) ;
#443 = VERTEX_POINT ( 'NONE', #60 ) ;
#444 = DIRECTION ( 'NONE',  ( 1.000000000000000000, 0.000000000000000000, 0.000000000000000000 ) ) ;
#445 = CARTESIAN_POINT ( 'NONE',  ( 0.000000000000000000, 0.000000000000000000, 5.000000000000000000 ) ) ;
#446 = CIRCLE ( 'NONE', #519, 8.750000000000001776 ) ;
#447 = VERTEX_POINT ( 'NONE', #222 ) ;
#448 = DIRECTION ( 'NONE',  ( -0.000000000000000000, -0.000000000000000000, 1.000000000000000000 ) ) ;
#449 = PLANE ( 'NONE',  #544 ) ;
#450 = PLANE ( 'NONE',  #608 ) ;
#451 = DIRECTION ( 'NONE',  ( -0.4999999999999920064, -0.8660254037844432595, 0.000000000000000000 ) ) ;
#452 = EDGE_CURVE ( 'NONE', #405, #525, #376, .T. ) ;
#453 = EDGE_CURVE ( 'NONE', #875, #237, #665, .T. ) ;
#454 = EDGE_LOOP ( 'NONE', ( #870, #905, #592, #253 ) ) ;
#455 = CYLINDRICAL_SURFACE ( 'NONE', #204, 8.750000000000001776 ) ;
#456 = CARTESIAN_POINT ( 'NONE',  ( 0.000000000000000000, 0.000000000000000000, -5.000000000000000000 ) ) ;
#457 = VECTOR ( 'NONE', #444, 1000.000000000000000 ) ;
#458 = CARTESIAN_POINT ( 'NONE',  ( -2.375000000000047518, 4.113620667976054968, 0.000000000000000000 ) ) ;
#459 = PRODUCT_DEFINITION_CONTEXT ( 'detailed design', #5, 'design' ) ;
#460 = ORIENTED_EDGE ( 'NONE', *, *, #913, .T. ) ;
#461 = VECTOR ( 'NONE', #233, 1000.000000000000000 ) ;
#462 = CARTESIAN_POINT ( 'NONE',  ( -8.400000000000000355, -2.450000000000000622, -5.000000000000001776 ) ) ;
#463 = DIRECTION ( 'NONE',  ( 1.000000000000000000, 0.000000000000000000, 0.000000000000000000 ) ) ;
#464 = VECTOR ( 'NONE', #744, 1000.000000000000000 ) ;
#465 = VERTEX_POINT ( 'NONE', #67 ) ;
#466 = LINE ( 'NONE', #395, #90 ) ;
#467 = EDGE_CURVE ( 'NONE', #415, #498, #279, .T. ) ;
#468 = ORIENTED_EDGE ( 'NONE', *, *, #767, .T. ) ;
#469 = DIRECTION ( 'NONE',  ( 0.000000000000000000, -0.000000000000000000, -1.000000000000000000 ) ) ;
#470 = ORIENTED_EDGE ( 'NONE', *, *, #28, .T. ) ;
#471 = CARTESIAN_POINT ( 'NONE',  ( -0.2532377607281119380, -5.338620667976084810, 4.999999999999999112 ) ) ;
#472 = VERTEX_POINT ( 'NONE', #358 ) ;
#473 = LINE ( 'NONE', #693, #745 ) ;
#474 = AXIS2_PLACEMENT_3D ( 'NONE', #553, #793, #218 ) ;
#475 = VECTOR ( 'NONE', #926, 1000.000000000000000 ) ;
#476 = ADVANCED_FACE ( 'NONE', ( #285 ), #568, .T. ) ;
#477 = VECTOR ( 'NONE', #851, 1000.000000000000000 ) ;
#478 = EDGE_CURVE ( 'NONE', #888, #413, #241, .T. ) ;
#479 = EDGE_LOOP ( 'NONE', ( #122, #769, #707, #685 ) ) ;
#480 = ORIENTED_EDGE ( 'NONE', *, *, #767, .F. ) ;
#481 = ORIENTED_EDGE ( 'NONE', *, *, #191, .T. ) ;
#482 = EDGE_LOOP ( 'NONE', ( #543, #80, #270, #256 ) ) ;
#483 = STYLED_ITEM ( 'NONE', ( #862 ), #435 ) ;
#484 = CARTESIAN_POINT ( 'NONE',  ( -4.496762239271868467, -2.888620667976093070, 4.999999999999999112 ) ) ;
#485 = EDGE_LOOP ( 'NONE', ( #301, #634, #257, #587 ) ) ;
#486 = VECTOR ( 'NONE', #909, 1000.000000000000000 ) ;
#487 = LINE ( 'NONE', #705, #79 ) ;
#488 = DIRECTION ( 'NONE',  ( -1.000000000000000000, 0.000000000000000000, 0.000000000000000000 ) ) ;
#489 = ADVANCED_FACE ( 'NONE', ( #99, #22 ), #450, .F. ) ;
#490 = ORIENTED_EDGE ( 'NONE', *, *, #299, .T. ) ;
#491 = ORIENTED_EDGE ( 'NONE', *, *, #565, .T. ) ;
#492 = DIRECTION ( 'NONE',  ( 0.8660254037844398178, -0.4999999999999980016, 0.000000000000000000 ) ) ;
#493 = PLANE ( 'NONE',  #918 ) ;
#494 = VERTEX_POINT ( 'NONE', #169 ) ;
#495 = DIRECTION ( 'NONE',  ( 1.000000000000000000, 0.000000000000000000, -0.000000000000000000 ) ) ;
#496 = PRESENTATION_LAYER_ASSIGNMENT (  '', '', ( #483 ) ) ;
#497 = LINE ( 'NONE', #633, #878 ) ;
#498 = VERTEX_POINT ( 'NONE', #743 ) ;
#499 = PLANE ( 'NONE',  #550 ) ;
#500 = EDGE_CURVE ( 'NONE', #566, #48, #308, .T. ) ;
#501 = DIRECTION ( 'NONE',  ( 0.000000000000000000, 1.000000000000000000, 0.000000000000000000 ) ) ;
#502 = CARTESIAN_POINT ( 'NONE',  ( -2.078237760728105066, -8.499613391789290873, 5.000000000000000000 ) ) ;
#503 = CARTESIAN_POINT ( 'NONE',  ( 0.000000000000000000, 0.000000000000000000, 0.000000000000000000 ) ) ;
#504 = VERTEX_POINT ( 'NONE', #680 ) ;
#505 = CARTESIAN_POINT ( 'NONE',  ( 4.749999999999999112, 0.000000000000000000, 0.000000000000000000 ) ) ;
#506 = DIRECTION ( 'NONE',  ( 0.000000000000000000, 0.000000000000000000, 1.000000000000000000 ) ) ;
#507 = DIRECTION ( 'NONE',  ( 0.000000000000000000, 0.000000000000000000, 1.000000000000000000 ) ) ;
#508 = CARTESIAN_POINT ( 'NONE',  ( -0.2532377607281864895, 5.338620667976079481, -5.000000000000000888 ) ) ;
#509 = CARTESIAN_POINT ( 'NONE',  ( 4.496762239271889783, -2.888620667976062872, 4.999999999999999112 ) ) ;
#510 = EDGE_LOOP ( 'NONE', ( #924, #75, #846, #627 ) ) ;
#511 = CARTESIAN_POINT ( 'NONE',  ( 0.2532377607280746346, 5.338620667976086587, -5.000000000000000888 ) ) ;
#512 = CARTESIAN_POINT ( 'NONE',  ( 0.000000000000000000, 0.000000000000000000, 5.000000000000000000 ) ) ;
#513 = VECTOR ( 'NONE', #574, 1000.000000000000000 ) ;
#514 = DIRECTION ( 'NONE',  ( 0.000000000000000000, 0.000000000000000000, 1.000000000000000000 ) ) ;
#515 = ORIENTED_EDGE ( 'NONE', *, *, #309, .T. ) ;
#516 = CARTESIAN_POINT ( 'NONE',  ( 0.000000000000000000, 0.000000000000000000, -5.000000000000000000 ) ) ;
#517 = EDGE_CURVE ( 'NONE', #622, #124, #731, .T. ) ;
#518 = ADVANCED_FACE ( 'NONE', ( #736 ), #314, .T. ) ;
#519 = AXIS2_PLACEMENT_3D ( 'NONE', #786, #56, #775 ) ;
#520 = ORIENTED_EDGE ( 'NONE', *, *, #127, .F. ) ;
#521 = LINE ( 'NONE', #808, #412 ) ;
#522 = CARTESIAN_POINT ( 'NONE',  ( -4.496762239271909323, 2.888620667976030010, 4.999999999999999112 ) ) ;
#523 = CARTESIAN_POINT ( 'NONE',  ( -2.374999999999989786, -4.113620667976087830, 0.000000000000000000 ) ) ;
#524 = CARTESIAN_POINT ( 'NONE',  ( -4.496762239271909323, 2.888620667976030010, 4.999999999999999112 ) ) ;
#525 = VERTEX_POINT ( 'NONE', #26 ) ;
#526 = DIRECTION ( 'NONE',  ( -0.000000000000000000, -0.000000000000000000, -1.000000000000000000 ) ) ;
#527 = CARTESIAN_POINT ( 'NONE',  ( 4.749999999999999112, -2.450000000000000622, -5.000000000000000888 ) ) ;
#528 = FACE_OUTER_BOUND ( 'NONE', #194, .T. ) ;
#529 = EDGE_LOOP ( 'NONE', ( #597, #897, #650, #490 ) ) ;
#530 = CIRCLE ( 'NONE', #696, 8.750000000000001776 ) ;
#531 = LINE ( 'NONE', #92, #154 ) ;
#532 = ADVANCED_FACE ( 'NONE', ( #528 ), #806, .T. ) ;
#533 = VECTOR ( 'NONE', #672, 1000.000000000000000 ) ;
#534 = EDGE_LOOP ( 'NONE', ( #36, #372, #470, #695 ) ) ;
#535 = CYLINDRICAL_SURFACE ( 'NONE', #327, 8.750000000000001776 ) ;
#536 = ORIENTED_EDGE ( 'NONE', *, *, #100, .T. ) ;
#537 = LINE ( 'NONE', #823, #618 ) ;
#538 = ORIENTED_EDGE ( 'NONE', *, *, #467, .F. ) ;
#539 = DIRECTION ( 'NONE',  ( 0.000000000000000000, 0.000000000000000000, -1.000000000000000000 ) ) ;
#540 = ORIENTED_EDGE ( 'NONE', *, *, #623, .T. ) ;
#541 = ADVANCED_FACE ( 'NONE', ( #669 ), #595, .T. ) ;
#542 = ADVANCED_FACE ( 'NONE', ( #294 ), #493, .T. ) ;
#543 = ORIENTED_EDGE ( 'NONE', *, *, #780, .F. ) ;
#544 = AXIS2_PLACEMENT_3D ( 'NONE', #797, #679, #577 ) ;
#545 = ORIENTED_EDGE ( 'NONE', *, *, #588, .T. ) ;
#546 = ORIENTED_EDGE ( 'NONE', *, *, #928, .F. ) ;
#547 = CARTESIAN_POINT ( 'NONE',  ( 0.000000000000000000, 0.000000000000000000, 5.000000000000000000 ) ) ;
#548 = EDGE_LOOP ( 'NONE', ( #437, #356, #109, #865 ) ) ;
#549 = VERTEX_POINT ( 'NONE', #69 ) ;
#550 = AXIS2_PLACEMENT_3D ( 'NONE', #12, #312, #892 ) ;
#551 = EDGE_CURVE ( 'NONE', #85, #656, #267, .T. ) ;
#552 = CARTESIAN_POINT ( 'NONE',  ( 8.400000000000000355, -2.450000000000000622, 5.000000000000000000 ) ) ;
#553 = CARTESIAN_POINT ( 'NONE',  ( -0.2532377607281864895, 5.338620667976079481, 4.999999999999999112 ) ) ;
#554 = ORIENTED_EDGE ( 'NONE', *, *, #759, .T. ) ;
#555 = ORIENTED_EDGE ( 'NONE', *, *, #478, .T. ) ;
#556 = VECTOR ( 'NONE', #135, 1000.000000000000000 ) ;
#557 = DIRECTION ( 'NONE',  ( 0.5000000000000039968, -0.8660254037844363761, 0.000000000000000000 ) ) ;
#558 = CARTESIAN_POINT ( 'NONE',  ( 0.000000000000000000, 0.000000000000000000, -5.000000000000000000 ) ) ;
#559 = PLANE ( 'NONE',  #474 ) ;
#560 = ORIENTED_EDGE ( 'NONE', *, *, #84, .T. ) ;
#561 = CARTESIAN_POINT ( 'NONE',  ( 6.321762239271904171, -6.049613391789255168, -5.000000000000001776 ) ) ;
#562 = DIRECTION ( 'NONE',  ( 0.000000000000000000, 0.000000000000000000, 1.000000000000000000 ) ) ;
#563 = CARTESIAN_POINT ( 'NONE',  ( -4.000000000000000000, 0.000000000000000000, 5.000000000000000000 ) ) ;
#564 = LINE ( 'NONE', #355, #826 ) ;
#565 = EDGE_CURVE ( 'NONE', #405, #764, #446, .T. ) ;
#566 = VERTEX_POINT ( 'NONE', #274 ) ;
#567 = DIRECTION ( 'NONE',  ( 0.000000000000000000, 0.000000000000000000, 1.000000000000000000 ) ) ;
#568 = PLANE ( 'NONE',  #196 ) ;
#569 = VECTOR ( 'NONE', #756, 1000.000000000000000 ) ;
#570 = CARTESIAN_POINT ( 'NONE',  ( 4.496762239271889783, -2.888620667976062872, 4.999999999999999112 ) ) ;
#571 = EDGE_CURVE ( 'NONE', #498, #128, #146, .T. ) ;
#572 = CARTESIAN_POINT ( 'NONE',  ( -2.078237760728225858, 8.499613391789264227, 5.000000000000000000 ) ) ;
#573 = VERTEX_POINT ( 'NONE', #423 ) ;
#574 = DIRECTION ( 'NONE',  ( -1.000000000000000000, 0.000000000000000000, 0.000000000000000000 ) ) ;
#575 = AXIS2_PLACEMENT_3D ( 'NONE', #547, #774, #631 ) ;
#576 = EDGE_CURVE ( 'NONE', #132, #677, #341, .T. ) ;
#577 = DIRECTION ( 'NONE',  ( -0.5000000000000039968, 0.8660254037844363761, 0.000000000000000000 ) ) ;
#578 = SURFACE_STYLE_USAGE ( .BOTH. , #229 ) ;
#579 = DIRECTION ( 'NONE',  ( -0.4999999999999979461, -0.8660254037844397068, 0.000000000000000000 ) ) ;
#580 = CARTESIAN_POINT ( 'NONE',  ( -0.2532377607281119380, -5.338620667976084810, -5.000000000000000888 ) ) ;
#581 = DIRECTION ( 'NONE',  ( -0.000000000000000000, -0.000000000000000000, -1.000000000000000000 ) ) ;
#582 = ORIENTED_EDGE ( 'NONE', *, *, #571, .T. ) ;
#583 = DIRECTION ( 'NONE',  ( 0.8660254037844397068, -0.4999999999999979461, 0.000000000000000000 ) ) ;
#584 = FACE_OUTER_BOUND ( 'NONE', #908, .T. ) ;
#585 =( NAMED_UNIT ( * ) SI_UNIT ( $, .STERADIAN. ) SOLID_ANGLE_UNIT ( ) );
#586 = DIRECTION ( 'NONE',  ( 0.000000000000000000, 0.000000000000000000, 1.000000000000000000 ) ) ;
#587 = ORIENTED_EDGE ( 'NONE', *, *, #54, .F. ) ;
#588 = EDGE_CURVE ( 'NONE', #494, #472, #856, .T. ) ;
#589 = FACE_OUTER_BOUND ( 'NONE', #107, .T. ) ;
#590 = CARTESIAN_POINT ( 'NONE',  ( 2.374999999999961364, 4.113620667976104706, 0.000000000000000000 ) ) ;
#591 = EDGE_CURVE ( 'NONE', #677, #494, #638, .T. ) ;
#592 = ORIENTED_EDGE ( 'NONE', *, *, #613, .T. ) ;
#593 = LINE ( 'NONE', #877, #461 ) ;
#594 = FACE_OUTER_BOUND ( 'NONE', #482, .T. ) ;
#595 = PLANE ( 'NONE',  #273 ) ;
#596 = VECTOR ( 'NONE', #562, 1000.000000000000000 ) ;
#597 = ORIENTED_EDGE ( 'NONE', *, *, #712, .F. ) ;
#598 = DIRECTION ( 'NONE',  ( -0.000000000000000000, -0.000000000000000000, -1.000000000000000000 ) ) ;
#599 = CARTESIAN_POINT ( 'NONE',  ( -0.2532377607281864895, 5.338620667976079481, 4.999999999999999112 ) ) ;
#600 = DIRECTION ( 'NONE',  ( 0.000000000000000000, 0.000000000000000000, 1.000000000000000000 ) ) ;
#601 = ORIENTED_EDGE ( 'NONE', *, *, #365, .F. ) ;
#602 = EDGE_CURVE ( 'NONE', #311, #237, #125, .T. ) ;
#603 = LINE ( 'NONE', #805, #39 ) ;
#604 = ORIENTED_EDGE ( 'NONE', *, *, #315, .F. ) ;
#605 = DIRECTION ( 'NONE',  ( 0.000000000000000000, 0.000000000000000000, 1.000000000000000000 ) ) ;
#606 = EDGE_CURVE ( 'NONE', #195, #812, #771, .T. ) ;
#607 = VECTOR ( 'NONE', #749, 1000.000000000000000 ) ;
#608 = AXIS2_PLACEMENT_3D ( 'NONE', #392, #235, #880 ) ;
#609 = ORIENTED_EDGE ( 'NONE', *, *, #408, .T. ) ;
#610 = CARTESIAN_POINT ( 'NONE',  ( 0.000000000000000000, 0.000000000000000000, -5.000000000000000000 ) ) ;
#611 = ORIENTED_EDGE ( 'NONE', *, *, #54, .T. ) ;
#612 = LINE ( 'NONE', #35, #569 ) ;
#613 = EDGE_CURVE ( 'NONE', #128, #297, #654, .T. ) ;
#614 = DIRECTION ( 'NONE',  ( 0.8660254037844363761, 0.5000000000000039968, 0.000000000000000000 ) ) ;
#615 = EDGE_CURVE ( 'NONE', #226, #179, #281, .T. ) ;
#616 = VECTOR ( 'NONE', #667, 1000.000000000000114 ) ;
#617 = EDGE_LOOP ( 'NONE', ( #247, #258, #50, #468 ) ) ;
#618 = VECTOR ( 'NONE', #898, 1000.000000000000000 ) ;
#619 = AXIS2_PLACEMENT_3D ( 'NONE', #201, #779, #710 ) ;
#620 = ORIENTED_EDGE ( 'NONE', *, *, #714, .F. ) ;
#621 = LINE ( 'NONE', #215, #401 ) ;
#622 = VERTEX_POINT ( 'NONE', #563 ) ;
#623 = EDGE_CURVE ( 'NONE', #768, #656, #359, .T. ) ;
#624 = EDGE_LOOP ( 'NONE', ( #45, #260, #166, #700 ) ) ;
#625 = CARTESIAN_POINT ( 'NONE',  ( 0.2532377607281487975, -5.338620667976083034, 4.999999999999999112 ) ) ;
#626 = CARTESIAN_POINT ( 'NONE',  ( 0.2532377607280746346, 5.338620667976086587, 4.999999999999999112 ) ) ;
#627 = ORIENTED_EDGE ( 'NONE', *, *, #615, .F. ) ;
#628 = AXIS2_PLACEMENT_3D ( 'NONE', #53, #567, #651 ) ;
#629 = VERTEX_POINT ( 'NONE', #863 ) ;
#630 = DIRECTION ( 'NONE',  ( -0.8660254037844363761, -0.5000000000000039968, 0.000000000000000000 ) ) ;
#631 = DIRECTION ( 'NONE',  ( 1.000000000000000000, 0.000000000000000000, 0.000000000000000000 ) ) ;
#632 = DIRECTION ( 'NONE',  ( 0.5000000000000039968, -0.8660254037844363761, 0.000000000000000000 ) ) ;
#633 = CARTESIAN_POINT ( 'NONE',  ( -0.2532377607281864895, 5.338620667976079481, -5.000000000000000888 ) ) ;
#634 = ORIENTED_EDGE ( 'NONE', *, *, #348, .T. ) ;
#635 = VECTOR ( 'NONE', #930, 1000.000000000000114 ) ;
#636 = VERTEX_POINT ( 'NONE', #850 ) ;
#637 = VECTOR ( 'NONE', #163, 1000.000000000000000 ) ;
#638 = CIRCLE ( 'NONE', #232, 8.750000000000001776 ) ;
#639 = CARTESIAN_POINT ( 'NONE',  ( 4.496762239271848038, 2.888620667976124601, 4.999999999999999112 ) ) ;
#640 = CARTESIAN_POINT ( 'NONE',  ( -4.496762239271868467, -2.888620667976093070, -5.000000000000000888 ) ) ;
#641 = ADVANCED_FACE ( 'NONE', ( #836 ), #648, .T. ) ;
#642 = CARTESIAN_POINT ( 'NONE',  ( 0.000000000000000000, 0.000000000000000000, 5.000000000000000000 ) ) ;
#643 = DIRECTION ( 'NONE',  ( -0.4999999999999979461, -0.8660254037844397068, 0.000000000000000000 ) ) ;
#644 = VERTEX_POINT ( 'NONE', #418 ) ;
#645 = CARTESIAN_POINT ( 'NONE',  ( -0.2532377607281864895, 5.338620667976079481, -5.000000000000000888 ) ) ;
#646 = EDGE_CURVE ( 'NONE', #644, #840, #799, .T. ) ;
#647 = PLANE ( 'NONE',  #890 ) ;
#648 = PLANE ( 'NONE',  #893 ) ;
#649 =( NAMED_UNIT ( * ) PLANE_ANGLE_UNIT ( ) SI_UNIT ( $, .RADIAN. ) );
#650 = ORIENTED_EDGE ( 'NONE', *, *, #551, .F. ) ;
#651 = DIRECTION ( 'NONE',  ( 1.000000000000000000, 0.000000000000000000, 0.000000000000000000 ) ) ;
#652 = CARTESIAN_POINT ( 'NONE',  ( 2.078237760728164574, -8.499613391789276662, 5.000000000000000000 ) ) ;
#653 = CIRCLE ( 'NONE', #901, 4.000000000000000000 ) ;
#654 = LINE ( 'NONE', #429, #818 ) ;
#655 = CARTESIAN_POINT ( 'NONE',  ( -4.496762239271868467, -2.888620667976093070, -5.000000000000000888 ) ) ;
#656 = VERTEX_POINT ( 'NONE', #197 ) ;
#657 = CARTESIAN_POINT ( 'NONE',  ( 0.000000000000000000, 0.000000000000000000, 5.000000000000000000 ) ) ;
#658 = VECTOR ( 'NONE', #307, 1000.000000000000000 ) ;
#659 = CARTESIAN_POINT ( 'NONE',  ( -4.496762239271868467, -2.888620667976093070, -5.000000000000000888 ) ) ;
#660 = LINE ( 'NONE', #9, #464 ) ;
#661 = ORIENTED_EDGE ( 'NONE', *, *, #242, .T. ) ;
#662 = DIRECTION ( 'NONE',  ( -0.000000000000000000, -0.000000000000000000, -1.000000000000000000 ) ) ;
#663 = EDGE_CURVE ( 'NONE', #413, #132, #487, .T. ) ;
#664 = CARTESIAN_POINT ( 'NONE',  ( -6.321762239271946804, 6.049613391789210759, 5.000000000000000000 ) ) ;
#665 = LINE ( 'NONE', #640, #64 ) ;
#666 = ORIENTED_EDGE ( 'NONE', *, *, #894, .F. ) ;
#667 = DIRECTION ( 'NONE',  ( 0.5000000000000039968, -0.8660254037844363761, 0.000000000000000000 ) ) ;
#668 = DIRECTION ( 'NONE',  ( -0.8660254037844397068, 0.4999999999999979461, 0.000000000000000000 ) ) ;
#669 = FACE_OUTER_BOUND ( 'NONE', #911, .T. ) ;
#670 = ORIENTED_EDGE ( 'NONE', *, *, #565, .F. ) ;
#671 = DIRECTION ( 'NONE',  ( 0.000000000000000000, 0.000000000000000000, 1.000000000000000000 ) ) ;
#672 = DIRECTION ( 'NONE',  ( 0.000000000000000000, 0.000000000000000000, 1.000000000000000000 ) ) ;
#673 = DIRECTION ( 'NONE',  ( -0.000000000000000000, 0.000000000000000000, -1.000000000000000000 ) ) ;
#674 = FACE_OUTER_BOUND ( 'NONE', #289, .T. ) ;
#675 = VECTOR ( 'NONE', #240, 1000.000000000000000 ) ;
#676 = ADVANCED_FACE ( 'NONE', ( #914 ), #844, .F. ) ;
#677 = VERTEX_POINT ( 'NONE', #236 ) ;
#678 = DIRECTION ( 'NONE',  ( 0.000000000000000000, 0.000000000000000000, 1.000000000000000000 ) ) ;
#679 = DIRECTION ( 'NONE',  ( 0.8660254037844363761, 0.5000000000000039968, -0.000000000000000000 ) ) ;
#680 = CARTESIAN_POINT ( 'NONE',  ( -4.496762239271909323, 2.888620667976030010, 4.999999999999999112 ) ) ;
#681 = ORIENTED_EDGE ( 'NONE', *, *, #742, .F. ) ;
#682 = EDGE_CURVE ( 'NONE', #153, #830, #660, .T. ) ;
#683 = DIRECTION ( 'NONE',  ( 0.000000000000000000, 0.000000000000000000, -1.000000000000000000 ) ) ;
#684 = VECTOR ( 'NONE', #3, 1000.000000000000000 ) ;
#685 = ORIENTED_EDGE ( 'NONE', *, *, #138, .F. ) ;
#686 = FACE_OUTER_BOUND ( 'NONE', #617, .T. ) ;
#687 = VECTOR ( 'NONE', #345, 1000.000000000000000 ) ;
#688 = EDGE_CURVE ( 'NONE', #504, #713, #165, .T. ) ;
#689 = ORIENTED_EDGE ( 'NONE', *, *, #752, .T. ) ;
#690 = EDGE_CURVE ( 'NONE', #713, #725, #336, .T. ) ;
#691 = PLANE ( 'NONE',  #931 ) ;
#692 = ORIENTED_EDGE ( 'NONE', *, *, #315, .T. ) ;
#693 = CARTESIAN_POINT ( 'NONE',  ( 0.2532377607281487975, -5.338620667976083034, 4.999999999999999112 ) ) ;
#694 = DIRECTION ( 'NONE',  ( 0.5000000000000039968, -0.8660254037844363761, 0.000000000000000000 ) ) ;
#695 = ORIENTED_EDGE ( 'NONE', *, *, #728, .T. ) ;
#696 = AXIS2_PLACEMENT_3D ( 'NONE', #516, #678, #19 ) ;
#697 = LINE ( 'NONE', #337, #804 ) ;
#698 = VECTOR ( 'NONE', #874, 1000.000000000000000 ) ;
#699 = ADVANCED_FACE ( 'NONE', ( #674 ), #304, .T. ) ;
#700 = ORIENTED_EDGE ( 'NONE', *, *, #907, .T. ) ;
#701 = ORIENTED_EDGE ( 'NONE', *, *, #894, .T. ) ;
#702 = PRODUCT ( 'P001-B102_MagnetHolderRing_Rev2C_3', 'P001-B102_MagnetHolderRing_Rev2C_3', '', ( #202 ) ) ;
#703 = VERTEX_POINT ( 'NONE', #89 ) ;
#704 = LINE ( 'NONE', #847, #635 ) ;
#705 = CARTESIAN_POINT ( 'NONE',  ( 4.496762239271889783, -2.888620667976062872, -5.000000000000000888 ) ) ;
#706 = DIRECTION ( 'NONE',  ( -0.5000000000000101030, 0.8660254037844328234, 0.000000000000000000 ) ) ;
#707 = ORIENTED_EDGE ( 'NONE', *, *, #408, .F. ) ;
#708 = EDGE_LOOP ( 'NONE', ( #342, #620 ) ) ;
#709 = FACE_OUTER_BOUND ( 'NONE', #129, .T. ) ;
#710 = DIRECTION ( 'NONE',  ( -1.000000000000000000, 0.000000000000000000, 0.000000000000000000 ) ) ;
#711 = DIRECTION ( 'NONE',  ( -0.000000000000000000, -0.000000000000000000, -1.000000000000000000 ) ) ;
#712 = EDGE_CURVE ( 'NONE', #755, #822, #16, .T. ) ;
#713 = VERTEX_POINT ( 'NONE', #848 ) ;
#714 = EDGE_CURVE ( 'NONE', #124, #622, #750, .T. ) ;
#715 = AXIS2_PLACEMENT_3D ( 'NONE', #78, #711, #488 ) ;
#716 = FACE_OUTER_BOUND ( 'NONE', #534, .T. ) ;
#717 = ADVANCED_BREP_SHAPE_REPRESENTATION ( 'P001-B102_MagnetHolderRing_Rev2C_3', ( #435, #393 ), #114 ) ;
#718 = DIRECTION ( 'NONE',  ( 0.000000000000000000, 0.000000000000000000, -1.000000000000000000 ) ) ;
#719 = FACE_OUTER_BOUND ( 'NONE', #548, .T. ) ;
#720 = ORIENTED_EDGE ( 'NONE', *, *, #348, .F. ) ;
#721 = DIRECTION ( 'NONE',  ( -0.000000000000000000, -0.000000000000000000, -1.000000000000000000 ) ) ;
#722 = CARTESIAN_POINT ( 'NONE',  ( 4.749999999999999112, -2.450000000000000622, 4.999999999999999112 ) ) ;
#723 = CARTESIAN_POINT ( 'NONE',  ( 0.000000000000000000, 0.000000000000000000, -5.000000000000000000 ) ) ;
#724 = DIRECTION ( 'NONE',  ( 1.000000000000000000, 0.000000000000000000, 0.000000000000000000 ) ) ;
#725 = VERTEX_POINT ( 'NONE', #834 ) ;
#726 = LINE ( 'NONE', #511, #106 ) ;
#727 = PLANE ( 'NONE',  #110 ) ;
#728 = EDGE_CURVE ( 'NONE', #27, #549, #192, .T. ) ;
#729 = ORIENTED_EDGE ( 'NONE', *, *, #500, .F. ) ;
#730 = LINE ( 'NONE', #86, #849 ) ;
#731 = CIRCLE ( 'NONE', #111, 4.000000000000000000 ) ;
#732 = FILL_AREA_STYLE_COLOUR ( '', #332 ) ;
#733 = ORIENTED_EDGE ( 'NONE', *, *, #112, .T. ) ;
#734 = DIRECTION ( 'NONE',  ( -1.000000000000000000, 0.000000000000000000, 0.000000000000000000 ) ) ;
#735 = LINE ( 'NONE', #664, #428 ) ;
#736 = FACE_OUTER_BOUND ( 'NONE', #510, .T. ) ;
#737 = DIRECTION ( 'NONE',  ( 1.000000000000000000, 0.000000000000000000, 0.000000000000000000 ) ) ;
#738 = ORIENTED_EDGE ( 'NONE', *, *, #663, .T. ) ;
#739 = AXIS2_PLACEMENT_3D ( 'NONE', #82, #227, #683 ) ;
#740 = LINE ( 'NONE', #385, #380 ) ;
#741 = LINE ( 'NONE', #98, #637 ) ;
#742 = EDGE_CURVE ( 'NONE', #644, #420, #126, .T. ) ;
#743 = CARTESIAN_POINT ( 'NONE',  ( 4.749999999999999112, -2.450000000000000622, 4.999999999999999112 ) ) ;
#744 = DIRECTION ( 'NONE',  ( -1.000000000000000000, 0.000000000000000000, 0.000000000000000000 ) ) ;
#745 = VECTOR ( 'NONE', #116, 1000.000000000000000 ) ;
#746 = ORIENTED_EDGE ( 'NONE', *, *, #112, .F. ) ;
#747 = EDGE_CURVE ( 'NONE', #91, #840, #168, .T. ) ;
#748 = CARTESIAN_POINT ( 'NONE',  ( 0.000000000000000000, 0.000000000000000000, 5.000000000000000000 ) ) ;
#749 = DIRECTION ( 'NONE',  ( 0.000000000000000000, 0.000000000000000000, 1.000000000000000000 ) ) ;
#750 = CIRCLE ( 'NONE', #575, 4.000000000000000000 ) ;
#751 = CARTESIAN_POINT ( 'NONE',  ( 4.496762239271889783, -2.888620667976062872, 4.999999999999999112 ) ) ;
#752 = EDGE_CURVE ( 'NONE', #415, #472, #375, .T. ) ;
#753 = ORIENTED_EDGE ( 'NONE', *, *, #928, .T. ) ;
#754 = DIRECTION ( 'NONE',  ( 0.000000000000000000, 0.000000000000000000, 1.000000000000000000 ) ) ;
#755 = VERTEX_POINT ( 'NONE', #814 ) ;
#756 = DIRECTION ( 'NONE',  ( -0.000000000000000000, -0.000000000000000000, -1.000000000000000000 ) ) ;
#757 = CIRCLE ( 'NONE', #628, 8.750000000000001776 ) ;
#758 = ORIENTED_EDGE ( 'NONE', *, *, #178, .T. ) ;
#759 = EDGE_CURVE ( 'NONE', #179, #766, #386, .T. ) ;
#760 = LINE ( 'NONE', #329, #246 ) ;
#761 = VECTOR ( 'NONE', #721, 1000.000000000000000 ) ;
#762 = VECTOR ( 'NONE', #643, 1000.000000000000227 ) ;
#763 =( GEOMETRIC_REPRESENTATION_CONTEXT ( 3 ) GLOBAL_UNCERTAINTY_ASSIGNED_CONTEXT ( ( #17 ) ) GLOBAL_UNIT_ASSIGNED_CONTEXT ( ( #139, #77, #585 ) ) REPRESENTATION_CONTEXT ( 'NONE', 'WORKASPACE' ) );
#764 = VERTEX_POINT ( 'NONE', #313 ) ;
#765 = FACE_OUTER_BOUND ( 'NONE', #454, .T. ) ;
#766 = VERTEX_POINT ( 'NONE', #150 ) ;
#767 = EDGE_CURVE ( 'NONE', #132, #472, #403, .T. ) ;
#768 = VERTEX_POINT ( 'NONE', #21 ) ;
#769 = ORIENTED_EDGE ( 'NONE', *, *, #11, .F. ) ;
#770 = CIRCLE ( 'NONE', #366, 4.000000000000000000 ) ;
#771 = CIRCLE ( 'NONE', #370, 8.750000000000001776 ) ;
#772 = ORIENTED_EDGE ( 'NONE', *, *, #41, .T. ) ;
#773 = ORIENTED_EDGE ( 'NONE', *, *, #223, .T. ) ;
#774 = DIRECTION ( 'NONE',  ( 0.000000000000000000, 0.000000000000000000, 1.000000000000000000 ) ) ;
#775 = DIRECTION ( 'NONE',  ( 1.000000000000000000, 0.000000000000000000, 0.000000000000000000 ) ) ;
#776 = DIRECTION ( 'NONE',  ( -0.5000000000000101030, 0.8660254037844328234, 0.000000000000000000 ) ) ;
#777 = VERTEX_POINT ( 'NONE', #291 ) ;
#778 = LINE ( 'NONE', #200, #801 ) ;
#779 = DIRECTION ( 'NONE',  ( -0.000000000000000000, -0.000000000000000000, -1.000000000000000000 ) ) ;
#780 = EDGE_CURVE ( 'NONE', #549, #237, #741, .T. ) ;
#781 = SHAPE_DEFINITION_REPRESENTATION ( #43, #717 ) ;
#782 = ORIENTED_EDGE ( 'NONE', *, *, #742, .T. ) ;
#783 = EDGE_CURVE ( 'NONE', #504, #226, #234, .T. ) ;
#784 = FACE_BOUND ( 'NONE', #708, .T. ) ;
#785 = DIRECTION ( 'NONE',  ( 0.4999999999999919509, 0.8660254037844432595, -0.000000000000000000 ) ) ;
#786 = CARTESIAN_POINT ( 'NONE',  ( 0.000000000000000000, 0.000000000000000000, -5.000000000000000000 ) ) ;
#787 = LINE ( 'NONE', #287, #353 ) ;
#788 = ORIENTED_EDGE ( 'NONE', *, *, #252, .F. ) ;
#789 = VECTOR ( 'NONE', #668, 1000.000000000000114 ) ;
#790 = DIRECTION ( 'NONE',  ( 0.000000000000000000, 0.000000000000000000, 1.000000000000000000 ) ) ;
#791 = DIRECTION ( 'NONE',  ( 0.000000000000000000, -0.000000000000000000, 1.000000000000000000 ) ) ;
#792 = DIRECTION ( 'NONE',  ( 0.8660254037844328234, 0.5000000000000101030, 0.000000000000000000 ) ) ;
#793 = DIRECTION ( 'NONE',  ( -0.8660254037844328234, -0.5000000000000101030, 0.000000000000000000 ) ) ;
#794 = DIRECTION ( 'NONE',  ( -0.000000000000000000, -0.000000000000000000, -1.000000000000000000 ) ) ;
#795 = ORIENTED_EDGE ( 'NONE', *, *, #663, .F. ) ;
#796 = DIRECTION ( 'NONE',  ( 0.4999999999999920064, 0.8660254037844432595, 0.000000000000000000 ) ) ;
#797 = CARTESIAN_POINT ( 'NONE',  ( 0.2532377607281487975, -5.338620667976083034, 4.999999999999999112 ) ) ;
#798 = EDGE_CURVE ( 'NONE', #830, #549, #230, .T. ) ;
#799 = LINE ( 'NONE', #626, #486 ) ;
#800 = EDGE_LOOP ( 'NONE', ( #758, #231, #884, #746, #185, #389, #2, #276, #96, #540, #560, #148, #324, #803, #916, #10, #582, #773, #481, #604, #214, #394, #460, #118 ) ) ;
#801 = VECTOR ( 'NONE', #59, 1000.000000000000000 ) ;
#802 = CARTESIAN_POINT ( 'NONE',  ( -4.749999999999999112, 2.450000000000000622, -5.000000000000000888 ) ) ;
#803 = ORIENTED_EDGE ( 'NONE', *, *, #51, .T. ) ;
#804 = VECTOR ( 'NONE', #46, 1000.000000000000000 ) ;
#805 = CARTESIAN_POINT ( 'NONE',  ( -4.749999999999999112, 2.450000000000000622, 4.999999999999999112 ) ) ;
#806 = PLANE ( 'NONE',  #839 ) ;
#807 = ORIENTED_EDGE ( 'NONE', *, *, #860, .T. ) ;
#808 = CARTESIAN_POINT ( 'NONE',  ( 4.496762239271848038, 2.888620667976124601, -5.000000000000000888 ) ) ;
#809 = LINE ( 'NONE', #659, #789 ) ;
#810 = DIRECTION ( 'NONE',  ( -0.4999999999999980016, -0.8660254037844398178, 0.000000000000000000 ) ) ;
#811 = EDGE_CURVE ( 'NONE', #195, #713, #735, .T. ) ;
#812 = VERTEX_POINT ( 'NONE', #303 ) ;
#813 = DIRECTION ( 'NONE',  ( 1.000000000000000000, 0.000000000000000000, 0.000000000000000000 ) ) ;
#814 = CARTESIAN_POINT ( 'NONE',  ( 2.078237760728165018, -8.499613391789278438, 5.000000000000000000 ) ) ;
#815 = CARTESIAN_POINT ( 'NONE',  ( -4.749999999999999112, 2.450000000000000622, -5.000000000000000888 ) ) ;
#816 = ORIENTED_EDGE ( 'NONE', *, *, #398, .T. ) ;
#817 = CARTESIAN_POINT ( 'NONE',  ( 0.000000000000000000, 0.000000000000000000, 5.000000000000000000 ) ) ;
#818 = VECTOR ( 'NONE', #718, 1000.000000000000000 ) ;
#819 = EDGE_LOOP ( 'NONE', ( #190, #838, #816, #832 ) ) ;
#820 = DIRECTION ( 'NONE',  ( -1.000000000000000000, 0.000000000000000000, 0.000000000000000000 ) ) ;
#821 = ADVANCED_FACE ( 'NONE', ( #391 ), #449, .T. ) ;
#822 = VERTEX_POINT ( 'NONE', #87 ) ;
#823 = CARTESIAN_POINT ( 'NONE',  ( -4.749999999999999112, -2.450000000000000622, -5.000000000000000888 ) ) ;
#824 = ORIENTED_EDGE ( 'NONE', *, *, #904, .F. ) ;
#825 = DIRECTION ( 'NONE',  ( -0.000000000000000000, -0.000000000000000000, -1.000000000000000000 ) ) ;
#826 = VECTOR ( 'NONE', #268, 1000.000000000000000 ) ;
#827 = ORIENTED_EDGE ( 'NONE', *, *, #606, .F. ) ;
#828 = ADVANCED_FACE ( 'NONE', ( #594 ), #861, .T. ) ;
#829 = ORIENTED_EDGE ( 'NONE', *, *, #100, .F. ) ;
#830 = VERTEX_POINT ( 'NONE', #879 ) ;
#831 = ORIENTED_EDGE ( 'NONE', *, *, #398, .F. ) ;
#832 = ORIENTED_EDGE ( 'NONE', *, *, #365, .T. ) ;
#833 = EDGE_CURVE ( 'NONE', #573, #875, #809, .T. ) ;
#834 = CARTESIAN_POINT ( 'NONE',  ( -8.400000000000000355, 2.450000000000000622, 5.000000000000000000 ) ) ;
#835 = ORIENTED_EDGE ( 'NONE', *, *, #142, .T. ) ;
#836 = FACE_OUTER_BOUND ( 'NONE', #103, .T. ) ;
#837 = LINE ( 'NONE', #580, #762 ) ;
#838 = ORIENTED_EDGE ( 'NONE', *, *, #682, .F. ) ;
#839 = AXIS2_PLACEMENT_3D ( 'NONE', #15, #164, #88 ) ;
#840 = VERTEX_POINT ( 'NONE', #300 ) ;
#841 = CARTESIAN_POINT ( 'NONE',  ( -4.749999999999999112, -2.450000000000000622, 4.999999999999999112 ) ) ;
#842 = ADVANCED_FACE ( 'NONE', ( #584 ), #221, .F. ) ;
#843 = EDGE_CURVE ( 'NONE', #447, #764, #296, .T. ) ;
#844 = CYLINDRICAL_SURFACE ( 'NONE', #619, 4.000000000000000000 ) ;
#845 = DIRECTION ( 'NONE',  ( 1.000000000000000000, 0.000000000000000000, 0.000000000000000000 ) ) ;
#846 = ORIENTED_EDGE ( 'NONE', *, *, #759, .F. ) ;
#847 = CARTESIAN_POINT ( 'NONE',  ( 4.496762239271889783, -2.888620667976062872, 4.999999999999999112 ) ) ;
#848 = CARTESIAN_POINT ( 'NONE',  ( -6.321762239271946804, 6.049613391789210759, 4.999999999999999112 ) ) ;
#849 = VECTOR ( 'NONE', #598, 1000.000000000000000 ) ;
#850 = CARTESIAN_POINT ( 'NONE',  ( 4.496762239271848038, 2.888620667976124601, 4.999999999999999112 ) ) ;
#851 = DIRECTION ( 'NONE',  ( -0.000000000000000000, -0.000000000000000000, -1.000000000000000000 ) ) ;
#852 = ORIENTED_EDGE ( 'NONE', *, *, #843, .F. ) ;
#853 = CARTESIAN_POINT ( 'NONE',  ( 4.749999999999999112, -2.450000000000000622, -5.000000000000000888 ) ) ;
#854 = VECTOR ( 'NONE', #873, 1000.000000000000000 ) ;
#855 = PRODUCT_RELATED_PRODUCT_CATEGORY ( 'part', '', ( #702 ) ) ;
#856 = LINE ( 'NONE', #552, #687 ) ;
#857 = VECTOR ( 'NONE', #792, 1000.000000000000000 ) ;
#858 = ORIENTED_EDGE ( 'NONE', *, *, #860, .F. ) ;
#859 = CARTESIAN_POINT ( 'NONE',  ( 0.2532377607281487975, -5.338620667976083034, -5.000000000000000888 ) ) ;
#860 = EDGE_CURVE ( 'NONE', #179, #443, #497, .T. ) ;
#861 = CYLINDRICAL_SURFACE ( 'NONE', #388, 8.750000000000001776 ) ;
#862 = PRESENTATION_STYLE_ASSIGNMENT (( #578 ) ) ;
#863 = CARTESIAN_POINT ( 'NONE',  ( -2.078237760728225414, 8.499613391789262451, 5.000000000000000000 ) ) ;
#864 = CYLINDRICAL_SURFACE ( 'NONE', #715, 8.750000000000001776 ) ;
#865 = ORIENTED_EDGE ( 'NONE', *, *, #904, .T. ) ;
#866 = CARTESIAN_POINT ( 'NONE',  ( -4.496762239271868467, -2.888620667976093070, 4.999999999999999112 ) ) ;
#867 = FACE_OUTER_BOUND ( 'NONE', #349, .T. ) ;
#868 = ADVANCED_FACE ( 'NONE', ( #719 ), #910, .T. ) ;
#869 = CARTESIAN_POINT ( 'NONE',  ( 4.496762239271848038, 2.888620667976124601, 4.999999999999999112 ) ) ;
#870 = ORIENTED_EDGE ( 'NONE', *, *, #452, .T. ) ;
#871 = VECTOR ( 'NONE', #630, 999.9999999999998863 ) ;
#872 = DIRECTION ( 'NONE',  ( -0.5000000000000101030, 0.8660254037844328234, 0.000000000000000000 ) ) ;
#873 = DIRECTION ( 'NONE',  ( 1.000000000000000000, 0.000000000000000000, 0.000000000000000000 ) ) ;
#874 = DIRECTION ( 'NONE',  ( -0.5000000000000101030, 0.8660254037844328234, 0.000000000000000000 ) ) ;
#875 = VERTEX_POINT ( 'NONE', #655 ) ;
#876 = AXIS2_PLACEMENT_3D ( 'NONE', #505, #495, #362 ) ;
#877 = CARTESIAN_POINT ( 'NONE',  ( 4.496762239271848038, 2.888620667976124601, 4.999999999999999112 ) ) ;
#878 = VECTOR ( 'NONE', #706, 1000.000000000000000 ) ;
#879 = CARTESIAN_POINT ( 'NONE',  ( -8.400000000000000355, -2.450000000000000622, 4.999999999999999112 ) ) ;
#880 = DIRECTION ( 'NONE',  ( 1.000000000000000000, 0.000000000000000000, -0.000000000000000000 ) ) ;
#881 = ADVANCED_FACE ( 'NONE', ( #57 ), #864, .T. ) ;
#882 = ADVANCED_FACE ( 'NONE', ( #131 ), #727, .T. ) ;
#883 = PRODUCT_DEFINITION_FORMATION_WITH_SPECIFIED_SOURCE ( 'ANY', '', #702, .NOT_KNOWN. ) ;
#884 = ORIENTED_EDGE ( 'NONE', *, *, #690, .T. ) ;
#885 = CARTESIAN_POINT ( 'NONE',  ( 0.2532377607281487975, -5.338620667976083034, -5.000000000000000888 ) ) ;
#886 = DIRECTION ( 'NONE',  ( 0.000000000000000000, 0.000000000000000000, 1.000000000000000000 ) ) ;
#887 = DIRECTION ( 'NONE',  ( 0.000000000000000000, 0.000000000000000000, 1.000000000000000000 ) ) ;
#888 = VERTEX_POINT ( 'NONE', #509 ) ;
#889 = CARTESIAN_POINT ( 'NONE',  ( -4.496762239271909323, 2.888620667976030010, -5.000000000000000888 ) ) ;
#890 = AXIS2_PLACEMENT_3D ( 'NONE', #590, #785, #507 ) ;
#891 = ORIENTED_EDGE ( 'NONE', *, *, #913, .F. ) ;
#892 = DIRECTION ( 'NONE',  ( -0.4999999999999979461, -0.8660254037844397068, 0.000000000000000000 ) ) ;
#893 = AXIS2_PLACEMENT_3D ( 'NONE', #74, #49, #933 ) ;
#894 = EDGE_CURVE ( 'NONE', #420, #425, #564, .T. ) ;
#895 = ORIENTED_EDGE ( 'NONE', *, *, #453, .T. ) ;
#896 = DIRECTION ( 'NONE',  ( 0.000000000000000000, 0.000000000000000000, 1.000000000000000000 ) ) ;
#897 = ORIENTED_EDGE ( 'NONE', *, *, #84, .F. ) ;
#898 = DIRECTION ( 'NONE',  ( -1.000000000000000000, 0.000000000000000000, 0.000000000000000000 ) ) ;
#899 = AXIS2_PLACEMENT_3D ( 'NONE', #319, #662, #317 ) ;
#900 = ADVANCED_FACE ( 'NONE', ( #915 ), #559, .T. ) ;
#901 = AXIS2_PLACEMENT_3D ( 'NONE', #610, #896, #186 ) ;
#902 = ORIENTED_EDGE ( 'NONE', *, *, #384, .T. ) ;
#903 = FACE_OUTER_BOUND ( 'NONE', #479, .T. ) ;
#904 = EDGE_CURVE ( 'NONE', #226, #195, #787, .T. ) ;
#905 = ORIENTED_EDGE ( 'NONE', *, *, #223, .F. ) ;
#906 = ORIENTED_EDGE ( 'NONE', *, *, #452, .F. ) ;
#907 = EDGE_CURVE ( 'NONE', #573, #85, #837, .T. ) ;
#908 = EDGE_LOOP ( 'NONE', ( #720, #338, #611, #181 ) ) ;
#909 = DIRECTION ( 'NONE',  ( 0.4999999999999920064, 0.8660254037844432595, 0.000000000000000000 ) ) ;
#910 = PLANE ( 'NONE',  #917 ) ;
#911 = EDGE_LOOP ( 'NONE', ( #143, #520, #383, #189 ) ) ;
#912 = LINE ( 'NONE', #925, #265 ) ;
#913 = EDGE_CURVE ( 'NONE', #840, #629, #63, .T. ) ;
#914 = FACE_OUTER_BOUND ( 'NONE', #485, .T. ) ;
#915 = FACE_OUTER_BOUND ( 'NONE', #262, .T. ) ;
#916 = ORIENTED_EDGE ( 'NONE', *, *, #591, .T. ) ;
#917 = AXIS2_PLACEMENT_3D ( 'NONE', #923, #436, #424 ) ;
#918 = AXIS2_PLACEMENT_3D ( 'NONE', #570, #213, #286 ) ;
#919 = ORIENTED_EDGE ( 'NONE', *, *, #752, .F. ) ;
#920 = CARTESIAN_POINT ( 'NONE',  ( -0.2532377607281864895, 5.338620667976079481, 4.999999999999999112 ) ) ;
#921 = DIRECTION ( 'NONE',  ( -0.4999999999999979461, -0.8660254037844397068, 0.000000000000000000 ) ) ;
#922 = DIRECTION ( 'NONE',  ( 0.000000000000000000, 0.000000000000000000, 1.000000000000000000 ) ) ;
#923 = CARTESIAN_POINT ( 'NONE',  ( -4.496762239271909323, 2.888620667976030010, 4.999999999999999112 ) ) ;
#924 = ORIENTED_EDGE ( 'NONE', *, *, #783, .F. ) ;
#925 = CARTESIAN_POINT ( 'NONE',  ( 0.2532377607281487975, -5.338620667976083034, 4.999999999999999112 ) ) ;
#926 = DIRECTION ( 'NONE',  ( 0.000000000000000000, 0.000000000000000000, 1.000000000000000000 ) ) ;
#927 = DIRECTION ( 'NONE',  ( 0.000000000000000000, 0.000000000000000000, 1.000000000000000000 ) ) ;
#928 = EDGE_CURVE ( 'NONE', #629, #443, #282, .T. ) ;
#929 = EDGE_LOOP ( 'NONE', ( #305, #417, #609, #835 ) ) ;
#930 = DIRECTION ( 'NONE',  ( 0.5000000000000039968, -0.8660254037844363761, 0.000000000000000000 ) ) ;
#931 = AXIS2_PLACEMENT_3D ( 'NONE', #399, #406, #469 ) ;
#932 = DIRECTION ( 'NONE',  ( -0.000000000000000000, -0.000000000000000000, -1.000000000000000000 ) ) ;
#933 = DIRECTION ( 'NONE',  ( -0.000000000000000000, 0.000000000000000000, 1.000000000000000000 ) ) ;
ENDSEC;
END-ISO-10303-21;
