ISO-10303-21;
HEADER;
FILE_DESCRIPTION (( 'STEP AP214' ),
    '1' );
FILE_NAME ('P001-B109_WindingPlateAttachment.STEP',
    '2026-04-17T21:20:05',
    ( '' ),
    ( '' ),
    'SwSTEP 2.0',
    'SolidWorks 2026',
    '' );
FILE_SCHEMA (( 'AUTOMOTIVE_DESIGN' ));
ENDSEC;

DATA;
#1 = SHAPE_DEFINITION_REPRESENTATION ( #548, #475 ) ;
#2 = CARTESIAN_POINT ( 'NONE',  ( -19.50000000000000000, 17.50000000000000000, 5.000000000000000000 ) ) ;
#3 = DIRECTION ( 'NONE',  ( 1.000000000000000000, 0.000000000000000000, 0.000000000000000000 ) ) ;
#4 = PLANE ( 'NONE',  #544 ) ;
#5 = DIRECTION ( 'NONE',  ( 9.912705577010325549E-17, -1.000000000000000000, 0.000000000000000000 ) ) ;
#6 = ORIENTED_EDGE ( 'NONE', *, *, #479, .F. ) ;
#7 = PRESENTATION_STYLE_ASSIGNMENT (( #430 ) ) ;
#8 = CIRCLE ( 'NONE', #252, 1.912731322092412700 ) ;
#9 = DIRECTION ( 'NONE',  ( -0.000000000000000000, -0.000000000000000000, -1.000000000000000000 ) ) ;
#10 = CIRCLE ( 'NONE', #476, 1.912731322092414254 ) ;
#11 = LINE ( 'NONE', #198, #369 ) ;
#12 = ORIENTED_EDGE ( 'NONE', *, *, #538, .F. ) ;
#13 = CARTESIAN_POINT ( 'NONE',  ( 14.49999999999999645, -12.50000000000000000, 5.000000000000000000 ) ) ;
#14 = ORIENTED_EDGE ( 'NONE', *, *, #218, .T. ) ;
#15 = DIRECTION ( 'NONE',  ( -0.000000000000000000, 0.000000000000000000, 1.000000000000000000 ) ) ;
#16 = VECTOR ( 'NONE', #184, 1000.000000000000000 ) ;
#17 = CARTESIAN_POINT ( 'NONE',  ( -19.49999999999999645, -17.50000000000000000, 5.000000000000000000 ) ) ;
#18 = ORIENTED_EDGE ( 'NONE', *, *, #204, .F. ) ;
#19 = DIRECTION ( 'NONE',  ( 1.000000000000000000, 0.000000000000000000, -0.000000000000000000 ) ) ;
#20 = ORIENTED_EDGE ( 'NONE', *, *, #153, .T. ) ;
#21 = CARTESIAN_POINT ( 'NONE',  ( -14.49999999999999645, 12.50000000000000000, 5.000000000000000000 ) ) ;
#22 = ADVANCED_FACE ( 'NONE', ( #316 ), #464, .F. ) ;
#23 = CIRCLE ( 'NONE', #44, 10.00000000000000000 ) ;
#24 = ORIENTED_EDGE ( 'NONE', *, *, #504, .F. ) ;
#25 = EDGE_LOOP ( 'NONE', ( #340, #429, #349, #39 ) ) ;
#26 = DIRECTION ( 'NONE',  ( -1.000000000000000000, -0.000000000000000000, -0.000000000000000000 ) ) ;
#27 = ORIENTED_EDGE ( 'NONE', *, *, #376, .F. ) ;
#28 = DIRECTION ( 'NONE',  ( 1.000000000000000000, 0.000000000000000000, 0.000000000000000000 ) ) ;
#29 = ORIENTED_EDGE ( 'NONE', *, *, #208, .F. ) ;
#30 = TOROIDAL_SURFACE ( 'NONE', #459, 10.00000000000000000, 8.000000000000000000 ) ;
#31 = CARTESIAN_POINT ( 'NONE',  ( -16.41273132209241226, -12.50000000000000000, 5.000000000000000000 ) ) ;
#32 = APPLICATION_CONTEXT ( 'automotive_design' ) ;
#33 = VERTEX_POINT ( 'NONE', #219 ) ;
#34 = EDGE_CURVE ( 'NONE', #337, #168, #142, .T. ) ;
#35 = FACE_OUTER_BOUND ( 'NONE', #79, .T. ) ;
#36 = ORIENTED_EDGE ( 'NONE', *, *, #426, .T. ) ;
#37 = CIRCLE ( 'NONE', #97, 1.912731322092412700 ) ;
#38 = CARTESIAN_POINT ( 'NONE',  ( 19.49999999999999289, 17.50000000000000000, 0.000000000000000000 ) ) ;
#39 = ORIENTED_EDGE ( 'NONE', *, *, #471, .F. ) ;
#40 = CIRCLE ( 'NONE', #258, 1.912731322092412700 ) ;
#41 = DIRECTION ( 'NONE',  ( -1.000000000000000000, 0.000000000000000000, 0.000000000000000000 ) ) ;
#42 = ADVANCED_FACE ( 'NONE', ( #286 ), #4, .F. ) ;
#43 = CARTESIAN_POINT ( 'NONE',  ( -19.50000000000000000, 17.50000000000000000, 0.000000000000000000 ) ) ;
#44 = AXIS2_PLACEMENT_3D ( 'NONE', #361, #552, #603 ) ;
#45 = DIRECTION ( 'NONE',  ( -0.000000000000000000, -0.000000000000000000, -1.000000000000000000 ) ) ;
#46 = CYLINDRICAL_SURFACE ( 'NONE', #228, 1.912731322092414254 ) ;
#47 = CIRCLE ( 'NONE', #443, 1.912731322092412700 ) ;
#48 = DIRECTION ( 'NONE',  ( 1.000000000000000000, 0.000000000000000000, 0.000000000000000000 ) ) ;
#49 = CARTESIAN_POINT ( 'NONE',  ( -14.49999999999999645, -12.50000000000000000, 0.000000000000000000 ) ) ;
#50 = DIRECTION ( 'NONE',  ( -1.000000000000000000, 0.000000000000000000, 0.000000000000000000 ) ) ;
#51 = EDGE_CURVE ( 'NONE', #57, #493, #8, .T. ) ;
#52 = FACE_OUTER_BOUND ( 'NONE', #549, .T. ) ;
#53 = ADVANCED_FACE ( 'NONE', ( #564 ), #352, .F. ) ;
#54 = VECTOR ( 'NONE', #167, 1000.000000000000000 ) ;
#55 = DIRECTION ( 'NONE',  ( 1.000000000000000000, 0.000000000000000000, 0.000000000000000000 ) ) ;
#56 = CARTESIAN_POINT ( 'NONE',  ( -12.58726867790758419, 12.50000000000000000, 5.000000000000000000 ) ) ;
#57 = VERTEX_POINT ( 'NONE', #280 ) ;
#58 = ORIENTED_EDGE ( 'NONE', *, *, #414, .T. ) ;
#59 = ADVANCED_FACE ( 'NONE', ( #52 ), #377, .F. ) ;
#60 = CARTESIAN_POINT ( 'NONE',  ( 14.49999999999999645, 12.50000000000000000, 5.000000000000000000 ) ) ;
#61 = CIRCLE ( 'NONE', #536, 1.912731322092414254 ) ;
#62 = ORIENTED_EDGE ( 'NONE', *, *, #278, .T. ) ;
#63 = DIRECTION ( 'NONE',  ( -0.000000000000000000, -0.000000000000000000, -1.000000000000000000 ) ) ;
#64 = SURFACE_STYLE_FILL_AREA ( #531 ) ;
#65 = VERTEX_POINT ( 'NONE', #566 ) ;
#66 = DIRECTION ( 'NONE',  ( -0.000000000000000000, -0.000000000000000000, -1.000000000000000000 ) ) ;
#67 = VERTEX_POINT ( 'NONE', #329 ) ;
#68 = VERTEX_POINT ( 'NONE', #327 ) ;
#69 = DIRECTION ( 'NONE',  ( 0.000000000000000000, 0.000000000000000000, 1.000000000000000000 ) ) ;
#70 = AXIS2_PLACEMENT_3D ( 'NONE', #239, #145, #573 ) ;
#71 = ORIENTED_EDGE ( 'NONE', *, *, #546, .F. ) ;
#72 = ORIENTED_EDGE ( 'NONE', *, *, #51, .T. ) ;
#73 = CARTESIAN_POINT ( 'NONE',  ( 0.000000000000000000, 0.000000000000000000, 5.000000000000000000 ) ) ;
#74 = AXIS2_PLACEMENT_3D ( 'NONE', #121, #404, #461 ) ;
#75 = EDGE_LOOP ( 'NONE', ( #29, #72, #506, #71 ) ) ;
#76 = EDGE_LOOP ( 'NONE', ( #223, #462, #177, #109 ) ) ;
#77 = DIRECTION ( 'NONE',  ( 1.000000000000000000, 0.000000000000000000, 0.000000000000000000 ) ) ;
#78 = ORIENTED_EDGE ( 'NONE', *, *, #360, .F. ) ;
#79 = EDGE_LOOP ( 'NONE', ( #396, #20, #157, #557 ) ) ;
#80 = DIRECTION ( 'NONE',  ( -0.000000000000000000, -0.000000000000000000, -1.000000000000000000 ) ) ;
#81 = ADVANCED_FACE ( 'NONE', ( #469 ), #46, .F. ) ;
#82 = VERTEX_POINT ( 'NONE', #43 ) ;
#83 = FACE_BOUND ( 'NONE', #589, .T. ) ;
#84 = VERTEX_POINT ( 'NONE', #140 ) ;
#85 = FACE_BOUND ( 'NONE', #460, .T. ) ;
#86 = VERTEX_POINT ( 'NONE', #233 ) ;
#87 = EDGE_CURVE ( 'NONE', #594, #82, #381, .T. ) ;
#88 = LINE ( 'NONE', #524, #572 ) ;
#89 = DIRECTION ( 'NONE',  ( -1.000000000000000000, -0.000000000000000000, -0.000000000000000000 ) ) ;
#90 = VECTOR ( 'NONE', #490, 1000.000000000000000 ) ;
#91 = DIRECTION ( 'NONE',  ( 0.000000000000000000, 0.000000000000000000, 1.000000000000000000 ) ) ;
#92 = DIRECTION ( 'NONE',  ( -9.912705577010325549E-17, 1.000000000000000000, 0.000000000000000000 ) ) ;
#93 = CIRCLE ( 'NONE', #501, 1.912731322092414254 ) ;
#94 = DIRECTION ( 'NONE',  ( 0.000000000000000000, -0.000000000000000000, -1.000000000000000000 ) ) ;
#95 = CARTESIAN_POINT ( 'NONE',  ( -14.49999999999999645, -12.50000000000000000, 5.000000000000000000 ) ) ;
#96 = ADVANCED_FACE ( 'NONE', ( #421 ), #373, .T. ) ;
#97 = AXIS2_PLACEMENT_3D ( 'NONE', #378, #91, #48 ) ;
#98 = DIRECTION ( 'NONE',  ( 0.000000000000000000, 0.000000000000000000, 1.000000000000000000 ) ) ;
#99 = EDGE_CURVE ( 'NONE', #106, #68, #40, .T. ) ;
#100 = CARTESIAN_POINT ( 'NONE',  ( -14.49999999999999645, 12.50000000000000000, 5.000000000000000000 ) ) ;
#101 = APPLICATION_PROTOCOL_DEFINITION ( 'draft international standard', 'automotive_design', 1998, #615 ) ;
#102 = DIRECTION ( 'NONE',  ( -0.000000000000000000, -0.000000000000000000, -1.000000000000000000 ) ) ;
#103 = CIRCLE ( 'NONE', #318, 2.000000000000000000 ) ;
#104 = CIRCLE ( 'NONE', #562, 1.912731322092412700 ) ;
#105 = CARTESIAN_POINT ( 'NONE',  ( 19.49999999999999289, 17.50000000000000000, 5.000000000000000000 ) ) ;
#106 = VERTEX_POINT ( 'NONE', #428 ) ;
#107 = EDGE_CURVE ( 'NONE', #127, #126, #93, .T. ) ;
#108 = LINE ( 'NONE', #251, #187 ) ;
#109 = ORIENTED_EDGE ( 'NONE', *, *, #332, .T. ) ;
#110 = LINE ( 'NONE', #576, #484 ) ;
#111 = MECHANICAL_DESIGN_GEOMETRIC_PRESENTATION_REPRESENTATION (  '', ( #138 ), #243 ) ;
#112 = DIRECTION ( 'NONE',  ( 1.000000000000000000, 0.000000000000000000, 0.000000000000000000 ) ) ;
#113 = UNCERTAINTY_MEASURE_WITH_UNIT (LENGTH_MEASURE( 1.000000000000000082E-05 ), #575, 'distance_accuracy_value', 'NONE');
#114 = ORIENTED_EDGE ( 'NONE', *, *, #99, .T. ) ;
#115 = DIRECTION ( 'NONE',  ( 0.000000000000000000, 0.000000000000000000, 1.000000000000000000 ) ) ;
#116 = ORIENTED_EDGE ( 'NONE', *, *, #559, .T. ) ;
#117 = ADVANCED_FACE ( 'NONE', ( #523 ), #520, .F. ) ;
#118 = DIRECTION ( 'NONE',  ( 0.000000000000000000, 0.000000000000000000, 1.000000000000000000 ) ) ;
#119 = DIRECTION ( 'NONE',  ( 0.000000000000000000, 0.000000000000000000, 1.000000000000000000 ) ) ;
#120 = ORIENTED_EDGE ( 'NONE', *, *, #248, .F. ) ;
#121 = CARTESIAN_POINT ( 'NONE',  ( 0.000000000000000000, 0.000000000000000000, 0.000000000000000000 ) ) ;
#122 = ORIENTED_EDGE ( 'NONE', *, *, #492, .T. ) ;
#123 = EDGE_LOOP ( 'NONE', ( #6, #267, #14, #319 ) ) ;
#124 = CARTESIAN_POINT ( 'NONE',  ( -2.000000000000000000, 0.000000000000000000, 25.00000000000000000 ) ) ;
#125 = VECTOR ( 'NONE', #112, 1000.000000000000000 ) ;
#126 = VERTEX_POINT ( 'NONE', #235 ) ;
#127 = VERTEX_POINT ( 'NONE', #425 ) ;
#128 = DIRECTION ( 'NONE',  ( 0.000000000000000000, 0.000000000000000000, 1.000000000000000000 ) ) ;
#129 = CIRCLE ( 'NONE', #470, 10.00000000000000000 ) ;
#130 = EDGE_LOOP ( 'NONE', ( #532, #386, #442, #12 ) ) ;
#131 = PRODUCT ( 'P001-B109_WindingPlateAttachment', 'P001-B109_WindingPlateAttachment', '', ( #424 ) ) ;
#132 = CARTESIAN_POINT ( 'NONE',  ( -16.41273132209241226, 12.50000000000000000, 0.000000000000000000 ) ) ;
#133 = ORIENTED_EDGE ( 'NONE', *, *, #518, .T. ) ;
#134 = DIRECTION ( 'NONE',  ( 1.000000000000000000, 0.000000000000000000, 0.000000000000000000 ) ) ;
#135 = VERTEX_POINT ( 'NONE', #2 ) ;
#136 = EDGE_CURVE ( 'NONE', #163, #296, #180, .T. ) ;
#137 = AXIS2_PLACEMENT_3D ( 'NONE', #169, #128, #134 ) ;
#138 = STYLED_ITEM ( 'NONE', ( #7 ), #197 ) ;
#139 = CARTESIAN_POINT ( 'NONE',  ( -14.49999999999999645, -12.50000000000000000, 0.000000000000000000 ) ) ;
#140 = CARTESIAN_POINT ( 'NONE',  ( -19.49999999999999645, -17.50000000000000000, 0.000000000000000000 ) ) ;
#141 = DIRECTION ( 'NONE',  ( -1.000000000000000000, 0.000000000000000000, 0.000000000000000000 ) ) ;
#142 = LINE ( 'NONE', #517, #170 ) ;
#143 = VECTOR ( 'NONE', #66, 1000.000000000000000 ) ;
#144 = EDGE_CURVE ( 'NONE', #410, #67, #306, .T. ) ;
#145 = DIRECTION ( 'NONE',  ( -0.000000000000000000, -0.000000000000000000, -1.000000000000000000 ) ) ;
#146 = FACE_OUTER_BOUND ( 'NONE', #273, .T. ) ;
#147 = ADVANCED_FACE ( 'NONE', ( #474 ), #515, .T. ) ;
#148 = DIRECTION ( 'NONE',  ( 0.000000000000000000, 0.000000000000000000, 1.000000000000000000 ) ) ;
#149 = AXIS2_PLACEMENT_3D ( 'NONE', #272, #613, #141 ) ;
#150 = CARTESIAN_POINT ( 'NONE',  ( -2.000000000000000000, 0.000000000000000000, 25.00000000000000000 ) ) ;
#151 = CARTESIAN_POINT ( 'NONE',  ( 0.000000000000000000, 0.000000000000000000, 25.00000000000000000 ) ) ;
#152 = ORIENTED_EDGE ( 'NONE', *, *, #144, .T. ) ;
#153 = EDGE_CURVE ( 'NONE', #199, #163, #345, .T. ) ;
#154 = VECTOR ( 'NONE', #63, 1000.000000000000000 ) ;
#155 = DIRECTION ( 'NONE',  ( 0.000000000000000000, 0.000000000000000000, -1.000000000000000000 ) ) ;
#156 =( NAMED_UNIT ( * ) SI_UNIT ( $, .STERADIAN. ) SOLID_ANGLE_UNIT ( ) );
#157 = ORIENTED_EDGE ( 'NONE', *, *, #433, .T. ) ;
#158 = CARTESIAN_POINT ( 'NONE',  ( 14.49999999999999645, -12.50000000000000000, 5.000000000000000000 ) ) ;
#159 = EDGE_LOOP ( 'NONE', ( #116, #253 ) ) ;
#160 = CARTESIAN_POINT ( 'NONE',  ( 12.58726867790758241, -12.50000000000000000, 5.000000000000000000 ) ) ;
#161 = SURFACE_SIDE_STYLE ('',( #64 ) ) ;
#162 = EDGE_CURVE ( 'NONE', #483, #500, #439, .T. ) ;
#163 = VERTEX_POINT ( 'NONE', #201 ) ;
#164 = LINE ( 'NONE', #240, #171 ) ;
#165 = ADVANCED_FACE ( 'NONE', ( #247 ), #395, .F. ) ;
#166 = ORIENTED_EDGE ( 'NONE', *, *, #204, .T. ) ;
#167 = DIRECTION ( 'NONE',  ( -0.000000000000000000, -0.000000000000000000, -1.000000000000000000 ) ) ;
#168 = VERTEX_POINT ( 'NONE', #348 ) ;
#169 = CARTESIAN_POINT ( 'NONE',  ( 0.000000000000000000, 0.000000000000000000, 25.00000000000000000 ) ) ;
#170 = VECTOR ( 'NONE', #568, 1000.000000000000000 ) ;
#171 = VECTOR ( 'NONE', #431, 1000.000000000000000 ) ;
#172 = ORIENTED_EDGE ( 'NONE', *, *, #34, .F. ) ;
#173 = FACE_BOUND ( 'NONE', #585, .T. ) ;
#174 = ORIENTED_EDGE ( 'NONE', *, *, #315, .F. ) ;
#175 = CARTESIAN_POINT ( 'NONE',  ( -19.50000000000000000, 17.50000000000000000, 5.000000000000000000 ) ) ;
#176 = AXIS2_PLACEMENT_3D ( 'NONE', #565, #563, #465 ) ;
#177 = ORIENTED_EDGE ( 'NONE', *, *, #489, .T. ) ;
#178 = FACE_BOUND ( 'NONE', #405, .T. ) ;
#179 = ORIENTED_EDGE ( 'NONE', *, *, #162, .T. ) ;
#180 = LINE ( 'NONE', #370, #550 ) ;
#181 = CIRCLE ( 'NONE', #561, 8.000000000000001776 ) ;
#182 = DIRECTION ( 'NONE',  ( 0.000000000000000000, 0.000000000000000000, 1.000000000000000000 ) ) ;
#183 = DIRECTION ( 'NONE',  ( 1.000000000000000000, 9.912705577010325549E-17, -0.000000000000000000 ) ) ;
#184 = DIRECTION ( 'NONE',  ( 1.000000000000000000, 0.000000000000000000, 0.000000000000000000 ) ) ;
#185 = DIRECTION ( 'NONE',  ( 0.000000000000000000, 0.000000000000000000, 1.000000000000000000 ) ) ;
#186 = EDGE_CURVE ( 'NONE', #296, #594, #11, .T. ) ;
#187 = VECTOR ( 'NONE', #540, 1000.000000000000000 ) ;
#188 = FACE_OUTER_BOUND ( 'NONE', #366, .T. ) ;
#189 = DIRECTION ( 'NONE',  ( -0.000000000000000000, -0.000000000000000000, -1.000000000000000000 ) ) ;
#190 = DIRECTION ( 'NONE',  ( -0.000000000000000000, -0.000000000000000000, -1.000000000000000000 ) ) ;
#191 = CARTESIAN_POINT ( 'NONE',  ( 0.000000000000000000, 0.000000000000000000, 0.000000000000000000 ) ) ;
#192 = DIRECTION ( 'NONE',  ( 0.000000000000000000, 0.000000000000000000, 1.000000000000000000 ) ) ;
#193 = LINE ( 'NONE', #347, #266 ) ;
#194 = EDGE_CURVE ( 'NONE', #67, #410, #104, .T. ) ;
#195 = DIRECTION ( 'NONE',  ( 1.000000000000000000, 0.000000000000000000, 0.000000000000000000 ) ) ;
#196 = ORIENTED_EDGE ( 'NONE', *, *, #489, .F. ) ;
#197 = MANIFOLD_SOLID_BREP ( 'Fillet1', #434 ) ;
#198 = CARTESIAN_POINT ( 'NONE',  ( 19.49999999999999289, 17.50000000000000000, 0.000000000000000000 ) ) ;
#199 = VERTEX_POINT ( 'NONE', #294 ) ;
#200 = CARTESIAN_POINT ( 'NONE',  ( 0.000000000000000000, 0.000000000000000000, 25.00000000000000000 ) ) ;
#201 = CARTESIAN_POINT ( 'NONE',  ( 19.50000000000000355, -17.50000000000000000, 5.000000000000000000 ) ) ;
#202 = ORIENTED_EDGE ( 'NONE', *, *, #511, .T. ) ;
#203 = AXIS2_PLACEMENT_3D ( 'NONE', #514, #227, #467 ) ;
#204 = EDGE_CURVE ( 'NONE', #168, #33, #407, .T. ) ;
#205 = DIRECTION ( 'NONE',  ( 1.000000000000000000, 0.000000000000000000, 0.000000000000000000 ) ) ;
#206 = CARTESIAN_POINT ( 'NONE',  ( 0.000000000000000000, 0.000000000000000000, 25.00000000000000000 ) ) ;
#207 = EDGE_LOOP ( 'NONE', ( #27, #341 ) ) ;
#208 = EDGE_CURVE ( 'NONE', #57, #65, #527, .T. ) ;
#209 = FACE_OUTER_BOUND ( 'NONE', #451, .T. ) ;
#210 = DIRECTION ( 'NONE',  ( 1.000000000000000000, 0.000000000000000000, 0.000000000000000000 ) ) ;
#211 = ORIENTED_EDGE ( 'NONE', *, *, #322, .F. ) ;
#212 = LINE ( 'NONE', #512, #54 ) ;
#213 = AXIS2_PLACEMENT_3D ( 'NONE', #590, #450, #311 ) ;
#214 = AXIS2_PLACEMENT_3D ( 'NONE', #486, #295, #587 ) ;
#215 = ORIENTED_EDGE ( 'NONE', *, *, #444, .T. ) ;
#216 = ORIENTED_EDGE ( 'NONE', *, *, #194, .T. ) ;
#217 = CARTESIAN_POINT ( 'NONE',  ( 2.000000000000000000, 2.449293598294706414E-16, 25.00000000000000000 ) ) ;
#218 = EDGE_CURVE ( 'NONE', #483, #535, #354, .T. ) ;
#219 = CARTESIAN_POINT ( 'NONE',  ( 16.41273132209241226, -12.50000000000000000, 0.000000000000000000 ) ) ;
#220 = LINE ( 'NONE', #509, #287 ) ;
#221 = ORIENTED_EDGE ( 'NONE', *, *, #448, .T. ) ;
#222 = FACE_BOUND ( 'NONE', #159, .T. ) ;
#223 = ORIENTED_EDGE ( 'NONE', *, *, #275, .F. ) ;
#224 = DIRECTION ( 'NONE',  ( -0.000000000000000000, -0.000000000000000000, -1.000000000000000000 ) ) ;
#225 = ADVANCED_FACE ( 'NONE', ( #574 ), #30, .F. ) ;
#226 = VERTEX_POINT ( 'NONE', #105 ) ;
#227 = DIRECTION ( 'NONE',  ( 0.000000000000000000, -1.000000000000000000, 0.000000000000000000 ) ) ;
#228 = AXIS2_PLACEMENT_3D ( 'NONE', #100, #324, #419 ) ;
#229 = CARTESIAN_POINT ( 'NONE',  ( 14.49999999999999645, -12.50000000000000000, 5.000000000000000000 ) ) ;
#230 = CYLINDRICAL_SURFACE ( 'NONE', #149, 1.912731322092414254 ) ;
#231 = DIRECTION ( 'NONE',  ( -0.000000000000000000, 0.000000000000000000, 1.000000000000000000 ) ) ;
#232 = AXIS2_PLACEMENT_3D ( 'NONE', #21, #596, #499 ) ;
#233 = CARTESIAN_POINT ( 'NONE',  ( 16.41273132209241226, -12.50000000000000000, 5.000000000000000000 ) ) ;
#234 = DIRECTION ( 'NONE',  ( 1.000000000000000000, 0.000000000000000000, 0.000000000000000000 ) ) ;
#235 = CARTESIAN_POINT ( 'NONE',  ( 16.41273132209241226, 12.50000000000000000, 5.000000000000000000 ) ) ;
#236 =( NAMED_UNIT ( * ) PLANE_ANGLE_UNIT ( ) SI_UNIT ( $, .RADIAN. ) );
#237 = CARTESIAN_POINT ( 'NONE',  ( -19.50000000000000000, 17.50000000000000000, 0.000000000000000000 ) ) ;
#238 = ORIENTED_EDGE ( 'NONE', *, *, #414, .F. ) ;
#239 = CARTESIAN_POINT ( 'NONE',  ( -14.49999999999999645, -12.50000000000000000, 5.000000000000000000 ) ) ;
#240 = CARTESIAN_POINT ( 'NONE',  ( -19.49999999999999645, -17.50000000000000000, 5.000000000000000000 ) ) ;
#241 = VERTEX_POINT ( 'NONE', #480 ) ;
#242 = ORIENTED_EDGE ( 'NONE', *, *, #389, .F. ) ;
#243 =( GEOMETRIC_REPRESENTATION_CONTEXT ( 3 ) GLOBAL_UNCERTAINTY_ASSIGNED_CONTEXT ( ( #113 ) ) GLOBAL_UNIT_ASSIGNED_CONTEXT ( ( #575, #491, #156 ) ) REPRESENTATION_CONTEXT ( 'NONE', 'WORKASPACE' ) );
#244 = CARTESIAN_POINT ( 'NONE',  ( 10.00000000000000000, 0.000000000000000000, 13.00000000000000178 ) ) ;
#245 = ORIENTED_EDGE ( 'NONE', *, *, #136, .F. ) ;
#246 = CARTESIAN_POINT ( 'NONE',  ( 19.50000000000000355, -17.50000000000000000, 0.000000000000000000 ) ) ;
#247 = FACE_OUTER_BOUND ( 'NONE', #398, .T. ) ;
#248 = EDGE_CURVE ( 'NONE', #199, #84, #164, .T. ) ;
#249 = ORIENTED_EDGE ( 'NONE', *, *, #275, .T. ) ;
#250 = CIRCLE ( 'NONE', #601, 1.912731322092414254 ) ;
#251 = CARTESIAN_POINT ( 'NONE',  ( 2.000000000000000000, 2.449293598294706414E-16, 25.00000000000000000 ) ) ;
#252 = AXIS2_PLACEMENT_3D ( 'NONE', #466, #192, #525 ) ;
#253 = ORIENTED_EDGE ( 'NONE', *, *, #546, .T. ) ;
#254 = AXIS2_PLACEMENT_3D ( 'NONE', #229, #351, #545 ) ;
#255 = CARTESIAN_POINT ( 'NONE',  ( 0.000000000000000000, 0.000000000000000000, 13.00000000000000178 ) ) ;
#256 = ORIENTED_EDGE ( 'NONE', *, *, #526, .F. ) ;
#257 = ORIENTED_EDGE ( 'NONE', *, *, #87, .T. ) ;
#258 = AXIS2_PLACEMENT_3D ( 'NONE', #49, #185, #321 ) ;
#259 = LINE ( 'NONE', #353, #452 ) ;
#260 = EDGE_CURVE ( 'NONE', #135, #199, #110, .T. ) ;
#261 = CIRCLE ( 'NONE', #213, 1.912731322092414254 ) ;
#262 = ORIENTED_EDGE ( 'NONE', *, *, #315, .T. ) ;
#263 = DIRECTION ( 'NONE',  ( -0.000000000000000000, -0.000000000000000000, -1.000000000000000000 ) ) ;
#264 = VERTEX_POINT ( 'NONE', #397 ) ;
#265 = DIRECTION ( 'NONE',  ( -1.000000000000000000, 1.224646799147352714E-16, 0.000000000000000000 ) ) ;
#266 = VECTOR ( 'NONE', #9, 1000.000000000000000 ) ;
#267 = ORIENTED_EDGE ( 'NONE', *, *, #162, .F. ) ;
#268 = PRODUCT_RELATED_PRODUCT_CATEGORY ( 'part', '', ( #131 ) ) ;
#269 = CARTESIAN_POINT ( 'NONE',  ( 16.41273132209241226, 12.50000000000000000, 5.000000000000000000 ) ) ;
#270 = ORIENTED_EDGE ( 'NONE', *, *, #153, .F. ) ;
#271 = EDGE_CURVE ( 'NONE', #86, #33, #193, .T. ) ;
#272 = CARTESIAN_POINT ( 'NONE',  ( -14.49999999999999645, 12.50000000000000000, 5.000000000000000000 ) ) ;
#273 = EDGE_LOOP ( 'NONE', ( #257, #78, #242, #305 ) ) ;
#274 = CARTESIAN_POINT ( 'NONE',  ( -19.50000000000000000, 17.50000000000000000, 5.000000000000000000 ) ) ;
#275 = EDGE_CURVE ( 'NONE', #402, #483, #108, .T. ) ;
#276 = ADVANCED_FACE ( 'NONE', ( #209 ), #339, .T. ) ;
#277 = DIRECTION ( 'NONE',  ( 0.000000000000000000, 0.000000000000000000, 1.000000000000000000 ) ) ;
#278 = EDGE_CURVE ( 'NONE', #410, #68, #301, .T. ) ;
#279 = AXIS2_PLACEMENT_3D ( 'NONE', #570, #148, #285 ) ;
#280 = CARTESIAN_POINT ( 'NONE',  ( -12.58726867790758241, 12.50000000000000000, 5.000000000000000000 ) ) ;
#281 = CYLINDRICAL_SURFACE ( 'NONE', #300, 1.912731322092414254 ) ;
#282 = DIRECTION ( 'NONE',  ( -0.000000000000000000, -0.000000000000000000, -1.000000000000000000 ) ) ;
#283 = CIRCLE ( 'NONE', #382, 1.912731322092414254 ) ;
#284 = FACE_OUTER_BOUND ( 'NONE', #75, .T. ) ;
#285 = DIRECTION ( 'NONE',  ( 1.000000000000000000, 0.000000000000000000, 0.000000000000000000 ) ) ;
#286 = FACE_OUTER_BOUND ( 'NONE', #440, .T. ) ;
#287 = VECTOR ( 'NONE', #263, 1000.000000000000000 ) ;
#288 = DIRECTION ( 'NONE',  ( 0.000000000000000000, -1.000000000000000000, 0.000000000000000000 ) ) ;
#289 = ORIENTED_EDGE ( 'NONE', *, *, #194, .F. ) ;
#290 = DIRECTION ( 'NONE',  ( 1.000000000000000000, 0.000000000000000000, 0.000000000000000000 ) ) ;
#291 = ORIENTED_EDGE ( 'NONE', *, *, #303, .T. ) ;
#292 = ORIENTED_EDGE ( 'NONE', *, *, #518, .F. ) ;
#293 = CIRCLE ( 'NONE', #325, 1.912731322092414254 ) ;
#294 = CARTESIAN_POINT ( 'NONE',  ( -19.49999999999999645, -17.50000000000000000, 5.000000000000000000 ) ) ;
#295 = DIRECTION ( 'NONE',  ( 0.000000000000000000, 1.000000000000000000, 0.000000000000000000 ) ) ;
#296 = VERTEX_POINT ( 'NONE', #246 ) ;
#297 = FACE_BOUND ( 'NONE', #579, .T. ) ;
#298 = DIRECTION ( 'NONE',  ( -1.000000000000000000, 0.000000000000000000, 0.000000000000000000 ) ) ;
#299 = ORIENTED_EDGE ( 'NONE', *, *, #448, .F. ) ;
#300 = AXIS2_PLACEMENT_3D ( 'NONE', #516, #190, #41 ) ;
#301 = LINE ( 'NONE', #584, #143 ) ;
#302 = ORIENTED_EDGE ( 'NONE', *, *, #278, .F. ) ;
#303 = EDGE_CURVE ( 'NONE', #264, #343, #293, .T. ) ;
#304 = FACE_BOUND ( 'NONE', #498, .T. ) ;
#305 = ORIENTED_EDGE ( 'NONE', *, *, #330, .T. ) ;
#306 = CIRCLE ( 'NONE', #279, 1.912731322092412700 ) ;
#307 = DIRECTION ( 'NONE',  ( -0.000000000000000000, -0.000000000000000000, -1.000000000000000000 ) ) ;
#308 = VECTOR ( 'NONE', #80, 1000.000000000000000 ) ;
#309 = ORIENTED_EDGE ( 'NONE', *, *, #248, .T. ) ;
#310 = ORIENTED_EDGE ( 'NONE', *, *, #260, .F. ) ;
#311 = DIRECTION ( 'NONE',  ( 1.000000000000000000, 0.000000000000000000, 0.000000000000000000 ) ) ;
#312 = ADVANCED_FACE ( 'NONE', ( #445 ), #482, .F. ) ;
#313 = ORIENTED_EDGE ( 'NONE', *, *, #492, .F. ) ;
#314 = FACE_BOUND ( 'NONE', #207, .T. ) ;
#315 = EDGE_CURVE ( 'NONE', #337, #86, #61, .T. ) ;
#316 = FACE_OUTER_BOUND ( 'NONE', #513, .T. ) ;
#317 = DIRECTION ( 'NONE',  ( -2.973811673103097665E-16, 1.000000000000000000, -0.000000000000000000 ) ) ;
#318 = AXIS2_PLACEMENT_3D ( 'NONE', #411, #543, #28 ) ;
#319 = ORIENTED_EDGE ( 'NONE', *, *, #599, .F. ) ;
#320 = DIRECTION ( 'NONE',  ( 0.000000000000000000, 0.000000000000000000, 1.000000000000000000 ) ) ;
#321 = DIRECTION ( 'NONE',  ( 1.000000000000000000, 0.000000000000000000, 0.000000000000000000 ) ) ;
#322 = EDGE_CURVE ( 'NONE', #86, #337, #10, .T. ) ;
#323 = CYLINDRICAL_SURFACE ( 'NONE', #494, 1.912731322092414254 ) ;
#324 = DIRECTION ( 'NONE',  ( -0.000000000000000000, -0.000000000000000000, -1.000000000000000000 ) ) ;
#325 = AXIS2_PLACEMENT_3D ( 'NONE', #530, #383, #290 ) ;
#326 = PLANE ( 'NONE',  #203 ) ;
#327 = CARTESIAN_POINT ( 'NONE',  ( -12.58726867790758241, -12.50000000000000000, 0.000000000000000000 ) ) ;
#328 = CARTESIAN_POINT ( 'NONE',  ( -19.49999999999999645, -17.50000000000000000, 0.000000000000000000 ) ) ;
#329 = CARTESIAN_POINT ( 'NONE',  ( -16.41273132209241226, -12.50000000000000000, 5.000000000000000000 ) ) ;
#330 = EDGE_CURVE ( 'NONE', #226, #594, #533, .T. ) ;
#331 = CARTESIAN_POINT ( 'NONE',  ( -14.49999999999999645, 12.50000000000000000, 0.000000000000000000 ) ) ;
#332 = EDGE_CURVE ( 'NONE', #500, #483, #338, .T. ) ;
#333 = AXIS2_PLACEMENT_3D ( 'NONE', #472, #231, #609 ) ;
#334 = CARTESIAN_POINT ( 'NONE',  ( 14.49999999999999645, -12.50000000000000000, 0.000000000000000000 ) ) ;
#335 = EDGE_LOOP ( 'NONE', ( #24, #215, #122, #256 ) ) ;
#336 = DIRECTION ( 'NONE',  ( 0.000000000000000000, 0.000000000000000000, 1.000000000000000000 ) ) ;
#337 = VERTEX_POINT ( 'NONE', #160 ) ;
#338 = CIRCLE ( 'NONE', #607, 2.000000000000000000 ) ;
#339 = PLANE ( 'NONE',  #567 ) ;
#340 = ORIENTED_EDGE ( 'NONE', *, *, #376, .T. ) ;
#341 = ORIENTED_EDGE ( 'NONE', *, *, #51, .F. ) ;
#342 = DIRECTION ( 'NONE',  ( 1.000000000000000000, 0.000000000000000000, 0.000000000000000000 ) ) ;
#343 = VERTEX_POINT ( 'NONE', #344 ) ;
#344 = CARTESIAN_POINT ( 'NONE',  ( 16.41273132209241226, 12.50000000000000000, 0.000000000000000000 ) ) ;
#345 = LINE ( 'NONE', #17, #125 ) ;
#346 = EDGE_LOOP ( 'NONE', ( #262, #577, #18, #172 ) ) ;
#347 = CARTESIAN_POINT ( 'NONE',  ( 16.41273132209241226, -12.50000000000000000, 5.000000000000000000 ) ) ;
#348 = CARTESIAN_POINT ( 'NONE',  ( 12.58726867790758241, -12.50000000000000000, 0.000000000000000000 ) ) ;
#349 = ORIENTED_EDGE ( 'NONE', *, *, #559, .F. ) ;
#350 = CARTESIAN_POINT ( 'NONE',  ( -10.00000000000000000, 1.224646799147353256E-15, 13.00000000000000178 ) ) ;
#351 = DIRECTION ( 'NONE',  ( -0.000000000000000000, -0.000000000000000000, -1.000000000000000000 ) ) ;
#352 = TOROIDAL_SURFACE ( 'NONE', #333, 10.00000000000000000, 8.000000000000000000 ) ;
#353 = CARTESIAN_POINT ( 'NONE',  ( 19.49999999999999289, 17.50000000000000000, 5.000000000000000000 ) ) ;
#354 = CIRCLE ( 'NONE', #595, 8.000000000000000000 ) ;
#355 = ADVANCED_FACE ( 'NONE', ( #537, #297, #304, #173, #222 ), #365, .F. ) ;
#356 = ORIENTED_EDGE ( 'NONE', *, *, #379, .T. ) ;
#357 = ORIENTED_EDGE ( 'NONE', *, *, #360, .T. ) ;
#358 = LINE ( 'NONE', #31, #308 ) ;
#359 = ORIENTED_EDGE ( 'NONE', *, *, #99, .F. ) ;
#360 = EDGE_CURVE ( 'NONE', #135, #82, #409, .T. ) ;
#361 = CARTESIAN_POINT ( 'NONE',  ( 0.000000000000000000, 0.000000000000000000, 5.000000000000000888 ) ) ;
#362 = VECTOR ( 'NONE', #420, 1000.000000000000000 ) ;
#363 = ORIENTED_EDGE ( 'NONE', *, *, #107, .T. ) ;
#364 = PRODUCT_DEFINITION_FORMATION_WITH_SPECIFIED_SOURCE ( 'ANY', '', #131, .NOT_KNOWN. ) ;
#365 = PLANE ( 'NONE',  #74 ) ;
#366 = EDGE_LOOP ( 'NONE', ( #363, #539, #505, #313 ) ) ;
#367 = LINE ( 'NONE', #328, #16 ) ;
#368 = CIRCLE ( 'NONE', #137, 2.000000000000000000 ) ;
#369 = VECTOR ( 'NONE', #581, 1000.000000000000000 ) ;
#370 = CARTESIAN_POINT ( 'NONE',  ( 19.50000000000000355, -17.50000000000000000, 5.000000000000000000 ) ) ;
#371 = ADVANCED_FACE ( 'NONE', ( #593, #178, #83, #35, #85, #314 ), #507, .T. ) ;
#372 = CARTESIAN_POINT ( 'NONE',  ( 14.49999999999999645, 12.50000000000000000, 0.000000000000000000 ) ) ;
#373 = CYLINDRICAL_SURFACE ( 'NONE', #384, 2.000000000000000000 ) ;
#374 = DIRECTION ( 'NONE',  ( 0.000000000000000000, 0.000000000000000000, 1.000000000000000000 ) ) ;
#375 = CARTESIAN_POINT ( 'NONE',  ( 14.49999999999999645, -12.50000000000000000, 0.000000000000000000 ) ) ;
#376 = EDGE_CURVE ( 'NONE', #493, #57, #528, .T. ) ;
#377 = CYLINDRICAL_SURFACE ( 'NONE', #70, 1.912731322092414254 ) ;
#378 = CARTESIAN_POINT ( 'NONE',  ( -14.49999999999999645, 12.50000000000000000, 0.000000000000000000 ) ) ;
#379 = EDGE_CURVE ( 'NONE', #67, #106, #358, .T. ) ;
#380 = APPLICATION_PROTOCOL_DEFINITION ( 'draft international standard', 'automotive_design', 1998, #32 ) ;
#381 = LINE ( 'NONE', #237, #497 ) ;
#382 = AXIS2_PLACEMENT_3D ( 'NONE', #372, #98, #422 ) ;
#383 = DIRECTION ( 'NONE',  ( 0.000000000000000000, 0.000000000000000000, 1.000000000000000000 ) ) ;
#384 = AXIS2_PLACEMENT_3D ( 'NONE', #151, #102, #612 ) ;
#385 = DIRECTION ( 'NONE',  ( 0.000000000000000000, 0.000000000000000000, 1.000000000000000000 ) ) ;
#386 = ORIENTED_EDGE ( 'NONE', *, *, #87, .F. ) ;
#387 = FILL_AREA_STYLE_COLOUR ( '', #400 ) ;
#388 = AXIS2_PLACEMENT_3D ( 'NONE', #206, #446, #298 ) ;
#389 = EDGE_CURVE ( 'NONE', #226, #135, #598, .T. ) ;
#390 = ORIENTED_EDGE ( 'NONE', *, *, #144, .F. ) ;
#391 = DIRECTION ( 'NONE',  ( 1.000000000000000000, 0.000000000000000000, 0.000000000000000000 ) ) ;
#392 = CARTESIAN_POINT ( 'NONE',  ( 0.000000000000000000, 0.000000000000000000, 13.00000000000000178 ) ) ;
#393 = EDGE_LOOP ( 'NONE', ( #299, #249, #179, #196 ) ) ;
#394 = CIRCLE ( 'NONE', #522, 1.912731322092412700 ) ;
#395 = PLANE ( 'NONE',  #214 ) ;
#396 = ORIENTED_EDGE ( 'NONE', *, *, #260, .T. ) ;
#397 = CARTESIAN_POINT ( 'NONE',  ( 12.58726867790758241, 12.50000000000000000, 0.000000000000000000 ) ) ;
#398 = EDGE_LOOP ( 'NONE', ( #454, #245, #270, #309 ) ) ;
#399 = VECTOR ( 'NONE', #307, 1000.000000000000000 ) ;
#400 = COLOUR_RGB ( '',0.7921568627450980005, 0.8196078431372548767, 0.9333333333333333481 ) ;
#401 = DIRECTION ( 'NONE',  ( -0.000000000000000000, 0.000000000000000000, 1.000000000000000000 ) ) ;
#402 = VERTEX_POINT ( 'NONE', #217 ) ;
#403 = ORIENTED_EDGE ( 'NONE', *, *, #332, .F. ) ;
#404 = DIRECTION ( 'NONE',  ( -0.000000000000000000, 0.000000000000000000, 1.000000000000000000 ) ) ;
#405 = EDGE_LOOP ( 'NONE', ( #289, #390 ) ) ;
#406 = CARTESIAN_POINT ( 'NONE',  ( -2.000000000000000000, 0.000000000000000000, 13.00000000000000178 ) ) ;
#407 = CIRCLE ( 'NONE', #436, 1.912731322092414254 ) ;
#408 = ORIENTED_EDGE ( 'NONE', *, *, #136, .T. ) ;
#409 = LINE ( 'NONE', #503, #418 ) ;
#410 = VERTEX_POINT ( 'NONE', #558 ) ;
#411 = CARTESIAN_POINT ( 'NONE',  ( 0.000000000000000000, 0.000000000000000000, 25.00000000000000000 ) ) ;
#412 = EDGE_LOOP ( 'NONE', ( #216, #62, #359, #481 ) ) ;
#413 =( NAMED_UNIT ( * ) SI_UNIT ( $, .STERADIAN. ) SOLID_ANGLE_UNIT ( ) );
#414 = EDGE_CURVE ( 'NONE', #535, #241, #23, .T. ) ;
#415 = EDGE_LOOP ( 'NONE', ( #592, #551, #582, #408 ) ) ;
#416 = CARTESIAN_POINT ( 'NONE',  ( 0.000000000000000000, 0.000000000000000000, 5.000000000000000888 ) ) ;
#417 = AXIS2_PLACEMENT_3D ( 'NONE', #95, #282, #606 ) ;
#418 = VECTOR ( 'NONE', #224, 1000.000000000000000 ) ;
#419 = DIRECTION ( 'NONE',  ( -1.000000000000000000, 0.000000000000000000, 0.000000000000000000 ) ) ;
#420 = DIRECTION ( 'NONE',  ( -0.000000000000000000, -0.000000000000000000, -1.000000000000000000 ) ) ;
#421 = FACE_OUTER_BOUND ( 'NONE', #393, .T. ) ;
#422 = DIRECTION ( 'NONE',  ( 1.000000000000000000, 0.000000000000000000, 0.000000000000000000 ) ) ;
#423 = PRODUCT_DEFINITION ( 'UNKNOWN', '', #364, #457 ) ;
#424 = PRODUCT_CONTEXT ( 'NONE', #615, 'mechanical' ) ;
#425 = CARTESIAN_POINT ( 'NONE',  ( 12.58726867790758241, 12.50000000000000000, 5.000000000000000000 ) ) ;
#426 = EDGE_CURVE ( 'NONE', #508, #402, #368, .T. ) ;
#427 = DIRECTION ( 'NONE',  ( 9.912705577010325549E-17, -1.000000000000000000, 0.000000000000000000 ) ) ;
#428 = CARTESIAN_POINT ( 'NONE',  ( -16.41273132209241226, -12.50000000000000000, 0.000000000000000000 ) ) ;
#429 = ORIENTED_EDGE ( 'NONE', *, *, #208, .T. ) ;
#430 = SURFACE_STYLE_USAGE ( .BOTH. , #161 ) ;
#431 = DIRECTION ( 'NONE',  ( -0.000000000000000000, -0.000000000000000000, -1.000000000000000000 ) ) ;
#432 = EDGE_LOOP ( 'NONE', ( #58, #542 ) ) ;
#433 = EDGE_CURVE ( 'NONE', #163, #226, #259, .T. ) ;
#434 = CLOSED_SHELL ( 'NONE', ( #53, #96, #81, #117, #534, #610, #371, #355, #42, #165, #556, #602, #22, #312, #59, #591, #147, #276, #225 ) ) ;
#435 = VERTEX_POINT ( 'NONE', #132 ) ;
#436 = AXIS2_PLACEMENT_3D ( 'NONE', #334, #118, #195 ) ;
#437 = DIRECTION ( 'NONE',  ( -1.000000000000000000, 0.000000000000000000, 0.000000000000000000 ) ) ;
#438 = DIRECTION ( 'NONE',  ( -0.000000000000000000, 0.000000000000000000, 1.000000000000000000 ) ) ;
#439 = CIRCLE ( 'NONE', #468, 2.000000000000000000 ) ;
#440 = EDGE_LOOP ( 'NONE', ( #202, #120, #310, #357 ) ) ;
#441 = CARTESIAN_POINT ( 'NONE',  ( 0.000000000000000000, 0.000000000000000000, 13.00000000000000178 ) ) ;
#442 = ORIENTED_EDGE ( 'NONE', *, *, #186, .F. ) ;
#443 = AXIS2_PLACEMENT_3D ( 'NONE', #139, #320, #3 ) ;
#444 = EDGE_CURVE ( 'NONE', #126, #127, #261, .T. ) ;
#445 = FACE_OUTER_BOUND ( 'NONE', #335, .T. ) ;
#446 = DIRECTION ( 'NONE',  ( -0.000000000000000000, -0.000000000000000000, -1.000000000000000000 ) ) ;
#447 = ORIENTED_EDGE ( 'NONE', *, *, #34, .T. ) ;
#448 = EDGE_CURVE ( 'NONE', #402, #508, #103, .T. ) ;
#449 = ORIENTED_EDGE ( 'NONE', *, *, #444, .F. ) ;
#450 = DIRECTION ( 'NONE',  ( 0.000000000000000000, 0.000000000000000000, 1.000000000000000000 ) ) ;
#451 = EDGE_LOOP ( 'NONE', ( #36, #221 ) ) ;
#452 = VECTOR ( 'NONE', #317, 1000.000000000000000 ) ;
#453 = CARTESIAN_POINT ( 'NONE',  ( 2.000000000000000000, 2.449293598294706414E-16, 13.00000000000000178 ) ) ;
#454 = ORIENTED_EDGE ( 'NONE', *, *, #538, .T. ) ;
#455 = DIRECTION ( 'NONE',  ( 1.224646799147353207E-16, 1.000000000000000000, 0.000000000000000000 ) ) ;
#456 = ORIENTED_EDGE ( 'NONE', *, *, #583, .F. ) ;
#457 = PRODUCT_DEFINITION_CONTEXT ( 'detailed design', #32, 'design' ) ;
#458 = CARTESIAN_POINT ( 'NONE',  ( -16.41273132209241226, 12.50000000000000000, 5.000000000000000000 ) ) ;
#459 = AXIS2_PLACEMENT_3D ( 'NONE', #255, #580, #586 ) ;
#460 = EDGE_LOOP ( 'NONE', ( #553, #449 ) ) ;
#461 = DIRECTION ( 'NONE',  ( 1.000000000000000000, 0.000000000000000000, 0.000000000000000000 ) ) ;
#462 = ORIENTED_EDGE ( 'NONE', *, *, #426, .F. ) ;
#463 = CARTESIAN_POINT ( 'NONE',  ( 10.00000000000000000, 0.000000000000000000, 5.000000000000000888 ) ) ;
#464 = CYLINDRICAL_SURFACE ( 'NONE', #254, 1.912731322092414254 ) ;
#465 = DIRECTION ( 'NONE',  ( 2.973811673103097665E-16, -1.000000000000000000, 0.000000000000000000 ) ) ;
#466 = CARTESIAN_POINT ( 'NONE',  ( -14.49999999999999645, 12.50000000000000000, 5.000000000000000000 ) ) ;
#467 = DIRECTION ( 'NONE',  ( 0.000000000000000000, -0.000000000000000000, -1.000000000000000000 ) ) ;
#468 = AXIS2_PLACEMENT_3D ( 'NONE', #392, #438, #210 ) ;
#469 = FACE_OUTER_BOUND ( 'NONE', #25, .T. ) ;
#470 = AXIS2_PLACEMENT_3D ( 'NONE', #416, #94, #608 ) ;
#471 = EDGE_CURVE ( 'NONE', #493, #435, #212, .T. ) ;
#472 = CARTESIAN_POINT ( 'NONE',  ( 0.000000000000000000, 0.000000000000000000, 13.00000000000000178 ) ) ;
#473 = FACE_OUTER_BOUND ( 'NONE', #346, .T. ) ;
#474 = FACE_OUTER_BOUND ( 'NONE', #76, .T. ) ;
#475 = ADVANCED_BREP_SHAPE_REPRESENTATION ( 'P001-B109_WindingPlateAttachment', ( #197, #611 ), #555 ) ;
#476 = AXIS2_PLACEMENT_3D ( 'NONE', #158, #115, #342 ) ;
#477 = DIRECTION ( 'NONE',  ( 1.000000000000000000, 0.000000000000000000, 0.000000000000000000 ) ) ;
#478 = CARTESIAN_POINT ( 'NONE',  ( 14.49999999999999645, 12.50000000000000000, 5.000000000000000000 ) ) ;
#479 = EDGE_CURVE ( 'NONE', #500, #241, #181, .T. ) ;
#480 = CARTESIAN_POINT ( 'NONE',  ( -10.00000000000000000, 1.224646799147353256E-15, 5.000000000000000888 ) ) ;
#481 = ORIENTED_EDGE ( 'NONE', *, *, #379, .F. ) ;
#482 = CYLINDRICAL_SURFACE ( 'NONE', #614, 1.912731322092414254 ) ;
#483 = VERTEX_POINT ( 'NONE', #453 ) ;
#484 = VECTOR ( 'NONE', #5, 1000.000000000000000 ) ;
#485 = CARTESIAN_POINT ( 'NONE',  ( 19.49999999999999289, 17.50000000000000000, 5.000000000000000000 ) ) ;
#486 = CARTESIAN_POINT ( 'NONE',  ( -19.49999999999999645, -17.50000000000000000, 5.000000000000000000 ) ) ;
#487 = UNCERTAINTY_MEASURE_WITH_UNIT (LENGTH_MEASURE( 1.000000000000000082E-05 ), #519, 'distance_accuracy_value', 'NONE');
#488 = ORIENTED_EDGE ( 'NONE', *, *, #322, .T. ) ;
#489 = EDGE_CURVE ( 'NONE', #508, #500, #547, .T. ) ;
#490 = DIRECTION ( 'NONE',  ( -0.000000000000000000, -0.000000000000000000, -1.000000000000000000 ) ) ;
#491 =( NAMED_UNIT ( * ) PLANE_ANGLE_UNIT ( ) SI_UNIT ( $, .RADIAN. ) );
#492 = EDGE_CURVE ( 'NONE', #127, #264, #220, .T. ) ;
#493 = VERTEX_POINT ( 'NONE', #458 ) ;
#494 = AXIS2_PLACEMENT_3D ( 'NONE', #569, #45, #50 ) ;
#495 = DIRECTION ( 'NONE',  ( -0.000000000000000000, -0.000000000000000000, -1.000000000000000000 ) ) ;
#496 = DIRECTION ( 'NONE',  ( 1.000000000000000000, 0.000000000000000000, 0.000000000000000000 ) ) ;
#497 = VECTOR ( 'NONE', #89, 1000.000000000000000 ) ;
#498 = EDGE_LOOP ( 'NONE', ( #291, #600 ) ) ;
#499 = DIRECTION ( 'NONE',  ( 1.000000000000000000, 0.000000000000000000, 0.000000000000000000 ) ) ;
#500 = VERTEX_POINT ( 'NONE', #406 ) ;
#501 = AXIS2_PLACEMENT_3D ( 'NONE', #478, #374, #55 ) ;
#502 = VECTOR ( 'NONE', #26, 1000.000000000000000 ) ;
#503 = CARTESIAN_POINT ( 'NONE',  ( -19.50000000000000000, 17.50000000000000000, 5.000000000000000000 ) ) ;
#504 = EDGE_CURVE ( 'NONE', #126, #343, #554, .T. ) ;
#505 = ORIENTED_EDGE ( 'NONE', *, *, #303, .F. ) ;
#506 = ORIENTED_EDGE ( 'NONE', *, *, #471, .T. ) ;
#507 = PLANE ( 'NONE',  #578 ) ;
#508 = VERTEX_POINT ( 'NONE', #150 ) ;
#509 = CARTESIAN_POINT ( 'NONE',  ( 12.58726867790758241, 12.50000000000000000, 5.000000000000000000 ) ) ;
#510 = EDGE_LOOP ( 'NONE', ( #403, #604, #238, #529 ) ) ;
#511 = EDGE_CURVE ( 'NONE', #82, #84, #88, .T. ) ;
#512 = CARTESIAN_POINT ( 'NONE',  ( -16.41273132209241226, 12.50000000000000000, 5.000000000000000000 ) ) ;
#513 = EDGE_LOOP ( 'NONE', ( #597, #488, #447, #456 ) ) ;
#514 = CARTESIAN_POINT ( 'NONE',  ( -19.50000000000000000, 17.50000000000000000, 5.000000000000000000 ) ) ;
#515 = CYLINDRICAL_SURFACE ( 'NONE', #388, 2.000000000000000000 ) ;
#516 = CARTESIAN_POINT ( 'NONE',  ( 14.49999999999999645, 12.50000000000000000, 5.000000000000000000 ) ) ;
#517 = CARTESIAN_POINT ( 'NONE',  ( 12.58726867790758241, -12.50000000000000000, 5.000000000000000000 ) ) ;
#518 = EDGE_CURVE ( 'NONE', #68, #106, #47, .T. ) ;
#519 =( LENGTH_UNIT ( ) NAMED_UNIT ( * ) SI_UNIT ( .MILLI., .METRE. ) );
#520 = CYLINDRICAL_SURFACE ( 'NONE', #417, 1.912731322092414254 ) ;
#521 = DIRECTION ( 'NONE',  ( 1.000000000000000000, 0.000000000000000000, 0.000000000000000000 ) ) ;
#522 = AXIS2_PLACEMENT_3D ( 'NONE', #331, #277, #234 ) ;
#523 = FACE_OUTER_BOUND ( 'NONE', #412, .T. ) ;
#524 = CARTESIAN_POINT ( 'NONE',  ( -19.50000000000000000, 17.50000000000000000, 0.000000000000000000 ) ) ;
#525 = DIRECTION ( 'NONE',  ( 1.000000000000000000, 0.000000000000000000, 0.000000000000000000 ) ) ;
#526 = EDGE_CURVE ( 'NONE', #343, #264, #283, .T. ) ;
#527 = LINE ( 'NONE', #56, #90 ) ;
#528 = CIRCLE ( 'NONE', #232, 1.912731322092412700 ) ;
#529 = ORIENTED_EDGE ( 'NONE', *, *, #218, .F. ) ;
#530 = CARTESIAN_POINT ( 'NONE',  ( 14.49999999999999645, 12.50000000000000000, 0.000000000000000000 ) ) ;
#531 = FILL_AREA_STYLE ('',( #387 ) ) ;
#532 = ORIENTED_EDGE ( 'NONE', *, *, #511, .F. ) ;
#533 = LINE ( 'NONE', #485, #154 ) ;
#534 = ADVANCED_FACE ( 'NONE', ( #188 ), #281, .F. ) ;
#535 = VERTEX_POINT ( 'NONE', #463 ) ;
#536 = AXIS2_PLACEMENT_3D ( 'NONE', #13, #69, #391 ) ;
#537 = FACE_OUTER_BOUND ( 'NONE', #130, .T. ) ;
#538 = EDGE_CURVE ( 'NONE', #84, #296, #367, .T. ) ;
#539 = ORIENTED_EDGE ( 'NONE', *, *, #504, .T. ) ;
#540 = DIRECTION ( 'NONE',  ( -0.000000000000000000, -0.000000000000000000, -1.000000000000000000 ) ) ;
#541 = CARTESIAN_POINT ( 'NONE',  ( -14.49999999999999645, -12.50000000000000000, 5.000000000000000000 ) ) ;
#542 = ORIENTED_EDGE ( 'NONE', *, *, #599, .T. ) ;
#543 = DIRECTION ( 'NONE',  ( 0.000000000000000000, 0.000000000000000000, 1.000000000000000000 ) ) ;
#544 = AXIS2_PLACEMENT_3D ( 'NONE', #274, #183, #92 ) ;
#545 = DIRECTION ( 'NONE',  ( -1.000000000000000000, 0.000000000000000000, 0.000000000000000000 ) ) ;
#546 = EDGE_CURVE ( 'NONE', #65, #435, #37, .T. ) ;
#547 = LINE ( 'NONE', #124, #399 ) ;
#548 = PRODUCT_DEFINITION_SHAPE ( 'NONE', 'NONE',  #423 ) ;
#549 = EDGE_LOOP ( 'NONE', ( #302, #152, #356, #292 ) ) ;
#550 = VECTOR ( 'NONE', #189, 1000.000000000000000 ) ;
#551 = ORIENTED_EDGE ( 'NONE', *, *, #330, .F. ) ;
#552 = DIRECTION ( 'NONE',  ( 0.000000000000000000, -0.000000000000000000, -1.000000000000000000 ) ) ;
#553 = ORIENTED_EDGE ( 'NONE', *, *, #107, .F. ) ;
#554 = LINE ( 'NONE', #269, #362 ) ;
#555 =( GEOMETRIC_REPRESENTATION_CONTEXT ( 3 ) GLOBAL_UNCERTAINTY_ASSIGNED_CONTEXT ( ( #487 ) ) GLOBAL_UNIT_ASSIGNED_CONTEXT ( ( #519, #236, #413 ) ) REPRESENTATION_CONTEXT ( 'NONE', 'WORKASPACE' ) );
#556 = ADVANCED_FACE ( 'NONE', ( #571 ), #605, .F. ) ;
#557 = ORIENTED_EDGE ( 'NONE', *, *, #389, .T. ) ;
#558 = CARTESIAN_POINT ( 'NONE',  ( -12.58726867790758241, -12.50000000000000000, 5.000000000000000000 ) ) ;
#559 = EDGE_CURVE ( 'NONE', #435, #65, #394, .T. ) ;
#560 = ORIENTED_EDGE ( 'NONE', *, *, #583, .T. ) ;
#561 = AXIS2_PLACEMENT_3D ( 'NONE', #350, #455, #265 ) ;
#562 = AXIS2_PLACEMENT_3D ( 'NONE', #541, #119, #496 ) ;
#563 = DIRECTION ( 'NONE',  ( -1.000000000000000000, -2.973811673103097665E-16, 0.000000000000000000 ) ) ;
#564 = FACE_OUTER_BOUND ( 'NONE', #510, .T. ) ;
#565 = CARTESIAN_POINT ( 'NONE',  ( 19.49999999999999289, 17.50000000000000000, 5.000000000000000000 ) ) ;
#566 = CARTESIAN_POINT ( 'NONE',  ( -12.58726867790758241, 12.50000000000000000, 0.000000000000000000 ) ) ;
#567 = AXIS2_PLACEMENT_3D ( 'NONE', #200, #385, #19 ) ;
#568 = DIRECTION ( 'NONE',  ( -0.000000000000000000, -0.000000000000000000, -1.000000000000000000 ) ) ;
#569 = CARTESIAN_POINT ( 'NONE',  ( 14.49999999999999645, -12.50000000000000000, 5.000000000000000000 ) ) ;
#570 = CARTESIAN_POINT ( 'NONE',  ( -14.49999999999999645, -12.50000000000000000, 5.000000000000000000 ) ) ;
#571 = FACE_OUTER_BOUND ( 'NONE', #415, .T. ) ;
#572 = VECTOR ( 'NONE', #427, 1000.000000000000000 ) ;
#573 = DIRECTION ( 'NONE',  ( -1.000000000000000000, 0.000000000000000000, 0.000000000000000000 ) ) ;
#574 = FACE_OUTER_BOUND ( 'NONE', #123, .T. ) ;
#575 =( LENGTH_UNIT ( ) NAMED_UNIT ( * ) SI_UNIT ( .MILLI., .METRE. ) );
#576 = CARTESIAN_POINT ( 'NONE',  ( -19.50000000000000000, 17.50000000000000000, 5.000000000000000000 ) ) ;
#577 = ORIENTED_EDGE ( 'NONE', *, *, #271, .T. ) ;
#578 = AXIS2_PLACEMENT_3D ( 'NONE', #73, #401, #77 ) ;
#579 = EDGE_LOOP ( 'NONE', ( #166, #560 ) ) ;
#580 = DIRECTION ( 'NONE',  ( -0.000000000000000000, 0.000000000000000000, 1.000000000000000000 ) ) ;
#581 = DIRECTION ( 'NONE',  ( -2.973811673103097665E-16, 1.000000000000000000, -0.000000000000000000 ) ) ;
#582 = ORIENTED_EDGE ( 'NONE', *, *, #433, .F. ) ;
#583 = EDGE_CURVE ( 'NONE', #33, #168, #250, .T. ) ;
#584 = CARTESIAN_POINT ( 'NONE',  ( -12.58726867790758419, -12.50000000000000000, 5.000000000000000000 ) ) ;
#585 = EDGE_LOOP ( 'NONE', ( #114, #133 ) ) ;
#586 = DIRECTION ( 'NONE',  ( 1.000000000000000000, 0.000000000000000000, 0.000000000000000000 ) ) ;
#587 = DIRECTION ( 'NONE',  ( 0.000000000000000000, -0.000000000000000000, 1.000000000000000000 ) ) ;
#588 = PRESENTATION_LAYER_ASSIGNMENT (  '', '', ( #138 ) ) ;
#589 = EDGE_LOOP ( 'NONE', ( #174, #211 ) ) ;
#590 = CARTESIAN_POINT ( 'NONE',  ( 14.49999999999999645, 12.50000000000000000, 5.000000000000000000 ) ) ;
#591 = ADVANCED_FACE ( 'NONE', ( #284 ), #230, .F. ) ;
#592 = ORIENTED_EDGE ( 'NONE', *, *, #186, .T. ) ;
#593 = FACE_BOUND ( 'NONE', #432, .T. ) ;
#594 = VERTEX_POINT ( 'NONE', #38 ) ;
#595 = AXIS2_PLACEMENT_3D ( 'NONE', #244, #288, #155 ) ;
#596 = DIRECTION ( 'NONE',  ( 0.000000000000000000, 0.000000000000000000, 1.000000000000000000 ) ) ;
#597 = ORIENTED_EDGE ( 'NONE', *, *, #271, .F. ) ;
#598 = LINE ( 'NONE', #175, #502 ) ;
#599 = EDGE_CURVE ( 'NONE', #241, #535, #129, .T. ) ;
#600 = ORIENTED_EDGE ( 'NONE', *, *, #526, .T. ) ;
#601 = AXIS2_PLACEMENT_3D ( 'NONE', #375, #182, #521 ) ;
#602 = ADVANCED_FACE ( 'NONE', ( #146 ), #326, .F. ) ;
#603 = DIRECTION ( 'NONE',  ( 1.000000000000000000, 0.000000000000000000, 0.000000000000000000 ) ) ;
#604 = ORIENTED_EDGE ( 'NONE', *, *, #479, .T. ) ;
#605 = PLANE ( 'NONE',  #176 ) ;
#606 = DIRECTION ( 'NONE',  ( -1.000000000000000000, 0.000000000000000000, 0.000000000000000000 ) ) ;
#607 = AXIS2_PLACEMENT_3D ( 'NONE', #441, #15, #205 ) ;
#608 = DIRECTION ( 'NONE',  ( 1.000000000000000000, 0.000000000000000000, 0.000000000000000000 ) ) ;
#609 = DIRECTION ( 'NONE',  ( 1.000000000000000000, 0.000000000000000000, 0.000000000000000000 ) ) ;
#610 = ADVANCED_FACE ( 'NONE', ( #473 ), #323, .F. ) ;
#611 = AXIS2_PLACEMENT_3D ( 'NONE', #191, #336, #477 ) ;
#612 = DIRECTION ( 'NONE',  ( -1.000000000000000000, 0.000000000000000000, 0.000000000000000000 ) ) ;
#613 = DIRECTION ( 'NONE',  ( -0.000000000000000000, -0.000000000000000000, -1.000000000000000000 ) ) ;
#614 = AXIS2_PLACEMENT_3D ( 'NONE', #60, #495, #437 ) ;
#615 = APPLICATION_CONTEXT ( 'automotive_design' ) ;
ENDSEC;
END-ISO-10303-21;
