ISO-10303-21;
HEADER;
FILE_DESCRIPTION (( 'STEP AP214' ),
    '1' );
FILE_NAME ('P001-B118_SpoolWasher-1.STEP',
    '2026-04-25T01:17:55',
    ( '' ),
    ( '' ),
    'SwSTEP 2.0',
    'SolidWorks 2024',
    '' );
FILE_SCHEMA (( 'AUTOMOTIVE_DESIGN' ));
ENDSEC;

DATA;
#1 = DIRECTION ( 'NONE',  ( -1.000000000000000000, 0.000000000000000000, 0.000000000000000000 ) ) ;
#2 = CARTESIAN_POINT ( 'NONE',  ( 38.00000000000000711, 8.599999999999997868, -4.965212315030779422 ) ) ;
#3 = SHAPE_DEFINITION_REPRESENTATION ( #153, #63 ) ;
#4 =( NAMED_UNIT ( * ) SI_UNIT ( $, .STERADIAN. ) SOLID_ANGLE_UNIT ( ) );
#5 = VECTOR ( 'NONE', #207, 1000.000000000000227 ) ;
#6 = EDGE_CURVE ( 'NONE', #375, #341, #232, .T. ) ;
#7 = APPLICATION_PROTOCOL_DEFINITION ( 'draft international standard', 'automotive_design', 1998, #334 ) ;
#8 = LINE ( 'NONE', #129, #333 ) ;
#9 = EDGE_LOOP ( 'NONE', ( #20 ) ) ;
#10 = VECTOR ( 'NONE', #65, 1000.000000000000000 ) ;
#11 = EDGE_CURVE ( 'NONE', #163, #108, #344, .T. ) ;
#12 = EDGE_CURVE ( 'NONE', #127, #127, #87, .T. ) ;
#13 = EDGE_CURVE ( 'NONE', #187, #323, #170, .T. ) ;
#14 = VECTOR ( 'NONE', #350, 1000.000000000000227 ) ;
#15 = AXIS2_PLACEMENT_3D ( 'NONE', #176, #181, #302 ) ;
#16 = DIRECTION ( 'NONE',  ( 0.000000000000000000, 0.000000000000000000, 1.000000000000000000 ) ) ;
#17 = EDGE_LOOP ( 'NONE', ( #262, #211, #197, #71 ) ) ;
#18 = DIRECTION ( 'NONE',  ( 0.000000000000000000, 0.000000000000000000, -1.000000000000000000 ) ) ;
#19 = ORIENTED_EDGE ( 'NONE', *, *, #64, .F. ) ;
#20 = ORIENTED_EDGE ( 'NONE', *, *, #56, .F. ) ;
#21 = ADVANCED_FACE ( 'NONE', ( #120 ), #275, .F. ) ;
#22 = FACE_BOUND ( 'NONE', #75, .T. ) ;
#23 = EDGE_LOOP ( 'NONE', ( #51, #203, #49, #30 ) ) ;
#24 = AXIS2_PLACEMENT_3D ( 'NONE', #118, #243, #358 ) ;
#25 = ORIENTED_EDGE ( 'NONE', *, *, #74, .T. ) ;
#26 = EDGE_CURVE ( 'NONE', #375, #278, #218, .T. ) ;
#27 = ORIENTED_EDGE ( 'NONE', *, *, #192, .F. ) ;
#28 = CARTESIAN_POINT ( 'NONE',  ( 4.000000000000000000, -8.599999999999996092, -4.965212315030782086 ) ) ;
#29 = EDGE_LOOP ( 'NONE', ( #166 ) ) ;
#30 = ORIENTED_EDGE ( 'NONE', *, *, #279, .T. ) ;
#31 = AXIS2_PLACEMENT_3D ( 'NONE', #374, #371, #288 ) ;
#32 = LINE ( 'NONE', #268, #47 ) ;
#33 = PLANE ( 'NONE',  #160 ) ;
#34 = CARTESIAN_POINT ( 'NONE',  ( 5.000000000000000000, 0.000000000000000000, -21.00000000000002487 ) ) ;
#35 = VECTOR ( 'NONE', #86, 1000.000000000000000 ) ;
#36 = CARTESIAN_POINT ( 'NONE',  ( 38.00000000000000711, -8.599999999999996092, 4.965212315030780310 ) ) ;
#37 = FACE_BOUND ( 'NONE', #54, .T. ) ;
#38 = LINE ( 'NONE', #36, #385 ) ;
#39 = PLANE ( 'NONE',  #53 ) ;
#40 = ADVANCED_FACE ( 'NONE', ( #307, #37 ), #33, .T. ) ;
#41 =( GEOMETRIC_REPRESENTATION_CONTEXT ( 3 ) GLOBAL_UNCERTAINTY_ASSIGNED_CONTEXT ( ( #381 ) ) GLOBAL_UNIT_ASSIGNED_CONTEXT ( ( #270, #305, #4 ) ) REPRESENTATION_CONTEXT ( 'NONE', 'WORKASPACE' ) );
#42 = ORIENTED_EDGE ( 'NONE', *, *, #107, .T. ) ;
#43 = ORIENTED_EDGE ( 'NONE', *, *, #13, .F. ) ;
#44 = LINE ( 'NONE', #314, #315 ) ;
#45 = ORIENTED_EDGE ( 'NONE', *, *, #325, .F. ) ;
#46 = VECTOR ( 'NONE', #79, 1000.000000000000000 ) ;
#47 = VECTOR ( 'NONE', #387, 1000.000000000000227 ) ;
#48 = DIRECTION ( 'NONE',  ( 0.000000000000000000, -0.8660254037844385966, -0.5000000000000000000 ) ) ;
#49 = ORIENTED_EDGE ( 'NONE', *, *, #263, .F. ) ;
#50 = CARTESIAN_POINT ( 'NONE',  ( 4.000000000000000000, -8.599999999999996092, 4.965212315030780310 ) ) ;
#51 = ORIENTED_EDGE ( 'NONE', *, *, #295, .T. ) ;
#52 = ORIENTED_EDGE ( 'NONE', *, *, #311, .F. ) ;
#53 = AXIS2_PLACEMENT_3D ( 'NONE', #320, #138, #167 ) ;
#54 = EDGE_LOOP ( 'NONE', ( #45, #245, #148, #193, #82, #172 ) ) ;
#55 = PRODUCT_DEFINITION_CONTEXT ( 'detailed design', #128, 'design' ) ;
#56 = EDGE_CURVE ( 'NONE', #273, #273, #377, .T. ) ;
#57 = ORIENTED_EDGE ( 'NONE', *, *, #309, .F. ) ;
#58 = CARTESIAN_POINT ( 'NONE',  ( 4.000000000000000000, 8.599999999999997868, -4.965212315030779422 ) ) ;
#59 = DIRECTION ( 'NONE',  ( 1.000000000000000000, 0.000000000000000000, 0.000000000000000000 ) ) ;
#60 = SURFACE_STYLE_FILL_AREA ( #329 ) ;
#61 = CARTESIAN_POINT ( 'NONE',  ( 5.000000000000000000, 0.000000000000000000, -12.62500000000000000 ) ) ;
#62 = DIRECTION ( 'NONE',  ( 0.000000000000000000, -1.000000000000000000, 1.746877440392046629E-16 ) ) ;
#63 = ADVANCED_BREP_SHAPE_REPRESENTATION ( 'P001-B118_SpoolWasher-1', ( #92, #332 ), #239 ) ;
#64 = EDGE_CURVE ( 'NONE', #336, #336, #101, .T. ) ;
#65 = DIRECTION ( 'NONE',  ( -1.000000000000000000, -0.000000000000000000, -0.000000000000000000 ) ) ;
#66 = PRESENTATION_LAYER_ASSIGNMENT (  '', '', ( #183 ) ) ;
#67 =( LENGTH_UNIT ( ) NAMED_UNIT ( * ) SI_UNIT ( .MILLI., .METRE. ) );
#68 = DIRECTION ( 'NONE',  ( -1.000000000000000000, -0.000000000000000000, -0.000000000000000000 ) ) ;
#69 = VECTOR ( 'NONE', #247, 1000.000000000000000 ) ;
#70 = EDGE_CURVE ( 'NONE', #278, #298, #246, .T. ) ;
#71 = ORIENTED_EDGE ( 'NONE', *, *, #154, .T. ) ;
#72 = ADVANCED_FACE ( 'NONE', ( #241 ), #356, .F. ) ;
#73 = CYLINDRICAL_SURFACE ( 'NONE', #155, 21.50000000000000000 ) ;
#74 = EDGE_CURVE ( 'NONE', #341, #85, #32, .T. ) ;
#75 = EDGE_LOOP ( 'NONE', ( #258 ) ) ;
#76 = PRODUCT ( 'P001-B118_SpoolWasher-1', 'P001-B118_SpoolWasher-1', '', ( #93 ) ) ;
#77 = VECTOR ( 'NONE', #322, 1000.000000000000000 ) ;
#78 = CARTESIAN_POINT ( 'NONE',  ( 38.00000000000000711, 0.000000000000000000, 0.000000000000000000 ) ) ;
#79 = DIRECTION ( 'NONE',  ( 0.000000000000000000, 0.000000000000000000, -1.000000000000000000 ) ) ;
#80 = LINE ( 'NONE', #357, #77 ) ;
#81 = FACE_OUTER_BOUND ( 'NONE', #256, .T. ) ;
#82 = ORIENTED_EDGE ( 'NONE', *, *, #70, .F. ) ;
#83 = EDGE_CURVE ( 'NONE', #217, #217, #102, .T. ) ;
#84 = CARTESIAN_POINT ( 'NONE',  ( 38.00000000000000711, 3.469446951953614189E-15, 9.930424630061562397 ) ) ;
#85 = VERTEX_POINT ( 'NONE', #303 ) ;
#86 = DIRECTION ( 'NONE',  ( 0.000000000000000000, 0.8660254037844388186, 0.4999999999999996669 ) ) ;
#87 = CIRCLE ( 'NONE', #343, 21.50000000000000000 ) ;
#88 = LINE ( 'NONE', #141, #95 ) ;
#89 = DIRECTION ( 'NONE',  ( 0.000000000000000000, -0.5000000000000002220, -0.8660254037844385966 ) ) ;
#90 = CARTESIAN_POINT ( 'NONE',  ( 4.000000000000000000, -5.204170427930421283E-15, -9.930424630061558844 ) ) ;
#91 = PLANE ( 'NONE',  #121 ) ;
#92 = MANIFOLD_SOLID_BREP ( 'Chamfer1', #291 ) ;
#93 = PRODUCT_CONTEXT ( 'NONE', #334, 'mechanical' ) ;
#94 = DIRECTION ( 'NONE',  ( 0.000000000000000000, 0.000000000000000000, -1.000000000000000000 ) ) ;
#95 = VECTOR ( 'NONE', #240, 1000.000000000000000 ) ;
#96 = CARTESIAN_POINT ( 'NONE',  ( 38.00000000000000711, 8.599999999999997868, -4.965212315030779422 ) ) ;
#97 = PLANE ( 'NONE',  #266 ) ;
#98 = ORIENTED_EDGE ( 'NONE', *, *, #209, .T. ) ;
#99 = ADVANCED_FACE ( 'NONE', ( #363, #124 ), #91, .T. ) ;
#100 = ORIENTED_EDGE ( 'NONE', *, *, #12, .F. ) ;
#101 = CIRCLE ( 'NONE', #15, 21.00000000000002487 ) ;
#102 = CIRCLE ( 'NONE', #24, 3.429000000000000270 ) ;
#103 = FACE_OUTER_BOUND ( 'NONE', #161, .T. ) ;
#104 = CARTESIAN_POINT ( 'NONE',  ( 5.000000000000000000, 0.000000000000000000, 0.000000000000000000 ) ) ;
#105 = ORIENTED_EDGE ( 'NONE', *, *, #263, .T. ) ;
#106 = LINE ( 'NONE', #194, #69 ) ;
#107 = EDGE_CURVE ( 'NONE', #205, #163, #106, .T. ) ;
#108 = VERTEX_POINT ( 'NONE', #286 ) ;
#109 = AXIS2_PLACEMENT_3D ( 'NONE', #104, #68, #16 ) ;
#110 = DIRECTION ( 'NONE',  ( 1.000000000000000000, 0.000000000000000000, 0.000000000000000000 ) ) ;
#111 = ORIENTED_EDGE ( 'NONE', *, *, #311, .T. ) ;
#112 = CARTESIAN_POINT ( 'NONE',  ( 38.00000000000000711, -5.204170427930421283E-15, -9.930424630061558844 ) ) ;
#113 = CARTESIAN_POINT ( 'NONE',  ( 38.00000000000000711, 8.599999999999997868, -4.965212315030779422 ) ) ;
#114 = CARTESIAN_POINT ( 'NONE',  ( 5.000000000000000000, 0.000000000000000000, 0.000000000000000000 ) ) ;
#115 = ORIENTED_EDGE ( 'NONE', *, *, #6, .F. ) ;
#116 = CARTESIAN_POINT ( 'NONE',  ( 4.000000000000000000, 8.599999999999997868, -4.965212315030779422 ) ) ;
#117 = CARTESIAN_POINT ( 'NONE',  ( 38.00000000000000711, 3.469446951953614189E-15, 9.930424630061562397 ) ) ;
#118 = CARTESIAN_POINT ( 'NONE',  ( 0.000000000000000000, 0.000000000000000000, 0.000000000000000000 ) ) ;
#119 = CARTESIAN_POINT ( 'NONE',  ( 38.00000000000000711, -5.204170427930421283E-15, -9.930424630061558844 ) ) ;
#120 = FACE_OUTER_BOUND ( 'NONE', #146, .T. ) ;
#121 = AXIS2_PLACEMENT_3D ( 'NONE', #78, #110, #255 ) ;
#122 = DIRECTION ( 'NONE',  ( 1.000000000000000000, 0.000000000000000000, 0.000000000000000000 ) ) ;
#123 = VERTEX_POINT ( 'NONE', #61 ) ;
#124 = FACE_BOUND ( 'NONE', #9, .T. ) ;
#125 = DIRECTION ( 'NONE',  ( 1.000000000000000000, 0.000000000000000000, 0.000000000000000000 ) ) ;
#126 = CARTESIAN_POINT ( 'NONE',  ( 0.000000000000000000, 0.000000000000000000, 0.000000000000000000 ) ) ;
#127 = VERTEX_POINT ( 'NONE', #222 ) ;
#128 = APPLICATION_CONTEXT ( 'automotive_design' ) ;
#129 = CARTESIAN_POINT ( 'NONE',  ( 38.00000000000000711, -8.599999999999996092, -4.965212315030782086 ) ) ;
#130 = AXIS2_PLACEMENT_3D ( 'NONE', #150, #89, #213 ) ;
#131 = ORIENTED_EDGE ( 'NONE', *, *, #56, .T. ) ;
#132 = ORIENTED_EDGE ( 'NONE', *, *, #83, .F. ) ;
#133 = AXIS2_PLACEMENT_3D ( 'NONE', #242, #1, #269 ) ;
#134 = CARTESIAN_POINT ( 'NONE',  ( 4.000000000000000000, 3.469446951953614189E-15, 9.930424630061560620 ) ) ;
#135 = EDGE_CURVE ( 'NONE', #298, #224, #44, .T. ) ;
#136 = CYLINDRICAL_SURFACE ( 'NONE', #109, 3.429000000000000270 ) ;
#137 = ORIENTED_EDGE ( 'NONE', *, *, #384, .F. ) ;
#138 = DIRECTION ( 'NONE',  ( -0.000000000000000000, 0.5000000000000001110, 0.8660254037844387076 ) ) ;
#139 = EDGE_LOOP ( 'NONE', ( #283 ) ) ;
#140 = CIRCLE ( 'NONE', #360, 21.50000000000000000 ) ;
#141 = CARTESIAN_POINT ( 'NONE',  ( 38.00000000000000711, -5.204170427930421283E-15, -9.930424630061558844 ) ) ;
#142 = EDGE_CURVE ( 'NONE', #330, #330, #337, .T. ) ;
#143 = EDGE_LOOP ( 'NONE', ( #131 ) ) ;
#144 = CARTESIAN_POINT ( 'NONE',  ( 38.00000000000000711, -8.599999999999996092, 4.965212315030780310 ) ) ;
#145 = EDGE_CURVE ( 'NONE', #224, #163, #165, .T. ) ;
#146 = EDGE_LOOP ( 'NONE', ( #338, #168, #115, #188 ) ) ;
#147 = DIRECTION ( 'NONE',  ( -1.000000000000000000, -0.000000000000000000, -0.000000000000000000 ) ) ;
#148 = ORIENTED_EDGE ( 'NONE', *, *, #145, .F. ) ;
#149 = DIRECTION ( 'NONE',  ( -1.000000000000000000, -0.000000000000000000, -0.000000000000000000 ) ) ;
#150 = CARTESIAN_POINT ( 'NONE',  ( 38.00000000000000711, 8.599999999999999645, 4.965212315030780310 ) ) ;
#151 = LINE ( 'NONE', #84, #5 ) ;
#152 = PRESENTATION_STYLE_ASSIGNMENT (( #156 ) ) ;
#153 = PRODUCT_DEFINITION_SHAPE ( 'NONE', 'NONE',  #228 ) ;
#154 = EDGE_CURVE ( 'NONE', #341, #298, #202, .T. ) ;
#155 = AXIS2_PLACEMENT_3D ( 'NONE', #372, #191, #313 ) ;
#156 = SURFACE_STYLE_USAGE ( .BOTH. , #180 ) ;
#157 = CARTESIAN_POINT ( 'NONE',  ( 4.000000000000000000, 0.000000000000000000, 0.000000000000000000 ) ) ;
#158 = DIRECTION ( 'NONE',  ( 0.000000000000000000, 0.000000000000000000, 1.000000000000000000 ) ) ;
#159 = FACE_BOUND ( 'NONE', #368, .T. ) ;
#160 = AXIS2_PLACEMENT_3D ( 'NONE', #327, #59, #300 ) ;
#161 = EDGE_LOOP ( 'NONE', ( #285 ) ) ;
#162 = FACE_OUTER_BOUND ( 'NONE', #296, .T. ) ;
#163 = VERTEX_POINT ( 'NONE', #50 ) ;
#164 = COLOUR_RGB ( '',0.000000000000000000, 0.000000000000000000, 1.000000000000000000 ) ;
#165 = LINE ( 'NONE', #342, #196 ) ;
#166 = ORIENTED_EDGE ( 'NONE', *, *, #142, .T. ) ;
#167 = DIRECTION ( 'NONE',  ( 0.000000000000000000, -0.8660254037844387076, 0.5000000000000001110 ) ) ;
#168 = ORIENTED_EDGE ( 'NONE', *, *, #154, .F. ) ;
#169 = CYLINDRICAL_SURFACE ( 'NONE', #274, 12.62500000000000000 ) ;
#170 = LINE ( 'NONE', #292, #14 ) ;
#171 = VECTOR ( 'NONE', #317, 1000.000000000000000 ) ;
#172 = ORIENTED_EDGE ( 'NONE', *, *, #295, .F. ) ;
#173 = EDGE_LOOP ( 'NONE', ( #132 ) ) ;
#174 = ORIENTED_EDGE ( 'NONE', *, *, #12, .T. ) ;
#175 = CARTESIAN_POINT ( 'NONE',  ( 0.000000000000000000, 0.000000000000000000, 0.000000000000000000 ) ) ;
#176 = CARTESIAN_POINT ( 'NONE',  ( 5.000000000000000000, 0.000000000000000000, 0.000000000000000000 ) ) ;
#177 = AXIS2_PLACEMENT_3D ( 'NONE', #2, #62, #216 ) ;
#178 = FACE_OUTER_BOUND ( 'NONE', #362, .T. ) ;
#179 = PRODUCT_DEFINITION_FORMATION_WITH_SPECIFIED_SOURCE ( 'ANY', '', #76, .NOT_KNOWN. ) ;
#180 = SURFACE_SIDE_STYLE ('',( #60 ) ) ;
#181 = DIRECTION ( 'NONE',  ( 1.000000000000000000, 0.000000000000000000, 0.000000000000000000 ) ) ;
#182 = ADVANCED_FACE ( 'NONE', ( #81, #159 ), #97, .T. ) ;
#183 = STYLED_ITEM ( 'NONE', ( #152 ), #92 ) ;
#184 = CARTESIAN_POINT ( 'NONE',  ( 4.000000000000000000, 0.000000000000000000, -12.62500000000000000 ) ) ;
#185 = CARTESIAN_POINT ( 'NONE',  ( 0.000000000000000000, 0.000000000000000000, 0.000000000000000000 ) ) ;
#186 = ADVANCED_FACE ( 'NONE', ( #284 ), #39, .F. ) ;
#187 = VERTEX_POINT ( 'NONE', #340 ) ;
#188 = ORIENTED_EDGE ( 'NONE', *, *, #26, .T. ) ;
#189 = ADVANCED_FACE ( 'NONE', ( #234, #253 ), #136, .F. ) ;
#190 = VECTOR ( 'NONE', #359, 1000.000000000000000 ) ;
#191 = DIRECTION ( 'NONE',  ( -1.000000000000000000, -0.000000000000000000, -0.000000000000000000 ) ) ;
#192 = EDGE_CURVE ( 'NONE', #123, #123, #233, .T. ) ;
#193 = ORIENTED_EDGE ( 'NONE', *, *, #135, .F. ) ;
#194 = CARTESIAN_POINT ( 'NONE',  ( 38.00000000000000711, -8.599999999999996092, 4.965212315030780310 ) ) ;
#195 = ORIENTED_EDGE ( 'NONE', *, *, #325, .T. ) ;
#196 = VECTOR ( 'NONE', #48, 1000.000000000000227 ) ;
#197 = ORIENTED_EDGE ( 'NONE', *, *, #74, .F. ) ;
#198 = DIRECTION ( 'NONE',  ( 0.000000000000000000, 0.000000000000000000, -1.000000000000000000 ) ) ;
#199 = CARTESIAN_POINT ( 'NONE',  ( 4.500000000000027534, 0.000000000000000000, 0.000000000000000000 ) ) ;
#200 = ADVANCED_FACE ( 'NONE', ( #22, #346 ), #335, .F. ) ;
#201 = DIRECTION ( 'NONE',  ( 0.000000000000000000, -0.8660254037844388186, -0.4999999999999997224 ) ) ;
#202 = LINE ( 'NONE', #229, #171 ) ;
#203 = ORIENTED_EDGE ( 'NONE', *, *, #26, .F. ) ;
#204 = FACE_BOUND ( 'NONE', #226, .T. ) ;
#205 = VERTEX_POINT ( 'NONE', #280 ) ;
#206 = MECHANICAL_DESIGN_GEOMETRIC_PRESENTATION_REPRESENTATION (  '', ( #183 ), #41 ) ;
#207 = DIRECTION ( 'NONE',  ( 0.000000000000000000, -0.8660254037844385966, -0.5000000000000000000 ) ) ;
#208 = EDGE_LOOP ( 'NONE', ( #57 ) ) ;
#209 = EDGE_CURVE ( 'NONE', #187, #108, #8, .T. ) ;
#210 = ORIENTED_EDGE ( 'NONE', *, *, #361, .T. ) ;
#211 = ORIENTED_EDGE ( 'NONE', *, *, #361, .F. ) ;
#212 = CARTESIAN_POINT ( 'NONE',  ( 4.000000000000000000, 8.599999999999999645, 4.965212315030780310 ) ) ;
#213 = DIRECTION ( 'NONE',  ( 0.000000000000000000, 0.8660254037844385966, -0.5000000000000002220 ) ) ;
#214 = CARTESIAN_POINT ( 'NONE',  ( 38.00000000000000711, 8.599999999999997868, -4.965212315030779422 ) ) ;
#215 = UNCERTAINTY_MEASURE_WITH_UNIT (LENGTH_MEASURE( 1.000000000000000082E-05 ), #67, 'distance_accuracy_value', 'NONE');
#216 = DIRECTION ( 'NONE',  ( 0.000000000000000000, -1.746877440392046629E-16, -1.000000000000000000 ) ) ;
#217 = VERTEX_POINT ( 'NONE', #221 ) ;
#218 = LINE ( 'NONE', #96, #10 ) ;
#219 = FILL_AREA_STYLE_COLOUR ( '', #164 ) ;
#220 = DIRECTION ( 'NONE',  ( 1.000000000000000000, 0.000000000000000000, 0.000000000000000000 ) ) ;
#221 = CARTESIAN_POINT ( 'NONE',  ( 0.000000000000000000, 0.000000000000000000, -3.429000000000000270 ) ) ;
#222 = CARTESIAN_POINT ( 'NONE',  ( 4.500000000000027534, 0.000000000000000000, -21.50000000000000000 ) ) ;
#223 = CARTESIAN_POINT ( 'NONE',  ( 5.000000000000000000, 0.000000000000000000, 0.000000000000000000 ) ) ;
#224 = VERTEX_POINT ( 'NONE', #134 ) ;
#225 = PRODUCT_RELATED_PRODUCT_CATEGORY ( 'part', '', ( #76 ) ) ;
#226 = EDGE_LOOP ( 'NONE', ( #19 ) ) ;
#227 = ORIENTED_EDGE ( 'NONE', *, *, #192, .T. ) ;
#228 = PRODUCT_DEFINITION ( 'UNKNOWN', '', #179, #55 ) ;
#229 = CARTESIAN_POINT ( 'NONE',  ( 38.00000000000000711, 8.599999999999999645, 4.965212315030780310 ) ) ;
#230 = PLANE ( 'NONE',  #310 ) ;
#231 = EDGE_LOOP ( 'NONE', ( #195, #326, #43, #98 ) ) ;
#232 = LINE ( 'NONE', #113, #282 ) ;
#233 = CIRCLE ( 'NONE', #31, 12.62500000000000000 ) ;
#234 = FACE_OUTER_BOUND ( 'NONE', #173, .T. ) ;
#235 = ORIENTED_EDGE ( 'NONE', *, *, #384, .T. ) ;
#236 = DIRECTION ( 'NONE',  ( 0.000000000000000000, 0.8660254037844385966, -0.5000000000000000000 ) ) ;
#237 = CARTESIAN_POINT ( 'NONE',  ( 4.000000000000000000, -8.599999999999996092, 4.965212315030780310 ) ) ;
#238 = CARTESIAN_POINT ( 'NONE',  ( 38.00000000000000711, 8.599999999999999645, 4.965212315030780310 ) ) ;
#239 =( GEOMETRIC_REPRESENTATION_CONTEXT ( 3 ) GLOBAL_UNCERTAINTY_ASSIGNED_CONTEXT ( ( #215 ) ) GLOBAL_UNIT_ASSIGNED_CONTEXT ( ( #67, #276, #364 ) ) REPRESENTATION_CONTEXT ( 'NONE', 'WORKASPACE' ) );
#240 = DIRECTION ( 'NONE',  ( 0.000000000000000000, 0.8660254037844388186, 0.4999999999999996669 ) ) ;
#241 = FACE_OUTER_BOUND ( 'NONE', #17, .T. ) ;
#242 = CARTESIAN_POINT ( 'NONE',  ( 5.000000000000000000, 0.000000000000000000, 0.000000000000000000 ) ) ;
#243 = DIRECTION ( 'NONE',  ( 1.000000000000000000, 0.000000000000000000, 0.000000000000000000 ) ) ;
#244 = CARTESIAN_POINT ( 'NONE',  ( 0.000000000000000000, 0.000000000000000000, -21.50000000000000000 ) ) ;
#245 = ORIENTED_EDGE ( 'NONE', *, *, #11, .F. ) ;
#246 = LINE ( 'NONE', #116, #190 ) ;
#247 = DIRECTION ( 'NONE',  ( -1.000000000000000000, -0.000000000000000000, -0.000000000000000000 ) ) ;
#248 = VECTOR ( 'NONE', #236, 1000.000000000000227 ) ;
#249 = EDGE_LOOP ( 'NONE', ( #235, #281, #105, #347, #25, #111 ) ) ;
#250 = FACE_OUTER_BOUND ( 'NONE', #289, .T. ) ;
#251 = AXIS2_PLACEMENT_3D ( 'NONE', #117, #349, #264 ) ;
#252 = ADVANCED_FACE ( 'NONE', ( #250, #103 ), #73, .T. ) ;
#253 = FACE_OUTER_BOUND ( 'NONE', #143, .T. ) ;
#254 = ADVANCED_FACE ( 'NONE', ( #162 ), #230, .F. ) ;
#255 = DIRECTION ( 'NONE',  ( 0.000000000000000000, 0.000000000000000000, -1.000000000000000000 ) ) ;
#256 = EDGE_LOOP ( 'NONE', ( #382 ) ) ;
#257 = DIRECTION ( 'NONE',  ( 0.000000000000000000, -0.8660254037844384856, 0.5000000000000001110 ) ) ;
#258 = ORIENTED_EDGE ( 'NONE', *, *, #83, .T. ) ;
#259 = DIRECTION ( 'NONE',  ( 1.000000000000000000, 0.000000000000000000, 0.000000000000000000 ) ) ;
#260 = EDGE_LOOP ( 'NONE', ( #312, #287, #52, #210 ) ) ;
#261 = LINE ( 'NONE', #28, #248 ) ;
#262 = ORIENTED_EDGE ( 'NONE', *, *, #135, .T. ) ;
#263 = EDGE_CURVE ( 'NONE', #323, #375, #88, .T. ) ;
#264 = DIRECTION ( 'NONE',  ( 0.000000000000000000, 0.8660254037844387076, 0.5000000000000001110 ) ) ;
#265 = CARTESIAN_POINT ( 'NONE',  ( 38.00000000000000711, 0.000000000000000000, 0.000000000000000000 ) ) ;
#266 = AXIS2_PLACEMENT_3D ( 'NONE', #223, #376, #18 ) ;
#267 = DIRECTION ( 'NONE',  ( 0.000000000000000000, 0.000000000000000000, 1.000000000000000000 ) ) ;
#268 = CARTESIAN_POINT ( 'NONE',  ( 38.00000000000000711, 8.599999999999999645, 4.965212315030780310 ) ) ;
#269 = DIRECTION ( 'NONE',  ( 0.000000000000000000, 0.000000000000000000, 1.000000000000000000 ) ) ;
#270 =( LENGTH_UNIT ( ) NAMED_UNIT ( * ) SI_UNIT ( .MILLI., .METRE. ) );
#271 = APPLICATION_PROTOCOL_DEFINITION ( 'draft international standard', 'automotive_design', 1998, #128 ) ;
#272 = AXIS2_PLACEMENT_3D ( 'NONE', #265, #122, #331 ) ;
#273 = VERTEX_POINT ( 'NONE', #304 ) ;
#274 = AXIS2_PLACEMENT_3D ( 'NONE', #114, #149, #267 ) ;
#275 = PLANE ( 'NONE',  #177 ) ;
#276 =( NAMED_UNIT ( * ) PLANE_ANGLE_UNIT ( ) SI_UNIT ( $, .RADIAN. ) );
#277 = DIRECTION ( 'NONE',  ( -1.000000000000000000, -0.000000000000000000, -0.000000000000000000 ) ) ;
#278 = VERTEX_POINT ( 'NONE', #58 ) ;
#279 = EDGE_CURVE ( 'NONE', #323, #373, #294, .T. ) ;
#280 = CARTESIAN_POINT ( 'NONE',  ( 38.00000000000000711, -8.599999999999996092, 4.965212315030780310 ) ) ;
#281 = ORIENTED_EDGE ( 'NONE', *, *, #13, .T. ) ;
#282 = VECTOR ( 'NONE', #316, 1000.000000000000000 ) ;
#283 = ORIENTED_EDGE ( 'NONE', *, *, #142, .F. ) ;
#284 = FACE_OUTER_BOUND ( 'NONE', #231, .T. ) ;
#285 = ORIENTED_EDGE ( 'NONE', *, *, #309, .T. ) ;
#286 = CARTESIAN_POINT ( 'NONE',  ( 4.000000000000000000, -8.599999999999996092, -4.965212315030782086 ) ) ;
#287 = ORIENTED_EDGE ( 'NONE', *, *, #107, .F. ) ;
#288 = DIRECTION ( 'NONE',  ( 0.000000000000000000, 0.000000000000000000, -1.000000000000000000 ) ) ;
#289 = EDGE_LOOP ( 'NONE', ( #174 ) ) ;
#290 = FACE_OUTER_BOUND ( 'NONE', #321, .T. ) ;
#291 = CLOSED_SHELL ( 'NONE', ( #40, #252, #200, #182, #339, #189, #99, #254, #186, #378, #21, #72, #348, #355 ) ) ;
#292 = CARTESIAN_POINT ( 'NONE',  ( 38.00000000000000711, -8.599999999999996092, -4.965212315030782086 ) ) ;
#293 = AXIS2_PLACEMENT_3D ( 'NONE', #185, #125, #365 ) ;
#294 = LINE ( 'NONE', #380, #370 ) ;
#295 = EDGE_CURVE ( 'NONE', #373, #278, #297, .T. ) ;
#296 = EDGE_LOOP ( 'NONE', ( #369, #352, #137, #42 ) ) ;
#297 = LINE ( 'NONE', #319, #35 ) ;
#298 = VERTEX_POINT ( 'NONE', #212 ) ;
#299 = DIRECTION ( 'NONE',  ( 0.000000000000000000, -0.000000000000000000, 1.000000000000000000 ) ) ;
#300 = DIRECTION ( 'NONE',  ( 0.000000000000000000, 0.000000000000000000, -1.000000000000000000 ) ) ;
#301 = PLANE ( 'NONE',  #353 ) ;
#302 = DIRECTION ( 'NONE',  ( 0.000000000000000000, 0.000000000000000000, -1.000000000000000000 ) ) ;
#303 = CARTESIAN_POINT ( 'NONE',  ( 38.00000000000000711, 3.469446951953614189E-15, 9.930424630061562397 ) ) ;
#304 = CARTESIAN_POINT ( 'NONE',  ( 38.00000000000000711, 0.000000000000000000, -3.429000000000000270 ) ) ;
#305 =( NAMED_UNIT ( * ) PLANE_ANGLE_UNIT ( ) SI_UNIT ( $, .RADIAN. ) );
#306 = CONICAL_SURFACE ( 'NONE', #133, 21.00000000000002487, 0.7853981633974482790 ) ;
#307 = FACE_OUTER_BOUND ( 'NONE', #139, .T. ) ;
#308 = DIRECTION ( 'NONE',  ( -1.000000000000000000, -0.000000000000000000, -0.000000000000000000 ) ) ;
#309 = EDGE_CURVE ( 'NONE', #367, #367, #140, .T. ) ;
#310 = AXIS2_PLACEMENT_3D ( 'NONE', #144, #354, #299 ) ;
#311 = EDGE_CURVE ( 'NONE', #85, #205, #151, .T. ) ;
#312 = ORIENTED_EDGE ( 'NONE', *, *, #145, .T. ) ;
#313 = DIRECTION ( 'NONE',  ( 0.000000000000000000, 0.000000000000000000, 1.000000000000000000 ) ) ;
#314 = CARTESIAN_POINT ( 'NONE',  ( 4.000000000000000000, 8.599999999999999645, 4.965212315030780310 ) ) ;
#315 = VECTOR ( 'NONE', #257, 1000.000000000000227 ) ;
#316 = DIRECTION ( 'NONE',  ( 0.000000000000000000, 1.746877440392046629E-16, 1.000000000000000000 ) ) ;
#317 = DIRECTION ( 'NONE',  ( -1.000000000000000000, -0.000000000000000000, -0.000000000000000000 ) ) ;
#318 = DIRECTION ( 'NONE',  ( -1.000000000000000000, 0.000000000000000000, 0.000000000000000000 ) ) ;
#319 = CARTESIAN_POINT ( 'NONE',  ( 4.000000000000000000, -5.204170427930421283E-15, -9.930424630061558844 ) ) ;
#320 = CARTESIAN_POINT ( 'NONE',  ( 38.00000000000000711, -8.599999999999996092, -4.965212315030782086 ) ) ;
#321 = EDGE_LOOP ( 'NONE', ( #100 ) ) ;
#322 = DIRECTION ( 'NONE',  ( -1.000000000000000000, -0.000000000000000000, -0.000000000000000000 ) ) ;
#323 = VERTEX_POINT ( 'NONE', #112 ) ;
#324 = FACE_OUTER_BOUND ( 'NONE', #260, .T. ) ;
#325 = EDGE_CURVE ( 'NONE', #108, #373, #261, .T. ) ;
#326 = ORIENTED_EDGE ( 'NONE', *, *, #279, .F. ) ;
#327 = CARTESIAN_POINT ( 'NONE',  ( 4.000000000000000000, 0.000000000000000000, 0.000000000000000000 ) ) ;
#328 = FACE_OUTER_BOUND ( 'NONE', #23, .T. ) ;
#329 = FILL_AREA_STYLE ('',( #219 ) ) ;
#330 = VERTEX_POINT ( 'NONE', #184 ) ;
#331 = DIRECTION ( 'NONE',  ( 0.000000000000000000, 0.000000000000000000, -1.000000000000000000 ) ) ;
#332 = AXIS2_PLACEMENT_3D ( 'NONE', #126, #158, #220 ) ;
#333 = VECTOR ( 'NONE', #308, 1000.000000000000000 ) ;
#334 = APPLICATION_CONTEXT ( 'automotive_design' ) ;
#335 = PLANE ( 'NONE',  #293 ) ;
#336 = VERTEX_POINT ( 'NONE', #34 ) ;
#337 = CIRCLE ( 'NONE', #366, 12.62500000000000000 ) ;
#338 = ORIENTED_EDGE ( 'NONE', *, *, #70, .T. ) ;
#339 = ADVANCED_FACE ( 'NONE', ( #178, #383 ), #169, .F. ) ;
#340 = CARTESIAN_POINT ( 'NONE',  ( 38.00000000000000711, -8.599999999999996092, -4.965212315030782086 ) ) ;
#341 = VERTEX_POINT ( 'NONE', #238 ) ;
#342 = CARTESIAN_POINT ( 'NONE',  ( 4.000000000000000000, 3.469446951953614189E-15, 9.930424630061562397 ) ) ;
#343 = AXIS2_PLACEMENT_3D ( 'NONE', #199, #318, #379 ) ;
#344 = LINE ( 'NONE', #237, #46 ) ;
#345 = DIRECTION ( 'NONE',  ( 0.000000000000000000, -0.4999999999999997224, 0.8660254037844388186 ) ) ;
#346 = FACE_OUTER_BOUND ( 'NONE', #208, .T. ) ;
#347 = ORIENTED_EDGE ( 'NONE', *, *, #6, .T. ) ;
#348 = ADVANCED_FACE ( 'NONE', ( #324 ), #386, .F. ) ;
#349 = DIRECTION ( 'NONE',  ( 0.000000000000000000, 0.5000000000000001110, -0.8660254037844387076 ) ) ;
#350 = DIRECTION ( 'NONE',  ( 0.000000000000000000, 0.8660254037844385966, -0.5000000000000000000 ) ) ;
#351 = DIRECTION ( 'NONE',  ( 0.000000000000000000, 0.000000000000000000, -1.000000000000000000 ) ) ;
#352 = ORIENTED_EDGE ( 'NONE', *, *, #209, .F. ) ;
#353 = AXIS2_PLACEMENT_3D ( 'NONE', #119, #345, #201 ) ;
#354 = DIRECTION ( 'NONE',  ( -0.000000000000000000, 1.000000000000000000, 0.000000000000000000 ) ) ;
#355 = ADVANCED_FACE ( 'NONE', ( #290, #204 ), #306, .T. ) ;
#356 = PLANE ( 'NONE',  #130 ) ;
#357 = CARTESIAN_POINT ( 'NONE',  ( 38.00000000000000711, 3.469446951953614189E-15, 9.930424630061562397 ) ) ;
#358 = DIRECTION ( 'NONE',  ( 0.000000000000000000, 0.000000000000000000, -1.000000000000000000 ) ) ;
#359 = DIRECTION ( 'NONE',  ( 0.000000000000000000, 1.746877440392046629E-16, 1.000000000000000000 ) ) ;
#360 = AXIS2_PLACEMENT_3D ( 'NONE', #175, #259, #351 ) ;
#361 = EDGE_CURVE ( 'NONE', #85, #224, #80, .T. ) ;
#362 = EDGE_LOOP ( 'NONE', ( #227 ) ) ;
#363 = FACE_OUTER_BOUND ( 'NONE', #249, .T. ) ;
#364 =( NAMED_UNIT ( * ) SI_UNIT ( $, .STERADIAN. ) SOLID_ANGLE_UNIT ( ) );
#365 = DIRECTION ( 'NONE',  ( 0.000000000000000000, 0.000000000000000000, -1.000000000000000000 ) ) ;
#366 = AXIS2_PLACEMENT_3D ( 'NONE', #157, #277, #198 ) ;
#367 = VERTEX_POINT ( 'NONE', #244 ) ;
#368 = EDGE_LOOP ( 'NONE', ( #27 ) ) ;
#369 = ORIENTED_EDGE ( 'NONE', *, *, #11, .T. ) ;
#370 = VECTOR ( 'NONE', #147, 1000.000000000000000 ) ;
#371 = DIRECTION ( 'NONE',  ( 1.000000000000000000, 0.000000000000000000, 0.000000000000000000 ) ) ;
#372 = CARTESIAN_POINT ( 'NONE',  ( 4.000000000000000000, 0.000000000000000000, 0.000000000000000000 ) ) ;
#373 = VERTEX_POINT ( 'NONE', #90 ) ;
#374 = CARTESIAN_POINT ( 'NONE',  ( 5.000000000000000000, 0.000000000000000000, 0.000000000000000000 ) ) ;
#375 = VERTEX_POINT ( 'NONE', #214 ) ;
#376 = DIRECTION ( 'NONE',  ( 1.000000000000000000, 0.000000000000000000, 0.000000000000000000 ) ) ;
#377 = CIRCLE ( 'NONE', #272, 3.429000000000000270 ) ;
#378 = ADVANCED_FACE ( 'NONE', ( #328 ), #301, .F. ) ;
#379 = DIRECTION ( 'NONE',  ( 0.000000000000000000, 0.000000000000000000, -1.000000000000000000 ) ) ;
#380 = CARTESIAN_POINT ( 'NONE',  ( 38.00000000000000711, -5.204170427930421283E-15, -9.930424630061558844 ) ) ;
#381 = UNCERTAINTY_MEASURE_WITH_UNIT (LENGTH_MEASURE( 1.000000000000000082E-05 ), #270, 'distance_accuracy_value', 'NONE');
#382 = ORIENTED_EDGE ( 'NONE', *, *, #64, .T. ) ;
#383 = FACE_OUTER_BOUND ( 'NONE', #29, .T. ) ;
#384 = EDGE_CURVE ( 'NONE', #205, #187, #38, .T. ) ;
#385 = VECTOR ( 'NONE', #94, 1000.000000000000000 ) ;
#386 = PLANE ( 'NONE',  #251 ) ;
#387 = DIRECTION ( 'NONE',  ( 0.000000000000000000, -0.8660254037844384856, 0.5000000000000001110 ) ) ;
ENDSEC;
END-ISO-10303-21;
