ISO-10303-21;
HEADER;
FILE_DESCRIPTION (( 'STEP AP214' ),
    '1' );
FILE_NAME ('P001-B111_BallMount_4.STEP',
    '2026-05-14T03:38:12',
    ( '' ),
    ( '' ),
    'SwSTEP 2.0',
    'SolidWorks 2026',
    '' );
FILE_SCHEMA (( 'AUTOMOTIVE_DESIGN' ));
ENDSEC;

DATA;
#1 = ADVANCED_FACE ( 'NONE', ( #452 ), #497, .F. ) ;
#2 = LINE ( 'NONE', #393, #271 ) ;
#3 = CARTESIAN_POINT ( 'NONE',  ( -9.000000000000001776, 0.000000000000000000, 10.00000000000000000 ) ) ;
#4 = CARTESIAN_POINT ( 'NONE',  ( -9.000000000000001776, 1.750000000000000000, -10.00000000000000000 ) ) ;
#5 = DIRECTION ( 'NONE',  ( 0.000000000000000000, 0.000000000000000000, 1.000000000000000000 ) ) ;
#6 = CARTESIAN_POINT ( 'NONE',  ( -3.000000000000000000, 0.6323595739644282121, 1.631950000000000012 ) ) ;
#7 = VECTOR ( 'NONE', #317, 1000.000000000000000 ) ;
#8 = EDGE_CURVE ( 'NONE', #504, #328, #281, .T. ) ;
#9 = DIRECTION ( 'NONE',  ( -0.000000000000000000, 1.000000000000000000, -0.000000000000000000 ) ) ;
#10 = CARTESIAN_POINT ( 'NONE',  ( -9.000000000000001776, 1.750000000000000000, 9.000000000000001776 ) ) ;
#11 = PRODUCT_RELATED_PRODUCT_CATEGORY ( 'part', '', ( #145 ) ) ;
#12 = ORIENTED_EDGE ( 'NONE', *, *, #55, .F. ) ;
#13 = CARTESIAN_POINT ( 'NONE',  ( -10.00000000000000178, 0.000000000000000000, 9.000000000000001776 ) ) ;
#14 = ORIENTED_EDGE ( 'NONE', *, *, #17, .T. ) ;
#15 = AXIS2_PLACEMENT_3D ( 'NONE', #175, #40, #358 ) ;
#16 = EDGE_LOOP ( 'NONE', ( #359, #178 ) ) ;
#17 = EDGE_CURVE ( 'NONE', #170, #188, #102, .T. ) ;
#18 = EDGE_LOOP ( 'NONE', ( #466, #475, #136, #340 ) ) ;
#19 = DIRECTION ( 'NONE',  ( 0.000000000000000000, -1.000000000000000000, 0.000000000000000000 ) ) ;
#20 = VERTEX_POINT ( 'NONE', #6 ) ;
#21 = DIRECTION ( 'NONE',  ( 1.000000000000000000, 0.000000000000000000, 0.000000000000000000 ) ) ;
#22 = VECTOR ( 'NONE', #110, 1000.000000000000000 ) ;
#23 = DIRECTION ( 'NONE',  ( 0.000000000000000000, 0.000000000000000000, 1.000000000000000000 ) ) ;
#24 = EDGE_CURVE ( 'NONE', #348, #61, #540, .T. ) ;
#25 = ORIENTED_EDGE ( 'NONE', *, *, #426, .F. ) ;
#26 = CARTESIAN_POINT ( 'NONE',  ( -3.000000000000000000, 1.750000000000000000, 3.673940397442060361E-16 ) ) ;
#27 = ORIENTED_EDGE ( 'NONE', *, *, #406, .T. ) ;
#28 = CARTESIAN_POINT ( 'NONE',  ( -10.00000000000000178, 1.750000000000000000, -9.000000000000003553 ) ) ;
#29 = CARTESIAN_POINT ( 'NONE',  ( 3.000000000000000000, 1.750000000000000000, 2.603500000000000814 ) ) ;
#30 = ORIENTED_EDGE ( 'NONE', *, *, #406, .F. ) ;
#31 = LINE ( 'NONE', #89, #333 ) ;
#32 = DIRECTION ( 'NONE',  ( 0.000000000000000000, -0.000000000000000000, -1.000000000000000000 ) ) ;
#33 = AXIS2_PLACEMENT_3D ( 'NONE', #78, #275, #570 ) ;
#34 = PRODUCT_DEFINITION_FORMATION_WITH_SPECIFIED_SOURCE ( 'ANY', '', #145, .NOT_KNOWN. ) ;
#35 = EDGE_LOOP ( 'NONE', ( #252, #403 ) ) ;
#36 = DIRECTION ( 'NONE',  ( 0.000000000000000000, 0.000000000000000000, 1.000000000000000000 ) ) ;
#37 = EDGE_CURVE ( 'NONE', #487, #462, #138, .T. ) ;
#38 = DIRECTION ( 'NONE',  ( 0.000000000000000000, 0.000000000000000000, -1.000000000000000000 ) ) ;
#39 = ORIENTED_EDGE ( 'NONE', *, *, #526, .F. ) ;
#40 = DIRECTION ( 'NONE',  ( -0.000000000000000000, 1.000000000000000000, -0.000000000000000000 ) ) ;
#41 = ORIENTED_EDGE ( 'NONE', *, *, #474, .T. ) ;
#42 = DIRECTION ( 'NONE',  ( -0.000000000000000000, 1.000000000000000000, -0.000000000000000000 ) ) ;
#43 = DIRECTION ( 'NONE',  ( -0.000000000000000000, 1.000000000000000000, -0.000000000000000000 ) ) ;
#44 = VECTOR ( 'NONE', #444, 1000.000000000000000 ) ;
#45 = VECTOR ( 'NONE', #133, 1000.000000000000000 ) ;
#46 = CARTESIAN_POINT ( 'NONE',  ( -10.00000000000000178, 1.750000000000000000, -10.00000000000000000 ) ) ;
#47 = FACE_OUTER_BOUND ( 'NONE', #120, .T. ) ;
#48 = ORIENTED_EDGE ( 'NONE', *, *, #335, .T. ) ;
#49 = APPLICATION_PROTOCOL_DEFINITION ( 'draft international standard', 'automotive_design', 1998, #266 ) ;
#50 = CYLINDRICAL_SURFACE ( 'NONE', #361, 1.631949999999999124 ) ;
#51 = ORIENTED_EDGE ( 'NONE', *, *, #65, .F. ) ;
#52 = CARTESIAN_POINT ( 'NONE',  ( -10.00000000000000178, 0.000000000000000000, 10.00000000000000000 ) ) ;
#53 = AXIS2_PLACEMENT_3D ( 'NONE', #151, #415, #384 ) ;
#54 = AXIS2_PLACEMENT_3D ( 'NONE', #450, #326, #285 ) ;
#55 = EDGE_CURVE ( 'NONE', #313, #348, #360, .T. ) ;
#56 = CARTESIAN_POINT ( 'NONE',  ( -9.000000000000001776, 1.750000000000000000, -9.000000000000003553 ) ) ;
#57 = DIRECTION ( 'NONE',  ( -0.000000000000000000, -1.000000000000000000, 0.000000000000000000 ) ) ;
#58 = ADVANCED_FACE ( 'NONE', ( #183 ), #440, .T. ) ;
#59 = AXIS2_PLACEMENT_3D ( 'NONE', #56, #428, #204 ) ;
#60 =( GEOMETRIC_REPRESENTATION_CONTEXT ( 3 ) GLOBAL_UNCERTAINTY_ASSIGNED_CONTEXT ( ( #297 ) ) GLOBAL_UNIT_ASSIGNED_CONTEXT ( ( #181, #99, #143 ) ) REPRESENTATION_CONTEXT ( 'NONE', 'WORKASPACE' ) );
#61 = VERTEX_POINT ( 'NONE', #4 ) ;
#62 = PLANE ( 'NONE',  #238 ) ;
#63 = ORIENTED_EDGE ( 'NONE', *, *, #447, .T. ) ;
#64 = CARTESIAN_POINT ( 'NONE',  ( -9.000000000000001776, 1.750000000000000000, 10.00000000000000000 ) ) ;
#65 = EDGE_CURVE ( 'NONE', #396, #167, #322, .T. ) ;
#66 = CARTESIAN_POINT ( 'NONE',  ( 0.000000000000000000, 1.750000000000000000, 0.000000000000000000 ) ) ;
#67 = ORIENTED_EDGE ( 'NONE', *, *, #453, .F. ) ;
#68 = SURFACE_STYLE_FILL_AREA ( #467 ) ;
#69 = AXIS2_PLACEMENT_3D ( 'NONE', #364, #299, #108 ) ;
#70 = DIRECTION ( 'NONE',  ( 1.000000000000000000, 0.000000000000000000, -0.000000000000000000 ) ) ;
#71 = CARTESIAN_POINT ( 'NONE',  ( 9.999999999999998224, 1.750000000000000000, 10.00000000000000000 ) ) ;
#72 = CARTESIAN_POINT ( 'NONE',  ( -3.000000000000000000, 1.750000000000000000, 2.603500000000000369 ) ) ;
#73 = VERTEX_POINT ( 'NONE', #279 ) ;
#74 = CARTESIAN_POINT ( 'NONE',  ( -10.00000000000000178, 0.000000000000000000, 10.00000000000000000 ) ) ;
#75 = FACE_BOUND ( 'NONE', #411, .T. ) ;
#76 = ORIENTED_EDGE ( 'NONE', *, *, #499, .T. ) ;
#77 = EDGE_CURVE ( 'NONE', #197, #568, #469, .T. ) ;
#78 = CARTESIAN_POINT ( 'NONE',  ( -3.000000000000000000, 0.6323595739644282121, 3.673940397442060361E-16 ) ) ;
#79 = ORIENTED_EDGE ( 'NONE', *, *, #235, .T. ) ;
#80 = DIRECTION ( 'NONE',  ( 0.000000000000000000, 0.000000000000000000, -1.000000000000000000 ) ) ;
#81 = ORIENTED_EDGE ( 'NONE', *, *, #499, .F. ) ;
#82 = DIRECTION ( 'NONE',  ( 8.034405899049456264E-17, 0.7547095802227717920, -0.6560590289905074979 ) ) ;
#83 = ADVANCED_FACE ( 'NONE', ( #498 ), #283, .T. ) ;
#84 = ORIENTED_EDGE ( 'NONE', *, *, #482, .T. ) ;
#85 = LINE ( 'NONE', #569, #551 ) ;
#86 = FACE_OUTER_BOUND ( 'NONE', #357, .T. ) ;
#87 = CIRCLE ( 'NONE', #15, 1.631949999999998457 ) ;
#88 = VERTEX_POINT ( 'NONE', #72 ) ;
#89 = CARTESIAN_POINT ( 'NONE',  ( 9.999999999999998224, 1.750000000000000000, -9.000000000000003553 ) ) ;
#90 = CARTESIAN_POINT ( 'NONE',  ( 8.999999999999998224, 1.750000000000000000, -9.000000000000001776 ) ) ;
#91 = DIRECTION ( 'NONE',  ( -0.000000000000000000, 1.000000000000000000, -0.000000000000000000 ) ) ;
#92 = ORIENTED_EDGE ( 'NONE', *, *, #410, .F. ) ;
#93 = DIRECTION ( 'NONE',  ( 0.000000000000000000, 0.000000000000000000, 1.000000000000000000 ) ) ;
#94 = DIRECTION ( 'NONE',  ( -0.000000000000000000, -0.000000000000000000, 1.000000000000000000 ) ) ;
#95 = EDGE_CURVE ( 'NONE', #399, #396, #101, .T. ) ;
#96 = DIRECTION ( 'NONE',  ( -0.000000000000000000, 1.000000000000000000, -0.000000000000000000 ) ) ;
#97 = CIRCLE ( 'NONE', #33, 1.631949999999999568 ) ;
#98 = CIRCLE ( 'NONE', #432, 1.631949999999999124 ) ;
#99 =( NAMED_UNIT ( * ) PLANE_ANGLE_UNIT ( ) SI_UNIT ( $, .RADIAN. ) );
#100 = LINE ( 'NONE', #468, #369 ) ;
#101 = LINE ( 'NONE', #248, #140 ) ;
#102 = CIRCLE ( 'NONE', #571, 1.000000000000000888 ) ;
#103 = ORIENTED_EDGE ( 'NONE', *, *, #372, .T. ) ;
#104 = AXIS2_PLACEMENT_3D ( 'NONE', #353, #521, #439 ) ;
#105 = ORIENTED_EDGE ( 'NONE', *, *, #8, .T. ) ;
#106 = EDGE_LOOP ( 'NONE', ( #30, #219, #383, #216 ) ) ;
#107 = VERTEX_POINT ( 'NONE', #327 ) ;
#108 = DIRECTION ( 'NONE',  ( 0.000000000000000000, 0.000000000000000000, -1.000000000000000000 ) ) ;
#109 = ORIENTED_EDGE ( 'NONE', *, *, #395, .F. ) ;
#110 = DIRECTION ( 'NONE',  ( 0.000000000000000000, 1.000000000000000000, -0.000000000000000000 ) ) ;
#111 = CARTESIAN_POINT ( 'NONE',  ( -10.00000000000000178, 1.750000000000000000, -10.00000000000000000 ) ) ;
#112 = ORIENTED_EDGE ( 'NONE', *, *, #463, .T. ) ;
#113 = ORIENTED_EDGE ( 'NONE', *, *, #24, .T. ) ;
#114 = FACE_OUTER_BOUND ( 'NONE', #481, .T. ) ;
#115 = CIRCLE ( 'NONE', #491, 1.000000000000000888 ) ;
#116 = DIRECTION ( 'NONE',  ( 0.000000000000000000, -1.000000000000000000, 0.000000000000000000 ) ) ;
#117 = VERTEX_POINT ( 'NONE', #284 ) ;
#118 = SURFACE_SIDE_STYLE ('',( #68 ) ) ;
#119 = FACE_BOUND ( 'NONE', #363, .T. ) ;
#120 = EDGE_LOOP ( 'NONE', ( #306, #539, #41, #222 ) ) ;
#121 = CARTESIAN_POINT ( 'NONE',  ( 8.999999999999998224, 1.750000000000000000, 10.00000000000000000 ) ) ;
#122 = ORIENTED_EDGE ( 'NONE', *, *, #474, .F. ) ;
#123 = FACE_OUTER_BOUND ( 'NONE', #562, .T. ) ;
#124 = AXIS2_PLACEMENT_3D ( 'NONE', #160, #343, #338 ) ;
#125 = ORIENTED_EDGE ( 'NONE', *, *, #65, .T. ) ;
#126 = EDGE_CURVE ( 'NONE', #328, #568, #100, .T. ) ;
#127 = DIRECTION ( 'NONE',  ( 0.000000000000000000, 0.000000000000000000, 1.000000000000000000 ) ) ;
#128 = VERTEX_POINT ( 'NONE', #29 ) ;
#129 = DIRECTION ( 'NONE',  ( -0.000000000000000000, 1.000000000000000000, -0.000000000000000000 ) ) ;
#130 = CARTESIAN_POINT ( 'NONE',  ( -10.00000000000000178, 1.750000000000000000, 10.00000000000000000 ) ) ;
#131 = VERTEX_POINT ( 'NONE', #344 ) ;
#132 = DIRECTION ( 'NONE',  ( 0.000000000000000000, -1.000000000000000000, 0.000000000000000000 ) ) ;
#133 = DIRECTION ( 'NONE',  ( 0.000000000000000000, -1.000000000000000000, 0.000000000000000000 ) ) ;
#134 = AXIS2_PLACEMENT_3D ( 'NONE', #251, #244, #339 ) ;
#135 = CARTESIAN_POINT ( 'NONE',  ( 8.999999999999998224, 0.000000000000000000, -9.000000000000001776 ) ) ;
#136 = ORIENTED_EDGE ( 'NONE', *, *, #24, .F. ) ;
#137 = EDGE_CURVE ( 'NONE', #131, #313, #380, .T. ) ;
#138 = LINE ( 'NONE', #449, #44 ) ;
#139 = DIRECTION ( 'NONE',  ( 0.000000000000000000, -1.000000000000000000, 0.000000000000000000 ) ) ;
#140 = VECTOR ( 'NONE', #57, 1000.000000000000000 ) ;
#141 = ORIENTED_EDGE ( 'NONE', *, *, #507, .F. ) ;
#142 = CIRCLE ( 'NONE', #572, 2.603499999999999925 ) ;
#143 =( NAMED_UNIT ( * ) SI_UNIT ( $, .STERADIAN. ) SOLID_ANGLE_UNIT ( ) );
#144 = ADVANCED_FACE ( 'NONE', ( #554 ), #473, .F. ) ;
#145 = PRODUCT ( 'P001-B111_BallMount_4', 'P001-B111_BallMount_4', '', ( #196 ) ) ;
#146 = ADVANCED_BREP_SHAPE_REPRESENTATION ( 'P001-B111_BallMount_4', ( #501, #54 ), #60 ) ;
#147 = FACE_OUTER_BOUND ( 'NONE', #148, .T. ) ;
#148 = EDGE_LOOP ( 'NONE', ( #525, #508, #378, #79 ) ) ;
#149 = ORIENTED_EDGE ( 'NONE', *, *, #447, .F. ) ;
#150 = ORIENTED_EDGE ( 'NONE', *, *, #55, .T. ) ;
#151 = CARTESIAN_POINT ( 'NONE',  ( 8.999999999999998224, 0.000000000000000000, 9.000000000000001776 ) ) ;
#152 = AXIS2_PLACEMENT_3D ( 'NONE', #247, #198, #556 ) ;
#153 = DIRECTION ( 'NONE',  ( 0.000000000000000000, 0.000000000000000000, 1.000000000000000000 ) ) ;
#154 = EDGE_CURVE ( 'NONE', #399, #73, #237, .T. ) ;
#155 = ORIENTED_EDGE ( 'NONE', *, *, #514, .T. ) ;
#156 = CARTESIAN_POINT ( 'NONE',  ( 9.999999999999998224, 0.000000000000000000, 10.00000000000000000 ) ) ;
#157 = DIRECTION ( 'NONE',  ( -0.000000000000000000, -0.000000000000000000, 1.000000000000000000 ) ) ;
#158 = ADVANCED_FACE ( 'NONE', ( #211, #519, #337 ), #511, .F. ) ;
#159 = ORIENTED_EDGE ( 'NONE', *, *, #347, .T. ) ;
#160 = CARTESIAN_POINT ( 'NONE',  ( 3.000000000000000000, 1.750000000000000000, 8.010749087384078097E-16 ) ) ;
#161 = DIRECTION ( 'NONE',  ( -0.000000000000000000, 1.000000000000000000, -0.000000000000000000 ) ) ;
#162 = VERTEX_POINT ( 'NONE', #421 ) ;
#163 = VECTOR ( 'NONE', #94, 1000.000000000000000 ) ;
#164 = CARTESIAN_POINT ( 'NONE',  ( -3.000000000000000000, 0.6323595739644282121, 3.673940397442060361E-16 ) ) ;
#165 = ADVANCED_FACE ( 'NONE', ( #346 ), #516, .F. ) ;
#166 = DIRECTION ( 'NONE',  ( -0.000000000000000000, 1.000000000000000000, -0.000000000000000000 ) ) ;
#167 = VERTEX_POINT ( 'NONE', #13 ) ;
#168 = DIRECTION ( 'NONE',  ( -0.000000000000000000, 1.000000000000000000, -0.000000000000000000 ) ) ;
#169 = DIRECTION ( 'NONE',  ( 0.000000000000000000, -1.000000000000000000, 0.000000000000000000 ) ) ;
#170 = VERTEX_POINT ( 'NONE', #193 ) ;
#171 = CYLINDRICAL_SURFACE ( 'NONE', #287, 1.000000000000000888 ) ;
#172 = ADVANCED_FACE ( 'NONE', ( #215 ), #417, .F. ) ;
#173 = ORIENTED_EDGE ( 'NONE', *, *, #355, .T. ) ;
#174 = CARTESIAN_POINT ( 'NONE',  ( -3.000000000000000000, 1.750000000000000000, 3.673940397442060361E-16 ) ) ;
#175 = CARTESIAN_POINT ( 'NONE',  ( -3.000000000000000000, 2.168404344971008868E-16, 3.673940397442060361E-16 ) ) ;
#176 = VECTOR ( 'NONE', #82, 1000.000000000000000 ) ;
#177 = AXIS2_PLACEMENT_3D ( 'NONE', #217, #435, #492 ) ;
#178 = ORIENTED_EDGE ( 'NONE', *, *, #567, .F. ) ;
#179 = DIRECTION ( 'NONE',  ( 0.000000000000000000, 0.000000000000000000, 1.000000000000000000 ) ) ;
#180 = ORIENTED_EDGE ( 'NONE', *, *, #243, .F. ) ;
#181 =( LENGTH_UNIT ( ) NAMED_UNIT ( * ) SI_UNIT ( .MILLI., .METRE. ) );
#182 = DIRECTION ( 'NONE',  ( -0.000000000000000000, 1.000000000000000000, -0.000000000000000000 ) ) ;
#183 = FACE_OUTER_BOUND ( 'NONE', #373, .T. ) ;
#184 = CARTESIAN_POINT ( 'NONE',  ( 3.000000000000000444, 1.750000000000000000, -2.603499999999999037 ) ) ;
#185 = ADVANCED_FACE ( 'NONE', ( #147 ), #418, .F. ) ;
#186 = CIRCLE ( 'NONE', #537, 2.603499999999999925 ) ;
#187 = CIRCLE ( 'NONE', #177, 1.000000000000000888 ) ;
#188 = VERTEX_POINT ( 'NONE', #370 ) ;
#189 = DIRECTION ( 'NONE',  ( 0.000000000000000000, 0.000000000000000000, 1.000000000000000000 ) ) ;
#190 = DIRECTION ( 'NONE',  ( 0.000000000000000000, -1.000000000000000000, 0.000000000000000000 ) ) ;
#191 = ADVANCED_FACE ( 'NONE', ( #557 ), #550, .F. ) ;
#192 = VECTOR ( 'NONE', #495, 1000.000000000000000 ) ;
#193 = CARTESIAN_POINT ( 'NONE',  ( 8.999999999999998224, 0.000000000000000000, -10.00000000000000000 ) ) ;
#194 = VECTOR ( 'NONE', #43, 1000.000000000000000 ) ;
#195 = ORIENTED_EDGE ( 'NONE', *, *, #426, .T. ) ;
#196 = PRODUCT_CONTEXT ( 'NONE', #310, 'mechanical' ) ;
#197 = VERTEX_POINT ( 'NONE', #515 ) ;
#198 = DIRECTION ( 'NONE',  ( -0.000000000000000000, 1.000000000000000000, -0.000000000000000000 ) ) ;
#199 = EDGE_CURVE ( 'NONE', #575, #128, #142, .T. ) ;
#200 = PRODUCT_DEFINITION_CONTEXT ( 'detailed design', #266, 'design' ) ;
#201 = VECTOR ( 'NONE', #334, 1000.000000000000000 ) ;
#202 = ORIENTED_EDGE ( 'NONE', *, *, #365, .F. ) ;
#203 = CARTESIAN_POINT ( 'NONE',  ( -10.00000000000000178, 0.000000000000000000, -9.000000000000003553 ) ) ;
#204 = DIRECTION ( 'NONE',  ( 0.000000000000000000, 0.000000000000000000, -1.000000000000000000 ) ) ;
#205 = PRODUCT_DEFINITION ( 'UNKNOWN', '', #34, #200 ) ;
#206 =( NAMED_UNIT ( * ) PLANE_ANGLE_UNIT ( ) SI_UNIT ( $, .RADIAN. ) );
#207 = CARTESIAN_POINT ( 'NONE',  ( 3.000000000000000000, 1.750000000000000000, 8.010749087384078097E-16 ) ) ;
#208 = EDGE_LOOP ( 'NONE', ( #277, #437, #460, #122 ) ) ;
#209 = ADVANCED_FACE ( 'NONE', ( #119, #75, #254 ), #388, .T. ) ;
#210 = DIRECTION ( 'NONE',  ( 1.000000000000000000, -0.000000000000000000, 0.000000000000000000 ) ) ;
#211 = FACE_BOUND ( 'NONE', #16, .T. ) ;
#212 = VERTEX_POINT ( 'NONE', #454 ) ;
#213 = AXIS2_PLACEMENT_3D ( 'NONE', #502, #489, #189 ) ;
#214 = VECTOR ( 'NONE', #265, 1000.000000000000000 ) ;
#215 = FACE_OUTER_BOUND ( 'NONE', #18, .T. ) ;
#216 = ORIENTED_EDGE ( 'NONE', *, *, #534, .F. ) ;
#217 = CARTESIAN_POINT ( 'NONE',  ( -9.000000000000001776, 0.000000000000000000, 9.000000000000001776 ) ) ;
#218 = DIRECTION ( 'NONE',  ( 0.000000000000000000, -1.000000000000000000, 0.000000000000000000 ) ) ;
#219 = ORIENTED_EDGE ( 'NONE', *, *, #262, .T. ) ;
#220 = CARTESIAN_POINT ( 'NONE',  ( 3.000000000000000000, 2.168404344971008868E-16, 1.631949999999999124 ) ) ;
#221 = DIRECTION ( 'NONE',  ( 0.000000000000000000, -1.000000000000000000, 0.000000000000000000 ) ) ;
#222 = ORIENTED_EDGE ( 'NONE', *, *, #77, .T. ) ;
#223 = LINE ( 'NONE', #321, #451 ) ;
#224 = AXIS2_PLACEMENT_3D ( 'NONE', #164, #381, #153 ) ;
#225 = VERTEX_POINT ( 'NONE', #3 ) ;
#226 = CARTESIAN_POINT ( 'NONE',  ( 3.000000000000000000, 1.750000000000000000, 8.010749087384078097E-16 ) ) ;
#227 = EDGE_LOOP ( 'NONE', ( #233, #325, #125, #76 ) ) ;
#228 = EDGE_CURVE ( 'NONE', #212, #413, #445, .T. ) ;
#229 = CARTESIAN_POINT ( 'NONE',  ( -3.000000000000000000, 1.750000000000000000, 3.673940397442060361E-16 ) ) ;
#230 = ORIENTED_EDGE ( 'NONE', *, *, #228, .T. ) ;
#231 = CIRCLE ( 'NONE', #53, 1.000000000000000888 ) ;
#232 =( GEOMETRIC_REPRESENTATION_CONTEXT ( 3 ) GLOBAL_UNCERTAINTY_ASSIGNED_CONTEXT ( ( #304 ) ) GLOBAL_UNIT_ASSIGNED_CONTEXT ( ( #331, #206, #314 ) ) REPRESENTATION_CONTEXT ( 'NONE', 'WORKASPACE' ) );
#233 = ORIENTED_EDGE ( 'NONE', *, *, #154, .F. ) ;
#234 = APPLICATION_PROTOCOL_DEFINITION ( 'draft international standard', 'automotive_design', 1998, #310 ) ;
#235 = EDGE_CURVE ( 'NONE', #88, #478, #186, .T. ) ;
#236 = EDGE_LOOP ( 'NONE', ( #51, #173, #531, #14, #109, #446, #311, #371 ) ) ;
#237 = LINE ( 'NONE', #295, #256 ) ;
#238 = AXIS2_PLACEMENT_3D ( 'NONE', #290, #210, #241 ) ;
#239 = DIRECTION ( 'NONE',  ( -0.000000000000000000, 1.000000000000000000, -0.000000000000000000 ) ) ;
#240 = ADVANCED_FACE ( 'NONE', ( #47 ), #309, .F. ) ;
#241 = DIRECTION ( 'NONE',  ( 0.000000000000000000, 0.000000000000000000, -1.000000000000000000 ) ) ;
#242 = FACE_OUTER_BOUND ( 'NONE', #227, .T. ) ;
#243 = EDGE_CURVE ( 'NONE', #131, #320, #574, .T. ) ;
#244 = DIRECTION ( 'NONE',  ( -0.000000000000000000, 1.000000000000000000, -0.000000000000000000 ) ) ;
#245 = AXIS2_PLACEMENT_3D ( 'NONE', #316, #96, #535 ) ;
#246 = CIRCLE ( 'NONE', #69, 1.000000000000000888 ) ;
#247 = CARTESIAN_POINT ( 'NONE',  ( -9.000000000000001776, 1.750000000000000000, -9.000000000000003553 ) ) ;
#248 = CARTESIAN_POINT ( 'NONE',  ( -10.00000000000000178, 1.750000000000000000, -9.000000000000003553 ) ) ;
#249 = EDGE_CURVE ( 'NONE', #487, #117, #87, .T. ) ;
#250 = CARTESIAN_POINT ( 'NONE',  ( -10.00000000000000178, 1.750000000000000000, 9.000000000000001776 ) ) ;
#251 = CARTESIAN_POINT ( 'NONE',  ( 3.000000000000000000, 1.750000000000000000, 8.010749087384078097E-16 ) ) ;
#252 = ORIENTED_EDGE ( 'NONE', *, *, #463, .F. ) ;
#253 = PRESENTATION_STYLE_ASSIGNMENT (( #420 ) ) ;
#254 = FACE_OUTER_BOUND ( 'NONE', #236, .T. ) ;
#255 = ORIENTED_EDGE ( 'NONE', *, *, #387, .F. ) ;
#256 = VECTOR ( 'NONE', #157, 1000.000000000000000 ) ;
#257 = CIRCLE ( 'NONE', #405, 1.631949999999998457 ) ;
#258 = AXIS2_PLACEMENT_3D ( 'NONE', #532, #129, #274 ) ;
#259 = CARTESIAN_POINT ( 'NONE',  ( -9.000000000000001776, 0.000000000000000000, -9.000000000000003553 ) ) ;
#260 = ORIENTED_EDGE ( 'NONE', *, *, #376, .F. ) ;
#261 = DIRECTION ( 'NONE',  ( 1.000000000000000000, 0.000000000000000000, 0.000000000000000000 ) ) ;
#262 = EDGE_CURVE ( 'NONE', #462, #478, #488, .T. ) ;
#263 = CYLINDRICAL_SURFACE ( 'NONE', #332, 1.000000000000000888 ) ;
#264 = ORIENTED_EDGE ( 'NONE', *, *, #319, .T. ) ;
#265 = DIRECTION ( 'NONE',  ( -0.000000000000000000, 1.000000000000000000, -0.000000000000000000 ) ) ;
#266 = APPLICATION_CONTEXT ( 'automotive_design' ) ;
#267 = DIRECTION ( 'NONE',  ( 0.000000000000000000, 0.000000000000000000, -1.000000000000000000 ) ) ;
#268 = CARTESIAN_POINT ( 'NONE',  ( 3.000000000000000444, 1.750000000000000000, -2.603499999999999037 ) ) ;
#269 = CARTESIAN_POINT ( 'NONE',  ( 9.999999999999998224, 0.000000000000000000, 9.000000000000001776 ) ) ;
#270 = AXIS2_PLACEMENT_3D ( 'NONE', #385, #161, #23 ) ;
#271 = VECTOR ( 'NONE', #438, 1000.000000000000114 ) ;
#272 = EDGE_CURVE ( 'NONE', #170, #107, #479, .T. ) ;
#273 = CARTESIAN_POINT ( 'NONE',  ( -9.000000000000001776, 1.750000000000000000, 9.000000000000001776 ) ) ;
#274 = DIRECTION ( 'NONE',  ( 0.000000000000000000, 0.000000000000000000, 1.000000000000000000 ) ) ;
#275 = DIRECTION ( 'NONE',  ( -0.000000000000000000, 1.000000000000000000, -0.000000000000000000 ) ) ;
#276 = ORIENTED_EDGE ( 'NONE', *, *, #137, .F. ) ;
#277 = ORIENTED_EDGE ( 'NONE', *, *, #347, .F. ) ;
#278 = DIRECTION ( 'NONE',  ( -0.000000000000000000, 1.000000000000000000, -0.000000000000000000 ) ) ;
#279 = CARTESIAN_POINT ( 'NONE',  ( -10.00000000000000178, 1.750000000000000000, 9.000000000000001776 ) ) ;
#280 = ADVANCED_FACE ( 'NONE', ( #305 ), #171, .T. ) ;
#281 = CIRCLE ( 'NONE', #213, 1.631949999999998235 ) ;
#282 = AXIS2_PLACEMENT_3D ( 'NONE', #71, #379, #553 ) ;
#283 = CYLINDRICAL_SURFACE ( 'NONE', #59, 0.9999999999999991118 ) ;
#284 = CARTESIAN_POINT ( 'NONE',  ( -3.000000000000000000, 2.168404344971008868E-16, 1.631949999999998902 ) ) ;
#285 = DIRECTION ( 'NONE',  ( 1.000000000000000000, 0.000000000000000000, 0.000000000000000000 ) ) ;
#286 = EDGE_CURVE ( 'NONE', #107, #61, #493, .T. ) ;
#287 = AXIS2_PLACEMENT_3D ( 'NONE', #433, #221, #533 ) ;
#288 = ORIENTED_EDGE ( 'NONE', *, *, #376, .T. ) ;
#289 = EDGE_LOOP ( 'NONE', ( #92, #522, #366, #496 ) ) ;
#290 = CARTESIAN_POINT ( 'NONE',  ( -10.00000000000000178, 1.750000000000000000, 10.00000000000000000 ) ) ;
#291 = DIRECTION ( 'NONE',  ( -0.000000000000000000, 1.000000000000000000, -0.000000000000000000 ) ) ;
#292 = ORIENTED_EDGE ( 'NONE', *, *, #17, .F. ) ;
#293 = LINE ( 'NONE', #74, #524 ) ;
#294 = ADVANCED_FACE ( 'NONE', ( #394 ), #356, .F. ) ;
#295 = CARTESIAN_POINT ( 'NONE',  ( -10.00000000000000178, 1.750000000000000000, 10.00000000000000000 ) ) ;
#296 = CLOSED_SHELL ( 'NONE', ( #542, #1, #191, #144, #494, #172, #416, #294, #158, #209, #240, #165, #330, #185, #83, #307, #280, #58 ) ) ;
#297 = UNCERTAINTY_MEASURE_WITH_UNIT (LENGTH_MEASURE( 1.000000000000000082E-05 ), #181, 'distance_accuracy_value', 'NONE');
#298 = CIRCLE ( 'NONE', #124, 2.603499999999999925 ) ;
#299 = DIRECTION ( 'NONE',  ( -0.000000000000000000, 1.000000000000000000, -0.000000000000000000 ) ) ;
#300 = CARTESIAN_POINT ( 'NONE',  ( 9.999999999999998224, 1.750000000000000000, 10.00000000000000000 ) ) ;
#301 = ORIENTED_EDGE ( 'NONE', *, *, #77, .F. ) ;
#302 = DIRECTION ( 'NONE',  ( -0.000000000000000000, 1.000000000000000000, -0.000000000000000000 ) ) ;
#303 = ORIENTED_EDGE ( 'NONE', *, *, #154, .T. ) ;
#304 = UNCERTAINTY_MEASURE_WITH_UNIT (LENGTH_MEASURE( 1.000000000000000082E-05 ), #331, 'distance_accuracy_value', 'NONE');
#305 = FACE_OUTER_BOUND ( 'NONE', #408, .T. ) ;
#306 = ORIENTED_EDGE ( 'NONE', *, *, #126, .F. ) ;
#307 = ADVANCED_FACE ( 'NONE', ( #86 ), #263, .T. ) ;
#308 = AXIS2_PLACEMENT_3D ( 'NONE', #226, #530, #179 ) ;
#309 = CYLINDRICAL_SURFACE ( 'NONE', #308, 1.631949999999998679 ) ;
#310 = APPLICATION_CONTEXT ( 'automotive_design' ) ;
#311 = ORIENTED_EDGE ( 'NONE', *, *, #482, .F. ) ;
#312 = DIRECTION ( 'NONE',  ( 8.034405899049453799E-17, 0.7547095802227720140, -0.6560590289905072758 ) ) ;
#313 = VERTEX_POINT ( 'NONE', #391 ) ;
#314 =( NAMED_UNIT ( * ) SI_UNIT ( $, .STERADIAN. ) SOLID_ANGLE_UNIT ( ) );
#315 = DIRECTION ( 'NONE',  ( -1.000000000000000000, 0.000000000000000000, -0.000000000000000000 ) ) ;
#316 = CARTESIAN_POINT ( 'NONE',  ( -3.000000000000000000, 1.750000000000000000, 3.673940397442060361E-16 ) ) ;
#317 = DIRECTION ( 'NONE',  ( -1.000000000000000000, -0.000000000000000000, -0.000000000000000000 ) ) ;
#318 = STYLED_ITEM ( 'NONE', ( #253 ), #501 ) ;
#319 = EDGE_CURVE ( 'NONE', #20, #462, #97, .T. ) ;
#320 = VERTEX_POINT ( 'NONE', #269 ) ;
#321 = CARTESIAN_POINT ( 'NONE',  ( -3.000000000000000000, 1.750000000000000000, 1.631949999999999568 ) ) ;
#322 = LINE ( 'NONE', #52, #163 ) ;
#323 = DIRECTION ( 'NONE',  ( 0.000000000000000000, 0.000000000000000000, 1.000000000000000000 ) ) ;
#324 = AXIS2_PLACEMENT_3D ( 'NONE', #259, #218, #80 ) ;
#325 = ORIENTED_EDGE ( 'NONE', *, *, #95, .T. ) ;
#326 = DIRECTION ( 'NONE',  ( 0.000000000000000000, 0.000000000000000000, 1.000000000000000000 ) ) ;
#327 = CARTESIAN_POINT ( 'NONE',  ( -9.000000000000001776, 0.000000000000000000, -10.00000000000000000 ) ) ;
#328 = VERTEX_POINT ( 'NONE', #443 ) ;
#329 = DIRECTION ( 'NONE',  ( -0.000000000000000000, 1.000000000000000000, -0.000000000000000000 ) ) ;
#330 = ADVANCED_FACE ( 'NONE', ( #123 ), #50, .F. ) ;
#331 =( LENGTH_UNIT ( ) NAMED_UNIT ( * ) SI_UNIT ( .MILLI., .METRE. ) );
#332 = AXIS2_PLACEMENT_3D ( 'NONE', #90, #566, #38 ) ;
#333 = VECTOR ( 'NONE', #442, 1000.000000000000000 ) ;
#334 = DIRECTION ( 'NONE',  ( -0.000000000000000000, 1.000000000000000000, -0.000000000000000000 ) ) ;
#335 = EDGE_CURVE ( 'NONE', #568, #575, #349, .T. ) ;
#336 = CARTESIAN_POINT ( 'NONE',  ( -2.999999999999999556, 1.750000000000000000, -2.603499999999999481 ) ) ;
#337 = FACE_OUTER_BOUND ( 'NONE', #389, .T. ) ;
#338 = DIRECTION ( 'NONE',  ( 0.000000000000000000, 0.000000000000000000, 1.000000000000000000 ) ) ;
#339 = DIRECTION ( 'NONE',  ( 0.000000000000000000, 0.000000000000000000, 1.000000000000000000 ) ) ;
#340 = ORIENTED_EDGE ( 'NONE', *, *, #548, .T. ) ;
#341 = CIRCLE ( 'NONE', #324, 0.9999999999999991118 ) ;
#342 = VECTOR ( 'NONE', #261, 1000.000000000000000 ) ;
#343 = DIRECTION ( 'NONE',  ( -0.000000000000000000, 1.000000000000000000, -0.000000000000000000 ) ) ;
#344 = CARTESIAN_POINT ( 'NONE',  ( 9.999999999999998224, 1.750000000000000000, 9.000000000000001776 ) ) ;
#345 = ORIENTED_EDGE ( 'NONE', *, *, #395, .T. ) ;
#346 = FACE_OUTER_BOUND ( 'NONE', #425, .T. ) ;
#347 = EDGE_CURVE ( 'NONE', #328, #504, #377, .T. ) ;
#348 = VERTEX_POINT ( 'NONE', #483 ) ;
#349 = LINE ( 'NONE', #184, #176 ) ;
#350 = ORIENTED_EDGE ( 'NONE', *, *, #243, .T. ) ;
#351 = AXIS2_PLACEMENT_3D ( 'NONE', #564, #169, #545 ) ;
#352 = DIRECTION ( 'NONE',  ( 0.000000000000000000, 0.000000000000000000, 1.000000000000000000 ) ) ;
#353 = CARTESIAN_POINT ( 'NONE',  ( 3.000000000000000000, 2.168404344971008868E-16, 8.010749087384078097E-16 ) ) ;
#354 = ORIENTED_EDGE ( 'NONE', *, *, #555, .T. ) ;
#355 = EDGE_CURVE ( 'NONE', #396, #107, #341, .T. ) ;
#356 = PLANE ( 'NONE',  #536 ) ;
#357 = EDGE_LOOP ( 'NONE', ( #12, #573, #292, #414 ) ) ;
#358 = DIRECTION ( 'NONE',  ( 0.000000000000000000, 0.000000000000000000, 1.000000000000000000 ) ) ;
#359 = ORIENTED_EDGE ( 'NONE', *, *, #235, .F. ) ;
#360 = CIRCLE ( 'NONE', #429, 1.000000000000000888 ) ;
#361 = AXIS2_PLACEMENT_3D ( 'NONE', #229, #402, #5 ) ;
#362 = MECHANICAL_DESIGN_GEOMETRIC_PRESENTATION_REPRESENTATION (  '', ( #318 ), #232 ) ;
#363 = EDGE_LOOP ( 'NONE', ( #103, #434 ) ) ;
#364 = CARTESIAN_POINT ( 'NONE',  ( 8.999999999999998224, 1.750000000000000000, 9.000000000000001776 ) ) ;
#365 = EDGE_CURVE ( 'NONE', #117, #20, #223, .T. ) ;
#366 = ORIENTED_EDGE ( 'NONE', *, *, #355, .F. ) ;
#367 = DIRECTION ( 'NONE',  ( 0.000000000000000000, 0.000000000000000000, -1.000000000000000000 ) ) ;
#368 = SHAPE_DEFINITION_REPRESENTATION ( #552, #146 ) ;
#369 = VECTOR ( 'NONE', #424, 1000.000000000000000 ) ;
#370 = CARTESIAN_POINT ( 'NONE',  ( 9.999999999999998224, 0.000000000000000000, -9.000000000000003553 ) ) ;
#371 = ORIENTED_EDGE ( 'NONE', *, *, #526, .T. ) ;
#372 = EDGE_CURVE ( 'NONE', #117, #487, #257, .T. ) ;
#373 = EDGE_LOOP ( 'NONE', ( #260, #81, #39, #149 ) ) ;
#374 = FILL_AREA_STYLE_COLOUR ( '', #441 ) ;
#375 = LINE ( 'NONE', #64, #561 ) ;
#376 = EDGE_CURVE ( 'NONE', #73, #162, #115, .T. ) ;
#377 = CIRCLE ( 'NONE', #104, 1.631949999999998235 ) ;
#378 = ORIENTED_EDGE ( 'NONE', *, *, #534, .T. ) ;
#379 = DIRECTION ( 'NONE',  ( -1.000000000000000000, 0.000000000000000000, 0.000000000000000000 ) ) ;
#380 = LINE ( 'NONE', #300, #490 ) ;
#381 = DIRECTION ( 'NONE',  ( -0.000000000000000000, 1.000000000000000000, -0.000000000000000000 ) ) ;
#382 = DIRECTION ( 'NONE',  ( 0.000000000000000000, 0.000000000000000000, 1.000000000000000000 ) ) ;
#383 = ORIENTED_EDGE ( 'NONE', *, *, #567, .T. ) ;
#384 = DIRECTION ( 'NONE',  ( 0.000000000000000000, 0.000000000000000000, -1.000000000000000000 ) ) ;
#385 = CARTESIAN_POINT ( 'NONE',  ( 3.000000000000000000, 1.750000000000000000, 8.010749087384078097E-16 ) ) ;
#386 = ORIENTED_EDGE ( 'NONE', *, *, #410, .T. ) ;
#387 = EDGE_CURVE ( 'NONE', #413, #131, #246, .T. ) ;
#388 = PLANE ( 'NONE',  #351 ) ;
#389 = EDGE_LOOP ( 'NONE', ( #113, #386, #303, #288, #155, #565, #517, #150 ) ) ;
#390 = FACE_OUTER_BOUND ( 'NONE', #106, .T. ) ;
#391 = CARTESIAN_POINT ( 'NONE',  ( 9.999999999999998224, 1.750000000000000000, -9.000000000000003553 ) ) ;
#392 = EDGE_LOOP ( 'NONE', ( #431, #547, #27, #202 ) ) ;
#393 = CARTESIAN_POINT ( 'NONE',  ( -3.000000000000000000, 1.750000000000000000, 2.603500000000000369 ) ) ;
#394 = FACE_OUTER_BOUND ( 'NONE', #512, .T. ) ;
#395 = EDGE_CURVE ( 'NONE', #320, #188, #461, .T. ) ;
#396 = VERTEX_POINT ( 'NONE', #203 ) ;
#397 = VECTOR ( 'NONE', #509, 1000.000000000000000 ) ;
#398 = CARTESIAN_POINT ( 'NONE',  ( -2.999999999999999556, 1.750000000000000000, -2.603499999999999481 ) ) ;
#399 = VERTEX_POINT ( 'NONE', #28 ) ;
#400 = CARTESIAN_POINT ( 'NONE',  ( 9.999999999999998224, 1.750000000000000000, 9.000000000000001776 ) ) ;
#401 = DIRECTION ( 'NONE',  ( 0.000000000000000000, 0.000000000000000000, -1.000000000000000000 ) ) ;
#402 = DIRECTION ( 'NONE',  ( -0.000000000000000000, 1.000000000000000000, -0.000000000000000000 ) ) ;
#403 = ORIENTED_EDGE ( 'NONE', *, *, #199, .F. ) ;
#404 = AXIS2_PLACEMENT_3D ( 'NONE', #407, #9, #323 ) ;
#405 = AXIS2_PLACEMENT_3D ( 'NONE', #456, #239, #93 ) ;
#406 = EDGE_CURVE ( 'NONE', #462, #20, #470, .T. ) ;
#407 = CARTESIAN_POINT ( 'NONE',  ( 3.000000000000000000, 0.6323595739644282121, 8.010749087384078097E-16 ) ) ;
#408 = EDGE_LOOP ( 'NONE', ( #255, #529, #67, #180 ) ) ;
#409 = DIRECTION ( 'NONE',  ( 0.000000000000000000, 0.000000000000000000, 1.000000000000000000 ) ) ;
#410 = EDGE_CURVE ( 'NONE', #61, #399, #544, .T. ) ;
#411 = EDGE_LOOP ( 'NONE', ( #105, #159 ) ) ;
#412 = LINE ( 'NONE', #476, #480 ) ;
#413 = VERTEX_POINT ( 'NONE', #510 ) ;
#414 = ORIENTED_EDGE ( 'NONE', *, *, #548, .F. ) ;
#415 = DIRECTION ( 'NONE',  ( 0.000000000000000000, -1.000000000000000000, 0.000000000000000000 ) ) ;
#416 = ADVANCED_FACE ( 'NONE', ( #242 ), #62, .F. ) ;
#417 = PLANE ( 'NONE',  #500 ) ;
#418 = CONICAL_SURFACE ( 'NONE', #458, 2.603499999999999925, 0.7155849933176752220 ) ;
#419 = AXIS2_PLACEMENT_3D ( 'NONE', #174, #42, #352 ) ;
#420 = SURFACE_STYLE_USAGE ( .BOTH. , #118 ) ;
#421 = CARTESIAN_POINT ( 'NONE',  ( -9.000000000000001776, 1.750000000000000000, 10.00000000000000000 ) ) ;
#422 = ORIENTED_EDGE ( 'NONE', *, *, #37, .F. ) ;
#423 = CARTESIAN_POINT ( 'NONE',  ( 3.000000000000000000, 0.6323595739644282121, 8.010749087384078097E-16 ) ) ;
#424 = DIRECTION ( 'NONE',  ( -0.000000000000000000, 1.000000000000000000, -0.000000000000000000 ) ) ;
#425 = EDGE_LOOP ( 'NONE', ( #484, #301, #195, #112 ) ) ;
#426 = EDGE_CURVE ( 'NONE', #197, #128, #412, .T. ) ;
#427 = CARTESIAN_POINT ( 'NONE',  ( -3.000000000000000000, 0.6323595739644282121, -1.631949999999999124 ) ) ;
#428 = DIRECTION ( 'NONE',  ( -0.000000000000000000, -1.000000000000000000, 0.000000000000000000 ) ) ;
#429 = AXIS2_PLACEMENT_3D ( 'NONE', #541, #91, #367 ) ;
#430 = VECTOR ( 'NONE', #312, 1000.000000000000114 ) ;
#431 = ORIENTED_EDGE ( 'NONE', *, *, #249, .F. ) ;
#432 = AXIS2_PLACEMENT_3D ( 'NONE', #423, #168, #36 ) ;
#433 = CARTESIAN_POINT ( 'NONE',  ( 8.999999999999998224, 1.750000000000000000, 9.000000000000001776 ) ) ;
#434 = ORIENTED_EDGE ( 'NONE', *, *, #249, .T. ) ;
#435 = DIRECTION ( 'NONE',  ( 0.000000000000000000, -1.000000000000000000, 0.000000000000000000 ) ) ;
#436 = CARTESIAN_POINT ( 'NONE',  ( -3.000000000000000000, 1.750000000000000000, 3.673940397442060361E-16 ) ) ;
#437 = ORIENTED_EDGE ( 'NONE', *, *, #126, .T. ) ;
#438 = DIRECTION ( 'NONE',  ( 0.000000000000000000, 0.7547095802227720140, 0.6560590289905072758 ) ) ;
#439 = DIRECTION ( 'NONE',  ( 0.000000000000000000, 0.000000000000000000, 1.000000000000000000 ) ) ;
#440 = CYLINDRICAL_SURFACE ( 'NONE', #505, 1.000000000000000888 ) ;
#441 = COLOUR_RGB ( '',0.7921568627450980005, 0.8196078431372548767, 0.9333333333333333481 ) ;
#442 = DIRECTION ( 'NONE',  ( -0.000000000000000000, 1.000000000000000000, -0.000000000000000000 ) ) ;
#443 = CARTESIAN_POINT ( 'NONE',  ( 3.000000000000000000, 2.168404344971008868E-16, -1.631949999999997569 ) ) ;
#444 = DIRECTION ( 'NONE',  ( -0.000000000000000000, 1.000000000000000000, -0.000000000000000000 ) ) ;
#445 = LINE ( 'NONE', #121, #214 ) ;
#446 = ORIENTED_EDGE ( 'NONE', *, *, #453, .T. ) ;
#447 = EDGE_CURVE ( 'NONE', #162, #225, #375, .T. ) ;
#448 = DIRECTION ( 'NONE',  ( 0.000000000000000000, 0.000000000000000000, -1.000000000000000000 ) ) ;
#449 = CARTESIAN_POINT ( 'NONE',  ( -3.000000000000000000, 1.750000000000000000, -1.631949999999998679 ) ) ;
#450 = CARTESIAN_POINT ( 'NONE',  ( 0.000000000000000000, 0.000000000000000000, 0.000000000000000000 ) ) ;
#451 = VECTOR ( 'NONE', #329, 1000.000000000000000 ) ;
#452 = FACE_OUTER_BOUND ( 'NONE', #392, .T. ) ;
#453 = EDGE_CURVE ( 'NONE', #320, #212, #231, .T. ) ;
#454 = CARTESIAN_POINT ( 'NONE',  ( 8.999999999999998224, 0.000000000000000000, 10.00000000000000000 ) ) ;
#455 = AXIS2_PLACEMENT_3D ( 'NONE', #207, #291, #465 ) ;
#456 = CARTESIAN_POINT ( 'NONE',  ( -3.000000000000000000, 2.168404344971008868E-16, 3.673940397442060361E-16 ) ) ;
#457 = AXIS2_PLACEMENT_3D ( 'NONE', #66, #116, #32 ) ;
#458 = AXIS2_PLACEMENT_3D ( 'NONE', #26, #302, #382 ) ;
#459 = PRESENTATION_LAYER_ASSIGNMENT (  '', '', ( #318 ) ) ;
#460 = ORIENTED_EDGE ( 'NONE', *, *, #507, .T. ) ;
#461 = LINE ( 'NONE', #156, #397 ) ;
#462 = VERTEX_POINT ( 'NONE', #427 ) ;
#463 = EDGE_CURVE ( 'NONE', #128, #575, #298, .T. ) ;
#464 = DIRECTION ( 'NONE',  ( 0.000000000000000000, 0.7547095802227717920, 0.6560590289905074979 ) ) ;
#465 = DIRECTION ( 'NONE',  ( 0.000000000000000000, 0.000000000000000000, 1.000000000000000000 ) ) ;
#466 = ORIENTED_EDGE ( 'NONE', *, *, #272, .T. ) ;
#467 = FILL_AREA_STYLE ('',( #374 ) ) ;
#468 = CARTESIAN_POINT ( 'NONE',  ( 3.000000000000000000, 1.750000000000000000, -1.631949999999997791 ) ) ;
#469 = CIRCLE ( 'NONE', #404, 1.631949999999999124 ) ;
#470 = CIRCLE ( 'NONE', #224, 1.631949999999999568 ) ;
#471 = ORIENTED_EDGE ( 'NONE', *, *, #514, .F. ) ;
#472 = LINE ( 'NONE', #250, #22 ) ;
#473 = CYLINDRICAL_SURFACE ( 'NONE', #455, 1.631949999999998679 ) ;
#474 = EDGE_CURVE ( 'NONE', #504, #197, #549, .T. ) ;
#475 = ORIENTED_EDGE ( 'NONE', *, *, #286, .T. ) ;
#476 = CARTESIAN_POINT ( 'NONE',  ( 3.000000000000000000, 1.750000000000000000, 2.603500000000000814 ) ) ;
#477 = DIRECTION ( 'NONE',  ( 0.000000000000000000, 0.000000000000000000, 1.000000000000000000 ) ) ;
#478 = VERTEX_POINT ( 'NONE', #336 ) ;
#479 = LINE ( 'NONE', #486, #7 ) ;
#480 = VECTOR ( 'NONE', #464, 1000.000000000000000 ) ;
#481 = EDGE_LOOP ( 'NONE', ( #345, #354, #276, #350 ) ) ;
#482 = EDGE_CURVE ( 'NONE', #225, #212, #293, .T. ) ;
#483 = CARTESIAN_POINT ( 'NONE',  ( 8.999999999999998224, 1.750000000000000000, -10.00000000000000000 ) ) ;
#484 = ORIENTED_EDGE ( 'NONE', *, *, #335, .F. ) ;
#485 = LINE ( 'NONE', #563, #342 ) ;
#486 = CARTESIAN_POINT ( 'NONE',  ( -10.00000000000000178, 0.000000000000000000, -10.00000000000000000 ) ) ;
#487 = VERTEX_POINT ( 'NONE', #513 ) ;
#488 = LINE ( 'NONE', #398, #430 ) ;
#489 = DIRECTION ( 'NONE',  ( -0.000000000000000000, 1.000000000000000000, -0.000000000000000000 ) ) ;
#490 = VECTOR ( 'NONE', #503, 1000.000000000000000 ) ;
#491 = AXIS2_PLACEMENT_3D ( 'NONE', #10, #278, #448 ) ;
#492 = DIRECTION ( 'NONE',  ( 0.000000000000000000, 0.000000000000000000, -1.000000000000000000 ) ) ;
#493 = LINE ( 'NONE', #528, #194 ) ;
#494 = ADVANCED_FACE ( 'NONE', ( #114 ), #518, .F. ) ;
#495 = DIRECTION ( 'NONE',  ( -1.000000000000000000, -0.000000000000000000, -0.000000000000000000 ) ) ;
#496 = ORIENTED_EDGE ( 'NONE', *, *, #95, .F. ) ;
#497 = CYLINDRICAL_SURFACE ( 'NONE', #245, 1.631949999999999124 ) ;
#498 = FACE_OUTER_BOUND ( 'NONE', #289, .T. ) ;
#499 = EDGE_CURVE ( 'NONE', #167, #73, #472, .T. ) ;
#500 = AXIS2_PLACEMENT_3D ( 'NONE', #111, #409, #70 ) ;
#501 = MANIFOLD_SOLID_BREP ( 'Fillet2', #296 ) ;
#502 = CARTESIAN_POINT ( 'NONE',  ( 3.000000000000000000, 2.168404344971008868E-16, 8.010749087384078097E-16 ) ) ;
#503 = DIRECTION ( 'NONE',  ( 0.000000000000000000, 0.000000000000000000, -1.000000000000000000 ) ) ;
#504 = VERTEX_POINT ( 'NONE', #220 ) ;
#505 = AXIS2_PLACEMENT_3D ( 'NONE', #273, #139, #401 ) ;
#506 = CIRCLE ( 'NONE', #419, 2.603499999999999925 ) ;
#507 = EDGE_CURVE ( 'NONE', #568, #197, #98, .T. ) ;
#508 = ORIENTED_EDGE ( 'NONE', *, *, #319, .F. ) ;
#509 = DIRECTION ( 'NONE',  ( 0.000000000000000000, 0.000000000000000000, -1.000000000000000000 ) ) ;
#510 = CARTESIAN_POINT ( 'NONE',  ( 8.999999999999998224, 1.750000000000000000, 10.00000000000000000 ) ) ;
#511 = PLANE ( 'NONE',  #457 ) ;
#512 = EDGE_LOOP ( 'NONE', ( #84, #230, #471, #63 ) ) ;
#513 = CARTESIAN_POINT ( 'NONE',  ( -3.000000000000000000, 2.168404344971008868E-16, -1.631949999999998013 ) ) ;
#514 = EDGE_CURVE ( 'NONE', #162, #413, #485, .T. ) ;
#515 = CARTESIAN_POINT ( 'NONE',  ( 3.000000000000000000, 0.6323595739644282121, 1.631950000000000012 ) ) ;
#516 = CONICAL_SURFACE ( 'NONE', #134, 2.603499999999999925, 0.7155849933176754440 ) ;
#517 = ORIENTED_EDGE ( 'NONE', *, *, #137, .T. ) ;
#518 = PLANE ( 'NONE',  #282 ) ;
#519 = FACE_BOUND ( 'NONE', #35, .T. ) ;
#520 = ORIENTED_EDGE ( 'NONE', *, *, #372, .F. ) ;
#521 = DIRECTION ( 'NONE',  ( -0.000000000000000000, 1.000000000000000000, -0.000000000000000000 ) ) ;
#522 = ORIENTED_EDGE ( 'NONE', *, *, #286, .F. ) ;
#523 = DIRECTION ( 'NONE',  ( 0.000000000000000000, 0.000000000000000000, -1.000000000000000000 ) ) ;
#524 = VECTOR ( 'NONE', #21, 1000.000000000000000 ) ;
#525 = ORIENTED_EDGE ( 'NONE', *, *, #262, .F. ) ;
#526 = EDGE_CURVE ( 'NONE', #225, #167, #187, .T. ) ;
#527 = CARTESIAN_POINT ( 'NONE',  ( 3.000000000000000000, 0.6323595739644282121, -1.631949999999998235 ) ) ;
#528 = CARTESIAN_POINT ( 'NONE',  ( -9.000000000000001776, 1.750000000000000000, -10.00000000000000000 ) ) ;
#529 = ORIENTED_EDGE ( 'NONE', *, *, #228, .F. ) ;
#530 = DIRECTION ( 'NONE',  ( -0.000000000000000000, 1.000000000000000000, -0.000000000000000000 ) ) ;
#531 = ORIENTED_EDGE ( 'NONE', *, *, #272, .F. ) ;
#532 = CARTESIAN_POINT ( 'NONE',  ( -3.000000000000000000, 1.750000000000000000, 3.673940397442060361E-16 ) ) ;
#533 = DIRECTION ( 'NONE',  ( 0.000000000000000000, 0.000000000000000000, -1.000000000000000000 ) ) ;
#534 = EDGE_CURVE ( 'NONE', #20, #88, #2, .T. ) ;
#535 = DIRECTION ( 'NONE',  ( 0.000000000000000000, 0.000000000000000000, 1.000000000000000000 ) ) ;
#536 = AXIS2_PLACEMENT_3D ( 'NONE', #130, #523, #315 ) ;
#537 = AXIS2_PLACEMENT_3D ( 'NONE', #436, #182, #127 ) ;
#538 = CONICAL_SURFACE ( 'NONE', #258, 2.603499999999999925, 0.7155849933176752220 ) ;
#539 = ORIENTED_EDGE ( 'NONE', *, *, #8, .F. ) ;
#540 = LINE ( 'NONE', #46, #192 ) ;
#541 = CARTESIAN_POINT ( 'NONE',  ( 8.999999999999998224, 1.750000000000000000, -9.000000000000001776 ) ) ;
#542 = ADVANCED_FACE ( 'NONE', ( #390 ), #538, .F. ) ;
#543 = ORIENTED_EDGE ( 'NONE', *, *, #365, .T. ) ;
#544 = CIRCLE ( 'NONE', #152, 0.9999999999999991118 ) ;
#545 = DIRECTION ( 'NONE',  ( 0.000000000000000000, -0.000000000000000000, -1.000000000000000000 ) ) ;
#546 = EDGE_LOOP ( 'NONE', ( #141, #48, #558, #25 ) ) ;
#547 = ORIENTED_EDGE ( 'NONE', *, *, #37, .T. ) ;
#548 = EDGE_CURVE ( 'NONE', #348, #170, #85, .T. ) ;
#549 = LINE ( 'NONE', #559, #201 ) ;
#550 = CONICAL_SURFACE ( 'NONE', #270, 2.603499999999999925, 0.7155849933176754440 ) ;
#551 = VECTOR ( 'NONE', #132, 1000.000000000000000 ) ;
#552 = PRODUCT_DEFINITION_SHAPE ( 'NONE', 'NONE',  #205 ) ;
#553 = DIRECTION ( 'NONE',  ( 0.000000000000000000, 0.000000000000000000, 1.000000000000000000 ) ) ;
#554 = FACE_OUTER_BOUND ( 'NONE', #208, .T. ) ;
#555 = EDGE_CURVE ( 'NONE', #188, #313, #31, .T. ) ;
#556 = DIRECTION ( 'NONE',  ( 0.000000000000000000, 0.000000000000000000, -1.000000000000000000 ) ) ;
#557 = FACE_OUTER_BOUND ( 'NONE', #546, .T. ) ;
#558 = ORIENTED_EDGE ( 'NONE', *, *, #199, .T. ) ;
#559 = CARTESIAN_POINT ( 'NONE',  ( 3.000000000000000000, 1.750000000000000000, 1.631949999999999568 ) ) ;
#560 = CARTESIAN_POINT ( 'NONE',  ( 3.000000000000000000, 1.750000000000000000, 8.010749087384078097E-16 ) ) ;
#561 = VECTOR ( 'NONE', #19, 1000.000000000000000 ) ;
#562 = EDGE_LOOP ( 'NONE', ( #422, #520, #543, #264 ) ) ;
#563 = CARTESIAN_POINT ( 'NONE',  ( -10.00000000000000178, 1.750000000000000000, 10.00000000000000000 ) ) ;
#564 = CARTESIAN_POINT ( 'NONE',  ( 0.000000000000000000, 0.000000000000000000, 0.000000000000000000 ) ) ;
#565 = ORIENTED_EDGE ( 'NONE', *, *, #387, .T. ) ;
#566 = DIRECTION ( 'NONE',  ( 0.000000000000000000, -1.000000000000000000, 0.000000000000000000 ) ) ;
#567 = EDGE_CURVE ( 'NONE', #478, #88, #506, .T. ) ;
#568 = VERTEX_POINT ( 'NONE', #527 ) ;
#569 = CARTESIAN_POINT ( 'NONE',  ( 8.999999999999998224, 1.750000000000000000, -10.00000000000000000 ) ) ;
#570 = DIRECTION ( 'NONE',  ( 0.000000000000000000, 0.000000000000000000, 1.000000000000000000 ) ) ;
#571 = AXIS2_PLACEMENT_3D ( 'NONE', #135, #190, #267 ) ;
#572 = AXIS2_PLACEMENT_3D ( 'NONE', #560, #166, #477 ) ;
#573 = ORIENTED_EDGE ( 'NONE', *, *, #555, .F. ) ;
#574 = LINE ( 'NONE', #400, #45 ) ;
#575 = VERTEX_POINT ( 'NONE', #268 ) ;
ENDSEC;
END-ISO-10303-21;
