ISO-10303-21;
HEADER;
FILE_DESCRIPTION (( 'STEP AP214' ),
    '1' );
FILE_NAME ('P001-B118_SpoolWasher-2.STEP',
    '2026-05-18T07:44:20',
    ( '' ),
    ( '' ),
    'SwSTEP 2.0',
    'SolidWorks 2026',
    '' );
FILE_SCHEMA (( 'AUTOMOTIVE_DESIGN' ));
ENDSEC;

DATA;
#1 = CARTESIAN_POINT ( 'NONE',  ( 19.00000000000000000, 0.000000000000000000, 0.000000000000000000 ) ) ;
#2 = EDGE_CURVE ( 'NONE', #397, #174, #214, .T. ) ;
#3 = ADVANCED_FACE ( 'NONE', ( #74 ), #135, .F. ) ;
#4 = CARTESIAN_POINT ( 'NONE',  ( 5.000000000000000000, 0.000000000000000000, 0.000000000000000000 ) ) ;
#5 = PRESENTATION_LAYER_ASSIGNMENT (  '', '', ( #61 ) ) ;
#6 = CARTESIAN_POINT ( 'NONE',  ( 19.00000000000000000, 0.000000000000000000, 11.99999999999999645 ) ) ;
#7 =( GEOMETRIC_REPRESENTATION_CONTEXT ( 3 ) GLOBAL_UNCERTAINTY_ASSIGNED_CONTEXT ( ( #125 ) ) GLOBAL_UNIT_ASSIGNED_CONTEXT ( ( #199, #14, #201 ) ) REPRESENTATION_CONTEXT ( 'NONE', 'WORKASPACE' ) );
#8 = CARTESIAN_POINT ( 'NONE',  ( 5.000000000000000000, 0.000000000000000000, 27.00000000000000711 ) ) ;
#9 = LINE ( 'NONE', #341, #45 ) ;
#10 = CARTESIAN_POINT ( 'NONE',  ( 19.00000000000000000, 1.469576158976823553E-15, -11.99999999999999645 ) ) ;
#11 = DIRECTION ( 'NONE',  ( -1.000000000000000000, 0.000000000000000000, 0.000000000000000000 ) ) ;
#12 = CARTESIAN_POINT ( 'NONE',  ( 4.000000000000000000, 1.469576158976823553E-15, -11.99999999999999645 ) ) ;
#13 = CARTESIAN_POINT ( 'NONE',  ( 5.000000000000000000, 0.000000000000000000, 0.000000000000000000 ) ) ;
#14 =( NAMED_UNIT ( * ) PLANE_ANGLE_UNIT ( ) SI_UNIT ( $, .RADIAN. ) );
#15 = ORIENTED_EDGE ( 'NONE', *, *, #219, .F. ) ;
#16 = EDGE_CURVE ( 'NONE', #19, #272, #34, .T. ) ;
#17 = EDGE_CURVE ( 'NONE', #109, #228, #111, .T. ) ;
#18 = EDGE_LOOP ( 'NONE', ( #25, #204, #55, #301 ) ) ;
#19 = VERTEX_POINT ( 'NONE', #106 ) ;
#20 = ORIENTED_EDGE ( 'NONE', *, *, #65, .T. ) ;
#21 = VERTEX_POINT ( 'NONE', #44 ) ;
#22 = CIRCLE ( 'NONE', #300, 27.50000000000000000 ) ;
#23 = EDGE_CURVE ( 'NONE', #177, #21, #238, .T. ) ;
#24 = EDGE_LOOP ( 'NONE', ( #372, #297 ) ) ;
#25 = ORIENTED_EDGE ( 'NONE', *, *, #23, .F. ) ;
#26 = CARTESIAN_POINT ( 'NONE',  ( 19.00000000000000000, 0.000000000000000000, 11.99999999999999645 ) ) ;
#27 = DIRECTION ( 'NONE',  ( 0.000000000000000000, 0.000000000000000000, -1.000000000000000000 ) ) ;
#28 = DIRECTION ( 'NONE',  ( 0.000000000000000000, 0.000000000000000000, 1.000000000000000000 ) ) ;
#29 = FACE_OUTER_BOUND ( 'NONE', #119, .T. ) ;
#30 = AXIS2_PLACEMENT_3D ( 'NONE', #13, #316, #73 ) ;
#31 = CARTESIAN_POINT ( 'NONE',  ( 4.499999999999985789, 0.000000000000000000, 27.50000000000000000 ) ) ;
#32 = PRODUCT_RELATED_PRODUCT_CATEGORY ( 'part', '', ( #340 ) ) ;
#33 = LINE ( 'NONE', #354, #350 ) ;
#34 = CIRCLE ( 'NONE', #159, 27.00000000000000711 ) ;
#35 = DIRECTION ( 'NONE',  ( 1.000000000000000000, 0.000000000000000000, 0.000000000000000000 ) ) ;
#36 = CARTESIAN_POINT ( 'NONE',  ( 19.00000000000000000, 1.469576158976823553E-15, -11.99999999999999645 ) ) ;
#37 = AXIS2_PLACEMENT_3D ( 'NONE', #363, #38, #48 ) ;
#38 = DIRECTION ( 'NONE',  ( 1.000000000000000000, 0.000000000000000000, 0.000000000000000000 ) ) ;
#39 = FACE_BOUND ( 'NONE', #24, .T. ) ;
#40 = ORIENTED_EDGE ( 'NONE', *, *, #2, .T. ) ;
#41 = DIRECTION ( 'NONE',  ( 1.000000000000000000, 0.000000000000000000, 0.000000000000000000 ) ) ;
#42 = CARTESIAN_POINT ( 'NONE',  ( 19.00000000000000000, 0.000000000000000000, 0.000000000000000000 ) ) ;
#43 = CIRCLE ( 'NONE', #30, 15.00000000000000000 ) ;
#44 = CARTESIAN_POINT ( 'NONE',  ( 4.000000000000000000, 1.836970198721029589E-15, -15.00000000000000000 ) ) ;
#45 = VECTOR ( 'NONE', #94, 1000.000000000000000 ) ;
#46 = EDGE_CURVE ( 'NONE', #299, #88, #188, .T. ) ;
#47 = ORIENTED_EDGE ( 'NONE', *, *, #264, .T. ) ;
#48 = DIRECTION ( 'NONE',  ( 0.000000000000000000, 0.000000000000000000, -1.000000000000000000 ) ) ;
#49 = ORIENTED_EDGE ( 'NONE', *, *, #46, .T. ) ;
#50 = FACE_OUTER_BOUND ( 'NONE', #394, .T. ) ;
#51 = ORIENTED_EDGE ( 'NONE', *, *, #16, .F. ) ;
#52 = VERTEX_POINT ( 'NONE', #10 ) ;
#53 = ADVANCED_FACE ( 'NONE', ( #50 ), #170, .F. ) ;
#54 = ORIENTED_EDGE ( 'NONE', *, *, #17, .T. ) ;
#55 = ORIENTED_EDGE ( 'NONE', *, *, #91, .T. ) ;
#56 = CARTESIAN_POINT ( 'NONE',  ( 5.000000000000000000, 0.000000000000000000, 0.000000000000000000 ) ) ;
#57 = VERTEX_POINT ( 'NONE', #71 ) ;
#58 = AXIS2_PLACEMENT_3D ( 'NONE', #393, #108, #79 ) ;
#59 = DIRECTION ( 'NONE',  ( 0.000000000000000000, 0.000000000000000000, 1.000000000000000000 ) ) ;
#60 = CONICAL_SURFACE ( 'NONE', #110, 27.00000000000000711, 0.7853981633974275178 ) ;
#61 = STYLED_ITEM ( 'NONE', ( #162 ), #400 ) ;
#62 = CARTESIAN_POINT ( 'NONE',  ( 4.000000000000000000, 0.000000000000000000, 0.000000000000000000 ) ) ;
#63 = DIRECTION ( 'NONE',  ( -1.000000000000000000, -0.000000000000000000, -0.000000000000000000 ) ) ;
#64 = AXIS2_PLACEMENT_3D ( 'NONE', #355, #227, #67 ) ;
#65 = EDGE_CURVE ( 'NONE', #293, #52, #403, .T. ) ;
#66 = DIRECTION ( 'NONE',  ( 0.000000000000000000, 0.000000000000000000, -1.000000000000000000 ) ) ;
#67 = DIRECTION ( 'NONE',  ( 0.000000000000000000, 0.000000000000000000, 1.000000000000000000 ) ) ;
#68 =( NAMED_UNIT ( * ) PLANE_ANGLE_UNIT ( ) SI_UNIT ( $, .RADIAN. ) );
#69 = CARTESIAN_POINT ( 'NONE',  ( 4.000000000000000000, 0.000000000000000000, 0.000000000000000000 ) ) ;
#70 = CIRCLE ( 'NONE', #216, 27.50000000000000000 ) ;
#71 = CARTESIAN_POINT ( 'NONE',  ( 19.00000000000000000, 0.000000000000000000, 3.429000000000000270 ) ) ;
#72 = SURFACE_STYLE_USAGE ( .BOTH. , #287 ) ;
#73 = DIRECTION ( 'NONE',  ( 0.000000000000000000, 0.000000000000000000, -1.000000000000000000 ) ) ;
#74 = FACE_OUTER_BOUND ( 'NONE', #103, .T. ) ;
#75 = FACE_OUTER_BOUND ( 'NONE', #295, .T. ) ;
#76 = DIRECTION ( 'NONE',  ( -1.000000000000000000, -0.000000000000000000, -0.000000000000000000 ) ) ;
#77 = EDGE_CURVE ( 'NONE', #331, #177, #43, .T. ) ;
#78 = ADVANCED_FACE ( 'NONE', ( #385 ), #383, .T. ) ;
#79 = DIRECTION ( 'NONE',  ( 0.000000000000000000, 0.000000000000000000, 1.000000000000000000 ) ) ;
#80 = AXIS2_PLACEMENT_3D ( 'NONE', #319, #326, #66 ) ;
#81 = CARTESIAN_POINT ( 'NONE',  ( 5.000000000000000000, 1.836970198721029589E-15, -15.00000000000000000 ) ) ;
#82 = ORIENTED_EDGE ( 'NONE', *, *, #23, .T. ) ;
#83 = CARTESIAN_POINT ( 'NONE',  ( 5.000000000000000000, 0.000000000000000000, 0.000000000000000000 ) ) ;
#84 = ORIENTED_EDGE ( 'NONE', *, *, #158, .T. ) ;
#85 = AXIS2_PLACEMENT_3D ( 'NONE', #42, #193, #223 ) ;
#86 = EDGE_LOOP ( 'NONE', ( #179, #148, #368, #40 ) ) ;
#87 = DIRECTION ( 'NONE',  ( 1.000000000000000000, 0.000000000000000000, 0.000000000000000000 ) ) ;
#88 = VERTEX_POINT ( 'NONE', #253 ) ;
#89 = CARTESIAN_POINT ( 'NONE',  ( 4.000000000000000000, 0.000000000000000000, 0.000000000000000000 ) ) ;
#90 = ADVANCED_FACE ( 'NONE', ( #197 ), #97, .T. ) ;
#91 = EDGE_CURVE ( 'NONE', #331, #178, #33, .T. ) ;
#92 = DIRECTION ( 'NONE',  ( -1.000000000000000000, -0.000000000000000000, -0.000000000000000000 ) ) ;
#93 = COLOUR_RGB ( '',0.7921568627450980005, 0.8196078431372548767, 0.9333333333333333481 ) ;
#94 = DIRECTION ( 'NONE',  ( -1.000000000000000000, -0.000000000000000000, -0.000000000000000000 ) ) ;
#95 = ADVANCED_FACE ( 'NONE', ( #255 ), #161, .F. ) ;
#96 = AXIS2_PLACEMENT_3D ( 'NONE', #280, #87, #124 ) ;
#97 = CYLINDRICAL_SURFACE ( 'NONE', #85, 11.99999999999999645 ) ;
#98 = DIRECTION ( 'NONE',  ( 0.000000000000000000, 0.000000000000000000, 1.000000000000000000 ) ) ;
#99 = CARTESIAN_POINT ( 'NONE',  ( 0.000000000000000000, 0.000000000000000000, 0.000000000000000000 ) ) ;
#100 = DIRECTION ( 'NONE',  ( -0.7071067811865622277, 0.000000000000000000, 0.7071067811865328068 ) ) ;
#101 = AXIS2_PLACEMENT_3D ( 'NONE', #83, #206, #356 ) ;
#102 = CARTESIAN_POINT ( 'NONE',  ( 5.000000000000000000, 0.000000000000000000, 0.000000000000000000 ) ) ;
#103 = EDGE_LOOP ( 'NONE', ( #84, #54, #225, #211 ) ) ;
#104 = ADVANCED_FACE ( 'NONE', ( #131, #39 ), #137, .T. ) ;
#105 = DIRECTION ( 'NONE',  ( 0.000000000000000000, 0.000000000000000000, -1.000000000000000000 ) ) ;
#106 = CARTESIAN_POINT ( 'NONE',  ( 5.000000000000000000, 0.000000000000000000, 27.00000000000000711 ) ) ;
#107 = LINE ( 'NONE', #6, #367 ) ;
#108 = DIRECTION ( 'NONE',  ( -1.000000000000000000, -0.000000000000000000, -0.000000000000000000 ) ) ;
#109 = VERTEX_POINT ( 'NONE', #391 ) ;
#110 = AXIS2_PLACEMENT_3D ( 'NONE', #56, #308, #117 ) ;
#111 = LINE ( 'NONE', #200, #373 ) ;
#112 = AXIS2_PLACEMENT_3D ( 'NONE', #99, #387, #173 ) ;
#113 = ORIENTED_EDGE ( 'NONE', *, *, #344, .F. ) ;
#114 = ORIENTED_EDGE ( 'NONE', *, *, #264, .F. ) ;
#115 = ORIENTED_EDGE ( 'NONE', *, *, #231, .T. ) ;
#116 = AXIS2_PLACEMENT_3D ( 'NONE', #165, #359, #224 ) ;
#117 = DIRECTION ( 'NONE',  ( 0.000000000000000000, 0.000000000000000000, 1.000000000000000000 ) ) ;
#118 = AXIS2_PLACEMENT_3D ( 'NONE', #62, #92, #59 ) ;
#119 = EDGE_LOOP ( 'NONE', ( #234, #82, #377, #236 ) ) ;
#120 = PLANE ( 'NONE',  #202 ) ;
#121 = CARTESIAN_POINT ( 'NONE',  ( 5.000000000000000000, 3.337162527676537915E-15, -27.00000000000000711 ) ) ;
#122 = CARTESIAN_POINT ( 'NONE',  ( 5.000000000000000000, 0.000000000000000000, 15.00000000000000000 ) ) ;
#123 = ADVANCED_FACE ( 'NONE', ( #258 ), #361, .T. ) ;
#124 = DIRECTION ( 'NONE',  ( 0.000000000000000000, 0.000000000000000000, -1.000000000000000000 ) ) ;
#125 = UNCERTAINTY_MEASURE_WITH_UNIT (LENGTH_MEASURE( 1.000000000000000082E-05 ), #199, 'distance_accuracy_value', 'NONE');
#126 = PRODUCT_CONTEXT ( 'NONE', #309, 'mechanical' ) ;
#127 = AXIS2_PLACEMENT_3D ( 'NONE', #279, #185, #347 ) ;
#128 = CARTESIAN_POINT ( 'NONE',  ( 4.000000000000000000, 0.000000000000000000, 0.000000000000000000 ) ) ;
#129 = CIRCLE ( 'NONE', #37, 27.00000000000000711 ) ;
#130 =( NAMED_UNIT ( * ) SI_UNIT ( $, .STERADIAN. ) SOLID_ANGLE_UNIT ( ) );
#131 = FACE_OUTER_BOUND ( 'NONE', #268, .T. ) ;
#132 = CARTESIAN_POINT ( 'NONE',  ( 4.000000000000000000, 0.000000000000000000, 11.99999999999999645 ) ) ;
#133 = DIRECTION ( 'NONE',  ( 1.000000000000000000, 0.000000000000000000, 0.000000000000000000 ) ) ;
#134 = AXIS2_PLACEMENT_3D ( 'NONE', #195, #324, #292 ) ;
#135 = CYLINDRICAL_SURFACE ( 'NONE', #58, 3.429000000000000270 ) ;
#136 = CARTESIAN_POINT ( 'NONE',  ( 4.499999999999985789, 0.000000000000000000, 0.000000000000000000 ) ) ;
#137 = PLANE ( 'NONE',  #257 ) ;
#138 = DIRECTION ( 'NONE',  ( 0.000000000000000000, 0.000000000000000000, -1.000000000000000000 ) ) ;
#139 = DIRECTION ( 'NONE',  ( -1.000000000000000000, 0.000000000000000000, 0.000000000000000000 ) ) ;
#140 = DIRECTION ( 'NONE',  ( 1.000000000000000000, 0.000000000000000000, 0.000000000000000000 ) ) ;
#141 = ORIENTED_EDGE ( 'NONE', *, *, #313, .T. ) ;
#142 = AXIS2_PLACEMENT_3D ( 'NONE', #265, #140, #138 ) ;
#143 = DIRECTION ( 'NONE',  ( 1.000000000000000000, 0.000000000000000000, 0.000000000000000000 ) ) ;
#144 = ORIENTED_EDGE ( 'NONE', *, *, #46, .F. ) ;
#145 = EDGE_CURVE ( 'NONE', #177, #331, #315, .T. ) ;
#146 = ORIENTED_EDGE ( 'NONE', *, *, #358, .F. ) ;
#147 = AXIS2_PLACEMENT_3D ( 'NONE', #154, #35, #254 ) ;
#148 = ORIENTED_EDGE ( 'NONE', *, *, #65, .F. ) ;
#149 = VERTEX_POINT ( 'NONE', #352 ) ;
#150 = CARTESIAN_POINT ( 'NONE',  ( 5.000000000000000000, 3.306546357697854522E-15, -27.00000000000000711 ) ) ;
#151 = ORIENTED_EDGE ( 'NONE', *, *, #242, .F. ) ;
#152 = DIRECTION ( 'NONE',  ( 1.000000000000000000, 0.000000000000000000, 0.000000000000000000 ) ) ;
#153 = AXIS2_PLACEMENT_3D ( 'NONE', #1, #152, #27 ) ;
#154 = CARTESIAN_POINT ( 'NONE',  ( 4.000000000000000000, 0.000000000000000000, 0.000000000000000000 ) ) ;
#155 = CYLINDRICAL_SURFACE ( 'NONE', #194, 15.00000000000000000 ) ;
#156 = AXIS2_PLACEMENT_3D ( 'NONE', #222, #282, #168 ) ;
#157 = CARTESIAN_POINT ( 'NONE',  ( 4.000000000000000000, 0.000000000000000000, 0.000000000000000000 ) ) ;
#158 = EDGE_CURVE ( 'NONE', #57, #109, #290, .T. ) ;
#159 = AXIS2_PLACEMENT_3D ( 'NONE', #267, #143, #233 ) ;
#160 = EDGE_CURVE ( 'NONE', #244, #228, #169, .T. ) ;
#161 = CYLINDRICAL_SURFACE ( 'NONE', #156, 15.00000000000000000 ) ;
#162 = PRESENTATION_STYLE_ASSIGNMENT (( #72 ) ) ;
#163 = CARTESIAN_POINT ( 'NONE',  ( 4.000000000000000000, 0.000000000000000000, 15.00000000000000000 ) ) ;
#164 = FILL_AREA_STYLE_COLOUR ( '', #93 ) ;
#165 = CARTESIAN_POINT ( 'NONE',  ( 19.00000000000000000, 0.000000000000000000, 0.000000000000000000 ) ) ;
#166 = DIRECTION ( 'NONE',  ( -1.000000000000000000, -0.000000000000000000, -0.000000000000000000 ) ) ;
#167 = LINE ( 'NONE', #325, #270 ) ;
#168 = DIRECTION ( 'NONE',  ( 0.000000000000000000, 0.000000000000000000, 1.000000000000000000 ) ) ;
#169 = CIRCLE ( 'NONE', #80, 3.429000000000000270 ) ;
#170 = CYLINDRICAL_SURFACE ( 'NONE', #101, 3.429000000000000270 ) ;
#171 = AXIS2_PLACEMENT_3D ( 'NONE', #69, #285, #323 ) ;
#172 = EDGE_LOOP ( 'NONE', ( #114, #339, #328, #266 ) ) ;
#173 = DIRECTION ( 'NONE',  ( 0.000000000000000000, 0.000000000000000000, -1.000000000000000000 ) ) ;
#174 = VERTEX_POINT ( 'NONE', #12 ) ;
#175 = EDGE_LOOP ( 'NONE', ( #113, #51, #271, #343 ) ) ;
#176 = EDGE_CURVE ( 'NONE', #52, #174, #388, .T. ) ;
#177 = VERTEX_POINT ( 'NONE', #261 ) ;
#178 = VERTEX_POINT ( 'NONE', #163 ) ;
#179 = ORIENTED_EDGE ( 'NONE', *, *, #176, .F. ) ;
#180 = EDGE_CURVE ( 'NONE', #178, #21, #365, .T. ) ;
#181 = ORIENTED_EDGE ( 'NONE', *, *, #231, .F. ) ;
#182 = LINE ( 'NONE', #381, #252 ) ;
#183 = FACE_OUTER_BOUND ( 'NONE', #172, .T. ) ;
#184 = AXIS2_PLACEMENT_3D ( 'NONE', #157, #248, #281 ) ;
#185 = DIRECTION ( 'NONE',  ( 1.000000000000000000, 0.000000000000000000, 0.000000000000000000 ) ) ;
#186 = CARTESIAN_POINT ( 'NONE',  ( 0.000000000000000000, 0.000000000000000000, 0.000000000000000000 ) ) ;
#187 = FACE_OUTER_BOUND ( 'NONE', #338, .T. ) ;
#188 = CIRCLE ( 'NONE', #330, 27.50000000000000000 ) ;
#189 = DIRECTION ( 'NONE',  ( -1.000000000000000000, -0.000000000000000000, -0.000000000000000000 ) ) ;
#190 = DIRECTION ( 'NONE',  ( 1.000000000000000000, 0.000000000000000000, 0.000000000000000000 ) ) ;
#191 = DIRECTION ( 'NONE',  ( -1.000000000000000000, -0.000000000000000000, -0.000000000000000000 ) ) ;
#192 = DIRECTION ( 'NONE',  ( 0.000000000000000000, 0.000000000000000000, -1.000000000000000000 ) ) ;
#193 = DIRECTION ( 'NONE',  ( -1.000000000000000000, -0.000000000000000000, -0.000000000000000000 ) ) ;
#194 = AXIS2_PLACEMENT_3D ( 'NONE', #217, #409, #407 ) ;
#195 = CARTESIAN_POINT ( 'NONE',  ( 19.00000000000000000, 0.000000000000000000, 0.000000000000000000 ) ) ;
#196 = DIRECTION ( 'NONE',  ( 0.000000000000000000, 0.000000000000000000, -1.000000000000000000 ) ) ;
#197 = FACE_OUTER_BOUND ( 'NONE', #207, .T. ) ;
#198 = ORIENTED_EDGE ( 'NONE', *, *, #313, .F. ) ;
#199 =( LENGTH_UNIT ( ) NAMED_UNIT ( * ) SI_UNIT ( .MILLI., .METRE. ) );
#200 = CARTESIAN_POINT ( 'NONE',  ( 5.000000000000000000, 4.199313874276274340E-16, -3.429000000000000270 ) ) ;
#201 =( NAMED_UNIT ( * ) SI_UNIT ( $, .STERADIAN. ) SOLID_ANGLE_UNIT ( ) );
#202 = AXIS2_PLACEMENT_3D ( 'NONE', #245, #277, #408 ) ;
#203 = EDGE_CURVE ( 'NONE', #19, #299, #229, .T. ) ;
#204 = ORIENTED_EDGE ( 'NONE', *, *, #145, .T. ) ;
#205 = ORIENTED_EDGE ( 'NONE', *, *, #176, .T. ) ;
#206 = DIRECTION ( 'NONE',  ( -1.000000000000000000, -0.000000000000000000, -0.000000000000000000 ) ) ;
#207 = EDGE_LOOP ( 'NONE', ( #198, #205, #240, #405 ) ) ;
#208 = EDGE_CURVE ( 'NONE', #57, #244, #9, .T. ) ;
#209 = ORIENTED_EDGE ( 'NONE', *, *, #306, .T. ) ;
#210 = CARTESIAN_POINT ( 'NONE',  ( 0.000000000000000000, 0.000000000000000000, 3.429000000000000270 ) ) ;
#211 = ORIENTED_EDGE ( 'NONE', *, *, #208, .F. ) ;
#212 = APPLICATION_PROTOCOL_DEFINITION ( 'draft international standard', 'automotive_design', 1998, #309 ) ;
#213 = DIRECTION ( 'NONE',  ( 0.000000000000000000, 0.000000000000000000, -1.000000000000000000 ) ) ;
#214 = CIRCLE ( 'NONE', #142, 11.99999999999999645 ) ;
#215 = CARTESIAN_POINT ( 'NONE',  ( 0.000000000000000000, 4.199313874276274340E-16, -3.429000000000000270 ) ) ;
#216 = AXIS2_PLACEMENT_3D ( 'NONE', #136, #139, #192 ) ;
#217 = CARTESIAN_POINT ( 'NONE',  ( 5.000000000000000000, 0.000000000000000000, 0.000000000000000000 ) ) ;
#218 = AXIS2_PLACEMENT_3D ( 'NONE', #128, #76, #98 ) ;
#219 = EDGE_CURVE ( 'NONE', #21, #178, #276, .T. ) ;
#220 = ADVANCED_BREP_SHAPE_REPRESENTATION ( 'P001-B118_SpoolWasher-2', ( #400, #239 ), #7 ) ;
#221 = CIRCLE ( 'NONE', #283, 3.429000000000000270 ) ;
#222 = CARTESIAN_POINT ( 'NONE',  ( 5.000000000000000000, 0.000000000000000000, 0.000000000000000000 ) ) ;
#223 = DIRECTION ( 'NONE',  ( 0.000000000000000000, 0.000000000000000000, 1.000000000000000000 ) ) ;
#224 = DIRECTION ( 'NONE',  ( 0.000000000000000000, 0.000000000000000000, -1.000000000000000000 ) ) ;
#225 = ORIENTED_EDGE ( 'NONE', *, *, #160, .F. ) ;
#226 = DIRECTION ( 'NONE',  ( 0.000000000000000000, 0.000000000000000000, 1.000000000000000000 ) ) ;
#227 = DIRECTION ( 'NONE',  ( -1.000000000000000000, -0.000000000000000000, -0.000000000000000000 ) ) ;
#228 = VERTEX_POINT ( 'NONE', #215 ) ;
#229 = LINE ( 'NONE', #8, #307 ) ;
#230 = ORIENTED_EDGE ( 'NONE', *, *, #386, .T. ) ;
#231 = EDGE_CURVE ( 'NONE', #109, #57, #221, .T. ) ;
#232 = PRODUCT_DEFINITION ( 'UNKNOWN', '', #286, #349 ) ;
#233 = DIRECTION ( 'NONE',  ( 0.000000000000000000, 0.000000000000000000, -1.000000000000000000 ) ) ;
#234 = ORIENTED_EDGE ( 'NONE', *, *, #77, .T. ) ;
#235 = VECTOR ( 'NONE', #189, 1000.000000000000000 ) ;
#236 = ORIENTED_EDGE ( 'NONE', *, *, #91, .F. ) ;
#237 = MECHANICAL_DESIGN_GEOMETRIC_PRESENTATION_REPRESENTATION (  '', ( #61 ), #322 ) ;
#238 = LINE ( 'NONE', #81, #274 ) ;
#239 = AXIS2_PLACEMENT_3D ( 'NONE', #186, #28, #190 ) ;
#240 = ORIENTED_EDGE ( 'NONE', *, *, #353, .T. ) ;
#241 = ORIENTED_EDGE ( 'NONE', *, *, #344, .T. ) ;
#242 = EDGE_CURVE ( 'NONE', #228, #244, #346, .T. ) ;
#243 = AXIS2_PLACEMENT_3D ( 'NONE', #4, #291, #105 ) ;
#244 = VERTEX_POINT ( 'NONE', #210 ) ;
#245 = CARTESIAN_POINT ( 'NONE',  ( 19.00000000000000000, 0.000000000000000000, 0.000000000000000000 ) ) ;
#246 = EDGE_LOOP ( 'NONE', ( #389, #181 ) ) ;
#247 = FACE_BOUND ( 'NONE', #302, .T. ) ;
#248 = DIRECTION ( 'NONE',  ( -1.000000000000000000, -0.000000000000000000, -0.000000000000000000 ) ) ;
#249 = ADVANCED_FACE ( 'NONE', ( #379, #247 ), #380, .T. ) ;
#250 = DIRECTION ( 'NONE',  ( 1.000000000000000000, 0.000000000000000000, 0.000000000000000000 ) ) ;
#251 = VECTOR ( 'NONE', #376, 1000.000000000000000 ) ;
#252 = VECTOR ( 'NONE', #63, 1000.000000000000000 ) ;
#253 = CARTESIAN_POINT ( 'NONE',  ( 4.499999999999985789, 3.367778697655221307E-15, -27.50000000000000000 ) ) ;
#254 = DIRECTION ( 'NONE',  ( 0.000000000000000000, 0.000000000000000000, -1.000000000000000000 ) ) ;
#255 = FACE_OUTER_BOUND ( 'NONE', #18, .T. ) ;
#256 = SURFACE_STYLE_FILL_AREA ( #260 ) ;
#257 = AXIS2_PLACEMENT_3D ( 'NONE', #102, #133, #288 ) ;
#258 = FACE_OUTER_BOUND ( 'NONE', #86, .T. ) ;
#259 = CARTESIAN_POINT ( 'NONE',  ( 4.499999999999985789, 0.000000000000000000, 0.000000000000000000 ) ) ;
#260 = FILL_AREA_STYLE ('',( #164 ) ) ;
#261 = CARTESIAN_POINT ( 'NONE',  ( 5.000000000000000000, 1.836970198721029589E-15, -15.00000000000000000 ) ) ;
#262 = ORIENTED_EDGE ( 'NONE', *, *, #353, .F. ) ;
#263 = CARTESIAN_POINT ( 'NONE',  ( 0.000000000000000000, 0.000000000000000000, 27.50000000000000000 ) ) ;
#264 = EDGE_CURVE ( 'NONE', #88, #149, #182, .T. ) ;
#265 = CARTESIAN_POINT ( 'NONE',  ( 4.000000000000000000, 0.000000000000000000, 0.000000000000000000 ) ) ;
#266 = ORIENTED_EDGE ( 'NONE', *, *, #358, .T. ) ;
#267 = CARTESIAN_POINT ( 'NONE',  ( 5.000000000000000000, 0.000000000000000000, 0.000000000000000000 ) ) ;
#268 = EDGE_LOOP ( 'NONE', ( #374, #230 ) ) ;
#269 = ORIENTED_EDGE ( 'NONE', *, *, #386, .F. ) ;
#270 = VECTOR ( 'NONE', #357, 1000.000000000000000 ) ;
#271 = ORIENTED_EDGE ( 'NONE', *, *, #203, .T. ) ;
#272 = VERTEX_POINT ( 'NONE', #121 ) ;
#273 = CYLINDRICAL_SURFACE ( 'NONE', #118, 27.50000000000000000 ) ;
#274 = VECTOR ( 'NONE', #166, 1000.000000000000000 ) ;
#275 = EDGE_LOOP ( 'NONE', ( #146, #366 ) ) ;
#276 = CIRCLE ( 'NONE', #184, 15.00000000000000000 ) ;
#277 = DIRECTION ( 'NONE',  ( 1.000000000000000000, 0.000000000000000000, 0.000000000000000000 ) ) ;
#278 = ADVANCED_FACE ( 'NONE', ( #345 ), #60, .T. ) ;
#279 = CARTESIAN_POINT ( 'NONE',  ( 0.000000000000000000, 0.000000000000000000, 0.000000000000000000 ) ) ;
#280 = CARTESIAN_POINT ( 'NONE',  ( 0.000000000000000000, 0.000000000000000000, 0.000000000000000000 ) ) ;
#281 = DIRECTION ( 'NONE',  ( 0.000000000000000000, 0.000000000000000000, -1.000000000000000000 ) ) ;
#282 = DIRECTION ( 'NONE',  ( -1.000000000000000000, -0.000000000000000000, -0.000000000000000000 ) ) ;
#283 = AXIS2_PLACEMENT_3D ( 'NONE', #303, #250, #348 ) ;
#284 = CIRCLE ( 'NONE', #147, 11.99999999999999645 ) ;
#285 = DIRECTION ( 'NONE',  ( -1.000000000000000000, -0.000000000000000000, -0.000000000000000000 ) ) ;
#286 = PRODUCT_DEFINITION_FORMATION_WITH_SPECIFIED_SOURCE ( 'ANY', '', #340, .NOT_KNOWN. ) ;
#287 = SURFACE_SIDE_STYLE ('',( #256 ) ) ;
#288 = DIRECTION ( 'NONE',  ( 0.000000000000000000, 0.000000000000000000, -1.000000000000000000 ) ) ;
#289 = DIRECTION ( 'NONE',  ( -1.000000000000000000, 0.000000000000000000, 0.000000000000000000 ) ) ;
#290 = CIRCLE ( 'NONE', #116, 3.429000000000000270 ) ;
#291 = DIRECTION ( 'NONE',  ( 1.000000000000000000, 0.000000000000000000, 0.000000000000000000 ) ) ;
#292 = DIRECTION ( 'NONE',  ( 0.000000000000000000, 0.000000000000000000, -1.000000000000000000 ) ) ;
#293 = VERTEX_POINT ( 'NONE', #26 ) ;
#294 = PLANE ( 'NONE',  #112 ) ;
#295 = EDGE_LOOP ( 'NONE', ( #269, #241, #144, #298 ) ) ;
#296 = ORIENTED_EDGE ( 'NONE', *, *, #208, .T. ) ;
#297 = ORIENTED_EDGE ( 'NONE', *, *, #145, .F. ) ;
#298 = ORIENTED_EDGE ( 'NONE', *, *, #203, .F. ) ;
#299 = VERTEX_POINT ( 'NONE', #31 ) ;
#300 = AXIS2_PLACEMENT_3D ( 'NONE', #321, #41, #196 ) ;
#301 = ORIENTED_EDGE ( 'NONE', *, *, #180, .T. ) ;
#302 = EDGE_LOOP ( 'NONE', ( #336, #262 ) ) ;
#303 = CARTESIAN_POINT ( 'NONE',  ( 19.00000000000000000, 0.000000000000000000, 0.000000000000000000 ) ) ;
#304 = SHAPE_DEFINITION_REPRESENTATION ( #378, #220 ) ;
#305 = ADVANCED_FACE ( 'NONE', ( #183 ), #273, .T. ) ;
#306 = EDGE_CURVE ( 'NONE', #149, #392, #351, .T. ) ;
#307 = VECTOR ( 'NONE', #100, 1000.000000000000000 ) ;
#308 = DIRECTION ( 'NONE',  ( -1.000000000000000000, 0.000000000000000000, 0.000000000000000000 ) ) ;
#309 = APPLICATION_CONTEXT ( 'automotive_design' ) ;
#310 = AXIS2_PLACEMENT_3D ( 'NONE', #318, #11, #226 ) ;
#311 = FACE_BOUND ( 'NONE', #246, .T. ) ;
#312 = APPLICATION_PROTOCOL_DEFINITION ( 'draft international standard', 'automotive_design', 1998, #320 ) ;
#313 = EDGE_CURVE ( 'NONE', #52, #293, #406, .T. ) ;
#314 = LINE ( 'NONE', #150, #251 ) ;
#315 = CIRCLE ( 'NONE', #243, 15.00000000000000000 ) ;
#316 = DIRECTION ( 'NONE',  ( 1.000000000000000000, 0.000000000000000000, 0.000000000000000000 ) ) ;
#317 = ADVANCED_FACE ( 'NONE', ( #187, #311 ), #120, .T. ) ;
#318 = CARTESIAN_POINT ( 'NONE',  ( 5.000000000000000000, 0.000000000000000000, 0.000000000000000000 ) ) ;
#319 = CARTESIAN_POINT ( 'NONE',  ( 0.000000000000000000, 0.000000000000000000, 0.000000000000000000 ) ) ;
#320 = APPLICATION_CONTEXT ( 'automotive_design' ) ;
#321 = CARTESIAN_POINT ( 'NONE',  ( 0.000000000000000000, 0.000000000000000000, 0.000000000000000000 ) ) ;
#322 =( GEOMETRIC_REPRESENTATION_CONTEXT ( 3 ) GLOBAL_UNCERTAINTY_ASSIGNED_CONTEXT ( ( #342 ) ) GLOBAL_UNIT_ASSIGNED_CONTEXT ( ( #390, #68, #130 ) ) REPRESENTATION_CONTEXT ( 'NONE', 'WORKASPACE' ) );
#323 = DIRECTION ( 'NONE',  ( 0.000000000000000000, 0.000000000000000000, -1.000000000000000000 ) ) ;
#324 = DIRECTION ( 'NONE',  ( 1.000000000000000000, 0.000000000000000000, 0.000000000000000000 ) ) ;
#325 = CARTESIAN_POINT ( 'NONE',  ( 4.000000000000000000, 0.000000000000000000, 27.50000000000000000 ) ) ;
#326 = DIRECTION ( 'NONE',  ( 1.000000000000000000, 0.000000000000000000, 0.000000000000000000 ) ) ;
#327 = ADVANCED_FACE ( 'NONE', ( #29 ), #155, .F. ) ;
#328 = ORIENTED_EDGE ( 'NONE', *, *, #369, .T. ) ;
#329 = FACE_OUTER_BOUND ( 'NONE', #275, .T. ) ;
#330 = AXIS2_PLACEMENT_3D ( 'NONE', #259, #289, #335 ) ;
#331 = VERTEX_POINT ( 'NONE', #122 ) ;
#332 = AXIS2_PLACEMENT_3D ( 'NONE', #89, #404, #213 ) ;
#333 = FACE_BOUND ( 'NONE', #337, .T. ) ;
#334 = ORIENTED_EDGE ( 'NONE', *, *, #160, .T. ) ;
#335 = DIRECTION ( 'NONE',  ( 0.000000000000000000, 0.000000000000000000, -1.000000000000000000 ) ) ;
#336 = ORIENTED_EDGE ( 'NONE', *, *, #2, .F. ) ;
#337 = EDGE_LOOP ( 'NONE', ( #334, #360 ) ) ;
#338 = EDGE_LOOP ( 'NONE', ( #20, #141 ) ) ;
#339 = ORIENTED_EDGE ( 'NONE', *, *, #375, .T. ) ;
#340 = PRODUCT ( 'P001-B118_SpoolWasher-2', 'P001-B118_SpoolWasher-2', '', ( #126 ) ) ;
#341 = CARTESIAN_POINT ( 'NONE',  ( 5.000000000000000000, 0.000000000000000000, 3.429000000000000270 ) ) ;
#342 = UNCERTAINTY_MEASURE_WITH_UNIT (LENGTH_MEASURE( 1.000000000000000082E-05 ), #390, 'distance_accuracy_value', 'NONE');
#343 = ORIENTED_EDGE ( 'NONE', *, *, #375, .F. ) ;
#344 = EDGE_CURVE ( 'NONE', #272, #88, #314, .T. ) ;
#345 = FACE_OUTER_BOUND ( 'NONE', #175, .T. ) ;
#346 = CIRCLE ( 'NONE', #96, 3.429000000000000270 ) ;
#347 = DIRECTION ( 'NONE',  ( 0.000000000000000000, 0.000000000000000000, -1.000000000000000000 ) ) ;
#348 = DIRECTION ( 'NONE',  ( 0.000000000000000000, 0.000000000000000000, -1.000000000000000000 ) ) ;
#349 = PRODUCT_DEFINITION_CONTEXT ( 'detailed design', #320, 'design' ) ;
#350 = VECTOR ( 'NONE', #191, 1000.000000000000000 ) ;
#351 = CIRCLE ( 'NONE', #127, 27.50000000000000000 ) ;
#352 = CARTESIAN_POINT ( 'NONE',  ( 0.000000000000000000, 3.367778697655221307E-15, -27.50000000000000000 ) ) ;
#353 = EDGE_CURVE ( 'NONE', #174, #397, #284, .T. ) ;
#354 = CARTESIAN_POINT ( 'NONE',  ( 5.000000000000000000, 0.000000000000000000, 15.00000000000000000 ) ) ;
#355 = CARTESIAN_POINT ( 'NONE',  ( 19.00000000000000000, 0.000000000000000000, 0.000000000000000000 ) ) ;
#356 = DIRECTION ( 'NONE',  ( 0.000000000000000000, 0.000000000000000000, 1.000000000000000000 ) ) ;
#357 = DIRECTION ( 'NONE',  ( -1.000000000000000000, -0.000000000000000000, -0.000000000000000000 ) ) ;
#358 = EDGE_CURVE ( 'NONE', #392, #149, #22, .T. ) ;
#359 = DIRECTION ( 'NONE',  ( 1.000000000000000000, 0.000000000000000000, 0.000000000000000000 ) ) ;
#360 = ORIENTED_EDGE ( 'NONE', *, *, #242, .T. ) ;
#361 = CYLINDRICAL_SURFACE ( 'NONE', #64, 11.99999999999999645 ) ;
#362 = EDGE_LOOP ( 'NONE', ( #49, #47, #209, #398 ) ) ;
#363 = CARTESIAN_POINT ( 'NONE',  ( 5.000000000000000000, 0.000000000000000000, 0.000000000000000000 ) ) ;
#364 = DIRECTION ( 'NONE',  ( -1.000000000000000000, -0.000000000000000000, -0.000000000000000000 ) ) ;
#365 = CIRCLE ( 'NONE', #171, 15.00000000000000000 ) ;
#366 = ORIENTED_EDGE ( 'NONE', *, *, #306, .F. ) ;
#367 = VECTOR ( 'NONE', #384, 1000.000000000000000 ) ;
#368 = ORIENTED_EDGE ( 'NONE', *, *, #402, .T. ) ;
#369 = EDGE_CURVE ( 'NONE', #299, #392, #167, .T. ) ;
#370 = ORIENTED_EDGE ( 'NONE', *, *, #17, .F. ) ;
#371 = EDGE_LOOP ( 'NONE', ( #401, #15 ) ) ;
#372 = ORIENTED_EDGE ( 'NONE', *, *, #77, .F. ) ;
#373 = VECTOR ( 'NONE', #364, 1000.000000000000000 ) ;
#374 = ORIENTED_EDGE ( 'NONE', *, *, #16, .T. ) ;
#375 = EDGE_CURVE ( 'NONE', #88, #299, #70, .T. ) ;
#376 = DIRECTION ( 'NONE',  ( -0.7071067811865622277, 8.659560562354754132E-17, -0.7071067811865328068 ) ) ;
#377 = ORIENTED_EDGE ( 'NONE', *, *, #219, .T. ) ;
#378 = PRODUCT_DEFINITION_SHAPE ( 'NONE', 'NONE',  #232 ) ;
#379 = FACE_OUTER_BOUND ( 'NONE', #371, .T. ) ;
#380 = PLANE ( 'NONE',  #332 ) ;
#381 = CARTESIAN_POINT ( 'NONE',  ( 4.000000000000000000, 3.367778697655221307E-15, -27.50000000000000000 ) ) ;
#382 = ADVANCED_FACE ( 'NONE', ( #75 ), #399, .T. ) ;
#383 = CYLINDRICAL_SURFACE ( 'NONE', #218, 27.50000000000000000 ) ;
#384 = DIRECTION ( 'NONE',  ( -1.000000000000000000, -0.000000000000000000, -0.000000000000000000 ) ) ;
#385 = FACE_OUTER_BOUND ( 'NONE', #362, .T. ) ;
#386 = EDGE_CURVE ( 'NONE', #272, #19, #129, .T. ) ;
#387 = DIRECTION ( 'NONE',  ( 1.000000000000000000, 0.000000000000000000, 0.000000000000000000 ) ) ;
#388 = LINE ( 'NONE', #36, #235 ) ;
#389 = ORIENTED_EDGE ( 'NONE', *, *, #158, .F. ) ;
#390 =( LENGTH_UNIT ( ) NAMED_UNIT ( * ) SI_UNIT ( .MILLI., .METRE. ) );
#391 = CARTESIAN_POINT ( 'NONE',  ( 19.00000000000000000, 4.199313874276274340E-16, -3.429000000000000270 ) ) ;
#392 = VERTEX_POINT ( 'NONE', #263 ) ;
#393 = CARTESIAN_POINT ( 'NONE',  ( 5.000000000000000000, 0.000000000000000000, 0.000000000000000000 ) ) ;
#394 = EDGE_LOOP ( 'NONE', ( #370, #115, #296, #151 ) ) ;
#395 = CLOSED_SHELL ( 'NONE', ( #382, #90, #3, #327, #78, #249, #305, #396, #104, #95, #53, #317, #123, #278 ) ) ;
#396 = ADVANCED_FACE ( 'NONE', ( #333, #329 ), #294, .F. ) ;
#397 = VERTEX_POINT ( 'NONE', #132 ) ;
#398 = ORIENTED_EDGE ( 'NONE', *, *, #369, .F. ) ;
#399 = CONICAL_SURFACE ( 'NONE', #310, 27.00000000000000711, 0.7853981633974275178 ) ;
#400 = MANIFOLD_SOLID_BREP ( 'Chamfer1', #395 ) ;
#401 = ORIENTED_EDGE ( 'NONE', *, *, #180, .F. ) ;
#402 = EDGE_CURVE ( 'NONE', #293, #397, #107, .T. ) ;
#403 = CIRCLE ( 'NONE', #134, 11.99999999999999645 ) ;
#404 = DIRECTION ( 'NONE',  ( 1.000000000000000000, 0.000000000000000000, 0.000000000000000000 ) ) ;
#405 = ORIENTED_EDGE ( 'NONE', *, *, #402, .F. ) ;
#406 = CIRCLE ( 'NONE', #153, 11.99999999999999645 ) ;
#407 = DIRECTION ( 'NONE',  ( 0.000000000000000000, 0.000000000000000000, 1.000000000000000000 ) ) ;
#408 = DIRECTION ( 'NONE',  ( 0.000000000000000000, 0.000000000000000000, -1.000000000000000000 ) ) ;
#409 = DIRECTION ( 'NONE',  ( -1.000000000000000000, -0.000000000000000000, -0.000000000000000000 ) ) ;
ENDSEC;
END-ISO-10303-21;
