%TF.GenerationSoftware,KiCad,Pcbnew,8.0.4*%
%TF.CreationDate,2025-06-18T18:58:41-07:00*%
%TF.ProjectId,Dyno_LED_PCB,44796e6f-5f4c-4454-945f-5043422e6b69,rev?*%
%TF.SameCoordinates,Original*%
%TF.FileFunction,Legend,Bot*%
%TF.FilePolarity,Positive*%
%FSLAX46Y46*%
G04 Gerber Fmt 4.6, Leading zero omitted, Abs format (unit mm)*
G04 Created by KiCad (PCBNEW 8.0.4) date 2025-06-18 18:58:41*
%MOMM*%
%LPD*%
G01*
G04 APERTURE LIST*
%ADD10C,0.150000*%
%ADD11C,0.120000*%
G04 APERTURE END LIST*
D10*
X70583333Y-34404819D02*
X70583333Y-35119104D01*
X70583333Y-35119104D02*
X70630952Y-35261961D01*
X70630952Y-35261961D02*
X70726190Y-35357200D01*
X70726190Y-35357200D02*
X70869047Y-35404819D01*
X70869047Y-35404819D02*
X70964285Y-35404819D01*
X69583333Y-35404819D02*
X70154761Y-35404819D01*
X69869047Y-35404819D02*
X69869047Y-34404819D01*
X69869047Y-34404819D02*
X69964285Y-34547676D01*
X69964285Y-34547676D02*
X70059523Y-34642914D01*
X70059523Y-34642914D02*
X70154761Y-34690533D01*
D11*
%TO.C,J1*%
X66440000Y-36040000D02*
X66440000Y-42010000D01*
X66440000Y-42010000D02*
X74060000Y-42010000D01*
X66450000Y-36050000D02*
X66450000Y-36800000D01*
X66450000Y-36800000D02*
X68250000Y-36800000D01*
X67200000Y-38300000D02*
X66450000Y-38300000D01*
X67200000Y-41250000D02*
X67200000Y-38300000D01*
X68250000Y-36050000D02*
X66450000Y-36050000D01*
X68250000Y-36800000D02*
X68250000Y-36050000D01*
X69750000Y-36050000D02*
X69750000Y-36800000D01*
X69750000Y-36800000D02*
X70750000Y-36800000D01*
X70250000Y-41250000D02*
X67200000Y-41250000D01*
X70250000Y-41250000D02*
X73300000Y-41250000D01*
X70750000Y-36050000D02*
X69750000Y-36050000D01*
X70750000Y-36800000D02*
X70750000Y-36050000D01*
X72250000Y-36050000D02*
X72250000Y-36800000D01*
X72250000Y-36800000D02*
X74050000Y-36800000D01*
X73300000Y-38300000D02*
X74050000Y-38300000D01*
X73300000Y-41250000D02*
X73300000Y-38300000D01*
X74050000Y-36050000D02*
X72250000Y-36050000D01*
X74050000Y-36800000D02*
X74050000Y-36050000D01*
X74060000Y-36040000D02*
X66440000Y-36040000D01*
X74060000Y-42010000D02*
X74060000Y-36040000D01*
X74350000Y-35750000D02*
X73100000Y-35750000D01*
X74350000Y-37000000D02*
X74350000Y-35750000D01*
%TD*%
M02*
