%TF.GenerationSoftware,KiCad,Pcbnew,9.0.4*%
%TF.CreationDate,2026-05-01T01:18:26-07:00*%
%TF.ProjectId,REV2_Dyno_Rectifier_PCB_2,52455632-5f44-4796-9e6f-5f5265637469,rev?*%
%TF.SameCoordinates,Original*%
%TF.FileFunction,Copper,L1,Top*%
%TF.FilePolarity,Positive*%
%FSLAX46Y46*%
G04 Gerber Fmt 4.6, Leading zero omitted, Abs format (unit mm)*
G04 Created by KiCad (PCBNEW 9.0.4) date 2026-05-01 01:18:26*
%MOMM*%
%LPD*%
G01*
G04 APERTURE LIST*
G04 Aperture macros list*
%AMRoundRect*
0 Rectangle with rounded corners*
0 $1 Rounding radius*
0 $2 $3 $4 $5 $6 $7 $8 $9 X,Y pos of 4 corners*
0 Add a 4 corners polygon primitive as box body*
4,1,4,$2,$3,$4,$5,$6,$7,$8,$9,$2,$3,0*
0 Add four circle primitives for the rounded corners*
1,1,$1+$1,$2,$3*
1,1,$1+$1,$4,$5*
1,1,$1+$1,$6,$7*
1,1,$1+$1,$8,$9*
0 Add four rect primitives between the rounded corners*
20,1,$1+$1,$2,$3,$4,$5,0*
20,1,$1+$1,$4,$5,$6,$7,0*
20,1,$1+$1,$6,$7,$8,$9,0*
20,1,$1+$1,$8,$9,$2,$3,0*%
G04 Aperture macros list end*
%TA.AperFunction,SMDPad,CuDef*%
%ADD10RoundRect,0.250000X0.475000X-0.250000X0.475000X0.250000X-0.475000X0.250000X-0.475000X-0.250000X0*%
%TD*%
%TA.AperFunction,SMDPad,CuDef*%
%ADD11RoundRect,0.225000X-0.225000X-0.250000X0.225000X-0.250000X0.225000X0.250000X-0.225000X0.250000X0*%
%TD*%
%TA.AperFunction,SMDPad,CuDef*%
%ADD12R,1.100000X0.600000*%
%TD*%
%TA.AperFunction,SMDPad,CuDef*%
%ADD13R,0.250000X0.600000*%
%TD*%
%TA.AperFunction,SMDPad,CuDef*%
%ADD14R,0.600000X0.250000*%
%TD*%
%TA.AperFunction,SMDPad,CuDef*%
%ADD15R,0.250000X0.750000*%
%TD*%
%TA.AperFunction,SMDPad,CuDef*%
%ADD16R,0.250000X1.350000*%
%TD*%
%TA.AperFunction,SMDPad,CuDef*%
%ADD17R,0.250000X1.800000*%
%TD*%
%TA.AperFunction,ComponentPad*%
%ADD18RoundRect,0.250000X-0.550000X-0.550000X0.550000X-0.550000X0.550000X0.550000X-0.550000X0.550000X0*%
%TD*%
%TA.AperFunction,ComponentPad*%
%ADD19C,1.600000*%
%TD*%
%TA.AperFunction,SMDPad,CuDef*%
%ADD20RoundRect,0.062500X-0.117500X-0.062500X0.117500X-0.062500X0.117500X0.062500X-0.117500X0.062500X0*%
%TD*%
%TA.AperFunction,SMDPad,CuDef*%
%ADD21RoundRect,0.062500X-0.062500X0.117500X-0.062500X-0.117500X0.062500X-0.117500X0.062500X0.117500X0*%
%TD*%
%TA.AperFunction,ComponentPad*%
%ADD22RoundRect,0.875000X0.875000X0.875000X-0.875000X0.875000X-0.875000X-0.875000X0.875000X-0.875000X0*%
%TD*%
%TA.AperFunction,ComponentPad*%
%ADD23RoundRect,0.750000X0.750000X1.000000X-0.750000X1.000000X-0.750000X-1.000000X0.750000X-1.000000X0*%
%TD*%
%TA.AperFunction,ComponentPad*%
%ADD24R,3.500000X3.500000*%
%TD*%
%TA.AperFunction,SMDPad,CuDef*%
%ADD25RoundRect,0.135000X0.185000X-0.135000X0.185000X0.135000X-0.185000X0.135000X-0.185000X-0.135000X0*%
%TD*%
%TA.AperFunction,SMDPad,CuDef*%
%ADD26RoundRect,0.135000X-0.185000X0.135000X-0.185000X-0.135000X0.185000X-0.135000X0.185000X0.135000X0*%
%TD*%
%TA.AperFunction,SMDPad,CuDef*%
%ADD27RoundRect,0.135000X-0.135000X-0.185000X0.135000X-0.185000X0.135000X0.185000X-0.135000X0.185000X0*%
%TD*%
%TA.AperFunction,SMDPad,CuDef*%
%ADD28RoundRect,0.218750X0.256250X-0.218750X0.256250X0.218750X-0.256250X0.218750X-0.256250X-0.218750X0*%
%TD*%
%TA.AperFunction,SMDPad,CuDef*%
%ADD29RoundRect,0.250000X-0.250000X-0.475000X0.250000X-0.475000X0.250000X0.475000X-0.250000X0.475000X0*%
%TD*%
%TA.AperFunction,SMDPad,CuDef*%
%ADD30RoundRect,0.225000X0.250000X-0.225000X0.250000X0.225000X-0.250000X0.225000X-0.250000X-0.225000X0*%
%TD*%
%TA.AperFunction,ComponentPad*%
%ADD31RoundRect,0.250000X0.750000X0.750000X-0.750000X0.750000X-0.750000X-0.750000X0.750000X-0.750000X0*%
%TD*%
%TA.AperFunction,ComponentPad*%
%ADD32C,2.000000*%
%TD*%
%TA.AperFunction,ComponentPad*%
%ADD33C,1.200000*%
%TD*%
%TA.AperFunction,ComponentPad*%
%ADD34R,1.200000X1.200000*%
%TD*%
G04 APERTURE END LIST*
D10*
%TO.P,C1,2*%
%TO.N,GND*%
X57900000Y-49750000D03*
%TO.P,C1,1*%
%TO.N,Rectified*%
X57900000Y-51650000D03*
%TD*%
D11*
%TO.P,C2,1*%
%TO.N,Rectified*%
X61725000Y-37300000D03*
%TO.P,C2,2*%
%TO.N,GND*%
X63275000Y-37300000D03*
%TD*%
D12*
%TO.P,U2,1,SW*%
%TO.N,Net-(D5-A)*%
X75600000Y-39250000D03*
%TO.P,U2,2,GND*%
%TO.N,GND*%
X75600000Y-38300000D03*
%TO.P,U2,3,FB*%
%TO.N,FB*%
X75600000Y-37350000D03*
%TO.P,U2,4,SHDN#*%
%TO.N,2.7V*%
X72900000Y-37350000D03*
%TO.P,U2,5,VOUT*%
%TO.N,V_out*%
X72900000Y-38300000D03*
%TO.P,U2,6,VIN*%
%TO.N,2.7V*%
X72900000Y-39250000D03*
%TD*%
D13*
%TO.P,U1,1,PS/SYNC*%
%TO.N,Net-(U1-EN)*%
X58200000Y-39320500D03*
%TO.P,U1,2,PG*%
%TO.N,Net-(U1-PG)*%
X58699800Y-39320300D03*
%TO.P,U1,3,Vaux*%
%TO.N,Net-(U1-Vaux)*%
X59200000Y-39320300D03*
%TO.P,U1,4,GND*%
%TO.N,GND*%
X59699800Y-39320300D03*
D14*
%TO.P,U1,5,FB*%
%TO.N,Net-(U1-FB)*%
X60349800Y-38895300D03*
%TO.P,U1,6,FB2*%
%TO.N,GND*%
X60349800Y-38395200D03*
D15*
%TO.P,U1,7,Vout*%
%TO.N,2.7V*%
X60175100Y-37645100D03*
D14*
X60349800Y-37895100D03*
X60350100Y-37394900D03*
D16*
%TO.P,U1,9,L2*%
%TO.N,Net-(U1-L2)*%
X59449900Y-37400000D03*
D17*
%TO.P,U1,10,PGND*%
%TO.N,GND*%
X58950000Y-37624800D03*
D16*
%TO.P,U1,11,L1*%
%TO.N,Net-(U1-L1)*%
X58449900Y-37400000D03*
D14*
%TO.P,U1,12,Vin*%
%TO.N,Rectified*%
X57549700Y-37394900D03*
X57549700Y-37895100D03*
D15*
X57724700Y-37645100D03*
D14*
%TO.P,U1,14,EN*%
%TO.N,Net-(U1-EN)*%
X57550000Y-38394900D03*
%TO.P,U1,15,Vsel*%
%TO.N,GND*%
X57549700Y-38895100D03*
%TD*%
D18*
%TO.P,C9,1*%
%TO.N,Rectified*%
X60100000Y-43500000D03*
D19*
%TO.P,C9,2*%
%TO.N,GND*%
X62100000Y-43500000D03*
%TD*%
D20*
%TO.P,D5,1,K*%
%TO.N,V_out*%
X69040000Y-45100000D03*
%TO.P,D5,2,A*%
%TO.N,Net-(D5-A)*%
X68200000Y-45100000D03*
%TD*%
D21*
%TO.P,D4,1,K*%
%TO.N,Net-(D2-A)*%
X63500000Y-40900000D03*
%TO.P,D4,2,A*%
%TO.N,Rectified*%
X63500000Y-40060000D03*
%TD*%
D20*
%TO.P,D3,1,K*%
%TO.N,Rectified*%
X58140000Y-40300000D03*
%TO.P,D3,2,A*%
%TO.N,Raw_Input*%
X57300000Y-40300000D03*
%TD*%
%TO.P,D2,1,K*%
%TO.N,GND*%
X60020000Y-40300000D03*
%TO.P,D2,2,A*%
%TO.N,Net-(D2-A)*%
X59180000Y-40300000D03*
%TD*%
%TO.P,D1,1,K*%
%TO.N,Raw_Input*%
X61920000Y-40300000D03*
%TO.P,D1,2,A*%
%TO.N,GND*%
X61080000Y-40300000D03*
%TD*%
D22*
%TO.P,J2,3*%
%TO.N,N/C*%
X65600000Y-46857500D03*
D23*
%TO.P,J2,2*%
%TO.N,Out_Tip*%
X68600000Y-51557500D03*
D24*
%TO.P,J2,1*%
%TO.N,Out_Sleeve*%
X62600000Y-51557500D03*
%TD*%
D25*
%TO.P,R5,1*%
%TO.N,FB*%
X57400000Y-44800000D03*
%TO.P,R5,2*%
%TO.N,GND*%
X57400000Y-43780000D03*
%TD*%
%TO.P,R4,1*%
%TO.N,2.7V*%
X71300000Y-38400000D03*
%TO.P,R4,2*%
%TO.N,Net-(U1-PG)*%
X71300000Y-37380000D03*
%TD*%
D26*
%TO.P,R3,1*%
%TO.N,Net-(R2-Pad2)*%
X57400000Y-41780000D03*
%TO.P,R3,2*%
%TO.N,Net-(U1-FB)*%
X57400000Y-42800000D03*
%TD*%
D25*
%TO.P,R2,1*%
%TO.N,2.7V*%
X71300000Y-40400000D03*
%TO.P,R2,2*%
%TO.N,Net-(R2-Pad2)*%
X71300000Y-39380000D03*
%TD*%
D27*
%TO.P,R1,1*%
%TO.N,Rectified*%
X70190000Y-45000000D03*
%TO.P,R1,2*%
%TO.N,Net-(U1-EN)*%
X71210000Y-45000000D03*
%TD*%
D28*
%TO.P,L2,1,1*%
%TO.N,2.7V*%
X71400000Y-43175000D03*
%TO.P,L2,2,2*%
%TO.N,Net-(D5-A)*%
X71400000Y-41600000D03*
%TD*%
%TO.P,L1,1,1*%
%TO.N,Net-(U1-L1)*%
X59800000Y-48687500D03*
%TO.P,L1,2,2*%
%TO.N,Net-(U1-L2)*%
X59800000Y-47112500D03*
%TD*%
D10*
%TO.P,C8,1*%
%TO.N,V_out*%
X57900000Y-48050000D03*
%TO.P,C8,2*%
%TO.N,GND*%
X57900000Y-46150000D03*
%TD*%
D29*
%TO.P,C7,1*%
%TO.N,2.7V*%
X73650000Y-45800000D03*
%TO.P,C7,2*%
%TO.N,GND*%
X75550000Y-45800000D03*
%TD*%
D10*
%TO.P,C5,1*%
%TO.N,2.7V*%
X57900000Y-55150000D03*
%TO.P,C5,2*%
%TO.N,GND*%
X57900000Y-53250000D03*
%TD*%
D30*
%TO.P,C4,1*%
%TO.N,2.7V*%
X59800000Y-55175000D03*
%TO.P,C4,2*%
%TO.N,GND*%
X59800000Y-53625000D03*
%TD*%
%TO.P,C3,1*%
%TO.N,Net-(U1-Vaux)*%
X59700000Y-51875000D03*
%TO.P,C3,2*%
%TO.N,GND*%
X59700000Y-50325000D03*
%TD*%
D31*
%TO.P,J1,1,Pin_1*%
%TO.N,Net-(D2-A)*%
X68600000Y-40682500D03*
D32*
%TO.P,J1,2,Pin_2*%
%TO.N,Raw_Input*%
X66060000Y-40682500D03*
%TD*%
D33*
%TO.P,C6,1*%
%TO.N,2.7V*%
X73600000Y-42400000D03*
D34*
%TO.P,C6,2*%
%TO.N,GND*%
X75350000Y-42400000D03*
%TD*%
M02*
