%TF.GenerationSoftware,KiCad,Pcbnew,9.0.4*%
%TF.CreationDate,2026-05-04T00:40:09-07:00*%
%TF.ProjectId,REV2_Dyno_Rectifier_PCB_2,52455632-5f44-4796-9e6f-5f5265637469,rev?*%
%TF.SameCoordinates,Original*%
%TF.FileFunction,Soldermask,Top*%
%TF.FilePolarity,Negative*%
%FSLAX46Y46*%
G04 Gerber Fmt 4.6, Leading zero omitted, Abs format (unit mm)*
G04 Created by KiCad (PCBNEW 9.0.4) date 2026-05-04 00:40:09*
%MOMM*%
%LPD*%
G01*
G04 APERTURE LIST*
G04 Aperture macros list*
%AMRoundRect*
0 Rectangle with rounded corners*
0 $1 Rounding radius*
0 $2 $3 $4 $5 $6 $7 $8 $9 X,Y pos of 4 corners*
0 Add a 4 corners polygon primitive as box body*
4,1,4,$2,$3,$4,$5,$6,$7,$8,$9,$2,$3,0*
0 Add four circle primitives for the rounded corners*
1,1,$1+$1,$2,$3*
1,1,$1+$1,$4,$5*
1,1,$1+$1,$6,$7*
1,1,$1+$1,$8,$9*
0 Add four rect primitives between the rounded corners*
20,1,$1+$1,$2,$3,$4,$5,0*
20,1,$1+$1,$4,$5,$6,$7,0*
20,1,$1+$1,$6,$7,$8,$9,0*
20,1,$1+$1,$8,$9,$2,$3,0*%
G04 Aperture macros list end*
%ADD10RoundRect,0.250000X0.850000X-0.375000X0.850000X0.375000X-0.850000X0.375000X-0.850000X-0.375000X0*%
%ADD11RoundRect,0.050800X0.125000X0.300000X-0.125000X0.300000X-0.125000X-0.300000X0.125000X-0.300000X0*%
%ADD12RoundRect,0.050800X-0.300000X0.125000X-0.300000X-0.125000X0.300000X-0.125000X0.300000X0.125000X0*%
%ADD13RoundRect,0.050800X-0.125000X-0.375000X0.125000X-0.375000X0.125000X0.375000X-0.125000X0.375000X0*%
%ADD14RoundRect,0.050800X-0.125000X-0.675000X0.125000X-0.675000X0.125000X0.675000X-0.125000X0.675000X0*%
%ADD15RoundRect,0.050800X-0.125000X-0.900000X0.125000X-0.900000X0.125000X0.900000X-0.125000X0.900000X0*%
%ADD16RoundRect,0.050800X0.300000X-0.125000X0.300000X0.125000X-0.300000X0.125000X-0.300000X-0.125000X0*%
%ADD17RoundRect,0.050800X0.125000X0.375000X-0.125000X0.375000X-0.125000X-0.375000X0.125000X-0.375000X0*%
%ADD18RoundRect,0.225000X-0.250000X0.225000X-0.250000X-0.225000X0.250000X-0.225000X0.250000X0.225000X0*%
%ADD19RoundRect,0.135000X0.135000X0.185000X-0.135000X0.185000X-0.135000X-0.185000X0.135000X-0.185000X0*%
%ADD20R,3.500000X3.500000*%
%ADD21RoundRect,0.750000X0.750000X1.000000X-0.750000X1.000000X-0.750000X-1.000000X0.750000X-1.000000X0*%
%ADD22RoundRect,0.875000X0.875000X0.875000X-0.875000X0.875000X-0.875000X-0.875000X0.875000X-0.875000X0*%
%ADD23RoundRect,0.062500X0.117500X0.062500X-0.117500X0.062500X-0.117500X-0.062500X0.117500X-0.062500X0*%
%ADD24RoundRect,0.250000X0.475000X-0.250000X0.475000X0.250000X-0.475000X0.250000X-0.475000X-0.250000X0*%
%ADD25RoundRect,0.250000X-0.250000X-0.475000X0.250000X-0.475000X0.250000X0.475000X-0.250000X0.475000X0*%
%ADD26RoundRect,0.250000X-0.550000X-0.550000X0.550000X-0.550000X0.550000X0.550000X-0.550000X0.550000X0*%
%ADD27C,1.600000*%
%ADD28C,1.200000*%
%ADD29R,1.200000X1.200000*%
%ADD30RoundRect,0.135000X0.185000X-0.135000X0.185000X0.135000X-0.185000X0.135000X-0.185000X-0.135000X0*%
%ADD31RoundRect,0.225000X0.250000X-0.225000X0.250000X0.225000X-0.250000X0.225000X-0.250000X-0.225000X0*%
%ADD32RoundRect,0.062500X-0.062500X0.117500X-0.062500X-0.117500X0.062500X-0.117500X0.062500X0.117500X0*%
%ADD33RoundRect,0.250000X0.250000X0.475000X-0.250000X0.475000X-0.250000X-0.475000X0.250000X-0.475000X0*%
%ADD34RoundRect,0.250000X0.750000X0.750000X-0.750000X0.750000X-0.750000X-0.750000X0.750000X-0.750000X0*%
%ADD35C,2.000000*%
%ADD36RoundRect,0.062500X0.062500X-0.117500X0.062500X0.117500X-0.062500X0.117500X-0.062500X-0.117500X0*%
%ADD37RoundRect,0.135000X-0.185000X0.135000X-0.185000X-0.135000X0.185000X-0.135000X0.185000X0.135000X0*%
%ADD38RoundRect,0.051000X-0.550000X-0.300000X0.550000X-0.300000X0.550000X0.300000X-0.550000X0.300000X0*%
%ADD39RoundRect,0.250000X-0.375000X-0.850000X0.375000X-0.850000X0.375000X0.850000X-0.375000X0.850000X0*%
G04 APERTURE END LIST*
D10*
%TO.C,L2*%
X68960000Y-45740000D03*
X68959996Y-43590000D03*
%TD*%
D11*
%TO.C,U1*%
X58000100Y-37170500D03*
X58499900Y-37170300D03*
X59000100Y-37170300D03*
X59499900Y-37170300D03*
D12*
X60149900Y-36745300D03*
X60149900Y-36245200D03*
D13*
X59975200Y-35495100D03*
D12*
X60149900Y-35745100D03*
X60150200Y-35244900D03*
D14*
X59250000Y-35250000D03*
D15*
X58750100Y-35474800D03*
D14*
X58250000Y-35250000D03*
D16*
X57349800Y-35244900D03*
X57349800Y-35745100D03*
D17*
X57524800Y-35495100D03*
D16*
X57350100Y-36244900D03*
X57349800Y-36745100D03*
%TD*%
D18*
%TO.C,C4*%
X57800001Y-52265004D03*
X57799999Y-53814996D03*
%TD*%
D19*
%TO.C,R2*%
X63140000Y-46410000D03*
X62120000Y-46410000D03*
%TD*%
D20*
%TO.C,J2*%
X62600000Y-51640000D03*
D21*
X68600000Y-51640000D03*
D22*
X65600000Y-46940000D03*
%TD*%
D23*
%TO.C,D3*%
X62750000Y-38280000D03*
X63590000Y-38280000D03*
%TD*%
D24*
%TO.C,C6*%
X60625000Y-48800000D03*
X60625000Y-46900000D03*
%TD*%
D25*
%TO.C,C8*%
X64800000Y-43750000D03*
X66700000Y-43750000D03*
%TD*%
D26*
%TO.C,C1*%
X60144888Y-43250000D03*
D27*
X62144888Y-43250000D03*
%TD*%
D24*
%TO.C,C9*%
X57820000Y-47350000D03*
X57820000Y-45450000D03*
%TD*%
D28*
%TO.C,C7*%
X72310000Y-43530000D03*
D29*
X74810000Y-43530000D03*
%TD*%
D23*
%TO.C,D1*%
X62770000Y-39250000D03*
X63610000Y-39250000D03*
%TD*%
D30*
%TO.C,R1*%
X60125000Y-51350000D03*
X60125000Y-50330000D03*
%TD*%
D24*
%TO.C,C10*%
X62800000Y-37000000D03*
X62800000Y-35100000D03*
%TD*%
D31*
%TO.C,C5*%
X71350000Y-36800000D03*
X71350000Y-35250000D03*
%TD*%
%TO.C,C3*%
X57750000Y-50750000D03*
X57750000Y-49200000D03*
%TD*%
D32*
%TO.C,D4*%
X61760000Y-38970000D03*
X61760000Y-38130000D03*
%TD*%
D33*
%TO.C,C2*%
X73280000Y-39290000D03*
X71380000Y-39290000D03*
%TD*%
D34*
%TO.C,J1*%
X68600000Y-38282500D03*
D35*
X66060000Y-38282500D03*
%TD*%
D36*
%TO.C,D5*%
X60100000Y-52300000D03*
X60100000Y-53140000D03*
%TD*%
D37*
%TO.C,R3*%
X57350000Y-40930000D03*
X57350000Y-41950000D03*
%TD*%
%TO.C,R4*%
X57380000Y-42920000D03*
X57380002Y-43940002D03*
%TD*%
D38*
%TO.C,U2*%
X75690000Y-37320000D03*
X75690000Y-36370000D03*
X75690000Y-35420000D03*
X72990000Y-35420000D03*
X72990000Y-36370000D03*
X72990000Y-37320000D03*
%TD*%
D39*
%TO.C,L1*%
X57850000Y-39000002D03*
X60000000Y-39000000D03*
%TD*%
D30*
%TO.C,R5*%
X59060000Y-49940000D03*
X59060000Y-48920000D03*
%TD*%
D23*
%TO.C,D2*%
X62782500Y-40160000D03*
X63622500Y-40160000D03*
%TD*%
M02*
