%TF.GenerationSoftware,KiCad,Pcbnew,9.0.4*%
%TF.CreationDate,2026-05-04T00:40:09-07:00*%
%TF.ProjectId,REV2_Dyno_Rectifier_PCB_2,52455632-5f44-4796-9e6f-5f5265637469,rev?*%
%TF.SameCoordinates,Original*%
%TF.FileFunction,Legend,Top*%
%TF.FilePolarity,Positive*%
%FSLAX46Y46*%
G04 Gerber Fmt 4.6, Leading zero omitted, Abs format (unit mm)*
G04 Created by KiCad (PCBNEW 9.0.4) date 2026-05-04 00:40:09*
%MOMM*%
%LPD*%
G01*
G04 APERTURE LIST*
G04 Aperture macros list*
%AMRoundRect*
0 Rectangle with rounded corners*
0 $1 Rounding radius*
0 $2 $3 $4 $5 $6 $7 $8 $9 X,Y pos of 4 corners*
0 Add a 4 corners polygon primitive as box body*
4,1,4,$2,$3,$4,$5,$6,$7,$8,$9,$2,$3,0*
0 Add four circle primitives for the rounded corners*
1,1,$1+$1,$2,$3*
1,1,$1+$1,$4,$5*
1,1,$1+$1,$6,$7*
1,1,$1+$1,$8,$9*
0 Add four rect primitives between the rounded corners*
20,1,$1+$1,$2,$3,$4,$5,0*
20,1,$1+$1,$4,$5,$6,$7,0*
20,1,$1+$1,$6,$7,$8,$9,0*
20,1,$1+$1,$8,$9,$2,$3,0*%
G04 Aperture macros list end*
%ADD10C,0.100000*%
%ADD11C,0.150000*%
%ADD12C,0.000000*%
%ADD13C,0.120000*%
%ADD14C,0.254000*%
%ADD15RoundRect,0.250000X0.850000X-0.375000X0.850000X0.375000X-0.850000X0.375000X-0.850000X-0.375000X0*%
%ADD16RoundRect,0.050800X0.125000X0.300000X-0.125000X0.300000X-0.125000X-0.300000X0.125000X-0.300000X0*%
%ADD17RoundRect,0.050800X-0.300000X0.125000X-0.300000X-0.125000X0.300000X-0.125000X0.300000X0.125000X0*%
%ADD18RoundRect,0.050800X-0.125000X-0.375000X0.125000X-0.375000X0.125000X0.375000X-0.125000X0.375000X0*%
%ADD19RoundRect,0.050800X-0.125000X-0.675000X0.125000X-0.675000X0.125000X0.675000X-0.125000X0.675000X0*%
%ADD20RoundRect,0.050800X-0.125000X-0.900000X0.125000X-0.900000X0.125000X0.900000X-0.125000X0.900000X0*%
%ADD21RoundRect,0.050800X0.300000X-0.125000X0.300000X0.125000X-0.300000X0.125000X-0.300000X-0.125000X0*%
%ADD22RoundRect,0.050800X0.125000X0.375000X-0.125000X0.375000X-0.125000X-0.375000X0.125000X-0.375000X0*%
%ADD23RoundRect,0.225000X-0.250000X0.225000X-0.250000X-0.225000X0.250000X-0.225000X0.250000X0.225000X0*%
%ADD24RoundRect,0.135000X0.135000X0.185000X-0.135000X0.185000X-0.135000X-0.185000X0.135000X-0.185000X0*%
%ADD25R,3.500000X3.500000*%
%ADD26RoundRect,0.750000X0.750000X1.000000X-0.750000X1.000000X-0.750000X-1.000000X0.750000X-1.000000X0*%
%ADD27RoundRect,0.875000X0.875000X0.875000X-0.875000X0.875000X-0.875000X-0.875000X0.875000X-0.875000X0*%
%ADD28RoundRect,0.062500X0.117500X0.062500X-0.117500X0.062500X-0.117500X-0.062500X0.117500X-0.062500X0*%
%ADD29RoundRect,0.250000X0.475000X-0.250000X0.475000X0.250000X-0.475000X0.250000X-0.475000X-0.250000X0*%
%ADD30RoundRect,0.250000X-0.250000X-0.475000X0.250000X-0.475000X0.250000X0.475000X-0.250000X0.475000X0*%
%ADD31RoundRect,0.250000X-0.550000X-0.550000X0.550000X-0.550000X0.550000X0.550000X-0.550000X0.550000X0*%
%ADD32C,1.600000*%
%ADD33C,1.200000*%
%ADD34R,1.200000X1.200000*%
%ADD35RoundRect,0.135000X0.185000X-0.135000X0.185000X0.135000X-0.185000X0.135000X-0.185000X-0.135000X0*%
%ADD36RoundRect,0.225000X0.250000X-0.225000X0.250000X0.225000X-0.250000X0.225000X-0.250000X-0.225000X0*%
%ADD37RoundRect,0.062500X-0.062500X0.117500X-0.062500X-0.117500X0.062500X-0.117500X0.062500X0.117500X0*%
%ADD38RoundRect,0.250000X0.250000X0.475000X-0.250000X0.475000X-0.250000X-0.475000X0.250000X-0.475000X0*%
%ADD39RoundRect,0.250000X0.750000X0.750000X-0.750000X0.750000X-0.750000X-0.750000X0.750000X-0.750000X0*%
%ADD40C,2.000000*%
%ADD41RoundRect,0.062500X0.062500X-0.117500X0.062500X0.117500X-0.062500X0.117500X-0.062500X-0.117500X0*%
%ADD42RoundRect,0.135000X-0.185000X0.135000X-0.185000X-0.135000X0.185000X-0.135000X0.185000X0.135000X0*%
%ADD43RoundRect,0.051000X-0.550000X-0.300000X0.550000X-0.300000X0.550000X0.300000X-0.550000X0.300000X0*%
%ADD44RoundRect,0.250000X-0.375000X-0.850000X0.375000X-0.850000X0.375000X0.850000X-0.375000X0.850000X0*%
G04 APERTURE END LIST*
D10*
X56800000Y-37200000D02*
X56800000Y-36200000D01*
X79200000Y-37200000D02*
X76600000Y-37200000D01*
X76600000Y-37200000D02*
X76600000Y-34270000D01*
X56800000Y-34270000D02*
X56800000Y-56400000D01*
X76600000Y-36200000D02*
X76600000Y-56200000D01*
X54200000Y-37200000D02*
X56800000Y-37200000D01*
D11*
G36*
X54578879Y-35880027D02*
G01*
X54589625Y-35697129D01*
X54620370Y-35537721D01*
X54652643Y-35438826D01*
X54693980Y-35347316D01*
X54744751Y-35262459D01*
X54897250Y-35427812D01*
X54838883Y-35545776D01*
X54799156Y-35656667D01*
X54774457Y-35770071D01*
X54766458Y-35880027D01*
X54771582Y-35989933D01*
X54785064Y-36070330D01*
X54804743Y-36127934D01*
X54834614Y-36173901D01*
X54872117Y-36201070D01*
X54919781Y-36210610D01*
X54957017Y-36203852D01*
X54984107Y-36185343D01*
X55003679Y-36155289D01*
X55023341Y-36094585D01*
X55035919Y-36010453D01*
X55048742Y-35818478D01*
X55064587Y-35647752D01*
X55079918Y-35565980D01*
X55103513Y-35493269D01*
X55138060Y-35431119D01*
X55186861Y-35382016D01*
X55247940Y-35351854D01*
X55335330Y-35340373D01*
X55418863Y-35350061D01*
X55486953Y-35377090D01*
X55542653Y-35419777D01*
X55588121Y-35478370D01*
X55622406Y-35549242D01*
X55648654Y-35638570D01*
X55665843Y-35750392D01*
X55672110Y-35889553D01*
X55663445Y-36052389D01*
X55638313Y-36199619D01*
X55595804Y-36338058D01*
X55534907Y-36468897D01*
X55382408Y-36300858D01*
X55427791Y-36193089D01*
X55458978Y-36091053D01*
X55478296Y-35987935D01*
X55484532Y-35889553D01*
X55479723Y-35795525D01*
X55467008Y-35726391D01*
X55448262Y-35676451D01*
X55420438Y-35637345D01*
X55384998Y-35613759D01*
X55339452Y-35605376D01*
X55297474Y-35618113D01*
X55270300Y-35654591D01*
X55253681Y-35708618D01*
X55243189Y-35784406D01*
X55231924Y-35957941D01*
X55217086Y-36137581D01*
X55201208Y-36225428D01*
X55175595Y-36304888D01*
X55137875Y-36373400D01*
X55084554Y-36427864D01*
X55017531Y-36461402D01*
X54919781Y-36474270D01*
X54835674Y-36463987D01*
X54766864Y-36435191D01*
X54710266Y-36389413D01*
X54663784Y-36326015D01*
X54629405Y-36250469D01*
X54602829Y-36154180D01*
X54585300Y-36032521D01*
X54578879Y-35880027D01*
G37*
G36*
X56083904Y-37109057D02*
G01*
X54874810Y-37109057D01*
X54839904Y-37115161D01*
X54815642Y-37131528D01*
X54799811Y-37158218D01*
X54794302Y-37195153D01*
X54794302Y-37326311D01*
X54595000Y-37326311D01*
X54595000Y-37162424D01*
X54603796Y-37061995D01*
X54628458Y-36982038D01*
X54668456Y-36917815D01*
X54721138Y-36871130D01*
X54788784Y-36841259D01*
X54875635Y-36830376D01*
X56083904Y-36830376D01*
X56083904Y-37109057D01*
G37*
G36*
X55872878Y-37639309D02*
G01*
X56083904Y-37639309D01*
X56083904Y-37917990D01*
X55872878Y-37917990D01*
X55872878Y-37639309D01*
G37*
G36*
X54595000Y-37639309D02*
G01*
X55655990Y-37639309D01*
X55655990Y-37917990D01*
X54595000Y-37917990D01*
X54595000Y-37639309D01*
G37*
G36*
X54595000Y-39146898D02*
G01*
X56083904Y-39146898D01*
X56083904Y-39425579D01*
X54595000Y-39425579D01*
X54595000Y-39146898D01*
G37*
G36*
X54578879Y-38790303D02*
G01*
X54586582Y-38674618D01*
X54608327Y-38577833D01*
X54643109Y-38496305D01*
X54691353Y-38427480D01*
X54749613Y-38374273D01*
X54820149Y-38334455D01*
X54905417Y-38308910D01*
X55008442Y-38299741D01*
X55241541Y-38299741D01*
X55345262Y-38308760D01*
X55430899Y-38333845D01*
X55501520Y-38372847D01*
X55559637Y-38424794D01*
X55608119Y-38492390D01*
X55642868Y-38571807D01*
X55664482Y-38665407D01*
X55672110Y-38776625D01*
X55666610Y-38858533D01*
X55650363Y-38934819D01*
X55623201Y-39006824D01*
X55586736Y-39071306D01*
X55541289Y-39127420D01*
X55485814Y-39175596D01*
X55270026Y-39146898D01*
X55333582Y-39138219D01*
X55384331Y-39114047D01*
X55426322Y-39073876D01*
X55456780Y-39019159D01*
X55475023Y-38952544D01*
X55481601Y-38868094D01*
X55473917Y-38779883D01*
X55452429Y-38710023D01*
X55417670Y-38654260D01*
X55371857Y-38613806D01*
X55313221Y-38587952D01*
X55238152Y-38578545D01*
X55008808Y-38578545D01*
X54934383Y-38587975D01*
X54876603Y-38613838D01*
X54831762Y-38654260D01*
X54797921Y-38709862D01*
X54776916Y-38779716D01*
X54769389Y-38868094D01*
X54776218Y-38952454D01*
X54795218Y-39019159D01*
X54826630Y-39073840D01*
X54869590Y-39114047D01*
X54921410Y-39138226D01*
X54986002Y-39146898D01*
X54763069Y-39165949D01*
X54696780Y-39115181D01*
X54635300Y-39034057D01*
X54604815Y-38967939D01*
X54585695Y-38887872D01*
X54578879Y-38790303D01*
G37*
G36*
X54578879Y-40429905D02*
G01*
X54587546Y-40282388D01*
X54611869Y-40159476D01*
X54650309Y-40056714D01*
X54702711Y-39970729D01*
X54767946Y-39902283D01*
X54846458Y-39851776D01*
X54940938Y-39819664D01*
X55054878Y-39808185D01*
X55174588Y-39808185D01*
X55293769Y-39819342D01*
X55392490Y-39850478D01*
X55474307Y-39899182D01*
X55542051Y-39964623D01*
X55597620Y-40048270D01*
X55637895Y-40147329D01*
X55663155Y-40264892D01*
X55672110Y-40405237D01*
X55662300Y-40535266D01*
X55634339Y-40645190D01*
X55588877Y-40739172D01*
X55524466Y-40819839D01*
X55448982Y-40880467D01*
X55357039Y-40926379D01*
X55245395Y-40956059D01*
X55110199Y-40966751D01*
X55040498Y-40966751D01*
X55040498Y-40010418D01*
X55209026Y-40010418D01*
X55209026Y-40701748D01*
X55293116Y-40684918D01*
X55359066Y-40654472D01*
X55410435Y-40612233D01*
X55450765Y-40554971D01*
X55474737Y-40487123D01*
X55483066Y-40405237D01*
X55473857Y-40305335D01*
X55447900Y-40225404D01*
X55405397Y-40160750D01*
X55350036Y-40114285D01*
X55278353Y-40084293D01*
X55185762Y-40073311D01*
X55050940Y-40073311D01*
X54965817Y-40084880D01*
X54899830Y-40116704D01*
X54848615Y-40166856D01*
X54810651Y-40234747D01*
X54786789Y-40320678D01*
X54778182Y-40429905D01*
X54784388Y-40513594D01*
X54803369Y-40597822D01*
X54833700Y-40676851D01*
X54873986Y-40746810D01*
X54737149Y-40929870D01*
X54669964Y-40817891D01*
X54620187Y-40693565D01*
X54589028Y-40560929D01*
X54578879Y-40429905D01*
G37*
G36*
X55655990Y-43078353D02*
G01*
X55479952Y-43078353D01*
X54788440Y-42396671D01*
X54788440Y-43115233D01*
X54595000Y-43115233D01*
X54595000Y-42059127D01*
X54775159Y-42059127D01*
X55462550Y-42758639D01*
X55462550Y-42078300D01*
X55655990Y-42078300D01*
X55655990Y-43078353D01*
G37*
G36*
X55323469Y-43453322D02*
G01*
X55414032Y-43483566D01*
X55489468Y-43531134D01*
X55552309Y-43595537D01*
X55603151Y-43676711D01*
X55640313Y-43773472D01*
X55663766Y-43888956D01*
X55672110Y-44027358D01*
X55663767Y-44165693D01*
X55640317Y-44281138D01*
X55603155Y-44377883D01*
X55552309Y-44459057D01*
X55489468Y-44523460D01*
X55414032Y-44571028D01*
X55323469Y-44601272D01*
X55214521Y-44612076D01*
X55038483Y-44612076D01*
X54928996Y-44601264D01*
X54838004Y-44571006D01*
X54762233Y-44523432D01*
X54699139Y-44459057D01*
X54648078Y-44377843D01*
X54610779Y-44281083D01*
X54587249Y-44165652D01*
X54578879Y-44027358D01*
X54778182Y-44027358D01*
X54786399Y-44120712D01*
X54809381Y-44194545D01*
X54846600Y-44253405D01*
X54895568Y-44296106D01*
X54958303Y-44323440D01*
X55038667Y-44333394D01*
X55214338Y-44333394D01*
X55294692Y-44323409D01*
X55357049Y-44296053D01*
X55405397Y-44253405D01*
X55442021Y-44194650D01*
X55464692Y-44120821D01*
X55472808Y-44027358D01*
X55464730Y-43934780D01*
X55442091Y-43861090D01*
X55405397Y-43801922D01*
X55357013Y-43758925D01*
X55294655Y-43731373D01*
X55214338Y-43721322D01*
X55038667Y-43721322D01*
X54958339Y-43731342D01*
X54895604Y-43758872D01*
X54846600Y-43801922D01*
X54809311Y-43861194D01*
X54786360Y-43934887D01*
X54778182Y-44027358D01*
X54578879Y-44027358D01*
X54587309Y-43889089D01*
X54611014Y-43773648D01*
X54648618Y-43676837D01*
X54700146Y-43595537D01*
X54763758Y-43531165D01*
X54840058Y-43483585D01*
X54931586Y-43453326D01*
X55041598Y-43442519D01*
X55214521Y-43442519D01*
X55323469Y-43453322D01*
G37*
G36*
X54595000Y-45007627D02*
G01*
X55655990Y-45007627D01*
X55655990Y-45286308D01*
X54595000Y-45286308D01*
X54595000Y-45007627D01*
G37*
G36*
X54595000Y-45868339D02*
G01*
X55237786Y-45868339D01*
X55310545Y-45858783D01*
X55367230Y-45832490D01*
X55411442Y-45791158D01*
X55444584Y-45734754D01*
X55465331Y-45663153D01*
X55472808Y-45571828D01*
X55466152Y-45483563D01*
X55447802Y-45414673D01*
X55418861Y-45360802D01*
X55379617Y-45320592D01*
X55329905Y-45295390D01*
X55266637Y-45286308D01*
X55471618Y-45257609D01*
X55532125Y-45307062D01*
X55581103Y-45364123D01*
X55619904Y-45429068D01*
X55648926Y-45502224D01*
X55666247Y-45579850D01*
X55672110Y-45663419D01*
X55664413Y-45776822D01*
X55642639Y-45871975D01*
X55607709Y-45952424D01*
X55559087Y-46020624D01*
X55500650Y-46073154D01*
X55429670Y-46112570D01*
X55343626Y-46137911D01*
X55239434Y-46147020D01*
X54595000Y-46147020D01*
X54595000Y-45868339D01*
G37*
G36*
X54578879Y-47151468D02*
G01*
X54587546Y-47003951D01*
X54611869Y-46881039D01*
X54650309Y-46778278D01*
X54702711Y-46692292D01*
X54767946Y-46623847D01*
X54846458Y-46573339D01*
X54940938Y-46541227D01*
X55054878Y-46529748D01*
X55174588Y-46529748D01*
X55293769Y-46540905D01*
X55392490Y-46572041D01*
X55474307Y-46620745D01*
X55542051Y-46686186D01*
X55597620Y-46769833D01*
X55637895Y-46868892D01*
X55663155Y-46986455D01*
X55672110Y-47126800D01*
X55662300Y-47256829D01*
X55634339Y-47366754D01*
X55588877Y-47460736D01*
X55524466Y-47541402D01*
X55448982Y-47602030D01*
X55357039Y-47647942D01*
X55245395Y-47677622D01*
X55110199Y-47688314D01*
X55040498Y-47688314D01*
X55040498Y-46731981D01*
X55209026Y-46731981D01*
X55209026Y-47423311D01*
X55293116Y-47406481D01*
X55359066Y-47376035D01*
X55410435Y-47333796D01*
X55450765Y-47276534D01*
X55474737Y-47208686D01*
X55483066Y-47126800D01*
X55473857Y-47026898D01*
X55447900Y-46946967D01*
X55405397Y-46882313D01*
X55350036Y-46835848D01*
X55278353Y-46805856D01*
X55185762Y-46794874D01*
X55050940Y-46794874D01*
X54965817Y-46806443D01*
X54899830Y-46838267D01*
X54848615Y-46888419D01*
X54810651Y-46956310D01*
X54786789Y-47042241D01*
X54778182Y-47151468D01*
X54784388Y-47235157D01*
X54803369Y-47319385D01*
X54833700Y-47398414D01*
X54873986Y-47468374D01*
X54737149Y-47651434D01*
X54669964Y-47539454D01*
X54620187Y-47415129D01*
X54589028Y-47282493D01*
X54578879Y-47151468D01*
G37*
G36*
X54977484Y-48091926D02*
G01*
X56083904Y-48091926D01*
X56083904Y-48370607D01*
X54977484Y-48370607D01*
X54977484Y-48091926D01*
G37*
G36*
X54595000Y-48085087D02*
G01*
X54814818Y-48085087D01*
X54814818Y-48377445D01*
X54595000Y-48377445D01*
X54595000Y-48085087D01*
G37*
G36*
X78841120Y-54309972D02*
G01*
X78830374Y-54492870D01*
X78799629Y-54652278D01*
X78767356Y-54751173D01*
X78726019Y-54842683D01*
X78675248Y-54927540D01*
X78522749Y-54762187D01*
X78581116Y-54644223D01*
X78620843Y-54533332D01*
X78645542Y-54419928D01*
X78653541Y-54309972D01*
X78648417Y-54200066D01*
X78634935Y-54119669D01*
X78615256Y-54062065D01*
X78585385Y-54016098D01*
X78547882Y-53988929D01*
X78500218Y-53979389D01*
X78462982Y-53986147D01*
X78435892Y-54004656D01*
X78416320Y-54034710D01*
X78396658Y-54095414D01*
X78384080Y-54179546D01*
X78371257Y-54371521D01*
X78355412Y-54542247D01*
X78340081Y-54624019D01*
X78316486Y-54696730D01*
X78281939Y-54758880D01*
X78233138Y-54807983D01*
X78172059Y-54838145D01*
X78084669Y-54849626D01*
X78001136Y-54839938D01*
X77933046Y-54812909D01*
X77877346Y-54770222D01*
X77831878Y-54711629D01*
X77797593Y-54640757D01*
X77771345Y-54551429D01*
X77754156Y-54439607D01*
X77747889Y-54300446D01*
X77756554Y-54137610D01*
X77781686Y-53990380D01*
X77824195Y-53851941D01*
X77885092Y-53721102D01*
X78037591Y-53889141D01*
X77992208Y-53996910D01*
X77961021Y-54098946D01*
X77941703Y-54202064D01*
X77935467Y-54300446D01*
X77940276Y-54394474D01*
X77952991Y-54463608D01*
X77971737Y-54513548D01*
X77999561Y-54552654D01*
X78035001Y-54576240D01*
X78080547Y-54584623D01*
X78122525Y-54571886D01*
X78149699Y-54535408D01*
X78166318Y-54481381D01*
X78176810Y-54405593D01*
X78188075Y-54232058D01*
X78202913Y-54052418D01*
X78218791Y-53964571D01*
X78244404Y-53885111D01*
X78282124Y-53816599D01*
X78335445Y-53762135D01*
X78402468Y-53728597D01*
X78500218Y-53715729D01*
X78584325Y-53726012D01*
X78653135Y-53754808D01*
X78709733Y-53800586D01*
X78756215Y-53863984D01*
X78790594Y-53939530D01*
X78817170Y-54035819D01*
X78834699Y-54157478D01*
X78841120Y-54309972D01*
G37*
G36*
X77336095Y-53080942D02*
G01*
X78545189Y-53080942D01*
X78580095Y-53074838D01*
X78604357Y-53058471D01*
X78620188Y-53031781D01*
X78625697Y-52994846D01*
X78625697Y-52863688D01*
X78825000Y-52863688D01*
X78825000Y-53027575D01*
X78816203Y-53128004D01*
X78791541Y-53207961D01*
X78751543Y-53272184D01*
X78698861Y-53318869D01*
X78631215Y-53348740D01*
X78544364Y-53359623D01*
X77336095Y-53359623D01*
X77336095Y-53080942D01*
G37*
G36*
X77547121Y-52550690D02*
G01*
X77336095Y-52550690D01*
X77336095Y-52272009D01*
X77547121Y-52272009D01*
X77547121Y-52550690D01*
G37*
G36*
X78825000Y-52550690D02*
G01*
X77764009Y-52550690D01*
X77764009Y-52272009D01*
X78825000Y-52272009D01*
X78825000Y-52550690D01*
G37*
G36*
X78825000Y-51043101D02*
G01*
X77336095Y-51043101D01*
X77336095Y-50764420D01*
X78825000Y-50764420D01*
X78825000Y-51043101D01*
G37*
G36*
X78841120Y-51399696D02*
G01*
X78833417Y-51515381D01*
X78811672Y-51612166D01*
X78776890Y-51693694D01*
X78728646Y-51762519D01*
X78670386Y-51815726D01*
X78599850Y-51855544D01*
X78514582Y-51881089D01*
X78411557Y-51890258D01*
X78178458Y-51890258D01*
X78074737Y-51881239D01*
X77989100Y-51856154D01*
X77918479Y-51817152D01*
X77860362Y-51765205D01*
X77811880Y-51697609D01*
X77777131Y-51618192D01*
X77755517Y-51524592D01*
X77747889Y-51413374D01*
X77753389Y-51331466D01*
X77769636Y-51255180D01*
X77796798Y-51183175D01*
X77833263Y-51118693D01*
X77878710Y-51062579D01*
X77934185Y-51014403D01*
X78149973Y-51043101D01*
X78086417Y-51051780D01*
X78035668Y-51075952D01*
X77993677Y-51116123D01*
X77963219Y-51170840D01*
X77944976Y-51237455D01*
X77938398Y-51321905D01*
X77946082Y-51410116D01*
X77967570Y-51479976D01*
X78002329Y-51535739D01*
X78048142Y-51576193D01*
X78106778Y-51602047D01*
X78181847Y-51611454D01*
X78411191Y-51611454D01*
X78485616Y-51602024D01*
X78543396Y-51576161D01*
X78588237Y-51535739D01*
X78622078Y-51480137D01*
X78643083Y-51410283D01*
X78650610Y-51321905D01*
X78643781Y-51237545D01*
X78624781Y-51170840D01*
X78593369Y-51116159D01*
X78550409Y-51075952D01*
X78498589Y-51051773D01*
X78433997Y-51043101D01*
X78656930Y-51024050D01*
X78723219Y-51074818D01*
X78784699Y-51155942D01*
X78815184Y-51222060D01*
X78834304Y-51302127D01*
X78841120Y-51399696D01*
G37*
G36*
X78841120Y-49760094D02*
G01*
X78832453Y-49907611D01*
X78808130Y-50030523D01*
X78769690Y-50133285D01*
X78717288Y-50219270D01*
X78652053Y-50287716D01*
X78573541Y-50338223D01*
X78479061Y-50370335D01*
X78365121Y-50381814D01*
X78245411Y-50381814D01*
X78126230Y-50370657D01*
X78027509Y-50339521D01*
X77945692Y-50290817D01*
X77877948Y-50225376D01*
X77822379Y-50141729D01*
X77782104Y-50042670D01*
X77756844Y-49925107D01*
X77747889Y-49784762D01*
X77757699Y-49654733D01*
X77785660Y-49544809D01*
X77831122Y-49450827D01*
X77895533Y-49370160D01*
X77971017Y-49309532D01*
X78062960Y-49263620D01*
X78174604Y-49233940D01*
X78309800Y-49223248D01*
X78379501Y-49223248D01*
X78379501Y-50179581D01*
X78210973Y-50179581D01*
X78210973Y-49488251D01*
X78126883Y-49505081D01*
X78060933Y-49535527D01*
X78009564Y-49577766D01*
X77969234Y-49635028D01*
X77945262Y-49702876D01*
X77936933Y-49784762D01*
X77946142Y-49884664D01*
X77972099Y-49964595D01*
X78014602Y-50029249D01*
X78069963Y-50075714D01*
X78141646Y-50105706D01*
X78234237Y-50116688D01*
X78369059Y-50116688D01*
X78454182Y-50105119D01*
X78520169Y-50073295D01*
X78571384Y-50023143D01*
X78609348Y-49955252D01*
X78633210Y-49869321D01*
X78641817Y-49760094D01*
X78635611Y-49676405D01*
X78616630Y-49592177D01*
X78586299Y-49513148D01*
X78546013Y-49443189D01*
X78682850Y-49260129D01*
X78750035Y-49372108D01*
X78799812Y-49496434D01*
X78830971Y-49629070D01*
X78841120Y-49760094D01*
G37*
G36*
X77764009Y-47111646D02*
G01*
X77940047Y-47111646D01*
X78631559Y-47793328D01*
X78631559Y-47074766D01*
X78825000Y-47074766D01*
X78825000Y-48130872D01*
X78644840Y-48130872D01*
X77957449Y-47431360D01*
X77957449Y-48111699D01*
X77764009Y-48111699D01*
X77764009Y-47111646D01*
G37*
G36*
X78491003Y-45588735D02*
G01*
X78581995Y-45618993D01*
X78657766Y-45666567D01*
X78720860Y-45730942D01*
X78771921Y-45812156D01*
X78809220Y-45908916D01*
X78832750Y-46024347D01*
X78841120Y-46162641D01*
X78832690Y-46300910D01*
X78808985Y-46416351D01*
X78771381Y-46513162D01*
X78719853Y-46594462D01*
X78656241Y-46658834D01*
X78579941Y-46706414D01*
X78488413Y-46736673D01*
X78378401Y-46747480D01*
X78205478Y-46747480D01*
X78096530Y-46736677D01*
X78005967Y-46706433D01*
X77930531Y-46658865D01*
X77867690Y-46594462D01*
X77816848Y-46513288D01*
X77779686Y-46416527D01*
X77756233Y-46301043D01*
X77747889Y-46162641D01*
X77947191Y-46162641D01*
X77955269Y-46255219D01*
X77977908Y-46328909D01*
X78014602Y-46388077D01*
X78062986Y-46431074D01*
X78125344Y-46458626D01*
X78205661Y-46468677D01*
X78381332Y-46468677D01*
X78461660Y-46458657D01*
X78524395Y-46431127D01*
X78573399Y-46388077D01*
X78610688Y-46328805D01*
X78633639Y-46255112D01*
X78641817Y-46162641D01*
X78633600Y-46069287D01*
X78610618Y-45995454D01*
X78573399Y-45936594D01*
X78524431Y-45893893D01*
X78461696Y-45866559D01*
X78381332Y-45856605D01*
X78205661Y-45856605D01*
X78125307Y-45866590D01*
X78062950Y-45893946D01*
X78014602Y-45936594D01*
X77977978Y-45995349D01*
X77955307Y-46069178D01*
X77947191Y-46162641D01*
X77747889Y-46162641D01*
X77756232Y-46024306D01*
X77779682Y-45908861D01*
X77816844Y-45812116D01*
X77867690Y-45730942D01*
X77930531Y-45666539D01*
X78005967Y-45618971D01*
X78096530Y-45588727D01*
X78205478Y-45577923D01*
X78381516Y-45577923D01*
X78491003Y-45588735D01*
G37*
G36*
X78825000Y-45182372D02*
G01*
X77764009Y-45182372D01*
X77764009Y-44903691D01*
X78825000Y-44903691D01*
X78825000Y-45182372D01*
G37*
G36*
X78825000Y-44321660D02*
G01*
X78182213Y-44321660D01*
X78109454Y-44331216D01*
X78052769Y-44357509D01*
X78008557Y-44398841D01*
X77975415Y-44455245D01*
X77954668Y-44526846D01*
X77947191Y-44618171D01*
X77953847Y-44706436D01*
X77972197Y-44775326D01*
X78001138Y-44829197D01*
X78040382Y-44869407D01*
X78090094Y-44894609D01*
X78153362Y-44903691D01*
X77948381Y-44932390D01*
X77887874Y-44882937D01*
X77838896Y-44825876D01*
X77800095Y-44760931D01*
X77771073Y-44687775D01*
X77753752Y-44610149D01*
X77747889Y-44526580D01*
X77755586Y-44413177D01*
X77777360Y-44318024D01*
X77812290Y-44237575D01*
X77860912Y-44169375D01*
X77919349Y-44116845D01*
X77990329Y-44077429D01*
X78076373Y-44052088D01*
X78180565Y-44042979D01*
X78825000Y-44042979D01*
X78825000Y-44321660D01*
G37*
G36*
X78841120Y-43038531D02*
G01*
X78832453Y-43186048D01*
X78808130Y-43308960D01*
X78769690Y-43411721D01*
X78717288Y-43497707D01*
X78652053Y-43566152D01*
X78573541Y-43616660D01*
X78479061Y-43648772D01*
X78365121Y-43660251D01*
X78245411Y-43660251D01*
X78126230Y-43649094D01*
X78027509Y-43617958D01*
X77945692Y-43569254D01*
X77877948Y-43503813D01*
X77822379Y-43420166D01*
X77782104Y-43321107D01*
X77756844Y-43203544D01*
X77747889Y-43063199D01*
X77757699Y-42933170D01*
X77785660Y-42823245D01*
X77831122Y-42729263D01*
X77895533Y-42648597D01*
X77971017Y-42587969D01*
X78062960Y-42542057D01*
X78174604Y-42512377D01*
X78309800Y-42501685D01*
X78379501Y-42501685D01*
X78379501Y-43458018D01*
X78210973Y-43458018D01*
X78210973Y-42766688D01*
X78126883Y-42783518D01*
X78060933Y-42813964D01*
X78009564Y-42856203D01*
X77969234Y-42913465D01*
X77945262Y-42981313D01*
X77936933Y-43063199D01*
X77946142Y-43163101D01*
X77972099Y-43243032D01*
X78014602Y-43307686D01*
X78069963Y-43354151D01*
X78141646Y-43384143D01*
X78234237Y-43395125D01*
X78369059Y-43395125D01*
X78454182Y-43383556D01*
X78520169Y-43351732D01*
X78571384Y-43301580D01*
X78609348Y-43233689D01*
X78633210Y-43147758D01*
X78641817Y-43038531D01*
X78635611Y-42954842D01*
X78616630Y-42870614D01*
X78586299Y-42791585D01*
X78546013Y-42721625D01*
X78682850Y-42538565D01*
X78750035Y-42650545D01*
X78799812Y-42774870D01*
X78830971Y-42907506D01*
X78841120Y-43038531D01*
G37*
G36*
X78442515Y-42098073D02*
G01*
X77336095Y-42098073D01*
X77336095Y-41819392D01*
X78442515Y-41819392D01*
X78442515Y-42098073D01*
G37*
G36*
X78825000Y-42104912D02*
G01*
X78605181Y-42104912D01*
X78605181Y-41812554D01*
X78825000Y-41812554D01*
X78825000Y-42104912D01*
G37*
D10*
X69936741Y-25114778D02*
X69936741Y-24606778D01*
X69936741Y-24606778D02*
X70057693Y-24606778D01*
X70057693Y-24606778D02*
X70130265Y-24630968D01*
X70130265Y-24630968D02*
X70178646Y-24679349D01*
X70178646Y-24679349D02*
X70202836Y-24727730D01*
X70202836Y-24727730D02*
X70227027Y-24824492D01*
X70227027Y-24824492D02*
X70227027Y-24897064D01*
X70227027Y-24897064D02*
X70202836Y-24993826D01*
X70202836Y-24993826D02*
X70178646Y-25042207D01*
X70178646Y-25042207D02*
X70130265Y-25090588D01*
X70130265Y-25090588D02*
X70057693Y-25114778D01*
X70057693Y-25114778D02*
X69936741Y-25114778D01*
X70541503Y-24872873D02*
X70541503Y-25114778D01*
X70372169Y-24606778D02*
X70541503Y-24872873D01*
X70541503Y-24872873D02*
X70710836Y-24606778D01*
X70880170Y-25114778D02*
X70880170Y-24606778D01*
X70880170Y-24606778D02*
X71170456Y-25114778D01*
X71170456Y-25114778D02*
X71170456Y-24606778D01*
X71388169Y-24969635D02*
X71630074Y-24969635D01*
X71339788Y-25114778D02*
X71509122Y-24606778D01*
X71509122Y-24606778D02*
X71678455Y-25114778D01*
X71847789Y-25114778D02*
X71847789Y-24606778D01*
X71847789Y-24606778D02*
X72017122Y-24969635D01*
X72017122Y-24969635D02*
X72186456Y-24606778D01*
X72186456Y-24606778D02*
X72186456Y-25114778D01*
X72525122Y-24606778D02*
X72621884Y-24606778D01*
X72621884Y-24606778D02*
X72670265Y-24630968D01*
X72670265Y-24630968D02*
X72718646Y-24679349D01*
X72718646Y-24679349D02*
X72742836Y-24776111D01*
X72742836Y-24776111D02*
X72742836Y-24945445D01*
X72742836Y-24945445D02*
X72718646Y-25042207D01*
X72718646Y-25042207D02*
X72670265Y-25090588D01*
X72670265Y-25090588D02*
X72621884Y-25114778D01*
X72621884Y-25114778D02*
X72525122Y-25114778D01*
X72525122Y-25114778D02*
X72476741Y-25090588D01*
X72476741Y-25090588D02*
X72428360Y-25042207D01*
X72428360Y-25042207D02*
X72404169Y-24945445D01*
X72404169Y-24945445D02*
X72404169Y-24776111D01*
X72404169Y-24776111D02*
X72428360Y-24679349D01*
X72428360Y-24679349D02*
X72476741Y-24630968D01*
X72476741Y-24630968D02*
X72525122Y-24606778D01*
X69936741Y-25932630D02*
X69936741Y-25424630D01*
X70178646Y-25932630D02*
X70178646Y-25424630D01*
X70178646Y-25424630D02*
X70468932Y-25932630D01*
X70468932Y-25932630D02*
X70468932Y-25424630D01*
X70710836Y-25932630D02*
X70710836Y-25424630D01*
X70710836Y-25424630D02*
X70904360Y-25424630D01*
X70904360Y-25424630D02*
X70952741Y-25448820D01*
X70952741Y-25448820D02*
X70976931Y-25473011D01*
X70976931Y-25473011D02*
X71001122Y-25521392D01*
X71001122Y-25521392D02*
X71001122Y-25593963D01*
X71001122Y-25593963D02*
X70976931Y-25642344D01*
X70976931Y-25642344D02*
X70952741Y-25666535D01*
X70952741Y-25666535D02*
X70904360Y-25690725D01*
X70904360Y-25690725D02*
X70710836Y-25690725D01*
X71218836Y-25424630D02*
X71218836Y-25835868D01*
X71218836Y-25835868D02*
X71243026Y-25884249D01*
X71243026Y-25884249D02*
X71267217Y-25908440D01*
X71267217Y-25908440D02*
X71315598Y-25932630D01*
X71315598Y-25932630D02*
X71412360Y-25932630D01*
X71412360Y-25932630D02*
X71460741Y-25908440D01*
X71460741Y-25908440D02*
X71484931Y-25884249D01*
X71484931Y-25884249D02*
X71509122Y-25835868D01*
X71509122Y-25835868D02*
X71509122Y-25424630D01*
X71678454Y-25424630D02*
X71968740Y-25424630D01*
X71823597Y-25932630D02*
X71823597Y-25424630D01*
G36*
X64179263Y-42445500D02*
G01*
X64081947Y-42445500D01*
X64081947Y-42403597D01*
X64055211Y-42424840D01*
X64022585Y-42440597D01*
X63982843Y-42450673D01*
X63934394Y-42454292D01*
X63884308Y-42449480D01*
X63840552Y-42435603D01*
X63801846Y-42412854D01*
X63767332Y-42380561D01*
X63740197Y-42342153D01*
X63720282Y-42297405D01*
X63707743Y-42245129D01*
X63703310Y-42183824D01*
X63704033Y-42174711D01*
X63805800Y-42174711D01*
X63810241Y-42232044D01*
X63822320Y-42276553D01*
X63840797Y-42310903D01*
X63865355Y-42337093D01*
X63896639Y-42356254D01*
X63936165Y-42368512D01*
X63986143Y-42372959D01*
X64009924Y-42369721D01*
X64041464Y-42358396D01*
X64069488Y-42342016D01*
X64081947Y-42327530D01*
X64081947Y-42024181D01*
X64061221Y-41998942D01*
X64037904Y-41981668D01*
X64011489Y-41971326D01*
X63981014Y-41967760D01*
X63943023Y-41971548D01*
X63909834Y-41982486D01*
X63880446Y-42000478D01*
X63854206Y-42026150D01*
X63833493Y-42056487D01*
X63818444Y-42090844D01*
X63809076Y-42129945D01*
X63805800Y-42174711D01*
X63704033Y-42174711D01*
X63708128Y-42123078D01*
X63722117Y-42068363D01*
X63745001Y-42018618D01*
X63777087Y-41973027D01*
X63817132Y-41933695D01*
X63859233Y-41906873D01*
X63904088Y-41891040D01*
X63952804Y-41885695D01*
X64008191Y-41890757D01*
X64050217Y-41904479D01*
X64081947Y-41925629D01*
X64081947Y-41671738D01*
X64179263Y-41671738D01*
X64179263Y-42445500D01*
G37*
G36*
X64528316Y-42538052D02*
G01*
X64511796Y-42569797D01*
X64485849Y-42598606D01*
X64448632Y-42624835D01*
X64406993Y-42643932D01*
X64362079Y-42655503D01*
X64313123Y-42659456D01*
X64313123Y-42572262D01*
X64352962Y-42568939D01*
X64387477Y-42559439D01*
X64417629Y-42544097D01*
X64442855Y-42522770D01*
X64456670Y-42500165D01*
X64461180Y-42475312D01*
X64457247Y-42431111D01*
X64445289Y-42386927D01*
X64404348Y-42278666D01*
X64255741Y-41897419D01*
X64355164Y-41897419D01*
X64516547Y-42320981D01*
X64661536Y-41897419D01*
X64760912Y-41897419D01*
X64528316Y-42538052D01*
G37*
G36*
X65173713Y-42445500D02*
G01*
X65173713Y-42125801D01*
X65169985Y-42067266D01*
X65160545Y-42028079D01*
X65147335Y-42002931D01*
X65127143Y-41984239D01*
X65098658Y-41972237D01*
X65058949Y-41967760D01*
X65025855Y-41972487D01*
X64989249Y-41987773D01*
X64956533Y-42010612D01*
X64933424Y-42037049D01*
X64933424Y-42445500D01*
X64836062Y-42445500D01*
X64836062Y-41897419D01*
X64902695Y-41897419D01*
X64933424Y-41966753D01*
X64954912Y-41937810D01*
X64980653Y-41915596D01*
X65011175Y-41899446D01*
X65047432Y-41889297D01*
X65090731Y-41885695D01*
X65139522Y-41890370D01*
X65178511Y-41903354D01*
X65209808Y-41923905D01*
X65234767Y-41952438D01*
X65253822Y-41990455D01*
X65266415Y-42040366D01*
X65271074Y-42105284D01*
X65271074Y-42445500D01*
X65173713Y-42445500D01*
G37*
G36*
X65641064Y-41889783D02*
G01*
X65688540Y-41900899D01*
X65725434Y-41917781D01*
X65753805Y-41939871D01*
X65775906Y-41968309D01*
X65792757Y-42005084D01*
X65803826Y-42052186D01*
X65807890Y-42112108D01*
X65807890Y-42308388D01*
X65811129Y-42344297D01*
X65819823Y-42370939D01*
X65833077Y-42390510D01*
X65850937Y-42404467D01*
X65850937Y-42454292D01*
X65811273Y-42452076D01*
X65782447Y-42446275D01*
X65762002Y-42437897D01*
X65744603Y-42424962D01*
X65730566Y-42407223D01*
X65719779Y-42383721D01*
X65688026Y-42414872D01*
X65648810Y-42437605D01*
X65600538Y-42452037D01*
X65540947Y-42457223D01*
X65499840Y-42451999D01*
X65462934Y-42436561D01*
X65429023Y-42410191D01*
X65402735Y-42376370D01*
X65387037Y-42337875D01*
X65381764Y-42294374D01*
X65478986Y-42294374D01*
X65483168Y-42325791D01*
X65494602Y-42348668D01*
X65513107Y-42365234D01*
X65540442Y-42376140D01*
X65579919Y-42380287D01*
X65614785Y-42376122D01*
X65647676Y-42363615D01*
X65679421Y-42342040D01*
X65710528Y-42309807D01*
X65710528Y-42176634D01*
X65667732Y-42168346D01*
X65646002Y-42166330D01*
X65598149Y-42170896D01*
X65558579Y-42183761D01*
X65525606Y-42204386D01*
X65499019Y-42232251D01*
X65483976Y-42261877D01*
X65478986Y-42294374D01*
X65381764Y-42294374D01*
X65381625Y-42293229D01*
X65386115Y-42253276D01*
X65399364Y-42216947D01*
X65421763Y-42183262D01*
X65454623Y-42151630D01*
X65492385Y-42126984D01*
X65535361Y-42108982D01*
X65584474Y-42097733D01*
X65640873Y-42093790D01*
X65672326Y-42096872D01*
X65710528Y-42107116D01*
X65706546Y-42062471D01*
X65695868Y-42029385D01*
X65679619Y-42005119D01*
X65657775Y-41987840D01*
X65629168Y-41976887D01*
X65591689Y-41972890D01*
X65546197Y-41976362D01*
X65508527Y-41986075D01*
X65477265Y-42001354D01*
X65451325Y-42022074D01*
X65410338Y-41940512D01*
X65441471Y-41920523D01*
X65486909Y-41901861D01*
X65535581Y-41889593D01*
X65580423Y-41885695D01*
X65641064Y-41889783D01*
G37*
G36*
X66596122Y-42445500D02*
G01*
X66596122Y-42097591D01*
X66592320Y-42054188D01*
X66582144Y-42022115D01*
X66566713Y-41998682D01*
X66546056Y-41982071D01*
X66519114Y-41971581D01*
X66483923Y-41967760D01*
X66449981Y-41973122D01*
X66417794Y-41989559D01*
X66391322Y-42013571D01*
X66375800Y-42039110D01*
X66375800Y-42445500D01*
X66278484Y-42445500D01*
X66278484Y-42055001D01*
X66274976Y-42029485D01*
X66264909Y-42008567D01*
X66247985Y-41991116D01*
X66226493Y-41978579D01*
X66200015Y-41970622D01*
X66167293Y-41967760D01*
X66138383Y-41972953D01*
X66105011Y-41990338D01*
X66075983Y-42014936D01*
X66058162Y-42040117D01*
X66058162Y-42445500D01*
X65960801Y-42445500D01*
X65960801Y-41897419D01*
X66024365Y-41897419D01*
X66056605Y-41959563D01*
X66087577Y-41926357D01*
X66120909Y-41903700D01*
X66157209Y-41890264D01*
X66197518Y-41885695D01*
X66245371Y-41889156D01*
X66284362Y-41898755D01*
X66316106Y-41913686D01*
X66341868Y-41933686D01*
X66362473Y-41959059D01*
X66375619Y-41940347D01*
X66395413Y-41922926D01*
X66423427Y-41906761D01*
X66468918Y-41890903D01*
X66515156Y-41885695D01*
X66557249Y-41889195D01*
X66592423Y-41899050D01*
X66621965Y-41914717D01*
X66646818Y-41936253D01*
X66666396Y-41962658D01*
X66680899Y-41994353D01*
X66690136Y-42032396D01*
X66693438Y-42078128D01*
X66693438Y-42445500D01*
X66596122Y-42445500D01*
G37*
G36*
X67102600Y-41890838D02*
G01*
X67151309Y-41905385D01*
X67192545Y-41928697D01*
X67227551Y-41961074D01*
X67254811Y-42000189D01*
X67275080Y-42047010D01*
X67288007Y-42103047D01*
X67292627Y-42170177D01*
X67287944Y-42236853D01*
X67274783Y-42292984D01*
X67254040Y-42340340D01*
X67225994Y-42380332D01*
X67190157Y-42413628D01*
X67148799Y-42437386D01*
X67100824Y-42452072D01*
X67044644Y-42457223D01*
X66987119Y-42451970D01*
X66938526Y-42437064D01*
X66897130Y-42413065D01*
X66861736Y-42379554D01*
X66834089Y-42339257D01*
X66813671Y-42291873D01*
X66800745Y-42236068D01*
X66796157Y-42170177D01*
X66898648Y-42170177D01*
X66902697Y-42233662D01*
X66913540Y-42281777D01*
X66929693Y-42317716D01*
X66950403Y-42344052D01*
X66975748Y-42362559D01*
X67006630Y-42374014D01*
X67044644Y-42378088D01*
X67077359Y-42374495D01*
X67105452Y-42364147D01*
X67129949Y-42347055D01*
X67151439Y-42322401D01*
X67171934Y-42283360D01*
X67185262Y-42233535D01*
X67190136Y-42170177D01*
X67186117Y-42107588D01*
X67175348Y-42060113D01*
X67159293Y-42024614D01*
X67138683Y-41998565D01*
X67113426Y-41980233D01*
X67082611Y-41968873D01*
X67044644Y-41964830D01*
X67012691Y-41968325D01*
X66984882Y-41978446D01*
X66960285Y-41995235D01*
X66938352Y-42019509D01*
X66917316Y-42057962D01*
X66903650Y-42107241D01*
X66898648Y-42170177D01*
X66796157Y-42170177D01*
X66800845Y-42106732D01*
X66814160Y-42052177D01*
X66835416Y-42005034D01*
X66864530Y-41964143D01*
X66901357Y-41929886D01*
X66942936Y-41905671D01*
X66990226Y-41890849D01*
X67044644Y-41885695D01*
X67102600Y-41890838D01*
G37*
G36*
X67811719Y-41689324D02*
G01*
X67834974Y-41693737D01*
X67854492Y-41706955D01*
X67867769Y-41726361D01*
X67872169Y-41749133D01*
X67867744Y-41772377D01*
X67854492Y-41791860D01*
X67834974Y-41805077D01*
X67811719Y-41809491D01*
X67788897Y-41805100D01*
X67769450Y-41791860D01*
X67756198Y-41772377D01*
X67751773Y-41749133D01*
X67756144Y-41725954D01*
X67769175Y-41706726D01*
X67788485Y-41693695D01*
X67811719Y-41689324D01*
G37*
G36*
X67758459Y-42445500D02*
G01*
X67758459Y-41979484D01*
X67683125Y-41979484D01*
X67683125Y-41897419D01*
X67855774Y-41897419D01*
X67855774Y-42445500D01*
X67758459Y-42445500D01*
G37*
G36*
X68347893Y-42445500D02*
G01*
X68347893Y-42125801D01*
X68344165Y-42067266D01*
X68334725Y-42028079D01*
X68321515Y-42002931D01*
X68301323Y-41984239D01*
X68272838Y-41972237D01*
X68233129Y-41967760D01*
X68200035Y-41972487D01*
X68163429Y-41987773D01*
X68130713Y-42010612D01*
X68107604Y-42037049D01*
X68107604Y-42445500D01*
X68010243Y-42445500D01*
X68010243Y-41897419D01*
X68076875Y-41897419D01*
X68107604Y-41966753D01*
X68129092Y-41937810D01*
X68154833Y-41915596D01*
X68185355Y-41899446D01*
X68221612Y-41889297D01*
X68264911Y-41885695D01*
X68313702Y-41890370D01*
X68352691Y-41903354D01*
X68383988Y-41923905D01*
X68408948Y-41952438D01*
X68428002Y-41990455D01*
X68440595Y-42040366D01*
X68445254Y-42105284D01*
X68445254Y-42445500D01*
X68347893Y-42445500D01*
G37*
G36*
X68872620Y-41890691D02*
G01*
X68921048Y-41904820D01*
X68962067Y-41927426D01*
X68996907Y-41958739D01*
X69023823Y-41996684D01*
X69044109Y-42043648D01*
X69057235Y-42101545D01*
X69061983Y-42172741D01*
X69057504Y-42235204D01*
X69044748Y-42289347D01*
X69024348Y-42336513D01*
X68996404Y-42377768D01*
X68968541Y-42405789D01*
X68936400Y-42427642D01*
X68899368Y-42443646D01*
X68856558Y-42453688D01*
X68806856Y-42457223D01*
X68771623Y-42454279D01*
X68732301Y-42444904D01*
X68697187Y-42430198D01*
X68681330Y-42416603D01*
X68681330Y-42659456D01*
X68583969Y-42659456D01*
X68583969Y-42014609D01*
X68681330Y-42014609D01*
X68681330Y-42336002D01*
X68693984Y-42348427D01*
X68720256Y-42362564D01*
X68750077Y-42372115D01*
X68778142Y-42375158D01*
X68828031Y-42370611D01*
X68867616Y-42358052D01*
X68899087Y-42338341D01*
X68923918Y-42311266D01*
X68942688Y-42275575D01*
X68955002Y-42229134D01*
X68959538Y-42169123D01*
X68956258Y-42115684D01*
X68947356Y-42073776D01*
X68933908Y-42041206D01*
X68916490Y-42016166D01*
X68893515Y-41996165D01*
X68863995Y-41981127D01*
X68826391Y-41971339D01*
X68778692Y-41967760D01*
X68757453Y-41970925D01*
X68728454Y-41982186D01*
X68700968Y-41998090D01*
X68681330Y-42014609D01*
X68583969Y-42014609D01*
X68583969Y-41897419D01*
X68681330Y-41897419D01*
X68681330Y-41941245D01*
X68710730Y-41916740D01*
X68742421Y-41899583D01*
X68776942Y-41889235D01*
X68815053Y-41885695D01*
X68872620Y-41890691D01*
G37*
G36*
X69260919Y-41897419D02*
G01*
X69260919Y-42247892D01*
X69264649Y-42290424D01*
X69274632Y-42321861D01*
X69289775Y-42344832D01*
X69310050Y-42361121D01*
X69336501Y-42371410D01*
X69371057Y-42375158D01*
X69402316Y-42372067D01*
X69431492Y-42362903D01*
X69459167Y-42347451D01*
X69483682Y-42327131D01*
X69500917Y-42305828D01*
X69511970Y-42283292D01*
X69511970Y-41897419D01*
X69609331Y-41897419D01*
X69609331Y-42445500D01*
X69511970Y-42445500D01*
X69511970Y-42371036D01*
X69498695Y-42390484D01*
X69477468Y-42410186D01*
X69446116Y-42430295D01*
X69412390Y-42445635D01*
X69380377Y-42454392D01*
X69349579Y-42457223D01*
X69304793Y-42453593D01*
X69267744Y-42443425D01*
X69236990Y-42427363D01*
X69211459Y-42405428D01*
X69191406Y-42378341D01*
X69176498Y-42345583D01*
X69166972Y-42306003D01*
X69163557Y-42258150D01*
X69163557Y-41897419D01*
X69260919Y-41897419D01*
G37*
G36*
X69777263Y-41974355D02*
G01*
X69713745Y-41974355D01*
X69713745Y-41897419D01*
X69777263Y-41897419D01*
X69777263Y-41782472D01*
X69874625Y-41745011D01*
X69874625Y-41897419D01*
X70025246Y-41897419D01*
X70025246Y-41974355D01*
X69874625Y-41974355D01*
X69874625Y-42247388D01*
X69877842Y-42293319D01*
X69886107Y-42324890D01*
X69897934Y-42345894D01*
X69915546Y-42361491D01*
X69939813Y-42371464D01*
X69972993Y-42375158D01*
X70010198Y-42370616D01*
X70050342Y-42356198D01*
X70064676Y-42441836D01*
X70002509Y-42453233D01*
X69932006Y-42457223D01*
X69890724Y-42451793D01*
X69854543Y-42435861D01*
X69822097Y-42408726D01*
X69797468Y-42374103D01*
X69782490Y-42333845D01*
X69777263Y-42286360D01*
X69777263Y-41974355D01*
G37*
D11*
X81343333Y-40329580D02*
X81295714Y-40377200D01*
X81295714Y-40377200D02*
X81152857Y-40424819D01*
X81152857Y-40424819D02*
X81057619Y-40424819D01*
X81057619Y-40424819D02*
X80914762Y-40377200D01*
X80914762Y-40377200D02*
X80819524Y-40281961D01*
X80819524Y-40281961D02*
X80771905Y-40186723D01*
X80771905Y-40186723D02*
X80724286Y-39996247D01*
X80724286Y-39996247D02*
X80724286Y-39853390D01*
X80724286Y-39853390D02*
X80771905Y-39662914D01*
X80771905Y-39662914D02*
X80819524Y-39567676D01*
X80819524Y-39567676D02*
X80914762Y-39472438D01*
X80914762Y-39472438D02*
X81057619Y-39424819D01*
X81057619Y-39424819D02*
X81152857Y-39424819D01*
X81152857Y-39424819D02*
X81295714Y-39472438D01*
X81295714Y-39472438D02*
X81343333Y-39520057D01*
X81724286Y-39520057D02*
X81771905Y-39472438D01*
X81771905Y-39472438D02*
X81867143Y-39424819D01*
X81867143Y-39424819D02*
X82105238Y-39424819D01*
X82105238Y-39424819D02*
X82200476Y-39472438D01*
X82200476Y-39472438D02*
X82248095Y-39520057D01*
X82248095Y-39520057D02*
X82295714Y-39615295D01*
X82295714Y-39615295D02*
X82295714Y-39710533D01*
X82295714Y-39710533D02*
X82248095Y-39853390D01*
X82248095Y-39853390D02*
X81676667Y-40424819D01*
X81676667Y-40424819D02*
X82295714Y-40424819D01*
D12*
%TO.C,REF\u002A\u002A*%
G36*
X77792715Y-39575863D02*
G01*
X77792709Y-39575862D01*
X77792721Y-39575862D01*
X77792715Y-39575863D01*
G37*
G36*
X79151357Y-35169995D02*
G01*
X79151357Y-41190007D01*
X76374623Y-41190007D01*
X76374622Y-36239692D01*
X76619400Y-36239692D01*
X76619399Y-40945227D01*
X78906578Y-40945225D01*
X78906579Y-35414773D01*
X76374620Y-35409523D01*
X76374621Y-35169994D01*
X79151357Y-35169995D01*
G37*
G36*
X78505125Y-37238944D02*
G01*
X78505126Y-37433056D01*
X77825292Y-37433056D01*
X77825292Y-37961826D01*
X78505127Y-37961826D01*
X78505125Y-38155923D01*
X77077552Y-38155922D01*
X77077554Y-37961826D01*
X77662744Y-37961825D01*
X77662745Y-37433057D01*
X77077553Y-37433055D01*
X77077554Y-37238943D01*
X78505125Y-37238944D01*
G37*
G36*
X78505127Y-36142922D02*
G01*
X78505124Y-36325549D01*
X77657004Y-36519661D01*
X78505126Y-36712806D01*
X78505125Y-36895449D01*
X77077552Y-37108678D01*
X77077553Y-37108664D01*
X77077554Y-36920306D01*
X78236441Y-36783571D01*
X77469574Y-36621011D01*
X77469574Y-36419266D01*
X78238358Y-36254800D01*
X76016836Y-35791673D01*
X76016837Y-35603305D01*
X78505127Y-36142922D01*
G37*
G36*
X77838584Y-39576327D02*
G01*
X77882980Y-39577715D01*
X77925900Y-39580032D01*
X77967339Y-39583272D01*
X78007299Y-39587441D01*
X78045780Y-39592534D01*
X78082779Y-39598556D01*
X78118302Y-39605502D01*
X78152345Y-39613375D01*
X78184908Y-39622173D01*
X78215990Y-39631898D01*
X78245595Y-39642551D01*
X78273722Y-39654129D01*
X78300366Y-39666633D01*
X78325532Y-39680066D01*
X78349220Y-39694424D01*
X78360516Y-39701895D01*
X78371453Y-39709610D01*
X78382030Y-39717567D01*
X78392250Y-39725768D01*
X78402111Y-39734212D01*
X78411613Y-39742898D01*
X78420757Y-39751829D01*
X78429543Y-39760998D01*
X78437970Y-39770413D01*
X78446035Y-39780070D01*
X78453747Y-39789972D01*
X78461097Y-39800113D01*
X78468089Y-39810498D01*
X78474724Y-39821126D01*
X78480998Y-39831997D01*
X78486915Y-39843114D01*
X78492472Y-39854469D01*
X78497674Y-39866068D01*
X78502514Y-39877910D01*
X78506996Y-39889995D01*
X78511120Y-39902324D01*
X78514883Y-39914895D01*
X78518290Y-39927707D01*
X78521338Y-39940765D01*
X78524028Y-39954062D01*
X78526359Y-39967603D01*
X78529945Y-39995416D01*
X78532096Y-40024197D01*
X78532815Y-40053952D01*
X78532102Y-40083705D01*
X78529959Y-40112488D01*
X78526393Y-40140300D01*
X78521398Y-40167140D01*
X78514978Y-40193010D01*
X78507129Y-40217909D01*
X78497855Y-40241836D01*
X78487155Y-40264791D01*
X78475025Y-40286776D01*
X78461470Y-40307791D01*
X78446487Y-40327833D01*
X78430080Y-40346906D01*
X78412242Y-40365007D01*
X78392980Y-40382136D01*
X78372289Y-40398292D01*
X78350170Y-40413481D01*
X78326594Y-40427720D01*
X78301515Y-40441044D01*
X78274932Y-40453445D01*
X78246848Y-40464930D01*
X78217263Y-40475494D01*
X78186176Y-40485143D01*
X78153588Y-40493874D01*
X78119498Y-40501684D01*
X78083907Y-40508575D01*
X78046815Y-40514547D01*
X78008219Y-40519601D01*
X77968124Y-40523735D01*
X77926526Y-40526954D01*
X77883425Y-40529251D01*
X77838824Y-40530629D01*
X77792735Y-40531089D01*
X77792721Y-40531086D01*
X77746733Y-40530629D01*
X77702229Y-40529250D01*
X77659213Y-40526953D01*
X77617684Y-40523737D01*
X77577642Y-40519600D01*
X77539084Y-40514547D01*
X77502015Y-40508575D01*
X77466432Y-40501684D01*
X77432333Y-40493873D01*
X77399722Y-40485144D01*
X77368598Y-40475495D01*
X77338959Y-40464930D01*
X77310808Y-40453446D01*
X77284143Y-40441043D01*
X77258964Y-40427720D01*
X77235271Y-40413481D01*
X77223978Y-40405950D01*
X77213041Y-40398180D01*
X77202464Y-40390173D01*
X77192245Y-40381926D01*
X77182384Y-40373441D01*
X77172883Y-40364715D01*
X77163741Y-40355751D01*
X77154957Y-40346548D01*
X77146529Y-40337106D01*
X77138463Y-40327424D01*
X77130755Y-40317504D01*
X77123404Y-40307346D01*
X77116412Y-40296948D01*
X77109778Y-40286308D01*
X77103503Y-40275430D01*
X77097585Y-40264315D01*
X77092028Y-40252961D01*
X77086830Y-40241367D01*
X77081989Y-40229533D01*
X77077507Y-40217462D01*
X77073386Y-40205150D01*
X77069617Y-40192600D01*
X77066213Y-40179812D01*
X77063164Y-40166784D01*
X77058143Y-40140010D01*
X77054559Y-40112281D01*
X77052406Y-40083594D01*
X77051689Y-40053952D01*
X77208483Y-40053952D01*
X77209010Y-40071919D01*
X77210589Y-40089254D01*
X77213223Y-40105954D01*
X77216911Y-40122018D01*
X77221649Y-40137448D01*
X77227447Y-40152241D01*
X77234291Y-40166403D01*
X77242195Y-40179928D01*
X77251148Y-40192817D01*
X77261154Y-40205073D01*
X77272214Y-40216696D01*
X77284330Y-40227679D01*
X77297494Y-40238030D01*
X77311714Y-40247746D01*
X77326987Y-40256828D01*
X77343315Y-40265275D01*
X77360869Y-40273030D01*
X77379828Y-40280287D01*
X77400190Y-40287045D01*
X77421958Y-40293299D01*
X77445131Y-40299054D01*
X77469707Y-40304309D01*
X77495689Y-40309063D01*
X77523073Y-40313316D01*
X77551864Y-40317068D01*
X77582058Y-40320322D01*
X77613658Y-40323076D01*
X77646664Y-40325328D01*
X77681076Y-40327077D01*
X77716892Y-40328329D01*
X77754112Y-40329081D01*
X77792735Y-40329330D01*
X77868346Y-40328329D01*
X77938368Y-40325328D01*
X78002803Y-40320323D01*
X78061655Y-40313316D01*
X78088983Y-40309061D01*
X78114917Y-40304308D01*
X78139452Y-40299055D01*
X78162591Y-40293299D01*
X78184333Y-40287043D01*
X78204678Y-40280287D01*
X78223626Y-40273031D01*
X78241178Y-40265274D01*
X78257503Y-40256828D01*
X78265272Y-40252370D01*
X78272774Y-40247748D01*
X78280017Y-40242970D01*
X78286994Y-40238032D01*
X78293707Y-40232937D01*
X78300159Y-40227683D01*
X78306348Y-40222269D01*
X78312272Y-40216697D01*
X78317934Y-40210966D01*
X78323331Y-40205079D01*
X78328468Y-40199029D01*
X78333339Y-40192822D01*
X78337945Y-40186458D01*
X78342292Y-40179933D01*
X78346370Y-40173249D01*
X78350190Y-40166407D01*
X78353744Y-40159408D01*
X78357036Y-40152247D01*
X78360065Y-40144930D01*
X78362829Y-40137454D01*
X78365330Y-40129818D01*
X78367569Y-40122024D01*
X78369545Y-40114070D01*
X78371256Y-40105959D01*
X78372703Y-40097688D01*
X78373889Y-40089258D01*
X78374811Y-40080669D01*
X78375469Y-40071922D01*
X78375994Y-40053953D01*
X78375474Y-40035872D01*
X78373903Y-40018443D01*
X78371289Y-40001660D01*
X78367628Y-39985527D01*
X78362922Y-39970047D01*
X78357172Y-39955215D01*
X78350373Y-39941034D01*
X78342529Y-39927501D01*
X78333641Y-39914618D01*
X78323703Y-39902385D01*
X78312722Y-39890804D01*
X78300697Y-39879871D01*
X78287623Y-39869588D01*
X78273503Y-39859956D01*
X78258340Y-39850973D01*
X78242130Y-39842643D01*
X78224575Y-39834769D01*
X78205616Y-39827402D01*
X78185252Y-39820544D01*
X78163483Y-39814195D01*
X78140310Y-39808353D01*
X78115734Y-39803016D01*
X78089754Y-39798191D01*
X78062365Y-39793873D01*
X78033574Y-39790066D01*
X78003379Y-39786763D01*
X77971778Y-39783970D01*
X77938773Y-39781684D01*
X77904363Y-39779906D01*
X77868550Y-39778637D01*
X77831331Y-39777874D01*
X77792725Y-39777620D01*
X77716897Y-39778638D01*
X77646676Y-39781682D01*
X77582073Y-39786765D01*
X77523088Y-39793875D01*
X77495700Y-39798193D01*
X77469721Y-39803018D01*
X77445142Y-39808351D01*
X77421967Y-39814194D01*
X77400197Y-39820543D01*
X77379832Y-39827404D01*
X77360871Y-39834766D01*
X77343315Y-39842641D01*
X77326987Y-39850974D01*
X77319220Y-39855385D01*
X77311715Y-39859956D01*
X77304474Y-39864691D01*
X77297495Y-39869589D01*
X77290781Y-39874650D01*
X77284328Y-39879870D01*
X77278141Y-39885255D01*
X77272217Y-39890803D01*
X77266555Y-39896513D01*
X77261155Y-39902385D01*
X77256018Y-39908423D01*
X77251147Y-39914617D01*
X77246539Y-39920977D01*
X77242191Y-39927502D01*
X77238111Y-39934186D01*
X77234291Y-39941032D01*
X77230737Y-39948045D01*
X77227445Y-39955215D01*
X77224417Y-39962549D01*
X77221652Y-39970048D01*
X77219149Y-39977706D01*
X77216910Y-39985528D01*
X77214936Y-39993513D01*
X77213224Y-40001661D01*
X77211775Y-40009968D01*
X77210590Y-40018441D01*
X77209666Y-40027075D01*
X77209009Y-40035871D01*
X77208483Y-40053952D01*
X77051689Y-40053952D01*
X77052407Y-40024198D01*
X77054560Y-39995414D01*
X77058143Y-39967604D01*
X77063162Y-39940763D01*
X77069619Y-39914894D01*
X77077506Y-39889995D01*
X77086830Y-39866068D01*
X77097587Y-39843110D01*
X77109777Y-39821126D01*
X77123403Y-39800113D01*
X77138463Y-39780070D01*
X77154955Y-39761000D01*
X77172883Y-39742899D01*
X77192247Y-39725768D01*
X77213042Y-39709610D01*
X77235272Y-39694422D01*
X77258963Y-39680064D01*
X77284142Y-39666633D01*
X77310808Y-39654128D01*
X77338960Y-39642551D01*
X77368598Y-39631899D01*
X77399722Y-39622174D01*
X77432333Y-39613373D01*
X77466431Y-39605502D01*
X77502014Y-39598553D01*
X77539085Y-39592535D01*
X77577641Y-39587439D01*
X77617684Y-39583271D01*
X77659214Y-39580031D01*
X77702230Y-39577715D01*
X77746731Y-39576327D01*
X77792715Y-39575863D01*
X77838584Y-39576327D01*
G37*
G36*
X78140291Y-38415259D02*
G01*
X78164619Y-38416738D01*
X78188193Y-38419203D01*
X78211011Y-38422653D01*
X78233073Y-38427090D01*
X78254382Y-38432514D01*
X78274937Y-38438921D01*
X78294737Y-38446318D01*
X78313781Y-38454700D01*
X78332072Y-38464068D01*
X78349611Y-38474422D01*
X78366391Y-38485762D01*
X78382419Y-38498089D01*
X78397694Y-38511401D01*
X78412210Y-38525701D01*
X78425975Y-38540983D01*
X78438943Y-38557208D01*
X78451072Y-38574331D01*
X78462366Y-38592347D01*
X78472822Y-38611262D01*
X78482446Y-38631071D01*
X78491229Y-38651778D01*
X78499180Y-38673383D01*
X78506290Y-38695885D01*
X78512564Y-38719280D01*
X78518004Y-38743575D01*
X78522607Y-38768764D01*
X78526370Y-38794851D01*
X78529301Y-38821833D01*
X78531391Y-38849714D01*
X78532646Y-38878490D01*
X78533065Y-38908162D01*
X78532722Y-38933272D01*
X78531689Y-38958418D01*
X78529974Y-38983591D01*
X78527566Y-39008795D01*
X78524473Y-39034030D01*
X78520691Y-39059293D01*
X78516222Y-39084583D01*
X78511065Y-39109905D01*
X78505464Y-39135261D01*
X78499174Y-39160645D01*
X78492198Y-39186062D01*
X78484534Y-39211503D01*
X78476185Y-39236980D01*
X78467146Y-39262484D01*
X78457420Y-39288018D01*
X78447010Y-39313582D01*
X78241429Y-39313582D01*
X78258294Y-39286284D01*
X78273996Y-39259374D01*
X78288529Y-39232852D01*
X78301899Y-39206722D01*
X78314106Y-39180978D01*
X78325147Y-39155625D01*
X78335021Y-39130660D01*
X78343730Y-39106082D01*
X78351353Y-39081445D01*
X78357958Y-39056781D01*
X78363548Y-39032085D01*
X78368118Y-39007360D01*
X78371674Y-38982604D01*
X78374215Y-38957820D01*
X78375739Y-38933004D01*
X78376247Y-38908161D01*
X78375993Y-38890126D01*
X78375230Y-38872599D01*
X78373962Y-38855582D01*
X78372185Y-38839070D01*
X78369899Y-38823069D01*
X78367106Y-38807576D01*
X78363804Y-38792591D01*
X78359993Y-38778113D01*
X78355676Y-38764141D01*
X78350851Y-38750681D01*
X78345516Y-38737729D01*
X78339673Y-38725282D01*
X78333325Y-38713343D01*
X78326466Y-38701915D01*
X78319099Y-38690993D01*
X78311225Y-38680579D01*
X78302775Y-38670738D01*
X78293923Y-38661534D01*
X78284669Y-38652963D01*
X78275008Y-38645027D01*
X78264946Y-38637726D01*
X78254479Y-38631059D01*
X78243610Y-38625028D01*
X78232336Y-38619631D01*
X78220661Y-38614867D01*
X78208580Y-38610742D01*
X78196097Y-38607249D01*
X78183212Y-38604392D01*
X78169921Y-38602170D01*
X78156228Y-38600583D01*
X78142133Y-38599629D01*
X78127630Y-38599313D01*
X78114445Y-38599533D01*
X78101654Y-38600193D01*
X78089258Y-38601294D01*
X78077259Y-38602838D01*
X78065653Y-38604820D01*
X78054446Y-38607244D01*
X78043633Y-38610109D01*
X78033216Y-38613414D01*
X78023195Y-38617159D01*
X78013570Y-38621346D01*
X78004342Y-38625974D01*
X77995508Y-38631042D01*
X77987069Y-38636550D01*
X77979028Y-38642499D01*
X77971382Y-38648889D01*
X77964132Y-38655720D01*
X77957179Y-38662978D01*
X77950432Y-38670887D01*
X77943884Y-38679445D01*
X77937539Y-38688652D01*
X77931396Y-38698509D01*
X77925454Y-38709018D01*
X77919712Y-38720175D01*
X77914174Y-38731981D01*
X77908837Y-38744437D01*
X77903702Y-38757545D01*
X77898768Y-38771301D01*
X77894034Y-38785708D01*
X77889505Y-38800764D01*
X77885176Y-38816471D01*
X77881051Y-38832827D01*
X77877124Y-38849831D01*
X77853219Y-38953087D01*
X77847422Y-38977523D01*
X77841266Y-39001106D01*
X77834751Y-39023839D01*
X77827876Y-39045720D01*
X77820646Y-39066749D01*
X77813054Y-39086926D01*
X77805108Y-39106250D01*
X77796800Y-39124725D01*
X77788136Y-39142347D01*
X77779113Y-39159118D01*
X77769729Y-39175037D01*
X77759987Y-39190102D01*
X77749889Y-39204318D01*
X77739428Y-39217681D01*
X77728612Y-39230193D01*
X77717436Y-39241853D01*
X77705836Y-39252736D01*
X77693753Y-39262920D01*
X77681184Y-39272403D01*
X77668131Y-39281182D01*
X77654590Y-39289257D01*
X77640566Y-39296630D01*
X77626056Y-39303303D01*
X77611058Y-39309271D01*
X77595579Y-39314539D01*
X77579610Y-39319105D01*
X77563158Y-39322967D01*
X77546220Y-39326127D01*
X77528797Y-39328586D01*
X77510884Y-39330341D01*
X77492490Y-39331393D01*
X77473607Y-39331744D01*
X77450001Y-39331245D01*
X77426993Y-39329743D01*
X77404584Y-39327240D01*
X77382771Y-39323736D01*
X77361556Y-39319230D01*
X77340937Y-39313725D01*
X77320915Y-39307218D01*
X77301495Y-39299710D01*
X77282669Y-39291200D01*
X77264443Y-39281688D01*
X77246812Y-39271176D01*
X77229781Y-39259666D01*
X77213346Y-39247155D01*
X77197508Y-39233639D01*
X77182272Y-39219124D01*
X77167632Y-39203606D01*
X77153622Y-39187144D01*
X77140516Y-39170022D01*
X77128312Y-39152245D01*
X77117015Y-39133807D01*
X77106621Y-39114714D01*
X77097129Y-39094963D01*
X77088541Y-39074553D01*
X77080857Y-39053489D01*
X77074076Y-39031768D01*
X77068202Y-39009388D01*
X77063229Y-38986348D01*
X77059162Y-38962655D01*
X77055996Y-38938303D01*
X77053737Y-38913292D01*
X77052380Y-38887627D01*
X77051927Y-38861304D01*
X77052232Y-38840611D01*
X77053131Y-38819647D01*
X77054624Y-38798417D01*
X77056715Y-38776917D01*
X77059404Y-38755148D01*
X77062689Y-38733110D01*
X77066574Y-38710802D01*
X77071059Y-38688225D01*
X77075900Y-38665369D01*
X77081338Y-38642212D01*
X77087376Y-38618758D01*
X77094008Y-38595002D01*
X77101239Y-38570949D01*
X77109066Y-38546596D01*
X77117493Y-38521947D01*
X77126515Y-38496999D01*
X77322532Y-38496999D01*
X77308860Y-38519005D01*
X77296056Y-38541042D01*
X77284119Y-38563107D01*
X77273050Y-38585205D01*
X77262843Y-38607329D01*
X77253505Y-38629484D01*
X77245035Y-38651669D01*
X77237428Y-38673885D01*
X77230708Y-38695907D01*
X77224881Y-38717988D01*
X77219950Y-38740130D01*
X77215920Y-38762331D01*
X77212780Y-38784590D01*
X77210539Y-38806914D01*
X77209194Y-38829296D01*
X77208748Y-38851738D01*
X77208997Y-38868606D01*
X77209749Y-38885028D01*
X77211000Y-38900997D01*
X77212751Y-38916520D01*
X77215003Y-38931597D01*
X77217756Y-38946222D01*
X77221008Y-38960400D01*
X77224762Y-38974130D01*
X77229017Y-38987410D01*
X77233772Y-39000244D01*
X77239027Y-39012629D01*
X77244784Y-39024567D01*
X77251042Y-39036056D01*
X77257799Y-39047096D01*
X77265056Y-39057691D01*
X77272816Y-39067836D01*
X77280879Y-39077446D01*
X77289294Y-39086436D01*
X77298060Y-39094807D01*
X77307178Y-39102556D01*
X77316645Y-39109687D01*
X77326465Y-39116197D01*
X77336634Y-39122085D01*
X77347156Y-39127357D01*
X77358029Y-39132007D01*
X77369253Y-39136037D01*
X77380827Y-39139446D01*
X77392754Y-39142238D01*
X77405029Y-39144409D01*
X77417654Y-39145957D01*
X77430633Y-39146889D01*
X77443961Y-39147199D01*
X77455621Y-39146997D01*
X77466927Y-39146393D01*
X77477881Y-39145382D01*
X77488487Y-39143972D01*
X77498742Y-39142156D01*
X77508645Y-39139937D01*
X77518196Y-39137316D01*
X77527395Y-39134290D01*
X77536244Y-39130861D01*
X77544744Y-39127029D01*
X77552891Y-39122793D01*
X77560684Y-39118154D01*
X77568130Y-39113114D01*
X77575222Y-39107667D01*
X77581966Y-39101817D01*
X77588358Y-39095565D01*
X77594507Y-39088640D01*
X77600531Y-39081014D01*
X77606429Y-39072686D01*
X77612197Y-39063654D01*
X77617841Y-39053921D01*
X77623356Y-39043485D01*
X77628745Y-39032347D01*
X77634007Y-39020505D01*
X77639144Y-39007964D01*
X77644153Y-38994719D01*
X77649035Y-38980771D01*
X77653790Y-38966123D01*
X77658418Y-38950770D01*
X77662920Y-38934717D01*
X77667293Y-38917959D01*
X77671541Y-38900501D01*
X77694495Y-38799151D01*
X77700562Y-38774478D01*
X77707044Y-38750657D01*
X77713947Y-38727684D01*
X77721266Y-38705566D01*
X77729005Y-38684298D01*
X77737164Y-38663884D01*
X77745739Y-38644318D01*
X77754731Y-38625608D01*
X77764146Y-38607745D01*
X77773976Y-38590737D01*
X77784224Y-38574580D01*
X77794893Y-38559272D01*
X77805979Y-38544817D01*
X77817484Y-38531215D01*
X77829407Y-38518463D01*
X77841748Y-38506562D01*
X77854581Y-38495447D01*
X77867982Y-38485048D01*
X77881950Y-38475367D01*
X77896486Y-38466401D01*
X77911592Y-38458152D01*
X77927265Y-38450623D01*
X77943505Y-38443810D01*
X77960312Y-38437715D01*
X77977687Y-38432336D01*
X77995631Y-38427674D01*
X78014142Y-38423731D01*
X78033221Y-38420504D01*
X78052866Y-38417995D01*
X78073078Y-38416199D01*
X78093860Y-38415124D01*
X78115208Y-38414766D01*
X78140291Y-38415259D01*
G37*
D13*
%TO.C,L2*%
X67849998Y-44926250D02*
X67849998Y-44403746D01*
X70069998Y-44926254D02*
X70069998Y-44403750D01*
D14*
%TO.C,U1*%
X57250100Y-34795000D02*
X57250100Y-34913900D01*
X57250100Y-37126200D02*
X57250100Y-37295000D01*
X57250100Y-37295000D02*
X57643900Y-37295000D01*
X57893900Y-34795000D02*
X57250100Y-34795000D01*
X59856100Y-37295000D02*
X60250000Y-37295000D01*
X60250000Y-34795000D02*
X59606200Y-34795000D01*
X60250000Y-34913900D02*
X60250000Y-34795000D01*
X60250000Y-37295000D02*
X60250000Y-37126200D01*
X58020100Y-37819700D02*
G75*
G02*
X57900300Y-37819700I-59900J0D01*
G01*
X57900300Y-37819700D02*
G75*
G02*
X58020100Y-37819700I59900J0D01*
G01*
D13*
%TO.C,C4*%
X57289999Y-52899418D02*
X57289997Y-53180579D01*
X58310003Y-52899421D02*
X58310001Y-53180582D01*
%TO.C,R2*%
X62783641Y-46030000D02*
X62476359Y-46030000D01*
X62783641Y-46790000D02*
X62476359Y-46790000D01*
%TO.C,J2*%
X61500000Y-55390000D02*
X61500000Y-56440000D01*
X61700000Y-47040000D02*
X63600000Y-47040000D01*
X61700000Y-49740000D02*
X61700000Y-47040000D01*
X61700000Y-56240000D02*
X61700000Y-53640000D01*
X62550000Y-56440000D02*
X61500000Y-56440000D01*
X67600000Y-47040000D02*
X76400000Y-47040000D01*
X76400000Y-47040000D02*
X76400000Y-56240000D01*
X76400000Y-56240000D02*
X61700000Y-56240000D01*
%TO.C,D3*%
X62309997Y-37880000D02*
X62309998Y-38680003D01*
X63669998Y-38679999D02*
X62309998Y-38680003D01*
X63670000Y-37880000D02*
X62309997Y-37880000D01*
%TO.C,C6*%
X59890000Y-48111252D02*
X59890000Y-47588748D01*
X61360000Y-48111252D02*
X61360000Y-47588748D01*
%TO.C,C8*%
X65488748Y-43015000D02*
X66011252Y-43015000D01*
X65488748Y-44485000D02*
X66011252Y-44485000D01*
%TO.C,C1*%
X58340113Y-41775000D02*
X58840113Y-41775000D01*
X58590113Y-41525000D02*
X58590113Y-42025000D01*
X61144888Y-40670000D02*
X61144888Y-42210000D01*
X61144888Y-44290000D02*
X61144888Y-45830000D01*
X61184888Y-40670000D02*
X61184888Y-42210000D01*
X61184888Y-44290000D02*
X61184888Y-45830000D01*
X61224888Y-40671000D02*
X61224888Y-42210000D01*
X61224888Y-44290000D02*
X61224888Y-45829000D01*
X61264888Y-40673000D02*
X61264888Y-42210000D01*
X61264888Y-44290000D02*
X61264888Y-45827000D01*
X61304888Y-40675000D02*
X61304888Y-42210000D01*
X61304888Y-44290000D02*
X61304888Y-45825000D01*
X61344888Y-40678000D02*
X61344888Y-42210000D01*
X61344888Y-44290000D02*
X61344888Y-45822000D01*
X61384888Y-40681000D02*
X61384888Y-42210000D01*
X61384888Y-44290000D02*
X61384888Y-45819000D01*
X61424888Y-40685000D02*
X61424888Y-42210000D01*
X61424888Y-44290000D02*
X61424888Y-45815000D01*
X61464888Y-40690000D02*
X61464888Y-42210000D01*
X61464888Y-44290000D02*
X61464888Y-45810000D01*
X61504888Y-40695000D02*
X61504888Y-42210000D01*
X61504888Y-44290000D02*
X61504888Y-45805000D01*
X61544888Y-40701000D02*
X61544888Y-42210000D01*
X61544888Y-44290000D02*
X61544888Y-45799000D01*
X61584888Y-40707000D02*
X61584888Y-42210000D01*
X61584888Y-44290000D02*
X61584888Y-45793000D01*
X61624888Y-40714000D02*
X61624888Y-42210000D01*
X61624888Y-44290000D02*
X61624888Y-45786000D01*
X61664888Y-40722000D02*
X61664888Y-42210000D01*
X61664888Y-44290000D02*
X61664888Y-45778000D01*
X61704888Y-40731000D02*
X61704888Y-42210000D01*
X61704888Y-44290000D02*
X61704888Y-45769000D01*
X61744888Y-40740000D02*
X61744888Y-42210000D01*
X61744888Y-44290000D02*
X61744888Y-45760000D01*
X61784888Y-40749000D02*
X61784888Y-42210000D01*
X61784888Y-44290000D02*
X61784888Y-45751000D01*
X61824888Y-40760000D02*
X61824888Y-42210000D01*
X61824888Y-44290000D02*
X61824888Y-45740000D01*
X61864888Y-40771000D02*
X61864888Y-42210000D01*
X61864888Y-44290000D02*
X61864888Y-45729000D01*
X61904888Y-40783000D02*
X61904888Y-42210000D01*
X61904888Y-44290000D02*
X61904888Y-45717000D01*
X61944888Y-40795000D02*
X61944888Y-42210000D01*
X61944888Y-44290000D02*
X61944888Y-45705000D01*
X61984888Y-40808000D02*
X61984888Y-42210000D01*
X61984888Y-44290000D02*
X61984888Y-45692000D01*
X62024888Y-40822000D02*
X62024888Y-42210000D01*
X62024888Y-44290000D02*
X62024888Y-45678000D01*
X62064888Y-40837000D02*
X62064888Y-42210000D01*
X62064888Y-44290000D02*
X62064888Y-45663000D01*
X62104888Y-40852000D02*
X62104888Y-42210000D01*
X62104888Y-44290000D02*
X62104888Y-45648000D01*
X62144888Y-40868000D02*
X62144888Y-42210000D01*
X62144888Y-44290000D02*
X62144888Y-45632000D01*
X62184888Y-40885000D02*
X62184888Y-42210000D01*
X62184888Y-44290000D02*
X62184888Y-45615000D01*
X62224888Y-40903000D02*
X62224888Y-42210000D01*
X62224888Y-44290000D02*
X62224888Y-45597000D01*
X62264888Y-40921000D02*
X62264888Y-42210000D01*
X62264888Y-44290000D02*
X62264888Y-45579000D01*
X62304888Y-40941000D02*
X62304888Y-42210000D01*
X62304888Y-44290000D02*
X62304888Y-45559000D01*
X62344888Y-40961000D02*
X62344888Y-42210000D01*
X62344888Y-44290000D02*
X62344888Y-45539000D01*
X62384888Y-40982000D02*
X62384888Y-42210000D01*
X62384888Y-44290000D02*
X62384888Y-45518000D01*
X62424888Y-41004000D02*
X62424888Y-42210000D01*
X62424888Y-44290000D02*
X62424888Y-45496000D01*
X62464888Y-41027000D02*
X62464888Y-42210000D01*
X62464888Y-44290000D02*
X62464888Y-45473000D01*
X62504888Y-41051000D02*
X62504888Y-42210000D01*
X62504888Y-44290000D02*
X62504888Y-45449000D01*
X62544888Y-41075000D02*
X62544888Y-42210000D01*
X62544888Y-44290000D02*
X62544888Y-45425000D01*
X62584888Y-41101000D02*
X62584888Y-42210000D01*
X62584888Y-44290000D02*
X62584888Y-45399000D01*
X62624888Y-41128000D02*
X62624888Y-42210000D01*
X62624888Y-44290000D02*
X62624888Y-45372000D01*
X62664888Y-41156000D02*
X62664888Y-42210000D01*
X62664888Y-44290000D02*
X62664888Y-45344000D01*
X62704888Y-41185000D02*
X62704888Y-42210000D01*
X62704888Y-44290000D02*
X62704888Y-45315000D01*
X62744888Y-41215000D02*
X62744888Y-42210000D01*
X62744888Y-44290000D02*
X62744888Y-45285000D01*
X62784888Y-41247000D02*
X62784888Y-42210000D01*
X62784888Y-44290000D02*
X62784888Y-45253000D01*
X62824888Y-41280000D02*
X62824888Y-42210000D01*
X62824888Y-44290000D02*
X62824888Y-45220000D01*
X62864888Y-41314000D02*
X62864888Y-42210000D01*
X62864888Y-44290000D02*
X62864888Y-45186000D01*
X62904888Y-41349000D02*
X62904888Y-42210000D01*
X62904888Y-44290000D02*
X62904888Y-45151000D01*
X62944888Y-41386000D02*
X62944888Y-42210000D01*
X62944888Y-44290000D02*
X62944888Y-45114000D01*
X62984888Y-41425000D02*
X62984888Y-42210000D01*
X62984888Y-44290000D02*
X62984888Y-45075000D01*
X63024888Y-41465000D02*
X63024888Y-42210000D01*
X63024888Y-44290000D02*
X63024888Y-45035000D01*
X63064888Y-41507000D02*
X63064888Y-42210000D01*
X63064888Y-44290000D02*
X63064888Y-44993000D01*
X63104888Y-41551000D02*
X63104888Y-42210000D01*
X63104888Y-44290000D02*
X63104888Y-44949000D01*
X63144888Y-41598000D02*
X63144888Y-42210000D01*
X63144888Y-44290000D02*
X63144888Y-44902000D01*
X63184888Y-41646000D02*
X63184888Y-44854000D01*
X63224888Y-41697000D02*
X63224888Y-44803000D01*
X63264888Y-41751000D02*
X63264888Y-44749000D01*
X63304888Y-41807000D02*
X63304888Y-44693000D01*
X63344888Y-41867000D02*
X63344888Y-44633000D01*
X63384888Y-41931000D02*
X63384888Y-44569000D01*
X63424888Y-41999000D02*
X63424888Y-44501000D01*
X63464888Y-42073000D02*
X63464888Y-44427000D01*
X63504888Y-42152000D02*
X63504888Y-44348000D01*
X63544888Y-42239000D02*
X63544888Y-44261000D01*
X63584888Y-42336000D02*
X63584888Y-44164000D01*
X63624888Y-42445000D02*
X63624888Y-44055000D01*
X63664888Y-42573000D02*
X63664888Y-43927000D01*
X63704888Y-42733000D02*
X63704888Y-43767000D01*
X63744888Y-42967000D02*
X63744888Y-43533000D01*
X63764888Y-43250000D02*
G75*
G02*
X58524888Y-43250000I-2620000J0D01*
G01*
X58524888Y-43250000D02*
G75*
G02*
X63764888Y-43250000I2620000J0D01*
G01*
%TO.C,C9*%
X57085000Y-46661252D02*
X57085000Y-46138748D01*
X58555000Y-46661252D02*
X58555000Y-46138748D01*
D10*
%TO.C,C7*%
X76710000Y-43530000D02*
G75*
G02*
X70410000Y-43530000I-3150000J0D01*
G01*
X70410000Y-43530000D02*
G75*
G02*
X76710000Y-43530000I3150000J0D01*
G01*
D13*
%TO.C,D1*%
X62329997Y-38850000D02*
X62329998Y-39650003D01*
X63689998Y-39649999D02*
X62329998Y-39650003D01*
X63690000Y-38850000D02*
X62329997Y-38850000D01*
%TO.C,R1*%
X59745000Y-50993641D02*
X59745000Y-50686359D01*
X60505000Y-50993641D02*
X60505000Y-50686359D01*
%TO.C,C10*%
X62065000Y-36311252D02*
X62065000Y-35788748D01*
X63535000Y-36311252D02*
X63535000Y-35788748D01*
%TO.C,C5*%
X70840000Y-36165580D02*
X70840000Y-35884420D01*
X71860000Y-36165580D02*
X71860000Y-35884420D01*
D12*
%TO.C,REF\u002A\u002A*%
G36*
X55317289Y-50894138D02*
G01*
X55317279Y-50894139D01*
X55317283Y-50894137D01*
X55317289Y-50894138D01*
G37*
G36*
X56735376Y-54230308D02*
G01*
X56490598Y-54230308D01*
X56490601Y-49524775D01*
X54203417Y-49524775D01*
X54203418Y-55055225D01*
X56735381Y-55060476D01*
X56735376Y-55300007D01*
X53958641Y-55300005D01*
X53958640Y-49279992D01*
X56735374Y-49279992D01*
X56735376Y-54230308D01*
G37*
G36*
X56032444Y-52508173D02*
G01*
X55447255Y-52508177D01*
X55447251Y-53036943D01*
X56032443Y-53036947D01*
X56032444Y-53231059D01*
X54604874Y-53231058D01*
X54604872Y-53036944D01*
X55284706Y-53036944D01*
X55284708Y-52508174D01*
X54604871Y-52508173D01*
X54604874Y-52314079D01*
X56032447Y-52314075D01*
X56032444Y-52508173D01*
G37*
G36*
X56032446Y-53361334D02*
G01*
X56032443Y-53549693D01*
X54873559Y-53686428D01*
X55640425Y-53848988D01*
X55640423Y-54050734D01*
X54871642Y-54215200D01*
X57093164Y-54678326D01*
X57093162Y-54866695D01*
X54604871Y-54327076D01*
X54604876Y-54144452D01*
X55452994Y-53950339D01*
X54604870Y-53757195D01*
X54604877Y-53574547D01*
X56032448Y-53361321D01*
X56032446Y-53361334D01*
G37*
G36*
X55317280Y-49938914D02*
G01*
X55363265Y-49939371D01*
X55407769Y-49940752D01*
X55450786Y-49943048D01*
X55492315Y-49946265D01*
X55532356Y-49950400D01*
X55570916Y-49955453D01*
X55607983Y-49961425D01*
X55643568Y-49968314D01*
X55677665Y-49976127D01*
X55710276Y-49984856D01*
X55741400Y-49994505D01*
X55771040Y-50005066D01*
X55799190Y-50016554D01*
X55825855Y-50028956D01*
X55851031Y-50042280D01*
X55874727Y-50056519D01*
X55886019Y-50064050D01*
X55896954Y-50071820D01*
X55907531Y-50079828D01*
X55917749Y-50088077D01*
X55927615Y-50096558D01*
X55937116Y-50105286D01*
X55946257Y-50114249D01*
X55955042Y-50123450D01*
X55963470Y-50132896D01*
X55971535Y-50142576D01*
X55979243Y-50152496D01*
X55986593Y-50162654D01*
X55993584Y-50173054D01*
X56000220Y-50183692D01*
X56006495Y-50194572D01*
X56012415Y-50205686D01*
X56017972Y-50217040D01*
X56023168Y-50228633D01*
X56028010Y-50240469D01*
X56032491Y-50252538D01*
X56036612Y-50264852D01*
X56040383Y-50277398D01*
X56043784Y-50290187D01*
X56046834Y-50303216D01*
X56051856Y-50329991D01*
X56055439Y-50357719D01*
X56057591Y-50386408D01*
X56058308Y-50416050D01*
X56057591Y-50445802D01*
X56055437Y-50474585D01*
X56051854Y-50502398D01*
X56046837Y-50529240D01*
X56040379Y-50555106D01*
X56032494Y-50580007D01*
X56023168Y-50603932D01*
X56012409Y-50626892D01*
X56000223Y-50648876D01*
X55986595Y-50669887D01*
X55971535Y-50689930D01*
X55955045Y-50708999D01*
X55937116Y-50727101D01*
X55917751Y-50744235D01*
X55896953Y-50760390D01*
X55874723Y-50775580D01*
X55851036Y-50789939D01*
X55825855Y-50803368D01*
X55799191Y-50815873D01*
X55771038Y-50827449D01*
X55741400Y-50838101D01*
X55710276Y-50847823D01*
X55677662Y-50856629D01*
X55643569Y-50864499D01*
X55607985Y-50871446D01*
X55570912Y-50877466D01*
X55532357Y-50882563D01*
X55492313Y-50886730D01*
X55450784Y-50889969D01*
X55407768Y-50892285D01*
X55363268Y-50893673D01*
X55317283Y-50894137D01*
X55271416Y-50893673D01*
X55227017Y-50892282D01*
X55184099Y-50889967D01*
X55142657Y-50886727D01*
X55102701Y-50882558D01*
X55064216Y-50877467D01*
X55027219Y-50871442D01*
X54991695Y-50864498D01*
X54957652Y-50856623D01*
X54925089Y-50847825D01*
X54894009Y-50838103D01*
X54864405Y-50827448D01*
X54836275Y-50815872D01*
X54809631Y-50803368D01*
X54784467Y-50789935D01*
X54760776Y-50775576D01*
X54749480Y-50768105D01*
X54738545Y-50760390D01*
X54727968Y-50752435D01*
X54717748Y-50744232D01*
X54707887Y-50735788D01*
X54698385Y-50727102D01*
X54689243Y-50718172D01*
X54680455Y-50709002D01*
X54672027Y-50699585D01*
X54663966Y-50689928D01*
X54656251Y-50680027D01*
X54648899Y-50669886D01*
X54641911Y-50659502D01*
X54635275Y-50648876D01*
X54629000Y-50638005D01*
X54623084Y-50626885D01*
X54617526Y-50615529D01*
X54612323Y-50603931D01*
X54607484Y-50592090D01*
X54603002Y-50580005D01*
X54598877Y-50567675D01*
X54595116Y-50555106D01*
X54591708Y-50542293D01*
X54588658Y-50529236D01*
X54585971Y-50515940D01*
X54583638Y-50502399D01*
X54580053Y-50474584D01*
X54577901Y-50445804D01*
X54577181Y-50416047D01*
X54734004Y-50416047D01*
X54734525Y-50434124D01*
X54736099Y-50451558D01*
X54738709Y-50468340D01*
X54742369Y-50484475D01*
X54747076Y-50499955D01*
X54752827Y-50514784D01*
X54759626Y-50528964D01*
X54767469Y-50542499D01*
X54776356Y-50555384D01*
X54786296Y-50567615D01*
X54797277Y-50579199D01*
X54809300Y-50590128D01*
X54822374Y-50600412D01*
X54836494Y-50610046D01*
X54851658Y-50619027D01*
X54867868Y-50627354D01*
X54885424Y-50635228D01*
X54904382Y-50642598D01*
X54924746Y-50649456D01*
X54946512Y-50655803D01*
X54969689Y-50661646D01*
X54994261Y-50666982D01*
X55020241Y-50671810D01*
X55047632Y-50676128D01*
X55076425Y-50679931D01*
X55106622Y-50683238D01*
X55138220Y-50686030D01*
X55171225Y-50688316D01*
X55205635Y-50690097D01*
X55241448Y-50691363D01*
X55278668Y-50692126D01*
X55317274Y-50692382D01*
X55393103Y-50691360D01*
X55463322Y-50688318D01*
X55527925Y-50683234D01*
X55586910Y-50676125D01*
X55614301Y-50671808D01*
X55640276Y-50666981D01*
X55664854Y-50661649D01*
X55688031Y-50655806D01*
X55709801Y-50649457D01*
X55730165Y-50642594D01*
X55749127Y-50635237D01*
X55766683Y-50627361D01*
X55783011Y-50619026D01*
X55790778Y-50614615D01*
X55798283Y-50610044D01*
X55805524Y-50605309D01*
X55812503Y-50600411D01*
X55819214Y-50595350D01*
X55825670Y-50590131D01*
X55831858Y-50584746D01*
X55837779Y-50579197D01*
X55843443Y-50573487D01*
X55848843Y-50567615D01*
X55853982Y-50561578D01*
X55858849Y-50555384D01*
X55863456Y-50549022D01*
X55867809Y-50542497D01*
X55871887Y-50535814D01*
X55875706Y-50528969D01*
X55879263Y-50521955D01*
X55882553Y-50514785D01*
X55885580Y-50507453D01*
X55888344Y-50499953D01*
X55890849Y-50492294D01*
X55893088Y-50484472D01*
X55895063Y-50476485D01*
X55896774Y-50468342D01*
X55898222Y-50460033D01*
X55899408Y-50451557D01*
X55900331Y-50442927D01*
X55900989Y-50434129D01*
X55901515Y-50416047D01*
X55900986Y-50398084D01*
X55899409Y-50380746D01*
X55896775Y-50364046D01*
X55893087Y-50347982D01*
X55888350Y-50332551D01*
X55882552Y-50317761D01*
X55875708Y-50303599D01*
X55867802Y-50290071D01*
X55858850Y-50277181D01*
X55848842Y-50264929D01*
X55837785Y-50253303D01*
X55825665Y-50242321D01*
X55812504Y-50231972D01*
X55798284Y-50222258D01*
X55783010Y-50213173D01*
X55766684Y-50204724D01*
X55749128Y-50196971D01*
X55730169Y-50189712D01*
X55709811Y-50182954D01*
X55688040Y-50176701D01*
X55664867Y-50170944D01*
X55640291Y-50165691D01*
X55614309Y-50160935D01*
X55586925Y-50156684D01*
X55558135Y-50152934D01*
X55527942Y-50149677D01*
X55496342Y-50146925D01*
X55463333Y-50144674D01*
X55428921Y-50142924D01*
X55393105Y-50141669D01*
X55355885Y-50140922D01*
X55317263Y-50140670D01*
X55241653Y-50141669D01*
X55171631Y-50144672D01*
X55107197Y-50149676D01*
X55048341Y-50156682D01*
X55021015Y-50160939D01*
X54995081Y-50165692D01*
X54970547Y-50170943D01*
X54947407Y-50176701D01*
X54925665Y-50182957D01*
X54905320Y-50189713D01*
X54886372Y-50196969D01*
X54868820Y-50204725D01*
X54852495Y-50213172D01*
X54844725Y-50217630D01*
X54837225Y-50222254D01*
X54829982Y-50227028D01*
X54823002Y-50231967D01*
X54816290Y-50237065D01*
X54809839Y-50242317D01*
X54803650Y-50247731D01*
X54797728Y-50253303D01*
X54792062Y-50259033D01*
X54786668Y-50264921D01*
X54781528Y-50270969D01*
X54776657Y-50277179D01*
X54772051Y-50283540D01*
X54767707Y-50290069D01*
X54763626Y-50296754D01*
X54759808Y-50303593D01*
X54756254Y-50310594D01*
X54752962Y-50317755D01*
X54749933Y-50325070D01*
X54747170Y-50332543D01*
X54744670Y-50340182D01*
X54742429Y-50347976D01*
X54740451Y-50355929D01*
X54738744Y-50364040D01*
X54737294Y-50372313D01*
X54736109Y-50380742D01*
X54735189Y-50389333D01*
X54734529Y-50398078D01*
X54734004Y-50416047D01*
X54577181Y-50416047D01*
X54577896Y-50386295D01*
X54580038Y-50357513D01*
X54583605Y-50329700D01*
X54588599Y-50302863D01*
X54595020Y-50276990D01*
X54602871Y-50252092D01*
X54612143Y-50228164D01*
X54622842Y-50205210D01*
X54634973Y-50183226D01*
X54648528Y-50162209D01*
X54663511Y-50142167D01*
X54679919Y-50123092D01*
X54697754Y-50104993D01*
X54717015Y-50087865D01*
X54737706Y-50071709D01*
X54759826Y-50056521D01*
X54783404Y-50042280D01*
X54808483Y-50028956D01*
X54835067Y-50016556D01*
X54863150Y-50005070D01*
X54892734Y-49994508D01*
X54923821Y-49984858D01*
X54956411Y-49976125D01*
X54990503Y-49968316D01*
X55026091Y-49961425D01*
X55063184Y-49955452D01*
X55101779Y-49950399D01*
X55141872Y-49946264D01*
X55183471Y-49943045D01*
X55226573Y-49940749D01*
X55271174Y-49939371D01*
X55317264Y-49938911D01*
X55317280Y-49938914D01*
G37*
G36*
X55659997Y-51138755D02*
G01*
X55683008Y-51140259D01*
X55705414Y-51142760D01*
X55727227Y-51146264D01*
X55748442Y-51150770D01*
X55769063Y-51156274D01*
X55789084Y-51162783D01*
X55808504Y-51170286D01*
X55827330Y-51178800D01*
X55845553Y-51188314D01*
X55863186Y-51198824D01*
X55880217Y-51210334D01*
X55896653Y-51222843D01*
X55912492Y-51236363D01*
X55927725Y-51250874D01*
X55942366Y-51266396D01*
X55956378Y-51282855D01*
X55969482Y-51299977D01*
X55981685Y-51317751D01*
X55992983Y-51336193D01*
X56003377Y-51355287D01*
X56012866Y-51375035D01*
X56021455Y-51395448D01*
X56029141Y-51416511D01*
X56035922Y-51438232D01*
X56041796Y-51460612D01*
X56046770Y-51483652D01*
X56050834Y-51507344D01*
X56054003Y-51531695D01*
X56056261Y-51556710D01*
X56057618Y-51582373D01*
X56058074Y-51608697D01*
X56057763Y-51629389D01*
X56056866Y-51650352D01*
X56055374Y-51671583D01*
X56053285Y-51693083D01*
X56050594Y-51714852D01*
X56047309Y-51736890D01*
X56043425Y-51759200D01*
X56038937Y-51781775D01*
X56034098Y-51804631D01*
X56028661Y-51827790D01*
X56022622Y-51851242D01*
X56015989Y-51874999D01*
X56008759Y-51899051D01*
X56000934Y-51923402D01*
X55992504Y-51948056D01*
X55983481Y-51973001D01*
X55787466Y-51973001D01*
X55801138Y-51950995D01*
X55813944Y-51928958D01*
X55825879Y-51906893D01*
X55836948Y-51884793D01*
X55847157Y-51862672D01*
X55856494Y-51840518D01*
X55864965Y-51818332D01*
X55872570Y-51796115D01*
X55879289Y-51774091D01*
X55885117Y-51752012D01*
X55890047Y-51729868D01*
X55894075Y-51707667D01*
X55897217Y-51685412D01*
X55899463Y-51663086D01*
X55900807Y-51640705D01*
X55901249Y-51618261D01*
X55900999Y-51601394D01*
X55900248Y-51584973D01*
X55898995Y-51569002D01*
X55897247Y-51553478D01*
X55894996Y-51538401D01*
X55892241Y-51523777D01*
X55888990Y-51509600D01*
X55885236Y-51495870D01*
X55880978Y-51482589D01*
X55876226Y-51469756D01*
X55870970Y-51457373D01*
X55865214Y-51445433D01*
X55858954Y-51433947D01*
X55852197Y-51422901D01*
X55844942Y-51412309D01*
X55837184Y-51402164D01*
X55829119Y-51392554D01*
X55820704Y-51383564D01*
X55811938Y-51375193D01*
X55802821Y-51367443D01*
X55793351Y-51360314D01*
X55783534Y-51353801D01*
X55773365Y-51347917D01*
X55762844Y-51342644D01*
X55751969Y-51337993D01*
X55740745Y-51333963D01*
X55729170Y-51330555D01*
X55717244Y-51327760D01*
X55704970Y-51325590D01*
X55692345Y-51324040D01*
X55679367Y-51323109D01*
X55666038Y-51322799D01*
X55654378Y-51323000D01*
X55643072Y-51323607D01*
X55632115Y-51324620D01*
X55621515Y-51326029D01*
X55611256Y-51327844D01*
X55601353Y-51330063D01*
X55591802Y-51332682D01*
X55582603Y-51335710D01*
X55573756Y-51339141D01*
X55565254Y-51342971D01*
X55557108Y-51347206D01*
X55549314Y-51351847D01*
X55541869Y-51356885D01*
X55534777Y-51362331D01*
X55528032Y-51368183D01*
X55521640Y-51374435D01*
X55515491Y-51381363D01*
X55509467Y-51388986D01*
X55503570Y-51397313D01*
X55497801Y-51406346D01*
X55492155Y-51416076D01*
X55486642Y-51426512D01*
X55481255Y-51437652D01*
X55475991Y-51449497D01*
X55470852Y-51462037D01*
X55465845Y-51475279D01*
X55460963Y-51489229D01*
X55456210Y-51503878D01*
X55451580Y-51519230D01*
X55447079Y-51535282D01*
X55442704Y-51552043D01*
X55438459Y-51569498D01*
X55415502Y-51670851D01*
X55409436Y-51695520D01*
X55402952Y-51719341D01*
X55396052Y-51742318D01*
X55388732Y-51764434D01*
X55380993Y-51785704D01*
X55372834Y-51806117D01*
X55364257Y-51825681D01*
X55355268Y-51844392D01*
X55345851Y-51862254D01*
X55336022Y-51879263D01*
X55325774Y-51895420D01*
X55315107Y-51910729D01*
X55304017Y-51925183D01*
X55292514Y-51938785D01*
X55280591Y-51951537D01*
X55268250Y-51963440D01*
X55255417Y-51974555D01*
X55242016Y-51984952D01*
X55228049Y-51994631D01*
X55213514Y-52003600D01*
X55198403Y-52011850D01*
X55182735Y-52019378D01*
X55166490Y-52026189D01*
X55149686Y-52032285D01*
X55132311Y-52037664D01*
X55114367Y-52042326D01*
X55095858Y-52046269D01*
X55076776Y-52049494D01*
X55057134Y-52052004D01*
X55036921Y-52053801D01*
X55016141Y-52054875D01*
X54994790Y-52055232D01*
X54969707Y-52054741D01*
X54945379Y-52053262D01*
X54921806Y-52050795D01*
X54898986Y-52047346D01*
X54876923Y-52042909D01*
X54855616Y-52037486D01*
X54835062Y-52031081D01*
X54815261Y-52023682D01*
X54796217Y-52015299D01*
X54777929Y-52005933D01*
X54760385Y-51995578D01*
X54743606Y-51984240D01*
X54727579Y-51971911D01*
X54712303Y-51958598D01*
X54697787Y-51944297D01*
X54684020Y-51929016D01*
X54671055Y-51912794D01*
X54658928Y-51895668D01*
X54647632Y-51877653D01*
X54637177Y-51858740D01*
X54627550Y-51838928D01*
X54618767Y-51818221D01*
X54610817Y-51796614D01*
X54603710Y-51774115D01*
X54597437Y-51750720D01*
X54591996Y-51726425D01*
X54587390Y-51701234D01*
X54583628Y-51675151D01*
X54580697Y-51648165D01*
X54578609Y-51620285D01*
X54577354Y-51591508D01*
X54576933Y-51561836D01*
X54577278Y-51536726D01*
X54578309Y-51511580D01*
X54580023Y-51486411D01*
X54582434Y-51461205D01*
X54585527Y-51435968D01*
X54589307Y-51410707D01*
X54593777Y-51385418D01*
X54598933Y-51360095D01*
X54604534Y-51334739D01*
X54610823Y-51309357D01*
X54617798Y-51283937D01*
X54625463Y-51258498D01*
X54633813Y-51233020D01*
X54642852Y-51207516D01*
X54652578Y-51181983D01*
X54662988Y-51156418D01*
X54868569Y-51156418D01*
X54851703Y-51183715D01*
X54836002Y-51210626D01*
X54821471Y-51237150D01*
X54808097Y-51263276D01*
X54795891Y-51289023D01*
X54784851Y-51314373D01*
X54774978Y-51339339D01*
X54766268Y-51363918D01*
X54758643Y-51388555D01*
X54752038Y-51413219D01*
X54746450Y-51437912D01*
X54741884Y-51462641D01*
X54738327Y-51487397D01*
X54735783Y-51512180D01*
X54734257Y-51536995D01*
X54733751Y-51561839D01*
X54734005Y-51579874D01*
X54734767Y-51597402D01*
X54736036Y-51614416D01*
X54737814Y-51630931D01*
X54740099Y-51646935D01*
X54742893Y-51662423D01*
X54746193Y-51677412D01*
X54750005Y-51691887D01*
X54754323Y-51705859D01*
X54759146Y-51719317D01*
X54764482Y-51732269D01*
X54770328Y-51744719D01*
X54776671Y-51756657D01*
X54783532Y-51768085D01*
X54790901Y-51779009D01*
X54798773Y-51789421D01*
X54807226Y-51799262D01*
X54816077Y-51808467D01*
X54825329Y-51817037D01*
X54834990Y-51824973D01*
X54845052Y-51832274D01*
X54855519Y-51838941D01*
X54866388Y-51844972D01*
X54877661Y-51850368D01*
X54889333Y-51855133D01*
X54901420Y-51859259D01*
X54913903Y-51862753D01*
X54926784Y-51865608D01*
X54940077Y-51867830D01*
X54953770Y-51869417D01*
X54967863Y-51870368D01*
X54982367Y-51870689D01*
X54995553Y-51870467D01*
X55008342Y-51869808D01*
X55020736Y-51868706D01*
X55032737Y-51867160D01*
X55044346Y-51865181D01*
X55055552Y-51862756D01*
X55066366Y-51859892D01*
X55076782Y-51856583D01*
X55086803Y-51852841D01*
X55096428Y-51848652D01*
X55105657Y-51844024D01*
X55114489Y-51838959D01*
X55122930Y-51833447D01*
X55130970Y-51827501D01*
X55138615Y-51821113D01*
X55145864Y-51814280D01*
X55152820Y-51807025D01*
X55159566Y-51799113D01*
X55166114Y-51790555D01*
X55172459Y-51781348D01*
X55178600Y-51771492D01*
X55184542Y-51760981D01*
X55190288Y-51749825D01*
X55195824Y-51738019D01*
X55201159Y-51725565D01*
X55206296Y-51712455D01*
X55211230Y-51698699D01*
X55215965Y-51684292D01*
X55220494Y-51669237D01*
X55224824Y-51653526D01*
X55228945Y-51637174D01*
X55232870Y-51620169D01*
X55256779Y-51516913D01*
X55262573Y-51492475D01*
X55268733Y-51468895D01*
X55275247Y-51446161D01*
X55282123Y-51424281D01*
X55289351Y-51403252D01*
X55296945Y-51383075D01*
X55304888Y-51363750D01*
X55313200Y-51345274D01*
X55321862Y-51327653D01*
X55330883Y-51310883D01*
X55340271Y-51294961D01*
X55350012Y-51279900D01*
X55360109Y-51265680D01*
X55370570Y-51252319D01*
X55381386Y-51239809D01*
X55392559Y-51228147D01*
X55404161Y-51217266D01*
X55416245Y-51207080D01*
X55428814Y-51197596D01*
X55441867Y-51188821D01*
X55455408Y-51180743D01*
X55469428Y-51173368D01*
X55483940Y-51166697D01*
X55498942Y-51160731D01*
X55514418Y-51155459D01*
X55530388Y-51150895D01*
X55546840Y-51147033D01*
X55563776Y-51143872D01*
X55581201Y-51141416D01*
X55599113Y-51139661D01*
X55617509Y-51138608D01*
X55636391Y-51138256D01*
X55659997Y-51138755D01*
G37*
D13*
%TO.C,C3*%
X57240000Y-50115580D02*
X57240000Y-49834420D01*
X58260000Y-50115580D02*
X58260000Y-49834420D01*
%TO.C,D4*%
X61360000Y-38050000D02*
X61360001Y-39410001D01*
X61360001Y-39410001D02*
X62160002Y-39410000D01*
X62160000Y-38050001D02*
X62160002Y-39410000D01*
%TO.C,C2*%
X72591252Y-38555000D02*
X72068748Y-38555000D01*
X72591252Y-40025000D02*
X72068748Y-40025000D01*
%TO.C,J1*%
X64420000Y-34762500D02*
X68300000Y-34762500D01*
X64420000Y-41502500D02*
X64420000Y-34762500D01*
X68900000Y-34762500D02*
X70240000Y-34762500D01*
X70240000Y-34762500D02*
X70240000Y-41502500D01*
X70240000Y-35682500D02*
X64420000Y-35682500D01*
X70240000Y-36682500D02*
X64420000Y-36682500D01*
X70240000Y-39782500D02*
X64420000Y-39782500D01*
X70240000Y-41502500D02*
X64420000Y-41502500D01*
X68600000Y-34762500D02*
X68160000Y-34152500D01*
X69040000Y-34152500D01*
X68600000Y-34762500D01*
G36*
X68600000Y-34762500D02*
G01*
X68160000Y-34152500D01*
X69040000Y-34152500D01*
X68600000Y-34762500D01*
G37*
%TO.C,D5*%
X59700000Y-53220000D02*
X59700000Y-51860000D01*
X60500000Y-51860000D02*
X59700000Y-51860000D01*
X60500000Y-53220000D02*
X60500000Y-51860000D01*
%TO.C,R3*%
X56970000Y-41286359D02*
X56970000Y-41593641D01*
X57730000Y-41286359D02*
X57730000Y-41593641D01*
%TO.C,R4*%
X57000001Y-43276360D02*
X57000002Y-43583642D01*
X57760000Y-43276360D02*
X57760001Y-43583642D01*
D14*
%TO.C,U2*%
X73440000Y-34820100D02*
X75240000Y-34820100D01*
X73440000Y-37920100D02*
X75240000Y-37920100D01*
X75864000Y-38021000D02*
G75*
G02*
X75610000Y-38021000I-127000J0D01*
G01*
X75610000Y-38021000D02*
G75*
G02*
X75864000Y-38021000I127000J0D01*
G01*
D13*
%TO.C,L1*%
X58663746Y-40110001D02*
X59186252Y-40110002D01*
X58663748Y-37890000D02*
X59186254Y-37890001D01*
%TO.C,R5*%
X58680000Y-49583641D02*
X58680000Y-49276359D01*
X59440000Y-49583641D02*
X59440000Y-49276359D01*
%TO.C,D2*%
X62342500Y-39760000D02*
X62342500Y-40560000D01*
X63702500Y-39760000D02*
X62342500Y-39760000D01*
X63702500Y-40560000D02*
X62342500Y-40560000D01*
%TD*%
%LPC*%
D15*
%TO.C,L2*%
X68960000Y-45740000D03*
X68959996Y-43590000D03*
%TD*%
D16*
%TO.C,U1*%
X58000100Y-37170500D03*
X58499900Y-37170300D03*
X59000100Y-37170300D03*
X59499900Y-37170300D03*
D17*
X60149900Y-36745300D03*
X60149900Y-36245200D03*
D18*
X59975200Y-35495100D03*
D17*
X60149900Y-35745100D03*
X60150200Y-35244900D03*
D19*
X59250000Y-35250000D03*
D20*
X58750100Y-35474800D03*
D19*
X58250000Y-35250000D03*
D21*
X57349800Y-35244900D03*
X57349800Y-35745100D03*
D22*
X57524800Y-35495100D03*
D21*
X57350100Y-36244900D03*
X57349800Y-36745100D03*
%TD*%
D23*
%TO.C,C4*%
X57800001Y-52265004D03*
X57799999Y-53814996D03*
%TD*%
D24*
%TO.C,R2*%
X63140000Y-46410000D03*
X62120000Y-46410000D03*
%TD*%
D25*
%TO.C,J2*%
X62600000Y-51640000D03*
D26*
X68600000Y-51640000D03*
D27*
X65600000Y-46940000D03*
%TD*%
D28*
%TO.C,D3*%
X62750000Y-38280000D03*
X63590000Y-38280000D03*
%TD*%
D29*
%TO.C,C6*%
X60625000Y-48800000D03*
X60625000Y-46900000D03*
%TD*%
D30*
%TO.C,C8*%
X64800000Y-43750000D03*
X66700000Y-43750000D03*
%TD*%
D31*
%TO.C,C1*%
X60144888Y-43250000D03*
D32*
X62144888Y-43250000D03*
%TD*%
D29*
%TO.C,C9*%
X57820000Y-47350000D03*
X57820000Y-45450000D03*
%TD*%
D33*
%TO.C,C7*%
X72310000Y-43530000D03*
D34*
X74810000Y-43530000D03*
%TD*%
D28*
%TO.C,D1*%
X62770000Y-39250000D03*
X63610000Y-39250000D03*
%TD*%
D35*
%TO.C,R1*%
X60125000Y-51350000D03*
X60125000Y-50330000D03*
%TD*%
D29*
%TO.C,C10*%
X62800000Y-37000000D03*
X62800000Y-35100000D03*
%TD*%
D36*
%TO.C,C5*%
X71350000Y-36800000D03*
X71350000Y-35250000D03*
%TD*%
%TO.C,C3*%
X57750000Y-50750000D03*
X57750000Y-49200000D03*
%TD*%
D37*
%TO.C,D4*%
X61760000Y-38970000D03*
X61760000Y-38130000D03*
%TD*%
D38*
%TO.C,C2*%
X73280000Y-39290000D03*
X71380000Y-39290000D03*
%TD*%
D39*
%TO.C,J1*%
X68600000Y-38282500D03*
D40*
X66060000Y-38282500D03*
%TD*%
D41*
%TO.C,D5*%
X60100000Y-52300000D03*
X60100000Y-53140000D03*
%TD*%
D42*
%TO.C,R3*%
X57350000Y-40930000D03*
X57350000Y-41950000D03*
%TD*%
%TO.C,R4*%
X57380000Y-42920000D03*
X57380002Y-43940002D03*
%TD*%
D43*
%TO.C,U2*%
X75690000Y-37320000D03*
X75690000Y-36370000D03*
X75690000Y-35420000D03*
X72990000Y-35420000D03*
X72990000Y-36370000D03*
X72990000Y-37320000D03*
%TD*%
D44*
%TO.C,L1*%
X57850000Y-39000002D03*
X60000000Y-39000000D03*
%TD*%
D35*
%TO.C,R5*%
X59060000Y-49940000D03*
X59060000Y-48920000D03*
%TD*%
D28*
%TO.C,D2*%
X62782500Y-40160000D03*
X63622500Y-40160000D03*
%TD*%
%LPD*%
M02*
