%TF.GenerationSoftware,KiCad,Pcbnew,9.0.4*%
%TF.CreationDate,2026-05-01T01:18:26-07:00*%
%TF.ProjectId,REV2_Dyno_Rectifier_PCB_2,52455632-5f44-4796-9e6f-5f5265637469,rev?*%
%TF.SameCoordinates,Original*%
%TF.FileFunction,Copper,L2,Bot*%
%TF.FilePolarity,Positive*%
%FSLAX46Y46*%
G04 Gerber Fmt 4.6, Leading zero omitted, Abs format (unit mm)*
G04 Created by KiCad (PCBNEW 9.0.4) date 2026-05-01 01:18:26*
%MOMM*%
%LPD*%
G01*
G04 APERTURE LIST*
G04 Aperture macros list*
%AMRoundRect*
0 Rectangle with rounded corners*
0 $1 Rounding radius*
0 $2 $3 $4 $5 $6 $7 $8 $9 X,Y pos of 4 corners*
0 Add a 4 corners polygon primitive as box body*
4,1,4,$2,$3,$4,$5,$6,$7,$8,$9,$2,$3,0*
0 Add four circle primitives for the rounded corners*
1,1,$1+$1,$2,$3*
1,1,$1+$1,$4,$5*
1,1,$1+$1,$6,$7*
1,1,$1+$1,$8,$9*
0 Add four rect primitives between the rounded corners*
20,1,$1+$1,$2,$3,$4,$5,0*
20,1,$1+$1,$4,$5,$6,$7,0*
20,1,$1+$1,$6,$7,$8,$9,0*
20,1,$1+$1,$8,$9,$2,$3,0*%
%AMFreePoly0*
4,1,23,0.550000,-0.750000,0.000000,-0.750000,0.000000,-0.745722,-0.065263,-0.745722,-0.191342,-0.711940,-0.304381,-0.646677,-0.396677,-0.554381,-0.461940,-0.441342,-0.495722,-0.315263,-0.495722,-0.250000,-0.500000,-0.250000,-0.500000,0.250000,-0.495722,0.250000,-0.495722,0.315263,-0.461940,0.441342,-0.396677,0.554381,-0.304381,0.646677,-0.191342,0.711940,-0.065263,0.745722,0.000000,0.745722,
0.000000,0.750000,0.550000,0.750000,0.550000,-0.750000,0.550000,-0.750000,$1*%
%AMFreePoly1*
4,1,23,0.000000,0.745722,0.065263,0.745722,0.191342,0.711940,0.304381,0.646677,0.396677,0.554381,0.461940,0.441342,0.495722,0.315263,0.495722,0.250000,0.500000,0.250000,0.500000,-0.250000,0.495722,-0.250000,0.495722,-0.315263,0.461940,-0.441342,0.396677,-0.554381,0.304381,-0.646677,0.191342,-0.711940,0.065263,-0.745722,0.000000,-0.745722,0.000000,-0.750000,-0.550000,-0.750000,
-0.550000,0.750000,0.000000,0.750000,0.000000,0.745722,0.000000,0.745722,$1*%
G04 Aperture macros list end*
%TA.AperFunction,EtchedComponent*%
%ADD10C,0.000000*%
%TD*%
%TA.AperFunction,ComponentPad*%
%ADD11RoundRect,0.250000X-0.550000X-0.550000X0.550000X-0.550000X0.550000X0.550000X-0.550000X0.550000X0*%
%TD*%
%TA.AperFunction,ComponentPad*%
%ADD12C,1.600000*%
%TD*%
%TA.AperFunction,SMDPad,CuDef*%
%ADD13R,1.000000X1.000000*%
%TD*%
%TA.AperFunction,SMDPad,CuDef*%
%ADD14FreePoly0,180.000000*%
%TD*%
%TA.AperFunction,SMDPad,CuDef*%
%ADD15R,1.000000X1.500000*%
%TD*%
%TA.AperFunction,SMDPad,CuDef*%
%ADD16FreePoly1,180.000000*%
%TD*%
%TA.AperFunction,ComponentPad*%
%ADD17RoundRect,0.875000X0.875000X0.875000X-0.875000X0.875000X-0.875000X-0.875000X0.875000X-0.875000X0*%
%TD*%
%TA.AperFunction,ComponentPad*%
%ADD18RoundRect,0.750000X0.750000X1.000000X-0.750000X1.000000X-0.750000X-1.000000X0.750000X-1.000000X0*%
%TD*%
%TA.AperFunction,ComponentPad*%
%ADD19R,3.500000X3.500000*%
%TD*%
%TA.AperFunction,ComponentPad*%
%ADD20RoundRect,0.250000X0.750000X0.750000X-0.750000X0.750000X-0.750000X-0.750000X0.750000X-0.750000X0*%
%TD*%
%TA.AperFunction,ComponentPad*%
%ADD21C,2.000000*%
%TD*%
%TA.AperFunction,ComponentPad*%
%ADD22C,1.200000*%
%TD*%
%TA.AperFunction,ComponentPad*%
%ADD23R,1.200000X1.200000*%
%TD*%
G04 APERTURE END LIST*
D10*
%TA.AperFunction,EtchedComponent*%
%TO.C,JP2*%
G36*
X76500000Y-45757500D02*
G01*
X76000000Y-45757500D01*
X76000000Y-45357500D01*
X76500000Y-45357500D01*
X76500000Y-45757500D01*
G37*
%TD.AperFunction*%
%TA.AperFunction,EtchedComponent*%
G36*
X76500000Y-46557500D02*
G01*
X76000000Y-46557500D01*
X76000000Y-46157500D01*
X76500000Y-46157500D01*
X76500000Y-46557500D01*
G37*
%TD.AperFunction*%
%TA.AperFunction,EtchedComponent*%
%TO.C,JP1*%
G36*
X76400000Y-38200000D02*
G01*
X75900000Y-38200000D01*
X75900000Y-37800000D01*
X76400000Y-37800000D01*
X76400000Y-38200000D01*
G37*
%TD.AperFunction*%
%TA.AperFunction,EtchedComponent*%
G36*
X76400000Y-39000000D02*
G01*
X75900000Y-39000000D01*
X75900000Y-38600000D01*
X76400000Y-38600000D01*
X76400000Y-39000000D01*
G37*
%TD.AperFunction*%
%TD*%
D11*
%TO.P,C9,1*%
%TO.N,Rectified*%
X60100000Y-43500000D03*
D12*
%TO.P,C9,2*%
%TO.N,GND*%
X62100000Y-43500000D03*
%TD*%
D13*
%TO.P,TP6,1,1*%
%TO.N,GND*%
X57300000Y-51900000D03*
%TD*%
%TO.P,TP5,1,1*%
%TO.N,FB*%
X57400000Y-48900000D03*
%TD*%
%TO.P,TP4,1,1*%
%TO.N,V_out*%
X57300000Y-46600000D03*
%TD*%
%TO.P,TP3,1,1*%
%TO.N,Raw_Input*%
X57300000Y-43600000D03*
%TD*%
%TO.P,TP2,1,1*%
%TO.N,Rectified*%
X57300000Y-41200000D03*
%TD*%
%TO.P,TP1,1,1*%
%TO.N,2.7V*%
X57400000Y-38800000D03*
%TD*%
D14*
%TO.P,JP2,1,A*%
%TO.N,FB*%
X76900000Y-45957500D03*
D15*
%TO.P,JP2,2,C*%
%TO.N,Out_Sleeve*%
X75600000Y-45957500D03*
D16*
%TO.P,JP2,3,B*%
%TO.N,GND*%
X74300000Y-45957500D03*
%TD*%
D14*
%TO.P,JP1,1,A*%
%TO.N,V_out*%
X76800000Y-38400000D03*
D15*
%TO.P,JP1,2,C*%
%TO.N,Out_Tip*%
X75500000Y-38400000D03*
D16*
%TO.P,JP1,3,B*%
%TO.N,Rectified*%
X74200000Y-38400000D03*
%TD*%
D17*
%TO.P,J2,3*%
%TO.N,N/C*%
X65600000Y-46857500D03*
D18*
%TO.P,J2,2*%
%TO.N,Out_Tip*%
X68600000Y-51557500D03*
D19*
%TO.P,J2,1*%
%TO.N,Out_Sleeve*%
X62600000Y-51557500D03*
%TD*%
D20*
%TO.P,J1,1,Pin_1*%
%TO.N,Net-(D2-A)*%
X68600000Y-40682500D03*
D21*
%TO.P,J1,2,Pin_2*%
%TO.N,Raw_Input*%
X66060000Y-40682500D03*
%TD*%
D22*
%TO.P,C6,1*%
%TO.N,2.7V*%
X73600000Y-42400000D03*
D23*
%TO.P,C6,2*%
%TO.N,GND*%
X75350000Y-42400000D03*
%TD*%
M02*
