%TF.GenerationSoftware,KiCad,Pcbnew,9.0.4*%
%TF.CreationDate,2026-05-01T01:18:26-07:00*%
%TF.ProjectId,REV2_Dyno_Rectifier_PCB_2,52455632-5f44-4796-9e6f-5f5265637469,rev?*%
%TF.SameCoordinates,Original*%
%TF.FileFunction,Soldermask,Top*%
%TF.FilePolarity,Negative*%
%FSLAX46Y46*%
G04 Gerber Fmt 4.6, Leading zero omitted, Abs format (unit mm)*
G04 Created by KiCad (PCBNEW 9.0.4) date 2026-05-01 01:18:26*
%MOMM*%
%LPD*%
G01*
G04 APERTURE LIST*
G04 Aperture macros list*
%AMRoundRect*
0 Rectangle with rounded corners*
0 $1 Rounding radius*
0 $2 $3 $4 $5 $6 $7 $8 $9 X,Y pos of 4 corners*
0 Add a 4 corners polygon primitive as box body*
4,1,4,$2,$3,$4,$5,$6,$7,$8,$9,$2,$3,0*
0 Add four circle primitives for the rounded corners*
1,1,$1+$1,$2,$3*
1,1,$1+$1,$4,$5*
1,1,$1+$1,$6,$7*
1,1,$1+$1,$8,$9*
0 Add four rect primitives between the rounded corners*
20,1,$1+$1,$2,$3,$4,$5,0*
20,1,$1+$1,$4,$5,$6,$7,0*
20,1,$1+$1,$6,$7,$8,$9,0*
20,1,$1+$1,$8,$9,$2,$3,0*%
G04 Aperture macros list end*
%ADD10RoundRect,0.250000X0.475000X-0.250000X0.475000X0.250000X-0.475000X0.250000X-0.475000X-0.250000X0*%
%ADD11RoundRect,0.225000X-0.225000X-0.250000X0.225000X-0.250000X0.225000X0.250000X-0.225000X0.250000X0*%
%ADD12RoundRect,0.051000X-0.550000X-0.300000X0.550000X-0.300000X0.550000X0.300000X-0.550000X0.300000X0*%
%ADD13RoundRect,0.050800X0.125000X0.300000X-0.125000X0.300000X-0.125000X-0.300000X0.125000X-0.300000X0*%
%ADD14RoundRect,0.050800X-0.300000X0.125000X-0.300000X-0.125000X0.300000X-0.125000X0.300000X0.125000X0*%
%ADD15RoundRect,0.050800X-0.125000X-0.375000X0.125000X-0.375000X0.125000X0.375000X-0.125000X0.375000X0*%
%ADD16RoundRect,0.050800X-0.125000X-0.675000X0.125000X-0.675000X0.125000X0.675000X-0.125000X0.675000X0*%
%ADD17RoundRect,0.050800X-0.125000X-0.900000X0.125000X-0.900000X0.125000X0.900000X-0.125000X0.900000X0*%
%ADD18RoundRect,0.050800X0.300000X-0.125000X0.300000X0.125000X-0.300000X0.125000X-0.300000X-0.125000X0*%
%ADD19RoundRect,0.050800X0.125000X0.375000X-0.125000X0.375000X-0.125000X-0.375000X0.125000X-0.375000X0*%
%ADD20RoundRect,0.250000X-0.550000X-0.550000X0.550000X-0.550000X0.550000X0.550000X-0.550000X0.550000X0*%
%ADD21C,1.600000*%
%ADD22RoundRect,0.062500X-0.117500X-0.062500X0.117500X-0.062500X0.117500X0.062500X-0.117500X0.062500X0*%
%ADD23RoundRect,0.062500X-0.062500X0.117500X-0.062500X-0.117500X0.062500X-0.117500X0.062500X0.117500X0*%
%ADD24RoundRect,0.875000X0.875000X0.875000X-0.875000X0.875000X-0.875000X-0.875000X0.875000X-0.875000X0*%
%ADD25RoundRect,0.750000X0.750000X1.000000X-0.750000X1.000000X-0.750000X-1.000000X0.750000X-1.000000X0*%
%ADD26R,3.500000X3.500000*%
%ADD27RoundRect,0.135000X0.185000X-0.135000X0.185000X0.135000X-0.185000X0.135000X-0.185000X-0.135000X0*%
%ADD28RoundRect,0.135000X-0.185000X0.135000X-0.185000X-0.135000X0.185000X-0.135000X0.185000X0.135000X0*%
%ADD29RoundRect,0.135000X-0.135000X-0.185000X0.135000X-0.185000X0.135000X0.185000X-0.135000X0.185000X0*%
%ADD30RoundRect,0.218750X0.256250X-0.218750X0.256250X0.218750X-0.256250X0.218750X-0.256250X-0.218750X0*%
%ADD31RoundRect,0.250000X-0.250000X-0.475000X0.250000X-0.475000X0.250000X0.475000X-0.250000X0.475000X0*%
%ADD32RoundRect,0.225000X0.250000X-0.225000X0.250000X0.225000X-0.250000X0.225000X-0.250000X-0.225000X0*%
%ADD33RoundRect,0.250000X0.750000X0.750000X-0.750000X0.750000X-0.750000X-0.750000X0.750000X-0.750000X0*%
%ADD34C,2.000000*%
%ADD35C,1.200000*%
%ADD36R,1.200000X1.200000*%
G04 APERTURE END LIST*
D10*
%TO.C,C1*%
X57900000Y-49750000D03*
X57900000Y-51650000D03*
%TD*%
D11*
%TO.C,C2*%
X61725000Y-37300000D03*
X63275000Y-37300000D03*
%TD*%
D12*
%TO.C,U2*%
X75600000Y-39250000D03*
X75600000Y-38300000D03*
X75600000Y-37350000D03*
X72900000Y-37350000D03*
X72900000Y-38300000D03*
X72900000Y-39250000D03*
%TD*%
D13*
%TO.C,U1*%
X58200000Y-39320500D03*
X58699800Y-39320300D03*
X59200000Y-39320300D03*
X59699800Y-39320300D03*
D14*
X60349800Y-38895300D03*
X60349800Y-38395200D03*
D15*
X60175100Y-37645100D03*
D14*
X60349800Y-37895100D03*
X60350100Y-37394900D03*
D16*
X59449900Y-37400000D03*
D17*
X58950000Y-37624800D03*
D16*
X58449900Y-37400000D03*
D18*
X57549700Y-37394900D03*
X57549700Y-37895100D03*
D19*
X57724700Y-37645100D03*
D18*
X57550000Y-38394900D03*
X57549700Y-38895100D03*
%TD*%
D20*
%TO.C,C9*%
X60100000Y-43500000D03*
D21*
X62100000Y-43500000D03*
%TD*%
D22*
%TO.C,D5*%
X69040000Y-45100000D03*
X68200000Y-45100000D03*
%TD*%
D23*
%TO.C,D4*%
X63500000Y-40900000D03*
X63500000Y-40060000D03*
%TD*%
D22*
%TO.C,D3*%
X58140000Y-40300000D03*
X57300000Y-40300000D03*
%TD*%
%TO.C,D2*%
X60020000Y-40300000D03*
X59180000Y-40300000D03*
%TD*%
%TO.C,D1*%
X61920000Y-40300000D03*
X61080000Y-40300000D03*
%TD*%
D24*
%TO.C,J2*%
X65600000Y-46857500D03*
D25*
X68600000Y-51557500D03*
D26*
X62600000Y-51557500D03*
%TD*%
D27*
%TO.C,R5*%
X57400000Y-44800000D03*
X57400000Y-43780000D03*
%TD*%
%TO.C,R4*%
X71300000Y-38400000D03*
X71300000Y-37380000D03*
%TD*%
D28*
%TO.C,R3*%
X57400000Y-41780000D03*
X57400000Y-42800000D03*
%TD*%
D27*
%TO.C,R2*%
X71300000Y-40400000D03*
X71300000Y-39380000D03*
%TD*%
D29*
%TO.C,R1*%
X70190000Y-45000000D03*
X71210000Y-45000000D03*
%TD*%
D30*
%TO.C,L2*%
X71400000Y-43175000D03*
X71400000Y-41600000D03*
%TD*%
%TO.C,L1*%
X59800000Y-48687500D03*
X59800000Y-47112500D03*
%TD*%
D10*
%TO.C,C8*%
X57900000Y-48050000D03*
X57900000Y-46150000D03*
%TD*%
D31*
%TO.C,C7*%
X73650000Y-45800000D03*
X75550000Y-45800000D03*
%TD*%
D10*
%TO.C,C5*%
X57900000Y-55150000D03*
X57900000Y-53250000D03*
%TD*%
D32*
%TO.C,C4*%
X59800000Y-55175000D03*
X59800000Y-53625000D03*
%TD*%
%TO.C,C3*%
X59700000Y-51875000D03*
X59700000Y-50325000D03*
%TD*%
D33*
%TO.C,J1*%
X68600000Y-40682500D03*
D34*
X66060000Y-40682500D03*
%TD*%
D35*
%TO.C,C6*%
X73600000Y-42400000D03*
D36*
X75350000Y-42400000D03*
%TD*%
M02*
