%TF.GenerationSoftware,KiCad,Pcbnew,9.0.4*%
%TF.CreationDate,2026-05-04T00:40:09-07:00*%
%TF.ProjectId,REV2_Dyno_Rectifier_PCB_2,52455632-5f44-4796-9e6f-5f5265637469,rev?*%
%TF.SameCoordinates,Original*%
%TF.FileFunction,Copper,L1,Top*%
%TF.FilePolarity,Positive*%
%FSLAX46Y46*%
G04 Gerber Fmt 4.6, Leading zero omitted, Abs format (unit mm)*
G04 Created by KiCad (PCBNEW 9.0.4) date 2026-05-04 00:40:09*
%MOMM*%
%LPD*%
G01*
G04 APERTURE LIST*
G04 Aperture macros list*
%AMRoundRect*
0 Rectangle with rounded corners*
0 $1 Rounding radius*
0 $2 $3 $4 $5 $6 $7 $8 $9 X,Y pos of 4 corners*
0 Add a 4 corners polygon primitive as box body*
4,1,4,$2,$3,$4,$5,$6,$7,$8,$9,$2,$3,0*
0 Add four circle primitives for the rounded corners*
1,1,$1+$1,$2,$3*
1,1,$1+$1,$4,$5*
1,1,$1+$1,$6,$7*
1,1,$1+$1,$8,$9*
0 Add four rect primitives between the rounded corners*
20,1,$1+$1,$2,$3,$4,$5,0*
20,1,$1+$1,$4,$5,$6,$7,0*
20,1,$1+$1,$6,$7,$8,$9,0*
20,1,$1+$1,$8,$9,$2,$3,0*%
G04 Aperture macros list end*
%TA.AperFunction,SMDPad,CuDef*%
%ADD10RoundRect,0.250000X0.850000X-0.375000X0.850000X0.375000X-0.850000X0.375000X-0.850000X-0.375000X0*%
%TD*%
%TA.AperFunction,SMDPad,CuDef*%
%ADD11R,0.250000X0.600000*%
%TD*%
%TA.AperFunction,SMDPad,CuDef*%
%ADD12R,0.600000X0.250000*%
%TD*%
%TA.AperFunction,SMDPad,CuDef*%
%ADD13R,0.250000X0.750000*%
%TD*%
%TA.AperFunction,SMDPad,CuDef*%
%ADD14R,0.250000X1.350000*%
%TD*%
%TA.AperFunction,SMDPad,CuDef*%
%ADD15R,0.250000X1.800000*%
%TD*%
%TA.AperFunction,SMDPad,CuDef*%
%ADD16RoundRect,0.225000X-0.250000X0.225000X-0.250000X-0.225000X0.250000X-0.225000X0.250000X0.225000X0*%
%TD*%
%TA.AperFunction,SMDPad,CuDef*%
%ADD17RoundRect,0.135000X0.135000X0.185000X-0.135000X0.185000X-0.135000X-0.185000X0.135000X-0.185000X0*%
%TD*%
%TA.AperFunction,ComponentPad*%
%ADD18R,3.500000X3.500000*%
%TD*%
%TA.AperFunction,ComponentPad*%
%ADD19RoundRect,0.750000X0.750000X1.000000X-0.750000X1.000000X-0.750000X-1.000000X0.750000X-1.000000X0*%
%TD*%
%TA.AperFunction,ComponentPad*%
%ADD20RoundRect,0.875000X0.875000X0.875000X-0.875000X0.875000X-0.875000X-0.875000X0.875000X-0.875000X0*%
%TD*%
%TA.AperFunction,SMDPad,CuDef*%
%ADD21RoundRect,0.062500X0.117500X0.062500X-0.117500X0.062500X-0.117500X-0.062500X0.117500X-0.062500X0*%
%TD*%
%TA.AperFunction,SMDPad,CuDef*%
%ADD22RoundRect,0.250000X0.475000X-0.250000X0.475000X0.250000X-0.475000X0.250000X-0.475000X-0.250000X0*%
%TD*%
%TA.AperFunction,SMDPad,CuDef*%
%ADD23RoundRect,0.250000X-0.250000X-0.475000X0.250000X-0.475000X0.250000X0.475000X-0.250000X0.475000X0*%
%TD*%
%TA.AperFunction,ComponentPad*%
%ADD24RoundRect,0.250000X-0.550000X-0.550000X0.550000X-0.550000X0.550000X0.550000X-0.550000X0.550000X0*%
%TD*%
%TA.AperFunction,ComponentPad*%
%ADD25C,1.600000*%
%TD*%
%TA.AperFunction,ComponentPad*%
%ADD26C,1.200000*%
%TD*%
%TA.AperFunction,ComponentPad*%
%ADD27R,1.200000X1.200000*%
%TD*%
%TA.AperFunction,SMDPad,CuDef*%
%ADD28RoundRect,0.135000X0.185000X-0.135000X0.185000X0.135000X-0.185000X0.135000X-0.185000X-0.135000X0*%
%TD*%
%TA.AperFunction,SMDPad,CuDef*%
%ADD29RoundRect,0.225000X0.250000X-0.225000X0.250000X0.225000X-0.250000X0.225000X-0.250000X-0.225000X0*%
%TD*%
%TA.AperFunction,SMDPad,CuDef*%
%ADD30RoundRect,0.062500X-0.062500X0.117500X-0.062500X-0.117500X0.062500X-0.117500X0.062500X0.117500X0*%
%TD*%
%TA.AperFunction,SMDPad,CuDef*%
%ADD31RoundRect,0.250000X0.250000X0.475000X-0.250000X0.475000X-0.250000X-0.475000X0.250000X-0.475000X0*%
%TD*%
%TA.AperFunction,ComponentPad*%
%ADD32RoundRect,0.250000X0.750000X0.750000X-0.750000X0.750000X-0.750000X-0.750000X0.750000X-0.750000X0*%
%TD*%
%TA.AperFunction,ComponentPad*%
%ADD33C,2.000000*%
%TD*%
%TA.AperFunction,SMDPad,CuDef*%
%ADD34RoundRect,0.062500X0.062500X-0.117500X0.062500X0.117500X-0.062500X0.117500X-0.062500X-0.117500X0*%
%TD*%
%TA.AperFunction,SMDPad,CuDef*%
%ADD35RoundRect,0.135000X-0.185000X0.135000X-0.185000X-0.135000X0.185000X-0.135000X0.185000X0.135000X0*%
%TD*%
%TA.AperFunction,SMDPad,CuDef*%
%ADD36R,1.100000X0.600000*%
%TD*%
%TA.AperFunction,SMDPad,CuDef*%
%ADD37RoundRect,0.250000X-0.375000X-0.850000X0.375000X-0.850000X0.375000X0.850000X-0.375000X0.850000X0*%
%TD*%
%TA.AperFunction,ViaPad*%
%ADD38C,0.300000*%
%TD*%
%TA.AperFunction,Conductor*%
%ADD39C,0.254000*%
%TD*%
%TA.AperFunction,Conductor*%
%ADD40C,0.127000*%
%TD*%
%TA.AperFunction,Conductor*%
%ADD41C,0.101600*%
%TD*%
%TA.AperFunction,Conductor*%
%ADD42C,0.200000*%
%TD*%
G04 APERTURE END LIST*
D10*
%TO.P,L2,1,1*%
%TO.N,2.7V*%
X68960000Y-45740000D03*
%TO.P,L2,2,2*%
%TO.N,Net-(D5-A)*%
X68959996Y-43590000D03*
%TD*%
D11*
%TO.P,U1,1,PS/SYNC*%
%TO.N,Net-(U1-EN)*%
X58000100Y-37170500D03*
%TO.P,U1,2,PG*%
%TO.N,Net-(U1-PG)*%
X58499900Y-37170300D03*
%TO.P,U1,3,Vaux*%
%TO.N,Net-(U1-Vaux)*%
X59000100Y-37170300D03*
%TO.P,U1,4,GND*%
%TO.N,GND*%
X59499900Y-37170300D03*
D12*
%TO.P,U1,5,FB*%
%TO.N,Net-(U1-FB)*%
X60149900Y-36745300D03*
%TO.P,U1,6,FB2*%
%TO.N,GND*%
X60149900Y-36245200D03*
D13*
%TO.P,U1,7,Vout*%
%TO.N,2.7V*%
X59975200Y-35495100D03*
D12*
X60149900Y-35745100D03*
X60150200Y-35244900D03*
D14*
%TO.P,U1,9,L2*%
%TO.N,Net-(U1-L2)*%
X59250000Y-35250000D03*
D15*
%TO.P,U1,10,PGND*%
%TO.N,GND*%
X58750100Y-35474800D03*
D14*
%TO.P,U1,11,L1*%
%TO.N,Net-(U1-L1)*%
X58250000Y-35250000D03*
D12*
%TO.P,U1,12,Vin*%
%TO.N,Rectified*%
X57349800Y-35244900D03*
X57349800Y-35745100D03*
D13*
X57524800Y-35495100D03*
D12*
%TO.P,U1,14,EN*%
%TO.N,Net-(U1-EN)*%
X57350100Y-36244900D03*
%TO.P,U1,15,Vsel*%
%TO.N,GND*%
X57349800Y-36745100D03*
%TD*%
D16*
%TO.P,C4,1*%
%TO.N,Net-(U1-Vaux)*%
X57800001Y-52265004D03*
%TO.P,C4,2*%
%TO.N,GND*%
X57799999Y-53814996D03*
%TD*%
D17*
%TO.P,R2,1*%
%TO.N,2.7V*%
X63140000Y-46410000D03*
%TO.P,R2,2*%
%TO.N,Net-(R2-Pad2)*%
X62120000Y-46410000D03*
%TD*%
D18*
%TO.P,J2,1*%
%TO.N,Out_Tip*%
X62600000Y-51640000D03*
D19*
%TO.P,J2,2*%
%TO.N,Out_Sleeve*%
X68600000Y-51640000D03*
D20*
%TO.P,J2,3*%
%TO.N,N/C*%
X65600000Y-46940000D03*
%TD*%
D21*
%TO.P,D3,1,K*%
%TO.N,Rectified*%
X62750000Y-38280000D03*
%TO.P,D3,2,A*%
%TO.N,Raw_Input_+*%
X63590000Y-38280000D03*
%TD*%
D22*
%TO.P,C6,1*%
%TO.N,2.7V*%
X60625000Y-48800000D03*
%TO.P,C6,2*%
%TO.N,GND*%
X60625000Y-46900000D03*
%TD*%
D23*
%TO.P,C8,1*%
%TO.N,2.7V*%
X64800000Y-43750000D03*
%TO.P,C8,2*%
%TO.N,GND*%
X66700000Y-43750000D03*
%TD*%
D24*
%TO.P,C1,1*%
%TO.N,Rectified*%
X60144888Y-43250000D03*
D25*
%TO.P,C1,2*%
%TO.N,GND*%
X62144888Y-43250000D03*
%TD*%
D22*
%TO.P,C9,1*%
%TO.N,V_out*%
X57820000Y-47350000D03*
%TO.P,C9,2*%
%TO.N,GND*%
X57820000Y-45450000D03*
%TD*%
D26*
%TO.P,C7,1*%
%TO.N,2.7V*%
X72310000Y-43530000D03*
D27*
%TO.P,C7,2*%
%TO.N,GND*%
X74810000Y-43530000D03*
%TD*%
D21*
%TO.P,D1,1,K*%
%TO.N,Raw_Input_+*%
X62770000Y-39250000D03*
%TO.P,D1,2,A*%
%TO.N,GND*%
X63610000Y-39250000D03*
%TD*%
D28*
%TO.P,R1,1*%
%TO.N,Rectified*%
X60125000Y-51350000D03*
%TO.P,R1,2*%
%TO.N,Net-(U1-EN)*%
X60125000Y-50330000D03*
%TD*%
D22*
%TO.P,C10,1*%
%TO.N,Rectified*%
X62800000Y-37000000D03*
%TO.P,C10,2*%
%TO.N,GND*%
X62800000Y-35100000D03*
%TD*%
D29*
%TO.P,C5,1*%
%TO.N,2.7V*%
X71350000Y-36800000D03*
%TO.P,C5,2*%
%TO.N,GND*%
X71350000Y-35250000D03*
%TD*%
%TO.P,C3,1*%
%TO.N,Rectified*%
X57750000Y-50750000D03*
%TO.P,C3,2*%
%TO.N,GND*%
X57750000Y-49200000D03*
%TD*%
D30*
%TO.P,D4,1,K*%
%TO.N,Rectified*%
X61760000Y-38970000D03*
%TO.P,D4,2,A*%
%TO.N,Raw_Input_-*%
X61760000Y-38130000D03*
%TD*%
D31*
%TO.P,C2,1*%
%TO.N,Rectified*%
X73280000Y-39290000D03*
%TO.P,C2,2*%
%TO.N,GND*%
X71380000Y-39290000D03*
%TD*%
D32*
%TO.P,J1,1,Pin_1*%
%TO.N,Raw_Input_-*%
X68600000Y-38282500D03*
D33*
%TO.P,J1,2,Pin_2*%
%TO.N,Raw_Input_+*%
X66060000Y-38282500D03*
%TD*%
D34*
%TO.P,D5,1,K*%
%TO.N,V_out*%
X60100000Y-52300000D03*
%TO.P,D5,2,A*%
%TO.N,Net-(D5-A)*%
X60100000Y-53140000D03*
%TD*%
D35*
%TO.P,R3,1*%
%TO.N,Net-(R2-Pad2)*%
X57350000Y-40930000D03*
%TO.P,R3,2*%
%TO.N,Net-(U1-FB)*%
X57350000Y-41950000D03*
%TD*%
%TO.P,R4,1*%
%TO.N,2.7V*%
X57380000Y-42920000D03*
%TO.P,R4,2*%
%TO.N,Net-(U1-PG)*%
X57380002Y-43940002D03*
%TD*%
D36*
%TO.P,U2,1,SW*%
%TO.N,Net-(D5-A)*%
X75690000Y-37320000D03*
%TO.P,U2,2,GND*%
%TO.N,GND*%
X75690000Y-36370000D03*
%TO.P,U2,3,FB*%
%TO.N,FB*%
X75690000Y-35420000D03*
%TO.P,U2,4,SHDN#*%
%TO.N,2.7V*%
X72990000Y-35420000D03*
%TO.P,U2,5,VOUT*%
%TO.N,V_out*%
X72990000Y-36370000D03*
%TO.P,U2,6,VIN*%
%TO.N,2.7V*%
X72990000Y-37320000D03*
%TD*%
D37*
%TO.P,L1,1,1*%
%TO.N,Net-(U1-L1)*%
X57850000Y-39000002D03*
%TO.P,L1,2,2*%
%TO.N,Net-(U1-L2)*%
X60000000Y-39000000D03*
%TD*%
D28*
%TO.P,R5,1*%
%TO.N,FB*%
X59060000Y-49940000D03*
%TO.P,R5,2*%
%TO.N,GND*%
X59060000Y-48920000D03*
%TD*%
D21*
%TO.P,D2,1,K*%
%TO.N,Raw_Input_-*%
X62782500Y-40160000D03*
%TO.P,D2,2,A*%
%TO.N,GND*%
X63622500Y-40160000D03*
%TD*%
D38*
%TO.N,Raw_Input_+*%
X60380000Y-40970000D03*
X59510000Y-40830000D03*
%TO.N,Rectified*%
X61660000Y-39490000D03*
X62350620Y-41971180D03*
X71180000Y-40950000D03*
X56150000Y-43600000D03*
X56580000Y-46820000D03*
X74430000Y-39659130D03*
%TO.N,GND*%
X60790000Y-45370000D03*
X60660000Y-36250000D03*
X69490000Y-40110000D03*
X57940000Y-49950000D03*
X70390000Y-35260000D03*
X58540000Y-53780000D03*
X64050000Y-40110000D03*
X61620000Y-35130000D03*
X59039112Y-51784937D03*
X68344000Y-41256000D03*
X76810000Y-36450000D03*
X66860000Y-41443000D03*
X71180000Y-38050000D03*
%TO.N,Net-(U1-Vaux)*%
X58611541Y-42535353D03*
X57720000Y-53014996D03*
%TO.N,2.7V*%
X60570000Y-47960000D03*
X62047936Y-41300000D03*
X61234330Y-40802629D03*
%TO.N,V_out*%
X76369352Y-40186130D03*
X56872500Y-51350000D03*
X65414518Y-42155899D03*
%TO.N,Raw_Input_-*%
X59562256Y-41597744D03*
%TO.N,FB*%
X77390000Y-44490000D03*
X59620000Y-49780000D03*
%TO.N,Net-(U1-L2)*%
X60375574Y-40368554D03*
X61090000Y-37380000D03*
%TO.N,Net-(U1-L1)*%
X55770000Y-39200000D03*
X58710000Y-40320000D03*
%TO.N,Net-(U1-EN)*%
X59373077Y-50543949D03*
X59290000Y-54810000D03*
%TO.N,Net-(R2-Pad2)*%
X62860000Y-47990000D03*
X61700000Y-46960000D03*
X56480000Y-41030000D03*
X65390000Y-50500000D03*
%TO.N,Net-(U1-FB)*%
X57858350Y-42397710D03*
X60040000Y-37280000D03*
%TO.N,Net-(U1-PG)*%
X56270000Y-43050000D03*
X56490000Y-39870000D03*
X58710902Y-37795391D03*
X56950000Y-43990000D03*
%TD*%
D39*
%TO.N,Raw_Input_+*%
X66057500Y-38280000D02*
X66060000Y-38282500D01*
X62770000Y-39250000D02*
X62770000Y-39100000D01*
D40*
X59510000Y-40830000D02*
X60240000Y-40830000D01*
D39*
X63590000Y-38280000D02*
X66057500Y-38280000D01*
X62770000Y-39100000D02*
X63590000Y-38280000D01*
D40*
X60240000Y-40830000D02*
X60380000Y-40970000D01*
%TO.N,Rectified*%
X56233500Y-36407500D02*
X56233500Y-39322692D01*
X57750000Y-50750000D02*
X57750000Y-50373492D01*
X56233500Y-39322692D02*
X55872256Y-39683936D01*
D39*
X73140000Y-39290000D02*
X74060870Y-39290000D01*
D40*
X62750000Y-38280000D02*
X62155500Y-37685500D01*
X55872256Y-39683936D02*
X55872256Y-40025296D01*
X60534896Y-43250000D02*
X61737396Y-42047500D01*
X60144888Y-43250000D02*
X60534896Y-43250000D01*
X61760000Y-38970000D02*
X61760000Y-39390000D01*
X62274300Y-42047500D02*
X62350620Y-41971180D01*
X61737396Y-42047500D02*
X62274300Y-42047500D01*
X61560320Y-37685500D02*
X61369500Y-37876320D01*
D39*
X74060870Y-39290000D02*
X74430000Y-39659130D01*
D40*
X56580000Y-49203492D02*
X56580000Y-46820000D01*
X62800000Y-37000000D02*
X62800000Y-38230000D01*
X57524800Y-35495100D02*
X57145900Y-35495100D01*
X55872256Y-40025296D02*
X55360000Y-40537552D01*
X55360000Y-40537552D02*
X55360000Y-43360500D01*
X61369500Y-37876320D02*
X61369500Y-38579500D01*
X61760000Y-39390000D02*
X61660000Y-39490000D01*
X62800000Y-38230000D02*
X62750000Y-38280000D01*
X55599500Y-43600000D02*
X56150000Y-43600000D01*
X58350000Y-51350000D02*
X60125000Y-51350000D01*
X57750000Y-50750000D02*
X58350000Y-51350000D01*
D39*
X73140000Y-39290000D02*
X71480000Y-40950000D01*
X71480000Y-40950000D02*
X71180000Y-40950000D01*
D40*
X61369500Y-38579500D02*
X61760000Y-38970000D01*
X62155500Y-37685500D02*
X61560320Y-37685500D01*
X57145900Y-35495100D02*
X56233500Y-36407500D01*
X55360000Y-43360500D02*
X55599500Y-43600000D01*
X57750000Y-50373492D02*
X56580000Y-49203492D01*
%TO.N,GND*%
X63951888Y-41443000D02*
X66860000Y-41443000D01*
D41*
X60655200Y-36245200D02*
X60660000Y-36250000D01*
D40*
X57750000Y-49200000D02*
X58780000Y-49200000D01*
X62144888Y-43250000D02*
X63951888Y-41443000D01*
D39*
X70702000Y-40752005D02*
X70702000Y-41147995D01*
D42*
X62800000Y-35100000D02*
X61650000Y-35100000D01*
D40*
X66700000Y-43014896D02*
X67490896Y-42224000D01*
D39*
X75690000Y-36370000D02*
X76730000Y-36370000D01*
D40*
X58780000Y-49200000D02*
X59060000Y-48920000D01*
X59060000Y-48465000D02*
X59060000Y-48920000D01*
D41*
X59499900Y-36255300D02*
X59510000Y-36245200D01*
D39*
X63622500Y-40160000D02*
X64000000Y-40160000D01*
X72708000Y-41428000D02*
X74810000Y-43530000D01*
D40*
X58515000Y-45460000D02*
X59185000Y-45460000D01*
D41*
X59499900Y-37170300D02*
X59499900Y-36255300D01*
D40*
X67490896Y-42224000D02*
X67960896Y-42224000D01*
D39*
X70982005Y-41428000D02*
X72708000Y-41428000D01*
D41*
X58750100Y-35474800D02*
X58750100Y-36053700D01*
X57623300Y-36745100D02*
X57349800Y-36745100D01*
X58750100Y-36053700D02*
X58941600Y-36245200D01*
D40*
X57940000Y-49390000D02*
X57750000Y-49200000D01*
D41*
X59510000Y-36245200D02*
X60149900Y-36245200D01*
D40*
X58540000Y-53780000D02*
X58540000Y-52284049D01*
D39*
X71240000Y-39290000D02*
X71240000Y-40214005D01*
D40*
X60625000Y-46900000D02*
X59060000Y-48465000D01*
X68344000Y-41840896D02*
X68344000Y-41256000D01*
X59185000Y-45460000D02*
X60625000Y-46900000D01*
D41*
X58185100Y-36618500D02*
X57749900Y-36618500D01*
D39*
X63610000Y-39250000D02*
X63610000Y-40147500D01*
X64000000Y-40160000D02*
X64050000Y-40110000D01*
X71350000Y-35250000D02*
X70400000Y-35250000D01*
D40*
X68344000Y-41256000D02*
X69490000Y-40110000D01*
D39*
X70400000Y-35250000D02*
X70390000Y-35260000D01*
D42*
X61650000Y-35100000D02*
X61620000Y-35130000D01*
D40*
X66700000Y-43750000D02*
X66700000Y-43014896D01*
D39*
X63610000Y-40147500D02*
X63622500Y-40160000D01*
D40*
X67960896Y-42224000D02*
X68344000Y-41840896D01*
D39*
X76730000Y-36370000D02*
X76810000Y-36450000D01*
D41*
X58941600Y-36245200D02*
X59510000Y-36245200D01*
D39*
X71240000Y-38110000D02*
X71180000Y-38050000D01*
D40*
X58540000Y-52284049D02*
X59039112Y-51784937D01*
D41*
X57749900Y-36618500D02*
X57623300Y-36745100D01*
D42*
X58750100Y-35474800D02*
X58750100Y-36152100D01*
D40*
X58505004Y-53814996D02*
X58540000Y-53780000D01*
D41*
X58750100Y-36053500D02*
X58185100Y-36618500D01*
X60149900Y-36245200D02*
X60655200Y-36245200D01*
D42*
X58750100Y-36152100D02*
X58843200Y-36245200D01*
D39*
X70702000Y-41147995D02*
X70982005Y-41428000D01*
D40*
X57799999Y-53814996D02*
X58505004Y-53814996D01*
X57940000Y-49950000D02*
X57940000Y-49390000D01*
D41*
X58750100Y-35474800D02*
X58750100Y-36053500D01*
D39*
X71240000Y-40214005D02*
X70702000Y-40752005D01*
D42*
X62800000Y-35100000D02*
X62610000Y-35100000D01*
D39*
X71240000Y-39290000D02*
X71240000Y-38110000D01*
D40*
%TO.N,Net-(U1-Vaux)*%
X59110840Y-40074648D02*
X59124500Y-40088308D01*
X59124500Y-40088308D02*
X59124500Y-40491692D01*
X59110840Y-37929620D02*
X59110840Y-40074648D01*
X59000100Y-37170300D02*
X59000100Y-37482868D01*
X57720000Y-52345005D02*
X57800001Y-52265004D01*
X59124500Y-40491692D02*
X58611541Y-41004651D01*
X58611541Y-41004651D02*
X58611541Y-42535353D01*
X59124402Y-37916058D02*
X59110840Y-37929620D01*
X59000100Y-37482868D02*
X59124402Y-37607170D01*
X59124402Y-37607170D02*
X59124402Y-37916058D01*
X57720000Y-53014996D02*
X57720000Y-52345005D01*
D39*
%TO.N,2.7V*%
X70100000Y-45740000D02*
X72310000Y-43530000D01*
X70248000Y-41584053D02*
X70248000Y-40563952D01*
D40*
X60570000Y-47960000D02*
X60570000Y-48745000D01*
X59075041Y-42485307D02*
X59547430Y-42012918D01*
X61123500Y-36441988D02*
X60714400Y-36851088D01*
X67328052Y-41687436D02*
X67092744Y-41922744D01*
X61234330Y-40513807D02*
X61234330Y-40802629D01*
X60640000Y-37680460D02*
X60889500Y-37929960D01*
X60640000Y-37134800D02*
X60640000Y-37680460D01*
X60625000Y-48800000D02*
X61124938Y-48300062D01*
X60068488Y-41957000D02*
X61364034Y-41957000D01*
D39*
X72112000Y-35742000D02*
X72434000Y-35420000D01*
D40*
X58340700Y-42920000D02*
X58419553Y-42998853D01*
D39*
X72112000Y-36038000D02*
X72112000Y-35742000D01*
X68183146Y-42554000D02*
X69278053Y-42554000D01*
D40*
X65789500Y-44739500D02*
X67959500Y-44739500D01*
X60889500Y-40070040D02*
X60840032Y-40119509D01*
X60714400Y-36851088D02*
X60714400Y-37060400D01*
X62047936Y-41300000D02*
X62507344Y-41300000D01*
D39*
X71350000Y-36800000D02*
X71870000Y-37320000D01*
D40*
X60714400Y-37060400D02*
X60640000Y-37134800D01*
D39*
X72310000Y-43530000D02*
X71297000Y-44543000D01*
D40*
X60560588Y-35495100D02*
X61123500Y-36058012D01*
D39*
X70875000Y-36800000D02*
X71350000Y-36800000D01*
X67886154Y-42614500D02*
X68122646Y-42614500D01*
D40*
X58803529Y-42998853D02*
X59075041Y-42727341D01*
X63125000Y-46300000D02*
X63125000Y-45425000D01*
D39*
X70376000Y-37299000D02*
X70875000Y-36800000D01*
D40*
X59075041Y-42727341D02*
X59075041Y-42485307D01*
X61364034Y-41957000D02*
X61600534Y-41720500D01*
D39*
X70248000Y-40563952D02*
X70376000Y-40435953D01*
X68122646Y-42614500D02*
X68183146Y-42554000D01*
D40*
X64800000Y-43750000D02*
X65789500Y-44739500D01*
D39*
X68960000Y-45740000D02*
X70100000Y-45740000D01*
D40*
X67328052Y-41016500D02*
X67328052Y-41687436D01*
X59547430Y-42012918D02*
X60012570Y-42012918D01*
X61600534Y-41720500D02*
X61627436Y-41720500D01*
D39*
X72434000Y-35420000D02*
X72990000Y-35420000D01*
D40*
X67959500Y-44739500D02*
X68960000Y-45740000D01*
X62507344Y-41300000D02*
X62708258Y-41500914D01*
X57380000Y-42920000D02*
X58340700Y-42920000D01*
X67092744Y-41922744D02*
X66627256Y-41922744D01*
X60012570Y-42012918D02*
X60068488Y-41957000D01*
D39*
X71870000Y-37320000D02*
X72990000Y-37320000D01*
D40*
X59975200Y-35495100D02*
X60560588Y-35495100D01*
X61627436Y-41720500D02*
X62047936Y-41300000D01*
D39*
X70376000Y-40435953D02*
X70376000Y-37299000D01*
D40*
X60570000Y-48745000D02*
X60625000Y-48800000D01*
D39*
X71297000Y-44543000D02*
X67863654Y-44543000D01*
D40*
X63915940Y-41016500D02*
X67328052Y-41016500D01*
X66627256Y-41922744D02*
X64800000Y-43750000D01*
X63125000Y-45425000D02*
X64800000Y-43750000D01*
X61124938Y-48300062D02*
X63125000Y-46300000D01*
X60840032Y-40119509D02*
X61234330Y-40513807D01*
D39*
X71350000Y-36800000D02*
X72112000Y-36038000D01*
X69278053Y-42554000D02*
X70248000Y-41584053D01*
D40*
X63431526Y-41500914D02*
X63915940Y-41016500D01*
X60889500Y-37929960D02*
X60889500Y-40070040D01*
X62708258Y-41500914D02*
X63431526Y-41500914D01*
D39*
X67531996Y-44211342D02*
X67531996Y-42968658D01*
D40*
X61123500Y-36058012D02*
X61123500Y-36441988D01*
X58419553Y-42998853D02*
X58803529Y-42998853D01*
D39*
X67531996Y-42968658D02*
X67886154Y-42614500D01*
X67863654Y-44543000D02*
X67531996Y-44211342D01*
%TO.N,V_out*%
X55999500Y-49175242D02*
X55999500Y-45625209D01*
X62612121Y-44378000D02*
X64759621Y-42230500D01*
X76369352Y-39367352D02*
X76369352Y-40186130D01*
X60100000Y-52300000D02*
X59067000Y-53333000D01*
X56872500Y-54150791D02*
X56872500Y-51350000D01*
X65339917Y-42230500D02*
X65414518Y-42155899D01*
D40*
X58515000Y-47360000D02*
X58515000Y-46979709D01*
D39*
X56357354Y-45887354D02*
X57820000Y-47350000D01*
X56872500Y-50048242D02*
X55999500Y-49175242D01*
X56357354Y-45267354D02*
X57002709Y-44622000D01*
X59067000Y-54235709D02*
X58012209Y-55290500D01*
X58012209Y-55290500D02*
X56872500Y-54150791D01*
X59067000Y-53333000D02*
X59067000Y-54235709D01*
X73372000Y-36370000D02*
X76369352Y-39367352D01*
X57002709Y-44622000D02*
X57803658Y-44622000D01*
X56357354Y-45267354D02*
X56357354Y-45887354D01*
X58047658Y-44378000D02*
X62612121Y-44378000D01*
X72990000Y-36370000D02*
X73372000Y-36370000D01*
X57803658Y-44622000D02*
X58047658Y-44378000D01*
X64759621Y-42230500D02*
X65339917Y-42230500D01*
X55999500Y-45625209D02*
X56357354Y-45267354D01*
X56872500Y-51350000D02*
X56872500Y-50048242D01*
%TO.N,Raw_Input_-*%
X64291291Y-40614000D02*
X64292291Y-40613000D01*
X64292291Y-40613000D02*
X67269500Y-40613000D01*
X62782500Y-40160000D02*
X63236500Y-40614000D01*
D40*
X61164757Y-41597744D02*
X62602501Y-40160000D01*
D39*
X62262000Y-38632000D02*
X61760000Y-38130000D01*
X62262000Y-39639500D02*
X62262000Y-38632000D01*
X62782500Y-40160000D02*
X62262000Y-39639500D01*
X63236500Y-40614000D02*
X64291291Y-40614000D01*
X67269500Y-40613000D02*
X68600000Y-39282500D01*
X68600000Y-39282500D02*
X68600000Y-38282500D01*
D40*
X59562256Y-41597744D02*
X61164757Y-41597744D01*
X62602501Y-40160000D02*
X62782500Y-40160000D01*
D39*
%TO.N,Net-(D5-A)*%
X75738000Y-42602000D02*
X75738000Y-44458000D01*
X73507895Y-44083895D02*
X73507895Y-42869947D01*
D40*
X70033808Y-54307148D02*
X76325386Y-48015570D01*
D39*
X75118000Y-42182773D02*
X75118000Y-42382773D01*
X75337227Y-42602000D02*
X75738000Y-42602000D01*
X76325386Y-40975386D02*
X75118000Y-42182773D01*
X76931000Y-40369773D02*
X76325386Y-40975386D01*
X75738000Y-44458000D02*
X73882000Y-44458000D01*
X76931000Y-38561000D02*
X76931000Y-40369773D01*
X73239948Y-42602000D02*
X69947996Y-42602000D01*
X75690000Y-37320000D02*
X76931000Y-38561000D01*
X73882000Y-44458000D02*
X73507895Y-44083895D01*
X73507895Y-42869947D02*
X73239948Y-42602000D01*
D40*
X76325386Y-48015570D02*
X76325386Y-40975386D01*
X61267148Y-54307148D02*
X70033808Y-54307148D01*
D39*
X69947996Y-42602000D02*
X68959996Y-43590000D01*
X75118000Y-42382773D02*
X75337227Y-42602000D01*
D40*
X60100000Y-53140000D02*
X61267148Y-54307148D01*
D39*
%TO.N,FB*%
X77390000Y-40792053D02*
X77390000Y-44490000D01*
D40*
X59460000Y-49940000D02*
X59620000Y-49780000D01*
D39*
X75690000Y-35420000D02*
X76494000Y-35420000D01*
X77390000Y-36316000D02*
X77390000Y-38377947D01*
X77534000Y-38521947D02*
X77534000Y-40648053D01*
D40*
X59060000Y-49940000D02*
X59460000Y-49940000D01*
D39*
X76494000Y-35420000D02*
X77390000Y-36316000D01*
X77534000Y-40648053D02*
X77390000Y-40792053D01*
X77390000Y-38377947D02*
X77534000Y-38521947D01*
D40*
%TO.N,Net-(U1-L2)*%
X61090000Y-35562064D02*
X61450500Y-35922564D01*
X61450500Y-35922564D02*
X61450500Y-36577436D01*
X59250000Y-35250000D02*
X59644600Y-34855400D01*
X61450500Y-36577436D02*
X61090000Y-36937936D01*
X61090000Y-36937936D02*
X61090000Y-37380000D01*
X60714700Y-34855400D02*
X61090000Y-35230700D01*
X60268107Y-40368554D02*
X60375574Y-40368554D01*
X59644600Y-34855400D02*
X60714700Y-34855400D01*
X61090000Y-35230700D02*
X61090000Y-35562064D01*
X60000000Y-39000000D02*
X60000000Y-40100447D01*
X60000000Y-40100447D02*
X60268107Y-40368554D01*
%TO.N,Net-(U1-L1)*%
X58697340Y-40307340D02*
X58710000Y-40320000D01*
X58250000Y-35250000D02*
X57855400Y-34855400D01*
X58770000Y-40320000D02*
X58710000Y-40320000D01*
X55770000Y-35870700D02*
X55770000Y-39200000D01*
X57877342Y-39000002D02*
X58697340Y-39820000D01*
X58697340Y-39820000D02*
X58697340Y-40307340D01*
X57855400Y-34855400D02*
X56785300Y-34855400D01*
X57850000Y-39000002D02*
X57877342Y-39000002D01*
X56785300Y-34855400D02*
X55770000Y-35870700D01*
%TO.N,Net-(U1-EN)*%
X57018999Y-55033499D02*
X57666500Y-55681000D01*
X56821200Y-37170500D02*
X58000100Y-37170500D01*
X56409000Y-44663459D02*
X55609000Y-45463459D01*
X56409000Y-54239541D02*
X57018999Y-54849540D01*
X56960500Y-40087052D02*
X56481052Y-40566500D01*
X56896000Y-36244900D02*
X56785300Y-36355600D01*
X56733500Y-42858012D02*
X56733500Y-43602692D01*
X57350100Y-36244900D02*
X56896000Y-36244900D01*
X56016500Y-41221988D02*
X56676000Y-41881488D01*
X56016500Y-40838012D02*
X56016500Y-41221988D01*
X57018999Y-54849540D02*
X57018999Y-55033499D01*
X56960500Y-39535012D02*
X56960500Y-40087052D01*
X55609000Y-49336992D02*
X56409000Y-50136992D01*
X56785300Y-37134600D02*
X56821200Y-37170500D01*
X57719962Y-37170500D02*
X56561500Y-38328962D01*
X56785300Y-36355600D02*
X56785300Y-37134600D01*
X56409000Y-50136992D02*
X56409000Y-54239541D01*
X59911051Y-50543949D02*
X60125000Y-50330000D01*
X56733500Y-43602692D02*
X56409000Y-43927192D01*
X59373077Y-50543949D02*
X59911051Y-50543949D01*
X56676000Y-42800512D02*
X56733500Y-42858012D01*
X56409000Y-43927192D02*
X56409000Y-44663459D01*
X56481052Y-40566500D02*
X56288012Y-40566500D01*
X55609000Y-45463459D02*
X55609000Y-49336992D01*
X56561500Y-39136012D02*
X56960500Y-39535012D01*
X58000100Y-37170500D02*
X57719962Y-37170500D01*
X56676000Y-41881488D02*
X56676000Y-42800512D01*
X57666500Y-55681000D02*
X58419000Y-55681000D01*
X58419000Y-55681000D02*
X59290000Y-54810000D01*
X56561500Y-38328962D02*
X56561500Y-39136012D01*
X56288012Y-40566500D02*
X56016500Y-40838012D01*
%TO.N,Net-(R2-Pad2)*%
X65390000Y-50200000D02*
X63402638Y-48212638D01*
X56580000Y-40930000D02*
X56480000Y-41030000D01*
X61700000Y-46960000D02*
X61700000Y-46705000D01*
X57350000Y-40930000D02*
X56580000Y-40930000D01*
X63402638Y-48212638D02*
X63180000Y-47990000D01*
X65390000Y-50500000D02*
X65390000Y-50200000D01*
X63180000Y-47990000D02*
X62860000Y-47990000D01*
X61700000Y-46705000D02*
X62105000Y-46300000D01*
%TO.N,Net-(U1-FB)*%
X60149900Y-37170100D02*
X60040000Y-37280000D01*
X57797710Y-42397710D02*
X57350000Y-41950000D01*
X60149900Y-36745300D02*
X60149900Y-37170100D01*
X57858350Y-42397710D02*
X57797710Y-42397710D01*
%TO.N,Net-(U1-PG)*%
X58499900Y-37584389D02*
X58710902Y-37795391D01*
X55689500Y-40670500D02*
X55689500Y-41357436D01*
X57330004Y-43990000D02*
X57380002Y-43940002D01*
X56950000Y-43990000D02*
X57330004Y-43990000D01*
X56490000Y-39870000D02*
X55689500Y-40670500D01*
X58499900Y-37170300D02*
X58499900Y-37584389D01*
X56270000Y-41937936D02*
X56270000Y-43050000D01*
X55689500Y-41357436D02*
X56270000Y-41937936D01*
%TD*%
%TA.AperFunction,Conductor*%
%TO.N,GND*%
G36*
X59366257Y-51933685D02*
G01*
X59412012Y-51986489D01*
X59421956Y-52055647D01*
X59392931Y-52119203D01*
X59386899Y-52125681D01*
X58987181Y-52525398D01*
X58925858Y-52558883D01*
X58856166Y-52553899D01*
X58800233Y-52512027D01*
X58775816Y-52446563D01*
X58775500Y-52437739D01*
X58775500Y-52037999D01*
X58795185Y-51970961D01*
X58847989Y-51925206D01*
X58899500Y-51914000D01*
X59299218Y-51914000D01*
X59366257Y-51933685D01*
G37*
%TD.AperFunction*%
%TA.AperFunction,Conductor*%
G36*
X62528093Y-45013405D02*
G01*
X62555752Y-45018158D01*
X62561167Y-45023116D01*
X62568211Y-45025185D01*
X62586584Y-45046388D01*
X62607284Y-45065342D01*
X62609159Y-45072441D01*
X62613966Y-45077989D01*
X62617959Y-45105759D01*
X62625126Y-45132895D01*
X62623348Y-45143239D01*
X62623910Y-45147147D01*
X62621460Y-45154225D01*
X62619148Y-45167679D01*
X62615111Y-45180151D01*
X62599435Y-45207304D01*
X62567102Y-45327976D01*
X62566282Y-45331034D01*
X62566280Y-45331042D01*
X62561000Y-45350747D01*
X62561000Y-45486971D01*
X62541315Y-45554010D01*
X62488511Y-45599765D01*
X62419353Y-45609709D01*
X62402407Y-45606048D01*
X62355205Y-45592335D01*
X62355202Y-45592334D01*
X62319181Y-45589500D01*
X61920830Y-45589500D01*
X61920808Y-45589501D01*
X61884794Y-45592335D01*
X61730611Y-45637129D01*
X61730606Y-45637131D01*
X61592404Y-45718863D01*
X61592396Y-45718869D01*
X61478869Y-45832396D01*
X61478865Y-45832402D01*
X61454059Y-45874345D01*
X61402988Y-45922027D01*
X61334246Y-45934529D01*
X61308324Y-45928927D01*
X61252696Y-45910494D01*
X61149986Y-45900000D01*
X60875000Y-45900000D01*
X60875000Y-46776000D01*
X60855315Y-46843039D01*
X60802511Y-46888794D01*
X60751000Y-46900000D01*
X60625000Y-46900000D01*
X60625000Y-47026000D01*
X60605315Y-47093039D01*
X60552511Y-47138794D01*
X60501000Y-47150000D01*
X59400001Y-47150000D01*
X59400001Y-47199986D01*
X59410494Y-47302697D01*
X59465641Y-47469119D01*
X59465643Y-47469124D01*
X59557684Y-47618345D01*
X59681655Y-47742316D01*
X59681659Y-47742319D01*
X59684656Y-47744168D01*
X59686279Y-47745972D01*
X59687323Y-47746798D01*
X59687181Y-47746976D01*
X59731381Y-47796116D01*
X59742602Y-47865079D01*
X59714759Y-47929161D01*
X59684661Y-47955241D01*
X59681349Y-47957283D01*
X59681343Y-47957288D01*
X59557287Y-48081344D01*
X59537182Y-48113940D01*
X59485233Y-48160664D01*
X59416271Y-48171885D01*
X59397049Y-48167918D01*
X59345130Y-48152834D01*
X59310000Y-48150068D01*
X59310000Y-48796000D01*
X59290315Y-48863039D01*
X59237511Y-48908794D01*
X59186000Y-48920000D01*
X58934000Y-48920000D01*
X58866961Y-48900315D01*
X58821206Y-48847511D01*
X58810000Y-48796000D01*
X58810000Y-48197730D01*
X58829685Y-48130691D01*
X58846320Y-48110048D01*
X58887709Y-48068659D01*
X58887712Y-48068656D01*
X58979814Y-47919334D01*
X59034999Y-47752797D01*
X59045500Y-47650009D01*
X59045499Y-47575603D01*
X59049724Y-47543509D01*
X59079000Y-47434252D01*
X59079000Y-46905457D01*
X59040565Y-46762013D01*
X58966313Y-46633405D01*
X58932921Y-46600013D01*
X59400000Y-46600013D01*
X59400000Y-46650000D01*
X60375000Y-46650000D01*
X60375000Y-45900000D01*
X60100029Y-45900000D01*
X60100012Y-45900001D01*
X59997302Y-45910494D01*
X59830880Y-45965641D01*
X59830875Y-45965643D01*
X59681654Y-46057684D01*
X59557684Y-46181654D01*
X59465643Y-46330875D01*
X59465641Y-46330880D01*
X59410494Y-46497302D01*
X59410493Y-46497309D01*
X59400000Y-46600013D01*
X58932921Y-46600013D01*
X58861304Y-46528396D01*
X58790131Y-46487304D01*
X58789480Y-46486928D01*
X58741265Y-46436360D01*
X58728043Y-46367753D01*
X58754011Y-46302888D01*
X58763800Y-46291859D01*
X58887317Y-46168342D01*
X58979356Y-46019124D01*
X58979358Y-46019119D01*
X59034505Y-45852697D01*
X59034506Y-45852690D01*
X59044999Y-45749986D01*
X59045000Y-45749973D01*
X59045000Y-45700000D01*
X57944000Y-45700000D01*
X57935314Y-45697449D01*
X57926353Y-45698738D01*
X57902312Y-45687759D01*
X57876961Y-45680315D01*
X57871033Y-45673474D01*
X57862797Y-45669713D01*
X57848507Y-45647478D01*
X57831206Y-45627511D01*
X57828918Y-45616996D01*
X57825023Y-45610935D01*
X57820000Y-45576000D01*
X57820000Y-45360307D01*
X57839685Y-45293268D01*
X57892489Y-45247513D01*
X57919805Y-45238690D01*
X57986693Y-45225386D01*
X58020761Y-45211274D01*
X58025192Y-45209439D01*
X58072645Y-45200000D01*
X59044999Y-45200000D01*
X59044999Y-45150028D01*
X59044998Y-45150013D01*
X59044190Y-45142102D01*
X59056959Y-45073409D01*
X59104840Y-45022525D01*
X59167548Y-45005500D01*
X62501172Y-45005500D01*
X62528093Y-45013405D01*
G37*
%TD.AperFunction*%
%TA.AperFunction,Conductor*%
G36*
X64289878Y-41600185D02*
G01*
X64335633Y-41652989D01*
X64345577Y-41722147D01*
X64316552Y-41785703D01*
X64310520Y-41792181D01*
X63471031Y-42631669D01*
X63409708Y-42665154D01*
X63340016Y-42660170D01*
X63284083Y-42618298D01*
X63272865Y-42600282D01*
X63256749Y-42568652D01*
X63224362Y-42524077D01*
X63224362Y-42524076D01*
X62544888Y-43203551D01*
X62544888Y-43197339D01*
X62517629Y-43095606D01*
X62464968Y-43004394D01*
X62390494Y-42929920D01*
X62299282Y-42877259D01*
X62197549Y-42850000D01*
X62191334Y-42850000D01*
X62394289Y-42647044D01*
X62455612Y-42613559D01*
X62457630Y-42613138D01*
X62540364Y-42596681D01*
X62658747Y-42547645D01*
X62765289Y-42476456D01*
X62855896Y-42385849D01*
X62927085Y-42279307D01*
X62976121Y-42160924D01*
X62976122Y-42160914D01*
X62977890Y-42155092D01*
X62980057Y-42155749D01*
X63007757Y-42102805D01*
X63068475Y-42068235D01*
X63096983Y-42064914D01*
X63505777Y-42064914D01*
X63505779Y-42064914D01*
X63649222Y-42026479D01*
X63777830Y-41952227D01*
X63882839Y-41847218D01*
X63882839Y-41847216D01*
X63893040Y-41837016D01*
X63893043Y-41837011D01*
X64113238Y-41616816D01*
X64140170Y-41602111D01*
X64165983Y-41585523D01*
X64172183Y-41584631D01*
X64174560Y-41583334D01*
X64200918Y-41580500D01*
X64222839Y-41580500D01*
X64289878Y-41600185D01*
G37*
%TD.AperFunction*%
%TA.AperFunction,Conductor*%
G36*
X74323704Y-38209368D02*
G01*
X74328461Y-38213880D01*
X75705533Y-39590952D01*
X75739018Y-39652275D01*
X75741852Y-39678633D01*
X75741852Y-39994222D01*
X75739469Y-40018414D01*
X75718852Y-40122058D01*
X75718852Y-40122061D01*
X75718852Y-40250199D01*
X75718852Y-40250201D01*
X75718851Y-40250201D01*
X75743849Y-40375868D01*
X75743851Y-40375874D01*
X75792887Y-40494259D01*
X75793498Y-40495401D01*
X75793636Y-40496067D01*
X75795218Y-40499885D01*
X75794493Y-40500184D01*
X75807738Y-40563805D01*
X75782736Y-40629048D01*
X75771819Y-40641532D01*
X74885387Y-41527967D01*
X74717992Y-41695362D01*
X74693114Y-41720240D01*
X74630586Y-41782767D01*
X74630585Y-41782769D01*
X74561923Y-41885529D01*
X74561915Y-41885543D01*
X74553802Y-41905132D01*
X74514614Y-41999738D01*
X74514612Y-41999746D01*
X74491769Y-42114581D01*
X74491770Y-42114582D01*
X74490500Y-42120965D01*
X74490500Y-42306000D01*
X74470815Y-42373039D01*
X74418011Y-42418794D01*
X74366500Y-42430000D01*
X74162155Y-42430000D01*
X74102627Y-42436401D01*
X74102617Y-42436403D01*
X74074694Y-42446818D01*
X74056911Y-42448089D01*
X74040210Y-42454319D01*
X74022789Y-42450529D01*
X74005003Y-42451801D01*
X73989354Y-42443256D01*
X73971937Y-42439467D01*
X73943683Y-42418316D01*
X73907903Y-42382536D01*
X73639959Y-42114591D01*
X73639958Y-42114590D01*
X73612953Y-42096546D01*
X73612950Y-42096544D01*
X73609286Y-42094096D01*
X73537181Y-42045917D01*
X73496325Y-42028994D01*
X73489152Y-42026022D01*
X73489149Y-42026021D01*
X73422983Y-41998614D01*
X73422975Y-41998612D01*
X73301755Y-41974500D01*
X73301751Y-41974500D01*
X70951051Y-41974500D01*
X70927090Y-41967464D01*
X70902295Y-41964512D01*
X70894146Y-41957790D01*
X70884012Y-41954815D01*
X70867661Y-41935945D01*
X70848395Y-41920054D01*
X70845173Y-41909992D01*
X70838257Y-41902011D01*
X70834702Y-41877293D01*
X70827088Y-41853512D01*
X70829455Y-41840802D01*
X70828313Y-41832853D01*
X70831260Y-41818466D01*
X70833366Y-41810588D01*
X70851385Y-41767088D01*
X70869927Y-41673872D01*
X70870964Y-41669995D01*
X70887121Y-41643457D01*
X70901522Y-41615927D01*
X70905137Y-41613868D01*
X70907300Y-41610316D01*
X70935240Y-41596726D01*
X70962238Y-41581353D01*
X70967024Y-41581267D01*
X70970132Y-41579756D01*
X70980766Y-41581022D01*
X71014944Y-41580412D01*
X71093059Y-41595950D01*
X71115930Y-41600500D01*
X71115931Y-41600500D01*
X71244070Y-41600500D01*
X71347715Y-41579883D01*
X71371907Y-41577500D01*
X71541804Y-41577500D01*
X71541805Y-41577499D01*
X71663035Y-41553386D01*
X71746804Y-41518687D01*
X71777233Y-41506083D01*
X71880008Y-41437411D01*
X71967411Y-41350008D01*
X72776760Y-40540657D01*
X72838081Y-40507174D01*
X72877042Y-40504982D01*
X72877200Y-40504998D01*
X72877203Y-40504999D01*
X72979991Y-40515500D01*
X73580008Y-40515499D01*
X73580016Y-40515498D01*
X73580019Y-40515498D01*
X73636302Y-40509748D01*
X73682797Y-40504999D01*
X73849334Y-40449814D01*
X73998656Y-40357712D01*
X74062509Y-40293858D01*
X74123829Y-40260374D01*
X74193521Y-40265358D01*
X74197592Y-40266959D01*
X74240256Y-40284631D01*
X74240260Y-40284631D01*
X74240261Y-40284632D01*
X74365928Y-40309630D01*
X74365931Y-40309630D01*
X74494071Y-40309630D01*
X74578615Y-40292812D01*
X74619744Y-40284631D01*
X74738127Y-40235595D01*
X74844669Y-40164406D01*
X74935276Y-40073799D01*
X75006465Y-39967257D01*
X75055501Y-39848874D01*
X75069515Y-39778424D01*
X75080500Y-39723201D01*
X75080500Y-39595058D01*
X75055502Y-39469391D01*
X75055501Y-39469390D01*
X75055501Y-39469386D01*
X75006465Y-39351003D01*
X75006464Y-39351002D01*
X75006461Y-39350996D01*
X74935276Y-39244461D01*
X74935273Y-39244457D01*
X74844672Y-39153856D01*
X74844668Y-39153853D01*
X74756798Y-39095140D01*
X74738008Y-39079719D01*
X74460880Y-38802591D01*
X74460875Y-38802587D01*
X74452807Y-38797196D01*
X74358109Y-38733920D01*
X74358100Y-38733915D01*
X74335936Y-38724735D01*
X74281533Y-38680894D01*
X74265683Y-38649178D01*
X74261098Y-38635342D01*
X74214814Y-38495666D01*
X74135240Y-38366655D01*
X74116801Y-38299265D01*
X74137724Y-38232602D01*
X74191366Y-38187832D01*
X74260696Y-38179171D01*
X74323704Y-38209368D01*
G37*
%TD.AperFunction*%
%TA.AperFunction,Conductor*%
G36*
X69715366Y-39778424D02*
G01*
X69746559Y-39840945D01*
X69748500Y-39862801D01*
X69748500Y-40144421D01*
X69728815Y-40211460D01*
X69727603Y-40213311D01*
X69691916Y-40266720D01*
X69644615Y-40380914D01*
X69644613Y-40380920D01*
X69620500Y-40502143D01*
X69620500Y-41272772D01*
X69600815Y-41339811D01*
X69584181Y-41360453D01*
X69054453Y-41890181D01*
X68993130Y-41923666D01*
X68966772Y-41926500D01*
X68244949Y-41926500D01*
X68121343Y-41926500D01*
X68096088Y-41931523D01*
X68028071Y-41945052D01*
X67958479Y-41938823D01*
X67903302Y-41895960D01*
X67880059Y-41830070D01*
X67880074Y-41816518D01*
X67880788Y-41803726D01*
X67892053Y-41761688D01*
X67892053Y-41613183D01*
X67892052Y-41613179D01*
X67892052Y-40942248D01*
X67892052Y-40934120D01*
X67894397Y-40934120D01*
X67903298Y-40876969D01*
X67927798Y-40842119D01*
X68950600Y-39819318D01*
X69011923Y-39785833D01*
X69038281Y-39782999D01*
X69400002Y-39782999D01*
X69400008Y-39782999D01*
X69502797Y-39772499D01*
X69585496Y-39745094D01*
X69655324Y-39742693D01*
X69715366Y-39778424D01*
G37*
%TD.AperFunction*%
%TA.AperFunction,Conductor*%
G36*
X64685454Y-38927185D02*
G01*
X64728900Y-38975205D01*
X64746762Y-39010261D01*
X64776657Y-39068933D01*
X64915483Y-39260010D01*
X65082490Y-39427017D01*
X65273567Y-39565843D01*
X65369393Y-39614669D01*
X65484003Y-39673066D01*
X65484005Y-39673066D01*
X65484008Y-39673068D01*
X65588917Y-39707155D01*
X65700986Y-39743569D01*
X65758661Y-39783007D01*
X65785859Y-39847366D01*
X65773944Y-39916212D01*
X65726700Y-39967688D01*
X65662667Y-39985500D01*
X64385308Y-39985500D01*
X64371697Y-39981503D01*
X64357535Y-39982350D01*
X64338837Y-39971854D01*
X64318269Y-39965815D01*
X64307789Y-39954426D01*
X64296608Y-39948150D01*
X64282913Y-39927393D01*
X64275788Y-39919650D01*
X64188368Y-39755004D01*
X64183337Y-39730502D01*
X64174318Y-39707172D01*
X64176431Y-39696866D01*
X64174316Y-39686562D01*
X64183330Y-39663231D01*
X64188356Y-39638727D01*
X64199493Y-39621396D01*
X64199497Y-39621388D01*
X64199501Y-39621384D01*
X64199514Y-39621365D01*
X64218844Y-39596174D01*
X64218845Y-39596172D01*
X64275520Y-39459345D01*
X64275521Y-39459340D01*
X64286626Y-39375000D01*
X63735000Y-39375000D01*
X63735000Y-39424802D01*
X63744666Y-39442504D01*
X63747500Y-39468862D01*
X63747500Y-39862500D01*
X63727815Y-39929539D01*
X63675011Y-39975294D01*
X63623500Y-39986500D01*
X63609000Y-39986500D01*
X63541961Y-39966815D01*
X63496206Y-39914011D01*
X63485000Y-39862500D01*
X63485000Y-39374000D01*
X63487550Y-39365314D01*
X63486262Y-39356353D01*
X63497240Y-39332312D01*
X63504685Y-39306961D01*
X63511525Y-39301033D01*
X63515287Y-39292797D01*
X63537521Y-39278507D01*
X63557489Y-39261206D01*
X63568003Y-39258918D01*
X63574065Y-39255023D01*
X63609000Y-39250000D01*
X63610000Y-39250000D01*
X63610000Y-39249000D01*
X63629685Y-39181961D01*
X63682489Y-39136206D01*
X63734000Y-39125000D01*
X64286626Y-39125000D01*
X64276447Y-39047686D01*
X64279082Y-39030784D01*
X64276648Y-39013853D01*
X64284353Y-38996979D01*
X64287212Y-38978651D01*
X64298566Y-38965857D01*
X64305673Y-38950297D01*
X64321279Y-38940267D01*
X64333592Y-38926395D01*
X64350357Y-38921580D01*
X64364451Y-38912523D01*
X64399386Y-38907500D01*
X64618415Y-38907500D01*
X64685454Y-38927185D01*
G37*
%TD.AperFunction*%
%TA.AperFunction,Conductor*%
G36*
X71381325Y-37756256D02*
G01*
X71401744Y-37757137D01*
X71425403Y-37769199D01*
X71428756Y-37770184D01*
X71431205Y-37772157D01*
X71433187Y-37773168D01*
X71441880Y-37779299D01*
X71469992Y-37807411D01*
X71572767Y-37876083D01*
X71588114Y-37882440D01*
X71599386Y-37890390D01*
X71642824Y-37945115D01*
X71649780Y-38014638D01*
X71630000Y-38053435D01*
X71630000Y-39166000D01*
X71610315Y-39233039D01*
X71557511Y-39278794D01*
X71506000Y-39290000D01*
X71254000Y-39290000D01*
X71186961Y-39270315D01*
X71141206Y-39217511D01*
X71130000Y-39166000D01*
X71130000Y-38065000D01*
X71129999Y-38064999D01*
X71127502Y-38065000D01*
X71060462Y-38045317D01*
X71014707Y-37992514D01*
X71003500Y-37941000D01*
X71003500Y-37874499D01*
X71023185Y-37807460D01*
X71075989Y-37761705D01*
X71127496Y-37750499D01*
X71361717Y-37750499D01*
X71381325Y-37756256D01*
G37*
%TD.AperFunction*%
%TA.AperFunction,Conductor*%
G36*
X70327833Y-34770185D02*
G01*
X70373588Y-34822989D01*
X70384152Y-34887103D01*
X70375000Y-34976677D01*
X70375000Y-35000000D01*
X71226000Y-35000000D01*
X71293039Y-35019685D01*
X71338794Y-35072489D01*
X71350000Y-35124000D01*
X71350000Y-35376000D01*
X71330315Y-35443039D01*
X71277511Y-35488794D01*
X71226000Y-35500000D01*
X70375001Y-35500000D01*
X70375001Y-35523322D01*
X70385144Y-35622607D01*
X70438452Y-35783481D01*
X70438457Y-35783492D01*
X70527424Y-35927728D01*
X70527427Y-35927732D01*
X70536660Y-35936965D01*
X70570145Y-35998288D01*
X70565161Y-36067980D01*
X70536663Y-36112324D01*
X70527033Y-36121953D01*
X70527029Y-36121959D01*
X70437998Y-36266299D01*
X70437998Y-36266300D01*
X70405967Y-36362961D01*
X70375942Y-36411637D01*
X69975992Y-36811589D01*
X69975991Y-36811590D01*
X69906004Y-36881575D01*
X69844680Y-36915060D01*
X69774989Y-36910074D01*
X69753232Y-36899434D01*
X69669334Y-36847686D01*
X69502797Y-36792501D01*
X69502795Y-36792500D01*
X69400010Y-36782000D01*
X67799998Y-36782000D01*
X67799981Y-36782001D01*
X67697203Y-36792500D01*
X67697200Y-36792501D01*
X67530668Y-36847685D01*
X67530663Y-36847687D01*
X67381342Y-36939789D01*
X67257287Y-37063844D01*
X67227487Y-37112158D01*
X67175539Y-37158882D01*
X67106576Y-37170103D01*
X67042494Y-37142259D01*
X67041241Y-37141114D01*
X67041214Y-37141147D01*
X67037517Y-37137990D01*
X67037510Y-37137983D01*
X66846433Y-36999157D01*
X66793386Y-36972128D01*
X66635996Y-36891933D01*
X66411368Y-36818946D01*
X66178097Y-36782000D01*
X66178092Y-36782000D01*
X65941908Y-36782000D01*
X65941903Y-36782000D01*
X65708631Y-36818946D01*
X65484003Y-36891933D01*
X65273566Y-36999157D01*
X65184533Y-37063844D01*
X65082490Y-37137983D01*
X65082488Y-37137985D01*
X65082487Y-37137985D01*
X64915485Y-37304987D01*
X64915485Y-37304988D01*
X64915483Y-37304990D01*
X64855862Y-37387050D01*
X64776657Y-37496066D01*
X64772064Y-37505081D01*
X64733886Y-37580011D01*
X64731448Y-37584795D01*
X64683473Y-37635591D01*
X64620963Y-37652500D01*
X64103975Y-37652500D01*
X64036936Y-37632815D01*
X63991181Y-37580011D01*
X63981237Y-37510853D01*
X63986267Y-37489503D01*
X64014999Y-37402797D01*
X64025500Y-37300009D01*
X64025499Y-36699992D01*
X64021664Y-36662454D01*
X64014999Y-36597203D01*
X64014998Y-36597200D01*
X63989251Y-36519501D01*
X63959814Y-36430666D01*
X63867712Y-36281344D01*
X63743656Y-36157288D01*
X63740342Y-36155243D01*
X63738546Y-36153248D01*
X63737989Y-36152807D01*
X63738064Y-36152711D01*
X63693618Y-36103297D01*
X63682397Y-36034334D01*
X63710240Y-35970252D01*
X63740348Y-35944165D01*
X63743342Y-35942318D01*
X63867315Y-35818345D01*
X63959356Y-35669124D01*
X63959358Y-35669119D01*
X64014505Y-35502697D01*
X64014506Y-35502690D01*
X64024999Y-35399986D01*
X64025000Y-35399973D01*
X64025000Y-35350000D01*
X62924000Y-35350000D01*
X62856961Y-35330315D01*
X62811206Y-35277511D01*
X62800000Y-35226000D01*
X62800000Y-34974000D01*
X62819685Y-34906961D01*
X62872489Y-34861206D01*
X62924000Y-34850000D01*
X64024999Y-34850000D01*
X64035183Y-34839815D01*
X64044684Y-34807461D01*
X64097488Y-34761706D01*
X64148999Y-34750500D01*
X70260794Y-34750500D01*
X70327833Y-34770185D01*
G37*
%TD.AperFunction*%
%TA.AperFunction,Conductor*%
G36*
X74632080Y-34770185D02*
G01*
X74677835Y-34822989D01*
X74687779Y-34892147D01*
X74681223Y-34917832D01*
X74645910Y-35012511D01*
X74645909Y-35012515D01*
X74645909Y-35012517D01*
X74639500Y-35072127D01*
X74639500Y-35072134D01*
X74639500Y-35072135D01*
X74639500Y-35767870D01*
X74639501Y-35767876D01*
X74645908Y-35827481D01*
X74655196Y-35852383D01*
X74660179Y-35922074D01*
X74655196Y-35939044D01*
X74646402Y-35962623D01*
X74646401Y-35962624D01*
X74640000Y-36022155D01*
X74640000Y-36120000D01*
X74797893Y-36120000D01*
X74864932Y-36139685D01*
X74872204Y-36144733D01*
X74888975Y-36157288D01*
X74897668Y-36163795D01*
X74897671Y-36163797D01*
X74942618Y-36180561D01*
X75032517Y-36214091D01*
X75092127Y-36220500D01*
X75566002Y-36220499D01*
X75574686Y-36223049D01*
X75583647Y-36221761D01*
X75607683Y-36232738D01*
X75633039Y-36240183D01*
X75638967Y-36247025D01*
X75647203Y-36250786D01*
X75661489Y-36273017D01*
X75678794Y-36292987D01*
X75681081Y-36303502D01*
X75684977Y-36309564D01*
X75690000Y-36344499D01*
X75690000Y-36395500D01*
X75670315Y-36462539D01*
X75617511Y-36508294D01*
X75566000Y-36519500D01*
X75092129Y-36519500D01*
X75092123Y-36519501D01*
X75032516Y-36525908D01*
X74897671Y-36576202D01*
X74897668Y-36576204D01*
X74872204Y-36595267D01*
X74854981Y-36601690D01*
X74840170Y-36612570D01*
X74813019Y-36617341D01*
X74806739Y-36619684D01*
X74805616Y-36619759D01*
X74582432Y-36633687D01*
X74557190Y-36627955D01*
X74531371Y-36626108D01*
X74521710Y-36619899D01*
X74514297Y-36618216D01*
X74506093Y-36609862D01*
X74487028Y-36597609D01*
X74076818Y-36187399D01*
X74043333Y-36126076D01*
X74040499Y-36099718D01*
X74040499Y-36022129D01*
X74040498Y-36022123D01*
X74040137Y-36018767D01*
X74034091Y-35962517D01*
X74025070Y-35938333D01*
X74020085Y-35868644D01*
X74025066Y-35851677D01*
X74034091Y-35827483D01*
X74040500Y-35767873D01*
X74040499Y-35072128D01*
X74034091Y-35012517D01*
X74012901Y-34955703D01*
X73998777Y-34917832D01*
X73993793Y-34848141D01*
X74027279Y-34786818D01*
X74088602Y-34753334D01*
X74114959Y-34750500D01*
X74565041Y-34750500D01*
X74632080Y-34770185D01*
G37*
%TD.AperFunction*%
%TD*%
M02*
