M48
; DRILL file {KiCad 9.0.4} date 2026-05-04T00:40:09-0700
; FORMAT={-:-/ absolute / inch / decimal}
; #@! TF.CreationDate,2026-05-04T00:40:09-07:00
; #@! TF.GenerationSoftware,Kicad,Pcbnew,9.0.4
; #@! TF.FileFunction,Plated,1,2,PTH
FMAT,2
INCH
; #@! TA.AperFunction,Plated,PTH,ViaDrill
T1C0.0079
; #@! TA.AperFunction,Plated,PTH,ComponentDrill
T2C0.0315
; #@! TA.AperFunction,Plated,PTH,ComponentDrill
T3C0.0394
; #@! TA.AperFunction,Plated,PTH,ComponentDrill
T4C0.0472
%
G90
G05
T1
X2.1957Y-1.5433
X2.2106Y-1.7165
X2.2154Y-1.6949
X2.2236Y-1.6154
X2.224Y-1.5697
X2.2276Y-1.8433
X2.2391Y-2.0217
X2.2421Y-1.7319
X2.2724Y-2.0872
X2.2779Y-1.6692
X2.2811Y-1.9665
X2.3047Y-2.1173
X2.3075Y-1.6746
X2.3114Y-1.5874
X2.3115Y-1.488
X2.3244Y-2.0388
X2.3343Y-2.1579
X2.3375Y-1.9899
X2.3429Y-1.6075
X2.345Y-1.6377
X2.3472Y-1.9598
X2.3638Y-1.4677
X2.377Y-1.5893
X2.3772Y-1.613
X2.3846Y-1.8882
X2.3882Y-1.4272
X2.3933Y-1.7862
X2.4051Y-1.4717
X2.4108Y-1.6064
X2.426Y-1.3831
X2.4276Y-1.5547
X2.4291Y-1.8488
X2.4428Y-1.626
X2.4547Y-1.6524
X2.4748Y-1.8894
X2.5217Y-1.5791
X2.5744Y-1.9882
X2.5754Y-1.6597
X2.6323Y-1.6316
X2.6907Y-1.6243
X2.7358Y-1.5791
X2.7713Y-1.3882
X2.8024Y-1.498
X2.8024Y-1.6122
X2.9303Y-1.5614
X3.0067Y-1.5821
X3.024Y-1.435
X3.0469Y-1.7516
T2
X2.3679Y-1.7028
X2.4466Y-1.7028
X2.8469Y-1.7138
X2.9453Y-1.7138
T4
X2.6008Y-1.5072
X2.7008Y-1.5072
T3
G00X2.4646Y-2.0724
M15
G01X2.4646Y-1.9937
M16
G05
G00X2.622Y-1.848
M15
G01X2.5433Y-1.848
M16
G05
G00X2.7008Y-2.0724
M15
G01X2.7008Y-1.9937
M16
G05
M30
