%TF.GenerationSoftware,KiCad,Pcbnew,8.0.4*%
%TF.CreationDate,2025-06-18T18:59:25-07:00*%
%TF.ProjectId,Dyno_LED_PCB,44796e6f-5f4c-4454-945f-5043422e6b69,rev?*%
%TF.SameCoordinates,Original*%
%TF.FileFunction,Legend,Top*%
%TF.FilePolarity,Positive*%
%FSLAX46Y46*%
G04 Gerber Fmt 4.6, Leading zero omitted, Abs format (unit mm)*
G04 Created by KiCad (PCBNEW 8.0.4) date 2025-06-18 18:59:25*
%MOMM*%
%LPD*%
G01*
G04 APERTURE LIST*
%ADD10C,0.100000*%
%ADD11C,0.200000*%
%ADD12C,0.150000*%
%ADD13C,0.120000*%
G04 APERTURE END LIST*
D10*
X68000000Y-50000000D02*
X69500000Y-50000000D01*
X64500000Y-50000000D02*
X65500000Y-49500000D01*
X81500000Y-51500000D02*
X83000000Y-52000000D01*
X64500000Y-51500000D02*
X63000000Y-50000000D01*
X77500000Y-53000000D02*
X77000000Y-52000000D01*
X78000000Y-53000000D02*
X78000000Y-51500000D01*
X72500000Y-49000000D02*
X73500000Y-48500000D01*
X66000000Y-49000000D02*
X66000000Y-48500000D01*
X69500000Y-50000000D02*
X68000000Y-50000000D01*
X66500000Y-50000000D02*
X66000000Y-49000000D01*
X82500000Y-51000000D02*
X81500000Y-51500000D01*
X71000000Y-48000000D02*
X72000000Y-50000000D01*
X79000000Y-52500000D02*
X79500000Y-51500000D01*
X76500000Y-50500000D02*
X75500000Y-51500000D01*
X74500000Y-50500000D02*
X75500000Y-49000000D01*
X77500000Y-51500000D02*
X77500000Y-53000000D01*
X68000000Y-49250000D02*
X69500000Y-49000000D01*
X79500000Y-51500000D02*
X80000000Y-53000000D01*
X81000000Y-51000000D02*
X80250000Y-51750000D01*
X74000000Y-49000000D02*
X75000000Y-49750000D01*
X75500000Y-49000000D02*
X75000000Y-49750000D01*
X80000000Y-51000000D02*
X81000000Y-51000000D01*
X72000000Y-50000000D02*
X70500000Y-49000000D01*
X72500000Y-49000000D02*
X73500000Y-50000000D01*
X75500000Y-51500000D02*
X76000000Y-52000000D01*
X69500000Y-49000000D02*
X68000000Y-48500000D01*
X70000000Y-50000000D02*
X71000000Y-48000000D01*
X67000000Y-58000000D02*
X74000000Y-58000000D01*
X74000000Y-59000000D01*
X67000000Y-59000000D01*
X67000000Y-58000000D01*
G36*
X67000000Y-58000000D02*
G01*
X74000000Y-58000000D01*
X74000000Y-59000000D01*
X67000000Y-59000000D01*
X67000000Y-58000000D01*
G37*
X78000000Y-51500000D02*
X79000000Y-52500000D01*
X76500000Y-52500000D02*
X77500000Y-51500000D01*
X63000000Y-50000000D02*
X64500000Y-51500000D01*
X67000000Y-48500000D02*
X66250000Y-49500000D01*
X83000000Y-52000000D02*
X81500000Y-52500000D01*
X71500000Y-49000000D02*
X70500000Y-49000000D01*
X72500000Y-50000000D02*
X72500000Y-48000000D01*
X73500000Y-48500000D02*
X72500000Y-49000000D01*
X66000000Y-48500000D02*
X67000000Y-48500000D01*
X64500000Y-49000000D02*
X63000000Y-50000000D01*
X80500000Y-52500000D02*
X80000000Y-51000000D01*
X63750000Y-50750000D02*
X64500000Y-50000000D01*
X67500000Y-50000000D02*
X66250000Y-49500000D01*
X68000000Y-48500000D02*
X68000000Y-50000000D01*
X78606778Y-55861639D02*
X79114778Y-55740687D01*
X79114778Y-55740687D02*
X78751921Y-55643925D01*
X78751921Y-55643925D02*
X79114778Y-55547163D01*
X79114778Y-55547163D02*
X78606778Y-55426211D01*
X79114778Y-55232687D02*
X78606778Y-55232687D01*
X79114778Y-55014973D02*
X78848683Y-55014973D01*
X78848683Y-55014973D02*
X78800302Y-55039163D01*
X78800302Y-55039163D02*
X78776111Y-55087544D01*
X78776111Y-55087544D02*
X78776111Y-55160116D01*
X78776111Y-55160116D02*
X78800302Y-55208497D01*
X78800302Y-55208497D02*
X78824492Y-55232687D01*
X79114778Y-54773068D02*
X78776111Y-54773068D01*
X78606778Y-54773068D02*
X78630968Y-54797259D01*
X78630968Y-54797259D02*
X78655159Y-54773068D01*
X78655159Y-54773068D02*
X78630968Y-54748878D01*
X78630968Y-54748878D02*
X78606778Y-54773068D01*
X78606778Y-54773068D02*
X78655159Y-54773068D01*
X78776111Y-54603735D02*
X78776111Y-54410211D01*
X78606778Y-54531163D02*
X79042207Y-54531163D01*
X79042207Y-54531163D02*
X79090588Y-54506973D01*
X79090588Y-54506973D02*
X79114778Y-54458592D01*
X79114778Y-54458592D02*
X79114778Y-54410211D01*
X79090588Y-54047353D02*
X79114778Y-54095734D01*
X79114778Y-54095734D02*
X79114778Y-54192496D01*
X79114778Y-54192496D02*
X79090588Y-54240877D01*
X79090588Y-54240877D02*
X79042207Y-54265068D01*
X79042207Y-54265068D02*
X78848683Y-54265068D01*
X78848683Y-54265068D02*
X78800302Y-54240877D01*
X78800302Y-54240877D02*
X78776111Y-54192496D01*
X78776111Y-54192496D02*
X78776111Y-54095734D01*
X78776111Y-54095734D02*
X78800302Y-54047353D01*
X78800302Y-54047353D02*
X78848683Y-54023163D01*
X78848683Y-54023163D02*
X78897064Y-54023163D01*
X78897064Y-54023163D02*
X78945445Y-54265068D01*
X79114778Y-53176495D02*
X79114778Y-53418400D01*
X79114778Y-53418400D02*
X78606778Y-53418400D01*
X78848683Y-53007162D02*
X78848683Y-52837829D01*
X79114778Y-52765257D02*
X79114778Y-53007162D01*
X79114778Y-53007162D02*
X78606778Y-53007162D01*
X78606778Y-53007162D02*
X78606778Y-52765257D01*
X79114778Y-52547543D02*
X78606778Y-52547543D01*
X78606778Y-52547543D02*
X78606778Y-52426591D01*
X78606778Y-52426591D02*
X78630968Y-52354019D01*
X78630968Y-52354019D02*
X78679349Y-52305638D01*
X78679349Y-52305638D02*
X78727730Y-52281448D01*
X78727730Y-52281448D02*
X78824492Y-52257257D01*
X78824492Y-52257257D02*
X78897064Y-52257257D01*
X78897064Y-52257257D02*
X78993826Y-52281448D01*
X78993826Y-52281448D02*
X79042207Y-52305638D01*
X79042207Y-52305638D02*
X79090588Y-52354019D01*
X79090588Y-52354019D02*
X79114778Y-52426591D01*
X79114778Y-52426591D02*
X79114778Y-52547543D01*
X79424630Y-55668115D02*
X79787487Y-55668115D01*
X79787487Y-55668115D02*
X79860059Y-55692306D01*
X79860059Y-55692306D02*
X79908440Y-55740687D01*
X79908440Y-55740687D02*
X79932630Y-55813258D01*
X79932630Y-55813258D02*
X79932630Y-55861639D01*
X79424630Y-55426210D02*
X79835868Y-55426210D01*
X79835868Y-55426210D02*
X79884249Y-55402020D01*
X79884249Y-55402020D02*
X79908440Y-55377829D01*
X79908440Y-55377829D02*
X79932630Y-55329448D01*
X79932630Y-55329448D02*
X79932630Y-55232686D01*
X79932630Y-55232686D02*
X79908440Y-55184305D01*
X79908440Y-55184305D02*
X79884249Y-55160115D01*
X79884249Y-55160115D02*
X79835868Y-55135924D01*
X79835868Y-55135924D02*
X79424630Y-55135924D01*
X79932630Y-54894020D02*
X79424630Y-54894020D01*
X79424630Y-54894020D02*
X79787487Y-54724687D01*
X79787487Y-54724687D02*
X79424630Y-54555353D01*
X79424630Y-54555353D02*
X79932630Y-54555353D01*
X79932630Y-54313449D02*
X79424630Y-54313449D01*
X79424630Y-54313449D02*
X79424630Y-54119925D01*
X79424630Y-54119925D02*
X79448820Y-54071544D01*
X79448820Y-54071544D02*
X79473011Y-54047354D01*
X79473011Y-54047354D02*
X79521392Y-54023163D01*
X79521392Y-54023163D02*
X79593963Y-54023163D01*
X79593963Y-54023163D02*
X79642344Y-54047354D01*
X79642344Y-54047354D02*
X79666535Y-54071544D01*
X79666535Y-54071544D02*
X79690725Y-54119925D01*
X79690725Y-54119925D02*
X79690725Y-54313449D01*
X79666535Y-53805449D02*
X79666535Y-53636116D01*
X79932630Y-53563544D02*
X79932630Y-53805449D01*
X79932630Y-53805449D02*
X79424630Y-53805449D01*
X79424630Y-53805449D02*
X79424630Y-53563544D01*
X79932630Y-53055544D02*
X79690725Y-53224878D01*
X79932630Y-53345830D02*
X79424630Y-53345830D01*
X79424630Y-53345830D02*
X79424630Y-53152306D01*
X79424630Y-53152306D02*
X79448820Y-53103925D01*
X79448820Y-53103925D02*
X79473011Y-53079735D01*
X79473011Y-53079735D02*
X79521392Y-53055544D01*
X79521392Y-53055544D02*
X79593963Y-53055544D01*
X79593963Y-53055544D02*
X79642344Y-53079735D01*
X79642344Y-53079735D02*
X79666535Y-53103925D01*
X79666535Y-53103925D02*
X79690725Y-53152306D01*
X79690725Y-53152306D02*
X79690725Y-53345830D01*
X74424630Y-54361639D02*
X74932630Y-54240687D01*
X74932630Y-54240687D02*
X74569773Y-54143925D01*
X74569773Y-54143925D02*
X74932630Y-54047163D01*
X74932630Y-54047163D02*
X74424630Y-53926211D01*
X74932630Y-53732687D02*
X74424630Y-53732687D01*
X74932630Y-53514973D02*
X74666535Y-53514973D01*
X74666535Y-53514973D02*
X74618154Y-53539163D01*
X74618154Y-53539163D02*
X74593963Y-53587544D01*
X74593963Y-53587544D02*
X74593963Y-53660116D01*
X74593963Y-53660116D02*
X74618154Y-53708497D01*
X74618154Y-53708497D02*
X74642344Y-53732687D01*
X74932630Y-53273068D02*
X74593963Y-53273068D01*
X74424630Y-53273068D02*
X74448820Y-53297259D01*
X74448820Y-53297259D02*
X74473011Y-53273068D01*
X74473011Y-53273068D02*
X74448820Y-53248878D01*
X74448820Y-53248878D02*
X74424630Y-53273068D01*
X74424630Y-53273068D02*
X74473011Y-53273068D01*
X74593963Y-53103735D02*
X74593963Y-52910211D01*
X74424630Y-53031163D02*
X74860059Y-53031163D01*
X74860059Y-53031163D02*
X74908440Y-53006973D01*
X74908440Y-53006973D02*
X74932630Y-52958592D01*
X74932630Y-52958592D02*
X74932630Y-52910211D01*
X74908440Y-52547353D02*
X74932630Y-52595734D01*
X74932630Y-52595734D02*
X74932630Y-52692496D01*
X74932630Y-52692496D02*
X74908440Y-52740877D01*
X74908440Y-52740877D02*
X74860059Y-52765068D01*
X74860059Y-52765068D02*
X74666535Y-52765068D01*
X74666535Y-52765068D02*
X74618154Y-52740877D01*
X74618154Y-52740877D02*
X74593963Y-52692496D01*
X74593963Y-52692496D02*
X74593963Y-52595734D01*
X74593963Y-52595734D02*
X74618154Y-52547353D01*
X74618154Y-52547353D02*
X74666535Y-52523163D01*
X74666535Y-52523163D02*
X74714916Y-52523163D01*
X74714916Y-52523163D02*
X74763297Y-52765068D01*
X74932630Y-51676495D02*
X74932630Y-51918400D01*
X74932630Y-51918400D02*
X74424630Y-51918400D01*
X74666535Y-51507162D02*
X74666535Y-51337829D01*
X74932630Y-51265257D02*
X74932630Y-51507162D01*
X74932630Y-51507162D02*
X74424630Y-51507162D01*
X74424630Y-51507162D02*
X74424630Y-51265257D01*
X74932630Y-51047543D02*
X74424630Y-51047543D01*
X74424630Y-51047543D02*
X74424630Y-50926591D01*
X74424630Y-50926591D02*
X74448820Y-50854019D01*
X74448820Y-50854019D02*
X74497201Y-50805638D01*
X74497201Y-50805638D02*
X74545582Y-50781448D01*
X74545582Y-50781448D02*
X74642344Y-50757257D01*
X74642344Y-50757257D02*
X74714916Y-50757257D01*
X74714916Y-50757257D02*
X74811678Y-50781448D01*
X74811678Y-50781448D02*
X74860059Y-50805638D01*
X74860059Y-50805638D02*
X74908440Y-50854019D01*
X74908440Y-50854019D02*
X74932630Y-50926591D01*
X74932630Y-50926591D02*
X74932630Y-51047543D01*
X64932630Y-54022972D02*
X64690725Y-54192306D01*
X64932630Y-54313258D02*
X64424630Y-54313258D01*
X64424630Y-54313258D02*
X64424630Y-54119734D01*
X64424630Y-54119734D02*
X64448820Y-54071353D01*
X64448820Y-54071353D02*
X64473011Y-54047163D01*
X64473011Y-54047163D02*
X64521392Y-54022972D01*
X64521392Y-54022972D02*
X64593963Y-54022972D01*
X64593963Y-54022972D02*
X64642344Y-54047163D01*
X64642344Y-54047163D02*
X64666535Y-54071353D01*
X64666535Y-54071353D02*
X64690725Y-54119734D01*
X64690725Y-54119734D02*
X64690725Y-54313258D01*
X64908440Y-53611734D02*
X64932630Y-53660115D01*
X64932630Y-53660115D02*
X64932630Y-53756877D01*
X64932630Y-53756877D02*
X64908440Y-53805258D01*
X64908440Y-53805258D02*
X64860059Y-53829449D01*
X64860059Y-53829449D02*
X64666535Y-53829449D01*
X64666535Y-53829449D02*
X64618154Y-53805258D01*
X64618154Y-53805258D02*
X64593963Y-53756877D01*
X64593963Y-53756877D02*
X64593963Y-53660115D01*
X64593963Y-53660115D02*
X64618154Y-53611734D01*
X64618154Y-53611734D02*
X64666535Y-53587544D01*
X64666535Y-53587544D02*
X64714916Y-53587544D01*
X64714916Y-53587544D02*
X64763297Y-53829449D01*
X64932630Y-53152115D02*
X64424630Y-53152115D01*
X64908440Y-53152115D02*
X64932630Y-53200496D01*
X64932630Y-53200496D02*
X64932630Y-53297258D01*
X64932630Y-53297258D02*
X64908440Y-53345639D01*
X64908440Y-53345639D02*
X64884249Y-53369829D01*
X64884249Y-53369829D02*
X64835868Y-53394020D01*
X64835868Y-53394020D02*
X64690725Y-53394020D01*
X64690725Y-53394020D02*
X64642344Y-53369829D01*
X64642344Y-53369829D02*
X64618154Y-53345639D01*
X64618154Y-53345639D02*
X64593963Y-53297258D01*
X64593963Y-53297258D02*
X64593963Y-53200496D01*
X64593963Y-53200496D02*
X64618154Y-53152115D01*
X64932630Y-52281257D02*
X64932630Y-52523162D01*
X64932630Y-52523162D02*
X64424630Y-52523162D01*
X64666535Y-52111924D02*
X64666535Y-51942591D01*
X64932630Y-51870019D02*
X64932630Y-52111924D01*
X64932630Y-52111924D02*
X64424630Y-52111924D01*
X64424630Y-52111924D02*
X64424630Y-51870019D01*
X64932630Y-51652305D02*
X64424630Y-51652305D01*
X64424630Y-51652305D02*
X64424630Y-51531353D01*
X64424630Y-51531353D02*
X64448820Y-51458781D01*
X64448820Y-51458781D02*
X64497201Y-51410400D01*
X64497201Y-51410400D02*
X64545582Y-51386210D01*
X64545582Y-51386210D02*
X64642344Y-51362019D01*
X64642344Y-51362019D02*
X64714916Y-51362019D01*
X64714916Y-51362019D02*
X64811678Y-51386210D01*
X64811678Y-51386210D02*
X64860059Y-51410400D01*
X64860059Y-51410400D02*
X64908440Y-51458781D01*
X64908440Y-51458781D02*
X64932630Y-51531353D01*
X64932630Y-51531353D02*
X64932630Y-51652305D01*
X69186741Y-36114778D02*
X69186741Y-35606778D01*
X69186741Y-35606778D02*
X69307693Y-35606778D01*
X69307693Y-35606778D02*
X69380265Y-35630968D01*
X69380265Y-35630968D02*
X69428646Y-35679349D01*
X69428646Y-35679349D02*
X69452836Y-35727730D01*
X69452836Y-35727730D02*
X69477027Y-35824492D01*
X69477027Y-35824492D02*
X69477027Y-35897064D01*
X69477027Y-35897064D02*
X69452836Y-35993826D01*
X69452836Y-35993826D02*
X69428646Y-36042207D01*
X69428646Y-36042207D02*
X69380265Y-36090588D01*
X69380265Y-36090588D02*
X69307693Y-36114778D01*
X69307693Y-36114778D02*
X69186741Y-36114778D01*
X69791503Y-35872873D02*
X69791503Y-36114778D01*
X69622169Y-35606778D02*
X69791503Y-35872873D01*
X69791503Y-35872873D02*
X69960836Y-35606778D01*
X70130170Y-36114778D02*
X70130170Y-35606778D01*
X70130170Y-35606778D02*
X70420456Y-36114778D01*
X70420456Y-36114778D02*
X70420456Y-35606778D01*
X70638169Y-35969635D02*
X70880074Y-35969635D01*
X70589788Y-36114778D02*
X70759122Y-35606778D01*
X70759122Y-35606778D02*
X70928455Y-36114778D01*
X71097789Y-36114778D02*
X71097789Y-35606778D01*
X71097789Y-35606778D02*
X71267122Y-35969635D01*
X71267122Y-35969635D02*
X71436456Y-35606778D01*
X71436456Y-35606778D02*
X71436456Y-36114778D01*
X71775122Y-35606778D02*
X71871884Y-35606778D01*
X71871884Y-35606778D02*
X71920265Y-35630968D01*
X71920265Y-35630968D02*
X71968646Y-35679349D01*
X71968646Y-35679349D02*
X71992836Y-35776111D01*
X71992836Y-35776111D02*
X71992836Y-35945445D01*
X71992836Y-35945445D02*
X71968646Y-36042207D01*
X71968646Y-36042207D02*
X71920265Y-36090588D01*
X71920265Y-36090588D02*
X71871884Y-36114778D01*
X71871884Y-36114778D02*
X71775122Y-36114778D01*
X71775122Y-36114778D02*
X71726741Y-36090588D01*
X71726741Y-36090588D02*
X71678360Y-36042207D01*
X71678360Y-36042207D02*
X71654169Y-35945445D01*
X71654169Y-35945445D02*
X71654169Y-35776111D01*
X71654169Y-35776111D02*
X71678360Y-35679349D01*
X71678360Y-35679349D02*
X71726741Y-35630968D01*
X71726741Y-35630968D02*
X71775122Y-35606778D01*
X69186741Y-36932630D02*
X69186741Y-36424630D01*
X69428646Y-36932630D02*
X69428646Y-36424630D01*
X69428646Y-36424630D02*
X69718932Y-36932630D01*
X69718932Y-36932630D02*
X69718932Y-36424630D01*
X69960836Y-36932630D02*
X69960836Y-36424630D01*
X69960836Y-36424630D02*
X70154360Y-36424630D01*
X70154360Y-36424630D02*
X70202741Y-36448820D01*
X70202741Y-36448820D02*
X70226931Y-36473011D01*
X70226931Y-36473011D02*
X70251122Y-36521392D01*
X70251122Y-36521392D02*
X70251122Y-36593963D01*
X70251122Y-36593963D02*
X70226931Y-36642344D01*
X70226931Y-36642344D02*
X70202741Y-36666535D01*
X70202741Y-36666535D02*
X70154360Y-36690725D01*
X70154360Y-36690725D02*
X69960836Y-36690725D01*
X70468836Y-36424630D02*
X70468836Y-36835868D01*
X70468836Y-36835868D02*
X70493026Y-36884249D01*
X70493026Y-36884249D02*
X70517217Y-36908440D01*
X70517217Y-36908440D02*
X70565598Y-36932630D01*
X70565598Y-36932630D02*
X70662360Y-36932630D01*
X70662360Y-36932630D02*
X70710741Y-36908440D01*
X70710741Y-36908440D02*
X70734931Y-36884249D01*
X70734931Y-36884249D02*
X70759122Y-36835868D01*
X70759122Y-36835868D02*
X70759122Y-36424630D01*
X70928454Y-36424630D02*
X71218740Y-36424630D01*
X71073597Y-36932630D02*
X71073597Y-36424630D01*
X61114778Y-54022972D02*
X60872873Y-54192306D01*
X61114778Y-54313258D02*
X60606778Y-54313258D01*
X60606778Y-54313258D02*
X60606778Y-54119734D01*
X60606778Y-54119734D02*
X60630968Y-54071353D01*
X60630968Y-54071353D02*
X60655159Y-54047163D01*
X60655159Y-54047163D02*
X60703540Y-54022972D01*
X60703540Y-54022972D02*
X60776111Y-54022972D01*
X60776111Y-54022972D02*
X60824492Y-54047163D01*
X60824492Y-54047163D02*
X60848683Y-54071353D01*
X60848683Y-54071353D02*
X60872873Y-54119734D01*
X60872873Y-54119734D02*
X60872873Y-54313258D01*
X61090588Y-53611734D02*
X61114778Y-53660115D01*
X61114778Y-53660115D02*
X61114778Y-53756877D01*
X61114778Y-53756877D02*
X61090588Y-53805258D01*
X61090588Y-53805258D02*
X61042207Y-53829449D01*
X61042207Y-53829449D02*
X60848683Y-53829449D01*
X60848683Y-53829449D02*
X60800302Y-53805258D01*
X60800302Y-53805258D02*
X60776111Y-53756877D01*
X60776111Y-53756877D02*
X60776111Y-53660115D01*
X60776111Y-53660115D02*
X60800302Y-53611734D01*
X60800302Y-53611734D02*
X60848683Y-53587544D01*
X60848683Y-53587544D02*
X60897064Y-53587544D01*
X60897064Y-53587544D02*
X60945445Y-53829449D01*
X61114778Y-53152115D02*
X60606778Y-53152115D01*
X61090588Y-53152115D02*
X61114778Y-53200496D01*
X61114778Y-53200496D02*
X61114778Y-53297258D01*
X61114778Y-53297258D02*
X61090588Y-53345639D01*
X61090588Y-53345639D02*
X61066397Y-53369829D01*
X61066397Y-53369829D02*
X61018016Y-53394020D01*
X61018016Y-53394020D02*
X60872873Y-53394020D01*
X60872873Y-53394020D02*
X60824492Y-53369829D01*
X60824492Y-53369829D02*
X60800302Y-53345639D01*
X60800302Y-53345639D02*
X60776111Y-53297258D01*
X60776111Y-53297258D02*
X60776111Y-53200496D01*
X60776111Y-53200496D02*
X60800302Y-53152115D01*
X61114778Y-52281257D02*
X61114778Y-52523162D01*
X61114778Y-52523162D02*
X60606778Y-52523162D01*
X60848683Y-52111924D02*
X60848683Y-51942591D01*
X61114778Y-51870019D02*
X61114778Y-52111924D01*
X61114778Y-52111924D02*
X60606778Y-52111924D01*
X60606778Y-52111924D02*
X60606778Y-51870019D01*
X61114778Y-51652305D02*
X60606778Y-51652305D01*
X60606778Y-51652305D02*
X60606778Y-51531353D01*
X60606778Y-51531353D02*
X60630968Y-51458781D01*
X60630968Y-51458781D02*
X60679349Y-51410400D01*
X60679349Y-51410400D02*
X60727730Y-51386210D01*
X60727730Y-51386210D02*
X60824492Y-51362019D01*
X60824492Y-51362019D02*
X60897064Y-51362019D01*
X60897064Y-51362019D02*
X60993826Y-51386210D01*
X60993826Y-51386210D02*
X61042207Y-51410400D01*
X61042207Y-51410400D02*
X61090588Y-51458781D01*
X61090588Y-51458781D02*
X61114778Y-51531353D01*
X61114778Y-51531353D02*
X61114778Y-51652305D01*
X61424630Y-54168115D02*
X61787487Y-54168115D01*
X61787487Y-54168115D02*
X61860059Y-54192306D01*
X61860059Y-54192306D02*
X61908440Y-54240687D01*
X61908440Y-54240687D02*
X61932630Y-54313258D01*
X61932630Y-54313258D02*
X61932630Y-54361639D01*
X61424630Y-53926210D02*
X61835868Y-53926210D01*
X61835868Y-53926210D02*
X61884249Y-53902020D01*
X61884249Y-53902020D02*
X61908440Y-53877829D01*
X61908440Y-53877829D02*
X61932630Y-53829448D01*
X61932630Y-53829448D02*
X61932630Y-53732686D01*
X61932630Y-53732686D02*
X61908440Y-53684305D01*
X61908440Y-53684305D02*
X61884249Y-53660115D01*
X61884249Y-53660115D02*
X61835868Y-53635924D01*
X61835868Y-53635924D02*
X61424630Y-53635924D01*
X61932630Y-53394020D02*
X61424630Y-53394020D01*
X61424630Y-53394020D02*
X61787487Y-53224687D01*
X61787487Y-53224687D02*
X61424630Y-53055353D01*
X61424630Y-53055353D02*
X61932630Y-53055353D01*
X61932630Y-52813449D02*
X61424630Y-52813449D01*
X61424630Y-52813449D02*
X61424630Y-52619925D01*
X61424630Y-52619925D02*
X61448820Y-52571544D01*
X61448820Y-52571544D02*
X61473011Y-52547354D01*
X61473011Y-52547354D02*
X61521392Y-52523163D01*
X61521392Y-52523163D02*
X61593963Y-52523163D01*
X61593963Y-52523163D02*
X61642344Y-52547354D01*
X61642344Y-52547354D02*
X61666535Y-52571544D01*
X61666535Y-52571544D02*
X61690725Y-52619925D01*
X61690725Y-52619925D02*
X61690725Y-52813449D01*
X61666535Y-52305449D02*
X61666535Y-52136116D01*
X61932630Y-52063544D02*
X61932630Y-52305449D01*
X61932630Y-52305449D02*
X61424630Y-52305449D01*
X61424630Y-52305449D02*
X61424630Y-52063544D01*
X61932630Y-51555544D02*
X61690725Y-51724878D01*
X61932630Y-51845830D02*
X61424630Y-51845830D01*
X61424630Y-51845830D02*
X61424630Y-51652306D01*
X61424630Y-51652306D02*
X61448820Y-51603925D01*
X61448820Y-51603925D02*
X61473011Y-51579735D01*
X61473011Y-51579735D02*
X61521392Y-51555544D01*
X61521392Y-51555544D02*
X61593963Y-51555544D01*
X61593963Y-51555544D02*
X61642344Y-51579735D01*
X61642344Y-51579735D02*
X61666535Y-51603925D01*
X61666535Y-51603925D02*
X61690725Y-51652306D01*
X61690725Y-51652306D02*
X61690725Y-51845830D01*
D11*
G36*
X65161688Y-55048918D02*
G01*
X65164752Y-55099634D01*
X65164863Y-55119993D01*
X65164315Y-55173669D01*
X65162883Y-55223446D01*
X65160562Y-55274614D01*
X65159246Y-55297801D01*
X65155393Y-55348910D01*
X65151674Y-55378157D01*
X65166573Y-55366189D01*
X65206873Y-55360083D01*
X65248590Y-55386237D01*
X65253524Y-55390614D01*
X65286177Y-55428246D01*
X65292114Y-55438729D01*
X65303334Y-55487227D01*
X65304082Y-55506873D01*
X65300445Y-55558610D01*
X65288184Y-55605900D01*
X65273307Y-55635101D01*
X65231859Y-55665392D01*
X65187822Y-55672226D01*
X65163154Y-55673691D01*
X65157048Y-55680286D01*
X65138729Y-55697627D01*
X65112840Y-55679309D01*
X65101360Y-55648534D01*
X65091835Y-55625575D01*
X65077424Y-55589916D01*
X65099406Y-55557187D01*
X65105512Y-55554989D01*
X65105512Y-55549127D01*
X65164863Y-55549127D01*
X65166787Y-55598128D01*
X65168283Y-55602861D01*
X65192951Y-55607257D01*
X65226413Y-55596510D01*
X65246685Y-55562072D01*
X65255966Y-55516643D01*
X65244899Y-55468329D01*
X65227634Y-55446301D01*
X65204919Y-55428715D01*
X65201988Y-55428715D01*
X65171649Y-55469287D01*
X65170237Y-55474877D01*
X65165288Y-55525282D01*
X65164863Y-55549127D01*
X65105512Y-55549127D01*
X65105512Y-55411130D01*
X65105487Y-55359408D01*
X65105372Y-55297512D01*
X65105166Y-55243691D01*
X65104780Y-55187770D01*
X65104127Y-55137320D01*
X65102581Y-55093614D01*
X65102581Y-55080669D01*
X65114507Y-55032813D01*
X65133112Y-55024982D01*
X65161688Y-55048918D01*
G37*
G36*
X65619644Y-55172016D02*
G01*
X65611584Y-55145150D01*
X65645278Y-55108061D01*
X65647487Y-55108025D01*
X65650662Y-55108025D01*
X65670690Y-55114863D01*
X65676308Y-55137578D01*
X65662142Y-55175191D01*
X65619644Y-55172016D01*
G37*
G36*
X65588136Y-55287787D02*
G01*
X65610851Y-55276796D01*
X65637570Y-55320374D01*
X65638450Y-55326378D01*
X65638939Y-55332484D01*
X65639672Y-55338101D01*
X65621949Y-55385317D01*
X65608164Y-55402337D01*
X65595952Y-55424075D01*
X65578352Y-55471976D01*
X65571772Y-55488555D01*
X65554255Y-55534253D01*
X65544905Y-55565736D01*
X65532205Y-55608722D01*
X65521651Y-55659122D01*
X65520237Y-55698115D01*
X65521458Y-55718387D01*
X65539288Y-55747941D01*
X65566643Y-55768457D01*
X65577145Y-55770411D01*
X65612593Y-55734883D01*
X65613782Y-55732554D01*
X65640404Y-55700069D01*
X65657257Y-55713014D01*
X65663607Y-55737438D01*
X65650418Y-55782379D01*
X65625017Y-55823412D01*
X65593998Y-55838311D01*
X65555408Y-55832449D01*
X65510188Y-55809783D01*
X65483112Y-55776273D01*
X65466015Y-55760397D01*
X65444521Y-55745987D01*
X65441346Y-55722784D01*
X65447452Y-55700069D01*
X65462962Y-55652038D01*
X65468213Y-55627529D01*
X65481988Y-55580636D01*
X65482623Y-55578681D01*
X65499805Y-55532353D01*
X65517185Y-55483747D01*
X65527564Y-55452407D01*
X65543875Y-55403538D01*
X65554187Y-55374494D01*
X65568960Y-55326754D01*
X65569330Y-55321004D01*
X65588136Y-55287787D01*
G37*
G36*
X65864619Y-55110223D02*
G01*
X65884159Y-55098011D01*
X65908583Y-55107292D01*
X65916399Y-55152233D01*
X65916399Y-55184961D01*
X65913600Y-55233801D01*
X65909316Y-55262386D01*
X65905163Y-55302930D01*
X65900691Y-55352149D01*
X65897836Y-55364968D01*
X65892463Y-55392568D01*
X65888066Y-55415771D01*
X65881228Y-55450453D01*
X65877320Y-55453872D01*
X65912405Y-55418079D01*
X65927145Y-55404047D01*
X65966097Y-55369338D01*
X66008194Y-55337333D01*
X66039497Y-55317341D01*
X66082834Y-55289625D01*
X66120830Y-55276796D01*
X66140858Y-55289986D01*
X66144277Y-55316852D01*
X66135675Y-55366033D01*
X66133042Y-55370341D01*
X66118632Y-55388171D01*
X66100069Y-55384263D01*
X66086392Y-55360572D01*
X66092742Y-55357152D01*
X66065387Y-55370586D01*
X66025044Y-55400467D01*
X66022156Y-55402826D01*
X65991381Y-55426273D01*
X65983810Y-55442149D01*
X65998021Y-55491401D01*
X65998953Y-55494173D01*
X66011653Y-55538625D01*
X66027417Y-55586607D01*
X66043893Y-55636810D01*
X66060499Y-55687348D01*
X66075263Y-55734067D01*
X66076378Y-55738415D01*
X66093804Y-55786992D01*
X66100314Y-55804117D01*
X66118037Y-55850338D01*
X66123028Y-55864445D01*
X66132554Y-55870795D01*
X66145743Y-55887648D01*
X66143056Y-55915003D01*
X66113991Y-55928192D01*
X66090055Y-55918667D01*
X66065851Y-55872832D01*
X66046228Y-55819380D01*
X66029146Y-55766670D01*
X66013363Y-55714480D01*
X65997675Y-55666820D01*
X65988450Y-55641939D01*
X65978436Y-55612875D01*
X65964515Y-55571598D01*
X65948394Y-55530809D01*
X65931786Y-55498569D01*
X65921284Y-55487822D01*
X65921528Y-55487822D01*
X65901744Y-55513224D01*
X65876587Y-55537159D01*
X65869993Y-55536671D01*
X65867520Y-55587779D01*
X65865596Y-55627529D01*
X65863407Y-55678582D01*
X65861772Y-55728262D01*
X65861444Y-55751605D01*
X65869504Y-55784822D01*
X65881228Y-55821946D01*
X65871702Y-55858339D01*
X65845080Y-55880321D01*
X65824075Y-55868353D01*
X65812351Y-55845882D01*
X65810683Y-55796584D01*
X65810642Y-55781158D01*
X65811448Y-55724182D01*
X65813423Y-55675141D01*
X65816583Y-55625910D01*
X65820928Y-55576491D01*
X65826457Y-55526883D01*
X65827494Y-55518597D01*
X65834075Y-55462118D01*
X65840807Y-55405835D01*
X65847055Y-55356017D01*
X65854361Y-55307571D01*
X65856506Y-55256590D01*
X65858513Y-55210607D01*
X65860894Y-55159979D01*
X65864366Y-55111245D01*
X65864619Y-55110223D01*
G37*
G36*
X66576587Y-55298534D02*
G01*
X66610781Y-55324668D01*
X66637648Y-55356908D01*
X66649402Y-55405470D01*
X66651325Y-55450453D01*
X66642872Y-55499481D01*
X66634961Y-55518597D01*
X66608441Y-55559997D01*
X66569260Y-55584787D01*
X66544103Y-55594068D01*
X66502826Y-55600418D01*
X66451753Y-55596501D01*
X66408792Y-55582588D01*
X66366844Y-55553951D01*
X66352861Y-55534961D01*
X66347487Y-55526413D01*
X66344312Y-55522993D01*
X66340404Y-55555966D01*
X66342847Y-55595289D01*
X66358478Y-55644504D01*
X66383780Y-55686428D01*
X66385833Y-55689078D01*
X66420463Y-55724330D01*
X66462069Y-55751317D01*
X66468143Y-55754291D01*
X66515484Y-55770663D01*
X66543614Y-55773342D01*
X66592811Y-55763967D01*
X66631297Y-55740125D01*
X66671254Y-55711789D01*
X66686985Y-55707152D01*
X66704815Y-55730600D01*
X66688206Y-55761374D01*
X66676482Y-55774075D01*
X66661584Y-55796545D01*
X66629099Y-55820237D01*
X66580340Y-55835223D01*
X66551919Y-55836845D01*
X66500699Y-55832689D01*
X66452854Y-55818676D01*
X66422470Y-55801674D01*
X66399511Y-55788241D01*
X66361377Y-55755759D01*
X66355303Y-55749651D01*
X66322328Y-55712793D01*
X66315736Y-55702756D01*
X66297658Y-55654204D01*
X66285969Y-55606723D01*
X66283984Y-55582833D01*
X66289892Y-55533465D01*
X66294487Y-55521772D01*
X66302302Y-55490020D01*
X66311263Y-55463886D01*
X66363852Y-55463886D01*
X66393649Y-55482449D01*
X66423302Y-55521879D01*
X66430286Y-55526413D01*
X66477563Y-55542607D01*
X66498674Y-55543998D01*
X66530669Y-55540090D01*
X66567306Y-55520062D01*
X66591242Y-55480739D01*
X66604675Y-55444836D01*
X66610781Y-55430914D01*
X66606140Y-55427739D01*
X66607606Y-55427983D01*
X66595638Y-55395743D01*
X66572191Y-55362037D01*
X66526162Y-55344726D01*
X66518213Y-55344452D01*
X66468380Y-55354760D01*
X66444207Y-55368387D01*
X66405794Y-55401361D01*
X66388276Y-55420900D01*
X66364340Y-55463154D01*
X66363852Y-55463886D01*
X66311263Y-55463886D01*
X66318705Y-55442183D01*
X66334054Y-55415771D01*
X66362333Y-55375535D01*
X66390230Y-55348360D01*
X66403419Y-55334926D01*
X66428576Y-55315875D01*
X66474249Y-55298046D01*
X66524151Y-55292275D01*
X66532379Y-55292184D01*
X66576587Y-55298534D01*
G37*
G36*
X67499337Y-55085799D02*
G01*
X67524249Y-55076517D01*
X67543300Y-55098011D01*
X67547941Y-55138311D01*
X67541024Y-55188394D01*
X67538660Y-55214759D01*
X67533755Y-55267685D01*
X67527629Y-55318575D01*
X67520780Y-55370521D01*
X67512345Y-55431137D01*
X67504455Y-55485872D01*
X67497871Y-55530565D01*
X67490215Y-55580024D01*
X67479524Y-55635643D01*
X67466940Y-55689017D01*
X67452463Y-55740148D01*
X67440963Y-55775296D01*
X67421158Y-55823590D01*
X67392358Y-55864445D01*
X67347149Y-55885257D01*
X67333007Y-55887404D01*
X67326901Y-55887404D01*
X67279125Y-55871175D01*
X67238853Y-55839268D01*
X67235554Y-55836113D01*
X67203974Y-55796996D01*
X67199406Y-55787752D01*
X67191394Y-55739096D01*
X67191102Y-55723517D01*
X67197536Y-55674148D01*
X67200139Y-55667829D01*
X67229631Y-55627987D01*
X67246545Y-55609699D01*
X67282913Y-55573717D01*
X67306873Y-55555478D01*
X67353893Y-55539354D01*
X67368178Y-55536915D01*
X67399930Y-55534228D01*
X67422644Y-55542533D01*
X67428995Y-55568667D01*
X67402861Y-55607501D01*
X67388939Y-55603593D01*
X67374773Y-55600418D01*
X67325255Y-55610482D01*
X67290265Y-55636078D01*
X67258651Y-55673415D01*
X67257780Y-55674912D01*
X67250209Y-55715212D01*
X67250209Y-55737438D01*
X67258757Y-55768457D01*
X67287578Y-55802407D01*
X67314445Y-55821458D01*
X67345219Y-55817550D01*
X67375261Y-55793614D01*
X67386496Y-55771388D01*
X67398709Y-55733775D01*
X67412142Y-55703244D01*
X67418004Y-55676866D01*
X67431003Y-55626663D01*
X67441437Y-55575097D01*
X67450591Y-55521662D01*
X67458457Y-55469684D01*
X67459769Y-55460467D01*
X67467599Y-55411565D01*
X67470272Y-55395254D01*
X67477689Y-55346573D01*
X67478576Y-55339323D01*
X67482483Y-55290464D01*
X67482728Y-55286078D01*
X67484617Y-55236924D01*
X67484926Y-55203035D01*
X67484926Y-55096301D01*
X67499337Y-55085799D01*
G37*
G36*
X67699616Y-55177634D02*
G01*
X67742847Y-55161270D01*
X67770446Y-55172993D01*
X67762875Y-55220865D01*
X67753593Y-55240893D01*
X67758636Y-55289502D01*
X67760676Y-55307815D01*
X67768278Y-55358007D01*
X67772400Y-55379623D01*
X67781737Y-55427888D01*
X67784612Y-55444103D01*
X67793161Y-55485868D01*
X67801953Y-55504675D01*
X67812944Y-55470237D01*
X67833242Y-55423403D01*
X67844207Y-55399651D01*
X67860327Y-55364724D01*
X67878188Y-55317875D01*
X67892079Y-55288276D01*
X67927250Y-55262630D01*
X67947034Y-55270446D01*
X67959002Y-55294382D01*
X67943159Y-55341918D01*
X67920667Y-55389698D01*
X67908932Y-55413084D01*
X67886930Y-55459621D01*
X67866948Y-55505088D01*
X67865457Y-55508583D01*
X67845807Y-55554740D01*
X67830286Y-55591870D01*
X67810300Y-55638933D01*
X67793893Y-55678576D01*
X67772427Y-55724715D01*
X67770446Y-55728401D01*
X67748953Y-55771144D01*
X67736252Y-55793859D01*
X67716224Y-55798743D01*
X67683007Y-55762840D01*
X67697091Y-55715332D01*
X67702791Y-55706420D01*
X67726404Y-55661754D01*
X67744312Y-55624354D01*
X67758967Y-55589916D01*
X67746999Y-55562072D01*
X67730303Y-55513853D01*
X67722670Y-55464699D01*
X67722575Y-55459002D01*
X67717667Y-55409632D01*
X67708653Y-55363747D01*
X67698509Y-55313257D01*
X67691525Y-55264004D01*
X67688625Y-55231856D01*
X67687404Y-55207187D01*
X67699616Y-55177634D01*
G37*
G36*
X68231088Y-55366434D02*
G01*
X68272325Y-55338617D01*
X68273342Y-55338590D01*
X68320541Y-55358681D01*
X68346859Y-55385240D01*
X68374311Y-55426988D01*
X68386427Y-55449232D01*
X68407244Y-55494226D01*
X68413049Y-55513712D01*
X68424040Y-55553524D01*
X68435052Y-55603079D01*
X68437229Y-55644626D01*
X68434179Y-55694004D01*
X68430146Y-55724738D01*
X68420293Y-55773894D01*
X68415491Y-55792882D01*
X68395708Y-55805826D01*
X68362163Y-55769977D01*
X68361025Y-55765038D01*
X68361025Y-55754535D01*
X68365177Y-55707397D01*
X68369574Y-55658792D01*
X68364782Y-55607676D01*
X68354431Y-55565247D01*
X68337456Y-55519269D01*
X68313886Y-55475122D01*
X68284553Y-55435892D01*
X68276029Y-55431646D01*
X68241983Y-55468086D01*
X68231332Y-55486845D01*
X68209013Y-55534959D01*
X68191416Y-55585169D01*
X68182484Y-55617027D01*
X68171622Y-55667615D01*
X68163722Y-55719383D01*
X68160101Y-55770928D01*
X68160013Y-55779692D01*
X68149967Y-55828078D01*
X68128262Y-55839532D01*
X68105059Y-55829274D01*
X68094361Y-55781457D01*
X68093824Y-55757222D01*
X68095179Y-55705110D01*
X68099641Y-55654566D01*
X68100907Y-55645115D01*
X68107132Y-55593369D01*
X68113429Y-55540055D01*
X68118939Y-55489879D01*
X68119225Y-55485624D01*
X68118492Y-55478541D01*
X68117759Y-55471702D01*
X68117759Y-55461688D01*
X68138452Y-55415804D01*
X68157815Y-55411863D01*
X68183217Y-55427739D01*
X68183949Y-55434333D01*
X68190300Y-55423098D01*
X68201046Y-55404535D01*
X68231088Y-55366434D01*
G37*
G36*
X68861967Y-55336636D02*
G01*
X68867341Y-55348848D01*
X68885587Y-55395660D01*
X68885659Y-55399895D01*
X68884438Y-55426273D01*
X68878736Y-55477086D01*
X68874668Y-55526782D01*
X68874424Y-55536427D01*
X68878576Y-55568178D01*
X68895917Y-55610921D01*
X68916434Y-55631437D01*
X68944738Y-55673354D01*
X68944766Y-55675645D01*
X68901902Y-55701753D01*
X68899092Y-55701779D01*
X68892986Y-55701779D01*
X68871493Y-55694452D01*
X68855129Y-55663189D01*
X68841939Y-55629727D01*
X68831437Y-55604570D01*
X68824598Y-55582100D01*
X68805059Y-55601884D01*
X68768228Y-55637902D01*
X68724703Y-55660990D01*
X68716399Y-55660502D01*
X68692219Y-55668073D01*
X68642301Y-55661204D01*
X68629204Y-55655861D01*
X68600383Y-55631193D01*
X68577133Y-55587672D01*
X68570586Y-55553279D01*
X68572777Y-55544731D01*
X68628227Y-55544731D01*
X68650919Y-55588326D01*
X68652407Y-55589672D01*
X68685136Y-55603105D01*
X68734613Y-55589010D01*
X68760362Y-55570376D01*
X68793089Y-55531949D01*
X68809944Y-55491974D01*
X68816455Y-55442643D01*
X68816782Y-55422365D01*
X68813363Y-55378401D01*
X68807501Y-55376692D01*
X68793579Y-55379378D01*
X68746396Y-55399740D01*
X68704012Y-55432489D01*
X68685136Y-55450453D01*
X68652735Y-55487159D01*
X68629616Y-55532512D01*
X68628227Y-55544731D01*
X68572777Y-55544731D01*
X68583179Y-55504145D01*
X68602826Y-55472923D01*
X68619923Y-55448988D01*
X68637752Y-55425296D01*
X68653628Y-55406978D01*
X68678053Y-55386461D01*
X68705896Y-55366189D01*
X68740823Y-55342009D01*
X68773307Y-55323203D01*
X68811898Y-55309036D01*
X68835833Y-55306350D01*
X68861967Y-55336636D01*
G37*
G36*
X69381472Y-55304640D02*
G01*
X69408583Y-55293649D01*
X69436427Y-55307327D01*
X69452950Y-55356452D01*
X69464686Y-55405844D01*
X69476327Y-55460962D01*
X69487143Y-55515906D01*
X69489427Y-55527878D01*
X69499549Y-55576743D01*
X69509558Y-55627388D01*
X69517515Y-55671249D01*
X69527304Y-55722120D01*
X69534609Y-55770566D01*
X69536078Y-55792393D01*
X69513607Y-55824145D01*
X69510676Y-55822679D01*
X69507501Y-55822679D01*
X69478192Y-55793614D01*
X69459874Y-55746964D01*
X69451579Y-55695933D01*
X69442447Y-55642655D01*
X69435938Y-55605059D01*
X69428415Y-55552594D01*
X69419420Y-55502790D01*
X69413712Y-55480495D01*
X69404675Y-55441172D01*
X69398325Y-55413328D01*
X69392951Y-55429204D01*
X69380006Y-55465352D01*
X69372191Y-55489043D01*
X69361241Y-55538777D01*
X69360223Y-55547173D01*
X69351120Y-55598244D01*
X69336992Y-55649833D01*
X69327739Y-55678332D01*
X69309397Y-55727482D01*
X69285240Y-55766503D01*
X69282065Y-55769190D01*
X69277669Y-55769190D01*
X69255931Y-55753803D01*
X69240544Y-55720097D01*
X69228674Y-55671068D01*
X69225157Y-55654396D01*
X69214089Y-55606063D01*
X69208548Y-55587229D01*
X69197033Y-55538227D01*
X69192916Y-55519574D01*
X69187543Y-55489288D01*
X69178506Y-55524214D01*
X69168649Y-55578630D01*
X69162420Y-55629269D01*
X69157440Y-55680244D01*
X69152651Y-55739197D01*
X69148957Y-55792104D01*
X69146266Y-55835136D01*
X69118911Y-55876168D01*
X69092777Y-55864689D01*
X69080076Y-55823412D01*
X69080076Y-55798011D01*
X69081894Y-55747423D01*
X69086121Y-55695123D01*
X69095979Y-55644888D01*
X69098883Y-55637543D01*
X69108314Y-55589486D01*
X69108897Y-55584787D01*
X69116512Y-55535299D01*
X69118178Y-55527634D01*
X69128894Y-55479289D01*
X69139112Y-55426801D01*
X69146714Y-55375464D01*
X69147487Y-55368143D01*
X69158722Y-55329553D01*
X69182170Y-55316120D01*
X69211479Y-55331018D01*
X69227843Y-55366434D01*
X69237534Y-55417411D01*
X69248319Y-55468328D01*
X69258912Y-55516914D01*
X69267166Y-55554256D01*
X69277913Y-55602433D01*
X69284752Y-55618492D01*
X69284752Y-55619958D01*
X69295485Y-55571715D01*
X69296964Y-55565491D01*
X69309882Y-55518251D01*
X69325587Y-55469085D01*
X69342791Y-55420096D01*
X69355094Y-55386950D01*
X69366085Y-55347871D01*
X69381472Y-55304640D01*
G37*
G36*
X69963258Y-55271423D02*
G01*
X69982309Y-55283879D01*
X70030455Y-55294312D01*
X70040439Y-55298534D01*
X70069260Y-55329553D01*
X70094389Y-55372777D01*
X70096371Y-55377180D01*
X70107831Y-55424968D01*
X70113341Y-55479589D01*
X70115104Y-55532971D01*
X70115177Y-55547662D01*
X70112933Y-55597377D01*
X70112247Y-55601151D01*
X70100095Y-55651038D01*
X70079518Y-55698604D01*
X70050514Y-55743850D01*
X70018224Y-55781537D01*
X70013084Y-55786775D01*
X69973914Y-55822384D01*
X69928759Y-55854617D01*
X69884189Y-55876821D01*
X69833966Y-55889918D01*
X69809141Y-55891556D01*
X69768597Y-55885450D01*
X69725020Y-55858487D01*
X69698499Y-55823412D01*
X69678800Y-55775248D01*
X69670236Y-55727081D01*
X69669190Y-55711060D01*
X69669190Y-55684193D01*
X69670295Y-55668562D01*
X69728297Y-55668562D01*
X69735117Y-55717452D01*
X69736601Y-55722784D01*
X69755205Y-55769782D01*
X69769574Y-55790928D01*
X69812072Y-55815596D01*
X69813293Y-55815596D01*
X69863865Y-55804332D01*
X69907571Y-55780425D01*
X69948805Y-55749082D01*
X69984045Y-55715022D01*
X70003803Y-55689567D01*
X70029069Y-55645788D01*
X70047444Y-55595966D01*
X70055611Y-55544904D01*
X70056071Y-55529344D01*
X70052892Y-55479121D01*
X70051919Y-55471214D01*
X70042406Y-55421396D01*
X70032868Y-55395987D01*
X69991926Y-55367482D01*
X69985240Y-55364968D01*
X69937063Y-55354893D01*
X69920272Y-55354221D01*
X69896824Y-55354954D01*
X69887299Y-55356420D01*
X69878750Y-55362281D01*
X69865073Y-55371563D01*
X69826690Y-55407261D01*
X69797438Y-55451385D01*
X69789846Y-55464863D01*
X69766977Y-55511174D01*
X69749355Y-55557294D01*
X69736032Y-55607806D01*
X69735136Y-55612386D01*
X69728537Y-55660857D01*
X69728297Y-55668562D01*
X69670295Y-55668562D01*
X69672838Y-55632612D01*
X69683784Y-55578253D01*
X69699346Y-55528410D01*
X69720495Y-55476439D01*
X69727564Y-55461200D01*
X69749440Y-55414220D01*
X69764445Y-55385729D01*
X69794975Y-55350314D01*
X69815736Y-55320027D01*
X69830879Y-55295847D01*
X69873779Y-55270286D01*
X69875819Y-55269225D01*
X69921275Y-55250853D01*
X69928820Y-55249930D01*
X69963258Y-55271423D01*
G37*
G36*
X70768527Y-55459002D02*
G01*
X70781960Y-55495394D01*
X70795394Y-55533496D01*
X70809071Y-55551081D01*
X70838898Y-55591174D01*
X70868453Y-55634410D01*
X70898617Y-55680724D01*
X70915073Y-55706664D01*
X70941142Y-55750147D01*
X70947313Y-55764305D01*
X70952930Y-55771388D01*
X70962456Y-55773586D01*
X70984438Y-55787752D01*
X70976866Y-55826587D01*
X70943405Y-55846615D01*
X70909699Y-55822435D01*
X70897487Y-55798988D01*
X70882344Y-55774075D01*
X70855375Y-55731765D01*
X70828585Y-55689794D01*
X70799798Y-55644836D01*
X70782693Y-55618492D01*
X70755704Y-55574284D01*
X70733117Y-55530956D01*
X70711863Y-55488066D01*
X70687993Y-55444662D01*
X70686706Y-55442393D01*
X70678401Y-55422365D01*
X70688660Y-55390614D01*
X70715771Y-55375226D01*
X70734577Y-55382554D01*
X70782434Y-55395376D01*
X70807117Y-55396231D01*
X70825436Y-55395254D01*
X70861828Y-55373517D01*
X70891034Y-55333396D01*
X70891625Y-55331995D01*
X70902036Y-55283652D01*
X70902128Y-55277529D01*
X70893502Y-55228806D01*
X70891625Y-55224773D01*
X70861919Y-55183499D01*
X70855478Y-55176657D01*
X70819100Y-55143094D01*
X70805896Y-55133670D01*
X70759886Y-55115996D01*
X70746789Y-55115108D01*
X70700015Y-55131611D01*
X70698918Y-55132693D01*
X70684019Y-55150279D01*
X70657397Y-55148325D01*
X70647383Y-55118527D01*
X70669577Y-55074043D01*
X70698918Y-55057711D01*
X70742637Y-55050139D01*
X70759979Y-55050139D01*
X70808253Y-55061001D01*
X70836182Y-55077250D01*
X70874229Y-55110576D01*
X70909645Y-55146533D01*
X70918492Y-55157850D01*
X70940882Y-55203020D01*
X70949755Y-55233565D01*
X70955617Y-55281681D01*
X70950568Y-55330581D01*
X70932433Y-55377995D01*
X70929239Y-55383286D01*
X70896315Y-55421630D01*
X70874284Y-55438241D01*
X70827519Y-55454424D01*
X70799546Y-55458269D01*
X70768527Y-55459002D01*
G37*
G36*
X70603663Y-55076029D02*
G01*
X70646406Y-55076517D01*
X70651779Y-55119993D01*
X70651393Y-55170963D01*
X70650558Y-55208897D01*
X70649459Y-55260432D01*
X70649115Y-55309662D01*
X70649092Y-55328087D01*
X70649092Y-55385729D01*
X70648976Y-55438547D01*
X70648629Y-55490941D01*
X70648049Y-55542910D01*
X70647627Y-55571598D01*
X70647281Y-55620944D01*
X70646894Y-55645359D01*
X70646161Y-55693963D01*
X70650558Y-55738660D01*
X70661398Y-55786585D01*
X70661793Y-55806071D01*
X70656534Y-55855609D01*
X70649581Y-55862247D01*
X70645184Y-55873482D01*
X70601465Y-55887404D01*
X70592672Y-55841730D01*
X70592672Y-55796545D01*
X70593719Y-55743857D01*
X70594412Y-55691198D01*
X70594845Y-55642028D01*
X70595146Y-55588053D01*
X70595317Y-55529271D01*
X70595359Y-55478785D01*
X70595300Y-55424477D01*
X70595091Y-55375434D01*
X70594424Y-55325366D01*
X70594138Y-55317341D01*
X70592134Y-55266110D01*
X70591347Y-55216346D01*
X70591207Y-55180321D01*
X70591582Y-55129309D01*
X70592916Y-55098743D01*
X70603663Y-55076029D01*
G37*
G36*
X71148080Y-55263363D02*
G01*
X71149032Y-55204255D01*
X71150055Y-55154699D01*
X71151608Y-55101369D01*
X71154864Y-55052002D01*
X71155408Y-55050139D01*
X71179344Y-55043056D01*
X71207187Y-55053070D01*
X71214515Y-55086043D01*
X71215491Y-55101186D01*
X71235031Y-55102163D01*
X71248953Y-55102163D01*
X71288764Y-55099476D01*
X71334682Y-55096545D01*
X71372051Y-55098011D01*
X71423387Y-55101359D01*
X71442149Y-55102407D01*
X71492321Y-55105167D01*
X71511270Y-55106559D01*
X71562909Y-55110445D01*
X71606036Y-55117062D01*
X71615317Y-55143928D01*
X71602616Y-55176168D01*
X71573063Y-55177390D01*
X71524502Y-55170137D01*
X71475129Y-55166091D01*
X71469260Y-55165666D01*
X71418305Y-55162033D01*
X71367233Y-55158951D01*
X71319295Y-55157362D01*
X71268129Y-55159568D01*
X71260432Y-55160048D01*
X71238939Y-55161514D01*
X71220132Y-55164445D01*
X71213782Y-55164445D01*
X71208653Y-55217690D01*
X71207177Y-55274470D01*
X71206409Y-55327507D01*
X71205966Y-55377424D01*
X71205769Y-55432897D01*
X71205176Y-55485193D01*
X71204189Y-55534311D01*
X71202537Y-55587601D01*
X71200348Y-55636566D01*
X71198711Y-55688029D01*
X71197662Y-55730600D01*
X71201818Y-55779411D01*
X71206454Y-55787020D01*
X71238939Y-55794347D01*
X71269469Y-55791660D01*
X71289741Y-55791660D01*
X71340945Y-55793046D01*
X71374982Y-55794591D01*
X71424775Y-55796688D01*
X71445812Y-55797278D01*
X71449965Y-55797278D01*
X71479030Y-55814863D01*
X71469748Y-55833182D01*
X71422364Y-55851700D01*
X71373496Y-55856862D01*
X71343230Y-55857850D01*
X71291479Y-55858411D01*
X71241149Y-55860426D01*
X71235519Y-55860781D01*
X71198883Y-55864200D01*
X71198883Y-55873970D01*
X71195952Y-55891556D01*
X71190090Y-55901081D01*
X71180321Y-55906699D01*
X71171772Y-55911584D01*
X71126831Y-55899371D01*
X71124633Y-55859560D01*
X71130193Y-55807173D01*
X71133353Y-55757760D01*
X71136155Y-55703593D01*
X71138556Y-55650123D01*
X71139043Y-55638520D01*
X71141325Y-55579709D01*
X71143284Y-55520969D01*
X71144922Y-55462300D01*
X71146237Y-55403703D01*
X71147231Y-55345178D01*
X71147902Y-55286725D01*
X71148080Y-55263363D01*
G37*
G36*
X71451186Y-55350802D02*
G01*
X71465596Y-55348360D01*
X71516475Y-55351029D01*
X71541067Y-55355931D01*
X71567385Y-55397963D01*
X71567690Y-55402581D01*
X71557676Y-55431402D01*
X71519085Y-55423342D01*
X71488066Y-55409176D01*
X71478785Y-55410397D01*
X71427281Y-55414084D01*
X71413817Y-55414794D01*
X71365008Y-55417944D01*
X71313679Y-55424477D01*
X71305129Y-55426029D01*
X71256720Y-55432863D01*
X71251639Y-55433112D01*
X71225505Y-55405512D01*
X71238695Y-55374494D01*
X71286322Y-55362526D01*
X71353977Y-55358374D01*
X71403875Y-55355955D01*
X71451186Y-55350802D01*
G37*
G36*
X71755512Y-55155163D02*
G01*
X71764794Y-55125854D01*
X71792882Y-55116329D01*
X71814131Y-55116329D01*
X71829762Y-55168108D01*
X71843463Y-55217727D01*
X71854220Y-55267299D01*
X71855896Y-55275819D01*
X71865279Y-55323797D01*
X71873482Y-55364480D01*
X71884328Y-55414649D01*
X71890579Y-55445080D01*
X71899738Y-55495272D01*
X71911559Y-55543798D01*
X71913538Y-55551081D01*
X71925060Y-55599437D01*
X71933035Y-55649647D01*
X71935519Y-55673447D01*
X71934787Y-55697383D01*
X71951960Y-55649941D01*
X71954326Y-55643405D01*
X71972467Y-55596941D01*
X71991451Y-55553768D01*
X72011774Y-55508646D01*
X72024668Y-55477076D01*
X72044452Y-55430685D01*
X72054954Y-55406001D01*
X72074668Y-55359314D01*
X72092079Y-55315875D01*
X72107400Y-55268264D01*
X72108443Y-55262386D01*
X72124749Y-55214290D01*
X72148011Y-55198150D01*
X72164131Y-55195219D01*
X72184647Y-55229658D01*
X72171343Y-55277545D01*
X72151088Y-55326451D01*
X72137508Y-55356664D01*
X72116638Y-55402872D01*
X72096106Y-55448470D01*
X72093789Y-55453628D01*
X72073644Y-55498665D01*
X72058618Y-55532519D01*
X72038469Y-55582380D01*
X72019609Y-55632618D01*
X72001957Y-55680675D01*
X71988520Y-55717655D01*
X71972278Y-55764427D01*
X71965073Y-55793370D01*
X71943579Y-55829030D01*
X71913538Y-55830739D01*
X71897418Y-55786775D01*
X71893754Y-55744277D01*
X71882115Y-55693713D01*
X71874459Y-55654396D01*
X71865194Y-55605761D01*
X71856873Y-55568178D01*
X71847103Y-55518597D01*
X71835669Y-55470054D01*
X71834647Y-55467306D01*
X71824389Y-55419678D01*
X71817794Y-55388660D01*
X71806071Y-55339323D01*
X71796116Y-55287663D01*
X71784211Y-55236802D01*
X71766601Y-55190931D01*
X71765526Y-55189602D01*
X71755512Y-55155163D01*
G37*
G36*
X72447452Y-55025959D02*
G01*
X72471946Y-54980929D01*
X72487508Y-54956106D01*
X72510467Y-54946824D01*
X72533914Y-54960502D01*
X72537090Y-55008618D01*
X72529772Y-55062729D01*
X72523694Y-55115612D01*
X72518857Y-55167267D01*
X72515260Y-55217693D01*
X72512904Y-55266891D01*
X72511713Y-55324308D01*
X72511688Y-55333705D01*
X72511688Y-55427983D01*
X72511731Y-55482130D01*
X72511890Y-55534233D01*
X72512265Y-55583705D01*
X72512909Y-55615561D01*
X72518039Y-55650488D01*
X72528541Y-55688346D01*
X72528541Y-55704221D01*
X72599371Y-55703000D01*
X72649747Y-55700459D01*
X72698519Y-55695358D01*
X72701953Y-55694696D01*
X72737369Y-55692254D01*
X72748848Y-55713747D01*
X72733949Y-55740858D01*
X72689591Y-55763572D01*
X72681681Y-55765526D01*
X72631863Y-55770842D01*
X72579547Y-55773401D01*
X72574459Y-55773586D01*
X72524313Y-55777116D01*
X72502651Y-55781158D01*
X72453483Y-55786888D01*
X72420830Y-55787508D01*
X72369405Y-55784543D01*
X72336810Y-55775785D01*
X72324354Y-55748918D01*
X72339986Y-55717411D01*
X72371737Y-55704466D01*
X72399092Y-55712281D01*
X72437438Y-55717166D01*
X72459420Y-55716189D01*
X72460886Y-55627773D01*
X72460886Y-55391346D01*
X72460886Y-55273377D01*
X72461166Y-55220679D01*
X72462351Y-55167315D01*
X72466038Y-55116484D01*
X72466748Y-55112421D01*
X72470655Y-55093126D01*
X72475785Y-55096789D01*
X72453070Y-55140509D01*
X72430050Y-55185022D01*
X72418143Y-55204256D01*
X72413258Y-55238450D01*
X72405443Y-55276064D01*
X72366120Y-55271423D01*
X72360990Y-55243824D01*
X72370272Y-55209874D01*
X72379553Y-55184228D01*
X72396574Y-55137706D01*
X72401290Y-55127564D01*
X72415945Y-55093126D01*
X72436745Y-55046478D01*
X72447452Y-55025959D01*
G37*
G36*
X65210293Y-56879616D02*
G01*
X65175366Y-56870334D01*
X65166085Y-56849085D01*
X65177320Y-56820753D01*
X65203454Y-56807564D01*
X65210293Y-56807564D01*
X65262937Y-56814940D01*
X65316791Y-56820657D01*
X65354640Y-56824417D01*
X65405321Y-56828630D01*
X65453803Y-56830034D01*
X65467969Y-56830034D01*
X65472854Y-56829546D01*
X65480425Y-56828813D01*
X65523805Y-56852982D01*
X65526343Y-56862763D01*
X65526343Y-56871800D01*
X65485986Y-56901968D01*
X65480425Y-56902086D01*
X65439148Y-56899155D01*
X65391765Y-56896468D01*
X65389323Y-56896468D01*
X65387124Y-56929930D01*
X65383155Y-56979267D01*
X65377980Y-57029249D01*
X65377110Y-57036908D01*
X65373078Y-57087265D01*
X65371493Y-57113845D01*
X65374424Y-57159274D01*
X65378434Y-57210924D01*
X65382350Y-57265993D01*
X65385681Y-57320712D01*
X65387856Y-57370682D01*
X65388346Y-57399364D01*
X65388346Y-57417438D01*
X65388346Y-57469462D01*
X65365631Y-57498283D01*
X65330997Y-57534527D01*
X65325575Y-57538339D01*
X65278925Y-57552016D01*
X65249860Y-57553482D01*
X65199631Y-57545911D01*
X65178053Y-57538827D01*
X65135799Y-57517822D01*
X65107955Y-57480453D01*
X65087093Y-57436185D01*
X65078890Y-57390816D01*
X65095743Y-57352714D01*
X65101360Y-57350027D01*
X65112107Y-57331221D01*
X65133112Y-57321207D01*
X65153384Y-57341479D01*
X65145812Y-57372986D01*
X65139462Y-57403517D01*
X65156361Y-57450274D01*
X65169504Y-57465310D01*
X65215071Y-57487721D01*
X65219330Y-57488757D01*
X65261095Y-57494131D01*
X65309153Y-57475657D01*
X65330949Y-57428674D01*
X65331926Y-57404982D01*
X65330462Y-57355848D01*
X65327773Y-57309727D01*
X65324349Y-57260987D01*
X65321859Y-57207874D01*
X65320753Y-57155858D01*
X65320690Y-57140467D01*
X65321518Y-57090909D01*
X65322625Y-57041566D01*
X65323621Y-56999783D01*
X65324354Y-56960949D01*
X65325575Y-56926999D01*
X65326308Y-56908192D01*
X65323866Y-56885722D01*
X65270987Y-56880888D01*
X65216748Y-56879696D01*
X65210293Y-56879616D01*
G37*
G36*
X65684124Y-56794375D02*
G01*
X65692428Y-56761646D01*
X65718806Y-56741374D01*
X65744207Y-56748946D01*
X65750558Y-56777522D01*
X65750558Y-56790467D01*
X65742237Y-56838679D01*
X65741032Y-56843712D01*
X65732240Y-56888408D01*
X65727923Y-56937948D01*
X65726153Y-56987956D01*
X65725329Y-57042859D01*
X65725157Y-57088443D01*
X65725671Y-57138606D01*
X65727843Y-57174661D01*
X65736392Y-57220823D01*
X65752665Y-57268163D01*
X65761549Y-57287990D01*
X65784504Y-57332812D01*
X65793056Y-57344410D01*
X65801116Y-57359797D01*
X65820167Y-57381290D01*
X65849965Y-57401563D01*
X65872191Y-57404005D01*
X65920292Y-57393975D01*
X65923482Y-57391793D01*
X65957354Y-57354098D01*
X65958897Y-57352226D01*
X65983810Y-57316322D01*
X65996999Y-57294340D01*
X66013607Y-57256727D01*
X66025981Y-57206819D01*
X66036949Y-57158968D01*
X66041451Y-57133872D01*
X66050732Y-57095038D01*
X66063574Y-57044625D01*
X66071694Y-56992660D01*
X66072470Y-56987083D01*
X66079167Y-56934551D01*
X66083930Y-56882344D01*
X66085170Y-56847864D01*
X66099337Y-56805122D01*
X66124005Y-56796329D01*
X66150139Y-56811228D01*
X66155757Y-56833698D01*
X66149986Y-56883432D01*
X66145498Y-56908436D01*
X66136441Y-56957982D01*
X66130111Y-56994166D01*
X66121523Y-57044695D01*
X66113503Y-57092351D01*
X66103885Y-57140839D01*
X66094940Y-57178813D01*
X66082117Y-57226929D01*
X66076866Y-57254040D01*
X66068073Y-57291409D01*
X66057815Y-57316322D01*
X66044138Y-57340013D01*
X66029483Y-57365170D01*
X66001013Y-57407506D01*
X65983077Y-57428674D01*
X65945422Y-57462116D01*
X65931786Y-57469706D01*
X65890509Y-57481674D01*
X65870969Y-57480209D01*
X65821816Y-57468302D01*
X65782798Y-57444305D01*
X65750072Y-57405232D01*
X65724640Y-57363004D01*
X65710258Y-57335129D01*
X65689866Y-57289990D01*
X65684124Y-57272602D01*
X65675575Y-57239141D01*
X65667271Y-57198108D01*
X65666538Y-57191025D01*
X65665317Y-57178569D01*
X65664584Y-57163426D01*
X65661470Y-57113234D01*
X65660578Y-57060903D01*
X65660432Y-57021765D01*
X65660768Y-56971924D01*
X65662531Y-56920919D01*
X65665806Y-56898422D01*
X65676552Y-56851528D01*
X65683761Y-56802119D01*
X65684124Y-56794375D01*
G37*
G36*
X66851605Y-56859344D02*
G01*
X66896057Y-56853726D01*
X66907536Y-56870579D01*
X66894103Y-56898178D01*
X66873991Y-56945538D01*
X66857236Y-56991920D01*
X66855512Y-56996852D01*
X66839327Y-57044732D01*
X66824332Y-57093048D01*
X66812281Y-57136803D01*
X66799775Y-57185889D01*
X66789112Y-57237890D01*
X66780133Y-57289852D01*
X66772697Y-57339191D01*
X66770272Y-57356622D01*
X66762700Y-57411681D01*
X66755392Y-57461068D01*
X66746576Y-57510522D01*
X66744626Y-57518066D01*
X66732736Y-57567074D01*
X66730704Y-57575464D01*
X66716365Y-57622218D01*
X66715561Y-57623579D01*
X66693579Y-57633593D01*
X66668911Y-57614542D01*
X66662072Y-57596468D01*
X66654745Y-57567404D01*
X66645219Y-57519532D01*
X66631328Y-57470409D01*
X66617986Y-57420247D01*
X66605194Y-57369048D01*
X66592951Y-57316810D01*
X66580969Y-57266317D01*
X66571371Y-57216496D01*
X66563886Y-57173928D01*
X66555386Y-57120672D01*
X66548774Y-57070640D01*
X66546301Y-57034954D01*
X66542149Y-56998562D01*
X66540195Y-56979023D01*
X66543614Y-56978534D01*
X66528257Y-57028117D01*
X66507955Y-57075498D01*
X66488841Y-57124799D01*
X66468431Y-57172869D01*
X66448596Y-57218419D01*
X66433217Y-57253307D01*
X66413723Y-57301683D01*
X66397008Y-57350577D01*
X66383070Y-57399990D01*
X66371912Y-57449923D01*
X66358674Y-57499186D01*
X66333227Y-57540998D01*
X66322330Y-57544933D01*
X66317934Y-57544933D01*
X66293265Y-57504877D01*
X66304989Y-57465799D01*
X66311339Y-57449923D01*
X66320621Y-57420125D01*
X66331367Y-57395701D01*
X66341137Y-57356622D01*
X66356337Y-57307501D01*
X66374156Y-57260157D01*
X66379727Y-57246957D01*
X66398534Y-57201100D01*
X66410502Y-57170020D01*
X66428992Y-57123748D01*
X66439078Y-57102854D01*
X66460266Y-57055593D01*
X66478446Y-57006808D01*
X66487683Y-56980244D01*
X66504698Y-56933521D01*
X66506978Y-56926510D01*
X66514061Y-56898422D01*
X66546156Y-56859950D01*
X66553140Y-56857390D01*
X66579518Y-56859344D01*
X66593371Y-56908860D01*
X66596924Y-56962690D01*
X66597103Y-56968520D01*
X66600141Y-57017507D01*
X66604967Y-57066897D01*
X66607606Y-57090153D01*
X66614315Y-57141089D01*
X66623584Y-57190083D01*
X66625191Y-57195910D01*
X66632274Y-57240362D01*
X66640014Y-57291004D01*
X66643998Y-57308506D01*
X66656130Y-57356423D01*
X66669100Y-57404148D01*
X66672086Y-57414752D01*
X66685613Y-57461982D01*
X66691137Y-57481674D01*
X66691625Y-57492909D01*
X66703406Y-57443240D01*
X66713607Y-57395022D01*
X66719469Y-57358087D01*
X66727994Y-57308785D01*
X66736683Y-57259742D01*
X66743649Y-57220579D01*
X66754514Y-57171712D01*
X66758304Y-57154877D01*
X66769750Y-57106758D01*
X66780041Y-57065484D01*
X66792626Y-57017315D01*
X66798360Y-56996364D01*
X66811087Y-56947649D01*
X66815701Y-56932616D01*
X66826448Y-56893049D01*
X66851605Y-56859344D01*
G37*
G36*
X67070202Y-56943363D02*
G01*
X67071154Y-56884255D01*
X67072177Y-56834699D01*
X67073730Y-56781369D01*
X67076985Y-56732002D01*
X67077529Y-56730139D01*
X67101465Y-56723056D01*
X67129309Y-56733070D01*
X67136636Y-56766043D01*
X67137613Y-56781186D01*
X67157152Y-56782163D01*
X67171074Y-56782163D01*
X67210886Y-56779476D01*
X67256803Y-56776545D01*
X67294173Y-56778011D01*
X67345508Y-56781359D01*
X67364270Y-56782407D01*
X67414442Y-56785167D01*
X67433391Y-56786559D01*
X67485031Y-56790445D01*
X67528157Y-56797062D01*
X67537438Y-56823928D01*
X67524738Y-56856168D01*
X67495184Y-56857390D01*
X67446623Y-56850137D01*
X67397250Y-56846091D01*
X67391381Y-56845666D01*
X67340426Y-56842033D01*
X67289354Y-56838951D01*
X67241416Y-56837362D01*
X67190251Y-56839568D01*
X67182554Y-56840048D01*
X67161060Y-56841514D01*
X67142254Y-56844445D01*
X67135903Y-56844445D01*
X67130774Y-56897690D01*
X67129298Y-56954470D01*
X67128530Y-57007507D01*
X67128087Y-57057424D01*
X67127890Y-57112897D01*
X67127297Y-57165193D01*
X67126310Y-57214311D01*
X67124659Y-57267601D01*
X67122470Y-57316566D01*
X67120833Y-57368029D01*
X67119783Y-57410600D01*
X67123939Y-57459411D01*
X67128576Y-57467020D01*
X67161060Y-57474347D01*
X67191591Y-57471660D01*
X67211863Y-57471660D01*
X67263067Y-57473046D01*
X67297103Y-57474591D01*
X67346897Y-57476688D01*
X67367934Y-57477278D01*
X67372086Y-57477278D01*
X67401151Y-57494863D01*
X67391870Y-57513182D01*
X67344485Y-57531700D01*
X67295618Y-57536862D01*
X67265352Y-57537850D01*
X67213600Y-57538411D01*
X67163271Y-57540426D01*
X67157641Y-57540781D01*
X67121004Y-57544200D01*
X67121004Y-57553970D01*
X67118073Y-57571556D01*
X67112212Y-57581081D01*
X67102442Y-57586699D01*
X67093893Y-57591584D01*
X67048953Y-57579371D01*
X67046755Y-57539560D01*
X67052314Y-57487173D01*
X67055475Y-57437760D01*
X67058277Y-57383593D01*
X67060678Y-57330123D01*
X67061165Y-57318520D01*
X67063446Y-57259709D01*
X67065406Y-57200969D01*
X67067043Y-57142300D01*
X67068359Y-57083703D01*
X67069352Y-57025178D01*
X67070023Y-56966725D01*
X67070202Y-56943363D01*
G37*
G36*
X67373307Y-57030802D02*
G01*
X67387718Y-57028360D01*
X67438597Y-57031029D01*
X67463189Y-57035931D01*
X67489507Y-57077963D01*
X67489811Y-57082581D01*
X67479797Y-57111402D01*
X67441207Y-57103342D01*
X67410188Y-57089176D01*
X67400907Y-57090397D01*
X67349402Y-57094084D01*
X67335938Y-57094794D01*
X67287129Y-57097944D01*
X67235800Y-57104477D01*
X67227250Y-57106029D01*
X67178841Y-57112863D01*
X67173761Y-57113112D01*
X67147627Y-57085512D01*
X67160816Y-57054494D01*
X67208443Y-57042526D01*
X67276099Y-57038374D01*
X67325997Y-57035955D01*
X67373307Y-57030802D01*
G37*
G36*
X68185903Y-56708157D02*
G01*
X68230600Y-56702051D01*
X68281318Y-56706516D01*
X68331625Y-56719911D01*
X68364933Y-56733803D01*
X68408000Y-56758685D01*
X68424773Y-56772882D01*
X68451886Y-56815783D01*
X68457501Y-56829302D01*
X68471606Y-56877906D01*
X68476308Y-56927976D01*
X68476308Y-56942630D01*
X68469513Y-56993643D01*
X68456059Y-57042621D01*
X68452372Y-57048876D01*
X68445289Y-57063042D01*
X68426482Y-57110914D01*
X68403166Y-57155788D01*
X68392044Y-57174173D01*
X68361418Y-57215312D01*
X68334159Y-57246957D01*
X68298832Y-57284878D01*
X68265282Y-57316566D01*
X68229714Y-57351848D01*
X68197383Y-57385198D01*
X68162968Y-57420995D01*
X68141939Y-57442840D01*
X68124842Y-57454075D01*
X68135101Y-57451877D01*
X68151465Y-57451144D01*
X68171249Y-57450411D01*
X68223754Y-57447696D01*
X68274938Y-57445238D01*
X68288241Y-57444794D01*
X68338735Y-57448222D01*
X68355652Y-57450411D01*
X68405808Y-57455814D01*
X68455134Y-57458448D01*
X68510203Y-57460238D01*
X68517829Y-57460425D01*
X68556420Y-57462135D01*
X68556420Y-57483628D01*
X68537124Y-57520265D01*
X68499267Y-57539316D01*
X68494138Y-57539316D01*
X68443000Y-57530770D01*
X68422086Y-57527836D01*
X68371896Y-57521012D01*
X68350279Y-57518311D01*
X68301552Y-57513044D01*
X68278471Y-57512693D01*
X68228944Y-57514081D01*
X68198848Y-57515380D01*
X68146861Y-57518738D01*
X68098243Y-57524783D01*
X68095289Y-57526127D01*
X68075994Y-57529546D01*
X68035450Y-57523440D01*
X68027390Y-57500481D01*
X68037404Y-57467508D01*
X68071403Y-57428699D01*
X68105721Y-57393734D01*
X68127041Y-57373719D01*
X68148290Y-57353935D01*
X68243300Y-57258681D01*
X68280502Y-57221075D01*
X68314208Y-57185516D01*
X68322191Y-57176371D01*
X68349733Y-57134991D01*
X68353210Y-57128255D01*
X68377083Y-57084106D01*
X68383496Y-57073545D01*
X68393021Y-57054494D01*
X68403524Y-57019078D01*
X68414847Y-56971550D01*
X68416957Y-56955087D01*
X68419888Y-56920893D01*
X68413064Y-56870860D01*
X68395708Y-56833698D01*
X68358240Y-56799521D01*
X68348325Y-56794375D01*
X68302128Y-56775809D01*
X68271388Y-56768241D01*
X68234752Y-56764089D01*
X68197871Y-56777766D01*
X68148534Y-56776789D01*
X68145359Y-56764822D01*
X68158060Y-56731360D01*
X68185903Y-56708157D01*
G37*
G36*
X69152861Y-56745771D02*
G01*
X69190823Y-56779210D01*
X69216348Y-56821351D01*
X69219539Y-56842247D01*
X69223188Y-56891076D01*
X69223691Y-56894515D01*
X69228519Y-56943306D01*
X69229309Y-56964612D01*
X69227310Y-57013708D01*
X69222226Y-57058401D01*
X69214528Y-57110935D01*
X69205105Y-57159341D01*
X69197313Y-57181988D01*
X69188276Y-57211542D01*
X69173301Y-57258871D01*
X69155378Y-57305461D01*
X69152616Y-57311193D01*
X69127505Y-57357261D01*
X69097490Y-57397193D01*
X69084228Y-57411821D01*
X69047779Y-57445380D01*
X69006453Y-57473136D01*
X68991172Y-57480942D01*
X68941922Y-57496759D01*
X68896406Y-57501214D01*
X68876133Y-57497794D01*
X68865631Y-57492909D01*
X68826796Y-57476789D01*
X68786244Y-57448479D01*
X68780146Y-57443084D01*
X68744533Y-57402909D01*
X68720208Y-57358797D01*
X68702783Y-57306777D01*
X68693196Y-57254773D01*
X68693196Y-57243049D01*
X68694082Y-57223510D01*
X68749616Y-57223510D01*
X68756943Y-57268695D01*
X68770132Y-57309239D01*
X68780390Y-57336594D01*
X68809705Y-57376284D01*
X68815073Y-57381535D01*
X68853365Y-57413051D01*
X68865875Y-57420369D01*
X68914384Y-57429327D01*
X68920341Y-57429406D01*
X68957955Y-57425498D01*
X69002163Y-57402540D01*
X69042020Y-57373448D01*
X69045638Y-57370055D01*
X69072505Y-57326580D01*
X69095370Y-57281158D01*
X69116265Y-57236030D01*
X69134525Y-57189796D01*
X69142114Y-57164159D01*
X69153349Y-57118485D01*
X69164426Y-57069093D01*
X69171400Y-57017697D01*
X69174272Y-56964297D01*
X69174354Y-56953377D01*
X69171606Y-56902495D01*
X69159394Y-56851029D01*
X69126650Y-56810821D01*
X69096196Y-56803656D01*
X69047149Y-56815059D01*
X69026587Y-56823928D01*
X68982890Y-56849479D01*
X68970411Y-56862274D01*
X68935973Y-56883768D01*
X68912526Y-56856168D01*
X68908374Y-56860565D01*
X68892254Y-56881570D01*
X68874912Y-56905505D01*
X68849511Y-56943852D01*
X68823340Y-56987608D01*
X68813607Y-57006378D01*
X68792240Y-57051439D01*
X68790404Y-57057669D01*
X68785031Y-57076720D01*
X68772575Y-57105296D01*
X68764270Y-57122637D01*
X68752421Y-57170422D01*
X68749630Y-57219256D01*
X68749616Y-57223510D01*
X68694082Y-57223510D01*
X68695531Y-57191541D01*
X68706836Y-57142911D01*
X68709804Y-57137292D01*
X68718353Y-57112379D01*
X68734971Y-57065819D01*
X68756913Y-57017424D01*
X68759141Y-57012728D01*
X68782371Y-56965585D01*
X68806761Y-56920278D01*
X68816782Y-56903796D01*
X68839009Y-56868136D01*
X68869849Y-56827669D01*
X68871493Y-56825882D01*
X68906893Y-56790070D01*
X68916678Y-56781430D01*
X68959826Y-56755581D01*
X68965526Y-56753342D01*
X68993126Y-56746992D01*
X69008513Y-56754563D01*
X69013398Y-56758471D01*
X69042219Y-56745038D01*
X69088813Y-56729296D01*
X69101325Y-56727452D01*
X69110362Y-56727452D01*
X69152861Y-56745771D01*
G37*
G36*
X69524354Y-56708157D02*
G01*
X69569050Y-56702051D01*
X69619769Y-56706516D01*
X69670075Y-56719911D01*
X69703384Y-56733803D01*
X69746451Y-56758685D01*
X69763224Y-56772882D01*
X69790336Y-56815783D01*
X69795952Y-56829302D01*
X69810057Y-56877906D01*
X69814759Y-56927976D01*
X69814759Y-56942630D01*
X69807963Y-56993643D01*
X69794509Y-57042621D01*
X69790823Y-57048876D01*
X69783740Y-57063042D01*
X69764933Y-57110914D01*
X69741617Y-57155788D01*
X69730495Y-57174173D01*
X69699869Y-57215312D01*
X69672609Y-57246957D01*
X69637282Y-57284878D01*
X69603733Y-57316566D01*
X69568165Y-57351848D01*
X69535833Y-57385198D01*
X69501419Y-57420995D01*
X69480390Y-57442840D01*
X69463293Y-57454075D01*
X69473551Y-57451877D01*
X69489916Y-57451144D01*
X69509699Y-57450411D01*
X69562205Y-57447696D01*
X69613389Y-57445238D01*
X69626692Y-57444794D01*
X69677186Y-57448222D01*
X69694103Y-57450411D01*
X69744258Y-57455814D01*
X69793585Y-57458448D01*
X69848654Y-57460238D01*
X69856280Y-57460425D01*
X69894870Y-57462135D01*
X69894870Y-57483628D01*
X69875575Y-57520265D01*
X69837718Y-57539316D01*
X69832588Y-57539316D01*
X69781451Y-57530770D01*
X69760537Y-57527836D01*
X69710346Y-57521012D01*
X69688729Y-57518311D01*
X69640003Y-57513044D01*
X69616922Y-57512693D01*
X69567395Y-57514081D01*
X69537299Y-57515380D01*
X69485311Y-57518738D01*
X69436694Y-57524783D01*
X69433740Y-57526127D01*
X69414445Y-57529546D01*
X69373900Y-57523440D01*
X69365840Y-57500481D01*
X69375854Y-57467508D01*
X69409854Y-57428699D01*
X69444172Y-57393734D01*
X69465491Y-57373719D01*
X69486741Y-57353935D01*
X69581751Y-57258681D01*
X69618953Y-57221075D01*
X69652659Y-57185516D01*
X69660642Y-57176371D01*
X69688184Y-57134991D01*
X69691660Y-57128255D01*
X69715534Y-57084106D01*
X69721946Y-57073545D01*
X69731472Y-57054494D01*
X69741974Y-57019078D01*
X69753298Y-56971550D01*
X69755408Y-56955087D01*
X69758339Y-56920893D01*
X69751514Y-56870860D01*
X69734159Y-56833698D01*
X69696691Y-56799521D01*
X69686775Y-56794375D01*
X69640579Y-56775809D01*
X69609839Y-56768241D01*
X69573203Y-56764089D01*
X69536322Y-56777766D01*
X69486985Y-56776789D01*
X69483810Y-56764822D01*
X69496510Y-56731360D01*
X69524354Y-56708157D01*
G37*
G36*
X70257571Y-56755540D02*
G01*
X70306175Y-56764822D01*
X70354535Y-56773859D01*
X70401247Y-56791856D01*
X70408269Y-56805854D01*
X70410223Y-56819532D01*
X70377006Y-56854214D01*
X70348429Y-56844200D01*
X70300464Y-56827341D01*
X70253175Y-56817334D01*
X70226064Y-56813914D01*
X70215806Y-56846643D01*
X70208215Y-56896068D01*
X70204821Y-56946074D01*
X70203459Y-56999834D01*
X70203349Y-57022254D01*
X70205547Y-57064996D01*
X70222400Y-57067927D01*
X70233147Y-57067194D01*
X70247557Y-57066461D01*
X70263189Y-57066461D01*
X70314847Y-57070412D01*
X70361161Y-57086120D01*
X70367725Y-57090397D01*
X70396685Y-57132245D01*
X70401674Y-57146573D01*
X70411944Y-57194427D01*
X70414375Y-57234745D01*
X70410478Y-57284906D01*
X70410223Y-57286524D01*
X70400239Y-57336205D01*
X70387039Y-57385958D01*
X70371388Y-57426475D01*
X70347494Y-57471547D01*
X70318490Y-57512344D01*
X70279412Y-57546148D01*
X70233635Y-57559099D01*
X70185478Y-57547078D01*
X70182100Y-57545422D01*
X70163293Y-57536385D01*
X70118690Y-57514451D01*
X70082693Y-57489979D01*
X70060467Y-57477522D01*
X70049476Y-57471905D01*
X70037997Y-57456029D01*
X70033112Y-57433070D01*
X70053384Y-57393991D01*
X70094173Y-57370300D01*
X70113956Y-57378115D01*
X70113712Y-57417438D01*
X70107362Y-57426475D01*
X70142288Y-57454075D01*
X70184042Y-57480629D01*
X70186985Y-57481919D01*
X70232170Y-57489979D01*
X70279614Y-57475580D01*
X70283949Y-57471172D01*
X70311060Y-57430017D01*
X70329470Y-57383924D01*
X70335240Y-57365659D01*
X70348172Y-57315399D01*
X70356158Y-57265047D01*
X70357955Y-57230348D01*
X70355268Y-57199330D01*
X70337683Y-57159518D01*
X70310816Y-57135094D01*
X70271493Y-57129965D01*
X70221362Y-57133934D01*
X70185275Y-57145840D01*
X70162072Y-57158297D01*
X70149616Y-57145596D01*
X70142288Y-57136559D01*
X70138625Y-57127034D01*
X70137159Y-57109448D01*
X70139846Y-57058401D01*
X70143660Y-56998457D01*
X70147164Y-56947767D01*
X70151548Y-56892349D01*
X70157210Y-56841911D01*
X70158897Y-56834675D01*
X70165247Y-56791444D01*
X70179902Y-56747236D01*
X70227529Y-56747969D01*
X70257571Y-56755540D01*
G37*
G36*
X65235938Y-58403789D02*
G01*
X65256943Y-58401835D01*
X65305823Y-58408094D01*
X65313119Y-58410628D01*
X65351908Y-58443109D01*
X65356106Y-58463140D01*
X65329972Y-58497578D01*
X65307501Y-58487076D01*
X65262908Y-58465423D01*
X65259630Y-58465338D01*
X65212214Y-58483116D01*
X65194173Y-58502951D01*
X65177076Y-58536413D01*
X65171895Y-58586487D01*
X65171702Y-58591367D01*
X65171702Y-58612128D01*
X65184647Y-58655847D01*
X65219186Y-58694083D01*
X65260401Y-58721178D01*
X65310967Y-58740975D01*
X65316538Y-58742554D01*
X65365826Y-58760208D01*
X65406430Y-58789411D01*
X65422784Y-58809476D01*
X65445100Y-58855814D01*
X65456993Y-58905097D01*
X65461618Y-58946741D01*
X65462351Y-58966524D01*
X65463084Y-58983621D01*
X65457955Y-59013175D01*
X65451849Y-59038087D01*
X65439014Y-59087392D01*
X65434996Y-59098660D01*
X65413654Y-59142703D01*
X65410083Y-59146775D01*
X65397383Y-59165826D01*
X65365387Y-59194159D01*
X65322156Y-59213698D01*
X65318248Y-59214431D01*
X65311653Y-59215163D01*
X65263292Y-59208064D01*
X65223482Y-59190006D01*
X65182595Y-59160964D01*
X65163642Y-59145066D01*
X65126903Y-59110243D01*
X65107222Y-59088401D01*
X65081131Y-59045737D01*
X65078890Y-59032958D01*
X65096475Y-58989483D01*
X65124563Y-58971653D01*
X65142149Y-59009023D01*
X65156071Y-59050300D01*
X65190314Y-59087577D01*
X65230699Y-59120649D01*
X65248150Y-59131388D01*
X65295311Y-59145914D01*
X65300418Y-59146043D01*
X65334124Y-59140425D01*
X65369146Y-59105378D01*
X65383461Y-59081563D01*
X65402161Y-59033618D01*
X65410576Y-58982559D01*
X65410816Y-58972386D01*
X65405015Y-58920912D01*
X65389040Y-58873209D01*
X65387613Y-58870048D01*
X65354387Y-58834231D01*
X65310905Y-58811109D01*
X65264270Y-58794089D01*
X65217431Y-58777822D01*
X65210781Y-58774549D01*
X65175122Y-58744508D01*
X65144187Y-58704734D01*
X65123556Y-58660152D01*
X65115526Y-58627759D01*
X65112595Y-58589658D01*
X65118642Y-58539481D01*
X65136781Y-58493336D01*
X65149232Y-58473398D01*
X65183860Y-58434469D01*
X65226668Y-58407389D01*
X65235938Y-58403789D01*
G37*
G36*
X66156001Y-58539344D02*
G01*
X66200453Y-58533726D01*
X66211933Y-58550579D01*
X66198499Y-58578178D01*
X66178387Y-58625538D01*
X66161632Y-58671920D01*
X66159909Y-58676852D01*
X66143723Y-58724732D01*
X66128728Y-58773048D01*
X66116678Y-58816803D01*
X66104171Y-58865889D01*
X66093509Y-58917890D01*
X66084529Y-58969852D01*
X66077093Y-59019191D01*
X66074668Y-59036622D01*
X66067096Y-59091681D01*
X66059788Y-59141068D01*
X66050973Y-59190522D01*
X66049023Y-59198066D01*
X66037132Y-59247074D01*
X66035101Y-59255464D01*
X66020761Y-59302218D01*
X66019958Y-59303579D01*
X65997976Y-59313593D01*
X65973307Y-59294542D01*
X65966468Y-59276468D01*
X65959141Y-59247404D01*
X65949616Y-59199532D01*
X65935724Y-59150409D01*
X65922383Y-59100247D01*
X65909590Y-59049048D01*
X65897348Y-58996810D01*
X65885366Y-58946317D01*
X65875768Y-58896496D01*
X65868283Y-58853928D01*
X65859782Y-58800672D01*
X65853170Y-58750640D01*
X65850697Y-58714954D01*
X65846545Y-58678562D01*
X65844591Y-58659023D01*
X65848011Y-58658534D01*
X65832653Y-58708117D01*
X65812351Y-58755498D01*
X65793237Y-58804799D01*
X65772828Y-58852869D01*
X65752993Y-58898419D01*
X65737613Y-58933307D01*
X65718119Y-58981683D01*
X65701404Y-59030577D01*
X65687467Y-59079990D01*
X65676308Y-59129923D01*
X65663070Y-59179186D01*
X65637623Y-59220998D01*
X65626727Y-59224933D01*
X65622330Y-59224933D01*
X65597662Y-59184877D01*
X65609385Y-59145799D01*
X65615736Y-59129923D01*
X65625017Y-59100125D01*
X65635764Y-59075701D01*
X65645533Y-59036622D01*
X65660734Y-58987501D01*
X65678552Y-58940157D01*
X65684124Y-58926957D01*
X65702930Y-58881100D01*
X65714898Y-58850020D01*
X65733388Y-58803748D01*
X65743475Y-58782854D01*
X65764663Y-58735593D01*
X65782842Y-58686808D01*
X65792079Y-58660244D01*
X65809094Y-58613521D01*
X65811374Y-58606510D01*
X65818457Y-58578422D01*
X65850552Y-58539950D01*
X65857536Y-58537390D01*
X65883914Y-58539344D01*
X65897768Y-58588860D01*
X65901320Y-58642690D01*
X65901500Y-58648520D01*
X65904537Y-58697507D01*
X65909363Y-58746897D01*
X65912002Y-58770153D01*
X65918711Y-58821089D01*
X65927981Y-58870083D01*
X65929588Y-58875910D01*
X65936671Y-58920362D01*
X65944410Y-58971004D01*
X65948394Y-58988506D01*
X65960527Y-59036423D01*
X65973496Y-59084148D01*
X65976482Y-59094752D01*
X65990009Y-59141982D01*
X65995533Y-59161674D01*
X65996022Y-59172909D01*
X66007803Y-59123240D01*
X66018004Y-59075022D01*
X66023866Y-59038087D01*
X66032390Y-58988785D01*
X66041080Y-58939742D01*
X66048046Y-58900579D01*
X66058910Y-58851712D01*
X66062700Y-58834877D01*
X66074146Y-58786758D01*
X66084438Y-58745484D01*
X66097023Y-58697315D01*
X66102756Y-58676364D01*
X66115483Y-58627649D01*
X66120097Y-58612616D01*
X66130844Y-58573049D01*
X66156001Y-58539344D01*
G37*
G36*
X66436147Y-58558883D02*
G01*
X66461304Y-58549602D01*
X66499406Y-58559371D01*
X66521159Y-58604709D01*
X66522609Y-58627759D01*
X66514682Y-58678274D01*
X66494521Y-58702009D01*
X66464724Y-58711535D01*
X66440055Y-58696147D01*
X66422624Y-58649132D01*
X66422470Y-58643147D01*
X66427599Y-58613593D01*
X66432484Y-58584040D01*
X66436147Y-58558883D01*
G37*
G36*
X66388032Y-59096706D02*
G01*
X66424668Y-59074235D01*
X66448115Y-59108918D01*
X66448115Y-59117466D01*
X66451046Y-59127725D01*
X66464724Y-59154347D01*
X66461793Y-59169734D01*
X66460572Y-59185122D01*
X66435474Y-59227834D01*
X66420272Y-59235680D01*
X66402198Y-59239099D01*
X66359211Y-59219071D01*
X66350907Y-59189030D01*
X66361384Y-59139131D01*
X66388032Y-59096706D01*
G37*
D10*
X68686741Y-62921254D02*
X69073789Y-62921254D01*
X68880265Y-63114778D02*
X68880265Y-62727730D01*
X70742932Y-62630968D02*
X70694551Y-62606778D01*
X70694551Y-62606778D02*
X70621980Y-62606778D01*
X70621980Y-62606778D02*
X70549408Y-62630968D01*
X70549408Y-62630968D02*
X70501027Y-62679349D01*
X70501027Y-62679349D02*
X70476837Y-62727730D01*
X70476837Y-62727730D02*
X70452646Y-62824492D01*
X70452646Y-62824492D02*
X70452646Y-62897064D01*
X70452646Y-62897064D02*
X70476837Y-62993826D01*
X70476837Y-62993826D02*
X70501027Y-63042207D01*
X70501027Y-63042207D02*
X70549408Y-63090588D01*
X70549408Y-63090588D02*
X70621980Y-63114778D01*
X70621980Y-63114778D02*
X70670361Y-63114778D01*
X70670361Y-63114778D02*
X70742932Y-63090588D01*
X70742932Y-63090588D02*
X70767123Y-63066397D01*
X70767123Y-63066397D02*
X70767123Y-62897064D01*
X70767123Y-62897064D02*
X70670361Y-62897064D01*
X70984837Y-63114778D02*
X70984837Y-62606778D01*
X70984837Y-62606778D02*
X71275123Y-63114778D01*
X71275123Y-63114778D02*
X71275123Y-62606778D01*
X71517027Y-63114778D02*
X71517027Y-62606778D01*
X71517027Y-62606778D02*
X71637979Y-62606778D01*
X71637979Y-62606778D02*
X71710551Y-62630968D01*
X71710551Y-62630968D02*
X71758932Y-62679349D01*
X71758932Y-62679349D02*
X71783122Y-62727730D01*
X71783122Y-62727730D02*
X71807313Y-62824492D01*
X71807313Y-62824492D02*
X71807313Y-62897064D01*
X71807313Y-62897064D02*
X71783122Y-62993826D01*
X71783122Y-62993826D02*
X71758932Y-63042207D01*
X71758932Y-63042207D02*
X71710551Y-63090588D01*
X71710551Y-63090588D02*
X71637979Y-63114778D01*
X71637979Y-63114778D02*
X71517027Y-63114778D01*
X68783503Y-63424630D02*
X68880265Y-63424630D01*
X68880265Y-63424630D02*
X68928646Y-63448820D01*
X68928646Y-63448820D02*
X68977027Y-63497201D01*
X68977027Y-63497201D02*
X69001217Y-63593963D01*
X69001217Y-63593963D02*
X69001217Y-63763297D01*
X69001217Y-63763297D02*
X68977027Y-63860059D01*
X68977027Y-63860059D02*
X68928646Y-63908440D01*
X68928646Y-63908440D02*
X68880265Y-63932630D01*
X68880265Y-63932630D02*
X68783503Y-63932630D01*
X68783503Y-63932630D02*
X68735122Y-63908440D01*
X68735122Y-63908440D02*
X68686741Y-63860059D01*
X68686741Y-63860059D02*
X68662550Y-63763297D01*
X68662550Y-63763297D02*
X68662550Y-63593963D01*
X68662550Y-63593963D02*
X68686741Y-63497201D01*
X68686741Y-63497201D02*
X68735122Y-63448820D01*
X68735122Y-63448820D02*
X68783503Y-63424630D01*
X69218931Y-63424630D02*
X69218931Y-63835868D01*
X69218931Y-63835868D02*
X69243121Y-63884249D01*
X69243121Y-63884249D02*
X69267312Y-63908440D01*
X69267312Y-63908440D02*
X69315693Y-63932630D01*
X69315693Y-63932630D02*
X69412455Y-63932630D01*
X69412455Y-63932630D02*
X69460836Y-63908440D01*
X69460836Y-63908440D02*
X69485026Y-63884249D01*
X69485026Y-63884249D02*
X69509217Y-63835868D01*
X69509217Y-63835868D02*
X69509217Y-63424630D01*
X69678549Y-63424630D02*
X69968835Y-63424630D01*
X69823692Y-63932630D02*
X69823692Y-63424630D01*
X70138169Y-63932630D02*
X70138169Y-63424630D01*
X70138169Y-63424630D02*
X70331693Y-63424630D01*
X70331693Y-63424630D02*
X70380074Y-63448820D01*
X70380074Y-63448820D02*
X70404264Y-63473011D01*
X70404264Y-63473011D02*
X70428455Y-63521392D01*
X70428455Y-63521392D02*
X70428455Y-63593963D01*
X70428455Y-63593963D02*
X70404264Y-63642344D01*
X70404264Y-63642344D02*
X70380074Y-63666535D01*
X70380074Y-63666535D02*
X70331693Y-63690725D01*
X70331693Y-63690725D02*
X70138169Y-63690725D01*
X70646169Y-63424630D02*
X70646169Y-63835868D01*
X70646169Y-63835868D02*
X70670359Y-63884249D01*
X70670359Y-63884249D02*
X70694550Y-63908440D01*
X70694550Y-63908440D02*
X70742931Y-63932630D01*
X70742931Y-63932630D02*
X70839693Y-63932630D01*
X70839693Y-63932630D02*
X70888074Y-63908440D01*
X70888074Y-63908440D02*
X70912264Y-63884249D01*
X70912264Y-63884249D02*
X70936455Y-63835868D01*
X70936455Y-63835868D02*
X70936455Y-63424630D01*
X71105787Y-63424630D02*
X71396073Y-63424630D01*
X71250930Y-63932630D02*
X71250930Y-63424630D01*
D12*
X65849819Y-61333332D02*
X66564104Y-61333332D01*
X66564104Y-61333332D02*
X66706961Y-61380951D01*
X66706961Y-61380951D02*
X66802200Y-61476189D01*
X66802200Y-61476189D02*
X66849819Y-61619046D01*
X66849819Y-61619046D02*
X66849819Y-61714284D01*
X65945057Y-60904760D02*
X65897438Y-60857141D01*
X65897438Y-60857141D02*
X65849819Y-60761903D01*
X65849819Y-60761903D02*
X65849819Y-60523808D01*
X65849819Y-60523808D02*
X65897438Y-60428570D01*
X65897438Y-60428570D02*
X65945057Y-60380951D01*
X65945057Y-60380951D02*
X66040295Y-60333332D01*
X66040295Y-60333332D02*
X66135533Y-60333332D01*
X66135533Y-60333332D02*
X66278390Y-60380951D01*
X66278390Y-60380951D02*
X66849819Y-60952379D01*
X66849819Y-60952379D02*
X66849819Y-60333332D01*
X71634819Y-53738094D02*
X70634819Y-53738094D01*
X70634819Y-53738094D02*
X70634819Y-53499999D01*
X70634819Y-53499999D02*
X70682438Y-53357142D01*
X70682438Y-53357142D02*
X70777676Y-53261904D01*
X70777676Y-53261904D02*
X70872914Y-53214285D01*
X70872914Y-53214285D02*
X71063390Y-53166666D01*
X71063390Y-53166666D02*
X71206247Y-53166666D01*
X71206247Y-53166666D02*
X71396723Y-53214285D01*
X71396723Y-53214285D02*
X71491961Y-53261904D01*
X71491961Y-53261904D02*
X71587200Y-53357142D01*
X71587200Y-53357142D02*
X71634819Y-53499999D01*
X71634819Y-53499999D02*
X71634819Y-53738094D01*
X70968152Y-52309523D02*
X71634819Y-52309523D01*
X70587200Y-52547618D02*
X71301485Y-52785713D01*
X71301485Y-52785713D02*
X71301485Y-52166666D01*
X67454819Y-45888094D02*
X66454819Y-45888094D01*
X66454819Y-45888094D02*
X66454819Y-45649999D01*
X66454819Y-45649999D02*
X66502438Y-45507142D01*
X66502438Y-45507142D02*
X66597676Y-45411904D01*
X66597676Y-45411904D02*
X66692914Y-45364285D01*
X66692914Y-45364285D02*
X66883390Y-45316666D01*
X66883390Y-45316666D02*
X67026247Y-45316666D01*
X67026247Y-45316666D02*
X67216723Y-45364285D01*
X67216723Y-45364285D02*
X67311961Y-45411904D01*
X67311961Y-45411904D02*
X67407200Y-45507142D01*
X67407200Y-45507142D02*
X67454819Y-45649999D01*
X67454819Y-45649999D02*
X67454819Y-45888094D01*
X67454819Y-44364285D02*
X67454819Y-44935713D01*
X67454819Y-44649999D02*
X66454819Y-44649999D01*
X66454819Y-44649999D02*
X66597676Y-44745237D01*
X66597676Y-44745237D02*
X66692914Y-44840475D01*
X66692914Y-44840475D02*
X66740533Y-44935713D01*
X66634819Y-53738094D02*
X65634819Y-53738094D01*
X65634819Y-53738094D02*
X65634819Y-53499999D01*
X65634819Y-53499999D02*
X65682438Y-53357142D01*
X65682438Y-53357142D02*
X65777676Y-53261904D01*
X65777676Y-53261904D02*
X65872914Y-53214285D01*
X65872914Y-53214285D02*
X66063390Y-53166666D01*
X66063390Y-53166666D02*
X66206247Y-53166666D01*
X66206247Y-53166666D02*
X66396723Y-53214285D01*
X66396723Y-53214285D02*
X66491961Y-53261904D01*
X66491961Y-53261904D02*
X66587200Y-53357142D01*
X66587200Y-53357142D02*
X66634819Y-53499999D01*
X66634819Y-53499999D02*
X66634819Y-53738094D01*
X65634819Y-52833332D02*
X65634819Y-52214285D01*
X65634819Y-52214285D02*
X66015771Y-52547618D01*
X66015771Y-52547618D02*
X66015771Y-52404761D01*
X66015771Y-52404761D02*
X66063390Y-52309523D01*
X66063390Y-52309523D02*
X66111009Y-52261904D01*
X66111009Y-52261904D02*
X66206247Y-52214285D01*
X66206247Y-52214285D02*
X66444342Y-52214285D01*
X66444342Y-52214285D02*
X66539580Y-52261904D01*
X66539580Y-52261904D02*
X66587200Y-52309523D01*
X66587200Y-52309523D02*
X66634819Y-52404761D01*
X66634819Y-52404761D02*
X66634819Y-52690475D01*
X66634819Y-52690475D02*
X66587200Y-52785713D01*
X66587200Y-52785713D02*
X66539580Y-52833332D01*
X58060496Y-43796197D02*
X58060496Y-43863541D01*
X58060496Y-43863541D02*
X57993152Y-43998228D01*
X57993152Y-43998228D02*
X57925809Y-44065571D01*
X57925809Y-44065571D02*
X57791122Y-44132915D01*
X57791122Y-44132915D02*
X57656435Y-44132915D01*
X57656435Y-44132915D02*
X57555420Y-44099243D01*
X57555420Y-44099243D02*
X57387061Y-43998228D01*
X57387061Y-43998228D02*
X57286046Y-43897213D01*
X57286046Y-43897213D02*
X57185030Y-43728854D01*
X57185030Y-43728854D02*
X57151359Y-43627839D01*
X57151359Y-43627839D02*
X57151359Y-43493152D01*
X57151359Y-43493152D02*
X57218702Y-43358465D01*
X57218702Y-43358465D02*
X57286046Y-43291121D01*
X57286046Y-43291121D02*
X57420733Y-43223778D01*
X57420733Y-43223778D02*
X57488076Y-43223778D01*
X58801274Y-43190106D02*
X58397213Y-43594167D01*
X58599244Y-43392136D02*
X57892137Y-42685030D01*
X57892137Y-42685030D02*
X57925809Y-42853388D01*
X57925809Y-42853388D02*
X57925809Y-42988075D01*
X57925809Y-42988075D02*
X57892137Y-43089091D01*
X56654819Y-53683333D02*
X57369104Y-53683333D01*
X57369104Y-53683333D02*
X57511961Y-53730952D01*
X57511961Y-53730952D02*
X57607200Y-53826190D01*
X57607200Y-53826190D02*
X57654819Y-53969047D01*
X57654819Y-53969047D02*
X57654819Y-54064285D01*
X57654819Y-53207142D02*
X56654819Y-53207142D01*
X56654819Y-53207142D02*
X56654819Y-52826190D01*
X56654819Y-52826190D02*
X56702438Y-52730952D01*
X56702438Y-52730952D02*
X56750057Y-52683333D01*
X56750057Y-52683333D02*
X56845295Y-52635714D01*
X56845295Y-52635714D02*
X56988152Y-52635714D01*
X56988152Y-52635714D02*
X57083390Y-52683333D01*
X57083390Y-52683333D02*
X57131009Y-52730952D01*
X57131009Y-52730952D02*
X57178628Y-52826190D01*
X57178628Y-52826190D02*
X57178628Y-53207142D01*
X56750057Y-52254761D02*
X56702438Y-52207142D01*
X56702438Y-52207142D02*
X56654819Y-52111904D01*
X56654819Y-52111904D02*
X56654819Y-51873809D01*
X56654819Y-51873809D02*
X56702438Y-51778571D01*
X56702438Y-51778571D02*
X56750057Y-51730952D01*
X56750057Y-51730952D02*
X56845295Y-51683333D01*
X56845295Y-51683333D02*
X56940533Y-51683333D01*
X56940533Y-51683333D02*
X57083390Y-51730952D01*
X57083390Y-51730952D02*
X57654819Y-52302380D01*
X57654819Y-52302380D02*
X57654819Y-51683333D01*
X81794613Y-43651305D02*
X81727269Y-43651305D01*
X81727269Y-43651305D02*
X81592582Y-43583961D01*
X81592582Y-43583961D02*
X81525239Y-43516618D01*
X81525239Y-43516618D02*
X81457895Y-43381931D01*
X81457895Y-43381931D02*
X81457895Y-43247244D01*
X81457895Y-43247244D02*
X81491567Y-43146229D01*
X81491567Y-43146229D02*
X81592582Y-42977870D01*
X81592582Y-42977870D02*
X81693597Y-42876855D01*
X81693597Y-42876855D02*
X81861956Y-42775839D01*
X81861956Y-42775839D02*
X81962971Y-42742168D01*
X81962971Y-42742168D02*
X82097658Y-42742168D01*
X82097658Y-42742168D02*
X82232345Y-42809511D01*
X82232345Y-42809511D02*
X82299689Y-42876855D01*
X82299689Y-42876855D02*
X82367032Y-43011542D01*
X82367032Y-43011542D02*
X82367032Y-43078885D01*
X82636406Y-43348259D02*
X82703750Y-43348259D01*
X82703750Y-43348259D02*
X82804765Y-43381931D01*
X82804765Y-43381931D02*
X82973124Y-43550290D01*
X82973124Y-43550290D02*
X83006796Y-43651305D01*
X83006796Y-43651305D02*
X83006796Y-43718648D01*
X83006796Y-43718648D02*
X82973124Y-43819664D01*
X82973124Y-43819664D02*
X82905780Y-43887007D01*
X82905780Y-43887007D02*
X82771093Y-43954351D01*
X82771093Y-43954351D02*
X81962971Y-43954351D01*
X81962971Y-43954351D02*
X82400704Y-44392083D01*
X82954819Y-54333333D02*
X83669104Y-54333333D01*
X83669104Y-54333333D02*
X83811961Y-54380952D01*
X83811961Y-54380952D02*
X83907200Y-54476190D01*
X83907200Y-54476190D02*
X83954819Y-54619047D01*
X83954819Y-54619047D02*
X83954819Y-54714285D01*
X83954819Y-53857142D02*
X82954819Y-53857142D01*
X82954819Y-53857142D02*
X82954819Y-53476190D01*
X82954819Y-53476190D02*
X83002438Y-53380952D01*
X83002438Y-53380952D02*
X83050057Y-53333333D01*
X83050057Y-53333333D02*
X83145295Y-53285714D01*
X83145295Y-53285714D02*
X83288152Y-53285714D01*
X83288152Y-53285714D02*
X83383390Y-53333333D01*
X83383390Y-53333333D02*
X83431009Y-53380952D01*
X83431009Y-53380952D02*
X83478628Y-53476190D01*
X83478628Y-53476190D02*
X83478628Y-53857142D01*
X83954819Y-52333333D02*
X83954819Y-52904761D01*
X83954819Y-52619047D02*
X82954819Y-52619047D01*
X82954819Y-52619047D02*
X83097676Y-52714285D01*
X83097676Y-52714285D02*
X83192914Y-52809523D01*
X83192914Y-52809523D02*
X83240533Y-52904761D01*
X74454822Y-45888095D02*
X73454822Y-45888095D01*
X73454822Y-45888095D02*
X73454822Y-45650000D01*
X73454822Y-45650000D02*
X73502441Y-45507143D01*
X73502441Y-45507143D02*
X73597679Y-45411905D01*
X73597679Y-45411905D02*
X73692917Y-45364286D01*
X73692917Y-45364286D02*
X73883393Y-45316667D01*
X73883393Y-45316667D02*
X74026250Y-45316667D01*
X74026250Y-45316667D02*
X74216726Y-45364286D01*
X74216726Y-45364286D02*
X74311964Y-45411905D01*
X74311964Y-45411905D02*
X74407203Y-45507143D01*
X74407203Y-45507143D02*
X74454822Y-45650000D01*
X74454822Y-45650000D02*
X74454822Y-45888095D01*
X73550060Y-44935714D02*
X73502441Y-44888095D01*
X73502441Y-44888095D02*
X73454822Y-44792857D01*
X73454822Y-44792857D02*
X73454822Y-44554762D01*
X73454822Y-44554762D02*
X73502441Y-44459524D01*
X73502441Y-44459524D02*
X73550060Y-44411905D01*
X73550060Y-44411905D02*
X73645298Y-44364286D01*
X73645298Y-44364286D02*
X73740536Y-44364286D01*
X73740536Y-44364286D02*
X73883393Y-44411905D01*
X73883393Y-44411905D02*
X74454822Y-44983333D01*
X74454822Y-44983333D02*
X74454822Y-44364286D01*
D13*
%TO.C,J2*%
X67395000Y-62330000D02*
X67395000Y-61000000D01*
X68725000Y-62330000D02*
X67395000Y-62330000D01*
X69995000Y-59669999D02*
X72595000Y-59670000D01*
X69995000Y-62330000D02*
X69995000Y-59669999D01*
X69995000Y-62330000D02*
X72595000Y-62330000D01*
X72595000Y-62330000D02*
X72595000Y-59670000D01*
%TO.C,D4*%
X71865000Y-51400000D02*
X71865000Y-55285000D01*
X71865000Y-55285000D02*
X74135000Y-55285000D01*
X74135000Y-55285000D02*
X74135000Y-51400000D01*
%TO.C,D1*%
X68000000Y-47510000D02*
X68000000Y-43500000D01*
X68000000Y-47510000D02*
X70000000Y-47510000D01*
X70000000Y-47510000D02*
X70000000Y-43500000D01*
%TO.C,D3*%
X66865000Y-51400000D02*
X66865000Y-55285000D01*
X66865000Y-55285000D02*
X69135000Y-55285000D01*
X69135000Y-55285000D02*
X69135000Y-51400000D01*
%TO.C,C1*%
X56555834Y-47774560D02*
X57112680Y-48331405D01*
X56555834Y-48331407D02*
X57112680Y-47774560D01*
X56930203Y-45747329D02*
X61000000Y-41677530D01*
X56930204Y-47252670D02*
X56930203Y-45747329D01*
X56930204Y-47252670D02*
X57839232Y-48161702D01*
X60247329Y-50569797D02*
X59338298Y-49660768D01*
X60247329Y-50569797D02*
X61752670Y-50569796D01*
X61000000Y-41677530D02*
X62661702Y-43339232D01*
X61752670Y-50569796D02*
X65822470Y-46500000D01*
X65822470Y-46500000D02*
X64160768Y-44838298D01*
%TO.C,JP2*%
X58000000Y-53550000D02*
X58000000Y-52150000D01*
X58700000Y-51450000D02*
X59300000Y-51450000D01*
X59300000Y-54250000D02*
X58700000Y-54250000D01*
X60000000Y-52150000D02*
X60000000Y-53550000D01*
X58000000Y-52150000D02*
G75*
G02*
X58700000Y-51450000I700000J0D01*
G01*
X58700000Y-54250000D02*
G75*
G02*
X58000000Y-53550000I-1J699999D01*
G01*
X59300000Y-51450000D02*
G75*
G02*
X60000000Y-52150000I0J-700000D01*
G01*
X60000000Y-53550000D02*
G75*
G02*
X59300000Y-54250000I-699999J-1D01*
G01*
%TO.C,C2*%
X75021014Y-45838138D02*
X75021015Y-47343479D01*
X75021014Y-45838138D02*
X75930043Y-44929107D01*
X75021015Y-47343479D02*
X79090811Y-51413279D01*
X77259404Y-42146643D02*
X77816251Y-42703489D01*
X77816251Y-42146643D02*
X77259406Y-42703489D01*
X78338141Y-42521013D02*
X77429109Y-43430041D01*
X78338141Y-42521013D02*
X79843482Y-42521012D01*
X79090811Y-51413279D02*
X80752513Y-49751577D01*
X79843482Y-42521012D02*
X83913281Y-46590809D01*
X83913281Y-46590809D02*
X82251579Y-48252511D01*
%TO.C,JP1*%
X80500001Y-55199999D02*
X80500000Y-53800000D01*
X81200000Y-53099998D02*
X81799999Y-53100002D01*
X81800000Y-55900002D02*
X81200001Y-55899998D01*
X82499999Y-53800001D02*
X82500000Y-55200000D01*
X80500000Y-53800000D02*
G75*
G02*
X81200000Y-53100000I700000J0D01*
G01*
X81200001Y-55899998D02*
G75*
G02*
X80500001Y-55199999I-3J699997D01*
G01*
X81799999Y-53100002D02*
G75*
G02*
X82499999Y-53800001I-1J-700001D01*
G01*
X82500000Y-55200000D02*
G75*
G02*
X81800000Y-55900002I-700003J1D01*
G01*
%TO.C,D2*%
X70999998Y-42790001D02*
X71000000Y-46800000D01*
X73000000Y-42790001D02*
X70999998Y-42790001D01*
X73000000Y-42790001D02*
X73000000Y-46799999D01*
%TD*%
M02*
