%TF.GenerationSoftware,KiCad,Pcbnew,9.0.4*%
%TF.CreationDate,2026-04-30T00:13:39-07:00*%
%TF.ProjectId,REV2_Dyno_Rectifier_PCB,52455632-5f44-4796-9e6f-5f5265637469,rev?*%
%TF.SameCoordinates,Original*%
%TF.FileFunction,Legend,Top*%
%TF.FilePolarity,Positive*%
%FSLAX46Y46*%
G04 Gerber Fmt 4.6, Leading zero omitted, Abs format (unit mm)*
G04 Created by KiCad (PCBNEW 9.0.4) date 2026-04-30 00:13:39*
%MOMM*%
%LPD*%
G01*
G04 APERTURE LIST*
G04 Aperture macros list*
%AMRoundRect*
0 Rectangle with rounded corners*
0 $1 Rounding radius*
0 $2 $3 $4 $5 $6 $7 $8 $9 X,Y pos of 4 corners*
0 Add a 4 corners polygon primitive as box body*
4,1,4,$2,$3,$4,$5,$6,$7,$8,$9,$2,$3,0*
0 Add four circle primitives for the rounded corners*
1,1,$1+$1,$2,$3*
1,1,$1+$1,$4,$5*
1,1,$1+$1,$6,$7*
1,1,$1+$1,$8,$9*
0 Add four rect primitives between the rounded corners*
20,1,$1+$1,$2,$3,$4,$5,0*
20,1,$1+$1,$4,$5,$6,$7,0*
20,1,$1+$1,$6,$7,$8,$9,0*
20,1,$1+$1,$8,$9,$2,$3,0*%
G04 Aperture macros list end*
%ADD10C,0.100000*%
%ADD11C,0.200000*%
%ADD12C,0.150000*%
%ADD13C,0.120000*%
%ADD14RoundRect,0.250000X0.750000X0.750000X-0.750000X0.750000X-0.750000X-0.750000X0.750000X-0.750000X0*%
%ADD15C,2.000000*%
%ADD16RoundRect,0.875000X0.875000X0.875000X-0.875000X0.875000X-0.875000X-0.875000X0.875000X-0.875000X0*%
%ADD17RoundRect,0.750000X0.750000X1.000000X-0.750000X1.000000X-0.750000X-1.000000X0.750000X-1.000000X0*%
%ADD18R,3.500000X3.500000*%
%ADD19RoundRect,0.250000X-0.550000X1.500000X-0.550000X-1.500000X0.550000X-1.500000X0.550000X1.500000X0*%
%ADD20RoundRect,0.225000X0.375000X-0.225000X0.375000X0.225000X-0.375000X0.225000X-0.375000X-0.225000X0*%
G04 APERTURE END LIST*
D10*
X76600000Y-36200000D02*
X76600000Y-56200000D01*
X76600000Y-37200000D02*
X76600000Y-36200000D01*
X79200000Y-37200000D02*
X76600000Y-37200000D01*
X56800000Y-36200000D02*
X56800000Y-56400000D01*
X56800000Y-37200000D02*
X56800000Y-36200000D01*
X54200000Y-37200000D02*
X56800000Y-37200000D01*
X39000000Y-36400000D02*
X46000000Y-36400000D01*
X46000000Y-37400000D01*
X39000000Y-37400000D01*
X39000000Y-36400000D01*
G36*
X39000000Y-36400000D02*
G01*
X46000000Y-36400000D01*
X46000000Y-37400000D01*
X39000000Y-37400000D01*
X39000000Y-36400000D01*
G37*
X69936741Y-25114778D02*
X69936741Y-24606778D01*
X69936741Y-24606778D02*
X70057693Y-24606778D01*
X70057693Y-24606778D02*
X70130265Y-24630968D01*
X70130265Y-24630968D02*
X70178646Y-24679349D01*
X70178646Y-24679349D02*
X70202836Y-24727730D01*
X70202836Y-24727730D02*
X70227027Y-24824492D01*
X70227027Y-24824492D02*
X70227027Y-24897064D01*
X70227027Y-24897064D02*
X70202836Y-24993826D01*
X70202836Y-24993826D02*
X70178646Y-25042207D01*
X70178646Y-25042207D02*
X70130265Y-25090588D01*
X70130265Y-25090588D02*
X70057693Y-25114778D01*
X70057693Y-25114778D02*
X69936741Y-25114778D01*
X70541503Y-24872873D02*
X70541503Y-25114778D01*
X70372169Y-24606778D02*
X70541503Y-24872873D01*
X70541503Y-24872873D02*
X70710836Y-24606778D01*
X70880170Y-25114778D02*
X70880170Y-24606778D01*
X70880170Y-24606778D02*
X71170456Y-25114778D01*
X71170456Y-25114778D02*
X71170456Y-24606778D01*
X71388169Y-24969635D02*
X71630074Y-24969635D01*
X71339788Y-25114778D02*
X71509122Y-24606778D01*
X71509122Y-24606778D02*
X71678455Y-25114778D01*
X71847789Y-25114778D02*
X71847789Y-24606778D01*
X71847789Y-24606778D02*
X72017122Y-24969635D01*
X72017122Y-24969635D02*
X72186456Y-24606778D01*
X72186456Y-24606778D02*
X72186456Y-25114778D01*
X72525122Y-24606778D02*
X72621884Y-24606778D01*
X72621884Y-24606778D02*
X72670265Y-24630968D01*
X72670265Y-24630968D02*
X72718646Y-24679349D01*
X72718646Y-24679349D02*
X72742836Y-24776111D01*
X72742836Y-24776111D02*
X72742836Y-24945445D01*
X72742836Y-24945445D02*
X72718646Y-25042207D01*
X72718646Y-25042207D02*
X72670265Y-25090588D01*
X72670265Y-25090588D02*
X72621884Y-25114778D01*
X72621884Y-25114778D02*
X72525122Y-25114778D01*
X72525122Y-25114778D02*
X72476741Y-25090588D01*
X72476741Y-25090588D02*
X72428360Y-25042207D01*
X72428360Y-25042207D02*
X72404169Y-24945445D01*
X72404169Y-24945445D02*
X72404169Y-24776111D01*
X72404169Y-24776111D02*
X72428360Y-24679349D01*
X72428360Y-24679349D02*
X72476741Y-24630968D01*
X72476741Y-24630968D02*
X72525122Y-24606778D01*
X69936741Y-25932630D02*
X69936741Y-25424630D01*
X70178646Y-25932630D02*
X70178646Y-25424630D01*
X70178646Y-25424630D02*
X70468932Y-25932630D01*
X70468932Y-25932630D02*
X70468932Y-25424630D01*
X70710836Y-25932630D02*
X70710836Y-25424630D01*
X70710836Y-25424630D02*
X70904360Y-25424630D01*
X70904360Y-25424630D02*
X70952741Y-25448820D01*
X70952741Y-25448820D02*
X70976931Y-25473011D01*
X70976931Y-25473011D02*
X71001122Y-25521392D01*
X71001122Y-25521392D02*
X71001122Y-25593963D01*
X71001122Y-25593963D02*
X70976931Y-25642344D01*
X70976931Y-25642344D02*
X70952741Y-25666535D01*
X70952741Y-25666535D02*
X70904360Y-25690725D01*
X70904360Y-25690725D02*
X70710836Y-25690725D01*
X71218836Y-25424630D02*
X71218836Y-25835868D01*
X71218836Y-25835868D02*
X71243026Y-25884249D01*
X71243026Y-25884249D02*
X71267217Y-25908440D01*
X71267217Y-25908440D02*
X71315598Y-25932630D01*
X71315598Y-25932630D02*
X71412360Y-25932630D01*
X71412360Y-25932630D02*
X71460741Y-25908440D01*
X71460741Y-25908440D02*
X71484931Y-25884249D01*
X71484931Y-25884249D02*
X71509122Y-25835868D01*
X71509122Y-25835868D02*
X71509122Y-25424630D01*
X71678454Y-25424630D02*
X71968740Y-25424630D01*
X71823597Y-25932630D02*
X71823597Y-25424630D01*
D11*
G36*
X36890273Y-32946577D02*
G01*
X36899354Y-32961557D01*
X36902224Y-33030678D01*
X36896606Y-33207021D01*
X36892393Y-33288660D01*
X36910101Y-33278829D01*
X36928513Y-33273054D01*
X36948386Y-33274982D01*
X36967054Y-33284083D01*
X36992472Y-33304108D01*
X37015154Y-33328200D01*
X37029352Y-33350148D01*
X37037609Y-33377813D01*
X37040710Y-33415361D01*
X37036942Y-33467354D01*
X37026686Y-33508010D01*
X37011034Y-33539619D01*
X36993958Y-33557179D01*
X36968362Y-33568940D01*
X36931045Y-33574057D01*
X36903934Y-33575950D01*
X36895019Y-33585537D01*
X36887997Y-33596523D01*
X36882074Y-33599214D01*
X36873185Y-33595980D01*
X36860947Y-33583094D01*
X36852121Y-33567260D01*
X36850750Y-33556533D01*
X36848123Y-33542798D01*
X36839942Y-33529911D01*
X36829861Y-33512419D01*
X36826936Y-33497915D01*
X36831585Y-33480472D01*
X36845010Y-33470926D01*
X36854902Y-33467201D01*
X36854902Y-33457370D01*
X36902224Y-33457370D01*
X36904164Y-33504180D01*
X36907231Y-33514706D01*
X36935380Y-33521179D01*
X36956595Y-33518674D01*
X36973115Y-33509028D01*
X36983942Y-33495726D01*
X36994975Y-33472697D01*
X37002342Y-33447406D01*
X37004623Y-33425191D01*
X37001067Y-33395382D01*
X36990988Y-33371075D01*
X36974459Y-33351003D01*
X36948935Y-33332013D01*
X36945027Y-33332013D01*
X36931525Y-33336272D01*
X36919137Y-33350861D01*
X36907719Y-33382205D01*
X36902224Y-33457370D01*
X36854902Y-33457370D01*
X36854902Y-33320228D01*
X36852154Y-33004117D01*
X36852154Y-32991477D01*
X36855896Y-32960240D01*
X36864353Y-32946165D01*
X36876456Y-32941957D01*
X36890273Y-32946577D01*
G37*
G36*
X37367384Y-33079282D02*
G01*
X37360057Y-33055835D01*
X37363639Y-33037923D01*
X37373142Y-33028118D01*
X37390038Y-33024511D01*
X37392908Y-33024511D01*
X37408967Y-33029396D01*
X37412936Y-33048630D01*
X37410468Y-33068394D01*
X37401029Y-33081114D01*
X37386955Y-33088597D01*
X37376516Y-33087711D01*
X37367384Y-33079282D01*
G37*
G36*
X37334351Y-33202503D02*
G01*
X37353646Y-33192367D01*
X37365117Y-33200139D01*
X37375200Y-33236209D01*
X37375872Y-33242437D01*
X37376605Y-33247505D01*
X37370064Y-33274215D01*
X37346685Y-33307527D01*
X37333129Y-33331891D01*
X37309316Y-33395150D01*
X37282693Y-33472025D01*
X37270054Y-33514157D01*
X37261398Y-33546372D01*
X37257658Y-33605626D01*
X37259002Y-33627486D01*
X37265389Y-33642077D01*
X37278175Y-33658932D01*
X37293699Y-33673210D01*
X37306995Y-33680853D01*
X37320062Y-33683417D01*
X37332242Y-33680004D01*
X37345814Y-33667983D01*
X37361706Y-33642506D01*
X37377382Y-33617720D01*
X37383016Y-33613503D01*
X37388986Y-33615749D01*
X37395106Y-33624066D01*
X37400357Y-33644827D01*
X37397765Y-33660508D01*
X37387595Y-33686898D01*
X37374198Y-33712093D01*
X37363415Y-33725976D01*
X37349600Y-33736103D01*
X37336854Y-33739105D01*
X37299973Y-33733426D01*
X37270995Y-33721592D01*
X37248575Y-33704168D01*
X37231646Y-33680730D01*
X37223236Y-33669317D01*
X37211680Y-33662046D01*
X37193728Y-33651177D01*
X37190797Y-33630722D01*
X37195498Y-33611366D01*
X37203778Y-33592796D01*
X37217419Y-33536688D01*
X37231524Y-33488939D01*
X37276282Y-33363032D01*
X37302843Y-33285912D01*
X37315059Y-33250555D01*
X37318108Y-33230713D01*
X37322089Y-33214855D01*
X37334351Y-33202503D01*
G37*
G36*
X37613520Y-33022984D02*
G01*
X37618607Y-33016912D01*
X37628358Y-33014680D01*
X37639009Y-33016608D01*
X37647531Y-33022252D01*
X37651556Y-33032112D01*
X37653698Y-33062857D01*
X37653698Y-33095097D01*
X37649712Y-33155807D01*
X37646676Y-33171057D01*
X37642463Y-33212517D01*
X37635441Y-33273089D01*
X37630922Y-33305085D01*
X37632707Y-33310938D01*
X37626709Y-33321388D01*
X37620961Y-33336438D01*
X37618710Y-33359429D01*
X37620115Y-33367245D01*
X37674153Y-33317419D01*
X37731383Y-33268275D01*
X37784979Y-33231873D01*
X37837358Y-33199636D01*
X37862953Y-33192367D01*
X37872293Y-33194849D01*
X37877424Y-33202015D01*
X37880294Y-33226500D01*
X37877277Y-33259119D01*
X37870219Y-33276509D01*
X37858679Y-33292018D01*
X37845184Y-33288354D01*
X37837257Y-33281678D01*
X37834438Y-33269914D01*
X37834987Y-33260633D01*
X37824849Y-33263233D01*
X37805068Y-33274433D01*
X37761287Y-33307161D01*
X37731123Y-33330303D01*
X37723499Y-33338455D01*
X37720804Y-33351003D01*
X37736069Y-33404919D01*
X37748770Y-33448456D01*
X37780887Y-33546336D01*
X37813066Y-33647086D01*
X37836880Y-33712238D01*
X37859351Y-33771833D01*
X37870097Y-33781786D01*
X37877065Y-33786444D01*
X37882248Y-33795952D01*
X37883611Y-33807104D01*
X37879989Y-33817995D01*
X37871603Y-33825671D01*
X37855992Y-33828620D01*
X37844930Y-33826669D01*
X37836392Y-33821048D01*
X37813728Y-33777822D01*
X37761775Y-33620219D01*
X37736618Y-33547618D01*
X37726788Y-33518859D01*
X37712805Y-33477643D01*
X37696807Y-33436549D01*
X37679038Y-33402843D01*
X37670074Y-33393060D01*
X37664323Y-33390753D01*
X37661270Y-33391791D01*
X37641608Y-33416460D01*
X37624990Y-33435883D01*
X37617611Y-33439724D01*
X37608574Y-33441739D01*
X37603323Y-33534612D01*
X37599110Y-33658810D01*
X37601665Y-33680391D01*
X37608452Y-33695385D01*
X37615914Y-33708835D01*
X37618710Y-33728785D01*
X37616484Y-33746671D01*
X37610040Y-33761941D01*
X37598532Y-33777160D01*
X37588790Y-33781053D01*
X37571999Y-33770734D01*
X37561680Y-33751011D01*
X37560214Y-33688180D01*
X37564383Y-33559111D01*
X37577006Y-33427756D01*
X37603628Y-33217890D01*
X37607780Y-33121414D01*
X37613520Y-33022984D01*
G37*
G36*
X38301217Y-33209539D02*
G01*
X38315169Y-33213555D01*
X38347836Y-33238407D01*
X38373360Y-33268998D01*
X38382190Y-33298596D01*
X38386182Y-33359429D01*
X38382388Y-33391623D01*
X38370612Y-33424642D01*
X38349613Y-33459028D01*
X38329286Y-33478477D01*
X38309124Y-33487229D01*
X38282990Y-33496877D01*
X38269369Y-33500931D01*
X38244338Y-33502677D01*
X38189071Y-33497823D01*
X38153846Y-33485642D01*
X38108971Y-33454854D01*
X38101090Y-33443387D01*
X38092480Y-33431236D01*
X38082161Y-33427817D01*
X38078848Y-33436280D01*
X38077032Y-33464331D01*
X38079719Y-33504570D01*
X38095470Y-33554668D01*
X38123438Y-33600252D01*
X38161394Y-33638354D01*
X38207397Y-33666809D01*
X38246742Y-33681510D01*
X38284883Y-33686226D01*
X38317653Y-33682402D01*
X38347752Y-33671055D01*
X38375985Y-33651727D01*
X38411226Y-33626025D01*
X38427581Y-33620464D01*
X38436036Y-33624268D01*
X38439366Y-33637805D01*
X38436075Y-33650540D01*
X38424773Y-33664427D01*
X38411400Y-33681219D01*
X38408878Y-33687790D01*
X38397662Y-33699904D01*
X38367009Y-33722069D01*
X38337032Y-33733366D01*
X38293309Y-33737700D01*
X38242595Y-33733534D01*
X38201341Y-33721945D01*
X38167707Y-33703750D01*
X38144138Y-33689951D01*
X38101700Y-33652520D01*
X38063476Y-33607824D01*
X38038994Y-33536401D01*
X38032519Y-33490954D01*
X38035394Y-33455183D01*
X38042533Y-33432702D01*
X38048687Y-33415882D01*
X38050715Y-33398569D01*
X38056572Y-33374621D01*
X38057973Y-33372008D01*
X38100785Y-33372008D01*
X38105914Y-33378480D01*
X38123302Y-33383239D01*
X38130094Y-33392524D01*
X38143470Y-33418007D01*
X38169173Y-33439663D01*
X38201938Y-33453466D01*
X38240125Y-33458225D01*
X38273281Y-33454073D01*
X38295801Y-33445696D01*
X38312848Y-33432274D01*
X38337639Y-33391547D01*
X38351500Y-33353811D01*
X38352904Y-33340439D01*
X38352904Y-33339035D01*
X38354309Y-33337020D01*
X38351916Y-33325038D01*
X38341913Y-33302215D01*
X38328716Y-33280249D01*
X38317184Y-33267166D01*
X38291738Y-33252997D01*
X38259726Y-33248054D01*
X38220016Y-33254170D01*
X38182545Y-33272845D01*
X38152280Y-33298208D01*
X38125636Y-33326884D01*
X38105476Y-33356258D01*
X38100785Y-33372008D01*
X38057973Y-33372008D01*
X38081734Y-33327677D01*
X38113323Y-33283619D01*
X38135589Y-33262648D01*
X38148692Y-33253084D01*
X38151465Y-33247749D01*
X38155082Y-33242259D01*
X38174485Y-33229919D01*
X38217349Y-33213433D01*
X38273709Y-33207754D01*
X38301217Y-33209539D01*
G37*
G36*
X39242986Y-33001125D02*
G01*
X39255899Y-32993447D01*
X39262831Y-32993126D01*
X39268845Y-32997770D01*
X39278035Y-33011566D01*
X39284310Y-33031364D01*
X39282370Y-33046798D01*
X39272662Y-33124528D01*
X39263351Y-33214339D01*
X39232117Y-33438075D01*
X39208422Y-33567517D01*
X39176003Y-33680486D01*
X39149597Y-33740760D01*
X39129291Y-33766582D01*
X39107456Y-33780012D01*
X39073604Y-33788075D01*
X39067864Y-33788075D01*
X39045511Y-33783793D01*
X39017359Y-33768825D01*
X38981158Y-33738555D01*
X38957680Y-33711766D01*
X38946414Y-33692454D01*
X38940933Y-33670221D01*
X38938599Y-33630844D01*
X38941080Y-33597787D01*
X38947147Y-33577599D01*
X38960041Y-33558093D01*
X38992332Y-33521789D01*
X39029005Y-33485439D01*
X39050828Y-33468972D01*
X39073946Y-33459058D01*
X39109569Y-33451203D01*
X39140587Y-33448394D01*
X39152652Y-33450202D01*
X39158845Y-33454623D01*
X39163546Y-33476910D01*
X39160682Y-33496975D01*
X39153882Y-33506600D01*
X39143396Y-33509699D01*
X39132711Y-33506646D01*
X39115430Y-33502677D01*
X39081274Y-33506945D01*
X39052319Y-33519263D01*
X39027320Y-33539863D01*
X38994042Y-33579919D01*
X38989037Y-33594578D01*
X38985860Y-33622479D01*
X38985860Y-33644827D01*
X38988200Y-33662005D01*
X38995385Y-33678838D01*
X39025061Y-33713948D01*
X39043278Y-33728590D01*
X39054309Y-33733853D01*
X39068481Y-33734287D01*
X39088136Y-33729762D01*
X39106393Y-33719956D01*
X39120804Y-33703872D01*
X39133077Y-33678410D01*
X39144984Y-33642873D01*
X39158295Y-33612220D01*
X39163974Y-33586758D01*
X39183001Y-33508182D01*
X39205800Y-33370298D01*
X39216303Y-33305329D01*
X39224668Y-33249398D01*
X39228881Y-33196336D01*
X39231018Y-33113171D01*
X39231018Y-33010101D01*
X39242986Y-33001125D01*
G37*
G36*
X39445280Y-33092166D02*
G01*
X39461917Y-33081435D01*
X39484420Y-33077634D01*
X39497840Y-33080073D01*
X39507013Y-33086854D01*
X39511371Y-33105100D01*
X39499808Y-33127154D01*
X39491750Y-33138621D01*
X39489183Y-33150968D01*
X39496144Y-33217951D01*
X39508051Y-33289820D01*
X39519958Y-33353628D01*
X39529422Y-33398142D01*
X39538225Y-33415631D01*
X39543161Y-33419024D01*
X39559525Y-33381045D01*
X39590361Y-33311069D01*
X39606969Y-33274066D01*
X39611404Y-33259388D01*
X39637927Y-33200488D01*
X39651052Y-33183557D01*
X39667725Y-33178384D01*
X39683112Y-33184551D01*
X39691161Y-33195247D01*
X39693431Y-33204152D01*
X39685778Y-33231067D01*
X39644277Y-33319678D01*
X39600863Y-33414750D01*
X39565936Y-33497304D01*
X39529605Y-33583949D01*
X39506463Y-33633103D01*
X39484848Y-33676273D01*
X39474406Y-33696057D01*
X39457859Y-33699965D01*
X39442688Y-33696591D01*
X39434007Y-33687281D01*
X39430687Y-33669984D01*
X39435045Y-33644711D01*
X39449249Y-33617166D01*
X39491076Y-33534856D01*
X39506280Y-33497915D01*
X39493824Y-33467934D01*
X39475362Y-33412576D01*
X39469888Y-33367794D01*
X39466962Y-33331043D01*
X39455966Y-33271685D01*
X39443220Y-33204784D01*
X39436304Y-33141381D01*
X39434900Y-33117384D01*
X39437617Y-33102638D01*
X39445280Y-33092166D01*
G37*
G36*
X39976325Y-33279745D02*
G01*
X40000358Y-33258790D01*
X40014122Y-33253916D01*
X40033589Y-33257881D01*
X40055997Y-33271328D01*
X40082754Y-33298063D01*
X40121467Y-33360650D01*
X40140102Y-33400101D01*
X40147479Y-33423421D01*
X40158653Y-33463721D01*
X40167872Y-33501449D01*
X40171353Y-33552503D01*
X40164331Y-33631149D01*
X40150165Y-33697400D01*
X40144091Y-33704614D01*
X40135816Y-33706926D01*
X40124213Y-33703657D01*
X40114757Y-33693136D01*
X40107301Y-33671571D01*
X40107301Y-33661618D01*
X40111453Y-33615273D01*
X40115666Y-33566486D01*
X40111992Y-33521596D01*
X40100340Y-33471903D01*
X40083197Y-33425565D01*
X40058818Y-33379701D01*
X40030868Y-33342398D01*
X40016870Y-33334822D01*
X40006502Y-33338652D01*
X39991144Y-33354344D01*
X39968021Y-33391547D01*
X39940912Y-33451317D01*
X39918073Y-33523621D01*
X39900846Y-33614619D01*
X39895725Y-33686775D01*
X39891733Y-33720781D01*
X39882756Y-33735999D01*
X39870019Y-33740509D01*
X39850540Y-33731655D01*
X39844688Y-33716378D01*
X39841442Y-33664427D01*
X39843300Y-33604306D01*
X39848464Y-33553663D01*
X39866660Y-33394417D01*
X39865928Y-33386845D01*
X39865256Y-33380434D01*
X39865256Y-33370603D01*
X39869692Y-33344655D01*
X39880836Y-33331320D01*
X39899389Y-33326700D01*
X39911281Y-33329785D01*
X39919356Y-33339035D01*
X39924729Y-33349049D01*
X39935781Y-33336287D01*
X39947871Y-33315526D01*
X39954353Y-33304101D01*
X39976325Y-33279745D01*
G37*
G36*
X40590858Y-33227454D02*
G01*
X40596214Y-33246100D01*
X40598242Y-33256294D01*
X40603846Y-33262770D01*
X40615524Y-33280525D01*
X40619966Y-33309054D01*
X40618562Y-33334455D01*
X40608792Y-33444792D01*
X40612944Y-33477826D01*
X40620399Y-33501669D01*
X40631446Y-33522583D01*
X40645055Y-33539225D01*
X40654893Y-33544993D01*
X40667775Y-33551559D01*
X40675719Y-33563551D01*
X40678768Y-33583278D01*
X40675337Y-33593378D01*
X40663987Y-33600360D01*
X40639017Y-33603428D01*
X40633278Y-33603428D01*
X40615326Y-33597383D01*
X40600793Y-33568623D01*
X40587543Y-33535040D01*
X40577102Y-33509883D01*
X40564890Y-33484481D01*
X40559133Y-33487711D01*
X40541137Y-33506219D01*
X40503420Y-33542864D01*
X40479870Y-33558869D01*
X40465544Y-33562822D01*
X40451988Y-33565814D01*
X40447890Y-33568439D01*
X40433365Y-33569844D01*
X40398570Y-33566692D01*
X40373647Y-33558365D01*
X40346475Y-33535528D01*
X40324411Y-33494362D01*
X40318082Y-33461523D01*
X40319759Y-33453157D01*
X40363939Y-33453157D01*
X40369914Y-33477251D01*
X40389890Y-33502067D01*
X40407326Y-33513323D01*
X40426343Y-33516966D01*
X40451769Y-33513493D01*
X40477697Y-33502653D01*
X40504867Y-33483138D01*
X40537180Y-33445682D01*
X40555975Y-33402233D01*
X40560809Y-33377814D01*
X40562936Y-33331463D01*
X40560594Y-33291525D01*
X40556830Y-33282737D01*
X40548098Y-33280233D01*
X40533077Y-33282981D01*
X40502803Y-33293526D01*
X40466424Y-33316222D01*
X40422191Y-33355216D01*
X40386387Y-33396698D01*
X40368888Y-33428418D01*
X40363939Y-33453157D01*
X40319759Y-33453157D01*
X40325119Y-33426414D01*
X40349162Y-33384891D01*
X40366015Y-33361139D01*
X40383600Y-33337936D01*
X40399110Y-33320289D01*
X40422496Y-33300444D01*
X40450401Y-33280233D01*
X40484778Y-33256359D01*
X40516468Y-33238040D01*
X40553349Y-33224546D01*
X40576064Y-33221737D01*
X40590858Y-33227454D01*
G37*
G36*
X41126038Y-33218257D02*
G01*
X41136199Y-33211454D01*
X41148569Y-33209159D01*
X41162967Y-33212079D01*
X41171284Y-33219966D01*
X41186576Y-33265160D01*
X41223246Y-33437404D01*
X41251212Y-33580102D01*
X41266064Y-33662610D01*
X41269469Y-33699354D01*
X41265012Y-33719755D01*
X41254387Y-33725122D01*
X41251639Y-33723717D01*
X41247670Y-33723717D01*
X41237449Y-33717022D01*
X41222513Y-33697034D01*
X41210740Y-33673475D01*
X41205355Y-33653436D01*
X41181603Y-33512203D01*
X41168324Y-33426530D01*
X41159255Y-33387822D01*
X41149668Y-33346606D01*
X41138677Y-33316625D01*
X41128419Y-33334150D01*
X41114741Y-33372008D01*
X41106926Y-33395333D01*
X41101365Y-33412030D01*
X41094591Y-33454806D01*
X41084720Y-33509286D01*
X41062901Y-33583461D01*
X41035890Y-33650924D01*
X41022479Y-33668824D01*
X41020647Y-33670533D01*
X41018449Y-33670533D01*
X41010971Y-33667748D01*
X41000924Y-33656673D01*
X40987185Y-33625776D01*
X40971798Y-33560685D01*
X40955068Y-33493091D01*
X40939619Y-33426962D01*
X40932829Y-33396934D01*
X40928811Y-33392158D01*
X40924347Y-33397374D01*
X40914035Y-33431236D01*
X40899143Y-33525434D01*
X40881917Y-33741486D01*
X40878087Y-33763356D01*
X40870788Y-33773678D01*
X40860362Y-33776901D01*
X40838197Y-33766643D01*
X40830794Y-33754711D01*
X40827634Y-33730190D01*
X40827634Y-33704972D01*
X40835062Y-33592563D01*
X40845952Y-33547557D01*
X40856332Y-33494007D01*
X40865491Y-33437342D01*
X40885724Y-33340687D01*
X40894801Y-33278096D01*
X40899255Y-33254574D01*
X40904876Y-33242254D01*
X40912536Y-33234241D01*
X40923316Y-33231568D01*
X40935860Y-33234621D01*
X40948412Y-33244696D01*
X40957869Y-33259080D01*
X40963066Y-33276570D01*
X41002145Y-33463904D01*
X41017904Y-33523201D01*
X41025471Y-33532353D01*
X41028340Y-33530033D01*
X41043178Y-33475078D01*
X41064210Y-33401960D01*
X41100636Y-33298490D01*
X41111749Y-33259351D01*
X41119680Y-33231297D01*
X41126038Y-33218257D01*
G37*
G36*
X41683082Y-33169967D02*
G01*
X41698726Y-33184795D01*
X41710423Y-33196056D01*
X41722295Y-33199389D01*
X41747033Y-33202616D01*
X41777800Y-33213555D01*
X41788015Y-33222212D01*
X41804239Y-33242803D01*
X41830434Y-33288721D01*
X41843169Y-33346678D01*
X41848752Y-33455966D01*
X41845882Y-33508112D01*
X41828700Y-33571478D01*
X41796923Y-33631612D01*
X41748857Y-33689584D01*
X41693255Y-33738029D01*
X41642354Y-33769376D01*
X41595090Y-33786763D01*
X41550226Y-33792288D01*
X41511758Y-33786549D01*
X41486626Y-33774025D01*
X41464496Y-33754601D01*
X41445019Y-33727076D01*
X41425580Y-33678606D01*
X41416748Y-33618326D01*
X41416748Y-33591643D01*
X41418123Y-33576256D01*
X41464009Y-33576256D01*
X41466029Y-33602832D01*
X41472374Y-33631699D01*
X41487874Y-33672885D01*
X41506751Y-33702163D01*
X41530366Y-33722296D01*
X41553035Y-33728236D01*
X41554378Y-33728236D01*
X41602544Y-33718186D01*
X41651221Y-33692210D01*
X41711465Y-33643914D01*
X41748613Y-33600375D01*
X41778474Y-33546598D01*
X41795781Y-33492725D01*
X41801491Y-33437770D01*
X41797278Y-33379274D01*
X41786901Y-33326055D01*
X41777372Y-33301788D01*
X41761030Y-33285362D01*
X41727241Y-33268937D01*
X41694827Y-33260622D01*
X41660746Y-33257824D01*
X41636505Y-33258496D01*
X41625758Y-33260511D01*
X41616294Y-33266678D01*
X41602983Y-33275776D01*
X41581692Y-33291725D01*
X41556342Y-33321403D01*
X41525985Y-33370298D01*
X41491270Y-33446336D01*
X41470969Y-33519286D01*
X41464009Y-33576256D01*
X41418123Y-33576256D01*
X41422509Y-33527174D01*
X41440951Y-33454696D01*
X41474328Y-33372557D01*
X41509682Y-33299284D01*
X41540945Y-33263136D01*
X41562316Y-33231507D01*
X41567187Y-33219586D01*
X41576055Y-33209769D01*
X41619225Y-33184246D01*
X41653620Y-33169168D01*
X41669112Y-33165806D01*
X41683082Y-33169967D01*
G37*
G36*
X42422784Y-33295071D02*
G01*
X42426308Y-33289354D01*
X42445865Y-33274005D01*
X42471856Y-33262509D01*
X42510101Y-33258129D01*
X42552183Y-33260251D01*
X42576535Y-33265273D01*
X42622513Y-33274982D01*
X42670019Y-33286156D01*
X42700122Y-33293850D01*
X42729248Y-33303131D01*
X42747688Y-33316478D01*
X42751290Y-33327555D01*
X42744128Y-33340703D01*
X42725265Y-33350208D01*
X42686383Y-33354361D01*
X42639794Y-33348743D01*
X42608286Y-33342454D01*
X42569879Y-33334760D01*
X42522679Y-33327800D01*
X42498133Y-33331891D01*
X42468152Y-33346789D01*
X42449176Y-33378378D01*
X42433714Y-33433923D01*
X42423761Y-33477581D01*
X42420269Y-33502797D01*
X42418326Y-33584682D01*
X42418326Y-33680303D01*
X42404160Y-33708635D01*
X42387993Y-33733301D01*
X42375767Y-33739105D01*
X42358975Y-33728785D01*
X42349020Y-33709007D01*
X42344443Y-33663389D01*
X42347892Y-33605570D01*
X42361235Y-33504631D01*
X42375218Y-33408217D01*
X42383766Y-33357353D01*
X42397322Y-33328166D01*
X42407069Y-33315196D01*
X42414296Y-33310031D01*
X42421379Y-33304841D01*
X42422051Y-33299773D01*
X42422784Y-33295071D01*
G37*
G36*
X43169466Y-33209539D02*
G01*
X43183417Y-33213555D01*
X43216085Y-33238407D01*
X43241608Y-33268998D01*
X43250439Y-33298596D01*
X43254431Y-33359429D01*
X43250636Y-33391623D01*
X43238860Y-33424642D01*
X43217861Y-33459028D01*
X43197534Y-33478477D01*
X43177372Y-33487229D01*
X43151238Y-33496877D01*
X43137618Y-33500931D01*
X43112587Y-33502677D01*
X43057320Y-33497823D01*
X43022095Y-33485642D01*
X42977219Y-33454854D01*
X42969338Y-33443387D01*
X42960729Y-33431236D01*
X42950409Y-33427817D01*
X42947096Y-33436280D01*
X42945280Y-33464331D01*
X42947967Y-33504570D01*
X42963718Y-33554668D01*
X42991687Y-33600252D01*
X43029643Y-33638354D01*
X43075645Y-33666809D01*
X43114991Y-33681510D01*
X43153131Y-33686226D01*
X43185901Y-33682402D01*
X43216000Y-33671055D01*
X43244234Y-33651727D01*
X43279474Y-33626025D01*
X43295830Y-33620464D01*
X43304284Y-33624268D01*
X43307615Y-33637805D01*
X43304323Y-33650540D01*
X43293021Y-33664427D01*
X43279649Y-33681219D01*
X43277126Y-33687790D01*
X43265910Y-33699904D01*
X43235258Y-33722069D01*
X43205281Y-33733366D01*
X43161557Y-33737700D01*
X43110844Y-33733534D01*
X43069589Y-33721945D01*
X43035956Y-33703750D01*
X43012386Y-33689951D01*
X42969949Y-33652520D01*
X42931725Y-33607824D01*
X42907242Y-33536401D01*
X42900767Y-33490954D01*
X42903643Y-33455183D01*
X42910781Y-33432702D01*
X42916935Y-33415882D01*
X42918963Y-33398569D01*
X42924820Y-33374621D01*
X42926221Y-33372008D01*
X42969033Y-33372008D01*
X42974162Y-33378480D01*
X42991550Y-33383239D01*
X42998342Y-33392524D01*
X43011719Y-33418007D01*
X43037421Y-33439663D01*
X43070186Y-33453466D01*
X43108374Y-33458225D01*
X43141530Y-33454073D01*
X43164049Y-33445696D01*
X43181097Y-33432274D01*
X43205887Y-33391547D01*
X43219748Y-33353811D01*
X43221153Y-33340439D01*
X43221153Y-33339035D01*
X43222557Y-33337020D01*
X43220165Y-33325038D01*
X43210162Y-33302215D01*
X43196964Y-33280249D01*
X43185432Y-33267166D01*
X43159986Y-33252997D01*
X43127974Y-33248054D01*
X43088264Y-33254170D01*
X43050793Y-33272845D01*
X43020528Y-33298208D01*
X42993885Y-33326884D01*
X42973724Y-33356258D01*
X42969033Y-33372008D01*
X42926221Y-33372008D01*
X42949982Y-33327677D01*
X42981571Y-33283619D01*
X43003838Y-33262648D01*
X43016941Y-33253084D01*
X43019713Y-33247749D01*
X43023330Y-33242259D01*
X43042733Y-33229919D01*
X43085598Y-33213433D01*
X43141957Y-33207754D01*
X43169466Y-33209539D01*
G37*
G36*
X43705975Y-33146327D02*
G01*
X43719210Y-33146063D01*
X43733208Y-33155181D01*
X43741361Y-33164936D01*
X43744993Y-33176064D01*
X43744181Y-33187145D01*
X43738886Y-33195725D01*
X43707562Y-33212822D01*
X43681206Y-33230975D01*
X43645097Y-33265701D01*
X43596493Y-33324014D01*
X43583609Y-33343981D01*
X43560694Y-33375631D01*
X43532196Y-33426046D01*
X43511191Y-33469399D01*
X43504154Y-33489964D01*
X43501605Y-33516111D01*
X43504498Y-33545018D01*
X43512595Y-33568440D01*
X43540799Y-33611268D01*
X43570542Y-33636889D01*
X43607526Y-33651314D01*
X43661889Y-33656856D01*
X43707868Y-33654047D01*
X43752944Y-33647938D01*
X43769905Y-33641835D01*
X43792192Y-33629875D01*
X43814419Y-33626081D01*
X43825593Y-33629439D01*
X43830355Y-33644827D01*
X43825651Y-33666283D01*
X43814419Y-33671938D01*
X43808199Y-33674563D01*
X43796345Y-33686592D01*
X43778375Y-33699935D01*
X43745455Y-33709846D01*
X43689916Y-33713948D01*
X43624769Y-33710277D01*
X43581656Y-33701056D01*
X43554483Y-33688363D01*
X43534577Y-33677555D01*
X43526059Y-33673681D01*
X43506612Y-33654535D01*
X43487674Y-33630663D01*
X43471196Y-33597993D01*
X43460352Y-33563176D01*
X43457091Y-33534307D01*
X43461304Y-33511409D01*
X43464113Y-33502311D01*
X43471196Y-33483321D01*
X43478157Y-33462377D01*
X43508129Y-33388047D01*
X43544286Y-33328899D01*
X43572008Y-33287194D01*
X43586010Y-33268148D01*
X43637404Y-33211845D01*
X43691085Y-33158000D01*
X43705975Y-33146327D01*
G37*
G36*
X44128637Y-33067070D02*
G01*
X44145368Y-33053881D01*
X44169059Y-33071161D01*
X44189621Y-33094694D01*
X44194949Y-33111767D01*
X44190556Y-33124075D01*
X44174371Y-33137290D01*
X44160764Y-33147870D01*
X44154282Y-33158539D01*
X44147570Y-33201377D01*
X44144574Y-33285301D01*
X44145184Y-33300444D01*
X44160303Y-33303882D01*
X44204169Y-33305696D01*
X44275508Y-33311654D01*
X44321039Y-33324014D01*
X44341900Y-33335046D01*
X44352510Y-33347153D01*
X44355844Y-33360833D01*
X44353893Y-33372894D01*
X44348883Y-33379762D01*
X44339442Y-33383383D01*
X44316093Y-33385136D01*
X44187255Y-33378175D01*
X44142192Y-33374084D01*
X44134499Y-33385624D01*
X44129236Y-33412346D01*
X44124973Y-33518187D01*
X44119719Y-33623478D01*
X44113250Y-33646231D01*
X44104678Y-33651282D01*
X44094687Y-33650933D01*
X44085250Y-33646053D01*
X44077834Y-33637133D01*
X44074904Y-33588834D01*
X44074904Y-33553846D01*
X44076308Y-33430748D01*
X44076308Y-33422383D01*
X44076308Y-33401561D01*
X44074965Y-33390204D01*
X44071423Y-33382693D01*
X44065683Y-33380983D01*
X44031306Y-33389288D01*
X43998517Y-33396371D01*
X43986114Y-33389979D01*
X43979771Y-33365169D01*
X43982105Y-33345091D01*
X43991556Y-33329998D01*
X44013101Y-33318535D01*
X44055608Y-33308504D01*
X44078376Y-33303964D01*
X44086566Y-33298674D01*
X44090484Y-33288400D01*
X44094504Y-33259900D01*
X44102869Y-33187177D01*
X44104945Y-33151578D01*
X44106350Y-33119949D01*
X44112090Y-33094303D01*
X44128637Y-33067070D01*
G37*
G36*
X44683923Y-33079282D02*
G01*
X44676596Y-33055835D01*
X44680178Y-33037923D01*
X44689681Y-33028118D01*
X44706577Y-33024511D01*
X44709446Y-33024511D01*
X44725505Y-33029396D01*
X44729474Y-33048630D01*
X44727007Y-33068394D01*
X44717568Y-33081114D01*
X44703494Y-33088597D01*
X44693055Y-33087711D01*
X44683923Y-33079282D01*
G37*
G36*
X44650889Y-33202503D02*
G01*
X44670184Y-33192367D01*
X44681656Y-33200139D01*
X44691739Y-33236209D01*
X44692411Y-33242437D01*
X44693143Y-33247505D01*
X44686603Y-33274215D01*
X44663224Y-33307527D01*
X44649668Y-33331891D01*
X44625854Y-33395150D01*
X44599232Y-33472025D01*
X44586592Y-33514157D01*
X44577937Y-33546372D01*
X44574197Y-33605626D01*
X44575540Y-33627486D01*
X44581927Y-33642077D01*
X44594713Y-33658932D01*
X44610238Y-33673210D01*
X44623534Y-33680853D01*
X44636601Y-33683417D01*
X44648781Y-33680004D01*
X44662353Y-33667983D01*
X44678244Y-33642506D01*
X44693921Y-33617720D01*
X44699555Y-33613503D01*
X44705525Y-33615749D01*
X44711645Y-33624066D01*
X44716896Y-33644827D01*
X44714303Y-33660508D01*
X44704134Y-33686898D01*
X44690737Y-33712093D01*
X44679954Y-33725976D01*
X44666139Y-33736103D01*
X44653393Y-33739105D01*
X44616512Y-33733426D01*
X44587534Y-33721592D01*
X44565114Y-33704168D01*
X44548185Y-33680730D01*
X44539775Y-33669317D01*
X44528218Y-33662046D01*
X44510266Y-33651177D01*
X44507336Y-33630722D01*
X44512037Y-33611366D01*
X44520316Y-33592796D01*
X44533958Y-33536688D01*
X44548063Y-33488939D01*
X44592821Y-33363032D01*
X44619382Y-33285912D01*
X44631597Y-33250555D01*
X44634647Y-33230713D01*
X44638628Y-33214855D01*
X44650889Y-33202503D01*
G37*
G36*
X45014200Y-33053393D02*
G01*
X45035661Y-33031206D01*
X45059202Y-33024511D01*
X45100113Y-33030129D01*
X45222074Y-33061099D01*
X45282659Y-33085289D01*
X45306926Y-33103585D01*
X45313368Y-33115375D01*
X45315779Y-33132772D01*
X45308574Y-33164401D01*
X45294755Y-33184594D01*
X45285370Y-33189502D01*
X45277433Y-33185956D01*
X45275479Y-33159333D01*
X45272844Y-33147440D01*
X45264794Y-33137595D01*
X45251006Y-33129482D01*
X45220891Y-33117812D01*
X45095106Y-33084289D01*
X45070376Y-33081542D01*
X45052576Y-33086104D01*
X45032702Y-33101875D01*
X45024112Y-33116500D01*
X45012063Y-33150907D01*
X45003365Y-33187319D01*
X45001011Y-33211051D01*
X45002416Y-33272662D01*
X44999607Y-33330242D01*
X44995638Y-33361994D01*
X45018963Y-33365901D01*
X45079485Y-33373744D01*
X45185109Y-33377076D01*
X45206114Y-33377076D01*
X45225471Y-33378846D01*
X45229012Y-33388799D01*
X45222917Y-33398699D01*
X45192864Y-33415788D01*
X45158721Y-33427333D01*
X45143222Y-33429954D01*
X45121912Y-33428550D01*
X45079230Y-33423665D01*
X45028244Y-33418719D01*
X44992402Y-33414750D01*
X44989776Y-33440701D01*
X44982815Y-33547008D01*
X44972616Y-33646369D01*
X44965291Y-33667358D01*
X44956710Y-33671039D01*
X44945263Y-33669801D01*
X44935255Y-33664038D01*
X44929937Y-33654841D01*
X44929204Y-33648429D01*
X44928532Y-33639209D01*
X44939706Y-33499136D01*
X44946728Y-33426596D01*
X44946057Y-33419207D01*
X44944897Y-33414384D01*
X44941538Y-33412369D01*
X44937997Y-33411758D01*
X44931769Y-33411086D01*
X44923403Y-33410354D01*
X44896822Y-33405279D01*
X44884622Y-33396978D01*
X44880966Y-33385990D01*
X44885423Y-33372496D01*
X44896720Y-33359795D01*
X44922121Y-33357475D01*
X44945282Y-33355935D01*
X44949537Y-33353567D01*
X44950209Y-33345324D01*
X44951613Y-33325052D01*
X44952285Y-33302032D01*
X44957807Y-33245707D01*
X44974023Y-33168004D01*
X44996190Y-33093599D01*
X45014200Y-33053393D01*
G37*
G36*
X45645263Y-33079282D02*
G01*
X45637936Y-33055835D01*
X45641518Y-33037923D01*
X45651021Y-33028118D01*
X45667916Y-33024511D01*
X45670786Y-33024511D01*
X45686845Y-33029396D01*
X45690814Y-33048630D01*
X45688347Y-33068394D01*
X45678907Y-33081114D01*
X45664834Y-33088597D01*
X45654395Y-33087711D01*
X45645263Y-33079282D01*
G37*
G36*
X45612229Y-33202503D02*
G01*
X45631524Y-33192367D01*
X45642996Y-33200139D01*
X45653079Y-33236209D01*
X45653750Y-33242437D01*
X45654483Y-33247505D01*
X45647943Y-33274215D01*
X45624563Y-33307527D01*
X45611008Y-33331891D01*
X45587194Y-33395150D01*
X45560572Y-33472025D01*
X45547932Y-33514157D01*
X45539277Y-33546372D01*
X45535537Y-33605626D01*
X45536880Y-33627486D01*
X45543267Y-33642077D01*
X45556053Y-33658932D01*
X45571578Y-33673210D01*
X45584874Y-33680853D01*
X45597941Y-33683417D01*
X45610120Y-33680004D01*
X45623693Y-33667983D01*
X45639584Y-33642506D01*
X45655261Y-33617720D01*
X45660894Y-33613503D01*
X45666865Y-33615749D01*
X45672984Y-33624066D01*
X45678236Y-33644827D01*
X45675643Y-33660508D01*
X45665474Y-33686898D01*
X45652076Y-33712093D01*
X45641294Y-33725976D01*
X45627479Y-33736103D01*
X45614733Y-33739105D01*
X45577852Y-33733426D01*
X45548873Y-33721592D01*
X45526454Y-33704168D01*
X45509525Y-33680730D01*
X45501115Y-33669317D01*
X45489558Y-33662046D01*
X45471606Y-33651177D01*
X45468675Y-33630722D01*
X45473377Y-33611366D01*
X45481656Y-33592796D01*
X45495298Y-33536688D01*
X45509403Y-33488939D01*
X45554160Y-33363032D01*
X45580722Y-33285912D01*
X45592937Y-33250555D01*
X45595987Y-33230713D01*
X45599967Y-33214855D01*
X45612229Y-33202503D01*
G37*
G36*
X46108196Y-33209539D02*
G01*
X46122147Y-33213555D01*
X46154815Y-33238407D01*
X46180338Y-33268998D01*
X46189169Y-33298596D01*
X46193161Y-33359429D01*
X46189366Y-33391623D01*
X46177590Y-33424642D01*
X46156591Y-33459028D01*
X46136264Y-33478477D01*
X46116102Y-33487229D01*
X46089968Y-33496877D01*
X46076348Y-33500931D01*
X46051317Y-33502677D01*
X45996049Y-33497823D01*
X45960825Y-33485642D01*
X45915949Y-33454854D01*
X45908068Y-33443387D01*
X45899459Y-33431236D01*
X45889139Y-33427817D01*
X45885826Y-33436280D01*
X45884010Y-33464331D01*
X45886697Y-33504570D01*
X45902448Y-33554668D01*
X45930416Y-33600252D01*
X45968373Y-33638354D01*
X46014375Y-33666809D01*
X46053721Y-33681510D01*
X46091861Y-33686226D01*
X46124631Y-33682402D01*
X46154730Y-33671055D01*
X46182964Y-33651727D01*
X46218204Y-33626025D01*
X46234560Y-33620464D01*
X46243014Y-33624268D01*
X46246345Y-33637805D01*
X46243053Y-33650540D01*
X46231751Y-33664427D01*
X46218379Y-33681219D01*
X46215856Y-33687790D01*
X46204640Y-33699904D01*
X46173988Y-33722069D01*
X46144011Y-33733366D01*
X46100287Y-33737700D01*
X46049574Y-33733534D01*
X46008319Y-33721945D01*
X45974685Y-33703750D01*
X45951116Y-33689951D01*
X45908679Y-33652520D01*
X45870455Y-33607824D01*
X45845972Y-33536401D01*
X45839497Y-33490954D01*
X45842373Y-33455183D01*
X45849511Y-33432702D01*
X45855665Y-33415882D01*
X45857693Y-33398569D01*
X45863550Y-33374621D01*
X45864951Y-33372008D01*
X45907763Y-33372008D01*
X45912892Y-33378480D01*
X45930280Y-33383239D01*
X45937072Y-33392524D01*
X45950449Y-33418007D01*
X45976151Y-33439663D01*
X46008916Y-33453466D01*
X46047103Y-33458225D01*
X46080259Y-33454073D01*
X46102779Y-33445696D01*
X46119827Y-33432274D01*
X46144617Y-33391547D01*
X46158478Y-33353811D01*
X46159883Y-33340439D01*
X46159883Y-33339035D01*
X46161287Y-33337020D01*
X46158894Y-33325038D01*
X46148892Y-33302215D01*
X46135694Y-33280249D01*
X46124162Y-33267166D01*
X46098716Y-33252997D01*
X46066704Y-33248054D01*
X46026994Y-33254170D01*
X45989523Y-33272845D01*
X45959258Y-33298208D01*
X45932615Y-33326884D01*
X45912454Y-33356258D01*
X45907763Y-33372008D01*
X45864951Y-33372008D01*
X45888712Y-33327677D01*
X45920301Y-33283619D01*
X45942568Y-33262648D01*
X45955671Y-33253084D01*
X45958443Y-33247749D01*
X45962060Y-33242259D01*
X45981463Y-33229919D01*
X46024328Y-33213433D01*
X46080687Y-33207754D01*
X46108196Y-33209539D01*
G37*
G36*
X46471353Y-33295071D02*
G01*
X46474878Y-33289354D01*
X46494434Y-33274005D01*
X46520426Y-33262509D01*
X46558670Y-33258129D01*
X46600752Y-33260251D01*
X46625104Y-33265273D01*
X46671083Y-33274982D01*
X46718588Y-33286156D01*
X46748691Y-33293850D01*
X46777817Y-33303131D01*
X46796257Y-33316478D01*
X46799860Y-33327555D01*
X46792698Y-33340703D01*
X46773834Y-33350208D01*
X46734952Y-33354361D01*
X46688363Y-33348743D01*
X46656856Y-33342454D01*
X46618449Y-33334760D01*
X46571249Y-33327800D01*
X46546702Y-33331891D01*
X46516721Y-33346789D01*
X46497746Y-33378378D01*
X46482283Y-33433923D01*
X46472330Y-33477581D01*
X46468838Y-33502797D01*
X46466896Y-33584682D01*
X46466896Y-33680303D01*
X46452730Y-33708635D01*
X46436563Y-33733301D01*
X46424337Y-33739105D01*
X46407545Y-33728785D01*
X46397590Y-33709007D01*
X46393012Y-33663389D01*
X46396462Y-33605570D01*
X46409804Y-33504631D01*
X46423787Y-33408217D01*
X46432336Y-33357353D01*
X46445891Y-33328166D01*
X46455638Y-33315196D01*
X46462866Y-33310031D01*
X46469949Y-33304841D01*
X46470621Y-33299773D01*
X46471353Y-33295071D01*
G37*
G36*
X37389916Y-34783401D02*
G01*
X37403899Y-34775830D01*
X37414193Y-34780142D01*
X37424552Y-34796693D01*
X37434643Y-34835979D01*
X37442245Y-34913400D01*
X37450427Y-35002182D01*
X37460345Y-35044584D01*
X37467402Y-35155444D01*
X37482789Y-35405976D01*
X37484673Y-35460168D01*
X37488285Y-35479433D01*
X37491215Y-35491278D01*
X37485145Y-35507124D01*
X37465448Y-35512833D01*
X37450966Y-35509711D01*
X37441512Y-35500865D01*
X37437196Y-35492182D01*
X37435528Y-35478700D01*
X37436200Y-35470151D01*
X37437604Y-35457573D01*
X37438337Y-35442247D01*
X37442489Y-35372393D01*
X37434124Y-35248073D01*
X37428506Y-35176022D01*
X37422217Y-35099818D01*
X37411775Y-35028621D01*
X37401945Y-34957058D01*
X37392794Y-34880676D01*
X37389916Y-34872123D01*
X37362194Y-34911751D01*
X37317315Y-34974888D01*
X37298268Y-35003728D01*
X37264375Y-35068250D01*
X37180294Y-35227923D01*
X37156603Y-35268407D01*
X37138529Y-35295640D01*
X37122714Y-35301624D01*
X37110752Y-35298764D01*
X37102930Y-35290450D01*
X37098315Y-35276461D01*
X37094138Y-35246669D01*
X37090657Y-35204720D01*
X37087177Y-35162772D01*
X37077346Y-35040956D01*
X37070825Y-34965555D01*
X37066721Y-34956020D01*
X37064096Y-34959439D01*
X37050865Y-34983140D01*
X37013904Y-35067517D01*
X36979436Y-35155079D01*
X36965116Y-35199469D01*
X36950828Y-35235006D01*
X36945518Y-35246203D01*
X36941364Y-35266270D01*
X36937076Y-35284080D01*
X36923107Y-35317683D01*
X36904972Y-35364272D01*
X36896084Y-35400544D01*
X36885005Y-35428264D01*
X36870242Y-35448755D01*
X36856856Y-35454092D01*
X36853864Y-35454092D01*
X36840632Y-35447600D01*
X36832711Y-35436357D01*
X36829745Y-35418555D01*
X36833393Y-35399632D01*
X36844399Y-35383506D01*
X36855091Y-35372647D01*
X36857711Y-35365371D01*
X36870411Y-35323545D01*
X36888729Y-35279092D01*
X36913825Y-35214246D01*
X36938982Y-35146407D01*
X36951561Y-35112824D01*
X36971161Y-35066662D01*
X36993754Y-35015982D01*
X37001875Y-34995710D01*
X37029841Y-34931107D01*
X37057807Y-34867055D01*
X37063462Y-34850788D01*
X37073117Y-34841909D01*
X37087726Y-34838784D01*
X37104030Y-34843241D01*
X37112097Y-34852060D01*
X37116852Y-34870169D01*
X37120455Y-35007250D01*
X37125146Y-35155785D01*
X37130377Y-35200504D01*
X37133888Y-35206735D01*
X37142070Y-35200568D01*
X37168571Y-35158742D01*
X37196475Y-35107145D01*
X37227372Y-35056526D01*
X37246667Y-35025446D01*
X37278968Y-34964446D01*
X37319879Y-34896852D01*
X37354745Y-34840249D01*
X37389916Y-34783401D01*
G37*
G36*
X37155687Y-35328735D02*
G01*
X37157628Y-35315844D01*
X37162037Y-35310661D01*
X37171685Y-35307486D01*
X37178166Y-35310159D01*
X37180600Y-35319209D01*
X37176020Y-35335146D01*
X37170614Y-35341666D01*
X37164663Y-35343572D01*
X37158314Y-35340446D01*
X37155687Y-35328735D01*
G37*
G36*
X37910048Y-34907454D02*
G01*
X37915404Y-34926100D01*
X37917432Y-34936294D01*
X37923037Y-34942770D01*
X37934715Y-34960525D01*
X37939157Y-34989054D01*
X37937752Y-35014455D01*
X37927983Y-35124792D01*
X37932135Y-35157826D01*
X37939590Y-35181669D01*
X37950636Y-35202583D01*
X37964245Y-35219225D01*
X37974084Y-35224993D01*
X37986965Y-35231559D01*
X37994909Y-35243551D01*
X37997958Y-35263278D01*
X37994528Y-35273378D01*
X37983177Y-35280360D01*
X37958208Y-35283428D01*
X37952468Y-35283428D01*
X37934516Y-35277383D01*
X37919984Y-35248623D01*
X37906734Y-35215040D01*
X37896292Y-35189883D01*
X37884080Y-35164481D01*
X37878324Y-35167711D01*
X37860327Y-35186219D01*
X37822611Y-35222864D01*
X37799061Y-35238869D01*
X37784734Y-35242822D01*
X37771179Y-35245814D01*
X37767081Y-35248439D01*
X37752555Y-35249844D01*
X37717761Y-35246692D01*
X37692838Y-35238365D01*
X37665666Y-35215528D01*
X37643602Y-35174362D01*
X37637273Y-35141523D01*
X37638950Y-35133157D01*
X37683129Y-35133157D01*
X37689104Y-35157251D01*
X37709080Y-35182067D01*
X37726517Y-35193323D01*
X37745533Y-35196966D01*
X37770959Y-35193493D01*
X37796888Y-35182653D01*
X37824057Y-35163138D01*
X37856370Y-35125682D01*
X37875165Y-35082233D01*
X37879999Y-35057814D01*
X37882126Y-35011463D01*
X37879784Y-34971525D01*
X37876020Y-34962737D01*
X37867288Y-34960233D01*
X37852267Y-34962981D01*
X37821994Y-34973526D01*
X37785614Y-34996222D01*
X37741381Y-35035216D01*
X37705578Y-35076698D01*
X37688078Y-35108418D01*
X37683129Y-35133157D01*
X37638950Y-35133157D01*
X37644310Y-35106414D01*
X37668353Y-35064891D01*
X37685205Y-35041139D01*
X37702791Y-35017936D01*
X37718300Y-35000289D01*
X37741687Y-34980444D01*
X37769591Y-34960233D01*
X37803968Y-34936359D01*
X37835659Y-34918040D01*
X37872540Y-34904546D01*
X37895254Y-34901737D01*
X37910048Y-34907454D01*
G37*
G36*
X38158609Y-34772166D02*
G01*
X38175246Y-34761435D01*
X38197749Y-34757634D01*
X38211169Y-34760073D01*
X38220341Y-34766854D01*
X38224700Y-34785100D01*
X38213136Y-34807154D01*
X38205079Y-34818621D01*
X38202512Y-34830968D01*
X38209473Y-34897951D01*
X38221379Y-34969820D01*
X38233286Y-35033628D01*
X38242751Y-35078142D01*
X38251554Y-35095631D01*
X38256489Y-35099024D01*
X38272854Y-35061045D01*
X38303689Y-34991069D01*
X38320298Y-34954066D01*
X38324733Y-34939388D01*
X38351256Y-34880488D01*
X38364381Y-34863557D01*
X38381053Y-34858384D01*
X38396441Y-34864551D01*
X38404490Y-34875247D01*
X38406760Y-34884152D01*
X38399106Y-34911067D01*
X38357606Y-34999678D01*
X38314192Y-35094750D01*
X38279265Y-35177304D01*
X38242934Y-35263949D01*
X38219792Y-35313103D01*
X38198176Y-35356273D01*
X38187735Y-35376057D01*
X38171188Y-35379965D01*
X38156016Y-35376591D01*
X38147336Y-35367281D01*
X38144016Y-35349984D01*
X38148374Y-35324711D01*
X38162578Y-35297166D01*
X38204405Y-35214856D01*
X38219609Y-35177915D01*
X38207152Y-35147934D01*
X38188691Y-35092576D01*
X38183217Y-35047794D01*
X38180291Y-35011043D01*
X38169295Y-34951685D01*
X38156548Y-34884784D01*
X38149633Y-34821381D01*
X38148229Y-34797384D01*
X38150945Y-34782638D01*
X38158609Y-34772166D01*
G37*
G36*
X39061086Y-34624888D02*
G01*
X39078303Y-34620769D01*
X39103768Y-34619148D01*
X39168953Y-34626734D01*
X39234743Y-34650106D01*
X39271935Y-34670897D01*
X39292629Y-34687658D01*
X39308002Y-34708449D01*
X39323831Y-34742124D01*
X39337584Y-34789433D01*
X39342149Y-34837990D01*
X39342149Y-34852095D01*
X39330419Y-34927073D01*
X39319434Y-34955165D01*
X39311374Y-34972262D01*
X39293056Y-35017752D01*
X39259289Y-35079607D01*
X39202442Y-35151231D01*
X39134420Y-35219986D01*
X39066643Y-35288435D01*
X39011444Y-35345832D01*
X38995202Y-35363845D01*
X39008635Y-35364822D01*
X39025366Y-35364150D01*
X39044966Y-35363417D01*
X39161104Y-35357861D01*
X39227172Y-35363417D01*
X39276638Y-35368701D01*
X39389227Y-35373248D01*
X39421894Y-35374713D01*
X39421894Y-35390589D01*
X39418121Y-35404920D01*
X39404492Y-35422768D01*
X39386511Y-35436242D01*
X39370969Y-35440109D01*
X39366512Y-35440109D01*
X39295132Y-35428874D01*
X39223691Y-35419105D01*
X39197983Y-35415181D01*
X39151334Y-35413487D01*
X39071711Y-35416296D01*
X38983190Y-35423739D01*
X38965160Y-35428447D01*
X38949895Y-35430279D01*
X38922785Y-35428680D01*
X38913564Y-35425638D01*
X38909138Y-35419403D01*
X38907336Y-35407381D01*
X38909645Y-35391023D01*
X38916189Y-35378133D01*
X38957502Y-35331573D01*
X39004544Y-35285565D01*
X39027686Y-35263888D01*
X39120560Y-35170954D01*
X39199450Y-35088583D01*
X39230774Y-35039918D01*
X39260327Y-34986428D01*
X39271074Y-34963897D01*
X39281088Y-34930924D01*
X39287883Y-34909187D01*
X39294888Y-34865711D01*
X39297697Y-34830968D01*
X39291217Y-34781314D01*
X39272784Y-34741086D01*
X39253729Y-34719144D01*
X39223203Y-34699809D01*
X39186873Y-34684345D01*
X39145350Y-34673370D01*
X39107981Y-34669218D01*
X39086260Y-34672942D01*
X39067254Y-34684117D01*
X39050253Y-34694451D01*
X39037754Y-34693915D01*
X39026709Y-34683872D01*
X39024877Y-34675690D01*
X39027446Y-34662484D01*
X39036418Y-34645893D01*
X39048969Y-34631823D01*
X39061086Y-34624888D01*
G37*
G36*
X39998573Y-34648019D02*
G01*
X40021205Y-34661524D01*
X40059774Y-34695942D01*
X40079180Y-34725726D01*
X40084952Y-34752627D01*
X40089166Y-34805566D01*
X40094783Y-34874321D01*
X40087761Y-34966889D01*
X40072387Y-35060343D01*
X40063764Y-35087911D01*
X40054117Y-35118319D01*
X40033008Y-35182934D01*
X40019007Y-35216566D01*
X39990622Y-35267484D01*
X39952206Y-35314996D01*
X39907117Y-35355055D01*
X39861348Y-35382529D01*
X39816561Y-35397367D01*
X39769635Y-35402313D01*
X39751988Y-35399321D01*
X39738860Y-35393948D01*
X39728131Y-35391188D01*
X39703018Y-35378377D01*
X39657833Y-35345893D01*
X39627993Y-35313532D01*
X39603764Y-35273239D01*
X39585275Y-35223569D01*
X39573203Y-35162650D01*
X39573203Y-35151353D01*
X39574595Y-35131753D01*
X39617716Y-35131753D01*
X39625348Y-35178159D01*
X39638538Y-35219192D01*
X39648429Y-35245936D01*
X39658200Y-35263983D01*
X39684272Y-35292770D01*
X39714528Y-35318709D01*
X39736845Y-35332826D01*
X39761691Y-35339890D01*
X39793387Y-35342473D01*
X39832100Y-35338321D01*
X39877712Y-35314752D01*
X39922103Y-35281474D01*
X39949764Y-35237144D01*
X39999345Y-35132937D01*
X40019556Y-35074050D01*
X40030730Y-35028988D01*
X40046330Y-34949397D01*
X40051674Y-34863147D01*
X40046793Y-34797341D01*
X40034511Y-34754610D01*
X40017270Y-34728222D01*
X39995670Y-34713465D01*
X39968265Y-34708419D01*
X39939254Y-34712845D01*
X39896397Y-34729180D01*
X39856987Y-34751496D01*
X39838389Y-34769174D01*
X39822745Y-34784002D01*
X39808775Y-34788164D01*
X39796084Y-34783153D01*
X39791434Y-34766610D01*
X39788258Y-34757349D01*
X39776840Y-34767770D01*
X39760659Y-34788103D01*
X39743318Y-34812405D01*
X39718039Y-34850324D01*
X39681891Y-34913583D01*
X39658260Y-34965729D01*
X39653253Y-34984047D01*
X39641285Y-35011585D01*
X39632920Y-35029110D01*
X39622197Y-35066982D01*
X39617716Y-35131753D01*
X39574595Y-35131753D01*
X39578140Y-35081831D01*
X39588895Y-35049504D01*
X39598421Y-35022332D01*
X39607628Y-34993777D01*
X39638415Y-34924635D01*
X39695263Y-34817290D01*
X39717550Y-34781081D01*
X39749241Y-34740170D01*
X39793510Y-34696573D01*
X39812760Y-34682592D01*
X39840343Y-34669645D01*
X39865012Y-34663906D01*
X39877163Y-34669951D01*
X39885772Y-34675141D01*
X39917096Y-34661341D01*
X39946789Y-34649810D01*
X39973761Y-34644366D01*
X39982309Y-34644366D01*
X39998573Y-34648019D01*
G37*
G36*
X40399537Y-34624888D02*
G01*
X40416754Y-34620769D01*
X40442219Y-34619148D01*
X40507404Y-34626734D01*
X40573194Y-34650106D01*
X40610385Y-34670897D01*
X40631079Y-34687658D01*
X40646453Y-34708449D01*
X40662281Y-34742124D01*
X40676035Y-34789433D01*
X40680600Y-34837990D01*
X40680600Y-34852095D01*
X40668870Y-34927073D01*
X40657885Y-34955165D01*
X40649825Y-34972262D01*
X40631507Y-35017752D01*
X40597740Y-35079607D01*
X40540893Y-35151231D01*
X40472871Y-35219986D01*
X40405094Y-35288435D01*
X40349895Y-35345832D01*
X40333653Y-35363845D01*
X40347086Y-35364822D01*
X40363817Y-35364150D01*
X40383417Y-35363417D01*
X40499555Y-35357861D01*
X40565622Y-35363417D01*
X40615089Y-35368701D01*
X40727677Y-35373248D01*
X40760345Y-35374713D01*
X40760345Y-35390589D01*
X40756572Y-35404920D01*
X40742943Y-35422768D01*
X40724962Y-35436242D01*
X40709420Y-35440109D01*
X40704963Y-35440109D01*
X40633583Y-35428874D01*
X40562142Y-35419105D01*
X40536433Y-35415181D01*
X40489785Y-35413487D01*
X40410162Y-35416296D01*
X40321641Y-35423739D01*
X40303611Y-35428447D01*
X40288346Y-35430279D01*
X40261236Y-35428680D01*
X40252015Y-35425638D01*
X40247589Y-35419403D01*
X40245786Y-35407381D01*
X40248096Y-35391023D01*
X40254640Y-35378133D01*
X40295953Y-35331573D01*
X40342995Y-35285565D01*
X40366137Y-35263888D01*
X40459010Y-35170954D01*
X40537901Y-35088583D01*
X40569225Y-35039918D01*
X40598778Y-34986428D01*
X40609525Y-34963897D01*
X40619539Y-34930924D01*
X40626333Y-34909187D01*
X40633339Y-34865711D01*
X40636147Y-34830968D01*
X40629668Y-34781314D01*
X40611235Y-34741086D01*
X40592180Y-34719144D01*
X40561653Y-34699809D01*
X40525324Y-34684345D01*
X40483801Y-34673370D01*
X40446432Y-34669218D01*
X40424711Y-34672942D01*
X40405704Y-34684117D01*
X40388703Y-34694451D01*
X40376205Y-34693915D01*
X40365160Y-34683872D01*
X40363328Y-34675690D01*
X40365897Y-34662484D01*
X40374869Y-34645893D01*
X40387420Y-34631823D01*
X40399537Y-34624888D01*
G37*
G36*
X41093632Y-34660076D02*
G01*
X41101064Y-34664516D01*
X41105282Y-34672915D01*
X41107231Y-34692482D01*
X41101977Y-34712248D01*
X41082868Y-34737240D01*
X41055262Y-34774154D01*
X41028768Y-34837196D01*
X41011976Y-34882015D01*
X41006481Y-34905584D01*
X41002145Y-34928299D01*
X40996778Y-34960359D01*
X40993902Y-35056221D01*
X40993230Y-35075272D01*
X41018387Y-35072463D01*
X41064733Y-35069654D01*
X41115230Y-35071058D01*
X41162851Y-35079448D01*
X41194303Y-35090842D01*
X41227704Y-35110809D01*
X41249685Y-35147629D01*
X41261244Y-35177801D01*
X41265317Y-35214307D01*
X41262975Y-35238442D01*
X41256769Y-35255706D01*
X41247060Y-35284588D01*
X41238888Y-35308685D01*
X41217506Y-35346809D01*
X41191539Y-35383323D01*
X41169574Y-35407381D01*
X41137510Y-35431807D01*
X41106123Y-35445463D01*
X41074502Y-35449879D01*
X41049956Y-35445483D01*
X41036844Y-35436763D01*
X41017105Y-35416418D01*
X40987430Y-35374713D01*
X40973994Y-35339481D01*
X40961861Y-35285284D01*
X40952259Y-35205942D01*
X40951526Y-35196233D01*
X40950854Y-35187074D01*
X40950854Y-35186341D01*
X40991093Y-35186341D01*
X40993841Y-35229267D01*
X41022088Y-35323518D01*
X41034263Y-35354685D01*
X41058932Y-35379232D01*
X41075442Y-35388642D01*
X41089890Y-35391444D01*
X41106955Y-35386024D01*
X41138921Y-35362501D01*
X41175072Y-35322719D01*
X41198847Y-35284759D01*
X41212294Y-35247969D01*
X41216652Y-35211498D01*
X41216652Y-35200385D01*
X41208657Y-35173151D01*
X41189907Y-35150682D01*
X41163383Y-35134697D01*
X41128785Y-35125341D01*
X41036706Y-35119724D01*
X41015518Y-35120762D01*
X41001962Y-35138469D01*
X40994165Y-35157090D01*
X40991093Y-35186341D01*
X40950854Y-35186341D01*
X40950854Y-35180174D01*
X40950183Y-35174923D01*
X40948839Y-35170954D01*
X40947557Y-35167718D01*
X40945847Y-35165397D01*
X40942733Y-35163565D01*
X40938581Y-35161489D01*
X40933818Y-35158681D01*
X40919198Y-35148188D01*
X40914462Y-35132058D01*
X40918990Y-35113572D01*
X40934612Y-35092613D01*
X40943382Y-35074526D01*
X40949450Y-35032285D01*
X40958139Y-34947843D01*
X40974668Y-34875176D01*
X40998665Y-34795064D01*
X41043361Y-34705671D01*
X41063267Y-34664577D01*
X41069445Y-34660152D01*
X41081402Y-34658349D01*
X41093632Y-34660076D01*
G37*
G36*
X36980809Y-36320275D02*
G01*
X36999555Y-36318749D01*
X37030530Y-36321068D01*
X37053471Y-36327236D01*
X37076523Y-36340469D01*
X37088599Y-36355422D01*
X37092489Y-36372787D01*
X37089731Y-36390645D01*
X37083028Y-36399468D01*
X37072339Y-36402402D01*
X37063564Y-36400343D01*
X37054143Y-36393426D01*
X37029132Y-36375817D01*
X37002363Y-36370223D01*
X36976987Y-36374434D01*
X36954057Y-36387177D01*
X36932632Y-36409973D01*
X36914680Y-36445083D01*
X36909185Y-36501259D01*
X36909185Y-36522142D01*
X36912478Y-36544974D01*
X36922862Y-36568670D01*
X36955682Y-36605761D01*
X36999725Y-36635362D01*
X37057440Y-36657391D01*
X37102022Y-36672944D01*
X37135459Y-36694450D01*
X37159900Y-36721749D01*
X37177124Y-36754860D01*
X37189968Y-36798431D01*
X37197391Y-36855045D01*
X37198063Y-36874645D01*
X37198796Y-36891498D01*
X37195437Y-36916716D01*
X37191535Y-36924239D01*
X37187622Y-36944926D01*
X37171379Y-37003545D01*
X37157337Y-37035855D01*
X37147871Y-37049584D01*
X37134193Y-37070101D01*
X37125441Y-37080212D01*
X37104152Y-37095990D01*
X37080570Y-37109085D01*
X37064096Y-37114492D01*
X37059944Y-37115225D01*
X37054143Y-37115896D01*
X37010376Y-37109916D01*
X36969207Y-37091838D01*
X36910833Y-37047569D01*
X36855329Y-36992065D01*
X36833697Y-36960080D01*
X36828340Y-36940530D01*
X36831468Y-36920137D01*
X36844277Y-36901329D01*
X36858855Y-36888460D01*
X36868091Y-36885331D01*
X36875896Y-36890907D01*
X36879815Y-36916655D01*
X36883715Y-36942012D01*
X36894774Y-36961596D01*
X36942769Y-37011479D01*
X36987953Y-37043661D01*
X37014970Y-37055064D01*
X37042969Y-37058804D01*
X37067885Y-37056748D01*
X37079605Y-37052210D01*
X37107909Y-37026337D01*
X37130713Y-36991393D01*
X37151745Y-36935026D01*
X37158496Y-36880324D01*
X37152703Y-36828347D01*
X37134926Y-36776154D01*
X37116061Y-36751084D01*
X37077277Y-36724840D01*
X37008775Y-36697508D01*
X36956568Y-36678457D01*
X36922618Y-36649392D01*
X36895352Y-36615310D01*
X36876223Y-36577912D01*
X36864794Y-36536491D01*
X36861924Y-36499794D01*
X36865895Y-36459471D01*
X36877615Y-36422282D01*
X36897278Y-36387442D01*
X36923189Y-36356772D01*
X36950921Y-36334772D01*
X36980809Y-36320275D01*
G37*
G36*
X37899345Y-36454670D02*
G01*
X37922841Y-36446573D01*
X37937691Y-36449174D01*
X37945017Y-36455858D01*
X37946362Y-36461142D01*
X37934150Y-36485383D01*
X37895132Y-36584363D01*
X37851840Y-36724131D01*
X37831611Y-36810561D01*
X37809891Y-36943522D01*
X37784673Y-37103318D01*
X37770690Y-37160532D01*
X37756952Y-37205594D01*
X37750216Y-37211646D01*
X37739427Y-37213838D01*
X37726833Y-37210214D01*
X37720743Y-37199672D01*
X37713721Y-37180987D01*
X37706638Y-37153326D01*
X37696929Y-37104783D01*
X37645150Y-36903161D01*
X37616451Y-36761744D01*
X37602196Y-36666507D01*
X37598927Y-36624296D01*
X37594225Y-36584790D01*
X37587081Y-36563297D01*
X37584638Y-36568304D01*
X37579067Y-36590894D01*
X37549590Y-36662704D01*
X37475340Y-36839108D01*
X37438976Y-36936800D01*
X37413913Y-37035968D01*
X37397206Y-37094733D01*
X37382684Y-37119199D01*
X37370132Y-37125666D01*
X37365858Y-37125666D01*
X37356312Y-37122605D01*
X37349888Y-37112747D01*
X37347112Y-37091533D01*
X37349950Y-37070395D01*
X37357370Y-37056728D01*
X37365308Y-37037006D01*
X37374467Y-37009162D01*
X37384970Y-36984677D01*
X37394740Y-36945598D01*
X37412011Y-36890298D01*
X37432658Y-36837520D01*
X37463372Y-36760706D01*
X37491460Y-36694699D01*
X37510078Y-36653874D01*
X37540308Y-36571845D01*
X37559787Y-36517623D01*
X37566748Y-36488558D01*
X37570108Y-36474986D01*
X37580741Y-36463333D01*
X37601674Y-36453143D01*
X37615407Y-36451064D01*
X37621885Y-36453632D01*
X37630707Y-36476559D01*
X37637822Y-36558473D01*
X37648264Y-36680045D01*
X37665727Y-36786046D01*
X37672810Y-36828545D01*
X37684656Y-36897482D01*
X37712561Y-37003606D01*
X37731489Y-37070101D01*
X37738425Y-37088357D01*
X37743091Y-37081275D01*
X37763450Y-36991816D01*
X37770996Y-36945964D01*
X37794870Y-36809982D01*
X37809525Y-36744891D01*
X37831202Y-36655987D01*
X37849398Y-36587416D01*
X37866250Y-36524340D01*
X37877363Y-36484101D01*
X37885160Y-36466286D01*
X37899345Y-36454670D01*
G37*
G36*
X38183644Y-36472133D02*
G01*
X38190228Y-36467564D01*
X38203489Y-36465661D01*
X38222566Y-36467936D01*
X38238171Y-36474392D01*
X38252594Y-36495633D01*
X38258565Y-36537529D01*
X38254981Y-36573763D01*
X38246213Y-36594996D01*
X38233775Y-36606406D01*
X38207458Y-36615076D01*
X38198691Y-36612336D01*
X38186636Y-36601765D01*
X38174944Y-36580860D01*
X38170760Y-36552916D01*
X38175034Y-36525622D01*
X38180530Y-36495153D01*
X38183644Y-36472133D01*
G37*
G36*
X38134856Y-37007758D02*
G01*
X38152865Y-36991779D01*
X38167096Y-36987486D01*
X38179370Y-36993504D01*
X38184438Y-37016001D01*
X38184438Y-37024488D01*
X38186133Y-37036638D01*
X38192498Y-37040669D01*
X38200285Y-37045670D01*
X38201168Y-37059842D01*
X38198360Y-37075779D01*
X38197016Y-37091594D01*
X38192546Y-37109835D01*
X38181038Y-37124649D01*
X38160746Y-37136779D01*
X38144687Y-37139710D01*
X38122545Y-37135174D01*
X38106769Y-37122124D01*
X38101336Y-37110722D01*
X38099380Y-37095746D01*
X38103097Y-37066612D01*
X38114553Y-37037527D01*
X38134856Y-37007758D01*
G37*
D12*
X70716666Y-45262319D02*
X70716666Y-45976604D01*
X70716666Y-45976604D02*
X70669047Y-46119461D01*
X70669047Y-46119461D02*
X70573809Y-46214700D01*
X70573809Y-46214700D02*
X70430952Y-46262319D01*
X70430952Y-46262319D02*
X70335714Y-46262319D01*
X71097619Y-45262319D02*
X71716666Y-45262319D01*
X71716666Y-45262319D02*
X71383333Y-45643271D01*
X71383333Y-45643271D02*
X71526190Y-45643271D01*
X71526190Y-45643271D02*
X71621428Y-45690890D01*
X71621428Y-45690890D02*
X71669047Y-45738509D01*
X71669047Y-45738509D02*
X71716666Y-45833747D01*
X71716666Y-45833747D02*
X71716666Y-46071842D01*
X71716666Y-46071842D02*
X71669047Y-46167080D01*
X71669047Y-46167080D02*
X71621428Y-46214700D01*
X71621428Y-46214700D02*
X71526190Y-46262319D01*
X71526190Y-46262319D02*
X71240476Y-46262319D01*
X71240476Y-46262319D02*
X71145238Y-46214700D01*
X71145238Y-46214700D02*
X71097619Y-46167080D01*
X65109581Y-41366666D02*
X65157201Y-41414285D01*
X65157201Y-41414285D02*
X65204820Y-41557142D01*
X65204820Y-41557142D02*
X65204820Y-41652380D01*
X65204820Y-41652380D02*
X65157201Y-41795237D01*
X65157201Y-41795237D02*
X65061962Y-41890475D01*
X65061962Y-41890475D02*
X64966724Y-41938094D01*
X64966724Y-41938094D02*
X64776248Y-41985713D01*
X64776248Y-41985713D02*
X64633391Y-41985713D01*
X64633391Y-41985713D02*
X64442915Y-41938094D01*
X64442915Y-41938094D02*
X64347677Y-41890475D01*
X64347677Y-41890475D02*
X64252439Y-41795237D01*
X64252439Y-41795237D02*
X64204820Y-41652380D01*
X64204820Y-41652380D02*
X64204820Y-41557142D01*
X64204820Y-41557142D02*
X64252439Y-41414285D01*
X64252439Y-41414285D02*
X64300058Y-41366666D01*
X65204820Y-40414285D02*
X65204820Y-40985713D01*
X65204820Y-40699999D02*
X64204820Y-40699999D01*
X64204820Y-40699999D02*
X64347677Y-40795237D01*
X64347677Y-40795237D02*
X64442915Y-40890475D01*
X64442915Y-40890475D02*
X64490534Y-40985713D01*
X56654819Y-48188094D02*
X55654819Y-48188094D01*
X55654819Y-48188094D02*
X55654819Y-47949999D01*
X55654819Y-47949999D02*
X55702438Y-47807142D01*
X55702438Y-47807142D02*
X55797676Y-47711904D01*
X55797676Y-47711904D02*
X55892914Y-47664285D01*
X55892914Y-47664285D02*
X56083390Y-47616666D01*
X56083390Y-47616666D02*
X56226247Y-47616666D01*
X56226247Y-47616666D02*
X56416723Y-47664285D01*
X56416723Y-47664285D02*
X56511961Y-47711904D01*
X56511961Y-47711904D02*
X56607200Y-47807142D01*
X56607200Y-47807142D02*
X56654819Y-47949999D01*
X56654819Y-47949999D02*
X56654819Y-48188094D01*
X56654819Y-46664285D02*
X56654819Y-47235713D01*
X56654819Y-46949999D02*
X55654819Y-46949999D01*
X55654819Y-46949999D02*
X55797676Y-47045237D01*
X55797676Y-47045237D02*
X55892914Y-47140475D01*
X55892914Y-47140475D02*
X55940533Y-47235713D01*
X56054819Y-54838094D02*
X55054819Y-54838094D01*
X55054819Y-54838094D02*
X55054819Y-54599999D01*
X55054819Y-54599999D02*
X55102438Y-54457142D01*
X55102438Y-54457142D02*
X55197676Y-54361904D01*
X55197676Y-54361904D02*
X55292914Y-54314285D01*
X55292914Y-54314285D02*
X55483390Y-54266666D01*
X55483390Y-54266666D02*
X55626247Y-54266666D01*
X55626247Y-54266666D02*
X55816723Y-54314285D01*
X55816723Y-54314285D02*
X55911961Y-54361904D01*
X55911961Y-54361904D02*
X56007200Y-54457142D01*
X56007200Y-54457142D02*
X56054819Y-54599999D01*
X56054819Y-54599999D02*
X56054819Y-54838094D01*
X55150057Y-53885713D02*
X55102438Y-53838094D01*
X55102438Y-53838094D02*
X55054819Y-53742856D01*
X55054819Y-53742856D02*
X55054819Y-53504761D01*
X55054819Y-53504761D02*
X55102438Y-53409523D01*
X55102438Y-53409523D02*
X55150057Y-53361904D01*
X55150057Y-53361904D02*
X55245295Y-53314285D01*
X55245295Y-53314285D02*
X55340533Y-53314285D01*
X55340533Y-53314285D02*
X55483390Y-53361904D01*
X55483390Y-53361904D02*
X56054819Y-53933332D01*
X56054819Y-53933332D02*
X56054819Y-53314285D01*
X78909581Y-41166666D02*
X78957201Y-41214285D01*
X78957201Y-41214285D02*
X79004820Y-41357142D01*
X79004820Y-41357142D02*
X79004820Y-41452380D01*
X79004820Y-41452380D02*
X78957201Y-41595237D01*
X78957201Y-41595237D02*
X78861962Y-41690475D01*
X78861962Y-41690475D02*
X78766724Y-41738094D01*
X78766724Y-41738094D02*
X78576248Y-41785713D01*
X78576248Y-41785713D02*
X78433391Y-41785713D01*
X78433391Y-41785713D02*
X78242915Y-41738094D01*
X78242915Y-41738094D02*
X78147677Y-41690475D01*
X78147677Y-41690475D02*
X78052439Y-41595237D01*
X78052439Y-41595237D02*
X78004820Y-41452380D01*
X78004820Y-41452380D02*
X78004820Y-41357142D01*
X78004820Y-41357142D02*
X78052439Y-41214285D01*
X78052439Y-41214285D02*
X78100058Y-41166666D01*
X78100058Y-40785713D02*
X78052439Y-40738094D01*
X78052439Y-40738094D02*
X78004820Y-40642856D01*
X78004820Y-40642856D02*
X78004820Y-40404761D01*
X78004820Y-40404761D02*
X78052439Y-40309523D01*
X78052439Y-40309523D02*
X78100058Y-40261904D01*
X78100058Y-40261904D02*
X78195296Y-40214285D01*
X78195296Y-40214285D02*
X78290534Y-40214285D01*
X78290534Y-40214285D02*
X78433391Y-40261904D01*
X78433391Y-40261904D02*
X79004820Y-40833332D01*
X79004820Y-40833332D02*
X79004820Y-40214285D01*
D13*
%TO.C,J2*%
X70240000Y-44220000D02*
X64420000Y-44220000D01*
X70240000Y-42500000D02*
X64420000Y-42500000D01*
X70240000Y-39400000D02*
X64420000Y-39400000D01*
X70240000Y-38400000D02*
X64420000Y-38400000D01*
X70240000Y-37480000D02*
X70240000Y-44220000D01*
X68900000Y-37480000D02*
X70240000Y-37480000D01*
X64420000Y-44220000D02*
X64420000Y-37480000D01*
X64420000Y-37480000D02*
X68300000Y-37480000D01*
X68600000Y-37480000D02*
X68160000Y-36870000D01*
X69040000Y-36870000D01*
X68600000Y-37480000D01*
G36*
X68600000Y-37480000D02*
G01*
X68160000Y-36870000D01*
X69040000Y-36870000D01*
X68600000Y-37480000D01*
G37*
%TO.C,J3*%
X61500000Y-55307500D02*
X61500000Y-56357500D01*
X61700000Y-46957500D02*
X63600000Y-46957500D01*
X61700000Y-49657500D02*
X61700000Y-46957500D01*
X61700000Y-56157500D02*
X61700000Y-53557500D01*
X62550000Y-56357500D02*
X61500000Y-56357500D01*
X67600000Y-46957500D02*
X76400000Y-46957500D01*
X76400000Y-46957500D02*
X76400000Y-56157500D01*
X76400000Y-56157500D02*
X61700000Y-56157500D01*
%TO.C,C1*%
X62641250Y-37156250D02*
X61853751Y-37156251D01*
X62247500Y-36762500D02*
X62247500Y-37550000D01*
X63810000Y-38854438D02*
X63810001Y-44610001D01*
X62745562Y-37790002D02*
X63810000Y-38854438D01*
X62745562Y-37790002D02*
X61460000Y-37789999D01*
X58054438Y-37790000D02*
X59340000Y-37789999D01*
X58054438Y-37790000D02*
X56990002Y-38854438D01*
X63810001Y-44610001D02*
X61460000Y-44610001D01*
X56990002Y-38854438D02*
X56989999Y-44610001D01*
X56989999Y-44610001D02*
X59340000Y-44610001D01*
%TO.C,D1*%
X57200000Y-49810000D02*
X57200000Y-45800000D01*
X57200000Y-49810000D02*
X59200000Y-49810000D01*
X59200000Y-49810000D02*
X59200000Y-45800000D01*
%TO.C,D2*%
X59000002Y-55159999D02*
X59000000Y-51150000D01*
X57000000Y-55159999D02*
X59000002Y-55159999D01*
X57000000Y-55159999D02*
X57000000Y-51150001D01*
%TO.C,C2*%
X71854438Y-37590000D02*
X70790002Y-38654438D01*
X71854438Y-37590000D02*
X73140000Y-37589999D01*
X70790002Y-38654438D02*
X70789999Y-44410001D01*
X76047500Y-36562500D02*
X76047500Y-37350000D01*
X76441250Y-36956250D02*
X75653751Y-36956251D01*
X76545562Y-37590002D02*
X75260000Y-37589999D01*
X76545562Y-37590002D02*
X77610000Y-38654438D01*
X70789999Y-44410001D02*
X73140000Y-44410001D01*
X77610000Y-38654438D02*
X77610001Y-44410001D01*
X77610001Y-44410001D02*
X75260000Y-44410001D01*
%TD*%
%LPC*%
D14*
%TO.C,J2*%
X68600000Y-41000000D03*
D15*
X66060000Y-41000000D03*
%TD*%
D16*
%TO.C,J3*%
X65600000Y-46857500D03*
D17*
X68600000Y-51557500D03*
D18*
X62600000Y-51557500D03*
%TD*%
D19*
%TO.C,C1*%
X60400001Y-38499998D03*
X60399999Y-43900002D03*
%TD*%
D20*
%TO.C,D1*%
X58200000Y-49100000D03*
X58200000Y-45800000D03*
%TD*%
%TO.C,D2*%
X58000000Y-54450000D03*
X58000000Y-51150000D03*
%TD*%
D19*
%TO.C,C2*%
X74200001Y-38299998D03*
X74199999Y-43700002D03*
%TD*%
%LPD*%
M02*
